M48
; DRILL file {KiCad 8.0.6} date 2026-01-05T17:47:00-0800
; FORMAT={-:-/ absolute / metric / decimal}
; #@! TF.CreationDate,2026-01-05T17:47:00-08:00
; #@! TF.GenerationSoftware,Kicad,Pcbnew,8.0.6
; #@! TF.FileFunction,Plated,1,4,PTH
FMAT,2
METRIC
; #@! TA.AperFunction,Plated,PTH,ViaDrill
T1C0.300
; #@! TA.AperFunction,Plated,PTH,ViaDrill
T2C0.400
; #@! TA.AperFunction,Plated,PTH,ComponentDrill
T3C1.000
; #@! TA.AperFunction,Plated,PTH,ComponentDrill
T4C1.100
; #@! TA.AperFunction,Plated,PTH,ComponentDrill
T5C2.300
; #@! TA.AperFunction,Plated,PTH,ComponentDrill
T6C3.200
%
G90
G05
T1
X77.9Y-74.0
X77.9Y-75.9
X78.8Y-89.7
X79.2Y-77.3
X81.1Y-89.7
X83.7Y-89.8
X85.2Y-76.8
X85.8Y-74.3
X86.2Y-80.2
X86.2Y-82.1
X86.3Y-89.8
X87.4Y-81.1
X88.4Y-68.8
X88.5Y-67.1
X88.5Y-80.2
X88.5Y-82.0
X90.4Y-67.1
X90.4Y-68.8
X91.1Y-64.2
X91.4Y-57.0
X91.8Y-59.1
X91.8Y-61.6
X95.1Y-56.8
X95.2Y-59.3
X95.2Y-61.5
X95.2Y-63.6
X95.3Y-54.6
X97.2Y-53.0
X97.8Y-59.3
X97.8Y-61.5
X97.8Y-63.5
X98.1Y-76.8
X98.8Y-57.1
X98.8Y-62.4
X99.0Y-51.4
X99.6Y-79.2
X99.9Y-81.6
X100.0Y-64.3
X100.0Y-83.4
X100.4Y-55.7
X100.7Y-77.8
X101.4Y-62.9
X101.9Y-73.8
X102.1Y-61.1
X102.2Y-54.1
X102.2Y-65.0
X102.5Y-59.3
X102.9Y-69.4
X103.8Y-71.8
X103.8Y-73.8
X104.0Y-57.9
X104.3Y-51.2
X104.4Y-53.3
X105.5Y-52.3
X105.5Y-56.5
X105.7Y-71.8
X105.7Y-73.8
X106.5Y-51.3
X106.5Y-53.2
X106.6Y-81.4
X107.7Y-71.8
X107.7Y-82.5
X107.9Y-56.2
X108.8Y-49.3
X108.9Y-51.4
X109.7Y-76.2
X109.8Y-59.6
X109.8Y-61.4
X110.4Y-83.3
X110.5Y-90.4
X111.1Y-60.4
X111.2Y-71.9
X112.3Y-73.5
X112.3Y-76.2
X112.4Y-59.2
X112.4Y-61.6
X112.5Y-83.3
X112.6Y-55.4
X112.7Y-65.7
X112.9Y-52.8
X113.3Y-90.4
X113.5Y-54.2
X113.5Y-71.9
X113.6Y-68.3
X113.8Y-56.6
X114.4Y-59.1
X114.5Y-67.1
X114.6Y-55.4
X114.8Y-82.9
X115.5Y-45.0
X115.5Y-65.2
X115.7Y-81.5
X116.2Y-90.3
X116.5Y-62.1
X117.7Y-88.7
X118.9Y-90.7
X119.1Y-89.3
X120.5Y-44.9
X120.6Y-88.0
X120.7Y-75.4
X120.7Y-86.2
X120.9Y-79.2
X121.1Y-90.1
X121.7Y-45.7
X122.4Y-46.9
X122.5Y-79.4
X122.8Y-75.4
X122.8Y-86.2
X123.0Y-88.9
X123.2Y-58.1
X123.3Y-48.0
X123.3Y-49.7
X123.3Y-87.5
X124.4Y-79.5
X125.2Y-57.2
X125.2Y-90.3
X125.3Y-84.2
X125.7Y-66.4
X125.9Y-59.9
X126.0Y-75.5
X127.0Y-69.5
X127.4Y-79.6
X127.6Y-91.9
X128.2Y-68.6
X128.3Y-70.2
X129.0Y-59.9
X129.0Y-62.2
X129.0Y-63.8
X129.1Y-67.3
X129.6Y-91.4
X129.7Y-65.5
X130.0Y-79.6
X130.1Y-78.0
X130.8Y-53.5
X131.5Y-91.4
X131.6Y-78.0
X132.6Y-67.7
X132.9Y-55.7
X133.5Y-45.0
X133.5Y-52.4
X134.3Y-56.9
X134.3Y-77.9
X134.7Y-91.7
X134.8Y-62.5
X134.8Y-64.4
X134.8Y-66.2
X134.9Y-67.9
X135.1Y-75.3
X135.3Y-58.8
X135.5Y-45.0
X135.6Y-53.4
X135.6Y-55.7
X136.2Y-71.0
X136.3Y-64.4
X136.4Y-54.5
X136.4Y-60.7
X136.4Y-62.6
X136.4Y-66.2
X136.4Y-67.9
X136.8Y-57.0
X137.1Y-77.9
X137.2Y-52.3
X137.2Y-91.7
X137.5Y-45.0
X137.8Y-71.0
X137.9Y-54.1
X138.0Y-58.9
X138.1Y-80.8
X139.3Y-77.9
X139.6Y-46.2
X139.6Y-72.4
X139.6Y-80.8
X140.0Y-52.4
X140.1Y-57.3
X140.4Y-70.5
X140.6Y-80.0
X140.9Y-45.0
X141.4Y-77.9
X141.4Y-81.7
X141.4Y-83.3
X141.7Y-50.4
X141.8Y-58.3
X142.0Y-53.0
X142.5Y-55.1
X145.2Y-53.4
X146.4Y-55.1
X146.8Y-57.6
X147.2Y-59.6
X147.5Y-53.5
X148.8Y-49.8
X149.3Y-63.3
X149.3Y-65.6
X149.3Y-67.9
X149.4Y-58.8
X150.3Y-54.4
X152.4Y-56.6
T2
X72.1Y-71.2
X75.5Y-74.0
X75.9Y-82.1
X75.9Y-84.3
X75.9Y-86.6
X76.2Y-89.0
X77.8Y-68.3
X82.9Y-70.7
X89.3Y-77.0
X91.6Y-76.2
X95.2Y-65.6
X96.9Y-80.9
X98.8Y-82.6
X99.2Y-77.8
X105.7Y-82.6
X107.9Y-50.6
X108.9Y-47.8
X113.1Y-67.0
X115.7Y-79.8
X117.4Y-94.6
X121.7Y-87.0
X122.6Y-90.3
X123.4Y-84.9
X124.4Y-74.7
X126.75Y-90.55
X127.5Y-59.9
X128.4Y-45.1
X130.2Y-68.6
X131.1Y-94.7
X133.3Y-66.4
X133.9Y-74.6
X136.5Y-84.5
X136.5Y-86.4
X136.5Y-88.4
X136.7Y-69.7
X138.005Y-72.395
X140.1Y-85.8
X140.1Y-88.2
X141.0Y-46.8
X141.1Y-49.1
X143.3Y-53.8
T3
X89.415Y-92.4
X89.415Y-94.94
X91.955Y-92.4
X91.955Y-94.94
X94.495Y-92.4
X94.495Y-94.94
X97.035Y-92.4
X97.035Y-94.94
X99.575Y-92.4
X99.575Y-94.94
X141.525Y-61.175
X141.525Y-63.715
X141.525Y-66.255
X144.065Y-61.175
X144.065Y-63.715
X144.065Y-66.255
X147.1Y-76.475
X147.1Y-79.015
X147.1Y-81.555
X147.2Y-88.56
X147.2Y-91.1
X147.2Y-93.64
X157.6Y-76.46
X157.6Y-79.0
X157.6Y-81.54
X157.6Y-88.575
X157.6Y-91.115
X157.6Y-93.655
T4
X83.0Y-58.45
X85.5Y-58.45
X88.0Y-58.45
T5
X104.2Y-47.2
X145.74Y-47.2
T6
X74.0Y-54.0
X74.0Y-96.0
X166.0Y-54.0
X166.0Y-96.0
M30
