%TF.GenerationSoftware,KiCad,Pcbnew,8.0.6*%
%TF.CreationDate,2025-12-23T16:16:10-08:00*%
%TF.ProjectId,ADC_CS5381KKSZ_Board,4144435f-4353-4353-9338-314b4b535a5f,rev?*%
%TF.SameCoordinates,PX42c1d80PY5f5e100*%
%TF.FileFunction,Soldermask,Bot*%
%TF.FilePolarity,Negative*%
%FSLAX46Y46*%
G04 Gerber Fmt 4.6, Leading zero omitted, Abs format (unit mm)*
G04 Created by KiCad (PCBNEW 8.0.6) date 2025-12-23 16:16:10*
%MOMM*%
%LPD*%
G01*
G04 APERTURE LIST*
G04 Aperture macros list*
%AMRoundRect*
0 Rectangle with rounded corners*
0 $1 Rounding radius*
0 $2 $3 $4 $5 $6 $7 $8 $9 X,Y pos of 4 corners*
0 Add a 4 corners polygon primitive as box body*
4,1,4,$2,$3,$4,$5,$6,$7,$8,$9,$2,$3,0*
0 Add four circle primitives for the rounded corners*
1,1,$1+$1,$2,$3*
1,1,$1+$1,$4,$5*
1,1,$1+$1,$6,$7*
1,1,$1+$1,$8,$9*
0 Add four rect primitives between the rounded corners*
20,1,$1+$1,$2,$3,$4,$5,0*
20,1,$1+$1,$4,$5,$6,$7,0*
20,1,$1+$1,$6,$7,$8,$9,0*
20,1,$1+$1,$8,$9,$2,$3,0*%
G04 Aperture macros list end*
%ADD10O,1.700000X1.700000*%
%ADD11R,1.700000X1.700000*%
%ADD12C,6.400000*%
%ADD13C,1.650000*%
%ADD14R,1.650000X1.650000*%
%ADD15C,2.900000*%
%ADD16C,0.900000*%
%ADD17RoundRect,0.250000X-0.250000X-0.475000X0.250000X-0.475000X0.250000X0.475000X-0.250000X0.475000X0*%
G04 APERTURE END LIST*
D10*
%TO.C,J2*%
X19415000Y5060000D03*
X19415000Y7600000D03*
X21955000Y5060000D03*
X21955000Y7600000D03*
X24495000Y5060000D03*
X24495000Y7600000D03*
X27035000Y5060000D03*
X27035000Y7600000D03*
X29575000Y5060000D03*
D11*
X29575000Y7600000D03*
%TD*%
D10*
%TO.C,J11*%
X77100000Y18445000D03*
X77100000Y20985000D03*
D11*
X77100000Y23525000D03*
%TD*%
D10*
%TO.C,J4*%
X77200000Y6360000D03*
X77200000Y8900000D03*
D11*
X77200000Y11440000D03*
%TD*%
D10*
%TO.C,J9*%
X87600000Y18460000D03*
X87600000Y21000000D03*
D11*
X87600000Y23540000D03*
%TD*%
D10*
%TO.C,J12*%
X74065000Y33745000D03*
X71525000Y33745000D03*
X74065000Y36285000D03*
X71525000Y36285000D03*
X74065000Y38825000D03*
D11*
X71525000Y38825000D03*
%TD*%
D10*
%TO.C,J10*%
X87600000Y6345000D03*
X87600000Y8885000D03*
D11*
X87600000Y11425000D03*
%TD*%
D12*
%TO.C,H6*%
X96000000Y46000000D03*
%TD*%
D13*
%TO.C,JST2*%
X13000000Y41550000D03*
X15500000Y41550000D03*
D14*
X18000000Y41550000D03*
%TD*%
D12*
%TO.C,H5*%
X4000000Y46000000D03*
%TD*%
%TO.C,H8*%
X96000000Y4000000D03*
%TD*%
%TO.C,H7*%
X4000000Y4000000D03*
%TD*%
D15*
%TO.C,MK2*%
X34200000Y52800000D03*
D16*
X36540000Y51600000D03*
X36540000Y52800000D03*
X36540000Y54000000D03*
%TD*%
D17*
%TO.C,C7*%
X75250000Y49100000D03*
X73350000Y49100000D03*
%TD*%
%TO.C,C2*%
X42650000Y54300000D03*
X40750000Y54300000D03*
%TD*%
D15*
%TO.C,MK1*%
X75740000Y52800000D03*
D16*
X73400000Y54000000D03*
X73400000Y52800000D03*
X73400000Y51600000D03*
%TD*%
M02*
