G04 #@! TF.GenerationSoftware,KiCad,Pcbnew,8.0.6*
G04 #@! TF.CreationDate,2026-01-05T17:46:43-08:00*
G04 #@! TF.ProjectId,ADC_CS5381KKSZ_Board,4144435f-4353-4353-9338-314b4b535a5f,rev?*
G04 #@! TF.SameCoordinates,Original*
G04 #@! TF.FileFunction,Copper,L4,Bot*
G04 #@! TF.FilePolarity,Positive*
%FSLAX46Y46*%
G04 Gerber Fmt 4.6, Leading zero omitted, Abs format (unit mm)*
G04 Created by KiCad (PCBNEW 8.0.6) date 2026-01-05 17:46:43*
%MOMM*%
%LPD*%
G01*
G04 APERTURE LIST*
G04 Aperture macros list*
%AMRoundRect*
0 Rectangle with rounded corners*
0 $1 Rounding radius*
0 $2 $3 $4 $5 $6 $7 $8 $9 X,Y pos of 4 corners*
0 Add a 4 corners polygon primitive as box body*
4,1,4,$2,$3,$4,$5,$6,$7,$8,$9,$2,$3,0*
0 Add four circle primitives for the rounded corners*
1,1,$1+$1,$2,$3*
1,1,$1+$1,$4,$5*
1,1,$1+$1,$6,$7*
1,1,$1+$1,$8,$9*
0 Add four rect primitives between the rounded corners*
20,1,$1+$1,$2,$3,$4,$5,0*
20,1,$1+$1,$4,$5,$6,$7,0*
20,1,$1+$1,$6,$7,$8,$9,0*
20,1,$1+$1,$8,$9,$2,$3,0*%
G04 Aperture macros list end*
G04 #@! TA.AperFunction,ComponentPad*
%ADD10R,1.700000X1.700000*%
G04 #@! TD*
G04 #@! TA.AperFunction,ComponentPad*
%ADD11O,1.700000X1.700000*%
G04 #@! TD*
G04 #@! TA.AperFunction,ComponentPad*
%ADD12C,6.400000*%
G04 #@! TD*
G04 #@! TA.AperFunction,ComponentPad*
%ADD13R,1.650000X1.650000*%
G04 #@! TD*
G04 #@! TA.AperFunction,ComponentPad*
%ADD14C,1.650000*%
G04 #@! TD*
G04 #@! TA.AperFunction,SMDPad,CuDef*
%ADD15C,0.900000*%
G04 #@! TD*
G04 #@! TA.AperFunction,ComponentPad*
%ADD16C,2.900000*%
G04 #@! TD*
G04 #@! TA.AperFunction,SMDPad,CuDef*
%ADD17RoundRect,0.250000X-0.250000X-0.475000X0.250000X-0.475000X0.250000X0.475000X-0.250000X0.475000X0*%
G04 #@! TD*
G04 #@! TA.AperFunction,ViaPad*
%ADD18C,0.800000*%
G04 #@! TD*
G04 #@! TA.AperFunction,ViaPad*
%ADD19C,0.700000*%
G04 #@! TD*
G04 #@! TA.AperFunction,ViaPad*
%ADD20C,0.900000*%
G04 #@! TD*
G04 #@! TA.AperFunction,Conductor*
%ADD21C,0.300000*%
G04 #@! TD*
G04 #@! TA.AperFunction,Conductor*
%ADD22C,0.150000*%
G04 #@! TD*
G04 #@! TA.AperFunction,Conductor*
%ADD23C,0.500000*%
G04 #@! TD*
G04 APERTURE END LIST*
D10*
X147100000Y-76475000D03*
D11*
X147100000Y-79015000D03*
X147100000Y-81555000D03*
D10*
X147200000Y-88560000D03*
D11*
X147200000Y-91100000D03*
X147200000Y-93640000D03*
D10*
X157600000Y-76460000D03*
D11*
X157600000Y-79000000D03*
X157600000Y-81540000D03*
D10*
X141525000Y-61175000D03*
D11*
X144065000Y-61175000D03*
X141525000Y-63715000D03*
X144065000Y-63715000D03*
X141525000Y-66255000D03*
X144065000Y-66255000D03*
D10*
X157600000Y-88575000D03*
D11*
X157600000Y-91115000D03*
X157600000Y-93655000D03*
D12*
X166000000Y-54000000D03*
D13*
X88000000Y-58450000D03*
D14*
X85500000Y-58450000D03*
X83000000Y-58450000D03*
D10*
X99575000Y-92400000D03*
D11*
X99575000Y-94940000D03*
X97035000Y-92400000D03*
X97035000Y-94940000D03*
X94495000Y-92400000D03*
X94495000Y-94940000D03*
X91955000Y-92400000D03*
X91955000Y-94940000D03*
X89415000Y-92400000D03*
X89415000Y-94940000D03*
D12*
X74000000Y-54000000D03*
X166000000Y-96000000D03*
X74000000Y-96000000D03*
D15*
X106540000Y-46000000D03*
X106540000Y-47200000D03*
X106540000Y-48400000D03*
D16*
X104200000Y-47200000D03*
D17*
X143350000Y-50900000D03*
X145250000Y-50900000D03*
X110750000Y-45700000D03*
X112650000Y-45700000D03*
D15*
X143400000Y-48400000D03*
X143400000Y-47200000D03*
X143400000Y-46000000D03*
D16*
X145740000Y-47200000D03*
D18*
X113100000Y-67000000D03*
X127500000Y-59900000D03*
X99200000Y-77800000D03*
D19*
X136400000Y-54500000D03*
D18*
X115700000Y-79800000D03*
D19*
X125200000Y-57200000D03*
D18*
X126750000Y-90550000D03*
D19*
X87400000Y-81100000D03*
D18*
X143300000Y-53800000D03*
D19*
X105500000Y-52300000D03*
D20*
X105700000Y-82600000D03*
D18*
X136700000Y-69700000D03*
D19*
X121700000Y-45700000D03*
X111100000Y-60400000D03*
X113500000Y-54200000D03*
X127000000Y-69500000D03*
X100000000Y-64300000D03*
D18*
X141100000Y-49100000D03*
X141000000Y-46800000D03*
X108900000Y-47800000D03*
X107900000Y-50600000D03*
X133300000Y-66400000D03*
X130200000Y-68600000D03*
D19*
X130100000Y-78000000D03*
X122500000Y-79400000D03*
D18*
X124400000Y-74700000D03*
D19*
X139600000Y-80800000D03*
X127400000Y-79600000D03*
X135600000Y-53400000D03*
X115700000Y-81500000D03*
X113800000Y-56600000D03*
X136400000Y-62600000D03*
X91800000Y-59100000D03*
X99600000Y-79200000D03*
X131500000Y-91400000D03*
X102900000Y-69400000D03*
X77900000Y-75900000D03*
X136300000Y-64400000D03*
X135500000Y-45000000D03*
X149300000Y-65600000D03*
X136400000Y-66200000D03*
X122800000Y-86200000D03*
X81100000Y-89700000D03*
D18*
X75900000Y-84300000D03*
D19*
X111200000Y-71900000D03*
X120700000Y-86200000D03*
X134800000Y-62500000D03*
X110400000Y-83300000D03*
D18*
X136500000Y-84500000D03*
D19*
X140600000Y-80000000D03*
X120500000Y-44900000D03*
X97800000Y-59300000D03*
X108800000Y-49300000D03*
X133500000Y-52400000D03*
D18*
X136500000Y-86400000D03*
D19*
X100400000Y-55700000D03*
X97200000Y-53000000D03*
X85200000Y-76800000D03*
X125700000Y-66400000D03*
X99900000Y-81600000D03*
X106600000Y-81400000D03*
X134300000Y-56900000D03*
X126000000Y-75500000D03*
X128200000Y-68600000D03*
X137900000Y-54100000D03*
X134900000Y-67900000D03*
X129000000Y-62200000D03*
X112400000Y-61600000D03*
X116200000Y-90300000D03*
X97800000Y-61500000D03*
X101900000Y-73800000D03*
X104400000Y-53300000D03*
X139600000Y-46200000D03*
X139600000Y-72400000D03*
X133500000Y-45000000D03*
X148800000Y-49800000D03*
X123300000Y-87500000D03*
X139300000Y-77900000D03*
D18*
X75900000Y-86600000D03*
D19*
X122800000Y-75400000D03*
X103800000Y-71800000D03*
X109700000Y-76200000D03*
X137800000Y-71000000D03*
X112300000Y-73500000D03*
X112600000Y-55400000D03*
X142000000Y-53000000D03*
X114400000Y-59100000D03*
X85800000Y-74300000D03*
X103800000Y-73800000D03*
X141700000Y-50400000D03*
X88500000Y-80200000D03*
X142500000Y-55100000D03*
X132600000Y-67700000D03*
D18*
X91600000Y-76200000D03*
D19*
X112900000Y-52800000D03*
D18*
X95200000Y-65600000D03*
X128400000Y-45100000D03*
D19*
X141400000Y-81700000D03*
X128300000Y-70200000D03*
X90400000Y-67100000D03*
X114600000Y-55400000D03*
X122400000Y-46900000D03*
X117700000Y-88700000D03*
X110500000Y-90400000D03*
X116500000Y-62100000D03*
X118900000Y-90700000D03*
X112500000Y-83300000D03*
D18*
X82900000Y-70700000D03*
D19*
X95100000Y-56800000D03*
X102500000Y-59300000D03*
X106500000Y-53200000D03*
X135600000Y-55700000D03*
X141400000Y-77900000D03*
D18*
X76200000Y-89000000D03*
D19*
X95200000Y-63600000D03*
X114500000Y-67100000D03*
X149300000Y-67900000D03*
X113500000Y-71900000D03*
X137200000Y-52300000D03*
X123300000Y-49700000D03*
X141400000Y-83300000D03*
D18*
X131100000Y-94700000D03*
X77800000Y-68300000D03*
D19*
X102100000Y-61100000D03*
X91400000Y-57000000D03*
X140400000Y-70500000D03*
X104000000Y-57900000D03*
X113300000Y-90400000D03*
X86200000Y-82100000D03*
X105700000Y-71800000D03*
X112400000Y-59200000D03*
X91800000Y-61600000D03*
X129000000Y-59900000D03*
D18*
X75500000Y-74000000D03*
D19*
X137200000Y-91700000D03*
X100700000Y-77800000D03*
X121100000Y-90100000D03*
X127600000Y-91900000D03*
X129600000Y-91400000D03*
X77900000Y-74000000D03*
X138000000Y-58900000D03*
X145200000Y-53400000D03*
X137100000Y-77900000D03*
X105700000Y-73800000D03*
X115500000Y-65200000D03*
X136400000Y-60700000D03*
X149300000Y-63300000D03*
D18*
X96900000Y-80900000D03*
D19*
X91100000Y-64200000D03*
X131600000Y-78000000D03*
X107700000Y-82500000D03*
D18*
X117400000Y-94600000D03*
D19*
X134800000Y-64400000D03*
X137500000Y-45000000D03*
X98800000Y-57100000D03*
X136200000Y-71000000D03*
X98800000Y-62400000D03*
D18*
X136500000Y-88400000D03*
D19*
X79200000Y-77300000D03*
X120600000Y-88000000D03*
X147500000Y-53500000D03*
X106500000Y-51300000D03*
X109800000Y-61400000D03*
X125300000Y-84200000D03*
X107900000Y-56200000D03*
X107700000Y-71800000D03*
X98100000Y-76800000D03*
X138100000Y-80800000D03*
X120900000Y-79200000D03*
X147200000Y-59600000D03*
X97800000Y-63500000D03*
X112700000Y-65700000D03*
X135100000Y-75300000D03*
X149400000Y-58800000D03*
X129000000Y-63800000D03*
X86300000Y-89800000D03*
X102200000Y-65000000D03*
X105500000Y-56500000D03*
D18*
X75900000Y-82100000D03*
D19*
X88500000Y-82000000D03*
X132900000Y-55700000D03*
X83700000Y-89800000D03*
X102200000Y-54100000D03*
X141800000Y-58300000D03*
X86200000Y-80200000D03*
X108900000Y-51400000D03*
X136800000Y-57000000D03*
X123000000Y-88900000D03*
X150300000Y-54400000D03*
X88500000Y-67100000D03*
X78800000Y-89700000D03*
X88400000Y-68800000D03*
X124400000Y-79500000D03*
X135300000Y-58800000D03*
X90400000Y-68800000D03*
X130000000Y-79600000D03*
X115500000Y-45000000D03*
X134800000Y-66200000D03*
X129100000Y-67300000D03*
X140900000Y-45000000D03*
X140100000Y-57300000D03*
X120700000Y-75400000D03*
X123300000Y-48000000D03*
D18*
X89300000Y-77000000D03*
D19*
X100000000Y-83400000D03*
D18*
X72100000Y-71200000D03*
D19*
X146800000Y-57600000D03*
X136400000Y-67900000D03*
X134300000Y-77900000D03*
D18*
X140100000Y-88200000D03*
D19*
X134700000Y-91700000D03*
X125200000Y-90300000D03*
X146400000Y-55100000D03*
X140000000Y-52400000D03*
X130800000Y-53500000D03*
X113600000Y-68300000D03*
X114800000Y-82900000D03*
X109800000Y-59600000D03*
D18*
X140100000Y-85800000D03*
D19*
X152400000Y-56600000D03*
X99000000Y-51400000D03*
X129700000Y-65500000D03*
X112300000Y-76200000D03*
X101400000Y-62900000D03*
X123200000Y-58100000D03*
X95200000Y-59300000D03*
X95300000Y-54600000D03*
X104300000Y-51200000D03*
X125900000Y-59900000D03*
X95200000Y-61500000D03*
D18*
X138005000Y-72395000D03*
X133900000Y-74600000D03*
X98800000Y-82600000D03*
D19*
X119100000Y-89300000D03*
D18*
X123400000Y-84900000D03*
X122600000Y-90300000D03*
X121700000Y-87000000D03*
D21*
X127500000Y-59900000D02*
X127500000Y-62500000D01*
X114000000Y-64500000D02*
X114000000Y-66100000D01*
X126200000Y-63800000D02*
X114700000Y-63800000D01*
X114700000Y-63800000D02*
X114000000Y-64500000D01*
X127500000Y-62500000D02*
X126200000Y-63800000D01*
X114000000Y-66100000D02*
X113100000Y-67000000D01*
D22*
X125200000Y-57200000D02*
X116800000Y-57200000D01*
X109200000Y-73300000D02*
X110900000Y-75000000D01*
X114600000Y-75900000D02*
X113700000Y-75000000D01*
X102000000Y-75000000D02*
X99200000Y-77800000D01*
X113700000Y-63300000D02*
X111300000Y-63300000D01*
X115700000Y-58300000D02*
X115700000Y-61300000D01*
X115700000Y-79800000D02*
X114600000Y-78700000D01*
X111300000Y-63300000D02*
X109200000Y-65400000D01*
X115700000Y-61300000D02*
X113700000Y-63300000D01*
X109200000Y-65400000D02*
X109200000Y-73300000D01*
X113700000Y-75000000D02*
X110900000Y-75000000D01*
X110900000Y-75000000D02*
X102000000Y-75000000D01*
X114600000Y-78700000D02*
X114600000Y-75900000D01*
X116800000Y-57200000D02*
X115700000Y-58300000D01*
D21*
X106540000Y-46000000D02*
X108700000Y-46000000D01*
X141525000Y-61175000D02*
X144065000Y-61175000D01*
X143350000Y-48450000D02*
X143400000Y-48400000D01*
X147200000Y-88560000D02*
X142660000Y-88560000D01*
X147100000Y-76475000D02*
X143825000Y-76475000D01*
X137500000Y-61900000D02*
X138225000Y-61175000D01*
X161500000Y-72560000D02*
X157600000Y-76460000D01*
X126750000Y-90550000D02*
X127100000Y-90200000D01*
X157600000Y-88575000D02*
X147215000Y-88575000D01*
X112000000Y-49600000D02*
X112000000Y-47900000D01*
X109000000Y-45700000D02*
X110750000Y-45700000D01*
X136700000Y-69700000D02*
X137500000Y-68900000D01*
X147215000Y-88575000D02*
X147200000Y-88560000D01*
X161500000Y-64500000D02*
X161500000Y-72560000D01*
X127100000Y-90200000D02*
X140900000Y-90200000D01*
X144065000Y-61175000D02*
X158175000Y-61175000D01*
X143300000Y-53800000D02*
X143300000Y-50950000D01*
X137500000Y-68900000D02*
X137500000Y-61900000D01*
X147115000Y-76460000D02*
X147100000Y-76475000D01*
X142660000Y-88560000D02*
X142600000Y-88500000D01*
X143350000Y-50900000D02*
X143350000Y-48450000D01*
X143825000Y-76475000D02*
X142600000Y-77700000D01*
X157600000Y-76460000D02*
X147115000Y-76460000D01*
X143300000Y-50950000D02*
X143350000Y-50900000D01*
X108700000Y-46000000D02*
X109000000Y-45700000D01*
X140900000Y-90200000D02*
X142600000Y-88500000D01*
X158175000Y-61175000D02*
X161500000Y-64500000D01*
X109300000Y-52300000D02*
X112000000Y-49600000D01*
X105500000Y-52300000D02*
X109300000Y-52300000D01*
X112000000Y-47900000D02*
X110750000Y-46650000D01*
X138225000Y-61175000D02*
X141525000Y-61175000D01*
X110750000Y-46650000D02*
X110750000Y-45700000D01*
X142600000Y-77700000D02*
X142600000Y-88500000D01*
D23*
X111100000Y-56400000D02*
X108900000Y-54200000D01*
X113500000Y-54200000D02*
X108900000Y-54200000D01*
X100000000Y-59100000D02*
X100000000Y-64300000D01*
X115300000Y-46800000D02*
X116400000Y-45700000D01*
X111100000Y-60400000D02*
X111100000Y-56400000D01*
X115300000Y-52400000D02*
X115300000Y-46800000D01*
X113500000Y-54200000D02*
X115300000Y-52400000D01*
X108900000Y-54200000D02*
X104900000Y-54200000D01*
X104900000Y-54200000D02*
X100000000Y-59100000D01*
X116400000Y-45700000D02*
X121700000Y-45700000D01*
D22*
X142200000Y-47200000D02*
X143400000Y-47200000D01*
X141100000Y-48300000D02*
X142200000Y-47200000D01*
X141100000Y-49100000D02*
X141100000Y-48300000D01*
X141000000Y-46800000D02*
X141000000Y-46400000D01*
X141000000Y-46400000D02*
X141400000Y-46000000D01*
X141400000Y-46000000D02*
X143400000Y-46000000D01*
X108900000Y-47800000D02*
X108300000Y-47200000D01*
X108300000Y-47200000D02*
X106540000Y-47200000D01*
X106540000Y-49940000D02*
X106540000Y-48400000D01*
X107900000Y-50600000D02*
X107200000Y-50600000D01*
X107200000Y-50600000D02*
X106540000Y-49940000D01*
X130800000Y-66400000D02*
X130200000Y-67000000D01*
X130200000Y-67000000D02*
X130200000Y-68600000D01*
X133300000Y-66400000D02*
X130800000Y-66400000D01*
X123400000Y-78500000D02*
X122500000Y-79400000D01*
X129600000Y-78500000D02*
X123400000Y-78500000D01*
X130100000Y-78000000D02*
X129600000Y-78500000D01*
X124400000Y-74700000D02*
X118000000Y-74700000D01*
X116900000Y-82700000D02*
X115015000Y-84585000D01*
X115015000Y-84585000D02*
X93515000Y-84585000D01*
X118000000Y-74700000D02*
X116900000Y-75800000D01*
X92000000Y-92355000D02*
X91955000Y-92400000D01*
X93515000Y-84585000D02*
X92000000Y-86100000D01*
X116900000Y-75800000D02*
X116900000Y-82700000D01*
X92000000Y-86100000D02*
X92000000Y-92355000D01*
X99575000Y-88725000D02*
X99575000Y-92400000D01*
X139600000Y-80800000D02*
X139600000Y-81700000D01*
X139600000Y-81700000D02*
X138400000Y-82900000D01*
X121100000Y-82900000D02*
X116700000Y-87300000D01*
X116700000Y-87300000D02*
X101000000Y-87300000D01*
X101000000Y-87300000D02*
X99575000Y-88725000D01*
X138400000Y-82900000D02*
X121100000Y-82900000D01*
X116100000Y-86400000D02*
X98900000Y-86400000D01*
X129700000Y-76300000D02*
X128500000Y-77500000D01*
X128500000Y-77500000D02*
X119700000Y-77500000D01*
X97080000Y-88220000D02*
X97080000Y-92355000D01*
X138005000Y-74795000D02*
X136500000Y-76300000D01*
X118800000Y-78400000D02*
X118800000Y-83700000D01*
X97080000Y-92355000D02*
X97035000Y-92400000D01*
X119700000Y-77500000D02*
X118800000Y-78400000D01*
X138005000Y-72395000D02*
X138005000Y-74795000D01*
X98900000Y-86400000D02*
X97080000Y-88220000D01*
X136500000Y-76300000D02*
X129700000Y-76300000D01*
X118800000Y-83700000D02*
X116100000Y-86400000D01*
X117800000Y-83200000D02*
X115500000Y-85500000D01*
X118700000Y-76500000D02*
X117800000Y-77400000D01*
X127800000Y-76500000D02*
X118700000Y-76500000D01*
X94540000Y-92355000D02*
X94495000Y-92400000D01*
X129100000Y-75200000D02*
X127800000Y-76500000D01*
X115500000Y-85500000D02*
X95700000Y-85500000D01*
X95700000Y-85500000D02*
X94540000Y-86660000D01*
X133300000Y-75200000D02*
X129100000Y-75200000D01*
X133900000Y-74600000D02*
X133300000Y-75200000D01*
X94540000Y-86660000D02*
X94540000Y-92355000D01*
X117800000Y-77400000D02*
X117800000Y-83200000D01*
X94500000Y-79200000D02*
X97900000Y-79200000D01*
X93900000Y-78600000D02*
X94500000Y-79200000D01*
X98800000Y-80100000D02*
X98800000Y-82600000D01*
X84200000Y-55300000D02*
X92000000Y-55300000D01*
X97900000Y-79200000D02*
X98800000Y-80100000D01*
X93900000Y-57200000D02*
X93900000Y-78600000D01*
X83000000Y-58450000D02*
X83000000Y-56500000D01*
X83000000Y-56500000D02*
X84200000Y-55300000D01*
X92000000Y-55300000D02*
X93900000Y-57200000D01*
X123400000Y-84900000D02*
X120700000Y-84900000D01*
X119100000Y-86500000D02*
X119100000Y-89300000D01*
X120700000Y-84900000D02*
X119100000Y-86500000D01*
X122600000Y-90300000D02*
X121700000Y-89400000D01*
X121700000Y-89400000D02*
X121700000Y-87000000D01*
G04 #@! TA.AperFunction,Conductor*
G36*
X91489075Y-94747007D02*
G01*
X91455000Y-94874174D01*
X91455000Y-95005826D01*
X91489075Y-95132993D01*
X91521988Y-95190000D01*
X89848012Y-95190000D01*
X89880925Y-95132993D01*
X89915000Y-95005826D01*
X89915000Y-94874174D01*
X89880925Y-94747007D01*
X89848012Y-94690000D01*
X91521988Y-94690000D01*
X91489075Y-94747007D01*
G37*
G04 #@! TD.AperFunction*
G04 #@! TA.AperFunction,Conductor*
G36*
X94029075Y-94747007D02*
G01*
X93995000Y-94874174D01*
X93995000Y-95005826D01*
X94029075Y-95132993D01*
X94061988Y-95190000D01*
X92388012Y-95190000D01*
X92420925Y-95132993D01*
X92455000Y-95005826D01*
X92455000Y-94874174D01*
X92420925Y-94747007D01*
X92388012Y-94690000D01*
X94061988Y-94690000D01*
X94029075Y-94747007D01*
G37*
G04 #@! TD.AperFunction*
G04 #@! TA.AperFunction,Conductor*
G36*
X96569075Y-94747007D02*
G01*
X96535000Y-94874174D01*
X96535000Y-95005826D01*
X96569075Y-95132993D01*
X96601988Y-95190000D01*
X94928012Y-95190000D01*
X94960925Y-95132993D01*
X94995000Y-95005826D01*
X94995000Y-94874174D01*
X94960925Y-94747007D01*
X94928012Y-94690000D01*
X96601988Y-94690000D01*
X96569075Y-94747007D01*
G37*
G04 #@! TD.AperFunction*
G04 #@! TA.AperFunction,Conductor*
G36*
X99109075Y-94747007D02*
G01*
X99075000Y-94874174D01*
X99075000Y-95005826D01*
X99109075Y-95132993D01*
X99141988Y-95190000D01*
X97468012Y-95190000D01*
X97500925Y-95132993D01*
X97535000Y-95005826D01*
X97535000Y-94874174D01*
X97500925Y-94747007D01*
X97468012Y-94690000D01*
X99141988Y-94690000D01*
X99109075Y-94747007D01*
G37*
G04 #@! TD.AperFunction*
G04 #@! TA.AperFunction,Conductor*
G36*
X143599075Y-66062007D02*
G01*
X143565000Y-66189174D01*
X143565000Y-66320826D01*
X143599075Y-66447993D01*
X143631988Y-66505000D01*
X141958012Y-66505000D01*
X141990925Y-66447993D01*
X142025000Y-66320826D01*
X142025000Y-66189174D01*
X141990925Y-66062007D01*
X141958012Y-66005000D01*
X143631988Y-66005000D01*
X143599075Y-66062007D01*
G37*
G04 #@! TD.AperFunction*
G04 #@! TA.AperFunction,Conductor*
G36*
X112097263Y-44323129D02*
G01*
X112143018Y-44375933D01*
X112152962Y-44445091D01*
X112123937Y-44508647D01*
X112086880Y-44536615D01*
X112087025Y-44536851D01*
X112084528Y-44538391D01*
X112082623Y-44539829D01*
X112080877Y-44540642D01*
X111931654Y-44632684D01*
X111807683Y-44756655D01*
X111807680Y-44756659D01*
X111719334Y-44899890D01*
X111667386Y-44946615D01*
X111598424Y-44957836D01*
X111534342Y-44929993D01*
X111515420Y-44910279D01*
X111485827Y-44871713D01*
X111442020Y-44814622D01*
X111428283Y-44796719D01*
X111428282Y-44796718D01*
X111302841Y-44700464D01*
X111156762Y-44639956D01*
X111156760Y-44639955D01*
X111039361Y-44624500D01*
X110460636Y-44624500D01*
X110343246Y-44639953D01*
X110343237Y-44639956D01*
X110197160Y-44700463D01*
X110071716Y-44796719D01*
X109975463Y-44922159D01*
X109966738Y-44943221D01*
X109922894Y-44997621D01*
X109922818Y-44997674D01*
X109811248Y-45075005D01*
X109663496Y-45177413D01*
X109597186Y-45199425D01*
X109592860Y-45199500D01*
X108934107Y-45199500D01*
X108806812Y-45233608D01*
X108692686Y-45299500D01*
X108692683Y-45299502D01*
X108529005Y-45463181D01*
X108467682Y-45496666D01*
X108441324Y-45499500D01*
X107538498Y-45499500D01*
X107495967Y-45491978D01*
X107055883Y-45331286D01*
X106844649Y-45254156D01*
X106844632Y-45254150D01*
X106831334Y-45249590D01*
X106831326Y-45249588D01*
X106822201Y-45248254D01*
X106799187Y-45242601D01*
X106719252Y-45214631D01*
X106540004Y-45194435D01*
X106539996Y-45194435D01*
X106360750Y-45214630D01*
X106360745Y-45214631D01*
X106190476Y-45274211D01*
X106037737Y-45370184D01*
X105910184Y-45497737D01*
X105814211Y-45650476D01*
X105754631Y-45820745D01*
X105754630Y-45820750D01*
X105736865Y-45978428D01*
X105709799Y-46042842D01*
X105701326Y-46052226D01*
X105172086Y-46581465D01*
X105077171Y-46450825D01*
X104949175Y-46322829D01*
X104818533Y-46227912D01*
X105390843Y-45655602D01*
X105256938Y-45555362D01*
X105256938Y-45555361D01*
X105012134Y-45421689D01*
X104750774Y-45324207D01*
X104478230Y-45264919D01*
X104478223Y-45264918D01*
X104200001Y-45245019D01*
X104199999Y-45245019D01*
X103921776Y-45264918D01*
X103921769Y-45264919D01*
X103649225Y-45324207D01*
X103387865Y-45421689D01*
X103143061Y-45555361D01*
X103143054Y-45555366D01*
X103009156Y-45655601D01*
X103009155Y-45655602D01*
X103581466Y-46227913D01*
X103450825Y-46322829D01*
X103322829Y-46450825D01*
X103227913Y-46581466D01*
X102655602Y-46009155D01*
X102655601Y-46009156D01*
X102555366Y-46143054D01*
X102555361Y-46143061D01*
X102421689Y-46387865D01*
X102324207Y-46649225D01*
X102264919Y-46921769D01*
X102264918Y-46921776D01*
X102245019Y-47199998D01*
X102245019Y-47200001D01*
X102264918Y-47478223D01*
X102264919Y-47478230D01*
X102324207Y-47750774D01*
X102421689Y-48012134D01*
X102555361Y-48256938D01*
X102655602Y-48390843D01*
X103227912Y-47818532D01*
X103322829Y-47949175D01*
X103450825Y-48077171D01*
X103581465Y-48172086D01*
X103009155Y-48744396D01*
X103143061Y-48844637D01*
X103143061Y-48844638D01*
X103387865Y-48978310D01*
X103649225Y-49075792D01*
X103921769Y-49135080D01*
X103921776Y-49135081D01*
X104199999Y-49154981D01*
X104200001Y-49154981D01*
X104478223Y-49135081D01*
X104478230Y-49135080D01*
X104750774Y-49075792D01*
X105012134Y-48978310D01*
X105256942Y-48844635D01*
X105390842Y-48744396D01*
X105390843Y-48744396D01*
X104818534Y-48172086D01*
X104949175Y-48077171D01*
X105077171Y-47949175D01*
X105172086Y-47818533D01*
X105701325Y-48347771D01*
X105734810Y-48409094D01*
X105736864Y-48421568D01*
X105754630Y-48579247D01*
X105754631Y-48579252D01*
X105800961Y-48711657D01*
X105803342Y-48719231D01*
X105807471Y-48734005D01*
X105807475Y-48734016D01*
X105809997Y-48739402D01*
X105813647Y-48748350D01*
X105816194Y-48753642D01*
X105819503Y-48759707D01*
X105844044Y-48812123D01*
X106076359Y-49308317D01*
X106076360Y-49308318D01*
X106076360Y-49308321D01*
X106102800Y-49364790D01*
X106114500Y-49417370D01*
X106114500Y-49883982D01*
X106114500Y-49996018D01*
X106138564Y-50085824D01*
X106143497Y-50104236D01*
X106143498Y-50104239D01*
X106150282Y-50115989D01*
X106199515Y-50201263D01*
X106199517Y-50201265D01*
X106815657Y-50817405D01*
X106818377Y-50820412D01*
X106823964Y-50826017D01*
X106827283Y-50829031D01*
X106938737Y-50940485D01*
X107035763Y-50996503D01*
X107107446Y-51015710D01*
X107137351Y-51028098D01*
X107418585Y-51190476D01*
X107546310Y-51264221D01*
X107550263Y-51266603D01*
X107572310Y-51280456D01*
X107584916Y-51284867D01*
X107591787Y-51287503D01*
X107620529Y-51299529D01*
X107622361Y-51299839D01*
X107642617Y-51305057D01*
X107731941Y-51336313D01*
X107731944Y-51336313D01*
X107731946Y-51336314D01*
X107899997Y-51355249D01*
X107900000Y-51355249D01*
X107900003Y-51355249D01*
X108068056Y-51336314D01*
X108068059Y-51336313D01*
X108227690Y-51280456D01*
X108227692Y-51280454D01*
X108227694Y-51280454D01*
X108227697Y-51280452D01*
X108370884Y-51190481D01*
X108370885Y-51190480D01*
X108370890Y-51190477D01*
X108490477Y-51070890D01*
X108517365Y-51028098D01*
X108580452Y-50927697D01*
X108580454Y-50927694D01*
X108580454Y-50927692D01*
X108580456Y-50927690D01*
X108636313Y-50768059D01*
X108636313Y-50768058D01*
X108636314Y-50768056D01*
X108655249Y-50600002D01*
X108655249Y-50599997D01*
X108636314Y-50431943D01*
X108595431Y-50315107D01*
X108580456Y-50272310D01*
X108580455Y-50272309D01*
X108580454Y-50272305D01*
X108580452Y-50272302D01*
X108490481Y-50129115D01*
X108490476Y-50129109D01*
X108370890Y-50009523D01*
X108370884Y-50009518D01*
X108227697Y-49919547D01*
X108227694Y-49919545D01*
X108068056Y-49863685D01*
X107900003Y-49844751D01*
X107899997Y-49844751D01*
X107731941Y-49863686D01*
X107626238Y-49900672D01*
X107615399Y-49903918D01*
X107594112Y-49909247D01*
X107594110Y-49909247D01*
X107594109Y-49909248D01*
X107570453Y-49919547D01*
X107334977Y-50022063D01*
X107265652Y-50030775D01*
X107202623Y-50000624D01*
X107197799Y-49996051D01*
X107001819Y-49800071D01*
X106968334Y-49738748D01*
X106965500Y-49712390D01*
X106965500Y-49417370D01*
X106977199Y-49364792D01*
X106988105Y-49341498D01*
X107260484Y-48759727D01*
X107263792Y-48753668D01*
X107266357Y-48748342D01*
X107270020Y-48739361D01*
X107272504Y-48734057D01*
X107272523Y-48734016D01*
X107272526Y-48734010D01*
X107275658Y-48727130D01*
X107275862Y-48726669D01*
X107286762Y-48698954D01*
X107288074Y-48691188D01*
X107293296Y-48670909D01*
X107325368Y-48579255D01*
X107328073Y-48555249D01*
X107345565Y-48400003D01*
X107345565Y-48399996D01*
X107325369Y-48220750D01*
X107325368Y-48220745D01*
X107265788Y-48050475D01*
X107222211Y-47981125D01*
X107194103Y-47936391D01*
X107175103Y-47869156D01*
X107195470Y-47802321D01*
X107246517Y-47758120D01*
X107504793Y-47637198D01*
X107557371Y-47625500D01*
X107942270Y-47625500D01*
X108009309Y-47645185D01*
X108055064Y-47697989D01*
X108058402Y-47706034D01*
X108193263Y-48066358D01*
X108195376Y-48071864D01*
X108195503Y-48072187D01*
X108206614Y-48097509D01*
X108207317Y-48098749D01*
X108216478Y-48118931D01*
X108219541Y-48127685D01*
X108219547Y-48127697D01*
X108309518Y-48270884D01*
X108309523Y-48270890D01*
X108429109Y-48390476D01*
X108429115Y-48390481D01*
X108572302Y-48480452D01*
X108572305Y-48480454D01*
X108572309Y-48480455D01*
X108572310Y-48480456D01*
X108644913Y-48505860D01*
X108731943Y-48536314D01*
X108899997Y-48555249D01*
X108900000Y-48555249D01*
X108900003Y-48555249D01*
X109068056Y-48536314D01*
X109068059Y-48536313D01*
X109227690Y-48480456D01*
X109227692Y-48480454D01*
X109227694Y-48480454D01*
X109227697Y-48480452D01*
X109370884Y-48390481D01*
X109370885Y-48390480D01*
X109370890Y-48390477D01*
X109490477Y-48270890D01*
X109499244Y-48256938D01*
X109580452Y-48127697D01*
X109580454Y-48127694D01*
X109580454Y-48127692D01*
X109580456Y-48127690D01*
X109636313Y-47968059D01*
X109636313Y-47968058D01*
X109636314Y-47968056D01*
X109655249Y-47800002D01*
X109655249Y-47799997D01*
X109636314Y-47631943D01*
X109589970Y-47499500D01*
X109580456Y-47472310D01*
X109580455Y-47472309D01*
X109580454Y-47472305D01*
X109580452Y-47472302D01*
X109490481Y-47329115D01*
X109490476Y-47329109D01*
X109370890Y-47209523D01*
X109370884Y-47209518D01*
X109227693Y-47119544D01*
X109198538Y-47109343D01*
X109177507Y-47099697D01*
X109166374Y-47093271D01*
X109166372Y-47093270D01*
X109166370Y-47093269D01*
X109103446Y-47069717D01*
X109103383Y-47069692D01*
X108597107Y-46880206D01*
X108565082Y-46862446D01*
X108561265Y-46859517D01*
X108561263Y-46859515D01*
X108464237Y-46803497D01*
X108356018Y-46774500D01*
X108356017Y-46774500D01*
X107557372Y-46774500D01*
X107504792Y-46762800D01*
X107465320Y-46744319D01*
X107412953Y-46698065D01*
X107393906Y-46630842D01*
X107414226Y-46563993D01*
X107467461Y-46518741D01*
X107475355Y-46515547D01*
X107495967Y-46508020D01*
X107538494Y-46500500D01*
X108765890Y-46500500D01*
X108765892Y-46500500D01*
X108893186Y-46466392D01*
X109007314Y-46400500D01*
X109170995Y-46236819D01*
X109232318Y-46203334D01*
X109258676Y-46200500D01*
X109592860Y-46200500D01*
X109659899Y-46220185D01*
X109663497Y-46222586D01*
X109922818Y-46402323D01*
X109966702Y-46456690D01*
X109966741Y-46456783D01*
X109975462Y-46477838D01*
X109975464Y-46477841D01*
X110071719Y-46603283D01*
X110098080Y-46623510D01*
X110117759Y-46642389D01*
X110272508Y-46827633D01*
X110284730Y-46845130D01*
X110349500Y-46957314D01*
X110349502Y-46957316D01*
X110535949Y-47143763D01*
X110543430Y-47151944D01*
X110557361Y-47168620D01*
X110567857Y-47180626D01*
X110568541Y-47181374D01*
X110568542Y-47181375D01*
X110568548Y-47181381D01*
X110568550Y-47181383D01*
X110595567Y-47207936D01*
X110595680Y-47208007D01*
X110598256Y-47210055D01*
X110600895Y-47212134D01*
X110600885Y-47212145D01*
X110617699Y-47225513D01*
X111463181Y-48070995D01*
X111496666Y-48132318D01*
X111499500Y-48158676D01*
X111499500Y-49341324D01*
X111479815Y-49408363D01*
X111463181Y-49429005D01*
X109129005Y-51763181D01*
X109067682Y-51796666D01*
X109041324Y-51799500D01*
X106288105Y-51799500D01*
X106251794Y-51794064D01*
X105757486Y-51642680D01*
X105750378Y-51640247D01*
X105748767Y-51639850D01*
X105744125Y-51638585D01*
X105743179Y-51638388D01*
X105738781Y-51637388D01*
X105585057Y-51599500D01*
X105585056Y-51599500D01*
X105414944Y-51599500D01*
X105249773Y-51640210D01*
X105099150Y-51719263D01*
X104971816Y-51832072D01*
X104875182Y-51972068D01*
X104814860Y-52131125D01*
X104814859Y-52131130D01*
X104794355Y-52300000D01*
X104814859Y-52468869D01*
X104814860Y-52468874D01*
X104875182Y-52627931D01*
X104925272Y-52700497D01*
X104971817Y-52767929D01*
X105070171Y-52855063D01*
X105099150Y-52880736D01*
X105245057Y-52957314D01*
X105249775Y-52959790D01*
X105414944Y-53000500D01*
X105585056Y-53000500D01*
X105750225Y-52959790D01*
X105750226Y-52959789D01*
X105750378Y-52959752D01*
X105757451Y-52957329D01*
X106251798Y-52805934D01*
X106288103Y-52800500D01*
X109365890Y-52800500D01*
X109365892Y-52800500D01*
X109493186Y-52766392D01*
X109607314Y-52700500D01*
X112400500Y-49907314D01*
X112466392Y-49793186D01*
X112500500Y-49665892D01*
X112500500Y-49534107D01*
X112500500Y-47834108D01*
X112466392Y-47706814D01*
X112400500Y-47592686D01*
X112307314Y-47499500D01*
X111520522Y-46712708D01*
X111487037Y-46651385D01*
X111492021Y-46581693D01*
X111492454Y-46580552D01*
X111508867Y-46538010D01*
X111551362Y-46482552D01*
X111617097Y-46458871D01*
X111685198Y-46474489D01*
X111730093Y-46517550D01*
X111807684Y-46643345D01*
X111931654Y-46767315D01*
X112080875Y-46859356D01*
X112080880Y-46859358D01*
X112247302Y-46914505D01*
X112247309Y-46914506D01*
X112350019Y-46924999D01*
X112900000Y-46924999D01*
X112949972Y-46924999D01*
X112949986Y-46924998D01*
X113052697Y-46914505D01*
X113219119Y-46859358D01*
X113219124Y-46859356D01*
X113368345Y-46767315D01*
X113492315Y-46643345D01*
X113584356Y-46494124D01*
X113584358Y-46494119D01*
X113639505Y-46327697D01*
X113639506Y-46327690D01*
X113649999Y-46224986D01*
X113650000Y-46224973D01*
X113650000Y-45950000D01*
X112900000Y-45950000D01*
X112900000Y-46924999D01*
X112350019Y-46924999D01*
X112399999Y-46924998D01*
X112400000Y-46924998D01*
X112400000Y-45574000D01*
X112419685Y-45506961D01*
X112472489Y-45461206D01*
X112524000Y-45450000D01*
X113649999Y-45450000D01*
X113649999Y-45175028D01*
X113649998Y-45175013D01*
X113639505Y-45072302D01*
X113584358Y-44905880D01*
X113584356Y-44905875D01*
X113492315Y-44756654D01*
X113368345Y-44632684D01*
X113219122Y-44540642D01*
X113217377Y-44539829D01*
X113216379Y-44538951D01*
X113212975Y-44536851D01*
X113213333Y-44536269D01*
X113164935Y-44493659D01*
X113145780Y-44426466D01*
X113165992Y-44359584D01*
X113219156Y-44314247D01*
X113269776Y-44303444D01*
X148298056Y-44303444D01*
X148307788Y-44303826D01*
X148511681Y-44319877D01*
X148530891Y-44322921D01*
X148725002Y-44369527D01*
X148743498Y-44375537D01*
X148866443Y-44426466D01*
X148927932Y-44451937D01*
X148945268Y-44460771D01*
X149115469Y-44565074D01*
X149131211Y-44576511D01*
X149144489Y-44587852D01*
X149282991Y-44706148D01*
X149283008Y-44706162D01*
X149296766Y-44719921D01*
X149426405Y-44871713D01*
X149437842Y-44887454D01*
X149542147Y-45057668D01*
X149550980Y-45075005D01*
X149627370Y-45259428D01*
X149633383Y-45277933D01*
X149679984Y-45472043D01*
X149683028Y-45491261D01*
X149699118Y-45695701D01*
X149699500Y-45705430D01*
X149699500Y-50039562D01*
X149709912Y-50078419D01*
X149719979Y-50115990D01*
X149719982Y-50115995D01*
X149759535Y-50184504D01*
X149759539Y-50184509D01*
X149759540Y-50184511D01*
X149815489Y-50240460D01*
X149815491Y-50240461D01*
X149815495Y-50240464D01*
X149849394Y-50260035D01*
X149884011Y-50280021D01*
X149960438Y-50300500D01*
X150039562Y-50300500D01*
X164643898Y-50300500D01*
X164710937Y-50320185D01*
X164756692Y-50372989D01*
X164766636Y-50442147D01*
X164737611Y-50505703D01*
X164688336Y-50540264D01*
X164493005Y-50615244D01*
X164147456Y-50791310D01*
X163822206Y-51002531D01*
X163564648Y-51211095D01*
X163564648Y-51211096D01*
X165059301Y-52705748D01*
X164957670Y-52779588D01*
X164779588Y-52957670D01*
X164705748Y-53059300D01*
X163211096Y-51564648D01*
X163211095Y-51564648D01*
X163002531Y-51822206D01*
X162791310Y-52147456D01*
X162615244Y-52493005D01*
X162476262Y-52855063D01*
X162375887Y-53229669D01*
X162375886Y-53229676D01*
X162315219Y-53612712D01*
X162294922Y-53999999D01*
X162294922Y-54000000D01*
X162315219Y-54387287D01*
X162375886Y-54770323D01*
X162375887Y-54770330D01*
X162476262Y-55144936D01*
X162615244Y-55506994D01*
X162791310Y-55852543D01*
X163002531Y-56177793D01*
X163211095Y-56435350D01*
X163211096Y-56435350D01*
X164705748Y-54940698D01*
X164779588Y-55042330D01*
X164957670Y-55220412D01*
X165059300Y-55294251D01*
X163564648Y-56788903D01*
X163564649Y-56788904D01*
X163822206Y-56997468D01*
X164147456Y-57208689D01*
X164493005Y-57384755D01*
X164855063Y-57523737D01*
X165229669Y-57624112D01*
X165229676Y-57624113D01*
X165612712Y-57684780D01*
X165999999Y-57705078D01*
X166000001Y-57705078D01*
X166387287Y-57684780D01*
X166770323Y-57624113D01*
X166770330Y-57624112D01*
X167144936Y-57523737D01*
X167506994Y-57384755D01*
X167852543Y-57208689D01*
X168177783Y-56997476D01*
X168177785Y-56997475D01*
X168435349Y-56788902D01*
X166940698Y-55294251D01*
X167042330Y-55220412D01*
X167220412Y-55042330D01*
X167294251Y-54940698D01*
X168788902Y-56435349D01*
X168997475Y-56177785D01*
X168997476Y-56177783D01*
X169208689Y-55852543D01*
X169384755Y-55506994D01*
X169459736Y-55311664D01*
X169502138Y-55256132D01*
X169567832Y-55232339D01*
X169635960Y-55247841D01*
X169684893Y-55297714D01*
X169699500Y-55356102D01*
X169699500Y-94643897D01*
X169679815Y-94710936D01*
X169627011Y-94756691D01*
X169557853Y-94766635D01*
X169494297Y-94737610D01*
X169459736Y-94688335D01*
X169384755Y-94493005D01*
X169208689Y-94147456D01*
X168997468Y-93822206D01*
X168788904Y-93564649D01*
X168788903Y-93564648D01*
X167294251Y-95059300D01*
X167220412Y-94957670D01*
X167042330Y-94779588D01*
X166940698Y-94705748D01*
X168435350Y-93211096D01*
X168435350Y-93211095D01*
X168177793Y-93002531D01*
X167852543Y-92791310D01*
X167506994Y-92615244D01*
X167144936Y-92476262D01*
X166770330Y-92375887D01*
X166770323Y-92375886D01*
X166387287Y-92315219D01*
X166000001Y-92294922D01*
X165999999Y-92294922D01*
X165612712Y-92315219D01*
X165229676Y-92375886D01*
X165229669Y-92375887D01*
X164855063Y-92476262D01*
X164493005Y-92615244D01*
X164147456Y-92791310D01*
X163822206Y-93002531D01*
X163564648Y-93211095D01*
X163564648Y-93211096D01*
X165059301Y-94705748D01*
X164957670Y-94779588D01*
X164779588Y-94957670D01*
X164705748Y-95059300D01*
X163211096Y-93564648D01*
X163211095Y-93564648D01*
X163002531Y-93822206D01*
X162791310Y-94147456D01*
X162615244Y-94493005D01*
X162476262Y-94855063D01*
X162375887Y-95229669D01*
X162375886Y-95229676D01*
X162315219Y-95612712D01*
X162294922Y-95999999D01*
X162294922Y-96000000D01*
X162315219Y-96387287D01*
X162375886Y-96770323D01*
X162375887Y-96770330D01*
X162476262Y-97144936D01*
X162615244Y-97506994D01*
X162791310Y-97852543D01*
X163002531Y-98177793D01*
X163211095Y-98435350D01*
X163211096Y-98435350D01*
X164705748Y-96940698D01*
X164779588Y-97042330D01*
X164957670Y-97220412D01*
X165059300Y-97294251D01*
X163564648Y-98788903D01*
X163564649Y-98788904D01*
X163822206Y-98997468D01*
X164147456Y-99208689D01*
X164493005Y-99384755D01*
X164688336Y-99459736D01*
X164743868Y-99502138D01*
X164767661Y-99567832D01*
X164752159Y-99635960D01*
X164702286Y-99684893D01*
X164643898Y-99699500D01*
X75356102Y-99699500D01*
X75289063Y-99679815D01*
X75243308Y-99627011D01*
X75233364Y-99557853D01*
X75262389Y-99494297D01*
X75311664Y-99459736D01*
X75506994Y-99384755D01*
X75852543Y-99208689D01*
X76177783Y-98997476D01*
X76177785Y-98997475D01*
X76435349Y-98788902D01*
X74940698Y-97294251D01*
X75042330Y-97220412D01*
X75220412Y-97042330D01*
X75294251Y-96940698D01*
X76788902Y-98435349D01*
X76997475Y-98177785D01*
X76997476Y-98177783D01*
X77208689Y-97852543D01*
X77384755Y-97506994D01*
X77523737Y-97144936D01*
X77624112Y-96770330D01*
X77624113Y-96770323D01*
X77684780Y-96387287D01*
X77705078Y-96000000D01*
X77705078Y-95999999D01*
X77684780Y-95612712D01*
X77624113Y-95229676D01*
X77624112Y-95229669D01*
X77523737Y-94855063D01*
X77460374Y-94689999D01*
X88084364Y-94689999D01*
X88084364Y-94690000D01*
X88981988Y-94690000D01*
X88949075Y-94747007D01*
X88915000Y-94874174D01*
X88915000Y-95005826D01*
X88949075Y-95132993D01*
X88981988Y-95190000D01*
X88084364Y-95190000D01*
X88141567Y-95403486D01*
X88141570Y-95403492D01*
X88241399Y-95617578D01*
X88376894Y-95811082D01*
X88543917Y-95978105D01*
X88737421Y-96113600D01*
X88951507Y-96213429D01*
X88951516Y-96213433D01*
X89165000Y-96270634D01*
X89165000Y-95373012D01*
X89222007Y-95405925D01*
X89349174Y-95440000D01*
X89480826Y-95440000D01*
X89607993Y-95405925D01*
X89665000Y-95373012D01*
X89665000Y-96270634D01*
X89878483Y-96213433D01*
X89878492Y-96213429D01*
X90092578Y-96113600D01*
X90286082Y-95978105D01*
X90453105Y-95811082D01*
X90583425Y-95624968D01*
X90638002Y-95581344D01*
X90707501Y-95574151D01*
X90769855Y-95605673D01*
X90786575Y-95624968D01*
X90916894Y-95811082D01*
X91083917Y-95978105D01*
X91277421Y-96113600D01*
X91491507Y-96213429D01*
X91491516Y-96213433D01*
X91705000Y-96270634D01*
X91705000Y-95373012D01*
X91762007Y-95405925D01*
X91889174Y-95440000D01*
X92020826Y-95440000D01*
X92147993Y-95405925D01*
X92205000Y-95373012D01*
X92205000Y-96270633D01*
X92418483Y-96213433D01*
X92418492Y-96213429D01*
X92632578Y-96113600D01*
X92826082Y-95978105D01*
X92993105Y-95811082D01*
X93123425Y-95624968D01*
X93178002Y-95581344D01*
X93247501Y-95574151D01*
X93309855Y-95605673D01*
X93326575Y-95624968D01*
X93456894Y-95811082D01*
X93623917Y-95978105D01*
X93817421Y-96113600D01*
X94031507Y-96213429D01*
X94031516Y-96213433D01*
X94245000Y-96270634D01*
X94245000Y-95373012D01*
X94302007Y-95405925D01*
X94429174Y-95440000D01*
X94560826Y-95440000D01*
X94687993Y-95405925D01*
X94745000Y-95373012D01*
X94745000Y-96270633D01*
X94958483Y-96213433D01*
X94958492Y-96213429D01*
X95172578Y-96113600D01*
X95366082Y-95978105D01*
X95533105Y-95811082D01*
X95663425Y-95624968D01*
X95718002Y-95581344D01*
X95787501Y-95574151D01*
X95849855Y-95605673D01*
X95866575Y-95624968D01*
X95996894Y-95811082D01*
X96163917Y-95978105D01*
X96357421Y-96113600D01*
X96571507Y-96213429D01*
X96571516Y-96213433D01*
X96785000Y-96270634D01*
X96785000Y-95373012D01*
X96842007Y-95405925D01*
X96969174Y-95440000D01*
X97100826Y-95440000D01*
X97227993Y-95405925D01*
X97285000Y-95373012D01*
X97285000Y-96270633D01*
X97498483Y-96213433D01*
X97498492Y-96213429D01*
X97712578Y-96113600D01*
X97906082Y-95978105D01*
X98073105Y-95811082D01*
X98203425Y-95624968D01*
X98258002Y-95581344D01*
X98327501Y-95574151D01*
X98389855Y-95605673D01*
X98406575Y-95624968D01*
X98536894Y-95811082D01*
X98703917Y-95978105D01*
X98897421Y-96113600D01*
X99111507Y-96213429D01*
X99111516Y-96213433D01*
X99325000Y-96270634D01*
X99325000Y-95373012D01*
X99382007Y-95405925D01*
X99509174Y-95440000D01*
X99640826Y-95440000D01*
X99767993Y-95405925D01*
X99825000Y-95373012D01*
X99825000Y-96270633D01*
X100038483Y-96213433D01*
X100038492Y-96213429D01*
X100252578Y-96113600D01*
X100446082Y-95978105D01*
X100613105Y-95811082D01*
X100748600Y-95617578D01*
X100848429Y-95403492D01*
X100848432Y-95403486D01*
X100905636Y-95190000D01*
X100008012Y-95190000D01*
X100040925Y-95132993D01*
X100075000Y-95005826D01*
X100075000Y-94874174D01*
X100040925Y-94747007D01*
X100008012Y-94690000D01*
X100905636Y-94690000D01*
X100905635Y-94689999D01*
X100848432Y-94476513D01*
X100848429Y-94476507D01*
X100748600Y-94262422D01*
X100748599Y-94262420D01*
X100613113Y-94068926D01*
X100613108Y-94068920D01*
X100446082Y-93901894D01*
X100337802Y-93826075D01*
X100294177Y-93771498D01*
X100286985Y-93701999D01*
X100318507Y-93639645D01*
X100378737Y-93604231D01*
X100408926Y-93600500D01*
X100458261Y-93600500D01*
X100480971Y-93597191D01*
X100526393Y-93590573D01*
X100631483Y-93539198D01*
X100714198Y-93456483D01*
X100765573Y-93351393D01*
X100775500Y-93283260D01*
X100775500Y-91556944D01*
X100776054Y-91549540D01*
X100775811Y-91534242D01*
X100775825Y-91534241D01*
X100775500Y-91530658D01*
X100775500Y-91516739D01*
X100765574Y-91448611D01*
X100765573Y-91448610D01*
X100765573Y-91448607D01*
X100752926Y-91422737D01*
X100749077Y-91414028D01*
X100743714Y-91400505D01*
X100740939Y-91396213D01*
X100733674Y-91383357D01*
X100714198Y-91343517D01*
X100702768Y-91332087D01*
X100686318Y-91311730D01*
X100680201Y-91302268D01*
X100680176Y-91302229D01*
X100175576Y-90748797D01*
X100032869Y-90592279D01*
X100002247Y-90529478D01*
X100000500Y-90508734D01*
X100000500Y-89300000D01*
X118394355Y-89300000D01*
X118414859Y-89468869D01*
X118414860Y-89468874D01*
X118475182Y-89627931D01*
X118531502Y-89709523D01*
X118571817Y-89767929D01*
X118677505Y-89861560D01*
X118699150Y-89880736D01*
X118838488Y-89953866D01*
X118849775Y-89959790D01*
X119014944Y-90000500D01*
X119185056Y-90000500D01*
X119350225Y-89959790D01*
X119451213Y-89906787D01*
X119500849Y-89880736D01*
X119500850Y-89880734D01*
X119500852Y-89880734D01*
X119628183Y-89767929D01*
X119724818Y-89627930D01*
X119785140Y-89468872D01*
X119805645Y-89300000D01*
X119785140Y-89131128D01*
X119754743Y-89050977D01*
X119750487Y-89037472D01*
X119744115Y-89012319D01*
X119535948Y-88537859D01*
X119525500Y-88488039D01*
X119525500Y-86999997D01*
X120944751Y-86999997D01*
X120944751Y-87000002D01*
X120963686Y-87168056D01*
X121004080Y-87283499D01*
X121006806Y-87292334D01*
X121011913Y-87311381D01*
X121011914Y-87311385D01*
X121141835Y-87596732D01*
X121263352Y-87863620D01*
X121263353Y-87863621D01*
X121274500Y-87915003D01*
X121274500Y-89343982D01*
X121274500Y-89456018D01*
X121303497Y-89564237D01*
X121359515Y-89661263D01*
X121511939Y-89813687D01*
X121652119Y-89953866D01*
X121680570Y-89998081D01*
X121706078Y-90066234D01*
X121893263Y-90566358D01*
X121895376Y-90571864D01*
X121895503Y-90572187D01*
X121906614Y-90597509D01*
X121907317Y-90598749D01*
X121916478Y-90618931D01*
X121919541Y-90627685D01*
X121919547Y-90627697D01*
X122009518Y-90770884D01*
X122009523Y-90770890D01*
X122129109Y-90890476D01*
X122129115Y-90890481D01*
X122272302Y-90980452D01*
X122272305Y-90980454D01*
X122272309Y-90980455D01*
X122272310Y-90980456D01*
X122299580Y-90989998D01*
X122431943Y-91036314D01*
X122599997Y-91055249D01*
X122600000Y-91055249D01*
X122600003Y-91055249D01*
X122768056Y-91036314D01*
X122769545Y-91035793D01*
X122927690Y-90980456D01*
X122927692Y-90980454D01*
X122927694Y-90980454D01*
X122927697Y-90980452D01*
X123070884Y-90890481D01*
X123070885Y-90890480D01*
X123070890Y-90890477D01*
X123190477Y-90770890D01*
X123230170Y-90707719D01*
X123280452Y-90627697D01*
X123280454Y-90627694D01*
X123280454Y-90627692D01*
X123280456Y-90627690D01*
X123307642Y-90549997D01*
X125994751Y-90549997D01*
X125994751Y-90550002D01*
X126013685Y-90718056D01*
X126069545Y-90877694D01*
X126069547Y-90877697D01*
X126159518Y-91020884D01*
X126159523Y-91020890D01*
X126279109Y-91140476D01*
X126279115Y-91140481D01*
X126422302Y-91230452D01*
X126422305Y-91230454D01*
X126422309Y-91230455D01*
X126422310Y-91230456D01*
X126450677Y-91240382D01*
X126581943Y-91286314D01*
X126749997Y-91305249D01*
X126750000Y-91305249D01*
X126750003Y-91305249D01*
X126918056Y-91286314D01*
X126918059Y-91286313D01*
X127077690Y-91230456D01*
X127220890Y-91140477D01*
X127313847Y-91047518D01*
X127317093Y-91044389D01*
X127322517Y-91039350D01*
X127322520Y-91039345D01*
X127325760Y-91035793D01*
X127329713Y-91031654D01*
X127340475Y-91020892D01*
X127340481Y-91020885D01*
X127353769Y-90999735D01*
X127360541Y-90990018D01*
X127546481Y-90748796D01*
X127602999Y-90707719D01*
X127644690Y-90700500D01*
X140965890Y-90700500D01*
X140965892Y-90700500D01*
X141093186Y-90666392D01*
X141207314Y-90600500D01*
X142710995Y-89096819D01*
X142772318Y-89063334D01*
X142798676Y-89060500D01*
X145321902Y-89060500D01*
X145388941Y-89080185D01*
X145400730Y-89088781D01*
X145862271Y-89468874D01*
X146115811Y-89677672D01*
X146119544Y-89680704D01*
X146119551Y-89680708D01*
X146123954Y-89683695D01*
X146123572Y-89684257D01*
X146140031Y-89696710D01*
X146143513Y-89699195D01*
X146143514Y-89699195D01*
X146143517Y-89699198D01*
X146212485Y-89732914D01*
X146218560Y-89736096D01*
X146221672Y-89737837D01*
X146226341Y-89739963D01*
X146226324Y-89739999D01*
X146231143Y-89742035D01*
X146248604Y-89750572D01*
X146248605Y-89750572D01*
X146248607Y-89750573D01*
X146316740Y-89760500D01*
X146362221Y-89760500D01*
X146369201Y-89760863D01*
X146371057Y-89760748D01*
X146371059Y-89760749D01*
X146371060Y-89760748D01*
X146371300Y-89760734D01*
X146378915Y-89760500D01*
X146671047Y-89760500D01*
X146738086Y-89780185D01*
X146783841Y-89832989D01*
X146793785Y-89902147D01*
X146764760Y-89965703D01*
X146715841Y-90000127D01*
X146662601Y-90020751D01*
X146662595Y-90020754D01*
X146473439Y-90137874D01*
X146473437Y-90137876D01*
X146309020Y-90287761D01*
X146174943Y-90465308D01*
X146174938Y-90465316D01*
X146075775Y-90664461D01*
X146075769Y-90664476D01*
X146014885Y-90878462D01*
X146014884Y-90878464D01*
X145994357Y-91099999D01*
X145994357Y-91100000D01*
X146014884Y-91321535D01*
X146014885Y-91321537D01*
X146075769Y-91535523D01*
X146075775Y-91535538D01*
X146174938Y-91734683D01*
X146174943Y-91734691D01*
X146309020Y-91912238D01*
X146473437Y-92062123D01*
X146473439Y-92062125D01*
X146667473Y-92182265D01*
X146666836Y-92183292D01*
X146713563Y-92226607D01*
X146730989Y-92294269D01*
X146709069Y-92360611D01*
X146659464Y-92402495D01*
X146522422Y-92466399D01*
X146522420Y-92466400D01*
X146328926Y-92601886D01*
X146328920Y-92601891D01*
X146161891Y-92768920D01*
X146161886Y-92768926D01*
X146026400Y-92962420D01*
X146026399Y-92962422D01*
X145926570Y-93176507D01*
X145926567Y-93176513D01*
X145869364Y-93389999D01*
X145869364Y-93390000D01*
X146766988Y-93390000D01*
X146734075Y-93447007D01*
X146700000Y-93574174D01*
X146700000Y-93705826D01*
X146734075Y-93832993D01*
X146766988Y-93890000D01*
X145869364Y-93890000D01*
X145926567Y-94103486D01*
X145926570Y-94103492D01*
X146026399Y-94317578D01*
X146161894Y-94511082D01*
X146328917Y-94678105D01*
X146522421Y-94813600D01*
X146736507Y-94913429D01*
X146736516Y-94913433D01*
X146950000Y-94970634D01*
X146950000Y-94073012D01*
X147007007Y-94105925D01*
X147134174Y-94140000D01*
X147265826Y-94140000D01*
X147392993Y-94105925D01*
X147450000Y-94073012D01*
X147450000Y-94970633D01*
X147663483Y-94913433D01*
X147663492Y-94913429D01*
X147877578Y-94813600D01*
X148071082Y-94678105D01*
X148238105Y-94511082D01*
X148373600Y-94317578D01*
X148473429Y-94103492D01*
X148473432Y-94103486D01*
X148530636Y-93890000D01*
X147633012Y-93890000D01*
X147665925Y-93832993D01*
X147700000Y-93705826D01*
X147700000Y-93574174D01*
X147665925Y-93447007D01*
X147633012Y-93390000D01*
X148530636Y-93390000D01*
X148530635Y-93389999D01*
X148473432Y-93176513D01*
X148473429Y-93176507D01*
X148373600Y-92962422D01*
X148373599Y-92962420D01*
X148238113Y-92768926D01*
X148238108Y-92768920D01*
X148071082Y-92601894D01*
X147877578Y-92466399D01*
X147740535Y-92402495D01*
X147688096Y-92356322D01*
X147668944Y-92289129D01*
X147689160Y-92222248D01*
X147733096Y-92183184D01*
X147732527Y-92182265D01*
X147902336Y-92077124D01*
X147926562Y-92062124D01*
X148090981Y-91912236D01*
X148225058Y-91734689D01*
X148324229Y-91535528D01*
X148385115Y-91321536D01*
X148405643Y-91100000D01*
X148399693Y-91035793D01*
X148385115Y-90878464D01*
X148385114Y-90878462D01*
X148384896Y-90877697D01*
X148324229Y-90664472D01*
X148310134Y-90636165D01*
X148225061Y-90465316D01*
X148225056Y-90465308D01*
X148090979Y-90287761D01*
X147926562Y-90137876D01*
X147926560Y-90137874D01*
X147737404Y-90020754D01*
X147737398Y-90020751D01*
X147684159Y-90000127D01*
X147628758Y-89957554D01*
X147605167Y-89891787D01*
X147620878Y-89823707D01*
X147670902Y-89774928D01*
X147728953Y-89760500D01*
X148018110Y-89760500D01*
X148023697Y-89760626D01*
X148033562Y-89761070D01*
X148033566Y-89761071D01*
X148033569Y-89761070D01*
X148035112Y-89761140D01*
X148045754Y-89760500D01*
X148083255Y-89760500D01*
X148083260Y-89760500D01*
X148151393Y-89750573D01*
X148167201Y-89742844D01*
X148173741Y-89740191D01*
X148173702Y-89740102D01*
X148179276Y-89737647D01*
X148179284Y-89737645D01*
X148185664Y-89734050D01*
X148192021Y-89730710D01*
X148256483Y-89699198D01*
X148256485Y-89699195D01*
X148259108Y-89697323D01*
X148277295Y-89683522D01*
X148277002Y-89683090D01*
X148281242Y-89680215D01*
X148281248Y-89680212D01*
X148997559Y-89102950D01*
X149062110Y-89076211D01*
X149075367Y-89075500D01*
X155721902Y-89075500D01*
X155788941Y-89095185D01*
X155800730Y-89103781D01*
X156414626Y-89609343D01*
X156515811Y-89692672D01*
X156519544Y-89695704D01*
X156519551Y-89695708D01*
X156523954Y-89698695D01*
X156523572Y-89699257D01*
X156540031Y-89711710D01*
X156543513Y-89714195D01*
X156543514Y-89714195D01*
X156543517Y-89714198D01*
X156612485Y-89747914D01*
X156618560Y-89751096D01*
X156621672Y-89752837D01*
X156626341Y-89754963D01*
X156626324Y-89754999D01*
X156631143Y-89757035D01*
X156648604Y-89765572D01*
X156648605Y-89765572D01*
X156648607Y-89765573D01*
X156716740Y-89775500D01*
X156762221Y-89775500D01*
X156769201Y-89775863D01*
X156771057Y-89775748D01*
X156771059Y-89775749D01*
X156771060Y-89775748D01*
X156771300Y-89775734D01*
X156778915Y-89775500D01*
X157071047Y-89775500D01*
X157138086Y-89795185D01*
X157183841Y-89847989D01*
X157193785Y-89917147D01*
X157164760Y-89980703D01*
X157115841Y-90015127D01*
X157062601Y-90035751D01*
X157062595Y-90035754D01*
X156873439Y-90152874D01*
X156873437Y-90152876D01*
X156709020Y-90302761D01*
X156574943Y-90480308D01*
X156574938Y-90480316D01*
X156475775Y-90679461D01*
X156475769Y-90679476D01*
X156414885Y-90893462D01*
X156414884Y-90893464D01*
X156394357Y-91114999D01*
X156394357Y-91115000D01*
X156414884Y-91336535D01*
X156414885Y-91336537D01*
X156475769Y-91550523D01*
X156475775Y-91550538D01*
X156574938Y-91749683D01*
X156574943Y-91749691D01*
X156709020Y-91927238D01*
X156873437Y-92077123D01*
X156873439Y-92077125D01*
X157067473Y-92197265D01*
X157066836Y-92198292D01*
X157113563Y-92241607D01*
X157130989Y-92309269D01*
X157109069Y-92375611D01*
X157059464Y-92417495D01*
X156922422Y-92481399D01*
X156922420Y-92481400D01*
X156728926Y-92616886D01*
X156728920Y-92616891D01*
X156561891Y-92783920D01*
X156561886Y-92783926D01*
X156426400Y-92977420D01*
X156426399Y-92977422D01*
X156326570Y-93191507D01*
X156326567Y-93191513D01*
X156269364Y-93404999D01*
X156269364Y-93405000D01*
X157166988Y-93405000D01*
X157134075Y-93462007D01*
X157100000Y-93589174D01*
X157100000Y-93720826D01*
X157134075Y-93847993D01*
X157166988Y-93905000D01*
X156269364Y-93905000D01*
X156326567Y-94118486D01*
X156326570Y-94118492D01*
X156426399Y-94332578D01*
X156561894Y-94526082D01*
X156728917Y-94693105D01*
X156922421Y-94828600D01*
X157136507Y-94928429D01*
X157136516Y-94928433D01*
X157350000Y-94985634D01*
X157350000Y-94088012D01*
X157407007Y-94120925D01*
X157534174Y-94155000D01*
X157665826Y-94155000D01*
X157792993Y-94120925D01*
X157850000Y-94088012D01*
X157850000Y-94985633D01*
X158063483Y-94928433D01*
X158063492Y-94928429D01*
X158277578Y-94828600D01*
X158471082Y-94693105D01*
X158638105Y-94526082D01*
X158773600Y-94332578D01*
X158873429Y-94118492D01*
X158873432Y-94118486D01*
X158930636Y-93905000D01*
X158033012Y-93905000D01*
X158065925Y-93847993D01*
X158100000Y-93720826D01*
X158100000Y-93589174D01*
X158065925Y-93462007D01*
X158033012Y-93405000D01*
X158930636Y-93405000D01*
X158930635Y-93404999D01*
X158873432Y-93191513D01*
X158873429Y-93191507D01*
X158773600Y-92977422D01*
X158773599Y-92977420D01*
X158638113Y-92783926D01*
X158638108Y-92783920D01*
X158471082Y-92616894D01*
X158277578Y-92481399D01*
X158140535Y-92417495D01*
X158088096Y-92371322D01*
X158068944Y-92304129D01*
X158089160Y-92237248D01*
X158133096Y-92198184D01*
X158132527Y-92197265D01*
X158326560Y-92077125D01*
X158326559Y-92077125D01*
X158326562Y-92077124D01*
X158490981Y-91927236D01*
X158625058Y-91749689D01*
X158724229Y-91550528D01*
X158785115Y-91336536D01*
X158805643Y-91115000D01*
X158793175Y-90980452D01*
X158785115Y-90893464D01*
X158785114Y-90893462D01*
X158784264Y-90890476D01*
X158724229Y-90679472D01*
X158717716Y-90666392D01*
X158625061Y-90480316D01*
X158625056Y-90480308D01*
X158490979Y-90302761D01*
X158326562Y-90152876D01*
X158326560Y-90152874D01*
X158137404Y-90035754D01*
X158137398Y-90035751D01*
X158084159Y-90015127D01*
X158028758Y-89972554D01*
X158005167Y-89906787D01*
X158020878Y-89838707D01*
X158070902Y-89789928D01*
X158128953Y-89775500D01*
X158483261Y-89775500D01*
X158505971Y-89772191D01*
X158551393Y-89765573D01*
X158656483Y-89714198D01*
X158739198Y-89631483D01*
X158790573Y-89526393D01*
X158800500Y-89458260D01*
X158800500Y-87691740D01*
X158790573Y-87623607D01*
X158739198Y-87518517D01*
X158739196Y-87518515D01*
X158739196Y-87518514D01*
X158656485Y-87435803D01*
X158551391Y-87384426D01*
X158483261Y-87374500D01*
X158483260Y-87374500D01*
X156778314Y-87374500D01*
X156772926Y-87373959D01*
X156772918Y-87374201D01*
X156760618Y-87373775D01*
X156749559Y-87374500D01*
X156716739Y-87374500D01*
X156648607Y-87384426D01*
X156630853Y-87393105D01*
X156618761Y-87398090D01*
X156617154Y-87398818D01*
X156609721Y-87403109D01*
X156602194Y-87407115D01*
X156543519Y-87435800D01*
X156543509Y-87435807D01*
X156541968Y-87437349D01*
X156519925Y-87454262D01*
X156520024Y-87454405D01*
X156517078Y-87456447D01*
X156516310Y-87457037D01*
X156515819Y-87457320D01*
X156515812Y-87457325D01*
X155800728Y-88046219D01*
X155736464Y-88073642D01*
X155721900Y-88074500D01*
X149079460Y-88074500D01*
X149012421Y-88054815D01*
X149000130Y-88045804D01*
X148296623Y-87460214D01*
X148288271Y-87452590D01*
X148256485Y-87420803D01*
X148151391Y-87369426D01*
X148083261Y-87359500D01*
X148083260Y-87359500D01*
X146378314Y-87359500D01*
X146372926Y-87358959D01*
X146372918Y-87359201D01*
X146360618Y-87358775D01*
X146349559Y-87359500D01*
X146316739Y-87359500D01*
X146248607Y-87369426D01*
X146230853Y-87378105D01*
X146218761Y-87383090D01*
X146217154Y-87383818D01*
X146209721Y-87388109D01*
X146202194Y-87392115D01*
X146143519Y-87420800D01*
X146143509Y-87420807D01*
X146141968Y-87422349D01*
X146119925Y-87439262D01*
X146120024Y-87439405D01*
X146117078Y-87441447D01*
X146116310Y-87442037D01*
X146115819Y-87442320D01*
X146115812Y-87442325D01*
X145400728Y-88031219D01*
X145336464Y-88058642D01*
X145321900Y-88059500D01*
X143224500Y-88059500D01*
X143157461Y-88039815D01*
X143111706Y-87987011D01*
X143100500Y-87935500D01*
X143100500Y-77958676D01*
X143120185Y-77891637D01*
X143136819Y-77870995D01*
X143995995Y-77011819D01*
X144057318Y-76978334D01*
X144083676Y-76975500D01*
X145221902Y-76975500D01*
X145288941Y-76995185D01*
X145300730Y-77003781D01*
X145431266Y-77111281D01*
X146015811Y-77592672D01*
X146019544Y-77595704D01*
X146019551Y-77595708D01*
X146023954Y-77598695D01*
X146023572Y-77599257D01*
X146040031Y-77611710D01*
X146043513Y-77614195D01*
X146043514Y-77614195D01*
X146043517Y-77614198D01*
X146112485Y-77647914D01*
X146118560Y-77651096D01*
X146121672Y-77652837D01*
X146126341Y-77654963D01*
X146126324Y-77654999D01*
X146131143Y-77657035D01*
X146148604Y-77665572D01*
X146148605Y-77665572D01*
X146148607Y-77665573D01*
X146216740Y-77675500D01*
X146262221Y-77675500D01*
X146269201Y-77675863D01*
X146271057Y-77675748D01*
X146271059Y-77675749D01*
X146271060Y-77675748D01*
X146271300Y-77675734D01*
X146278915Y-77675500D01*
X146571047Y-77675500D01*
X146638086Y-77695185D01*
X146683841Y-77747989D01*
X146693785Y-77817147D01*
X146664760Y-77880703D01*
X146615841Y-77915127D01*
X146562601Y-77935751D01*
X146562595Y-77935754D01*
X146373439Y-78052874D01*
X146373437Y-78052876D01*
X146209020Y-78202761D01*
X146074943Y-78380308D01*
X146074938Y-78380316D01*
X145975775Y-78579461D01*
X145975769Y-78579476D01*
X145914885Y-78793462D01*
X145914884Y-78793464D01*
X145894357Y-79014999D01*
X145894357Y-79015000D01*
X145914884Y-79236535D01*
X145914885Y-79236537D01*
X145975769Y-79450523D01*
X145975775Y-79450538D01*
X146074938Y-79649683D01*
X146074943Y-79649691D01*
X146209020Y-79827238D01*
X146373437Y-79977123D01*
X146373439Y-79977125D01*
X146567473Y-80097265D01*
X146566836Y-80098292D01*
X146613563Y-80141607D01*
X146630989Y-80209269D01*
X146609069Y-80275611D01*
X146559464Y-80317495D01*
X146422422Y-80381399D01*
X146422420Y-80381400D01*
X146228926Y-80516886D01*
X146228920Y-80516891D01*
X146061891Y-80683920D01*
X146061886Y-80683926D01*
X145926400Y-80877420D01*
X145926399Y-80877422D01*
X145826570Y-81091507D01*
X145826567Y-81091513D01*
X145769364Y-81304999D01*
X145769364Y-81305000D01*
X146666988Y-81305000D01*
X146634075Y-81362007D01*
X146600000Y-81489174D01*
X146600000Y-81620826D01*
X146634075Y-81747993D01*
X146666988Y-81805000D01*
X145769364Y-81805000D01*
X145826567Y-82018486D01*
X145826570Y-82018492D01*
X145926399Y-82232578D01*
X146061894Y-82426082D01*
X146228917Y-82593105D01*
X146422421Y-82728600D01*
X146636507Y-82828429D01*
X146636516Y-82828433D01*
X146850000Y-82885634D01*
X146850000Y-81988012D01*
X146907007Y-82020925D01*
X147034174Y-82055000D01*
X147165826Y-82055000D01*
X147292993Y-82020925D01*
X147350000Y-81988012D01*
X147350000Y-82885633D01*
X147563483Y-82828433D01*
X147563492Y-82828429D01*
X147777578Y-82728600D01*
X147971082Y-82593105D01*
X148138105Y-82426082D01*
X148273600Y-82232578D01*
X148373429Y-82018492D01*
X148373432Y-82018486D01*
X148430636Y-81805000D01*
X147533012Y-81805000D01*
X147565925Y-81747993D01*
X147600000Y-81620826D01*
X147600000Y-81489174D01*
X147565925Y-81362007D01*
X147533012Y-81305000D01*
X148430636Y-81305000D01*
X148430635Y-81304999D01*
X148373432Y-81091513D01*
X148373429Y-81091507D01*
X148273600Y-80877422D01*
X148273599Y-80877420D01*
X148138113Y-80683926D01*
X148138108Y-80683920D01*
X147971082Y-80516894D01*
X147777578Y-80381399D01*
X147640535Y-80317495D01*
X147588096Y-80271322D01*
X147568944Y-80204129D01*
X147589160Y-80137248D01*
X147633096Y-80098184D01*
X147632527Y-80097265D01*
X147820728Y-79980736D01*
X147826562Y-79977124D01*
X147990981Y-79827236D01*
X148125058Y-79649689D01*
X148224229Y-79450528D01*
X148285115Y-79236536D01*
X148305643Y-79015000D01*
X148285115Y-78793464D01*
X148224229Y-78579472D01*
X148224224Y-78579461D01*
X148125061Y-78380316D01*
X148125056Y-78380308D01*
X147990979Y-78202761D01*
X147826562Y-78052876D01*
X147826560Y-78052874D01*
X147637404Y-77935754D01*
X147637398Y-77935751D01*
X147584159Y-77915127D01*
X147528758Y-77872554D01*
X147505167Y-77806787D01*
X147520878Y-77738707D01*
X147570902Y-77689928D01*
X147628953Y-77675500D01*
X147983261Y-77675500D01*
X148006815Y-77672068D01*
X148051393Y-77665573D01*
X148156483Y-77614198D01*
X148188310Y-77582369D01*
X148196627Y-77574778D01*
X148806481Y-77067147D01*
X148900129Y-76989196D01*
X148964247Y-76961436D01*
X148979458Y-76960500D01*
X155721902Y-76960500D01*
X155788941Y-76980185D01*
X155800730Y-76988781D01*
X156323461Y-77419266D01*
X156515811Y-77577672D01*
X156519544Y-77580704D01*
X156519551Y-77580708D01*
X156523954Y-77583695D01*
X156523572Y-77584257D01*
X156540031Y-77596710D01*
X156543513Y-77599195D01*
X156543514Y-77599195D01*
X156543517Y-77599198D01*
X156612485Y-77632914D01*
X156618560Y-77636096D01*
X156621672Y-77637837D01*
X156626341Y-77639963D01*
X156626324Y-77639999D01*
X156631143Y-77642035D01*
X156648604Y-77650572D01*
X156648605Y-77650572D01*
X156648607Y-77650573D01*
X156716740Y-77660500D01*
X156762221Y-77660500D01*
X156769201Y-77660863D01*
X156771057Y-77660748D01*
X156771059Y-77660749D01*
X156771060Y-77660748D01*
X156771300Y-77660734D01*
X156778915Y-77660500D01*
X157071047Y-77660500D01*
X157138086Y-77680185D01*
X157183841Y-77732989D01*
X157193785Y-77802147D01*
X157164760Y-77865703D01*
X157115841Y-77900127D01*
X157062601Y-77920751D01*
X157062595Y-77920754D01*
X156873439Y-78037874D01*
X156873437Y-78037876D01*
X156709020Y-78187761D01*
X156574943Y-78365308D01*
X156574938Y-78365316D01*
X156475775Y-78564461D01*
X156475769Y-78564476D01*
X156414885Y-78778462D01*
X156414884Y-78778464D01*
X156394357Y-78999999D01*
X156394357Y-79000000D01*
X156414884Y-79221535D01*
X156414885Y-79221537D01*
X156475769Y-79435523D01*
X156475775Y-79435538D01*
X156574938Y-79634683D01*
X156574943Y-79634691D01*
X156709020Y-79812238D01*
X156873437Y-79962123D01*
X156873439Y-79962125D01*
X157067473Y-80082265D01*
X157066836Y-80083292D01*
X157113563Y-80126607D01*
X157130989Y-80194269D01*
X157109069Y-80260611D01*
X157059464Y-80302495D01*
X156922422Y-80366399D01*
X156922420Y-80366400D01*
X156728926Y-80501886D01*
X156728920Y-80501891D01*
X156561891Y-80668920D01*
X156561886Y-80668926D01*
X156426400Y-80862420D01*
X156426399Y-80862422D01*
X156326570Y-81076507D01*
X156326567Y-81076513D01*
X156269364Y-81289999D01*
X156269364Y-81290000D01*
X157166988Y-81290000D01*
X157134075Y-81347007D01*
X157100000Y-81474174D01*
X157100000Y-81605826D01*
X157134075Y-81732993D01*
X157166988Y-81790000D01*
X156269364Y-81790000D01*
X156326567Y-82003486D01*
X156326570Y-82003492D01*
X156426399Y-82217578D01*
X156561894Y-82411082D01*
X156728917Y-82578105D01*
X156922421Y-82713600D01*
X157136507Y-82813429D01*
X157136516Y-82813433D01*
X157350000Y-82870634D01*
X157350000Y-81973012D01*
X157407007Y-82005925D01*
X157534174Y-82040000D01*
X157665826Y-82040000D01*
X157792993Y-82005925D01*
X157850000Y-81973012D01*
X157850000Y-82870633D01*
X158063483Y-82813433D01*
X158063492Y-82813429D01*
X158277578Y-82713600D01*
X158471082Y-82578105D01*
X158638105Y-82411082D01*
X158773600Y-82217578D01*
X158873429Y-82003492D01*
X158873432Y-82003486D01*
X158930636Y-81790000D01*
X158033012Y-81790000D01*
X158065925Y-81732993D01*
X158100000Y-81605826D01*
X158100000Y-81474174D01*
X158065925Y-81347007D01*
X158033012Y-81290000D01*
X158930636Y-81290000D01*
X158930635Y-81289999D01*
X158873432Y-81076513D01*
X158873429Y-81076507D01*
X158773600Y-80862422D01*
X158773599Y-80862420D01*
X158638113Y-80668926D01*
X158638108Y-80668920D01*
X158471082Y-80501894D01*
X158277578Y-80366399D01*
X158140535Y-80302495D01*
X158088096Y-80256322D01*
X158068944Y-80189129D01*
X158089160Y-80122248D01*
X158133096Y-80083184D01*
X158132527Y-80082265D01*
X158296502Y-79980736D01*
X158326562Y-79962124D01*
X158490981Y-79812236D01*
X158625058Y-79634689D01*
X158724229Y-79435528D01*
X158785115Y-79221536D01*
X158805643Y-79000000D01*
X158785115Y-78778464D01*
X158724229Y-78564472D01*
X158724224Y-78564461D01*
X158625061Y-78365316D01*
X158625056Y-78365308D01*
X158490979Y-78187761D01*
X158326562Y-78037876D01*
X158326560Y-78037874D01*
X158137404Y-77920754D01*
X158137398Y-77920751D01*
X158084159Y-77900127D01*
X158028758Y-77857554D01*
X158005167Y-77791787D01*
X158020878Y-77723707D01*
X158070902Y-77674928D01*
X158128953Y-77660500D01*
X158483261Y-77660500D01*
X158507042Y-77657035D01*
X158551393Y-77650573D01*
X158656483Y-77599198D01*
X158739198Y-77516483D01*
X158790573Y-77411393D01*
X158800500Y-77343260D01*
X158800500Y-76919981D01*
X158810038Y-76872289D01*
X159453828Y-75327190D01*
X159480604Y-75287208D01*
X161900500Y-72867314D01*
X161966392Y-72753186D01*
X162000500Y-72625892D01*
X162000500Y-72494107D01*
X162000500Y-64434108D01*
X161999854Y-64431698D01*
X161966392Y-64306814D01*
X161900500Y-64192686D01*
X158482314Y-60774500D01*
X158425250Y-60741554D01*
X158368187Y-60708608D01*
X158304539Y-60691554D01*
X158240892Y-60674500D01*
X158240891Y-60674500D01*
X145881258Y-60674500D01*
X145829240Y-60663062D01*
X144611478Y-60100299D01*
X144607586Y-60098203D01*
X144607534Y-60098309D01*
X144602408Y-60095755D01*
X144601713Y-60095486D01*
X144601368Y-60095353D01*
X144594151Y-60092291D01*
X144550449Y-60072095D01*
X144544267Y-60069309D01*
X144543864Y-60069132D01*
X144543856Y-60069129D01*
X144543845Y-60069124D01*
X144516675Y-60058500D01*
X144510726Y-60057500D01*
X144486475Y-60050842D01*
X144394940Y-60015382D01*
X144176243Y-59974500D01*
X143953757Y-59974500D01*
X143827563Y-59998090D01*
X143735054Y-60015383D01*
X143616616Y-60061266D01*
X143604611Y-60065226D01*
X143579543Y-60072098D01*
X143579539Y-60072100D01*
X143535842Y-60092293D01*
X143528644Y-60095348D01*
X143527600Y-60095752D01*
X143522486Y-60098299D01*
X143522434Y-60098195D01*
X143518543Y-60100287D01*
X143040183Y-60321351D01*
X142971070Y-60331605D01*
X142909337Y-60304508D01*
X142609218Y-60057351D01*
X142605453Y-60054293D01*
X142601036Y-60051297D01*
X142601417Y-60050734D01*
X142584982Y-60038299D01*
X142581484Y-60035802D01*
X142512533Y-60002094D01*
X142506469Y-59998919D01*
X142503323Y-59997160D01*
X142503321Y-59997159D01*
X142503317Y-59997157D01*
X142498669Y-59995040D01*
X142498684Y-59995005D01*
X142493875Y-59992972D01*
X142476393Y-59984426D01*
X142476394Y-59984426D01*
X142408261Y-59974500D01*
X142408260Y-59974500D01*
X142362794Y-59974500D01*
X142355797Y-59974136D01*
X142353669Y-59974267D01*
X142346064Y-59974500D01*
X140703314Y-59974500D01*
X140697926Y-59973959D01*
X140697918Y-59974201D01*
X140685618Y-59973775D01*
X140674559Y-59974500D01*
X140641739Y-59974500D01*
X140573607Y-59984426D01*
X140555853Y-59993105D01*
X140543761Y-59998090D01*
X140542154Y-59998818D01*
X140534721Y-60003109D01*
X140527194Y-60007115D01*
X140468519Y-60035800D01*
X140468509Y-60035807D01*
X140466968Y-60037349D01*
X140444925Y-60054262D01*
X140445024Y-60054405D01*
X140442078Y-60056447D01*
X140441310Y-60057037D01*
X140440819Y-60057320D01*
X140440812Y-60057325D01*
X139725728Y-60646219D01*
X139661464Y-60673642D01*
X139646900Y-60674500D01*
X138159108Y-60674500D01*
X138031812Y-60708608D01*
X137917686Y-60774500D01*
X137917683Y-60774502D01*
X137099502Y-61592683D01*
X137099500Y-61592686D01*
X137033608Y-61706812D01*
X136999500Y-61834108D01*
X136999500Y-68633730D01*
X136979815Y-68700769D01*
X136930352Y-68744938D01*
X136576913Y-68919266D01*
X136399474Y-69006785D01*
X136390531Y-69011354D01*
X136386759Y-69013281D01*
X136373755Y-69018847D01*
X136372308Y-69019544D01*
X136229111Y-69109521D01*
X136109523Y-69229109D01*
X136109518Y-69229115D01*
X136019547Y-69372302D01*
X136019545Y-69372305D01*
X135963685Y-69531943D01*
X135944751Y-69699997D01*
X135944751Y-69700002D01*
X135963685Y-69868056D01*
X136019545Y-70027694D01*
X136019547Y-70027697D01*
X136109518Y-70170884D01*
X136109523Y-70170890D01*
X136229109Y-70290476D01*
X136229115Y-70290481D01*
X136372302Y-70380452D01*
X136372305Y-70380454D01*
X136372309Y-70380455D01*
X136372310Y-70380456D01*
X136444913Y-70405860D01*
X136531943Y-70436314D01*
X136699997Y-70455249D01*
X136700000Y-70455249D01*
X136700003Y-70455249D01*
X136868056Y-70436314D01*
X136868059Y-70436313D01*
X137027690Y-70380456D01*
X137027692Y-70380454D01*
X137027694Y-70380454D01*
X137027697Y-70380452D01*
X137170884Y-70290481D01*
X137170885Y-70290480D01*
X137170890Y-70290477D01*
X137290477Y-70170890D01*
X137380456Y-70027690D01*
X137381220Y-70025503D01*
X137391982Y-70002574D01*
X137393205Y-70000535D01*
X137393214Y-70000524D01*
X137662447Y-69454665D01*
X137685967Y-69421845D01*
X137900500Y-69207314D01*
X137966392Y-69093186D01*
X138000500Y-68965892D01*
X138000500Y-68834107D01*
X138000500Y-62158676D01*
X138020185Y-62091637D01*
X138036819Y-62070995D01*
X138395995Y-61711819D01*
X138457318Y-61678334D01*
X138483676Y-61675500D01*
X139646902Y-61675500D01*
X139713941Y-61695185D01*
X139725730Y-61703781D01*
X139883984Y-61834108D01*
X140440811Y-62292672D01*
X140444544Y-62295704D01*
X140444551Y-62295708D01*
X140448954Y-62298695D01*
X140448572Y-62299257D01*
X140465031Y-62311710D01*
X140468513Y-62314195D01*
X140468514Y-62314195D01*
X140468517Y-62314198D01*
X140537485Y-62347914D01*
X140543560Y-62351096D01*
X140546672Y-62352837D01*
X140551341Y-62354963D01*
X140551324Y-62354999D01*
X140556143Y-62357035D01*
X140573604Y-62365572D01*
X140573605Y-62365572D01*
X140573607Y-62365573D01*
X140641740Y-62375500D01*
X140687221Y-62375500D01*
X140694201Y-62375863D01*
X140696057Y-62375748D01*
X140696059Y-62375749D01*
X140696060Y-62375748D01*
X140696300Y-62375734D01*
X140703915Y-62375500D01*
X140996047Y-62375500D01*
X141063086Y-62395185D01*
X141108841Y-62447989D01*
X141118785Y-62517147D01*
X141089760Y-62580703D01*
X141040841Y-62615127D01*
X140987601Y-62635751D01*
X140987595Y-62635754D01*
X140798439Y-62752874D01*
X140798437Y-62752876D01*
X140634020Y-62902761D01*
X140499943Y-63080308D01*
X140499938Y-63080316D01*
X140400775Y-63279461D01*
X140400769Y-63279476D01*
X140339885Y-63493462D01*
X140339884Y-63493464D01*
X140319357Y-63714999D01*
X140319357Y-63715000D01*
X140339884Y-63936535D01*
X140339885Y-63936537D01*
X140400769Y-64150523D01*
X140400775Y-64150538D01*
X140499938Y-64349683D01*
X140499943Y-64349691D01*
X140634020Y-64527238D01*
X140798437Y-64677123D01*
X140798439Y-64677125D01*
X140992473Y-64797265D01*
X140991836Y-64798292D01*
X141038563Y-64841607D01*
X141055989Y-64909269D01*
X141034069Y-64975611D01*
X140984464Y-65017495D01*
X140847422Y-65081399D01*
X140847420Y-65081400D01*
X140653926Y-65216886D01*
X140653920Y-65216891D01*
X140486891Y-65383920D01*
X140486886Y-65383926D01*
X140351400Y-65577420D01*
X140351399Y-65577422D01*
X140251570Y-65791507D01*
X140251567Y-65791513D01*
X140194364Y-66004999D01*
X140194364Y-66005000D01*
X141091988Y-66005000D01*
X141059075Y-66062007D01*
X141025000Y-66189174D01*
X141025000Y-66320826D01*
X141059075Y-66447993D01*
X141091988Y-66505000D01*
X140194364Y-66505000D01*
X140251567Y-66718486D01*
X140251570Y-66718492D01*
X140351399Y-66932578D01*
X140486894Y-67126082D01*
X140653917Y-67293105D01*
X140847421Y-67428600D01*
X141061507Y-67528429D01*
X141061516Y-67528433D01*
X141275000Y-67585634D01*
X141275000Y-66688012D01*
X141332007Y-66720925D01*
X141459174Y-66755000D01*
X141590826Y-66755000D01*
X141717993Y-66720925D01*
X141775000Y-66688012D01*
X141775000Y-67585633D01*
X141988483Y-67528433D01*
X141988492Y-67528429D01*
X142202578Y-67428600D01*
X142396082Y-67293105D01*
X142563105Y-67126082D01*
X142693425Y-66939968D01*
X142748002Y-66896344D01*
X142817501Y-66889151D01*
X142879855Y-66920673D01*
X142896575Y-66939968D01*
X143026894Y-67126082D01*
X143193917Y-67293105D01*
X143387421Y-67428600D01*
X143601507Y-67528429D01*
X143601516Y-67528433D01*
X143815000Y-67585634D01*
X143815000Y-66688012D01*
X143872007Y-66720925D01*
X143999174Y-66755000D01*
X144130826Y-66755000D01*
X144257993Y-66720925D01*
X144315000Y-66688012D01*
X144315000Y-67585633D01*
X144528483Y-67528433D01*
X144528492Y-67528429D01*
X144742578Y-67428600D01*
X144936082Y-67293105D01*
X145103105Y-67126082D01*
X145238600Y-66932578D01*
X145338429Y-66718492D01*
X145338432Y-66718486D01*
X145395636Y-66505000D01*
X144498012Y-66505000D01*
X144530925Y-66447993D01*
X144565000Y-66320826D01*
X144565000Y-66189174D01*
X144530925Y-66062007D01*
X144498012Y-66005000D01*
X145395636Y-66005000D01*
X145395635Y-66004999D01*
X145338432Y-65791513D01*
X145338429Y-65791507D01*
X145238600Y-65577422D01*
X145238599Y-65577420D01*
X145103113Y-65383926D01*
X145103108Y-65383920D01*
X144936082Y-65216894D01*
X144742578Y-65081399D01*
X144605535Y-65017495D01*
X144553096Y-64971322D01*
X144533944Y-64904129D01*
X144554160Y-64837248D01*
X144598096Y-64798184D01*
X144597527Y-64797265D01*
X144742803Y-64707314D01*
X144791562Y-64677124D01*
X144955981Y-64527236D01*
X145090058Y-64349689D01*
X145189229Y-64150528D01*
X145250115Y-63936536D01*
X145270643Y-63715000D01*
X145250115Y-63493464D01*
X145189229Y-63279472D01*
X145096744Y-63093738D01*
X145090061Y-63080316D01*
X145090056Y-63080308D01*
X144955979Y-62902761D01*
X144791562Y-62752876D01*
X144791560Y-62752874D01*
X144602404Y-62635754D01*
X144602395Y-62635750D01*
X144508956Y-62599552D01*
X144408475Y-62560625D01*
X144353075Y-62518054D01*
X144329484Y-62452288D01*
X144345195Y-62384207D01*
X144395219Y-62335428D01*
X144408468Y-62329377D01*
X144513403Y-62288724D01*
X144525387Y-62284771D01*
X144550457Y-62277900D01*
X144594117Y-62257721D01*
X144601354Y-62254651D01*
X144602401Y-62254247D01*
X144602403Y-62254245D01*
X144602407Y-62254244D01*
X144607548Y-62251684D01*
X144607601Y-62251790D01*
X144611492Y-62249692D01*
X145829238Y-61686937D01*
X145881256Y-61675500D01*
X157916324Y-61675500D01*
X157983363Y-61695185D01*
X158004005Y-61711819D01*
X160963181Y-64670995D01*
X160996666Y-64732318D01*
X160999500Y-64758676D01*
X160999500Y-72301323D01*
X160979815Y-72368362D01*
X160963181Y-72389004D01*
X158772796Y-74579388D01*
X158732807Y-74606169D01*
X157187707Y-75249962D01*
X157140015Y-75259500D01*
X156778314Y-75259500D01*
X156772926Y-75258959D01*
X156772918Y-75259201D01*
X156760618Y-75258775D01*
X156749559Y-75259500D01*
X156716739Y-75259500D01*
X156648607Y-75269426D01*
X156630853Y-75278105D01*
X156618761Y-75283090D01*
X156617154Y-75283818D01*
X156609721Y-75288109D01*
X156602194Y-75292115D01*
X156543519Y-75320800D01*
X156543509Y-75320807D01*
X156541968Y-75322349D01*
X156519925Y-75339262D01*
X156520024Y-75339405D01*
X156517078Y-75341447D01*
X156516310Y-75342037D01*
X156515819Y-75342320D01*
X156515812Y-75342325D01*
X155800728Y-75931219D01*
X155736464Y-75958642D01*
X155721900Y-75959500D01*
X148975367Y-75959500D01*
X148908328Y-75939815D01*
X148897559Y-75932050D01*
X148181322Y-75354847D01*
X148180590Y-75354262D01*
X148178963Y-75352961D01*
X148178957Y-75352957D01*
X148174584Y-75350032D01*
X148175051Y-75349332D01*
X148164900Y-75341692D01*
X148164844Y-75341771D01*
X148156480Y-75335799D01*
X148084755Y-75300735D01*
X148079265Y-75297880D01*
X148076535Y-75296372D01*
X148076531Y-75296370D01*
X148076529Y-75296369D01*
X148076525Y-75296367D01*
X148071855Y-75294271D01*
X148071907Y-75294153D01*
X148067556Y-75292328D01*
X148051393Y-75284426D01*
X147983261Y-75274500D01*
X147983260Y-75274500D01*
X147938642Y-75274500D01*
X147930525Y-75274077D01*
X147927468Y-75274266D01*
X147919854Y-75274500D01*
X146278314Y-75274500D01*
X146272926Y-75273959D01*
X146272918Y-75274201D01*
X146260618Y-75273775D01*
X146249559Y-75274500D01*
X146216739Y-75274500D01*
X146148607Y-75284426D01*
X146130853Y-75293105D01*
X146118761Y-75298090D01*
X146117154Y-75298818D01*
X146109721Y-75303109D01*
X146102194Y-75307115D01*
X146043519Y-75335800D01*
X146043509Y-75335807D01*
X146041968Y-75337349D01*
X146019925Y-75354262D01*
X146020024Y-75354405D01*
X146017078Y-75356447D01*
X146016310Y-75357037D01*
X146015819Y-75357320D01*
X146015812Y-75357325D01*
X145300728Y-75946219D01*
X145236464Y-75973642D01*
X145221900Y-75974500D01*
X143759108Y-75974500D01*
X143631812Y-76008608D01*
X143517686Y-76074500D01*
X143517683Y-76074502D01*
X142199502Y-77392683D01*
X142199500Y-77392686D01*
X142133608Y-77506812D01*
X142099500Y-77634108D01*
X142099500Y-88241324D01*
X142079815Y-88308363D01*
X142063181Y-88329005D01*
X140729005Y-89663181D01*
X140667682Y-89696666D01*
X140641324Y-89699500D01*
X127034108Y-89699500D01*
X126906814Y-89733608D01*
X126906811Y-89733609D01*
X126849718Y-89766572D01*
X126806432Y-89781765D01*
X126706251Y-89797059D01*
X126706248Y-89797060D01*
X126705260Y-89797376D01*
X126681403Y-89802479D01*
X126581946Y-89813685D01*
X126422307Y-89869544D01*
X126422302Y-89869547D01*
X126279115Y-89959518D01*
X126279109Y-89959523D01*
X126159523Y-90079109D01*
X126159518Y-90079115D01*
X126069547Y-90222302D01*
X126069545Y-90222305D01*
X126013685Y-90381943D01*
X125994751Y-90549997D01*
X123307642Y-90549997D01*
X123336313Y-90468059D01*
X123336313Y-90468058D01*
X123336314Y-90468056D01*
X123355249Y-90300002D01*
X123355249Y-90299997D01*
X123336314Y-90131943D01*
X123290320Y-90000500D01*
X123280456Y-89972310D01*
X123280455Y-89972309D01*
X123280454Y-89972305D01*
X123280452Y-89972302D01*
X123190481Y-89829115D01*
X123190476Y-89829109D01*
X123070890Y-89709523D01*
X123070884Y-89709518D01*
X122927693Y-89619544D01*
X122898538Y-89609343D01*
X122877507Y-89599697D01*
X122866374Y-89593271D01*
X122866372Y-89593270D01*
X122866370Y-89593269D01*
X122803446Y-89569717D01*
X122803383Y-89569692D01*
X122298084Y-89380571D01*
X122253869Y-89352120D01*
X122161819Y-89260070D01*
X122128334Y-89198747D01*
X122125500Y-89172389D01*
X122125500Y-87915003D01*
X122136647Y-87863620D01*
X122214906Y-87691740D01*
X122388086Y-87311381D01*
X122390367Y-87306265D01*
X122390518Y-87305919D01*
X122390520Y-87305912D01*
X122390526Y-87305900D01*
X122396043Y-87291767D01*
X122400661Y-87279943D01*
X122402189Y-87270916D01*
X122407407Y-87250666D01*
X122436314Y-87168055D01*
X122455249Y-87000002D01*
X122455249Y-86999997D01*
X122436314Y-86831943D01*
X122380454Y-86672305D01*
X122380452Y-86672302D01*
X122290481Y-86529115D01*
X122290476Y-86529109D01*
X122170890Y-86409523D01*
X122170884Y-86409518D01*
X122027697Y-86319547D01*
X122027694Y-86319545D01*
X121868056Y-86263685D01*
X121700003Y-86244751D01*
X121699997Y-86244751D01*
X121531943Y-86263685D01*
X121372305Y-86319545D01*
X121372302Y-86319547D01*
X121229115Y-86409518D01*
X121229109Y-86409523D01*
X121109523Y-86529109D01*
X121109518Y-86529115D01*
X121019547Y-86672302D01*
X121019545Y-86672305D01*
X120963685Y-86831943D01*
X120944751Y-86999997D01*
X119525500Y-86999997D01*
X119525500Y-86727610D01*
X119545185Y-86660571D01*
X119561819Y-86639929D01*
X120839929Y-85361819D01*
X120901252Y-85328334D01*
X120927610Y-85325500D01*
X122484997Y-85325500D01*
X122536380Y-85336647D01*
X123088675Y-85588113D01*
X123093712Y-85590358D01*
X123094069Y-85590514D01*
X123101198Y-85593297D01*
X123120056Y-85600661D01*
X123129072Y-85602187D01*
X123149329Y-85607405D01*
X123231941Y-85636313D01*
X123231944Y-85636314D01*
X123399997Y-85655249D01*
X123400000Y-85655249D01*
X123400003Y-85655249D01*
X123568056Y-85636314D01*
X123568059Y-85636313D01*
X123727690Y-85580456D01*
X123727692Y-85580454D01*
X123727694Y-85580454D01*
X123727697Y-85580452D01*
X123870884Y-85490481D01*
X123870885Y-85490480D01*
X123870890Y-85490477D01*
X123990477Y-85370890D01*
X123996177Y-85361819D01*
X124080452Y-85227697D01*
X124080454Y-85227694D01*
X124080454Y-85227692D01*
X124080456Y-85227690D01*
X124136313Y-85068059D01*
X124136313Y-85068058D01*
X124136314Y-85068056D01*
X124155249Y-84900002D01*
X124155249Y-84899997D01*
X124136314Y-84731943D01*
X124080454Y-84572305D01*
X124080452Y-84572302D01*
X123990481Y-84429115D01*
X123990476Y-84429109D01*
X123870890Y-84309523D01*
X123870884Y-84309518D01*
X123727697Y-84219547D01*
X123727694Y-84219545D01*
X123568056Y-84163685D01*
X123400003Y-84144751D01*
X123399997Y-84144751D01*
X123231941Y-84163686D01*
X123116510Y-84204076D01*
X123107668Y-84206804D01*
X123088622Y-84211910D01*
X123088619Y-84211911D01*
X122536377Y-84463353D01*
X122484994Y-84474500D01*
X120643982Y-84474500D01*
X120535763Y-84503497D01*
X120535760Y-84503498D01*
X120438740Y-84559513D01*
X120438734Y-84559517D01*
X118759517Y-86238734D01*
X118759513Y-86238740D01*
X118703498Y-86335760D01*
X118703497Y-86335763D01*
X118674500Y-86443982D01*
X118674500Y-88488040D01*
X118664051Y-88537860D01*
X118455970Y-89012120D01*
X118455009Y-89014331D01*
X118454844Y-89014712D01*
X118445404Y-89039053D01*
X118445403Y-89039057D01*
X118443890Y-89047984D01*
X118437577Y-89071226D01*
X118414861Y-89131122D01*
X118414859Y-89131130D01*
X118394355Y-89300000D01*
X100000500Y-89300000D01*
X100000500Y-88952609D01*
X100020185Y-88885570D01*
X100036819Y-88864928D01*
X101139928Y-87761819D01*
X101201251Y-87728334D01*
X101227609Y-87725500D01*
X116756016Y-87725500D01*
X116756018Y-87725500D01*
X116864237Y-87696503D01*
X116961263Y-87640485D01*
X121239929Y-83361819D01*
X121301252Y-83328334D01*
X121327610Y-83325500D01*
X138456016Y-83325500D01*
X138456018Y-83325500D01*
X138564237Y-83296503D01*
X138661263Y-83240485D01*
X139851053Y-82050692D01*
X139851058Y-82050689D01*
X139861261Y-82040485D01*
X139861263Y-82040485D01*
X139940485Y-81961263D01*
X139996503Y-81864237D01*
X140023618Y-81763042D01*
X140023619Y-81763040D01*
X140025500Y-81756020D01*
X140025500Y-81611959D01*
X140035948Y-81562139D01*
X140067961Y-81489174D01*
X140244115Y-81087680D01*
X140245066Y-81085493D01*
X140245150Y-81085298D01*
X140254594Y-81060948D01*
X140256105Y-81052029D01*
X140262421Y-81028778D01*
X140285139Y-80968877D01*
X140285139Y-80968875D01*
X140285139Y-80968874D01*
X140285140Y-80968872D01*
X140305645Y-80800000D01*
X140285140Y-80631128D01*
X140224818Y-80472070D01*
X140202826Y-80440210D01*
X140165566Y-80386229D01*
X140128183Y-80332071D01*
X140000852Y-80219266D01*
X140000849Y-80219263D01*
X139850226Y-80140210D01*
X139685056Y-80099500D01*
X139514944Y-80099500D01*
X139349773Y-80140210D01*
X139199150Y-80219263D01*
X139071816Y-80332072D01*
X138975182Y-80472068D01*
X138914860Y-80631125D01*
X138914859Y-80631130D01*
X138894355Y-80800000D01*
X138914859Y-80968869D01*
X138914859Y-80968870D01*
X138914860Y-80968872D01*
X138941870Y-81040095D01*
X138945251Y-81049008D01*
X138949510Y-81062524D01*
X138955882Y-81087677D01*
X138955885Y-81087684D01*
X139005264Y-81200230D01*
X139121489Y-81465132D01*
X139130399Y-81534430D01*
X139100427Y-81597545D01*
X139095619Y-81602632D01*
X138260071Y-82438181D01*
X138198748Y-82471666D01*
X138172390Y-82474500D01*
X121043982Y-82474500D01*
X120935763Y-82503497D01*
X120935760Y-82503498D01*
X120838740Y-82559513D01*
X120838734Y-82559517D01*
X119398648Y-83999603D01*
X119337325Y-84033088D01*
X119267633Y-84028104D01*
X119211700Y-83986232D01*
X119187283Y-83920768D01*
X119195140Y-83872286D01*
X119194399Y-83872088D01*
X119196357Y-83864777D01*
X119196409Y-83864462D01*
X119196498Y-83864244D01*
X119196503Y-83864237D01*
X119225500Y-83756018D01*
X119225500Y-83643981D01*
X119225500Y-78627609D01*
X119245185Y-78560570D01*
X119261819Y-78539928D01*
X119839928Y-77961819D01*
X119901251Y-77928334D01*
X119927609Y-77925500D01*
X123081289Y-77925500D01*
X123148328Y-77945185D01*
X123194083Y-77997989D01*
X123204027Y-78067147D01*
X123175002Y-78130703D01*
X123143289Y-78156887D01*
X123138740Y-78159513D01*
X123138734Y-78159517D01*
X123095491Y-78202761D01*
X123059515Y-78238737D01*
X123059513Y-78238739D01*
X122838180Y-78460071D01*
X122773266Y-78524985D01*
X122730650Y-78552824D01*
X122258688Y-78736935D01*
X122256754Y-78737548D01*
X122256759Y-78737560D01*
X122246712Y-78741372D01*
X122245468Y-78741948D01*
X122245496Y-78742010D01*
X122221682Y-78752597D01*
X122215728Y-78756824D01*
X122201587Y-78765499D01*
X122099151Y-78819264D01*
X122099148Y-78819266D01*
X121971816Y-78932072D01*
X121875182Y-79072068D01*
X121814860Y-79231125D01*
X121814859Y-79231130D01*
X121794355Y-79400000D01*
X121814859Y-79568869D01*
X121814860Y-79568874D01*
X121875182Y-79727931D01*
X121924929Y-79800000D01*
X121971817Y-79867929D01*
X122048383Y-79935760D01*
X122099150Y-79980736D01*
X122249773Y-80059789D01*
X122249775Y-80059790D01*
X122414944Y-80100500D01*
X122585056Y-80100500D01*
X122750225Y-80059790D01*
X122829692Y-80018081D01*
X122900849Y-79980736D01*
X122900850Y-79980734D01*
X122900852Y-79980734D01*
X123028183Y-79867929D01*
X123124818Y-79727930D01*
X123140504Y-79686565D01*
X123149914Y-79667082D01*
X123158879Y-79652036D01*
X123347175Y-79169343D01*
X123375008Y-79126738D01*
X123539929Y-78961816D01*
X123601252Y-78928334D01*
X123627609Y-78925500D01*
X129656016Y-78925500D01*
X129656018Y-78925500D01*
X129764237Y-78896503D01*
X129800551Y-78875536D01*
X129817459Y-78867415D01*
X130341258Y-78663082D01*
X130343200Y-78662468D01*
X130343196Y-78662457D01*
X130351928Y-78659144D01*
X130353477Y-78658395D01*
X130355310Y-78657583D01*
X130355354Y-78657566D01*
X130378312Y-78647404D01*
X130383132Y-78643982D01*
X130384249Y-78643189D01*
X130398408Y-78634500D01*
X130500852Y-78580734D01*
X130628183Y-78467929D01*
X130724818Y-78327930D01*
X130785140Y-78168872D01*
X130805645Y-78000000D01*
X130785140Y-77831128D01*
X130724818Y-77672070D01*
X130720333Y-77665573D01*
X130674516Y-77599196D01*
X130628183Y-77532071D01*
X130500852Y-77419266D01*
X130500849Y-77419263D01*
X130350226Y-77340210D01*
X130185056Y-77299500D01*
X130014944Y-77299500D01*
X129849773Y-77340210D01*
X129699150Y-77419263D01*
X129571816Y-77532072D01*
X129475181Y-77672070D01*
X129475179Y-77672074D01*
X129459500Y-77713416D01*
X129450093Y-77732897D01*
X129441118Y-77747963D01*
X129344531Y-77995564D01*
X129301829Y-78050866D01*
X129236007Y-78074302D01*
X129229010Y-78074500D01*
X128818711Y-78074500D01*
X128751672Y-78054815D01*
X128705917Y-78002011D01*
X128695973Y-77932853D01*
X128724998Y-77869297D01*
X128756711Y-77843113D01*
X128761263Y-77840485D01*
X129839928Y-76761818D01*
X129901251Y-76728334D01*
X129927609Y-76725500D01*
X136556016Y-76725500D01*
X136556018Y-76725500D01*
X136664237Y-76696503D01*
X136761263Y-76640485D01*
X138345484Y-75056264D01*
X138357321Y-75035763D01*
X138401503Y-74959237D01*
X138430500Y-74851018D01*
X138430500Y-73310003D01*
X138441647Y-73258620D01*
X138693107Y-72706335D01*
X138695341Y-72701323D01*
X138695367Y-72701265D01*
X138695518Y-72700919D01*
X138695520Y-72700912D01*
X138695526Y-72700900D01*
X138701043Y-72686767D01*
X138705661Y-72674943D01*
X138707189Y-72665916D01*
X138712407Y-72645666D01*
X138741313Y-72563059D01*
X138741313Y-72563057D01*
X138741314Y-72563055D01*
X138760249Y-72395002D01*
X138760249Y-72394997D01*
X138741314Y-72226943D01*
X138685454Y-72067305D01*
X138685452Y-72067302D01*
X138595481Y-71924115D01*
X138595476Y-71924109D01*
X138475890Y-71804523D01*
X138475884Y-71804518D01*
X138332697Y-71714547D01*
X138332694Y-71714545D01*
X138173056Y-71658685D01*
X138005003Y-71639751D01*
X138004997Y-71639751D01*
X137836943Y-71658685D01*
X137677305Y-71714545D01*
X137677302Y-71714547D01*
X137534115Y-71804518D01*
X137534109Y-71804523D01*
X137414523Y-71924109D01*
X137414518Y-71924115D01*
X137324547Y-72067302D01*
X137324545Y-72067305D01*
X137268685Y-72226943D01*
X137249751Y-72394997D01*
X137249751Y-72395002D01*
X137268686Y-72563056D01*
X137309080Y-72678499D01*
X137311806Y-72687334D01*
X137316913Y-72706381D01*
X137316914Y-72706385D01*
X137390186Y-72867313D01*
X137568352Y-73258620D01*
X137568353Y-73258621D01*
X137579500Y-73310004D01*
X137579500Y-74567390D01*
X137559815Y-74634429D01*
X137543181Y-74655071D01*
X136360071Y-75838181D01*
X136298748Y-75871666D01*
X136272390Y-75874500D01*
X129756018Y-75874500D01*
X129643981Y-75874500D01*
X129535763Y-75903497D01*
X129535761Y-75903498D01*
X129535760Y-75903498D01*
X129438740Y-75959513D01*
X129438734Y-75959517D01*
X128360071Y-77038181D01*
X128298748Y-77071666D01*
X128272390Y-77074500D01*
X128118711Y-77074500D01*
X128051672Y-77054815D01*
X128005917Y-77002011D01*
X127995973Y-76932853D01*
X128024998Y-76869297D01*
X128056711Y-76843113D01*
X128061263Y-76840485D01*
X129239929Y-75661819D01*
X129301252Y-75628334D01*
X129327610Y-75625500D01*
X133356016Y-75625500D01*
X133356018Y-75625500D01*
X133464237Y-75596503D01*
X133561263Y-75540485D01*
X133561264Y-75540483D01*
X133565082Y-75537554D01*
X133597107Y-75519792D01*
X134166369Y-75306731D01*
X134171832Y-75304635D01*
X134172183Y-75304497D01*
X134197509Y-75293384D01*
X134197515Y-75293379D01*
X134198734Y-75292689D01*
X134218939Y-75283518D01*
X134224483Y-75281578D01*
X134227690Y-75280456D01*
X134370890Y-75190477D01*
X134490477Y-75070890D01*
X134490481Y-75070884D01*
X134580452Y-74927697D01*
X134580454Y-74927694D01*
X134580454Y-74927692D01*
X134580456Y-74927690D01*
X134636313Y-74768059D01*
X134636313Y-74768058D01*
X134636314Y-74768056D01*
X134655249Y-74600002D01*
X134655249Y-74599997D01*
X134636314Y-74431943D01*
X134580454Y-74272305D01*
X134580452Y-74272302D01*
X134490481Y-74129115D01*
X134490476Y-74129109D01*
X134370890Y-74009523D01*
X134370884Y-74009518D01*
X134227697Y-73919547D01*
X134227694Y-73919545D01*
X134068056Y-73863685D01*
X133900003Y-73844751D01*
X133899997Y-73844751D01*
X133731943Y-73863685D01*
X133572305Y-73919545D01*
X133572302Y-73919547D01*
X133429115Y-74009518D01*
X133429109Y-74009523D01*
X133309523Y-74129109D01*
X133219544Y-74272310D01*
X133219540Y-74272319D01*
X133209341Y-74301464D01*
X133199699Y-74322487D01*
X133193270Y-74333626D01*
X133193262Y-74333642D01*
X133058403Y-74693965D01*
X133016469Y-74749851D01*
X132950977Y-74774194D01*
X132942271Y-74774500D01*
X129043982Y-74774500D01*
X128935763Y-74803497D01*
X128935760Y-74803498D01*
X128838740Y-74859513D01*
X128838734Y-74859517D01*
X127660071Y-76038181D01*
X127598748Y-76071666D01*
X127572390Y-76074500D01*
X118643979Y-76074500D01*
X118597606Y-76086925D01*
X118597607Y-76086926D01*
X118535761Y-76103497D01*
X118535760Y-76103498D01*
X118438740Y-76159513D01*
X118438734Y-76159517D01*
X118359513Y-76238739D01*
X117537181Y-77061070D01*
X117475858Y-77094555D01*
X117406166Y-77089571D01*
X117350233Y-77047699D01*
X117325816Y-76982235D01*
X117325500Y-76973389D01*
X117325500Y-76027610D01*
X117345185Y-75960571D01*
X117361819Y-75939929D01*
X118139929Y-75161819D01*
X118201252Y-75128334D01*
X118227610Y-75125500D01*
X123484997Y-75125500D01*
X123536380Y-75136647D01*
X124088675Y-75388113D01*
X124093712Y-75390358D01*
X124094069Y-75390514D01*
X124101198Y-75393297D01*
X124120056Y-75400661D01*
X124129072Y-75402187D01*
X124149329Y-75407405D01*
X124231941Y-75436313D01*
X124231944Y-75436314D01*
X124399997Y-75455249D01*
X124400000Y-75455249D01*
X124400003Y-75455249D01*
X124568056Y-75436314D01*
X124568059Y-75436313D01*
X124727690Y-75380456D01*
X124727692Y-75380454D01*
X124727694Y-75380454D01*
X124727697Y-75380452D01*
X124870884Y-75290481D01*
X124870885Y-75290480D01*
X124870890Y-75290477D01*
X124990477Y-75170890D01*
X124996177Y-75161819D01*
X125080452Y-75027697D01*
X125080454Y-75027694D01*
X125080454Y-75027692D01*
X125080456Y-75027690D01*
X125136313Y-74868059D01*
X125136313Y-74868058D01*
X125136314Y-74868056D01*
X125155249Y-74700002D01*
X125155249Y-74699997D01*
X125136314Y-74531943D01*
X125080454Y-74372305D01*
X125080452Y-74372302D01*
X124990481Y-74229115D01*
X124990476Y-74229109D01*
X124870890Y-74109523D01*
X124870884Y-74109518D01*
X124727697Y-74019547D01*
X124727694Y-74019545D01*
X124568056Y-73963685D01*
X124400003Y-73944751D01*
X124399997Y-73944751D01*
X124231941Y-73963686D01*
X124116510Y-74004076D01*
X124107668Y-74006804D01*
X124088622Y-74011910D01*
X124088619Y-74011911D01*
X123536377Y-74263353D01*
X123484994Y-74274500D01*
X117943982Y-74274500D01*
X117835763Y-74303497D01*
X117835760Y-74303498D01*
X117738740Y-74359513D01*
X117738734Y-74359517D01*
X116559517Y-75538734D01*
X116559513Y-75538740D01*
X116503498Y-75635760D01*
X116503497Y-75635763D01*
X116474500Y-75743982D01*
X116474500Y-79213771D01*
X116454815Y-79280810D01*
X116402011Y-79326565D01*
X116332853Y-79336509D01*
X116269297Y-79307484D01*
X116262819Y-79301452D01*
X116170890Y-79209523D01*
X116170884Y-79209518D01*
X116027693Y-79119544D01*
X115998538Y-79109343D01*
X115977507Y-79099697D01*
X115966374Y-79093271D01*
X115966372Y-79093270D01*
X115966370Y-79093269D01*
X115903446Y-79069717D01*
X115903383Y-79069692D01*
X115398083Y-78880571D01*
X115353868Y-78852120D01*
X115061819Y-78560071D01*
X115028334Y-78498748D01*
X115025500Y-78472390D01*
X115025500Y-75843983D01*
X115025500Y-75843982D01*
X115013547Y-75799374D01*
X114996503Y-75735763D01*
X114988151Y-75721297D01*
X114940485Y-75638737D01*
X114861263Y-75559515D01*
X114861262Y-75559514D01*
X114856932Y-75555184D01*
X114856921Y-75555174D01*
X113961265Y-74659517D01*
X113961264Y-74659516D01*
X113961263Y-74659515D01*
X113864237Y-74603497D01*
X113756018Y-74574500D01*
X113756017Y-74574500D01*
X111127610Y-74574500D01*
X111060571Y-74554815D01*
X111039929Y-74538181D01*
X109661819Y-73160071D01*
X109628334Y-73098748D01*
X109625500Y-73072390D01*
X109625500Y-69500000D01*
X126294355Y-69500000D01*
X126314859Y-69668869D01*
X126314860Y-69668874D01*
X126375182Y-69827931D01*
X126402879Y-69868056D01*
X126471817Y-69967929D01*
X126577505Y-70061560D01*
X126599150Y-70080736D01*
X126749773Y-70159789D01*
X126749775Y-70159790D01*
X126914944Y-70200500D01*
X127085056Y-70200500D01*
X127250225Y-70159790D01*
X127329692Y-70118081D01*
X127400849Y-70080736D01*
X127400850Y-70080734D01*
X127400852Y-70080734D01*
X127528183Y-69967929D01*
X127624818Y-69827930D01*
X127685140Y-69668872D01*
X127705645Y-69500000D01*
X127685140Y-69331128D01*
X127624818Y-69172070D01*
X127528183Y-69032071D01*
X127410369Y-68927697D01*
X127400849Y-68919263D01*
X127250226Y-68840210D01*
X127085056Y-68799500D01*
X126914944Y-68799500D01*
X126749773Y-68840210D01*
X126599150Y-68919263D01*
X126471816Y-69032072D01*
X126375182Y-69172068D01*
X126314860Y-69331125D01*
X126314859Y-69331130D01*
X126294355Y-69500000D01*
X109625500Y-69500000D01*
X109625500Y-68599997D01*
X129444751Y-68599997D01*
X129444751Y-68600002D01*
X129463685Y-68768056D01*
X129519545Y-68927694D01*
X129519547Y-68927697D01*
X129609518Y-69070884D01*
X129609523Y-69070890D01*
X129729109Y-69190476D01*
X129729115Y-69190481D01*
X129872302Y-69280452D01*
X129872305Y-69280454D01*
X129872309Y-69280455D01*
X129872310Y-69280456D01*
X129944913Y-69305860D01*
X130031943Y-69336314D01*
X130199997Y-69355249D01*
X130200000Y-69355249D01*
X130200003Y-69355249D01*
X130368056Y-69336314D01*
X130382877Y-69331128D01*
X130527690Y-69280456D01*
X130527692Y-69280454D01*
X130527694Y-69280454D01*
X130527697Y-69280452D01*
X130670884Y-69190481D01*
X130670885Y-69190480D01*
X130670890Y-69190477D01*
X130790477Y-69070890D01*
X130825781Y-69014704D01*
X130880452Y-68927697D01*
X130880454Y-68927694D01*
X130880454Y-68927692D01*
X130880456Y-68927690D01*
X130936313Y-68768059D01*
X130936313Y-68768058D01*
X130936314Y-68768056D01*
X130955249Y-68600002D01*
X130955249Y-68599997D01*
X130936314Y-68431946D01*
X130936313Y-68431944D01*
X130936313Y-68431941D01*
X130903941Y-68339427D01*
X130895915Y-68316489D01*
X130893186Y-68307643D01*
X130888086Y-68288618D01*
X130636647Y-67736378D01*
X130625500Y-67684995D01*
X130625500Y-67227610D01*
X130645185Y-67160571D01*
X130661819Y-67139929D01*
X130939929Y-66861819D01*
X131001252Y-66828334D01*
X131027610Y-66825500D01*
X132384997Y-66825500D01*
X132436380Y-66836647D01*
X132988675Y-67088113D01*
X132993712Y-67090358D01*
X132994069Y-67090514D01*
X133001198Y-67093297D01*
X133020056Y-67100661D01*
X133029072Y-67102187D01*
X133049329Y-67107405D01*
X133102703Y-67126082D01*
X133131944Y-67136314D01*
X133299997Y-67155249D01*
X133300000Y-67155249D01*
X133300003Y-67155249D01*
X133468056Y-67136314D01*
X133468059Y-67136313D01*
X133627690Y-67080456D01*
X133627692Y-67080454D01*
X133627694Y-67080454D01*
X133627697Y-67080452D01*
X133770884Y-66990481D01*
X133770885Y-66990480D01*
X133770890Y-66990477D01*
X133890477Y-66870890D01*
X133896177Y-66861819D01*
X133980452Y-66727697D01*
X133980454Y-66727694D01*
X133980454Y-66727692D01*
X133980456Y-66727690D01*
X134036313Y-66568059D01*
X134036313Y-66568058D01*
X134036314Y-66568056D01*
X134055249Y-66400002D01*
X134055249Y-66399997D01*
X134036314Y-66231943D01*
X133980454Y-66072305D01*
X133980452Y-66072302D01*
X133890481Y-65929115D01*
X133890476Y-65929109D01*
X133770890Y-65809523D01*
X133770884Y-65809518D01*
X133627697Y-65719547D01*
X133627694Y-65719545D01*
X133468056Y-65663685D01*
X133300003Y-65644751D01*
X133299997Y-65644751D01*
X133131941Y-65663686D01*
X133016510Y-65704076D01*
X133007668Y-65706804D01*
X132988622Y-65711910D01*
X132988619Y-65711911D01*
X132436377Y-65963353D01*
X132384994Y-65974500D01*
X130856018Y-65974500D01*
X130743981Y-65974500D01*
X130635763Y-66003497D01*
X130635761Y-66003498D01*
X130635760Y-66003498D01*
X130538740Y-66059513D01*
X130538734Y-66059517D01*
X129859517Y-66738734D01*
X129859513Y-66738740D01*
X129803498Y-66835760D01*
X129803497Y-66835763D01*
X129774500Y-66943982D01*
X129774500Y-67684994D01*
X129763353Y-67736377D01*
X129511885Y-68288675D01*
X129509640Y-68293712D01*
X129509485Y-68294067D01*
X129499337Y-68320057D01*
X129497807Y-68329091D01*
X129492591Y-68349332D01*
X129463686Y-68431941D01*
X129444751Y-68599997D01*
X109625500Y-68599997D01*
X109625500Y-65627610D01*
X109645185Y-65560571D01*
X109661819Y-65539929D01*
X111439929Y-63761819D01*
X111501252Y-63728334D01*
X111527610Y-63725500D01*
X113764145Y-63725500D01*
X113764145Y-63728036D01*
X113820625Y-63736829D01*
X113872894Y-63783195D01*
X113891798Y-63850459D01*
X113871335Y-63917265D01*
X113855488Y-63936698D01*
X113692686Y-64099500D01*
X113599502Y-64192683D01*
X113599500Y-64192686D01*
X113533608Y-64306812D01*
X113499500Y-64434108D01*
X113499500Y-65841324D01*
X113479815Y-65908363D01*
X113463185Y-65929000D01*
X113417686Y-65974500D01*
X113378165Y-66014021D01*
X113345336Y-66037547D01*
X112827051Y-66293183D01*
X112799474Y-66306785D01*
X112790531Y-66311354D01*
X112786759Y-66313281D01*
X112773755Y-66318847D01*
X112772308Y-66319544D01*
X112629111Y-66409521D01*
X112509523Y-66529109D01*
X112509518Y-66529115D01*
X112419547Y-66672302D01*
X112419545Y-66672305D01*
X112363685Y-66831943D01*
X112344751Y-66999997D01*
X112344751Y-67000002D01*
X112363685Y-67168056D01*
X112419545Y-67327694D01*
X112419547Y-67327697D01*
X112509518Y-67470884D01*
X112509523Y-67470890D01*
X112629109Y-67590476D01*
X112629115Y-67590481D01*
X112772302Y-67680452D01*
X112772305Y-67680454D01*
X112772309Y-67680455D01*
X112772310Y-67680456D01*
X112785282Y-67684995D01*
X112931943Y-67736314D01*
X113099997Y-67755249D01*
X113100000Y-67755249D01*
X113100003Y-67755249D01*
X113268056Y-67736314D01*
X113268059Y-67736313D01*
X113427690Y-67680456D01*
X113427692Y-67680454D01*
X113427694Y-67680454D01*
X113427697Y-67680452D01*
X113570884Y-67590481D01*
X113570885Y-67590480D01*
X113570890Y-67590477D01*
X113690477Y-67470890D01*
X113780456Y-67327690D01*
X113781220Y-67325503D01*
X113791982Y-67302574D01*
X113793205Y-67300535D01*
X113793214Y-67300524D01*
X114062448Y-66754663D01*
X114085971Y-66721840D01*
X114297104Y-66510708D01*
X114297109Y-66510704D01*
X114307312Y-66500500D01*
X114307314Y-66500500D01*
X114400500Y-66407314D01*
X114466392Y-66293186D01*
X114466393Y-66293183D01*
X114474296Y-66263689D01*
X114474296Y-66263688D01*
X114482802Y-66231941D01*
X114500500Y-66165893D01*
X114500500Y-66034108D01*
X114500500Y-64758676D01*
X114520185Y-64691637D01*
X114536819Y-64670995D01*
X114870995Y-64336819D01*
X114932318Y-64303334D01*
X114958676Y-64300500D01*
X126265890Y-64300500D01*
X126265892Y-64300500D01*
X126393186Y-64266392D01*
X126507314Y-64200500D01*
X127900500Y-62807314D01*
X127966392Y-62693186D01*
X128000500Y-62565892D01*
X128000500Y-62434107D01*
X128000500Y-60793882D01*
X128007078Y-60754032D01*
X128182526Y-60237060D01*
X128202680Y-60177673D01*
X128205748Y-60168199D01*
X128206863Y-60159911D01*
X128212710Y-60135511D01*
X128236313Y-60068059D01*
X128236633Y-60065226D01*
X128255249Y-59900002D01*
X128255249Y-59899997D01*
X128236314Y-59731943D01*
X128201786Y-59633269D01*
X128180456Y-59572310D01*
X128180455Y-59572309D01*
X128180454Y-59572305D01*
X128180452Y-59572302D01*
X128090481Y-59429115D01*
X128090476Y-59429109D01*
X127970890Y-59309523D01*
X127970884Y-59309518D01*
X127827697Y-59219547D01*
X127827694Y-59219545D01*
X127668056Y-59163685D01*
X127500003Y-59144751D01*
X127499997Y-59144751D01*
X127331943Y-59163685D01*
X127172305Y-59219545D01*
X127172302Y-59219547D01*
X127029115Y-59309518D01*
X127029109Y-59309523D01*
X126909523Y-59429109D01*
X126909518Y-59429115D01*
X126819547Y-59572302D01*
X126819545Y-59572305D01*
X126763685Y-59731943D01*
X126744751Y-59899997D01*
X126744751Y-59900002D01*
X126763686Y-60068058D01*
X126789600Y-60142118D01*
X126794937Y-60163087D01*
X126797318Y-60177672D01*
X126956333Y-60646219D01*
X126984063Y-60727930D01*
X126992922Y-60754032D01*
X126999500Y-60793882D01*
X126999500Y-62241324D01*
X126979815Y-62308363D01*
X126963181Y-62329005D01*
X126029005Y-63263181D01*
X125967682Y-63296666D01*
X125941324Y-63299500D01*
X114634105Y-63299500D01*
X114627776Y-63301196D01*
X114557927Y-63299529D01*
X114500066Y-63260363D01*
X114472566Y-63196133D01*
X114484157Y-63127231D01*
X114508006Y-63093741D01*
X116040485Y-61561263D01*
X116096503Y-61464237D01*
X116125500Y-61356019D01*
X116125500Y-61243982D01*
X116125500Y-58527610D01*
X116145185Y-58460571D01*
X116161819Y-58439929D01*
X116939929Y-57661819D01*
X117001252Y-57628334D01*
X117027610Y-57625500D01*
X124388043Y-57625500D01*
X124437863Y-57635948D01*
X124912318Y-57844115D01*
X124914506Y-57845066D01*
X124914701Y-57845150D01*
X124935651Y-57853275D01*
X124948434Y-57859086D01*
X124949775Y-57859790D01*
X124949776Y-57859790D01*
X124949778Y-57859791D01*
X125114944Y-57900500D01*
X125285056Y-57900500D01*
X125450225Y-57859790D01*
X125592787Y-57784967D01*
X125600849Y-57780736D01*
X125600850Y-57780734D01*
X125600852Y-57780734D01*
X125728183Y-57667929D01*
X125824818Y-57527930D01*
X125885140Y-57368872D01*
X125905645Y-57200000D01*
X125885140Y-57031128D01*
X125824818Y-56872070D01*
X125816153Y-56859517D01*
X125767412Y-56788904D01*
X125728183Y-56732071D01*
X125600852Y-56619266D01*
X125600849Y-56619263D01*
X125450226Y-56540210D01*
X125285056Y-56499500D01*
X125114944Y-56499500D01*
X124949775Y-56540209D01*
X124939962Y-56545360D01*
X124917135Y-56554101D01*
X124917175Y-56554216D01*
X124913898Y-56555341D01*
X124912811Y-56555758D01*
X124912334Y-56555878D01*
X124912312Y-56555886D01*
X124437861Y-56764051D01*
X124388041Y-56774500D01*
X116743982Y-56774500D01*
X116635763Y-56803497D01*
X116635760Y-56803498D01*
X116538740Y-56859513D01*
X116538734Y-56859517D01*
X115359517Y-58038734D01*
X115359513Y-58038740D01*
X115303498Y-58135760D01*
X115303497Y-58135763D01*
X115274500Y-58243982D01*
X115274500Y-61072390D01*
X115254815Y-61139429D01*
X115238181Y-61160071D01*
X113560071Y-62838181D01*
X113498748Y-62871666D01*
X113472390Y-62874500D01*
X111243981Y-62874500D01*
X111146950Y-62900498D01*
X111146951Y-62900499D01*
X111135764Y-62903496D01*
X111135760Y-62903498D01*
X111038740Y-62959513D01*
X111038734Y-62959517D01*
X108859517Y-65138734D01*
X108859513Y-65138740D01*
X108803498Y-65235760D01*
X108803497Y-65235763D01*
X108774500Y-65343982D01*
X108774500Y-73243982D01*
X108774500Y-73356018D01*
X108803497Y-73464237D01*
X108859515Y-73561263D01*
X108859517Y-73561265D01*
X109661071Y-74362819D01*
X109694556Y-74424142D01*
X109689572Y-74493834D01*
X109647700Y-74549767D01*
X109582236Y-74574184D01*
X109573390Y-74574500D01*
X101943982Y-74574500D01*
X101835763Y-74603497D01*
X101835760Y-74603498D01*
X101738740Y-74659513D01*
X101738734Y-74659517D01*
X99546131Y-76852119D01*
X99501916Y-76880570D01*
X98933661Y-77093256D01*
X98927823Y-77095498D01*
X98927564Y-77095600D01*
X98902493Y-77106612D01*
X98901257Y-77107314D01*
X98881071Y-77116478D01*
X98872309Y-77119544D01*
X98729109Y-77209523D01*
X98609523Y-77329109D01*
X98609518Y-77329115D01*
X98519547Y-77472302D01*
X98519545Y-77472305D01*
X98463685Y-77631943D01*
X98444751Y-77799997D01*
X98444751Y-77800002D01*
X98463685Y-77968056D01*
X98519545Y-78127694D01*
X98519547Y-78127697D01*
X98609518Y-78270884D01*
X98609523Y-78270890D01*
X98729109Y-78390476D01*
X98729115Y-78390481D01*
X98872302Y-78480452D01*
X98872305Y-78480454D01*
X98872309Y-78480455D01*
X98872310Y-78480456D01*
X98924586Y-78498748D01*
X99031943Y-78536314D01*
X99199997Y-78555249D01*
X99200000Y-78555249D01*
X99200003Y-78555249D01*
X99368056Y-78536314D01*
X99368059Y-78536313D01*
X99527690Y-78480456D01*
X99527692Y-78480454D01*
X99527694Y-78480454D01*
X99527697Y-78480452D01*
X99670884Y-78390481D01*
X99670885Y-78390480D01*
X99670890Y-78390477D01*
X99790477Y-78270890D01*
X99880456Y-78127690D01*
X99890658Y-78098532D01*
X99900307Y-78077497D01*
X99906731Y-78066369D01*
X100119428Y-77498079D01*
X100147876Y-77453870D01*
X102139929Y-75461819D01*
X102201252Y-75428334D01*
X102227610Y-75425500D01*
X110843982Y-75425500D01*
X113472390Y-75425500D01*
X113539429Y-75445185D01*
X113560071Y-75461819D01*
X114138181Y-76039928D01*
X114171666Y-76101251D01*
X114174500Y-76127609D01*
X114174500Y-78643982D01*
X114174500Y-78756018D01*
X114202233Y-78859517D01*
X114203497Y-78864236D01*
X114203498Y-78864239D01*
X114210027Y-78875547D01*
X114259515Y-78961263D01*
X114259517Y-78961265D01*
X114752120Y-79453868D01*
X114780570Y-79498082D01*
X114806079Y-79566235D01*
X114806079Y-79566236D01*
X114831700Y-79634691D01*
X114993263Y-80066358D01*
X114995376Y-80071864D01*
X114995503Y-80072187D01*
X115006614Y-80097509D01*
X115007317Y-80098749D01*
X115016478Y-80118931D01*
X115019541Y-80127685D01*
X115019547Y-80127697D01*
X115109518Y-80270884D01*
X115109523Y-80270890D01*
X115229109Y-80390476D01*
X115229115Y-80390481D01*
X115372302Y-80480452D01*
X115372305Y-80480454D01*
X115372309Y-80480455D01*
X115372310Y-80480456D01*
X115433554Y-80501886D01*
X115531943Y-80536314D01*
X115699997Y-80555249D01*
X115700000Y-80555249D01*
X115700003Y-80555249D01*
X115868056Y-80536314D01*
X115868059Y-80536313D01*
X116027690Y-80480456D01*
X116027692Y-80480454D01*
X116027694Y-80480454D01*
X116027697Y-80480452D01*
X116170884Y-80390481D01*
X116170885Y-80390480D01*
X116170890Y-80390477D01*
X116262819Y-80298548D01*
X116324142Y-80265063D01*
X116393834Y-80270047D01*
X116449767Y-80311919D01*
X116474184Y-80377383D01*
X116474500Y-80386229D01*
X116474500Y-82472390D01*
X116454815Y-82539429D01*
X116438181Y-82560071D01*
X114875071Y-84123181D01*
X114813748Y-84156666D01*
X114787390Y-84159500D01*
X93458982Y-84159500D01*
X93350763Y-84188497D01*
X93350760Y-84188498D01*
X93253740Y-84244513D01*
X93253734Y-84244517D01*
X91659517Y-85838734D01*
X91659513Y-85838740D01*
X91603498Y-85935760D01*
X91603497Y-85935763D01*
X91574500Y-86043982D01*
X91574500Y-90576155D01*
X91559012Y-90636163D01*
X91072035Y-91516739D01*
X90951487Y-91734720D01*
X90941932Y-91749433D01*
X90929943Y-91765308D01*
X90929936Y-91765320D01*
X90889288Y-91846950D01*
X90886804Y-91851680D01*
X90864927Y-91891242D01*
X90855775Y-91908947D01*
X90855210Y-91910117D01*
X90855204Y-91910132D01*
X90844396Y-91936396D01*
X90840728Y-91944476D01*
X90830771Y-91964472D01*
X90830767Y-91964481D01*
X90804265Y-92057627D01*
X90766986Y-92116720D01*
X90703676Y-92146277D01*
X90634436Y-92136915D01*
X90581250Y-92091605D01*
X90565736Y-92057635D01*
X90539229Y-91964472D01*
X90535937Y-91957860D01*
X90440061Y-91765316D01*
X90440056Y-91765308D01*
X90305979Y-91587761D01*
X90141562Y-91437876D01*
X90141560Y-91437874D01*
X89952404Y-91320754D01*
X89952398Y-91320752D01*
X89934711Y-91313900D01*
X89744940Y-91240382D01*
X89526243Y-91199500D01*
X89303757Y-91199500D01*
X89085060Y-91240382D01*
X88966499Y-91286313D01*
X88877601Y-91320752D01*
X88877595Y-91320754D01*
X88688439Y-91437874D01*
X88688437Y-91437876D01*
X88524020Y-91587761D01*
X88389943Y-91765308D01*
X88389938Y-91765316D01*
X88290775Y-91964461D01*
X88290769Y-91964476D01*
X88229885Y-92178462D01*
X88229884Y-92178464D01*
X88209357Y-92399999D01*
X88209357Y-92400000D01*
X88229884Y-92621535D01*
X88229885Y-92621537D01*
X88290769Y-92835523D01*
X88290775Y-92835538D01*
X88389938Y-93034683D01*
X88389943Y-93034691D01*
X88524020Y-93212238D01*
X88688437Y-93362123D01*
X88688439Y-93362125D01*
X88882473Y-93482265D01*
X88881836Y-93483292D01*
X88928563Y-93526607D01*
X88945989Y-93594269D01*
X88924069Y-93660611D01*
X88874464Y-93702495D01*
X88737422Y-93766399D01*
X88737420Y-93766400D01*
X88543926Y-93901886D01*
X88543920Y-93901891D01*
X88376891Y-94068920D01*
X88376886Y-94068926D01*
X88241400Y-94262420D01*
X88241399Y-94262422D01*
X88141570Y-94476507D01*
X88141567Y-94476513D01*
X88084364Y-94689999D01*
X77460374Y-94689999D01*
X77384755Y-94493005D01*
X77208689Y-94147456D01*
X76997468Y-93822206D01*
X76788904Y-93564649D01*
X76788903Y-93564648D01*
X75294251Y-95059300D01*
X75220412Y-94957670D01*
X75042330Y-94779588D01*
X74940698Y-94705748D01*
X76435350Y-93211096D01*
X76435350Y-93211095D01*
X76177793Y-93002531D01*
X75852543Y-92791310D01*
X75506994Y-92615244D01*
X75144936Y-92476262D01*
X74770330Y-92375887D01*
X74770323Y-92375886D01*
X74387287Y-92315219D01*
X74000001Y-92294922D01*
X73999999Y-92294922D01*
X73612712Y-92315219D01*
X73229676Y-92375886D01*
X73229669Y-92375887D01*
X72855063Y-92476262D01*
X72493005Y-92615244D01*
X72147456Y-92791310D01*
X71822206Y-93002531D01*
X71564648Y-93211095D01*
X71564648Y-93211096D01*
X73059301Y-94705748D01*
X72957670Y-94779588D01*
X72779588Y-94957670D01*
X72705748Y-95059300D01*
X71211096Y-93564648D01*
X71211095Y-93564648D01*
X71002531Y-93822206D01*
X70791310Y-94147456D01*
X70615244Y-94493005D01*
X70540264Y-94688335D01*
X70497862Y-94743867D01*
X70432168Y-94767660D01*
X70364039Y-94752158D01*
X70315107Y-94702285D01*
X70300500Y-94643897D01*
X70300500Y-81100000D01*
X86694355Y-81100000D01*
X86714859Y-81268869D01*
X86714860Y-81268874D01*
X86775182Y-81427931D01*
X86800859Y-81465130D01*
X86871817Y-81567929D01*
X86977505Y-81661560D01*
X86999150Y-81680736D01*
X87127298Y-81747993D01*
X87149775Y-81759790D01*
X87314944Y-81800500D01*
X87485056Y-81800500D01*
X87650225Y-81759790D01*
X87729692Y-81718081D01*
X87800849Y-81680736D01*
X87800850Y-81680734D01*
X87800852Y-81680734D01*
X87928183Y-81567929D01*
X88024818Y-81427930D01*
X88085140Y-81268872D01*
X88105645Y-81100000D01*
X88085140Y-80931128D01*
X88064771Y-80877420D01*
X88024817Y-80772068D01*
X87953618Y-80668920D01*
X87928183Y-80632071D01*
X87800852Y-80519266D01*
X87800849Y-80519263D01*
X87650226Y-80440210D01*
X87485056Y-80399500D01*
X87314944Y-80399500D01*
X87149773Y-80440210D01*
X86999150Y-80519263D01*
X86958531Y-80555249D01*
X86872882Y-80631128D01*
X86871816Y-80632072D01*
X86775182Y-80772068D01*
X86714860Y-80931125D01*
X86714859Y-80931130D01*
X86694355Y-81100000D01*
X70300500Y-81100000D01*
X70300500Y-58449999D01*
X81819464Y-58449999D01*
X81819464Y-58450000D01*
X81839564Y-58666918D01*
X81839564Y-58666920D01*
X81839565Y-58666923D01*
X81899183Y-58876459D01*
X81899184Y-58876462D01*
X81996287Y-59071470D01*
X81996288Y-59071472D01*
X82127573Y-59245322D01*
X82288568Y-59392088D01*
X82288575Y-59392092D01*
X82288576Y-59392093D01*
X82473786Y-59506770D01*
X82473792Y-59506773D01*
X82496664Y-59515633D01*
X82676931Y-59585470D01*
X82891074Y-59625500D01*
X82891076Y-59625500D01*
X83108924Y-59625500D01*
X83108926Y-59625500D01*
X83323069Y-59585470D01*
X83526210Y-59506772D01*
X83711432Y-59392088D01*
X83872427Y-59245322D01*
X84003712Y-59071472D01*
X84056418Y-58965623D01*
X84103920Y-58914387D01*
X84171583Y-58896965D01*
X84237924Y-58918890D01*
X84279800Y-58968490D01*
X84348133Y-59115030D01*
X84403023Y-59193422D01*
X84976212Y-58620233D01*
X84987482Y-58662292D01*
X85059890Y-58787708D01*
X85162292Y-58890110D01*
X85287708Y-58962518D01*
X85329765Y-58973787D01*
X84756576Y-59546975D01*
X84834969Y-59601867D01*
X85045090Y-59699847D01*
X85045099Y-59699851D01*
X85269031Y-59759852D01*
X85269041Y-59759854D01*
X85499999Y-59780061D01*
X85500001Y-59780061D01*
X85730958Y-59759854D01*
X85730968Y-59759852D01*
X85954900Y-59699851D01*
X85954909Y-59699847D01*
X86165030Y-59601867D01*
X86165034Y-59601865D01*
X86243422Y-59546976D01*
X86243422Y-59546975D01*
X85670235Y-58973787D01*
X85712292Y-58962518D01*
X85837708Y-58890110D01*
X85940110Y-58787708D01*
X86012518Y-58662292D01*
X86023787Y-58620234D01*
X86596975Y-59193421D01*
X86598925Y-59190638D01*
X86653502Y-59147013D01*
X86723001Y-59139821D01*
X86785356Y-59171343D01*
X86820769Y-59231573D01*
X86824500Y-59261762D01*
X86824500Y-59308260D01*
X86834426Y-59376391D01*
X86885803Y-59481485D01*
X86968514Y-59564196D01*
X86968515Y-59564196D01*
X86968517Y-59564198D01*
X87073607Y-59615573D01*
X87107673Y-59620536D01*
X87141739Y-59625500D01*
X87141740Y-59625500D01*
X88858261Y-59625500D01*
X88880971Y-59622191D01*
X88926393Y-59615573D01*
X89031483Y-59564198D01*
X89114198Y-59481483D01*
X89165573Y-59376393D01*
X89175500Y-59308260D01*
X89175500Y-57591740D01*
X89165573Y-57523607D01*
X89114198Y-57418517D01*
X89114196Y-57418515D01*
X89114196Y-57418514D01*
X89031485Y-57335803D01*
X88926391Y-57284426D01*
X88858261Y-57274500D01*
X88858260Y-57274500D01*
X87141740Y-57274500D01*
X87141739Y-57274500D01*
X87073608Y-57284426D01*
X86968514Y-57335803D01*
X86885803Y-57418514D01*
X86834426Y-57523608D01*
X86824500Y-57591739D01*
X86824500Y-57638237D01*
X86804815Y-57705276D01*
X86752011Y-57751031D01*
X86682853Y-57760975D01*
X86619297Y-57731950D01*
X86598925Y-57709360D01*
X86596976Y-57706577D01*
X86596975Y-57706576D01*
X86023787Y-58279764D01*
X86012518Y-58237708D01*
X85940110Y-58112292D01*
X85837708Y-58009890D01*
X85712292Y-57937482D01*
X85670234Y-57926212D01*
X86243422Y-57353023D01*
X86165030Y-57298133D01*
X85954909Y-57200152D01*
X85954900Y-57200148D01*
X85730968Y-57140147D01*
X85730958Y-57140145D01*
X85500001Y-57119939D01*
X85499999Y-57119939D01*
X85269041Y-57140145D01*
X85269031Y-57140147D01*
X85045099Y-57200148D01*
X85045090Y-57200152D01*
X84834967Y-57298134D01*
X84756576Y-57353022D01*
X85329766Y-57926212D01*
X85287708Y-57937482D01*
X85162292Y-58009890D01*
X85059890Y-58112292D01*
X84987482Y-58237708D01*
X84976212Y-58279766D01*
X84403022Y-57706576D01*
X84348134Y-57784967D01*
X84281090Y-57928742D01*
X84234917Y-57981181D01*
X84167723Y-58000333D01*
X84100842Y-57980117D01*
X84058470Y-57933113D01*
X84041673Y-57900500D01*
X83457462Y-56766181D01*
X83444267Y-56697571D01*
X83470261Y-56632717D01*
X83480012Y-56621734D01*
X84339928Y-55761819D01*
X84401251Y-55728334D01*
X84427609Y-55725500D01*
X91772390Y-55725500D01*
X91839429Y-55745185D01*
X91860071Y-55761819D01*
X93438181Y-57339929D01*
X93471666Y-57401252D01*
X93474500Y-57427610D01*
X93474500Y-78543982D01*
X93474500Y-78656018D01*
X93501295Y-78756017D01*
X93503497Y-78764236D01*
X93503498Y-78764239D01*
X93509422Y-78774500D01*
X93559515Y-78861263D01*
X94238737Y-79540485D01*
X94335763Y-79596503D01*
X94443981Y-79625500D01*
X94443982Y-79625500D01*
X97672390Y-79625500D01*
X97739429Y-79645185D01*
X97760071Y-79661819D01*
X98338181Y-80239928D01*
X98371666Y-80301251D01*
X98374500Y-80327609D01*
X98374500Y-81684994D01*
X98363353Y-81736377D01*
X98111885Y-82288675D01*
X98109640Y-82293712D01*
X98109485Y-82294067D01*
X98099337Y-82320057D01*
X98097807Y-82329091D01*
X98092591Y-82349332D01*
X98063686Y-82431941D01*
X98044751Y-82599997D01*
X98044751Y-82600002D01*
X98063685Y-82768056D01*
X98119545Y-82927694D01*
X98119547Y-82927697D01*
X98209518Y-83070884D01*
X98209523Y-83070890D01*
X98329109Y-83190476D01*
X98329115Y-83190481D01*
X98472302Y-83280452D01*
X98472305Y-83280454D01*
X98472309Y-83280455D01*
X98472310Y-83280456D01*
X98518164Y-83296501D01*
X98631943Y-83336314D01*
X98799997Y-83355249D01*
X98800000Y-83355249D01*
X98800003Y-83355249D01*
X98968056Y-83336314D01*
X98968059Y-83336313D01*
X99127690Y-83280456D01*
X99127692Y-83280454D01*
X99127694Y-83280454D01*
X99127697Y-83280452D01*
X99270884Y-83190481D01*
X99270885Y-83190480D01*
X99270890Y-83190477D01*
X99390477Y-83070890D01*
X99459361Y-82961263D01*
X99480452Y-82927697D01*
X99480454Y-82927694D01*
X99480454Y-82927692D01*
X99480456Y-82927690D01*
X99536313Y-82768059D01*
X99536313Y-82768058D01*
X99536314Y-82768056D01*
X99555249Y-82600002D01*
X99555249Y-82599997D01*
X99555249Y-82599996D01*
X104894435Y-82599996D01*
X104894435Y-82600003D01*
X104914630Y-82779249D01*
X104914631Y-82779254D01*
X104974211Y-82949523D01*
X104981588Y-82961263D01*
X105070184Y-83102262D01*
X105197738Y-83229816D01*
X105350478Y-83325789D01*
X105380557Y-83336314D01*
X105520745Y-83385368D01*
X105520750Y-83385369D01*
X105699996Y-83405565D01*
X105700000Y-83405565D01*
X105700004Y-83405565D01*
X105879249Y-83385369D01*
X105879252Y-83385368D01*
X105879255Y-83385368D01*
X106049522Y-83325789D01*
X106202262Y-83229816D01*
X106329816Y-83102262D01*
X106425789Y-82949522D01*
X106485368Y-82779255D01*
X106485369Y-82779249D01*
X106505565Y-82600003D01*
X106505565Y-82599996D01*
X106485369Y-82420750D01*
X106485368Y-82420745D01*
X106481987Y-82411082D01*
X106425789Y-82250478D01*
X106329816Y-82097738D01*
X106202262Y-81970184D01*
X106188058Y-81961259D01*
X106049523Y-81874211D01*
X105879254Y-81814631D01*
X105879249Y-81814630D01*
X105700004Y-81794435D01*
X105699996Y-81794435D01*
X105520750Y-81814630D01*
X105520745Y-81814631D01*
X105350476Y-81874211D01*
X105197737Y-81970184D01*
X105070184Y-82097737D01*
X104974211Y-82250476D01*
X104914631Y-82420745D01*
X104914630Y-82420750D01*
X104894435Y-82599996D01*
X99555249Y-82599996D01*
X99536314Y-82431946D01*
X99536313Y-82431944D01*
X99536313Y-82431941D01*
X99503941Y-82339427D01*
X99495915Y-82316489D01*
X99493186Y-82307643D01*
X99488086Y-82288618D01*
X99236647Y-81736378D01*
X99225500Y-81684995D01*
X99225500Y-80043984D01*
X99225500Y-80043982D01*
X99196503Y-79935763D01*
X99140485Y-79838737D01*
X99061263Y-79759515D01*
X99061262Y-79759514D01*
X99056932Y-79755184D01*
X99056921Y-79755174D01*
X98609231Y-79307484D01*
X98161263Y-78859515D01*
X98064237Y-78803497D01*
X97956018Y-78774500D01*
X97956017Y-78774500D01*
X94727610Y-78774500D01*
X94660571Y-78754815D01*
X94639929Y-78738181D01*
X94361819Y-78460071D01*
X94328334Y-78398748D01*
X94325500Y-78372390D01*
X94325500Y-64300000D01*
X99294355Y-64300000D01*
X99314859Y-64468869D01*
X99314860Y-64468874D01*
X99375182Y-64627931D01*
X99409138Y-64677124D01*
X99471817Y-64767929D01*
X99554983Y-64841607D01*
X99599150Y-64880736D01*
X99749773Y-64959789D01*
X99749775Y-64959790D01*
X99914944Y-65000500D01*
X100085056Y-65000500D01*
X100250225Y-64959790D01*
X100356277Y-64904129D01*
X100400849Y-64880736D01*
X100400850Y-64880734D01*
X100400852Y-64880734D01*
X100528183Y-64767929D01*
X100624818Y-64627930D01*
X100685140Y-64468872D01*
X100705645Y-64300000D01*
X100700762Y-64259796D01*
X100699893Y-64241949D01*
X100700024Y-64236408D01*
X100686198Y-64139632D01*
X100685867Y-64137124D01*
X100685140Y-64131128D01*
X100685139Y-64131126D01*
X100684744Y-64127867D01*
X100683889Y-64123468D01*
X100635279Y-63783195D01*
X100603362Y-63559770D01*
X100603361Y-63559767D01*
X100602656Y-63554831D01*
X100602902Y-63554795D01*
X100600500Y-63533269D01*
X100600500Y-59400097D01*
X100620185Y-59333058D01*
X100636819Y-59312416D01*
X105112416Y-54836819D01*
X105173739Y-54803334D01*
X105200097Y-54800500D01*
X108599903Y-54800500D01*
X108666942Y-54820185D01*
X108687584Y-54836819D01*
X110463181Y-56612416D01*
X110496666Y-56673739D01*
X110499500Y-56700097D01*
X110499500Y-59633258D01*
X110497087Y-59654652D01*
X110497364Y-59654692D01*
X110496639Y-59659765D01*
X110496638Y-59659769D01*
X110451769Y-59973846D01*
X110416099Y-60223532D01*
X110415251Y-60227905D01*
X110414139Y-60237060D01*
X110413798Y-60239640D01*
X110399974Y-60336405D01*
X110397338Y-60360897D01*
X110397221Y-60362511D01*
X110397169Y-60370139D01*
X110396269Y-60384234D01*
X110394355Y-60400000D01*
X110414859Y-60568869D01*
X110414860Y-60568874D01*
X110475182Y-60727931D01*
X110520706Y-60793882D01*
X110571817Y-60867929D01*
X110677505Y-60961560D01*
X110699150Y-60980736D01*
X110849773Y-61059789D01*
X110849775Y-61059790D01*
X111014944Y-61100500D01*
X111185056Y-61100500D01*
X111350225Y-61059790D01*
X111429692Y-61018081D01*
X111500849Y-60980736D01*
X111500850Y-60980734D01*
X111500852Y-60980734D01*
X111628183Y-60867929D01*
X111724818Y-60727930D01*
X111785140Y-60568872D01*
X111805645Y-60400000D01*
X111800762Y-60359796D01*
X111799893Y-60341949D01*
X111800024Y-60336408D01*
X111786198Y-60239632D01*
X111785867Y-60237124D01*
X111785140Y-60231128D01*
X111785139Y-60231126D01*
X111784744Y-60227867D01*
X111783889Y-60223468D01*
X111765842Y-60097136D01*
X111703362Y-59659770D01*
X111703361Y-59659767D01*
X111702656Y-59654831D01*
X111702902Y-59654795D01*
X111700500Y-59633269D01*
X111700500Y-56489059D01*
X111700501Y-56489046D01*
X111700501Y-56320945D01*
X111700501Y-56320943D01*
X111659577Y-56168215D01*
X111622212Y-56103497D01*
X111622212Y-56103496D01*
X111580524Y-56031290D01*
X111580521Y-56031286D01*
X111580520Y-56031284D01*
X111468716Y-55919480D01*
X111468715Y-55919479D01*
X111464385Y-55915149D01*
X111464374Y-55915139D01*
X110561416Y-55012181D01*
X110527931Y-54950858D01*
X110532915Y-54881166D01*
X110574787Y-54825233D01*
X110640251Y-54800816D01*
X110649097Y-54800500D01*
X112733260Y-54800500D01*
X112754653Y-54802912D01*
X112754693Y-54802636D01*
X112759765Y-54803360D01*
X112759770Y-54803362D01*
X113374641Y-54891200D01*
X113386770Y-54893556D01*
X113414939Y-54900499D01*
X113414943Y-54900500D01*
X113414944Y-54900500D01*
X113434175Y-54900500D01*
X113447450Y-54901212D01*
X113460889Y-54902660D01*
X113462511Y-54902778D01*
X113509326Y-54903093D01*
X113509331Y-54903091D01*
X113516465Y-54902313D01*
X113516490Y-54902548D01*
X113534660Y-54900500D01*
X113585056Y-54900500D01*
X113750225Y-54859790D01*
X113900852Y-54780734D01*
X114004526Y-54688886D01*
X114028181Y-54667931D01*
X114028181Y-54667930D01*
X114028183Y-54667929D01*
X114045931Y-54642215D01*
X114048714Y-54638348D01*
X114152475Y-54500000D01*
X135694355Y-54500000D01*
X135714859Y-54668869D01*
X135714860Y-54668874D01*
X135775182Y-54827931D01*
X135826846Y-54902778D01*
X135871817Y-54967929D01*
X135955799Y-55042330D01*
X135999150Y-55080736D01*
X136121473Y-55144936D01*
X136149775Y-55159790D01*
X136314944Y-55200500D01*
X136485056Y-55200500D01*
X136650225Y-55159790D01*
X136729692Y-55118081D01*
X136800849Y-55080736D01*
X136800850Y-55080734D01*
X136800852Y-55080734D01*
X136928183Y-54967929D01*
X137024818Y-54827930D01*
X137085140Y-54668872D01*
X137105645Y-54500000D01*
X137085140Y-54331128D01*
X137024818Y-54172070D01*
X136994184Y-54127690D01*
X136962959Y-54082453D01*
X136928183Y-54032071D01*
X136800852Y-53919266D01*
X136800849Y-53919263D01*
X136650226Y-53840210D01*
X136485056Y-53799500D01*
X136314944Y-53799500D01*
X136149773Y-53840210D01*
X135999150Y-53919263D01*
X135871816Y-54032072D01*
X135775182Y-54172068D01*
X135714860Y-54331125D01*
X135714859Y-54331130D01*
X135694355Y-54500000D01*
X114152475Y-54500000D01*
X114431704Y-54127697D01*
X114453057Y-54099227D01*
X114453257Y-54099377D01*
X114466776Y-54082457D01*
X115658506Y-52890728D01*
X115658511Y-52890724D01*
X115668714Y-52880520D01*
X115668716Y-52880520D01*
X115780520Y-52768716D01*
X115859577Y-52631784D01*
X115896714Y-52493186D01*
X115900500Y-52479058D01*
X115900500Y-52320943D01*
X115900500Y-47100097D01*
X115920185Y-47033058D01*
X115936819Y-47012416D01*
X116149238Y-46799997D01*
X140244751Y-46799997D01*
X140244751Y-46800002D01*
X140263685Y-46968056D01*
X140319545Y-47127694D01*
X140319547Y-47127697D01*
X140409518Y-47270884D01*
X140409523Y-47270890D01*
X140529109Y-47390476D01*
X140529115Y-47390481D01*
X140672302Y-47480452D01*
X140672305Y-47480454D01*
X140672309Y-47480455D01*
X140672310Y-47480456D01*
X140726735Y-47499500D01*
X140831943Y-47536314D01*
X140962526Y-47551027D01*
X141026939Y-47578093D01*
X141066495Y-47635688D01*
X141068632Y-47705525D01*
X141036323Y-47761928D01*
X140838737Y-47959515D01*
X140759517Y-48038734D01*
X140759513Y-48038740D01*
X140703499Y-48135759D01*
X140703495Y-48135768D01*
X140698052Y-48156080D01*
X140691132Y-48175363D01*
X140411889Y-48788667D01*
X140409633Y-48793728D01*
X140409485Y-48794067D01*
X140399337Y-48820057D01*
X140397807Y-48829091D01*
X140392591Y-48849332D01*
X140363686Y-48931941D01*
X140344751Y-49099997D01*
X140344751Y-49100002D01*
X140363685Y-49268056D01*
X140419545Y-49427694D01*
X140419547Y-49427697D01*
X140509518Y-49570884D01*
X140509523Y-49570890D01*
X140629109Y-49690476D01*
X140629115Y-49690481D01*
X140772302Y-49780452D01*
X140772305Y-49780454D01*
X140772309Y-49780455D01*
X140772310Y-49780456D01*
X140828367Y-49800071D01*
X140931943Y-49836314D01*
X141099997Y-49855249D01*
X141100000Y-49855249D01*
X141100003Y-49855249D01*
X141268056Y-49836314D01*
X141278430Y-49832684D01*
X141427690Y-49780456D01*
X141427692Y-49780454D01*
X141427694Y-49780454D01*
X141427697Y-49780452D01*
X141570884Y-49690481D01*
X141570885Y-49690480D01*
X141570890Y-49690477D01*
X141690477Y-49570890D01*
X141703136Y-49550744D01*
X141780452Y-49427697D01*
X141780454Y-49427694D01*
X141780454Y-49427692D01*
X141780456Y-49427690D01*
X141836313Y-49268059D01*
X141836313Y-49268058D01*
X141836314Y-49268056D01*
X141855249Y-49100002D01*
X141855249Y-49099997D01*
X141836314Y-48931946D01*
X141836313Y-48931944D01*
X141836313Y-48931941D01*
X141803941Y-48839427D01*
X141795915Y-48816489D01*
X141793186Y-48807643D01*
X141788086Y-48788618D01*
X141643837Y-48471801D01*
X141633972Y-48402631D01*
X141663070Y-48339108D01*
X141668994Y-48332752D01*
X142325586Y-47676161D01*
X142386907Y-47642678D01*
X142456599Y-47647662D01*
X142465843Y-47651543D01*
X142693479Y-47758120D01*
X142745847Y-47804373D01*
X142764895Y-47871596D01*
X142745895Y-47936393D01*
X142674211Y-48050476D01*
X142614631Y-48220745D01*
X142614630Y-48220750D01*
X142594435Y-48399996D01*
X142594435Y-48400003D01*
X142614630Y-48579246D01*
X142614631Y-48579252D01*
X142639848Y-48651318D01*
X142645812Y-48676605D01*
X142646833Y-48684629D01*
X142646835Y-48684636D01*
X142678101Y-48788667D01*
X142844200Y-49341324D01*
X142844253Y-49341498D01*
X142849500Y-49377189D01*
X142849500Y-49550744D01*
X142836150Y-49606713D01*
X142555291Y-50161972D01*
X142555290Y-50161973D01*
X142530583Y-50225165D01*
X142528293Y-50233219D01*
X142527981Y-50233130D01*
X142523285Y-50248127D01*
X142514956Y-50268235D01*
X142499500Y-50385631D01*
X142499500Y-51414363D01*
X142514954Y-51531754D01*
X142514955Y-51531757D01*
X142514956Y-51531762D01*
X142533956Y-51577633D01*
X142539827Y-51595562D01*
X142545218Y-51617566D01*
X142781121Y-52166941D01*
X142789440Y-52186315D01*
X142799500Y-52235241D01*
X142799500Y-52906115D01*
X142792922Y-52945965D01*
X142597332Y-53522287D01*
X142594250Y-53531805D01*
X142593135Y-53540089D01*
X142587286Y-53564495D01*
X142563686Y-53631941D01*
X142544751Y-53799997D01*
X142544751Y-53800002D01*
X142563685Y-53968056D01*
X142619545Y-54127694D01*
X142619547Y-54127697D01*
X142709518Y-54270884D01*
X142709523Y-54270890D01*
X142829109Y-54390476D01*
X142829115Y-54390481D01*
X142972302Y-54480452D01*
X142972305Y-54480454D01*
X142972309Y-54480455D01*
X142972310Y-54480456D01*
X143028164Y-54500000D01*
X143131943Y-54536314D01*
X143299997Y-54555249D01*
X143300000Y-54555249D01*
X143300003Y-54555249D01*
X143468056Y-54536314D01*
X143468059Y-54536313D01*
X143627690Y-54480456D01*
X143627692Y-54480454D01*
X143627694Y-54480454D01*
X143627697Y-54480452D01*
X143770884Y-54390481D01*
X143770885Y-54390480D01*
X143770890Y-54390477D01*
X143890477Y-54270890D01*
X143952570Y-54172070D01*
X143980452Y-54127697D01*
X143980454Y-54127694D01*
X143980454Y-54127692D01*
X143980456Y-54127690D01*
X144036313Y-53968059D01*
X144036313Y-53968058D01*
X144036314Y-53968056D01*
X144055249Y-53800002D01*
X144055249Y-53799997D01*
X144036314Y-53631948D01*
X144036313Y-53631947D01*
X144036313Y-53631941D01*
X144010395Y-53557875D01*
X144005060Y-53536904D01*
X144002680Y-53522325D01*
X144002680Y-53522324D01*
X143807078Y-52945966D01*
X143800500Y-52906116D01*
X143800500Y-52262861D01*
X143817302Y-52200535D01*
X144106622Y-51702917D01*
X144157335Y-51654856D01*
X144225982Y-51641842D01*
X144290768Y-51668007D01*
X144319359Y-51700147D01*
X144407684Y-51843345D01*
X144531654Y-51967315D01*
X144680875Y-52059356D01*
X144680880Y-52059358D01*
X144847302Y-52114505D01*
X144847309Y-52114506D01*
X144950019Y-52124999D01*
X145500000Y-52124999D01*
X145549972Y-52124999D01*
X145549986Y-52124998D01*
X145652697Y-52114505D01*
X145819119Y-52059358D01*
X145819124Y-52059356D01*
X145968345Y-51967315D01*
X146092315Y-51843345D01*
X146184356Y-51694124D01*
X146184358Y-51694119D01*
X146239505Y-51527697D01*
X146239506Y-51527690D01*
X146249999Y-51424986D01*
X146250000Y-51424973D01*
X146250000Y-51150000D01*
X145500000Y-51150000D01*
X145500000Y-52124999D01*
X144950019Y-52124999D01*
X144999999Y-52124998D01*
X145000000Y-52124998D01*
X145000000Y-50650000D01*
X145500000Y-50650000D01*
X146249999Y-50650000D01*
X146249999Y-50375028D01*
X146249998Y-50375013D01*
X146239505Y-50272302D01*
X146184358Y-50105880D01*
X146184356Y-50105875D01*
X146092315Y-49956654D01*
X145968345Y-49832684D01*
X145819124Y-49740643D01*
X145819119Y-49740641D01*
X145652697Y-49685494D01*
X145652690Y-49685493D01*
X145549986Y-49675000D01*
X145500000Y-49675000D01*
X145500000Y-50650000D01*
X145000000Y-50650000D01*
X145000000Y-49675000D01*
X144999999Y-49674999D01*
X144950029Y-49675000D01*
X144950011Y-49675001D01*
X144847302Y-49685494D01*
X144680880Y-49740641D01*
X144680875Y-49740643D01*
X144531654Y-49832684D01*
X144407683Y-49956655D01*
X144407680Y-49956659D01*
X144322380Y-50094952D01*
X144270432Y-50141677D01*
X144201470Y-50152898D01*
X144137388Y-50125055D01*
X144106192Y-50085824D01*
X143863850Y-49606712D01*
X143850500Y-49550743D01*
X143850500Y-49402213D01*
X143860995Y-49352288D01*
X143880334Y-49308321D01*
X144136353Y-48726263D01*
X144137937Y-48722607D01*
X144138027Y-48722396D01*
X144147023Y-48699063D01*
X144148615Y-48689641D01*
X144153837Y-48669365D01*
X144160152Y-48651318D01*
X144185368Y-48579255D01*
X144203135Y-48421568D01*
X144230201Y-48357155D01*
X144238674Y-48347771D01*
X144767912Y-47818532D01*
X144862829Y-47949175D01*
X144990825Y-48077171D01*
X145121465Y-48172086D01*
X144549155Y-48744396D01*
X144683061Y-48844637D01*
X144683061Y-48844638D01*
X144927865Y-48978310D01*
X145189225Y-49075792D01*
X145461769Y-49135080D01*
X145461776Y-49135081D01*
X145739999Y-49154981D01*
X145740001Y-49154981D01*
X146018223Y-49135081D01*
X146018230Y-49135080D01*
X146290774Y-49075792D01*
X146552134Y-48978310D01*
X146796942Y-48844635D01*
X146930842Y-48744396D01*
X146930843Y-48744396D01*
X146358534Y-48172086D01*
X146489175Y-48077171D01*
X146617171Y-47949175D01*
X146712086Y-47818533D01*
X147284396Y-48390843D01*
X147284396Y-48390842D01*
X147384635Y-48256942D01*
X147518310Y-48012134D01*
X147615792Y-47750774D01*
X147675080Y-47478230D01*
X147675081Y-47478223D01*
X147694981Y-47200001D01*
X147694981Y-47199998D01*
X147675081Y-46921776D01*
X147675080Y-46921769D01*
X147615792Y-46649225D01*
X147518310Y-46387865D01*
X147384638Y-46143061D01*
X147284396Y-46009155D01*
X146712086Y-46581465D01*
X146617171Y-46450825D01*
X146489175Y-46322829D01*
X146358533Y-46227912D01*
X146930843Y-45655602D01*
X146796938Y-45555362D01*
X146796938Y-45555361D01*
X146552134Y-45421689D01*
X146290774Y-45324207D01*
X146018230Y-45264919D01*
X146018223Y-45264918D01*
X145740001Y-45245019D01*
X145739999Y-45245019D01*
X145461776Y-45264918D01*
X145461769Y-45264919D01*
X145189225Y-45324207D01*
X144927865Y-45421689D01*
X144683061Y-45555361D01*
X144683054Y-45555366D01*
X144549156Y-45655601D01*
X144549155Y-45655602D01*
X145121466Y-46227913D01*
X144990825Y-46322829D01*
X144862829Y-46450825D01*
X144767913Y-46581466D01*
X144238673Y-46052227D01*
X144205188Y-45990904D01*
X144203135Y-45978439D01*
X144185369Y-45820750D01*
X144185369Y-45820749D01*
X144185368Y-45820745D01*
X144175744Y-45793240D01*
X144125789Y-45650478D01*
X144096269Y-45603498D01*
X144066026Y-45555366D01*
X144029816Y-45497738D01*
X143902262Y-45370184D01*
X143749523Y-45274211D01*
X143579254Y-45214631D01*
X143579249Y-45214630D01*
X143400004Y-45194435D01*
X143399996Y-45194435D01*
X143220747Y-45214631D01*
X143088343Y-45260960D01*
X143080775Y-45263339D01*
X143065988Y-45267472D01*
X143060574Y-45270007D01*
X143051646Y-45273648D01*
X143046353Y-45276197D01*
X143040290Y-45279504D01*
X142929691Y-45331286D01*
X142435203Y-45562801D01*
X142382627Y-45574500D01*
X141456018Y-45574500D01*
X141343981Y-45574500D01*
X141235763Y-45603497D01*
X141235761Y-45603498D01*
X141235760Y-45603498D01*
X141138740Y-45659513D01*
X141138734Y-45659517D01*
X141138729Y-45659523D01*
X141015004Y-45783246D01*
X140993029Y-45800724D01*
X140986165Y-45805012D01*
X140986157Y-45805018D01*
X140986157Y-45805019D01*
X140497532Y-46236819D01*
X140491009Y-46242583D01*
X140482839Y-46250034D01*
X140482344Y-46250499D01*
X140482344Y-46250500D01*
X140460076Y-46273423D01*
X140460073Y-46273427D01*
X140458855Y-46275368D01*
X140441527Y-46297105D01*
X140409521Y-46329112D01*
X140409518Y-46329116D01*
X140319547Y-46472302D01*
X140319545Y-46472305D01*
X140263685Y-46631943D01*
X140244751Y-46799997D01*
X116149238Y-46799997D01*
X116612416Y-46336819D01*
X116673739Y-46303334D01*
X116700097Y-46300500D01*
X120933260Y-46300500D01*
X120954653Y-46302912D01*
X120954693Y-46302636D01*
X120959765Y-46303360D01*
X120959770Y-46303362D01*
X121574641Y-46391200D01*
X121586770Y-46393556D01*
X121614939Y-46400499D01*
X121614943Y-46400500D01*
X121614944Y-46400500D01*
X121634175Y-46400500D01*
X121647450Y-46401212D01*
X121660889Y-46402660D01*
X121662511Y-46402778D01*
X121709326Y-46403093D01*
X121709331Y-46403091D01*
X121716465Y-46402313D01*
X121716490Y-46402548D01*
X121734660Y-46400500D01*
X121785056Y-46400500D01*
X121950225Y-46359790D01*
X122029692Y-46318081D01*
X122100849Y-46280736D01*
X122100850Y-46280734D01*
X122100852Y-46280734D01*
X122228183Y-46167929D01*
X122324818Y-46027930D01*
X122385140Y-45868872D01*
X122405645Y-45700000D01*
X122385140Y-45531128D01*
X122372070Y-45496666D01*
X122324817Y-45372068D01*
X122281601Y-45309460D01*
X122228183Y-45232071D01*
X122124735Y-45140424D01*
X122100849Y-45119263D01*
X121950226Y-45040210D01*
X121785056Y-44999500D01*
X121614944Y-44999500D01*
X121614943Y-44999500D01*
X121586777Y-45006442D01*
X121574639Y-45008799D01*
X121362327Y-45039129D01*
X120959770Y-45096638D01*
X120959768Y-45096638D01*
X120954830Y-45097344D01*
X120954794Y-45097096D01*
X120933269Y-45099500D01*
X116486669Y-45099500D01*
X116486653Y-45099499D01*
X116479057Y-45099499D01*
X116320943Y-45099499D01*
X116213587Y-45128265D01*
X116168210Y-45140424D01*
X116168209Y-45140425D01*
X116118096Y-45169359D01*
X116118095Y-45169360D01*
X116108304Y-45175013D01*
X116031285Y-45219479D01*
X116031282Y-45219481D01*
X114819482Y-46431281D01*
X114819478Y-46431287D01*
X114773001Y-46511788D01*
X114740424Y-46568212D01*
X114740423Y-46568213D01*
X114723642Y-46630842D01*
X114699499Y-46720943D01*
X114699499Y-46720945D01*
X114699499Y-46889046D01*
X114699500Y-46889059D01*
X114699500Y-52099902D01*
X114679815Y-52166941D01*
X114663181Y-52187583D01*
X113617553Y-53233210D01*
X113600715Y-53246638D01*
X113600881Y-53246860D01*
X113248101Y-53511444D01*
X113191238Y-53534998D01*
X112925379Y-53572979D01*
X112759770Y-53596638D01*
X112759767Y-53596638D01*
X112754831Y-53597344D01*
X112754795Y-53597096D01*
X112733269Y-53599500D01*
X108986669Y-53599500D01*
X108986653Y-53599499D01*
X108979057Y-53599499D01*
X108820943Y-53599499D01*
X108813347Y-53599499D01*
X108813331Y-53599500D01*
X104820940Y-53599500D01*
X104780019Y-53610464D01*
X104780019Y-53610465D01*
X104742751Y-53620451D01*
X104668214Y-53640423D01*
X104668209Y-53640426D01*
X104531290Y-53719475D01*
X104531282Y-53719481D01*
X99519481Y-58731282D01*
X99519479Y-58731285D01*
X99485302Y-58790483D01*
X99485301Y-58790485D01*
X99440423Y-58868214D01*
X99440423Y-58868215D01*
X99399499Y-59020943D01*
X99399499Y-59020945D01*
X99399499Y-59189046D01*
X99399500Y-59189059D01*
X99399500Y-63533258D01*
X99397087Y-63554652D01*
X99397364Y-63554692D01*
X99396639Y-63559765D01*
X99396638Y-63559769D01*
X99364720Y-63783195D01*
X99316099Y-64123532D01*
X99315251Y-64127905D01*
X99314139Y-64137060D01*
X99313798Y-64139640D01*
X99299974Y-64236405D01*
X99297338Y-64260897D01*
X99297221Y-64262511D01*
X99297169Y-64270139D01*
X99296269Y-64284234D01*
X99294355Y-64300000D01*
X94325500Y-64300000D01*
X94325500Y-57143984D01*
X94325500Y-57143982D01*
X94296503Y-57035763D01*
X94240485Y-56938737D01*
X94161263Y-56859515D01*
X92261263Y-54959515D01*
X92164237Y-54903497D01*
X92056018Y-54874500D01*
X84256018Y-54874500D01*
X84143981Y-54874500D01*
X84048723Y-54900024D01*
X84048722Y-54900023D01*
X84035764Y-54903496D01*
X84035759Y-54903498D01*
X83938740Y-54959512D01*
X83938734Y-54959517D01*
X83886071Y-55012181D01*
X83859515Y-55038737D01*
X83859513Y-55038739D01*
X83298252Y-55600000D01*
X82721296Y-56176955D01*
X82721295Y-56176955D01*
X82721296Y-56176956D01*
X82659514Y-56238738D01*
X82659513Y-56238740D01*
X82603498Y-56335760D01*
X82603497Y-56335763D01*
X82574500Y-56443982D01*
X82574500Y-56674065D01*
X82560738Y-56730841D01*
X81927552Y-57960250D01*
X81920972Y-57973718D01*
X81920571Y-57974584D01*
X81909821Y-58001298D01*
X81905790Y-58010270D01*
X81899185Y-58023534D01*
X81899182Y-58023542D01*
X81839564Y-58233081D01*
X81819464Y-58449999D01*
X70300500Y-58449999D01*
X70300500Y-55356102D01*
X70320185Y-55289063D01*
X70372989Y-55243308D01*
X70442147Y-55233364D01*
X70505703Y-55262389D01*
X70540264Y-55311664D01*
X70615244Y-55506994D01*
X70791310Y-55852543D01*
X71002531Y-56177793D01*
X71211095Y-56435350D01*
X71211096Y-56435350D01*
X72705748Y-54940698D01*
X72779588Y-55042330D01*
X72957670Y-55220412D01*
X73059300Y-55294251D01*
X71564648Y-56788903D01*
X71564649Y-56788904D01*
X71822206Y-56997468D01*
X72147456Y-57208689D01*
X72493005Y-57384755D01*
X72855063Y-57523737D01*
X73229669Y-57624112D01*
X73229676Y-57624113D01*
X73612712Y-57684780D01*
X73999999Y-57705078D01*
X74000001Y-57705078D01*
X74387287Y-57684780D01*
X74770323Y-57624113D01*
X74770330Y-57624112D01*
X75144936Y-57523737D01*
X75506994Y-57384755D01*
X75852543Y-57208689D01*
X76177783Y-56997476D01*
X76177785Y-56997475D01*
X76435349Y-56788902D01*
X74940698Y-55294251D01*
X75042330Y-55220412D01*
X75220412Y-55042330D01*
X75294251Y-54940698D01*
X76788902Y-56435349D01*
X76997475Y-56177785D01*
X76997476Y-56177783D01*
X77208689Y-55852543D01*
X77384755Y-55506994D01*
X77523737Y-55144936D01*
X77624112Y-54770330D01*
X77624113Y-54770323D01*
X77684780Y-54387287D01*
X77705078Y-54000000D01*
X77705078Y-53999999D01*
X77684780Y-53612712D01*
X77624113Y-53229676D01*
X77624112Y-53229669D01*
X77523737Y-52855063D01*
X77384755Y-52493005D01*
X77208689Y-52147456D01*
X76997468Y-51822206D01*
X76788904Y-51564649D01*
X76788903Y-51564648D01*
X75294251Y-53059300D01*
X75220412Y-52957670D01*
X75042330Y-52779588D01*
X74940698Y-52705748D01*
X76435350Y-51211096D01*
X76435350Y-51211095D01*
X76177793Y-51002531D01*
X75852543Y-50791310D01*
X75506994Y-50615244D01*
X75311664Y-50540264D01*
X75256132Y-50497862D01*
X75232339Y-50432168D01*
X75247841Y-50364040D01*
X75297714Y-50315107D01*
X75356102Y-50300500D01*
X99999794Y-50300500D01*
X100002837Y-50300502D01*
X100039344Y-50300527D01*
X100039344Y-50300526D01*
X100039356Y-50300527D01*
X100039367Y-50300523D01*
X100039552Y-50300500D01*
X100039562Y-50300500D01*
X100077936Y-50290217D01*
X100078023Y-50290219D01*
X100078017Y-50290196D01*
X100088588Y-50287370D01*
X100115797Y-50280100D01*
X100115801Y-50280097D01*
X100115982Y-50280022D01*
X100115989Y-50280021D01*
X100150605Y-50260034D01*
X100150691Y-50260013D01*
X100150679Y-50259993D01*
X100171263Y-50248127D01*
X100184346Y-50240586D01*
X100184350Y-50240581D01*
X100184503Y-50240464D01*
X100184511Y-50240460D01*
X100212340Y-50212631D01*
X100240334Y-50184676D01*
X100240335Y-50184672D01*
X100240455Y-50184518D01*
X100240457Y-50184513D01*
X100240460Y-50184511D01*
X100259785Y-50151037D01*
X100259786Y-50151035D01*
X100259791Y-50151038D01*
X100259821Y-50150974D01*
X100279942Y-50116181D01*
X100279944Y-50116172D01*
X100279949Y-50116164D01*
X100280016Y-50116003D01*
X100280018Y-50115992D01*
X100280021Y-50115989D01*
X100288721Y-50083517D01*
X100290089Y-50078414D01*
X100290108Y-50078419D01*
X100290110Y-50078332D01*
X100300473Y-50039768D01*
X100300473Y-50039761D01*
X100300500Y-50039561D01*
X100300500Y-50000329D01*
X100300642Y-49793186D01*
X100303404Y-45757656D01*
X100303444Y-45757164D01*
X100303444Y-45704875D01*
X100303826Y-45695146D01*
X100316734Y-45531130D01*
X100319872Y-45491252D01*
X100322916Y-45472043D01*
X100369520Y-45277918D01*
X100375526Y-45259433D01*
X100451926Y-45074988D01*
X100460759Y-45057654D01*
X100461443Y-45056539D01*
X100565063Y-44887444D01*
X100576499Y-44871705D01*
X100625265Y-44814608D01*
X100706152Y-44719901D01*
X100719901Y-44706152D01*
X100871707Y-44576497D01*
X100887447Y-44565062D01*
X100928624Y-44539829D01*
X101057657Y-44460757D01*
X101074988Y-44451926D01*
X101259433Y-44375526D01*
X101277918Y-44369520D01*
X101472046Y-44322914D01*
X101491252Y-44319872D01*
X101695146Y-44303825D01*
X101704875Y-44303444D01*
X101747595Y-44303444D01*
X112030224Y-44303444D01*
X112097263Y-44323129D01*
G37*
G04 #@! TD.AperFunction*
G04 #@! TA.AperFunction,Conductor*
G36*
X72779588Y-97042330D02*
G01*
X72957670Y-97220412D01*
X73059300Y-97294251D01*
X71564648Y-98788903D01*
X71564649Y-98788904D01*
X71822206Y-98997468D01*
X72147458Y-99208691D01*
X72147461Y-99208692D01*
X72350741Y-99312268D01*
X72401538Y-99360242D01*
X72418333Y-99428063D01*
X72395796Y-99494198D01*
X72341081Y-99537650D01*
X72271560Y-99544623D01*
X72260120Y-99541907D01*
X72249047Y-99538717D01*
X72235921Y-99534124D01*
X71948388Y-99415024D01*
X71935860Y-99408991D01*
X71771399Y-99318097D01*
X71663457Y-99258439D01*
X71651692Y-99251046D01*
X71397872Y-99070951D01*
X71387004Y-99062285D01*
X71154936Y-98854896D01*
X71145103Y-98845063D01*
X71094916Y-98788904D01*
X70937709Y-98612989D01*
X70929050Y-98602129D01*
X70748950Y-98348303D01*
X70741563Y-98336547D01*
X70591004Y-98064132D01*
X70584978Y-98051618D01*
X70465874Y-97764077D01*
X70461282Y-97750952D01*
X70458092Y-97739879D01*
X70458449Y-97670010D01*
X70496523Y-97611426D01*
X70560226Y-97582726D01*
X70629333Y-97593022D01*
X70681902Y-97639046D01*
X70687731Y-97649257D01*
X70791310Y-97852543D01*
X71002531Y-98177793D01*
X71211095Y-98435350D01*
X71211096Y-98435350D01*
X72705748Y-96940698D01*
X72779588Y-97042330D01*
G37*
G04 #@! TD.AperFunction*
G04 #@! TA.AperFunction,Conductor*
G36*
X168788902Y-98435349D02*
G01*
X168997475Y-98177785D01*
X168997476Y-98177783D01*
X169208691Y-97852541D01*
X169208692Y-97852538D01*
X169312268Y-97649258D01*
X169360242Y-97598462D01*
X169428063Y-97581666D01*
X169494198Y-97604203D01*
X169537650Y-97658918D01*
X169544623Y-97728439D01*
X169541907Y-97739879D01*
X169538717Y-97750952D01*
X169534124Y-97764078D01*
X169415024Y-98051611D01*
X169408991Y-98064139D01*
X169258442Y-98336538D01*
X169251043Y-98348312D01*
X169070954Y-98602123D01*
X169062285Y-98612995D01*
X168854896Y-98845063D01*
X168845063Y-98854896D01*
X168612995Y-99062285D01*
X168602123Y-99070954D01*
X168348312Y-99251043D01*
X168336538Y-99258442D01*
X168064139Y-99408991D01*
X168051611Y-99415024D01*
X167764078Y-99534124D01*
X167750952Y-99538717D01*
X167739879Y-99541907D01*
X167670010Y-99541550D01*
X167611426Y-99503476D01*
X167582726Y-99439773D01*
X167593022Y-99370666D01*
X167639046Y-99318097D01*
X167649258Y-99312268D01*
X167852538Y-99208692D01*
X167852541Y-99208691D01*
X168177783Y-98997476D01*
X168177785Y-98997475D01*
X168435349Y-98788902D01*
X166940698Y-97294251D01*
X167042330Y-97220412D01*
X167220412Y-97042330D01*
X167294251Y-96940698D01*
X168788902Y-98435349D01*
G37*
G04 #@! TD.AperFunction*
G04 #@! TA.AperFunction,Conductor*
G36*
X72329989Y-50458449D02*
G01*
X72388573Y-50496523D01*
X72417273Y-50560226D01*
X72406977Y-50629333D01*
X72360953Y-50681902D01*
X72350742Y-50687731D01*
X72147456Y-50791310D01*
X71822206Y-51002531D01*
X71564648Y-51211095D01*
X71564648Y-51211096D01*
X73059301Y-52705748D01*
X72957670Y-52779588D01*
X72779588Y-52957670D01*
X72705748Y-53059300D01*
X71211096Y-51564648D01*
X71211095Y-51564648D01*
X71002531Y-51822206D01*
X70791310Y-52147456D01*
X70687731Y-52350742D01*
X70639756Y-52401538D01*
X70571935Y-52418333D01*
X70505801Y-52395796D01*
X70462349Y-52341081D01*
X70455377Y-52271560D01*
X70458092Y-52260120D01*
X70461282Y-52249047D01*
X70465875Y-52235921D01*
X70468562Y-52229434D01*
X70584981Y-51948374D01*
X70591001Y-51935874D01*
X70741567Y-51663443D01*
X70748944Y-51651704D01*
X70929056Y-51397861D01*
X70937702Y-51387018D01*
X71145113Y-51154925D01*
X71154925Y-51145113D01*
X71387018Y-50937702D01*
X71397861Y-50929056D01*
X71651704Y-50748944D01*
X71663443Y-50741567D01*
X71935874Y-50591001D01*
X71948374Y-50584981D01*
X72235928Y-50465872D01*
X72249040Y-50461284D01*
X72260121Y-50458092D01*
X72329989Y-50458449D01*
G37*
G04 #@! TD.AperFunction*
G04 #@! TA.AperFunction,Conductor*
G36*
X167739879Y-50458092D02*
G01*
X167750952Y-50461282D01*
X167764077Y-50465874D01*
X168051618Y-50584978D01*
X168064132Y-50591004D01*
X168336547Y-50741563D01*
X168348303Y-50748950D01*
X168602129Y-50929050D01*
X168612989Y-50937709D01*
X168808289Y-51112240D01*
X168845063Y-51145103D01*
X168854894Y-51154934D01*
X169016985Y-51336314D01*
X169062285Y-51387004D01*
X169070951Y-51397872D01*
X169244057Y-51641842D01*
X169251043Y-51651687D01*
X169258439Y-51663457D01*
X169333628Y-51799500D01*
X169408991Y-51935860D01*
X169415024Y-51948388D01*
X169534124Y-52235921D01*
X169538717Y-52249047D01*
X169541907Y-52260120D01*
X169541550Y-52329989D01*
X169503476Y-52388573D01*
X169439773Y-52417273D01*
X169370666Y-52406977D01*
X169318097Y-52360953D01*
X169312268Y-52350741D01*
X169208692Y-52147461D01*
X169208691Y-52147458D01*
X168997468Y-51822206D01*
X168788904Y-51564649D01*
X168788903Y-51564648D01*
X167294251Y-53059300D01*
X167220412Y-52957670D01*
X167042330Y-52779588D01*
X166940698Y-52705748D01*
X168435350Y-51211096D01*
X168435350Y-51211095D01*
X168177793Y-51002531D01*
X167852543Y-50791310D01*
X167649257Y-50687731D01*
X167598461Y-50639757D01*
X167581666Y-50571936D01*
X167604203Y-50505801D01*
X167658918Y-50462349D01*
X167728439Y-50455376D01*
X167739879Y-50458092D01*
G37*
G04 #@! TD.AperFunction*
G04 #@! TA.AperFunction,Conductor*
G36*
X119175630Y-88603427D02*
G01*
X119178071Y-88606999D01*
X119418570Y-89155150D01*
X119418756Y-89164103D01*
X119412557Y-89170565D01*
X119412362Y-89170649D01*
X119104506Y-89299119D01*
X119095551Y-89299142D01*
X119095494Y-89299119D01*
X118787637Y-89170649D01*
X118781322Y-89164300D01*
X118781345Y-89155345D01*
X118781429Y-89155150D01*
X119021929Y-88606999D01*
X119028391Y-88600800D01*
X119032643Y-88600000D01*
X119167357Y-88600000D01*
X119175630Y-88603427D01*
G37*
G04 #@! TD.AperFunction*
G04 #@! TA.AperFunction,Conductor*
G36*
X124251425Y-74341255D02*
G01*
X124251576Y-74341601D01*
X124399123Y-74695498D01*
X124399144Y-74704452D01*
X124399123Y-74704502D01*
X124251576Y-75058398D01*
X124245229Y-75064716D01*
X124236275Y-75064695D01*
X124235929Y-75064544D01*
X123606852Y-74778119D01*
X123600742Y-74771572D01*
X123600000Y-74767471D01*
X123600000Y-74632528D01*
X123603427Y-74624255D01*
X123606852Y-74621880D01*
X124235930Y-74335454D01*
X124244878Y-74335145D01*
X124251425Y-74341255D01*
G37*
G04 #@! TD.AperFunction*
G04 #@! TA.AperFunction,Conductor*
G36*
X94615958Y-90712378D02*
G01*
X94618203Y-90715527D01*
X95274859Y-92063554D01*
X95275402Y-92072493D01*
X95269465Y-92079196D01*
X95268830Y-92079483D01*
X94499489Y-92399134D01*
X94490534Y-92399143D01*
X94490511Y-92399134D01*
X93721782Y-92079738D01*
X93715457Y-92073399D01*
X93715466Y-92064444D01*
X93716025Y-92063284D01*
X94461661Y-90714989D01*
X94468664Y-90709407D01*
X94471900Y-90708951D01*
X94607685Y-90708951D01*
X94615958Y-90712378D01*
G37*
G04 #@! TD.AperFunction*
G04 #@! TA.AperFunction,Conductor*
G36*
X121973076Y-87112850D02*
G01*
X122058398Y-87148423D01*
X122064716Y-87154770D01*
X122064695Y-87163724D01*
X122064544Y-87164070D01*
X121778120Y-87793148D01*
X121771573Y-87799258D01*
X121767472Y-87800000D01*
X121632528Y-87800000D01*
X121624255Y-87796573D01*
X121621880Y-87793148D01*
X121335455Y-87164070D01*
X121335145Y-87155121D01*
X121341255Y-87148574D01*
X121341601Y-87148423D01*
X121695500Y-87000875D01*
X121704449Y-87000855D01*
X121973076Y-87112850D01*
G37*
G04 #@! TD.AperFunction*
G04 #@! TA.AperFunction,Conductor*
G36*
X143449889Y-53003427D02*
G01*
X143452695Y-53007940D01*
X143666038Y-53636574D01*
X143665452Y-53645510D01*
X143659461Y-53651133D01*
X143304502Y-53799123D01*
X143295548Y-53799144D01*
X143295498Y-53799123D01*
X142940538Y-53651133D01*
X142934220Y-53644786D01*
X142933961Y-53636575D01*
X143147305Y-53007939D01*
X143153208Y-53001207D01*
X143158384Y-53000000D01*
X143441616Y-53000000D01*
X143449889Y-53003427D01*
G37*
G04 #@! TD.AperFunction*
G04 #@! TA.AperFunction,Conductor*
G36*
X122094394Y-89683919D02*
G01*
X122675765Y-89901513D01*
X122741755Y-89926212D01*
X122748302Y-89932322D01*
X122748612Y-89941271D01*
X122748474Y-89941622D01*
X122602563Y-90296195D01*
X122596245Y-90302542D01*
X122596195Y-90302563D01*
X122241622Y-90448474D01*
X122232668Y-90448453D01*
X122226350Y-90442106D01*
X122226212Y-90441755D01*
X122039023Y-89941622D01*
X121983920Y-89794396D01*
X121984230Y-89785449D01*
X121986602Y-89782027D01*
X122082025Y-89686604D01*
X122090297Y-89683178D01*
X122094394Y-89683919D01*
G37*
G04 #@! TD.AperFunction*
G04 #@! TA.AperFunction,Conductor*
G36*
X83076138Y-56803427D02*
G01*
X83078267Y-56806343D01*
X83756387Y-58122997D01*
X83757128Y-58131921D01*
X83751342Y-58138756D01*
X83750474Y-58139158D01*
X83004489Y-58449134D01*
X82995535Y-58449144D01*
X82995511Y-58449134D01*
X82249525Y-58139158D01*
X82243200Y-58132819D01*
X82243210Y-58123865D01*
X82243601Y-58123020D01*
X82921733Y-56806342D01*
X82928568Y-56800557D01*
X82932135Y-56800000D01*
X83067865Y-56800000D01*
X83076138Y-56803427D01*
G37*
G04 #@! TD.AperFunction*
G04 #@! TA.AperFunction,Conductor*
G36*
X143232285Y-46795068D02*
G01*
X143232489Y-46795529D01*
X143399125Y-47195500D01*
X143399144Y-47204455D01*
X143399125Y-47204500D01*
X143232489Y-47604470D01*
X143226144Y-47610789D01*
X143217189Y-47610770D01*
X143216728Y-47610566D01*
X142506739Y-47278155D01*
X142500699Y-47271544D01*
X142500000Y-47267559D01*
X142500000Y-47132440D01*
X142503427Y-47124167D01*
X142506735Y-47121846D01*
X143216730Y-46789432D01*
X143225674Y-46789028D01*
X143232285Y-46795068D01*
G37*
G04 #@! TD.AperFunction*
G04 #@! TA.AperFunction,Conductor*
G36*
X141237587Y-46071903D02*
G01*
X141332929Y-46167245D01*
X141336296Y-46174333D01*
X141398690Y-46787137D01*
X141396119Y-46795715D01*
X141388235Y-46799962D01*
X141387071Y-46800022D01*
X141004168Y-46800698D01*
X140995889Y-46797286D01*
X140725911Y-46525955D01*
X140722506Y-46517675D01*
X140725954Y-46509410D01*
X140726445Y-46508948D01*
X141221566Y-46071408D01*
X141230035Y-46068498D01*
X141237587Y-46071903D01*
G37*
G04 #@! TD.AperFunction*
G04 #@! TA.AperFunction,Conductor*
G36*
X158950514Y-74908434D02*
G01*
X159151565Y-75109485D01*
X159154992Y-75117758D01*
X159154092Y-75122258D01*
X158454486Y-76801315D01*
X158448141Y-76807634D01*
X158439219Y-76807629D01*
X157603784Y-76462562D01*
X157597446Y-76456236D01*
X157252370Y-75620778D01*
X157252379Y-75611825D01*
X157258681Y-75605515D01*
X158937742Y-74905906D01*
X158946696Y-74905888D01*
X158950514Y-74908434D01*
G37*
G04 #@! TD.AperFunction*
G04 #@! TA.AperFunction,Conductor*
G36*
X129787639Y-77870582D02*
G01*
X130096191Y-77997436D01*
X130102540Y-78003751D01*
X130102563Y-78003808D01*
X130229408Y-78312338D01*
X130229385Y-78321293D01*
X130223036Y-78327608D01*
X130222839Y-78327687D01*
X129665179Y-78545229D01*
X129656226Y-78545043D01*
X129652654Y-78542602D01*
X129557397Y-78447345D01*
X129553970Y-78439072D01*
X129554769Y-78434824D01*
X129772312Y-77877159D01*
X129778511Y-77870698D01*
X129787464Y-77870512D01*
X129787639Y-77870582D01*
G37*
G04 #@! TD.AperFunction*
G04 #@! TA.AperFunction,Conductor*
G36*
X140682511Y-60332502D02*
G01*
X141517712Y-61166722D01*
X141521144Y-61174993D01*
X141517722Y-61183268D01*
X141517712Y-61183278D01*
X140682511Y-62017497D01*
X140674236Y-62020919D01*
X140666805Y-62018251D01*
X139829262Y-61328509D01*
X139825054Y-61320604D01*
X139825000Y-61319477D01*
X139825000Y-61030522D01*
X139828427Y-61022249D01*
X139829262Y-61021490D01*
X140666806Y-60331747D01*
X140675370Y-60329134D01*
X140682511Y-60332502D01*
G37*
G04 #@! TD.AperFunction*
G04 #@! TA.AperFunction,Conductor*
G36*
X133541609Y-74451519D02*
G01*
X133896195Y-74597436D01*
X133902542Y-74603754D01*
X133902563Y-74603804D01*
X134048474Y-74958377D01*
X134048453Y-74967331D01*
X134042106Y-74973649D01*
X134041755Y-74973787D01*
X133394398Y-75216079D01*
X133385449Y-75215769D01*
X133382024Y-75213394D01*
X133286605Y-75117975D01*
X133283178Y-75109702D01*
X133283919Y-75105606D01*
X133526212Y-74458243D01*
X133532322Y-74451697D01*
X133541271Y-74451387D01*
X133541609Y-74451519D01*
G37*
G04 #@! TD.AperFunction*
G04 #@! TA.AperFunction,Conductor*
G36*
X97155958Y-90712378D02*
G01*
X97158203Y-90715527D01*
X97814859Y-92063554D01*
X97815402Y-92072493D01*
X97809465Y-92079196D01*
X97808830Y-92079483D01*
X97039489Y-92399134D01*
X97030534Y-92399143D01*
X97030511Y-92399134D01*
X96261782Y-92079738D01*
X96255457Y-92073399D01*
X96255466Y-92064444D01*
X96256025Y-92063284D01*
X97001661Y-90714989D01*
X97008664Y-90709407D01*
X97011900Y-90708951D01*
X97147685Y-90708951D01*
X97155958Y-90712378D01*
G37*
G04 #@! TD.AperFunction*
G04 #@! TA.AperFunction,Conductor*
G36*
X98875745Y-81803427D02*
G01*
X98878120Y-81806852D01*
X99164544Y-82435929D01*
X99164854Y-82444878D01*
X99158744Y-82451425D01*
X99158398Y-82451576D01*
X98804502Y-82599123D01*
X98795548Y-82599144D01*
X98795498Y-82599123D01*
X98441601Y-82451576D01*
X98435283Y-82445229D01*
X98435304Y-82436275D01*
X98435455Y-82435929D01*
X98721880Y-81806852D01*
X98728427Y-81800742D01*
X98732528Y-81800000D01*
X98867472Y-81800000D01*
X98875745Y-81803427D01*
G37*
G04 #@! TD.AperFunction*
G04 #@! TA.AperFunction,Conductor*
G36*
X106944470Y-48567510D02*
G01*
X106950789Y-48573855D01*
X106950770Y-48582810D01*
X106950566Y-48583271D01*
X106618155Y-49293261D01*
X106611544Y-49299301D01*
X106607559Y-49300000D01*
X106472441Y-49300000D01*
X106464168Y-49296573D01*
X106461845Y-49293261D01*
X106398319Y-49157578D01*
X106129432Y-48583269D01*
X106129028Y-48574325D01*
X106135068Y-48567714D01*
X106135505Y-48567520D01*
X106535501Y-48400873D01*
X106544452Y-48400855D01*
X106944470Y-48567510D01*
G37*
G04 #@! TD.AperFunction*
G04 #@! TA.AperFunction,Conductor*
G36*
X122943773Y-78854956D02*
G01*
X122947345Y-78857397D01*
X123042602Y-78952654D01*
X123046029Y-78960927D01*
X123045229Y-78965179D01*
X122827687Y-79522839D01*
X122821488Y-79529301D01*
X122812535Y-79529487D01*
X122812338Y-79529408D01*
X122503808Y-79402563D01*
X122497460Y-79396249D01*
X122370591Y-79087660D01*
X122370614Y-79078706D01*
X122376963Y-79072391D01*
X122377131Y-79072323D01*
X122934822Y-78854770D01*
X122943773Y-78854956D01*
G37*
G04 #@! TD.AperFunction*
G04 #@! TA.AperFunction,Conductor*
G36*
X113825372Y-53535424D02*
G01*
X114164575Y-53874627D01*
X114168002Y-53882900D01*
X114165662Y-53889920D01*
X113755557Y-54436726D01*
X113747852Y-54441288D01*
X113739177Y-54439066D01*
X113737953Y-54438007D01*
X113499293Y-54200707D01*
X113261995Y-53962049D01*
X113258593Y-53953769D01*
X113262044Y-53945505D01*
X113263264Y-53944449D01*
X113810080Y-53534336D01*
X113818754Y-53532115D01*
X113825372Y-53535424D01*
G37*
G04 #@! TD.AperFunction*
G04 #@! TA.AperFunction,Conductor*
G36*
X138278076Y-72507850D02*
G01*
X138363398Y-72543423D01*
X138369716Y-72549770D01*
X138369695Y-72558724D01*
X138369544Y-72559070D01*
X138083120Y-73188148D01*
X138076573Y-73194258D01*
X138072472Y-73195000D01*
X137937528Y-73195000D01*
X137929255Y-73191573D01*
X137926880Y-73188148D01*
X137640455Y-72559070D01*
X137640145Y-72550121D01*
X137646255Y-72543574D01*
X137646601Y-72543423D01*
X138000500Y-72395875D01*
X138009449Y-72395855D01*
X138278076Y-72507850D01*
G37*
G04 #@! TD.AperFunction*
G04 #@! TA.AperFunction,Conductor*
G36*
X146357511Y-87717502D02*
G01*
X147192712Y-88551722D01*
X147196144Y-88559993D01*
X147192722Y-88568268D01*
X147192712Y-88568278D01*
X146357511Y-89402497D01*
X146349236Y-89405919D01*
X146341805Y-89403251D01*
X145504262Y-88713509D01*
X145500054Y-88705604D01*
X145500000Y-88704477D01*
X145500000Y-88415522D01*
X145503427Y-88407249D01*
X145504262Y-88406490D01*
X146341806Y-87716747D01*
X146350370Y-87714134D01*
X146357511Y-87717502D01*
G37*
G04 #@! TD.AperFunction*
G04 #@! TA.AperFunction,Conductor*
G36*
X142383194Y-60331748D02*
G01*
X143220738Y-61021490D01*
X143224946Y-61029395D01*
X143225000Y-61030522D01*
X143225000Y-61319477D01*
X143221573Y-61327750D01*
X143220738Y-61328509D01*
X142383194Y-62018251D01*
X142374629Y-62020865D01*
X142367488Y-62017497D01*
X141532286Y-61183276D01*
X141528855Y-61175007D01*
X141532276Y-61166733D01*
X142367490Y-60332501D01*
X142375763Y-60329080D01*
X142383194Y-60331748D01*
G37*
G04 #@! TD.AperFunction*
G04 #@! TA.AperFunction,Conductor*
G36*
X144400906Y-60394622D02*
G01*
X144401325Y-60394806D01*
X145758208Y-61021861D01*
X145764281Y-61028443D01*
X145765000Y-61032482D01*
X145765000Y-61317517D01*
X145761573Y-61325790D01*
X145758208Y-61328138D01*
X144401325Y-61955193D01*
X144392378Y-61955553D01*
X144385796Y-61949480D01*
X144385612Y-61949061D01*
X144065865Y-61179489D01*
X144065856Y-61170534D01*
X144065865Y-61170511D01*
X144123214Y-61032482D01*
X144385613Y-60400936D01*
X144391951Y-60394613D01*
X144400906Y-60394622D01*
G37*
G04 #@! TD.AperFunction*
G04 #@! TA.AperFunction,Conductor*
G36*
X156757511Y-87732502D02*
G01*
X157592712Y-88566722D01*
X157596144Y-88574993D01*
X157592722Y-88583268D01*
X157592712Y-88583278D01*
X156757511Y-89417497D01*
X156749236Y-89420919D01*
X156741805Y-89418251D01*
X155904262Y-88728509D01*
X155900054Y-88720604D01*
X155900000Y-88719477D01*
X155900000Y-88430522D01*
X155903427Y-88422249D01*
X155904262Y-88421490D01*
X156741806Y-87731747D01*
X156750370Y-87729134D01*
X156757511Y-87732502D01*
G37*
G04 #@! TD.AperFunction*
G04 #@! TA.AperFunction,Conductor*
G36*
X99714550Y-77184230D02*
G01*
X99717975Y-77186605D01*
X99813394Y-77282024D01*
X99816821Y-77290297D01*
X99816079Y-77294398D01*
X99573787Y-77941755D01*
X99567677Y-77948302D01*
X99558728Y-77948612D01*
X99558377Y-77948474D01*
X99203804Y-77802563D01*
X99197457Y-77796245D01*
X99197436Y-77796195D01*
X99051525Y-77441622D01*
X99051546Y-77432668D01*
X99057893Y-77426350D01*
X99058228Y-77426218D01*
X99705603Y-77183920D01*
X99714550Y-77184230D01*
G37*
G04 #@! TD.AperFunction*
G04 #@! TA.AperFunction,Conductor*
G36*
X106722810Y-46789229D02*
G01*
X106723247Y-46789422D01*
X107433262Y-47121845D01*
X107439301Y-47128455D01*
X107440000Y-47132440D01*
X107440000Y-47267559D01*
X107436573Y-47275832D01*
X107433261Y-47278155D01*
X106723271Y-47610566D01*
X106714325Y-47610971D01*
X106707714Y-47604931D01*
X106707510Y-47604470D01*
X106540873Y-47204498D01*
X106540855Y-47195547D01*
X106707511Y-46795527D01*
X106713855Y-46789210D01*
X106722810Y-46789229D01*
G37*
G04 #@! TD.AperFunction*
G04 #@! TA.AperFunction,Conductor*
G36*
X106191726Y-52147466D02*
G01*
X106198633Y-52153165D01*
X106200000Y-52158653D01*
X106200000Y-52441346D01*
X106196573Y-52449619D01*
X106191726Y-52452533D01*
X105644079Y-52620252D01*
X105635165Y-52619398D01*
X105629855Y-52613571D01*
X105500880Y-52304506D01*
X105500857Y-52295551D01*
X105500880Y-52295494D01*
X105561596Y-52150000D01*
X105629855Y-51986427D01*
X105636204Y-51980113D01*
X105644077Y-51979747D01*
X106191726Y-52147466D01*
G37*
G04 #@! TD.AperFunction*
G04 #@! TA.AperFunction,Conductor*
G36*
X107432313Y-45847193D02*
G01*
X107438909Y-45853249D01*
X107440000Y-45858183D01*
X107440000Y-46141816D01*
X107436573Y-46150089D01*
X107432313Y-46152806D01*
X106722718Y-46411908D01*
X106713771Y-46411527D01*
X106707905Y-46405418D01*
X106540873Y-46004498D01*
X106540855Y-45995547D01*
X106707905Y-45594580D01*
X106714250Y-45588262D01*
X106722716Y-45588091D01*
X107432313Y-45847193D01*
G37*
G04 #@! TD.AperFunction*
G04 #@! TA.AperFunction,Conductor*
G36*
X125070565Y-56887442D02*
G01*
X125070649Y-56887637D01*
X125199119Y-57195494D01*
X125199142Y-57204449D01*
X125199119Y-57204506D01*
X125070649Y-57512362D01*
X125064300Y-57518677D01*
X125055345Y-57518654D01*
X125055150Y-57518570D01*
X124506999Y-57278070D01*
X124500800Y-57271608D01*
X124500000Y-57267356D01*
X124500000Y-57132643D01*
X124503427Y-57124370D01*
X124506999Y-57121929D01*
X125055150Y-56881429D01*
X125064103Y-56881243D01*
X125070565Y-56887442D01*
G37*
G04 #@! TD.AperFunction*
G04 #@! TA.AperFunction,Conductor*
G36*
X113565548Y-66334178D02*
G01*
X113765821Y-66534451D01*
X113769248Y-66542724D01*
X113768041Y-66547900D01*
X113474387Y-67143268D01*
X113467654Y-67149171D01*
X113459442Y-67148912D01*
X113103804Y-67002563D01*
X113097457Y-66996245D01*
X113097436Y-66996195D01*
X112951087Y-66640557D01*
X112951108Y-66631603D01*
X112956730Y-66625612D01*
X113552099Y-66331957D01*
X113561035Y-66331372D01*
X113565548Y-66334178D01*
G37*
G04 #@! TD.AperFunction*
G04 #@! TA.AperFunction,Conductor*
G36*
X143357445Y-50908323D02*
G01*
X143358933Y-50909825D01*
X143624390Y-51231500D01*
X143821663Y-51470552D01*
X143824286Y-51479114D01*
X143822754Y-51483880D01*
X143453383Y-52119181D01*
X143446262Y-52124610D01*
X143443268Y-52125000D01*
X143157709Y-52125000D01*
X143149436Y-52121573D01*
X143146958Y-52117916D01*
X142871876Y-51477299D01*
X142871761Y-51468345D01*
X142873674Y-51465151D01*
X143340961Y-50909743D01*
X143348909Y-50905619D01*
X143357445Y-50908323D01*
G37*
G04 #@! TD.AperFunction*
G04 #@! TA.AperFunction,Conductor*
G36*
X99653107Y-90703427D02*
G01*
X99653480Y-90703817D01*
X100417477Y-91541749D01*
X100420519Y-91550171D01*
X100417109Y-91557900D01*
X99583278Y-92392712D01*
X99575007Y-92396144D01*
X99566732Y-92392722D01*
X99566722Y-92392712D01*
X99344233Y-92169961D01*
X98732889Y-91557898D01*
X98729468Y-91549625D01*
X98732521Y-91541750D01*
X99496520Y-90703817D01*
X99504627Y-90700012D01*
X99505166Y-90700000D01*
X99644834Y-90700000D01*
X99653107Y-90703427D01*
G37*
G04 #@! TD.AperFunction*
G04 #@! TA.AperFunction,Conductor*
G36*
X139604478Y-80800868D02*
G01*
X139912362Y-80929350D01*
X139918677Y-80935699D01*
X139918654Y-80944654D01*
X139918570Y-80944849D01*
X139678071Y-81493001D01*
X139671609Y-81499200D01*
X139667357Y-81500000D01*
X139532643Y-81500000D01*
X139524370Y-81496573D01*
X139521929Y-81493001D01*
X139281429Y-80944849D01*
X139281243Y-80935896D01*
X139287442Y-80929434D01*
X139287582Y-80929373D01*
X139595494Y-80800879D01*
X139604449Y-80800857D01*
X139604478Y-80800868D01*
G37*
G04 #@! TD.AperFunction*
G04 #@! TA.AperFunction,Conductor*
G36*
X141175745Y-48303427D02*
G01*
X141178120Y-48306852D01*
X141464544Y-48935929D01*
X141464854Y-48944878D01*
X141458744Y-48951425D01*
X141458398Y-48951576D01*
X141104502Y-49099123D01*
X141095548Y-49099144D01*
X141095498Y-49099123D01*
X140741601Y-48951576D01*
X140735283Y-48945229D01*
X140735304Y-48936275D01*
X140735455Y-48935929D01*
X141021880Y-48306852D01*
X141028427Y-48300742D01*
X141032528Y-48300000D01*
X141167472Y-48300000D01*
X141175745Y-48303427D01*
G37*
G04 #@! TD.AperFunction*
G04 #@! TA.AperFunction,Conductor*
G36*
X127819439Y-60032180D02*
G01*
X127859461Y-60048866D01*
X127865779Y-60055213D01*
X127866038Y-60063425D01*
X127652695Y-60692060D01*
X127646792Y-60698793D01*
X127641616Y-60700000D01*
X127358384Y-60700000D01*
X127350111Y-60696573D01*
X127347305Y-60692060D01*
X127133961Y-60063425D01*
X127134547Y-60054489D01*
X127140537Y-60048866D01*
X127495500Y-59900875D01*
X127504449Y-59900855D01*
X127819439Y-60032180D01*
G37*
G04 #@! TD.AperFunction*
G04 #@! TA.AperFunction,Conductor*
G36*
X113495358Y-53854124D02*
G01*
X113499920Y-53861829D01*
X113500038Y-53863451D01*
X113501000Y-54200000D01*
X113501000Y-54200066D01*
X113500038Y-54536548D01*
X113496587Y-54544812D01*
X113488305Y-54548215D01*
X113486683Y-54548097D01*
X112810045Y-54451435D01*
X112802340Y-54446873D01*
X112800000Y-54439853D01*
X112800000Y-53960147D01*
X112803427Y-53951874D01*
X112810045Y-53948565D01*
X113486684Y-53851902D01*
X113495358Y-53854124D01*
G37*
G04 #@! TD.AperFunction*
G04 #@! TA.AperFunction,Conductor*
G36*
X111348126Y-59703427D02*
G01*
X111351435Y-59710045D01*
X111448097Y-60386683D01*
X111445875Y-60395358D01*
X111438170Y-60399920D01*
X111436548Y-60400038D01*
X111100033Y-60400999D01*
X111099967Y-60400999D01*
X110763451Y-60400038D01*
X110755187Y-60396587D01*
X110751784Y-60388305D01*
X110751902Y-60386683D01*
X110848565Y-59710045D01*
X110853127Y-59702340D01*
X110860147Y-59700000D01*
X111339853Y-59700000D01*
X111348126Y-59703427D01*
G37*
G04 #@! TD.AperFunction*
G04 #@! TA.AperFunction,Conductor*
G36*
X143773535Y-48554622D02*
G01*
X143804731Y-48567619D01*
X143811050Y-48573964D01*
X143811031Y-48582919D01*
X143810941Y-48583130D01*
X143503074Y-49283065D01*
X143496606Y-49289258D01*
X143492364Y-49290054D01*
X143208701Y-49290054D01*
X143200428Y-49286627D01*
X143197496Y-49281722D01*
X142987292Y-48582316D01*
X142988193Y-48573406D01*
X142993995Y-48568149D01*
X143395501Y-48400873D01*
X143404452Y-48400855D01*
X143773535Y-48554622D01*
G37*
G04 #@! TD.AperFunction*
G04 #@! TA.AperFunction,Conductor*
G36*
X110756937Y-45709425D02*
G01*
X110760006Y-45712001D01*
X111226507Y-46265377D01*
X111229220Y-46273911D01*
X111228478Y-46277129D01*
X111051411Y-46736077D01*
X111048768Y-46740139D01*
X110847436Y-46941471D01*
X110839163Y-46944898D01*
X110830890Y-46941471D01*
X110830184Y-46940699D01*
X110362399Y-46380731D01*
X110359725Y-46372185D01*
X110361259Y-46367357D01*
X110740945Y-45713665D01*
X110748062Y-45708233D01*
X110756937Y-45709425D01*
G37*
G04 #@! TD.AperFunction*
G04 #@! TA.AperFunction,Conductor*
G36*
X143232285Y-45595068D02*
G01*
X143232489Y-45595529D01*
X143399125Y-45995500D01*
X143399144Y-46004455D01*
X143399125Y-46004500D01*
X143232489Y-46404470D01*
X143226144Y-46410789D01*
X143217189Y-46410770D01*
X143216728Y-46410566D01*
X142506739Y-46078155D01*
X142500699Y-46071544D01*
X142500000Y-46067559D01*
X142500000Y-45932440D01*
X142503427Y-45924167D01*
X142506735Y-45921846D01*
X143216730Y-45589432D01*
X143225674Y-45589028D01*
X143232285Y-45595068D01*
G37*
G04 #@! TD.AperFunction*
G04 #@! TA.AperFunction,Conductor*
G36*
X115194394Y-79183919D02*
G01*
X115775765Y-79401513D01*
X115841755Y-79426212D01*
X115848302Y-79432322D01*
X115848612Y-79441271D01*
X115848474Y-79441622D01*
X115702563Y-79796195D01*
X115696245Y-79802542D01*
X115696195Y-79802563D01*
X115341622Y-79948474D01*
X115332668Y-79948453D01*
X115326350Y-79942106D01*
X115326212Y-79941755D01*
X115139023Y-79441622D01*
X115083920Y-79294396D01*
X115084230Y-79285449D01*
X115086602Y-79282027D01*
X115182025Y-79186604D01*
X115190297Y-79183178D01*
X115194394Y-79183919D01*
G37*
G04 #@! TD.AperFunction*
G04 #@! TA.AperFunction,Conductor*
G36*
X100248126Y-63603427D02*
G01*
X100251435Y-63610045D01*
X100348097Y-64286683D01*
X100345875Y-64295358D01*
X100338170Y-64299920D01*
X100336548Y-64300038D01*
X100000033Y-64300999D01*
X99999967Y-64300999D01*
X99663451Y-64300038D01*
X99655187Y-64296587D01*
X99651784Y-64288305D01*
X99651902Y-64286683D01*
X99748565Y-63610045D01*
X99753127Y-63602340D01*
X99760147Y-63600000D01*
X100239853Y-63600000D01*
X100248126Y-63603427D01*
G37*
G04 #@! TD.AperFunction*
G04 #@! TA.AperFunction,Conductor*
G36*
X130275745Y-67803427D02*
G01*
X130278120Y-67806852D01*
X130564544Y-68435929D01*
X130564854Y-68444878D01*
X130558744Y-68451425D01*
X130558398Y-68451576D01*
X130204502Y-68599123D01*
X130195548Y-68599144D01*
X130195498Y-68599123D01*
X129841601Y-68451576D01*
X129835283Y-68445229D01*
X129835304Y-68436275D01*
X129835455Y-68435929D01*
X130121880Y-67806852D01*
X130128427Y-67800742D01*
X130132528Y-67800000D01*
X130267472Y-67800000D01*
X130275745Y-67803427D01*
G37*
G04 #@! TD.AperFunction*
G04 #@! TA.AperFunction,Conductor*
G36*
X127400256Y-90054194D02*
G01*
X127404892Y-90061855D01*
X127405026Y-90063621D01*
X127405026Y-90346013D01*
X127402593Y-90353156D01*
X127040955Y-90822317D01*
X127033190Y-90826777D01*
X127024545Y-90824441D01*
X127023429Y-90823462D01*
X126752453Y-90553441D01*
X126749012Y-90545174D01*
X126749012Y-90545124D01*
X126749492Y-90353156D01*
X126749974Y-90160021D01*
X126753422Y-90151759D01*
X126759906Y-90148487D01*
X127391561Y-90052055D01*
X127400256Y-90054194D01*
G37*
G04 #@! TD.AperFunction*
G04 #@! TA.AperFunction,Conductor*
G36*
X148058165Y-87724267D02*
G01*
X148895785Y-88421491D01*
X148899951Y-88429417D01*
X148900000Y-88430483D01*
X148900000Y-88719402D01*
X148896573Y-88727675D01*
X148895642Y-88728512D01*
X148058178Y-89403409D01*
X148049586Y-89405932D01*
X148042568Y-89402577D01*
X147207324Y-88568314D01*
X147203892Y-88560043D01*
X147207313Y-88551769D01*
X148042450Y-87724945D01*
X148050740Y-87721560D01*
X148058165Y-87724267D01*
G37*
G04 #@! TD.AperFunction*
G04 #@! TA.AperFunction,Conductor*
G36*
X146257511Y-75632502D02*
G01*
X147092712Y-76466722D01*
X147096144Y-76474993D01*
X147092722Y-76483268D01*
X147092712Y-76483278D01*
X146257511Y-77317497D01*
X146249236Y-77320919D01*
X146241805Y-77318251D01*
X145404262Y-76628509D01*
X145400054Y-76620604D01*
X145400000Y-76619477D01*
X145400000Y-76330522D01*
X145403427Y-76322249D01*
X145404262Y-76321490D01*
X146241806Y-75631747D01*
X146250370Y-75629134D01*
X146257511Y-75632502D01*
G37*
G04 #@! TD.AperFunction*
G04 #@! TA.AperFunction,Conductor*
G36*
X137165548Y-69034178D02*
G01*
X137365821Y-69234451D01*
X137369248Y-69242724D01*
X137368041Y-69247900D01*
X137074387Y-69843268D01*
X137067654Y-69849171D01*
X137059442Y-69848912D01*
X136703804Y-69702563D01*
X136697457Y-69696245D01*
X136697436Y-69696195D01*
X136551087Y-69340557D01*
X136551108Y-69331603D01*
X136556730Y-69325612D01*
X137152099Y-69031957D01*
X137161035Y-69031372D01*
X137165548Y-69034178D01*
G37*
G04 #@! TD.AperFunction*
G04 #@! TA.AperFunction,Conductor*
G36*
X143744203Y-60400519D02*
G01*
X143744387Y-60400938D01*
X144064134Y-61170511D01*
X144064143Y-61179466D01*
X144064134Y-61179489D01*
X143744387Y-61949061D01*
X143738048Y-61955386D01*
X143729093Y-61955377D01*
X143728674Y-61955193D01*
X142371792Y-61328138D01*
X142365719Y-61321556D01*
X142365000Y-61317517D01*
X142365000Y-61032482D01*
X142368427Y-61024209D01*
X142371792Y-61021861D01*
X143728674Y-60394806D01*
X143737621Y-60394446D01*
X143744203Y-60400519D01*
G37*
G04 #@! TD.AperFunction*
G04 #@! TA.AperFunction,Conductor*
G36*
X123251425Y-84541255D02*
G01*
X123251576Y-84541601D01*
X123399123Y-84895498D01*
X123399144Y-84904452D01*
X123399123Y-84904502D01*
X123251576Y-85258398D01*
X123245229Y-85264716D01*
X123236275Y-85264695D01*
X123235929Y-85264544D01*
X122606852Y-84978119D01*
X122600742Y-84971572D01*
X122600000Y-84967471D01*
X122600000Y-84832528D01*
X122603427Y-84824255D01*
X122606852Y-84821880D01*
X123235930Y-84535454D01*
X123244878Y-84535145D01*
X123251425Y-84541255D01*
G37*
G04 #@! TD.AperFunction*
G04 #@! TA.AperFunction,Conductor*
G36*
X108394394Y-47183919D02*
G01*
X108975765Y-47401513D01*
X109041755Y-47426212D01*
X109048302Y-47432322D01*
X109048612Y-47441271D01*
X109048474Y-47441622D01*
X108902563Y-47796195D01*
X108896245Y-47802542D01*
X108896195Y-47802563D01*
X108541622Y-47948474D01*
X108532668Y-47948453D01*
X108526350Y-47942106D01*
X108526212Y-47941755D01*
X108339023Y-47441622D01*
X108283920Y-47294396D01*
X108284230Y-47285449D01*
X108286602Y-47282027D01*
X108382025Y-47186604D01*
X108390297Y-47183178D01*
X108394394Y-47183919D01*
G37*
G04 #@! TD.AperFunction*
G04 #@! TA.AperFunction,Conductor*
G36*
X121695358Y-45354124D02*
G01*
X121699920Y-45361829D01*
X121700038Y-45363451D01*
X121701000Y-45700000D01*
X121701000Y-45700066D01*
X121700038Y-46036548D01*
X121696587Y-46044812D01*
X121688305Y-46048215D01*
X121686683Y-46048097D01*
X121010045Y-45951435D01*
X121002340Y-45946873D01*
X121000000Y-45939853D01*
X121000000Y-45460147D01*
X121003427Y-45451874D01*
X121010045Y-45448565D01*
X121686684Y-45351902D01*
X121695358Y-45354124D01*
G37*
G04 #@! TD.AperFunction*
G04 #@! TA.AperFunction,Conductor*
G36*
X92075958Y-90712378D02*
G01*
X92078203Y-90715527D01*
X92734859Y-92063554D01*
X92735402Y-92072493D01*
X92729465Y-92079196D01*
X92728830Y-92079483D01*
X91959489Y-92399134D01*
X91950534Y-92399143D01*
X91950511Y-92399134D01*
X91181782Y-92079738D01*
X91175457Y-92073399D01*
X91175466Y-92064444D01*
X91176025Y-92063284D01*
X91921661Y-90714989D01*
X91928664Y-90709407D01*
X91931900Y-90708951D01*
X92067685Y-90708951D01*
X92075958Y-90712378D01*
G37*
G04 #@! TD.AperFunction*
G04 #@! TA.AperFunction,Conductor*
G36*
X143501080Y-49678427D02*
G01*
X143503247Y-49681419D01*
X143827480Y-50322430D01*
X143828157Y-50331359D01*
X143825993Y-50335243D01*
X143358953Y-50890358D01*
X143351004Y-50894483D01*
X143342468Y-50891779D01*
X143341047Y-50890358D01*
X142874006Y-50335243D01*
X142871302Y-50326707D01*
X142872518Y-50322432D01*
X143196753Y-49681418D01*
X143203545Y-49675583D01*
X143207193Y-49675000D01*
X143492807Y-49675000D01*
X143501080Y-49678427D01*
G37*
G04 #@! TD.AperFunction*
G04 #@! TA.AperFunction,Conductor*
G36*
X133151425Y-66041255D02*
G01*
X133151576Y-66041601D01*
X133299123Y-66395498D01*
X133299144Y-66404452D01*
X133299123Y-66404502D01*
X133151576Y-66758398D01*
X133145229Y-66764716D01*
X133136275Y-66764695D01*
X133135929Y-66764544D01*
X132506852Y-66478119D01*
X132500742Y-66471572D01*
X132500000Y-66467471D01*
X132500000Y-66332528D01*
X132503427Y-66324255D01*
X132506852Y-66321880D01*
X133135930Y-66035454D01*
X133144878Y-66035145D01*
X133151425Y-66041255D01*
G37*
G04 #@! TD.AperFunction*
G04 #@! TA.AperFunction,Conductor*
G36*
X156757511Y-75617502D02*
G01*
X157592712Y-76451722D01*
X157596144Y-76459993D01*
X157592722Y-76468268D01*
X157592712Y-76468278D01*
X156757511Y-77302497D01*
X156749236Y-77305919D01*
X156741805Y-77303251D01*
X155904262Y-76613509D01*
X155900054Y-76605604D01*
X155900000Y-76604477D01*
X155900000Y-76315522D01*
X155903427Y-76307249D01*
X155904262Y-76306490D01*
X156741806Y-75616747D01*
X156750370Y-75614134D01*
X156757511Y-75617502D01*
G37*
G04 #@! TD.AperFunction*
G04 #@! TA.AperFunction,Conductor*
G36*
X147958176Y-75631589D02*
G01*
X148795642Y-76306488D01*
X148799933Y-76314347D01*
X148800000Y-76315597D01*
X148800000Y-76604516D01*
X148796573Y-76612789D01*
X148795785Y-76613508D01*
X147958166Y-77310730D01*
X147949615Y-77313389D01*
X147942449Y-77310052D01*
X147238901Y-76613508D01*
X147107359Y-76483276D01*
X147103892Y-76475022D01*
X147107277Y-76466732D01*
X147942570Y-75632421D01*
X147950843Y-75629000D01*
X147958176Y-75631589D01*
G37*
G04 #@! TD.AperFunction*
G04 #@! TA.AperFunction,Conductor*
G36*
X110261881Y-45206964D02*
G01*
X110742825Y-45691760D01*
X110746219Y-45700047D01*
X110742825Y-45708240D01*
X110261881Y-46193035D01*
X110253622Y-46196495D01*
X110246910Y-46194411D01*
X109755035Y-45853489D01*
X109750188Y-45845960D01*
X109750000Y-45843873D01*
X109750000Y-45556126D01*
X109753427Y-45547853D01*
X109755035Y-45546510D01*
X110244925Y-45206964D01*
X110246911Y-45205587D01*
X110255662Y-45203692D01*
X110261881Y-45206964D01*
G37*
G04 #@! TD.AperFunction*
G04 #@! TA.AperFunction,Conductor*
G36*
X107751413Y-50241255D02*
G01*
X107751491Y-50241437D01*
X107898839Y-50596210D01*
X107898848Y-50605165D01*
X107898833Y-50605200D01*
X107752049Y-50957266D01*
X107745702Y-50963584D01*
X107736748Y-50963563D01*
X107735400Y-50962896D01*
X107089461Y-50589946D01*
X107084010Y-50582842D01*
X107085179Y-50573964D01*
X107087034Y-50571545D01*
X107180757Y-50477822D01*
X107184355Y-50475372D01*
X107736016Y-50235197D01*
X107744969Y-50235037D01*
X107751413Y-50241255D01*
G37*
G04 #@! TD.AperFunction*
M02*
