G04 #@! TF.GenerationSoftware,KiCad,Pcbnew,8.0.6*
G04 #@! TF.CreationDate,2026-01-05T17:46:43-08:00*
G04 #@! TF.ProjectId,ADC_CS5381KKSZ_Board,4144435f-4353-4353-9338-314b4b535a5f,rev?*
G04 #@! TF.SameCoordinates,Original*
G04 #@! TF.FileFunction,Soldermask,Top*
G04 #@! TF.FilePolarity,Negative*
%FSLAX46Y46*%
G04 Gerber Fmt 4.6, Leading zero omitted, Abs format (unit mm)*
G04 Created by KiCad (PCBNEW 8.0.6) date 2026-01-05 17:46:43*
%MOMM*%
%LPD*%
G01*
G04 APERTURE LIST*
G04 Aperture macros list*
%AMRoundRect*
0 Rectangle with rounded corners*
0 $1 Rounding radius*
0 $2 $3 $4 $5 $6 $7 $8 $9 X,Y pos of 4 corners*
0 Add a 4 corners polygon primitive as box body*
4,1,4,$2,$3,$4,$5,$6,$7,$8,$9,$2,$3,0*
0 Add four circle primitives for the rounded corners*
1,1,$1+$1,$2,$3*
1,1,$1+$1,$4,$5*
1,1,$1+$1,$6,$7*
1,1,$1+$1,$8,$9*
0 Add four rect primitives between the rounded corners*
20,1,$1+$1,$2,$3,$4,$5,0*
20,1,$1+$1,$4,$5,$6,$7,0*
20,1,$1+$1,$6,$7,$8,$9,0*
20,1,$1+$1,$8,$9,$2,$3,0*%
G04 Aperture macros list end*
%ADD10RoundRect,0.250000X-0.250000X-0.475000X0.250000X-0.475000X0.250000X0.475000X-0.250000X0.475000X0*%
%ADD11RoundRect,0.250000X0.250000X0.475000X-0.250000X0.475000X-0.250000X-0.475000X0.250000X-0.475000X0*%
%ADD12RoundRect,0.250000X-0.475000X0.250000X-0.475000X-0.250000X0.475000X-0.250000X0.475000X0.250000X0*%
%ADD13RoundRect,0.250000X0.475000X-0.250000X0.475000X0.250000X-0.475000X0.250000X-0.475000X-0.250000X0*%
%ADD14RoundRect,0.250000X-0.262500X-0.450000X0.262500X-0.450000X0.262500X0.450000X-0.262500X0.450000X0*%
%ADD15R,1.320800X0.558800*%
%ADD16R,1.700000X1.700000*%
%ADD17O,1.700000X1.700000*%
%ADD18RoundRect,0.075000X0.075000X-0.325000X0.075000X0.325000X-0.075000X0.325000X-0.075000X-0.325000X0*%
%ADD19R,2.050000X1.700000*%
%ADD20R,1.300000X0.600000*%
%ADD21R,0.300000X1.000000*%
%ADD22R,1.650000X1.300000*%
%ADD23RoundRect,0.250000X0.450000X-0.262500X0.450000X0.262500X-0.450000X0.262500X-0.450000X-0.262500X0*%
%ADD24R,0.650000X1.100000*%
%ADD25R,1.528000X0.650000*%
%ADD26RoundRect,0.250000X-0.450000X0.262500X-0.450000X-0.262500X0.450000X-0.262500X0.450000X0.262500X0*%
%ADD27RoundRect,0.250000X0.262500X0.450000X-0.262500X0.450000X-0.262500X-0.450000X0.262500X-0.450000X0*%
%ADD28RoundRect,0.150000X0.150000X-0.875000X0.150000X0.875000X-0.150000X0.875000X-0.150000X-0.875000X0*%
%ADD29R,1.400000X1.200000*%
%ADD30C,6.400000*%
%ADD31RoundRect,0.150000X0.512500X0.150000X-0.512500X0.150000X-0.512500X-0.150000X0.512500X-0.150000X0*%
%ADD32R,1.650000X1.650000*%
%ADD33C,1.650000*%
%ADD34R,0.600000X1.300000*%
%ADD35R,0.300000X0.850000*%
%ADD36R,0.850000X0.300000*%
%ADD37R,2.650000X2.650000*%
%ADD38RoundRect,0.075000X0.325000X0.075000X-0.325000X0.075000X-0.325000X-0.075000X0.325000X-0.075000X0*%
%ADD39R,1.700000X2.050000*%
%ADD40R,2.150000X1.550000*%
%ADD41C,2.900000*%
G04 APERTURE END LIST*
D10*
X124800000Y-48800000D03*
X126700000Y-48800000D03*
D11*
X139237500Y-47975000D03*
X137337500Y-47975000D03*
D10*
X129115000Y-88495000D03*
X131015000Y-88495000D03*
D12*
X107670000Y-78050000D03*
X107670000Y-79950000D03*
D13*
X118100000Y-69600000D03*
X118100000Y-67700000D03*
D14*
X114662500Y-48125000D03*
X116487500Y-48125000D03*
D15*
X85676100Y-63649999D03*
X85676100Y-65550001D03*
X87708100Y-64600000D03*
D11*
X127115000Y-86095000D03*
X125215000Y-86095000D03*
D10*
X109250000Y-63600000D03*
X111150000Y-63600000D03*
D16*
X147100000Y-76475000D03*
D17*
X147100000Y-79015000D03*
X147100000Y-81555000D03*
D18*
X81390000Y-81235000D03*
X82040000Y-81235000D03*
X82690000Y-81235000D03*
X83340000Y-81235000D03*
X83340000Y-78335000D03*
X82690000Y-78335000D03*
X82040000Y-78335000D03*
X81390000Y-78335000D03*
D19*
X82365000Y-79785000D03*
D10*
X110825000Y-50525000D03*
X112725000Y-50525000D03*
D20*
X89900000Y-82670000D03*
X89900000Y-84730000D03*
X92000000Y-83700000D03*
D21*
X121950000Y-94975000D03*
X122450000Y-94975000D03*
X122950000Y-94975000D03*
X123450000Y-94975000D03*
X123950000Y-94975000D03*
X124450000Y-94975000D03*
X124950000Y-94975000D03*
X125450000Y-94975000D03*
X125950000Y-94975000D03*
X126450000Y-94975000D03*
D22*
X119675000Y-96875000D03*
X128725000Y-96875000D03*
D23*
X92757500Y-68612500D03*
X92757500Y-66787500D03*
D24*
X82735000Y-66160000D03*
X80815000Y-66160000D03*
X81775000Y-68260000D03*
D16*
X147200000Y-88560000D03*
D17*
X147200000Y-91100000D03*
X147200000Y-93640000D03*
D11*
X127115000Y-88495000D03*
X125215000Y-88495000D03*
D12*
X119800000Y-57950000D03*
X119800000Y-59850000D03*
D16*
X157600000Y-76460000D03*
D17*
X157600000Y-79000000D03*
X157600000Y-81540000D03*
D25*
X105678000Y-65790000D03*
X105678000Y-67060000D03*
X105678000Y-68330000D03*
X105678000Y-69600000D03*
X111100000Y-69600000D03*
X111100000Y-68330000D03*
X111100000Y-67060000D03*
X111100000Y-65790000D03*
D16*
X141525000Y-61175000D03*
D17*
X144065000Y-61175000D03*
X141525000Y-63715000D03*
X144065000Y-63715000D03*
X141525000Y-66255000D03*
X144065000Y-66255000D03*
D12*
X118200000Y-72800000D03*
X118200000Y-74700000D03*
D11*
X139237500Y-50325000D03*
X137337500Y-50325000D03*
D16*
X157600000Y-88575000D03*
D17*
X157600000Y-91115000D03*
X157600000Y-93655000D03*
D11*
X99757500Y-65882500D03*
X97857500Y-65882500D03*
D10*
X129115000Y-86095000D03*
X131015000Y-86095000D03*
D26*
X118575000Y-50312500D03*
X118575000Y-52137500D03*
D10*
X124800000Y-46500000D03*
X126700000Y-46500000D03*
D26*
X133275000Y-59600000D03*
X133275000Y-61425000D03*
D12*
X99957500Y-70682500D03*
X99957500Y-72582500D03*
D14*
X114662500Y-50525000D03*
X116487500Y-50525000D03*
D27*
X82787500Y-63810000D03*
X80962500Y-63810000D03*
D13*
X120400000Y-69600000D03*
X120400000Y-67700000D03*
D11*
X124125000Y-63525000D03*
X122225000Y-63525000D03*
D10*
X126675000Y-57925000D03*
X128575000Y-57925000D03*
D26*
X131387500Y-50112500D03*
X131387500Y-51937500D03*
D13*
X79300000Y-81350000D03*
X79300000Y-79450000D03*
D28*
X120615000Y-81695000D03*
X121885000Y-81695000D03*
X123155000Y-81695000D03*
X124425000Y-81695000D03*
X125695000Y-81695000D03*
X126965000Y-81695000D03*
X128235000Y-81695000D03*
X129505000Y-81695000D03*
X130775000Y-81695000D03*
X132045000Y-81695000D03*
X133315000Y-81695000D03*
X134585000Y-81695000D03*
X134585000Y-72395000D03*
X133315000Y-72395000D03*
X132045000Y-72395000D03*
X130775000Y-72395000D03*
X129505000Y-72395000D03*
X128235000Y-72395000D03*
X126965000Y-72395000D03*
X125695000Y-72395000D03*
X124425000Y-72395000D03*
X123155000Y-72395000D03*
X121885000Y-72395000D03*
X120615000Y-72395000D03*
D10*
X81355000Y-75360000D03*
X83255000Y-75360000D03*
D12*
X115900000Y-72800000D03*
X115900000Y-74700000D03*
D29*
X110730000Y-80100000D03*
X113270000Y-80100000D03*
X113270000Y-77900000D03*
X110730000Y-77900000D03*
D13*
X84557500Y-72550000D03*
X84557500Y-70650000D03*
D30*
X166000000Y-54000000D03*
D26*
X133100000Y-85875000D03*
X133100000Y-87700000D03*
D27*
X135300000Y-50325000D03*
X133475000Y-50325000D03*
X134812500Y-69600000D03*
X132987500Y-69600000D03*
D31*
X96675000Y-84650000D03*
X96675000Y-83700000D03*
X96675000Y-82750000D03*
X94400000Y-82750000D03*
X94400000Y-84650000D03*
D23*
X92757500Y-72507500D03*
X92757500Y-70682500D03*
D32*
X88000000Y-58450000D03*
D33*
X85500000Y-58450000D03*
X83000000Y-58450000D03*
D34*
X97260000Y-74600000D03*
X95200000Y-74600000D03*
X96230000Y-76700000D03*
D26*
X121975000Y-59512500D03*
X121975000Y-61337500D03*
D27*
X135312500Y-47925000D03*
X133487500Y-47925000D03*
D12*
X119775000Y-54175000D03*
X119775000Y-56075000D03*
D11*
X99757500Y-68382500D03*
X97857500Y-68382500D03*
D16*
X99575000Y-92400000D03*
D17*
X99575000Y-94940000D03*
X97035000Y-92400000D03*
X97035000Y-94940000D03*
X94495000Y-92400000D03*
X94495000Y-94940000D03*
X91955000Y-92400000D03*
X91955000Y-94940000D03*
X89415000Y-92400000D03*
X89415000Y-94940000D03*
D14*
X116117500Y-77900000D03*
X117942500Y-77900000D03*
D11*
X133225000Y-63625000D03*
X131325000Y-63625000D03*
D26*
X102970000Y-78087500D03*
X102970000Y-79912500D03*
D10*
X82750000Y-83300000D03*
X84650000Y-83300000D03*
D35*
X126925000Y-51775000D03*
X126425000Y-51775000D03*
X125925000Y-51775000D03*
X125425000Y-51775000D03*
X124925000Y-51775000D03*
X124425000Y-51775000D03*
D36*
X123725000Y-52475000D03*
X123725000Y-52975000D03*
X123725000Y-53475000D03*
X123725000Y-53975000D03*
X123725000Y-54475000D03*
X123725000Y-54975000D03*
D35*
X124425000Y-55675000D03*
X124925000Y-55675000D03*
X125425000Y-55675000D03*
X125925000Y-55675000D03*
X126425000Y-55675000D03*
X126925000Y-55675000D03*
D36*
X127625000Y-54975000D03*
X127625000Y-54475000D03*
X127625000Y-53975000D03*
X127625000Y-53475000D03*
X127625000Y-52975000D03*
X127625000Y-52475000D03*
D37*
X125675000Y-53725000D03*
D38*
X90332500Y-72565000D03*
X90332500Y-71915000D03*
X90332500Y-71265000D03*
X90332500Y-70615000D03*
X87432500Y-70615000D03*
X87432500Y-71265000D03*
X87432500Y-71915000D03*
X87432500Y-72565000D03*
D39*
X88882500Y-71590000D03*
D26*
X130975000Y-59600000D03*
X130975000Y-61425000D03*
X124175000Y-59512500D03*
X124175000Y-61337500D03*
D23*
X118600000Y-48312500D03*
X118600000Y-46487500D03*
D26*
X131400000Y-46287500D03*
X131400000Y-48112500D03*
D30*
X74000000Y-54000000D03*
D40*
X80950000Y-71200000D03*
X75450000Y-71200000D03*
D30*
X166000000Y-96000000D03*
D13*
X95157500Y-72532500D03*
X95157500Y-70632500D03*
D10*
X110775000Y-48112500D03*
X112675000Y-48112500D03*
D30*
X74000000Y-96000000D03*
D13*
X97557500Y-72532500D03*
X97557500Y-70632500D03*
D12*
X105270000Y-78050000D03*
X105270000Y-79950000D03*
X117475000Y-54175000D03*
X117475000Y-56075000D03*
D41*
X104200000Y-47200000D03*
X145740000Y-47200000D03*
M02*
