G04 #@! TF.GenerationSoftware,KiCad,Pcbnew,8.0.6*
G04 #@! TF.CreationDate,2026-01-05T17:46:43-08:00*
G04 #@! TF.ProjectId,ADC_CS5381KKSZ_Board,4144435f-4353-4353-9338-314b4b535a5f,rev?*
G04 #@! TF.SameCoordinates,Original*
G04 #@! TF.FileFunction,Copper,L2,Inr*
G04 #@! TF.FilePolarity,Positive*
%FSLAX46Y46*%
G04 Gerber Fmt 4.6, Leading zero omitted, Abs format (unit mm)*
G04 Created by KiCad (PCBNEW 8.0.6) date 2026-01-05 17:46:43*
%MOMM*%
%LPD*%
G01*
G04 APERTURE LIST*
G04 #@! TA.AperFunction,ComponentPad*
%ADD10O,1.700000X1.700000*%
G04 #@! TD*
G04 #@! TA.AperFunction,ComponentPad*
%ADD11C,6.400000*%
G04 #@! TD*
G04 #@! TA.AperFunction,ComponentPad*
%ADD12C,1.650000*%
G04 #@! TD*
G04 #@! TA.AperFunction,ComponentPad*
%ADD13C,2.900000*%
G04 #@! TD*
G04 #@! TA.AperFunction,ViaPad*
%ADD14C,0.700000*%
G04 #@! TD*
G04 #@! TA.AperFunction,ViaPad*
%ADD15C,0.800000*%
G04 #@! TD*
G04 APERTURE END LIST*
D10*
X147100000Y-81555000D03*
X147200000Y-93640000D03*
X157600000Y-81540000D03*
X141525000Y-66255000D03*
X144065000Y-66255000D03*
X157600000Y-93655000D03*
D11*
X166000000Y-54000000D03*
D12*
X85500000Y-58450000D03*
D10*
X99575000Y-94940000D03*
X97035000Y-94940000D03*
X94495000Y-94940000D03*
X91955000Y-94940000D03*
X89415000Y-94940000D03*
D11*
X74000000Y-54000000D03*
X166000000Y-96000000D03*
X74000000Y-96000000D03*
D13*
X104200000Y-47200000D03*
X145740000Y-47200000D03*
D14*
X127400000Y-79600000D03*
X135600000Y-53400000D03*
X115700000Y-81500000D03*
X113800000Y-56600000D03*
X136400000Y-62600000D03*
X91800000Y-59100000D03*
X99600000Y-79200000D03*
X131500000Y-91400000D03*
X102900000Y-69400000D03*
X77900000Y-75900000D03*
X136300000Y-64400000D03*
X135500000Y-45000000D03*
X149300000Y-65600000D03*
X136400000Y-66200000D03*
X122800000Y-86200000D03*
X81100000Y-89700000D03*
D15*
X75900000Y-84300000D03*
D14*
X111200000Y-71900000D03*
X120700000Y-86200000D03*
X134800000Y-62500000D03*
X110400000Y-83300000D03*
D15*
X136500000Y-84500000D03*
D14*
X140600000Y-80000000D03*
X120500000Y-44900000D03*
X97800000Y-59300000D03*
X108800000Y-49300000D03*
X133500000Y-52400000D03*
D15*
X136500000Y-86400000D03*
D14*
X100400000Y-55700000D03*
X97200000Y-53000000D03*
X85200000Y-76800000D03*
X125700000Y-66400000D03*
X99900000Y-81600000D03*
X106600000Y-81400000D03*
X134300000Y-56900000D03*
X126000000Y-75500000D03*
X128200000Y-68600000D03*
X137900000Y-54100000D03*
X134900000Y-67900000D03*
X129000000Y-62200000D03*
X112400000Y-61600000D03*
X116200000Y-90300000D03*
X97800000Y-61500000D03*
X101900000Y-73800000D03*
X104400000Y-53300000D03*
X139600000Y-46200000D03*
X139600000Y-72400000D03*
X133500000Y-45000000D03*
X148800000Y-49800000D03*
X123300000Y-87500000D03*
X139300000Y-77900000D03*
D15*
X75900000Y-86600000D03*
D14*
X122800000Y-75400000D03*
X103800000Y-71800000D03*
X109700000Y-76200000D03*
X137800000Y-71000000D03*
X112300000Y-73500000D03*
X112600000Y-55400000D03*
X142000000Y-53000000D03*
X114400000Y-59100000D03*
X85800000Y-74300000D03*
X103800000Y-73800000D03*
X141700000Y-50400000D03*
X88500000Y-80200000D03*
X142500000Y-55100000D03*
X132600000Y-67700000D03*
D15*
X91600000Y-76200000D03*
D14*
X112900000Y-52800000D03*
D15*
X95200000Y-65600000D03*
X128400000Y-45100000D03*
D14*
X141400000Y-81700000D03*
X128300000Y-70200000D03*
X90400000Y-67100000D03*
X114600000Y-55400000D03*
X122400000Y-46900000D03*
X117700000Y-88700000D03*
X110500000Y-90400000D03*
X116500000Y-62100000D03*
X118900000Y-90700000D03*
X112500000Y-83300000D03*
D15*
X82900000Y-70700000D03*
D14*
X95100000Y-56800000D03*
X102500000Y-59300000D03*
X106500000Y-53200000D03*
X135600000Y-55700000D03*
X141400000Y-77900000D03*
D15*
X76200000Y-89000000D03*
D14*
X95200000Y-63600000D03*
X114500000Y-67100000D03*
X149300000Y-67900000D03*
X113500000Y-71900000D03*
X137200000Y-52300000D03*
X123300000Y-49700000D03*
X141400000Y-83300000D03*
D15*
X131100000Y-94700000D03*
X77800000Y-68300000D03*
D14*
X102100000Y-61100000D03*
X91400000Y-57000000D03*
X140400000Y-70500000D03*
X104000000Y-57900000D03*
X113300000Y-90400000D03*
X86200000Y-82100000D03*
X105700000Y-71800000D03*
X112400000Y-59200000D03*
X91800000Y-61600000D03*
X129000000Y-59900000D03*
D15*
X75500000Y-74000000D03*
D14*
X137200000Y-91700000D03*
X100700000Y-77800000D03*
X121100000Y-90100000D03*
X127600000Y-91900000D03*
X129600000Y-91400000D03*
X77900000Y-74000000D03*
X138000000Y-58900000D03*
X145200000Y-53400000D03*
X137100000Y-77900000D03*
X105700000Y-73800000D03*
X115500000Y-65200000D03*
X136400000Y-60700000D03*
X149300000Y-63300000D03*
D15*
X96900000Y-80900000D03*
D14*
X91100000Y-64200000D03*
X131600000Y-78000000D03*
X107700000Y-82500000D03*
D15*
X117400000Y-94600000D03*
D14*
X134800000Y-64400000D03*
X137500000Y-45000000D03*
X98800000Y-57100000D03*
X136200000Y-71000000D03*
X98800000Y-62400000D03*
D15*
X136500000Y-88400000D03*
D14*
X79200000Y-77300000D03*
X120600000Y-88000000D03*
X147500000Y-53500000D03*
X106500000Y-51300000D03*
X109800000Y-61400000D03*
X125300000Y-84200000D03*
X107900000Y-56200000D03*
X107700000Y-71800000D03*
X98100000Y-76800000D03*
X138100000Y-80800000D03*
X120900000Y-79200000D03*
X147200000Y-59600000D03*
X97800000Y-63500000D03*
X112700000Y-65700000D03*
X135100000Y-75300000D03*
X149400000Y-58800000D03*
X129000000Y-63800000D03*
X86300000Y-89800000D03*
X102200000Y-65000000D03*
X105500000Y-56500000D03*
D15*
X75900000Y-82100000D03*
D14*
X88500000Y-82000000D03*
X132900000Y-55700000D03*
X83700000Y-89800000D03*
X102200000Y-54100000D03*
X141800000Y-58300000D03*
X86200000Y-80200000D03*
X108900000Y-51400000D03*
X136800000Y-57000000D03*
X123000000Y-88900000D03*
X150300000Y-54400000D03*
X88500000Y-67100000D03*
X78800000Y-89700000D03*
X88400000Y-68800000D03*
X124400000Y-79500000D03*
X135300000Y-58800000D03*
X90400000Y-68800000D03*
X130000000Y-79600000D03*
X115500000Y-45000000D03*
X134800000Y-66200000D03*
X129100000Y-67300000D03*
X140900000Y-45000000D03*
X140100000Y-57300000D03*
X120700000Y-75400000D03*
X123300000Y-48000000D03*
D15*
X89300000Y-77000000D03*
D14*
X100000000Y-83400000D03*
D15*
X72100000Y-71200000D03*
D14*
X146800000Y-57600000D03*
X136400000Y-67900000D03*
X134300000Y-77900000D03*
D15*
X140100000Y-88200000D03*
D14*
X134700000Y-91700000D03*
X125200000Y-90300000D03*
X146400000Y-55100000D03*
X140000000Y-52400000D03*
X130800000Y-53500000D03*
X113600000Y-68300000D03*
X114800000Y-82900000D03*
X109800000Y-59600000D03*
D15*
X140100000Y-85800000D03*
D14*
X152400000Y-56600000D03*
X99000000Y-51400000D03*
X129700000Y-65500000D03*
X112300000Y-76200000D03*
X101400000Y-62900000D03*
X123200000Y-58100000D03*
X95200000Y-59300000D03*
X95300000Y-54600000D03*
X104300000Y-51200000D03*
X125900000Y-59900000D03*
X95200000Y-61500000D03*
G04 #@! TA.AperFunction,Conductor*
G36*
X91489075Y-94747007D02*
G01*
X91455000Y-94874174D01*
X91455000Y-95005826D01*
X91489075Y-95132993D01*
X91521988Y-95190000D01*
X89848012Y-95190000D01*
X89880925Y-95132993D01*
X89915000Y-95005826D01*
X89915000Y-94874174D01*
X89880925Y-94747007D01*
X89848012Y-94690000D01*
X91521988Y-94690000D01*
X91489075Y-94747007D01*
G37*
G04 #@! TD.AperFunction*
G04 #@! TA.AperFunction,Conductor*
G36*
X94029075Y-94747007D02*
G01*
X93995000Y-94874174D01*
X93995000Y-95005826D01*
X94029075Y-95132993D01*
X94061988Y-95190000D01*
X92388012Y-95190000D01*
X92420925Y-95132993D01*
X92455000Y-95005826D01*
X92455000Y-94874174D01*
X92420925Y-94747007D01*
X92388012Y-94690000D01*
X94061988Y-94690000D01*
X94029075Y-94747007D01*
G37*
G04 #@! TD.AperFunction*
G04 #@! TA.AperFunction,Conductor*
G36*
X96569075Y-94747007D02*
G01*
X96535000Y-94874174D01*
X96535000Y-95005826D01*
X96569075Y-95132993D01*
X96601988Y-95190000D01*
X94928012Y-95190000D01*
X94960925Y-95132993D01*
X94995000Y-95005826D01*
X94995000Y-94874174D01*
X94960925Y-94747007D01*
X94928012Y-94690000D01*
X96601988Y-94690000D01*
X96569075Y-94747007D01*
G37*
G04 #@! TD.AperFunction*
G04 #@! TA.AperFunction,Conductor*
G36*
X99109075Y-94747007D02*
G01*
X99075000Y-94874174D01*
X99075000Y-95005826D01*
X99109075Y-95132993D01*
X99141988Y-95190000D01*
X97468012Y-95190000D01*
X97500925Y-95132993D01*
X97535000Y-95005826D01*
X97535000Y-94874174D01*
X97500925Y-94747007D01*
X97468012Y-94690000D01*
X99141988Y-94690000D01*
X99109075Y-94747007D01*
G37*
G04 #@! TD.AperFunction*
G04 #@! TA.AperFunction,Conductor*
G36*
X143599075Y-66062007D02*
G01*
X143565000Y-66189174D01*
X143565000Y-66320826D01*
X143599075Y-66447993D01*
X143631988Y-66505000D01*
X141958012Y-66505000D01*
X141990925Y-66447993D01*
X142025000Y-66320826D01*
X142025000Y-66189174D01*
X141990925Y-66062007D01*
X141958012Y-66005000D01*
X143631988Y-66005000D01*
X143599075Y-66062007D01*
G37*
G04 #@! TD.AperFunction*
G04 #@! TA.AperFunction,Conductor*
G36*
X148307788Y-44303826D02*
G01*
X148511681Y-44319877D01*
X148530891Y-44322921D01*
X148725002Y-44369527D01*
X148743498Y-44375537D01*
X148927903Y-44451925D01*
X148927932Y-44451937D01*
X148945268Y-44460771D01*
X149115469Y-44565074D01*
X149131211Y-44576511D01*
X149144489Y-44587852D01*
X149282991Y-44706148D01*
X149283008Y-44706162D01*
X149296766Y-44719921D01*
X149426405Y-44871713D01*
X149437842Y-44887454D01*
X149542147Y-45057668D01*
X149550980Y-45075005D01*
X149627370Y-45259428D01*
X149633383Y-45277933D01*
X149679984Y-45472043D01*
X149683028Y-45491261D01*
X149699118Y-45695701D01*
X149699500Y-45705430D01*
X149699500Y-50039562D01*
X149709912Y-50078419D01*
X149719979Y-50115990D01*
X149719982Y-50115995D01*
X149759535Y-50184504D01*
X149759539Y-50184509D01*
X149759540Y-50184511D01*
X149815489Y-50240460D01*
X149815491Y-50240461D01*
X149815495Y-50240464D01*
X149849394Y-50260035D01*
X149884011Y-50280021D01*
X149960438Y-50300500D01*
X150039562Y-50300500D01*
X164643898Y-50300500D01*
X164710937Y-50320185D01*
X164756692Y-50372989D01*
X164766636Y-50442147D01*
X164737611Y-50505703D01*
X164688336Y-50540264D01*
X164493005Y-50615244D01*
X164147456Y-50791310D01*
X163822206Y-51002531D01*
X163564648Y-51211095D01*
X163564648Y-51211096D01*
X165059301Y-52705748D01*
X164957670Y-52779588D01*
X164779588Y-52957670D01*
X164705748Y-53059300D01*
X163211096Y-51564648D01*
X163211095Y-51564648D01*
X163002531Y-51822206D01*
X162791310Y-52147456D01*
X162615244Y-52493005D01*
X162476262Y-52855063D01*
X162375887Y-53229669D01*
X162375886Y-53229676D01*
X162315219Y-53612712D01*
X162294922Y-53999999D01*
X162294922Y-54000000D01*
X162315219Y-54387287D01*
X162375886Y-54770323D01*
X162375887Y-54770330D01*
X162476262Y-55144936D01*
X162615244Y-55506994D01*
X162791310Y-55852543D01*
X163002531Y-56177793D01*
X163211095Y-56435350D01*
X163211096Y-56435350D01*
X164705748Y-54940698D01*
X164779588Y-55042330D01*
X164957670Y-55220412D01*
X165059300Y-55294251D01*
X163564648Y-56788903D01*
X163564649Y-56788904D01*
X163822206Y-56997468D01*
X164147456Y-57208689D01*
X164493005Y-57384755D01*
X164855063Y-57523737D01*
X165229669Y-57624112D01*
X165229676Y-57624113D01*
X165612712Y-57684780D01*
X165999999Y-57705078D01*
X166000001Y-57705078D01*
X166387287Y-57684780D01*
X166770323Y-57624113D01*
X166770330Y-57624112D01*
X167144936Y-57523737D01*
X167506994Y-57384755D01*
X167852543Y-57208689D01*
X168177783Y-56997476D01*
X168177785Y-56997475D01*
X168435349Y-56788902D01*
X166940698Y-55294251D01*
X167042330Y-55220412D01*
X167220412Y-55042330D01*
X167294251Y-54940698D01*
X168788902Y-56435349D01*
X168997475Y-56177785D01*
X168997476Y-56177783D01*
X169208689Y-55852543D01*
X169384755Y-55506994D01*
X169459736Y-55311664D01*
X169502138Y-55256132D01*
X169567832Y-55232339D01*
X169635960Y-55247841D01*
X169684893Y-55297714D01*
X169699500Y-55356102D01*
X169699500Y-94643897D01*
X169679815Y-94710936D01*
X169627011Y-94756691D01*
X169557853Y-94766635D01*
X169494297Y-94737610D01*
X169459736Y-94688335D01*
X169384755Y-94493005D01*
X169208689Y-94147456D01*
X168997468Y-93822206D01*
X168788904Y-93564649D01*
X168788903Y-93564648D01*
X167294251Y-95059300D01*
X167220412Y-94957670D01*
X167042330Y-94779588D01*
X166940698Y-94705748D01*
X168435350Y-93211096D01*
X168435350Y-93211095D01*
X168177793Y-93002531D01*
X167852543Y-92791310D01*
X167506994Y-92615244D01*
X167144936Y-92476262D01*
X166770330Y-92375887D01*
X166770323Y-92375886D01*
X166387287Y-92315219D01*
X166000001Y-92294922D01*
X165999999Y-92294922D01*
X165612712Y-92315219D01*
X165229676Y-92375886D01*
X165229669Y-92375887D01*
X164855063Y-92476262D01*
X164493005Y-92615244D01*
X164147456Y-92791310D01*
X163822206Y-93002531D01*
X163564648Y-93211095D01*
X163564648Y-93211096D01*
X165059301Y-94705748D01*
X164957670Y-94779588D01*
X164779588Y-94957670D01*
X164705748Y-95059300D01*
X163211096Y-93564648D01*
X163211095Y-93564648D01*
X163002531Y-93822206D01*
X162791310Y-94147456D01*
X162615244Y-94493005D01*
X162476262Y-94855063D01*
X162375887Y-95229669D01*
X162375886Y-95229676D01*
X162315219Y-95612712D01*
X162294922Y-95999999D01*
X162294922Y-96000000D01*
X162315219Y-96387287D01*
X162375886Y-96770323D01*
X162375887Y-96770330D01*
X162476262Y-97144936D01*
X162615244Y-97506994D01*
X162791310Y-97852543D01*
X163002531Y-98177793D01*
X163211095Y-98435350D01*
X163211096Y-98435350D01*
X164705748Y-96940698D01*
X164779588Y-97042330D01*
X164957670Y-97220412D01*
X165059300Y-97294251D01*
X163564648Y-98788903D01*
X163564649Y-98788904D01*
X163822206Y-98997468D01*
X164147456Y-99208689D01*
X164493005Y-99384755D01*
X164688336Y-99459736D01*
X164743868Y-99502138D01*
X164767661Y-99567832D01*
X164752159Y-99635960D01*
X164702286Y-99684893D01*
X164643898Y-99699500D01*
X75356102Y-99699500D01*
X75289063Y-99679815D01*
X75243308Y-99627011D01*
X75233364Y-99557853D01*
X75262389Y-99494297D01*
X75311664Y-99459736D01*
X75506994Y-99384755D01*
X75852543Y-99208689D01*
X76177783Y-98997476D01*
X76177785Y-98997475D01*
X76435349Y-98788902D01*
X74940698Y-97294251D01*
X75042330Y-97220412D01*
X75220412Y-97042330D01*
X75294251Y-96940698D01*
X76788902Y-98435349D01*
X76997475Y-98177785D01*
X76997476Y-98177783D01*
X77208689Y-97852543D01*
X77384755Y-97506994D01*
X77523737Y-97144936D01*
X77624112Y-96770330D01*
X77624113Y-96770323D01*
X77684780Y-96387287D01*
X77705078Y-96000000D01*
X77705078Y-95999999D01*
X77684780Y-95612712D01*
X77624113Y-95229676D01*
X77624112Y-95229669D01*
X77523737Y-94855063D01*
X77460374Y-94689999D01*
X88084364Y-94689999D01*
X88084364Y-94690000D01*
X88981988Y-94690000D01*
X88949075Y-94747007D01*
X88915000Y-94874174D01*
X88915000Y-95005826D01*
X88949075Y-95132993D01*
X88981988Y-95190000D01*
X88084364Y-95190000D01*
X88141567Y-95403486D01*
X88141570Y-95403492D01*
X88241399Y-95617578D01*
X88376894Y-95811082D01*
X88543917Y-95978105D01*
X88737421Y-96113600D01*
X88951507Y-96213429D01*
X88951516Y-96213433D01*
X89165000Y-96270634D01*
X89165000Y-95373012D01*
X89222007Y-95405925D01*
X89349174Y-95440000D01*
X89480826Y-95440000D01*
X89607993Y-95405925D01*
X89665000Y-95373012D01*
X89665000Y-96270634D01*
X89878483Y-96213433D01*
X89878492Y-96213429D01*
X90092578Y-96113600D01*
X90286082Y-95978105D01*
X90453105Y-95811082D01*
X90583425Y-95624968D01*
X90638002Y-95581344D01*
X90707501Y-95574151D01*
X90769855Y-95605673D01*
X90786575Y-95624968D01*
X90916894Y-95811082D01*
X91083917Y-95978105D01*
X91277421Y-96113600D01*
X91491507Y-96213429D01*
X91491516Y-96213433D01*
X91705000Y-96270634D01*
X91705000Y-95373012D01*
X91762007Y-95405925D01*
X91889174Y-95440000D01*
X92020826Y-95440000D01*
X92147993Y-95405925D01*
X92205000Y-95373012D01*
X92205000Y-96270633D01*
X92418483Y-96213433D01*
X92418492Y-96213429D01*
X92632578Y-96113600D01*
X92826082Y-95978105D01*
X92993105Y-95811082D01*
X93123425Y-95624968D01*
X93178002Y-95581344D01*
X93247501Y-95574151D01*
X93309855Y-95605673D01*
X93326575Y-95624968D01*
X93456894Y-95811082D01*
X93623917Y-95978105D01*
X93817421Y-96113600D01*
X94031507Y-96213429D01*
X94031516Y-96213433D01*
X94245000Y-96270634D01*
X94245000Y-95373012D01*
X94302007Y-95405925D01*
X94429174Y-95440000D01*
X94560826Y-95440000D01*
X94687993Y-95405925D01*
X94745000Y-95373012D01*
X94745000Y-96270633D01*
X94958483Y-96213433D01*
X94958492Y-96213429D01*
X95172578Y-96113600D01*
X95366082Y-95978105D01*
X95533105Y-95811082D01*
X95663425Y-95624968D01*
X95718002Y-95581344D01*
X95787501Y-95574151D01*
X95849855Y-95605673D01*
X95866575Y-95624968D01*
X95996894Y-95811082D01*
X96163917Y-95978105D01*
X96357421Y-96113600D01*
X96571507Y-96213429D01*
X96571516Y-96213433D01*
X96785000Y-96270634D01*
X96785000Y-95373012D01*
X96842007Y-95405925D01*
X96969174Y-95440000D01*
X97100826Y-95440000D01*
X97227993Y-95405925D01*
X97285000Y-95373012D01*
X97285000Y-96270633D01*
X97498483Y-96213433D01*
X97498492Y-96213429D01*
X97712578Y-96113600D01*
X97906082Y-95978105D01*
X98073105Y-95811082D01*
X98203425Y-95624968D01*
X98258002Y-95581344D01*
X98327501Y-95574151D01*
X98389855Y-95605673D01*
X98406575Y-95624968D01*
X98536894Y-95811082D01*
X98703917Y-95978105D01*
X98897421Y-96113600D01*
X99111507Y-96213429D01*
X99111516Y-96213433D01*
X99325000Y-96270634D01*
X99325000Y-95373012D01*
X99382007Y-95405925D01*
X99509174Y-95440000D01*
X99640826Y-95440000D01*
X99767993Y-95405925D01*
X99825000Y-95373012D01*
X99825000Y-96270633D01*
X100038483Y-96213433D01*
X100038492Y-96213429D01*
X100252578Y-96113600D01*
X100446082Y-95978105D01*
X100613105Y-95811082D01*
X100748600Y-95617578D01*
X100848429Y-95403492D01*
X100848432Y-95403486D01*
X100905636Y-95190000D01*
X100008012Y-95190000D01*
X100040925Y-95132993D01*
X100075000Y-95005826D01*
X100075000Y-94874174D01*
X100040925Y-94747007D01*
X100008012Y-94690000D01*
X100905636Y-94690000D01*
X100905635Y-94689999D01*
X100848432Y-94476513D01*
X100848429Y-94476507D01*
X100748600Y-94262422D01*
X100748599Y-94262420D01*
X100613113Y-94068926D01*
X100613108Y-94068920D01*
X100446082Y-93901894D01*
X100252578Y-93766399D01*
X100038492Y-93666570D01*
X100038486Y-93666567D01*
X99825000Y-93609364D01*
X99825000Y-94506988D01*
X99767993Y-94474075D01*
X99640826Y-94440000D01*
X99509174Y-94440000D01*
X99382007Y-94474075D01*
X99325000Y-94506988D01*
X99325000Y-93609364D01*
X99324999Y-93609364D01*
X99111513Y-93666567D01*
X99111507Y-93666570D01*
X98897422Y-93766399D01*
X98897420Y-93766400D01*
X98703926Y-93901886D01*
X98703920Y-93901891D01*
X98536891Y-94068920D01*
X98536890Y-94068922D01*
X98406575Y-94255031D01*
X98351998Y-94298655D01*
X98282499Y-94305848D01*
X98220145Y-94274326D01*
X98203425Y-94255031D01*
X98073109Y-94068922D01*
X98073108Y-94068920D01*
X97906082Y-93901894D01*
X97712578Y-93766399D01*
X97498492Y-93666570D01*
X97498486Y-93666567D01*
X97285000Y-93609364D01*
X97285000Y-94506988D01*
X97227993Y-94474075D01*
X97100826Y-94440000D01*
X96969174Y-94440000D01*
X96842007Y-94474075D01*
X96785000Y-94506988D01*
X96785000Y-93609364D01*
X96784999Y-93609364D01*
X96571513Y-93666567D01*
X96571507Y-93666570D01*
X96357422Y-93766399D01*
X96357420Y-93766400D01*
X96163926Y-93901886D01*
X96163920Y-93901891D01*
X95996891Y-94068920D01*
X95996890Y-94068922D01*
X95866575Y-94255031D01*
X95811998Y-94298655D01*
X95742499Y-94305848D01*
X95680145Y-94274326D01*
X95663425Y-94255031D01*
X95533109Y-94068922D01*
X95533108Y-94068920D01*
X95366082Y-93901894D01*
X95172578Y-93766399D01*
X94958492Y-93666570D01*
X94958486Y-93666567D01*
X94745000Y-93609364D01*
X94745000Y-94506988D01*
X94687993Y-94474075D01*
X94560826Y-94440000D01*
X94429174Y-94440000D01*
X94302007Y-94474075D01*
X94245000Y-94506988D01*
X94245000Y-93609364D01*
X94244999Y-93609364D01*
X94031513Y-93666567D01*
X94031507Y-93666570D01*
X93817422Y-93766399D01*
X93817420Y-93766400D01*
X93623926Y-93901886D01*
X93623920Y-93901891D01*
X93456891Y-94068920D01*
X93456890Y-94068922D01*
X93326575Y-94255031D01*
X93271998Y-94298655D01*
X93202499Y-94305848D01*
X93140145Y-94274326D01*
X93123425Y-94255031D01*
X92993109Y-94068922D01*
X92993108Y-94068920D01*
X92826082Y-93901894D01*
X92632578Y-93766399D01*
X92418492Y-93666570D01*
X92418486Y-93666567D01*
X92205000Y-93609364D01*
X92205000Y-94506988D01*
X92147993Y-94474075D01*
X92020826Y-94440000D01*
X91889174Y-94440000D01*
X91762007Y-94474075D01*
X91705000Y-94506988D01*
X91705000Y-93609364D01*
X91704999Y-93609364D01*
X91491513Y-93666567D01*
X91491507Y-93666570D01*
X91277422Y-93766399D01*
X91277420Y-93766400D01*
X91083926Y-93901886D01*
X91083920Y-93901891D01*
X90916891Y-94068920D01*
X90916890Y-94068922D01*
X90786575Y-94255031D01*
X90731998Y-94298655D01*
X90662499Y-94305848D01*
X90600145Y-94274326D01*
X90583425Y-94255031D01*
X90453109Y-94068922D01*
X90453108Y-94068920D01*
X90286082Y-93901894D01*
X90092578Y-93766399D01*
X89878492Y-93666570D01*
X89878486Y-93666567D01*
X89665000Y-93609364D01*
X89665000Y-94506988D01*
X89607993Y-94474075D01*
X89480826Y-94440000D01*
X89349174Y-94440000D01*
X89222007Y-94474075D01*
X89165000Y-94506988D01*
X89165000Y-93609364D01*
X89164999Y-93609364D01*
X88951513Y-93666567D01*
X88951507Y-93666570D01*
X88737422Y-93766399D01*
X88737420Y-93766400D01*
X88543926Y-93901886D01*
X88543920Y-93901891D01*
X88376891Y-94068920D01*
X88376886Y-94068926D01*
X88241400Y-94262420D01*
X88241399Y-94262422D01*
X88141570Y-94476507D01*
X88141567Y-94476513D01*
X88084364Y-94689999D01*
X77460374Y-94689999D01*
X77384755Y-94493005D01*
X77208689Y-94147456D01*
X76997468Y-93822206D01*
X76788904Y-93564649D01*
X76788903Y-93564648D01*
X75294251Y-95059300D01*
X75220412Y-94957670D01*
X75042330Y-94779588D01*
X74940698Y-94705748D01*
X76256447Y-93389999D01*
X145869364Y-93389999D01*
X145869364Y-93390000D01*
X146766988Y-93390000D01*
X146734075Y-93447007D01*
X146700000Y-93574174D01*
X146700000Y-93705826D01*
X146734075Y-93832993D01*
X146766988Y-93890000D01*
X145869364Y-93890000D01*
X145926567Y-94103486D01*
X145926570Y-94103492D01*
X146026399Y-94317578D01*
X146161894Y-94511082D01*
X146328917Y-94678105D01*
X146522421Y-94813600D01*
X146736507Y-94913429D01*
X146736516Y-94913433D01*
X146950000Y-94970634D01*
X146950000Y-94073012D01*
X147007007Y-94105925D01*
X147134174Y-94140000D01*
X147265826Y-94140000D01*
X147392993Y-94105925D01*
X147450000Y-94073012D01*
X147450000Y-94970633D01*
X147663483Y-94913433D01*
X147663492Y-94913429D01*
X147877578Y-94813600D01*
X148071082Y-94678105D01*
X148238105Y-94511082D01*
X148373600Y-94317578D01*
X148473429Y-94103492D01*
X148473432Y-94103486D01*
X148530636Y-93890000D01*
X147633012Y-93890000D01*
X147665925Y-93832993D01*
X147700000Y-93705826D01*
X147700000Y-93574174D01*
X147665925Y-93447007D01*
X147641672Y-93404999D01*
X156269364Y-93404999D01*
X156269364Y-93405000D01*
X157166988Y-93405000D01*
X157134075Y-93462007D01*
X157100000Y-93589174D01*
X157100000Y-93720826D01*
X157134075Y-93847993D01*
X157166988Y-93905000D01*
X156269364Y-93905000D01*
X156326567Y-94118486D01*
X156326570Y-94118492D01*
X156426399Y-94332578D01*
X156561894Y-94526082D01*
X156728917Y-94693105D01*
X156922421Y-94828600D01*
X157136507Y-94928429D01*
X157136516Y-94928433D01*
X157350000Y-94985634D01*
X157350000Y-94088012D01*
X157407007Y-94120925D01*
X157534174Y-94155000D01*
X157665826Y-94155000D01*
X157792993Y-94120925D01*
X157850000Y-94088012D01*
X157850000Y-94985633D01*
X158063483Y-94928433D01*
X158063492Y-94928429D01*
X158277578Y-94828600D01*
X158471082Y-94693105D01*
X158638105Y-94526082D01*
X158773600Y-94332578D01*
X158873429Y-94118492D01*
X158873432Y-94118486D01*
X158930636Y-93905000D01*
X158033012Y-93905000D01*
X158065925Y-93847993D01*
X158100000Y-93720826D01*
X158100000Y-93589174D01*
X158065925Y-93462007D01*
X158033012Y-93405000D01*
X158930636Y-93405000D01*
X158930635Y-93404999D01*
X158873432Y-93191513D01*
X158873429Y-93191507D01*
X158773600Y-92977422D01*
X158773599Y-92977420D01*
X158638113Y-92783926D01*
X158638108Y-92783920D01*
X158471082Y-92616894D01*
X158277578Y-92481399D01*
X158063492Y-92381570D01*
X158063486Y-92381567D01*
X157850000Y-92324364D01*
X157850000Y-93221988D01*
X157792993Y-93189075D01*
X157665826Y-93155000D01*
X157534174Y-93155000D01*
X157407007Y-93189075D01*
X157350000Y-93221988D01*
X157350000Y-92324364D01*
X157349999Y-92324364D01*
X157136513Y-92381567D01*
X157136507Y-92381570D01*
X156922422Y-92481399D01*
X156922420Y-92481400D01*
X156728926Y-92616886D01*
X156728920Y-92616891D01*
X156561891Y-92783920D01*
X156561886Y-92783926D01*
X156426400Y-92977420D01*
X156426399Y-92977422D01*
X156326570Y-93191507D01*
X156326567Y-93191513D01*
X156269364Y-93404999D01*
X147641672Y-93404999D01*
X147633012Y-93390000D01*
X148530636Y-93390000D01*
X148530635Y-93389999D01*
X148473432Y-93176513D01*
X148473429Y-93176507D01*
X148373600Y-92962422D01*
X148373599Y-92962420D01*
X148238113Y-92768926D01*
X148238108Y-92768920D01*
X148071082Y-92601894D01*
X147877578Y-92466399D01*
X147663492Y-92366570D01*
X147663486Y-92366567D01*
X147450000Y-92309364D01*
X147450000Y-93206988D01*
X147392993Y-93174075D01*
X147265826Y-93140000D01*
X147134174Y-93140000D01*
X147007007Y-93174075D01*
X146950000Y-93206988D01*
X146950000Y-92309364D01*
X146949999Y-92309364D01*
X146736513Y-92366567D01*
X146736507Y-92366570D01*
X146522422Y-92466399D01*
X146522420Y-92466400D01*
X146328926Y-92601886D01*
X146328920Y-92601891D01*
X146161891Y-92768920D01*
X146161886Y-92768926D01*
X146026400Y-92962420D01*
X146026399Y-92962422D01*
X145926570Y-93176507D01*
X145926567Y-93176513D01*
X145869364Y-93389999D01*
X76256447Y-93389999D01*
X76435350Y-93211096D01*
X76435350Y-93211095D01*
X76177793Y-93002531D01*
X75852543Y-92791310D01*
X75506994Y-92615244D01*
X75144936Y-92476262D01*
X74770330Y-92375887D01*
X74770323Y-92375886D01*
X74393658Y-92316228D01*
X88564500Y-92316228D01*
X88564500Y-92483771D01*
X88597182Y-92648074D01*
X88597184Y-92648082D01*
X88661295Y-92802860D01*
X88754373Y-92942162D01*
X88872837Y-93060626D01*
X88965494Y-93122537D01*
X89012137Y-93153703D01*
X89166918Y-93217816D01*
X89277948Y-93239901D01*
X89331228Y-93250499D01*
X89331232Y-93250500D01*
X89331233Y-93250500D01*
X89498768Y-93250500D01*
X89498769Y-93250499D01*
X89663082Y-93217816D01*
X89817863Y-93153703D01*
X89957162Y-93060626D01*
X90075626Y-92942162D01*
X90168703Y-92802863D01*
X90232816Y-92648082D01*
X90265500Y-92483767D01*
X90265500Y-92316233D01*
X90265499Y-92316228D01*
X91104500Y-92316228D01*
X91104500Y-92483771D01*
X91137182Y-92648074D01*
X91137184Y-92648082D01*
X91201295Y-92802860D01*
X91294373Y-92942162D01*
X91412837Y-93060626D01*
X91505494Y-93122537D01*
X91552137Y-93153703D01*
X91706918Y-93217816D01*
X91817948Y-93239901D01*
X91871228Y-93250499D01*
X91871232Y-93250500D01*
X91871233Y-93250500D01*
X92038768Y-93250500D01*
X92038769Y-93250499D01*
X92203082Y-93217816D01*
X92357863Y-93153703D01*
X92497162Y-93060626D01*
X92615626Y-92942162D01*
X92708703Y-92802863D01*
X92772816Y-92648082D01*
X92805500Y-92483767D01*
X92805500Y-92316233D01*
X92805499Y-92316228D01*
X93644500Y-92316228D01*
X93644500Y-92483771D01*
X93677182Y-92648074D01*
X93677184Y-92648082D01*
X93741295Y-92802860D01*
X93834373Y-92942162D01*
X93952837Y-93060626D01*
X94045494Y-93122537D01*
X94092137Y-93153703D01*
X94246918Y-93217816D01*
X94357948Y-93239901D01*
X94411228Y-93250499D01*
X94411232Y-93250500D01*
X94411233Y-93250500D01*
X94578768Y-93250500D01*
X94578769Y-93250499D01*
X94743082Y-93217816D01*
X94897863Y-93153703D01*
X95037162Y-93060626D01*
X95155626Y-92942162D01*
X95248703Y-92802863D01*
X95312816Y-92648082D01*
X95345500Y-92483767D01*
X95345500Y-92316233D01*
X95345499Y-92316228D01*
X96184500Y-92316228D01*
X96184500Y-92483771D01*
X96217182Y-92648074D01*
X96217184Y-92648082D01*
X96281295Y-92802860D01*
X96374373Y-92942162D01*
X96492837Y-93060626D01*
X96585494Y-93122537D01*
X96632137Y-93153703D01*
X96786918Y-93217816D01*
X96897948Y-93239901D01*
X96951228Y-93250499D01*
X96951232Y-93250500D01*
X96951233Y-93250500D01*
X97118768Y-93250500D01*
X97118769Y-93250499D01*
X97283082Y-93217816D01*
X97437863Y-93153703D01*
X97577162Y-93060626D01*
X97695626Y-92942162D01*
X97788703Y-92802863D01*
X97852816Y-92648082D01*
X97885500Y-92483767D01*
X97885500Y-92316233D01*
X97885499Y-92316228D01*
X98724500Y-92316228D01*
X98724500Y-92483771D01*
X98757182Y-92648074D01*
X98757184Y-92648082D01*
X98821295Y-92802860D01*
X98914373Y-92942162D01*
X99032837Y-93060626D01*
X99125494Y-93122537D01*
X99172137Y-93153703D01*
X99326918Y-93217816D01*
X99437948Y-93239901D01*
X99491228Y-93250499D01*
X99491232Y-93250500D01*
X99491233Y-93250500D01*
X99658768Y-93250500D01*
X99658769Y-93250499D01*
X99823082Y-93217816D01*
X99977863Y-93153703D01*
X100117162Y-93060626D01*
X100235626Y-92942162D01*
X100328703Y-92802863D01*
X100392816Y-92648082D01*
X100425500Y-92483767D01*
X100425500Y-92316233D01*
X100392816Y-92151918D01*
X100328703Y-91997137D01*
X100275702Y-91917815D01*
X100235626Y-91857837D01*
X100117162Y-91739373D01*
X99977860Y-91646295D01*
X99823082Y-91582184D01*
X99823074Y-91582182D01*
X99658771Y-91549500D01*
X99658767Y-91549500D01*
X99491233Y-91549500D01*
X99491228Y-91549500D01*
X99326925Y-91582182D01*
X99326917Y-91582184D01*
X99172139Y-91646295D01*
X99032837Y-91739373D01*
X98914373Y-91857837D01*
X98821295Y-91997139D01*
X98757184Y-92151917D01*
X98757182Y-92151925D01*
X98724500Y-92316228D01*
X97885499Y-92316228D01*
X97852816Y-92151918D01*
X97788703Y-91997137D01*
X97735702Y-91917815D01*
X97695626Y-91857837D01*
X97577162Y-91739373D01*
X97437860Y-91646295D01*
X97283082Y-91582184D01*
X97283074Y-91582182D01*
X97118771Y-91549500D01*
X97118767Y-91549500D01*
X96951233Y-91549500D01*
X96951228Y-91549500D01*
X96786925Y-91582182D01*
X96786917Y-91582184D01*
X96632139Y-91646295D01*
X96492837Y-91739373D01*
X96374373Y-91857837D01*
X96281295Y-91997139D01*
X96217184Y-92151917D01*
X96217182Y-92151925D01*
X96184500Y-92316228D01*
X95345499Y-92316228D01*
X95312816Y-92151918D01*
X95248703Y-91997137D01*
X95195702Y-91917815D01*
X95155626Y-91857837D01*
X95037162Y-91739373D01*
X94897860Y-91646295D01*
X94743082Y-91582184D01*
X94743074Y-91582182D01*
X94578771Y-91549500D01*
X94578767Y-91549500D01*
X94411233Y-91549500D01*
X94411228Y-91549500D01*
X94246925Y-91582182D01*
X94246917Y-91582184D01*
X94092139Y-91646295D01*
X93952837Y-91739373D01*
X93834373Y-91857837D01*
X93741295Y-91997139D01*
X93677184Y-92151917D01*
X93677182Y-92151925D01*
X93644500Y-92316228D01*
X92805499Y-92316228D01*
X92772816Y-92151918D01*
X92708703Y-91997137D01*
X92655702Y-91917815D01*
X92615626Y-91857837D01*
X92497162Y-91739373D01*
X92357860Y-91646295D01*
X92203082Y-91582184D01*
X92203074Y-91582182D01*
X92038771Y-91549500D01*
X92038767Y-91549500D01*
X91871233Y-91549500D01*
X91871228Y-91549500D01*
X91706925Y-91582182D01*
X91706917Y-91582184D01*
X91552139Y-91646295D01*
X91412837Y-91739373D01*
X91294373Y-91857837D01*
X91201295Y-91997139D01*
X91137184Y-92151917D01*
X91137182Y-92151925D01*
X91104500Y-92316228D01*
X90265499Y-92316228D01*
X90232816Y-92151918D01*
X90168703Y-91997137D01*
X90115702Y-91917815D01*
X90075626Y-91857837D01*
X89957162Y-91739373D01*
X89817860Y-91646295D01*
X89663082Y-91582184D01*
X89663074Y-91582182D01*
X89498771Y-91549500D01*
X89498767Y-91549500D01*
X89331233Y-91549500D01*
X89331228Y-91549500D01*
X89166925Y-91582182D01*
X89166917Y-91582184D01*
X89012139Y-91646295D01*
X88872837Y-91739373D01*
X88754373Y-91857837D01*
X88661295Y-91997139D01*
X88597184Y-92151917D01*
X88597182Y-92151925D01*
X88564500Y-92316228D01*
X74393658Y-92316228D01*
X74387287Y-92315219D01*
X74000001Y-92294922D01*
X73999999Y-92294922D01*
X73612712Y-92315219D01*
X73229676Y-92375886D01*
X73229669Y-92375887D01*
X72855063Y-92476262D01*
X72493005Y-92615244D01*
X72147456Y-92791310D01*
X71822206Y-93002531D01*
X71564648Y-93211095D01*
X71564648Y-93211096D01*
X73059301Y-94705748D01*
X72957670Y-94779588D01*
X72779588Y-94957670D01*
X72705748Y-95059300D01*
X71211096Y-93564648D01*
X71211095Y-93564648D01*
X71002531Y-93822206D01*
X70791310Y-94147456D01*
X70615244Y-94493005D01*
X70540264Y-94688335D01*
X70497862Y-94743867D01*
X70432168Y-94767660D01*
X70364039Y-94752158D01*
X70315107Y-94702285D01*
X70300500Y-94643897D01*
X70300500Y-90299999D01*
X122044750Y-90299999D01*
X122044750Y-90300000D01*
X122063670Y-90443708D01*
X122063671Y-90443712D01*
X122119137Y-90577622D01*
X122119138Y-90577624D01*
X122119139Y-90577625D01*
X122207379Y-90692621D01*
X122322375Y-90780861D01*
X122456291Y-90836330D01*
X122574745Y-90851925D01*
X122599999Y-90855250D01*
X122600000Y-90855250D01*
X122600001Y-90855250D01*
X122625255Y-90851925D01*
X122743709Y-90836330D01*
X122877625Y-90780861D01*
X122992621Y-90692621D01*
X123080861Y-90577625D01*
X123092304Y-90549999D01*
X126194750Y-90549999D01*
X126194750Y-90550000D01*
X126213670Y-90693708D01*
X126213671Y-90693712D01*
X126269137Y-90827622D01*
X126269138Y-90827624D01*
X126269139Y-90827625D01*
X126357379Y-90942621D01*
X126472375Y-91030861D01*
X126472376Y-91030861D01*
X126472377Y-91030862D01*
X126473273Y-91031233D01*
X126606291Y-91086330D01*
X126733280Y-91103048D01*
X126749999Y-91105250D01*
X126750000Y-91105250D01*
X126750001Y-91105250D01*
X126764977Y-91103278D01*
X126893709Y-91086330D01*
X127027625Y-91030861D01*
X127046695Y-91016228D01*
X146349500Y-91016228D01*
X146349500Y-91183771D01*
X146382182Y-91348074D01*
X146382184Y-91348082D01*
X146446295Y-91502860D01*
X146539373Y-91642162D01*
X146657837Y-91760626D01*
X146750494Y-91822537D01*
X146797137Y-91853703D01*
X146797138Y-91853703D01*
X146797139Y-91853704D01*
X146832201Y-91868227D01*
X146951918Y-91917816D01*
X147116228Y-91950499D01*
X147116232Y-91950500D01*
X147116233Y-91950500D01*
X147283768Y-91950500D01*
X147283769Y-91950499D01*
X147448082Y-91917816D01*
X147602863Y-91853703D01*
X147742162Y-91760626D01*
X147860626Y-91642162D01*
X147953703Y-91502863D01*
X148017816Y-91348082D01*
X148050500Y-91183767D01*
X148050500Y-91031228D01*
X156749500Y-91031228D01*
X156749500Y-91198771D01*
X156782182Y-91363074D01*
X156782184Y-91363082D01*
X156846295Y-91517860D01*
X156939373Y-91657162D01*
X157057837Y-91775626D01*
X157150494Y-91837537D01*
X157197137Y-91868703D01*
X157351918Y-91932816D01*
X157516228Y-91965499D01*
X157516232Y-91965500D01*
X157516233Y-91965500D01*
X157683768Y-91965500D01*
X157683769Y-91965499D01*
X157848082Y-91932816D01*
X158002863Y-91868703D01*
X158142162Y-91775626D01*
X158260626Y-91657162D01*
X158353703Y-91517863D01*
X158417816Y-91363082D01*
X158450500Y-91198767D01*
X158450500Y-91031233D01*
X158417816Y-90866918D01*
X158353703Y-90712137D01*
X158263823Y-90577622D01*
X158260626Y-90572837D01*
X158142162Y-90454373D01*
X158002860Y-90361295D01*
X157848082Y-90297184D01*
X157848074Y-90297182D01*
X157683771Y-90264500D01*
X157683767Y-90264500D01*
X157516233Y-90264500D01*
X157516228Y-90264500D01*
X157351925Y-90297182D01*
X157351917Y-90297184D01*
X157197139Y-90361295D01*
X157057837Y-90454373D01*
X156939373Y-90572837D01*
X156846295Y-90712139D01*
X156782184Y-90866917D01*
X156782182Y-90866925D01*
X156749500Y-91031228D01*
X148050500Y-91031228D01*
X148050500Y-91016233D01*
X148017816Y-90851918D01*
X147953703Y-90697137D01*
X147922537Y-90650494D01*
X147860626Y-90557837D01*
X147742162Y-90439373D01*
X147602860Y-90346295D01*
X147448082Y-90282184D01*
X147448074Y-90282182D01*
X147283771Y-90249500D01*
X147283767Y-90249500D01*
X147116233Y-90249500D01*
X147116228Y-90249500D01*
X146951925Y-90282182D01*
X146951917Y-90282184D01*
X146797139Y-90346295D01*
X146657837Y-90439373D01*
X146539373Y-90557837D01*
X146446295Y-90697139D01*
X146382184Y-90851917D01*
X146382182Y-90851925D01*
X146349500Y-91016228D01*
X127046695Y-91016228D01*
X127142621Y-90942621D01*
X127230861Y-90827625D01*
X127286330Y-90693709D01*
X127305250Y-90550000D01*
X127286330Y-90406291D01*
X127249350Y-90317013D01*
X127230862Y-90272377D01*
X127230861Y-90272376D01*
X127230861Y-90272375D01*
X127142621Y-90157379D01*
X127027625Y-90069139D01*
X127027624Y-90069138D01*
X127027622Y-90069137D01*
X126893712Y-90013671D01*
X126893710Y-90013670D01*
X126893709Y-90013670D01*
X126821854Y-90004210D01*
X126750001Y-89994750D01*
X126749999Y-89994750D01*
X126606291Y-90013670D01*
X126606287Y-90013671D01*
X126472377Y-90069137D01*
X126357379Y-90157379D01*
X126269137Y-90272377D01*
X126213671Y-90406287D01*
X126213670Y-90406291D01*
X126194750Y-90549999D01*
X123092304Y-90549999D01*
X123136330Y-90443709D01*
X123155250Y-90300000D01*
X123136330Y-90156291D01*
X123080861Y-90022375D01*
X122992621Y-89907379D01*
X122877625Y-89819139D01*
X122877624Y-89819138D01*
X122877622Y-89819137D01*
X122743712Y-89763671D01*
X122743710Y-89763670D01*
X122743709Y-89763670D01*
X122671854Y-89754210D01*
X122600001Y-89744750D01*
X122599999Y-89744750D01*
X122456291Y-89763670D01*
X122456287Y-89763671D01*
X122322377Y-89819137D01*
X122207379Y-89907379D01*
X122119137Y-90022377D01*
X122063671Y-90156287D01*
X122063670Y-90156291D01*
X122044750Y-90299999D01*
X70300500Y-90299999D01*
X70300500Y-89300000D01*
X118594353Y-89300000D01*
X118614834Y-89442456D01*
X118674622Y-89573371D01*
X118674623Y-89573373D01*
X118768872Y-89682143D01*
X118889947Y-89759953D01*
X118889950Y-89759954D01*
X118889949Y-89759954D01*
X119028036Y-89800499D01*
X119028038Y-89800500D01*
X119028039Y-89800500D01*
X119171962Y-89800500D01*
X119171962Y-89800499D01*
X119310053Y-89759953D01*
X119431128Y-89682143D01*
X119525377Y-89573373D01*
X119585165Y-89442457D01*
X119605647Y-89300000D01*
X119585165Y-89157543D01*
X119525377Y-89026627D01*
X119431128Y-88917857D01*
X119310053Y-88840047D01*
X119310051Y-88840046D01*
X119310049Y-88840045D01*
X119310050Y-88840045D01*
X119171963Y-88799500D01*
X119171961Y-88799500D01*
X119028039Y-88799500D01*
X119028036Y-88799500D01*
X118889949Y-88840045D01*
X118768873Y-88917856D01*
X118674623Y-89026626D01*
X118674622Y-89026628D01*
X118614834Y-89157543D01*
X118594353Y-89300000D01*
X70300500Y-89300000D01*
X70300500Y-88476228D01*
X146349500Y-88476228D01*
X146349500Y-88643771D01*
X146382182Y-88808074D01*
X146382184Y-88808082D01*
X146446295Y-88962860D01*
X146539373Y-89102162D01*
X146657837Y-89220626D01*
X146750494Y-89282537D01*
X146797137Y-89313703D01*
X146951918Y-89377816D01*
X147116228Y-89410499D01*
X147116232Y-89410500D01*
X147116233Y-89410500D01*
X147283768Y-89410500D01*
X147283769Y-89410499D01*
X147448082Y-89377816D01*
X147602863Y-89313703D01*
X147742162Y-89220626D01*
X147860626Y-89102162D01*
X147953703Y-88962863D01*
X148017816Y-88808082D01*
X148050500Y-88643767D01*
X148050500Y-88491228D01*
X156749500Y-88491228D01*
X156749500Y-88658771D01*
X156782182Y-88823074D01*
X156782184Y-88823082D01*
X156846295Y-88977860D01*
X156939373Y-89117162D01*
X157057837Y-89235626D01*
X157150494Y-89297537D01*
X157197137Y-89328703D01*
X157351918Y-89392816D01*
X157516228Y-89425499D01*
X157516232Y-89425500D01*
X157516233Y-89425500D01*
X157683768Y-89425500D01*
X157683769Y-89425499D01*
X157848082Y-89392816D01*
X158002863Y-89328703D01*
X158142162Y-89235626D01*
X158260626Y-89117162D01*
X158353703Y-88977863D01*
X158417816Y-88823082D01*
X158450500Y-88658767D01*
X158450500Y-88491233D01*
X158417816Y-88326918D01*
X158353703Y-88172137D01*
X158322537Y-88125494D01*
X158260626Y-88032837D01*
X158142162Y-87914373D01*
X158002860Y-87821295D01*
X157848082Y-87757184D01*
X157848074Y-87757182D01*
X157683771Y-87724500D01*
X157683767Y-87724500D01*
X157516233Y-87724500D01*
X157516228Y-87724500D01*
X157351925Y-87757182D01*
X157351917Y-87757184D01*
X157197139Y-87821295D01*
X157057837Y-87914373D01*
X156939373Y-88032837D01*
X156846295Y-88172139D01*
X156782184Y-88326917D01*
X156782182Y-88326925D01*
X156749500Y-88491228D01*
X148050500Y-88491228D01*
X148050500Y-88476233D01*
X148017816Y-88311918D01*
X147953703Y-88157137D01*
X147870649Y-88032838D01*
X147860626Y-88017837D01*
X147742162Y-87899373D01*
X147602860Y-87806295D01*
X147448082Y-87742184D01*
X147448074Y-87742182D01*
X147283771Y-87709500D01*
X147283767Y-87709500D01*
X147116233Y-87709500D01*
X147116228Y-87709500D01*
X146951925Y-87742182D01*
X146951917Y-87742184D01*
X146797139Y-87806295D01*
X146657837Y-87899373D01*
X146539373Y-88017837D01*
X146446295Y-88157139D01*
X146382184Y-88311917D01*
X146382182Y-88311925D01*
X146349500Y-88476228D01*
X70300500Y-88476228D01*
X70300500Y-86999999D01*
X121144750Y-86999999D01*
X121144750Y-87000000D01*
X121163670Y-87143708D01*
X121163671Y-87143712D01*
X121219137Y-87277622D01*
X121219138Y-87277624D01*
X121219139Y-87277625D01*
X121307379Y-87392621D01*
X121422375Y-87480861D01*
X121556291Y-87536330D01*
X121683280Y-87553048D01*
X121699999Y-87555250D01*
X121700000Y-87555250D01*
X121700001Y-87555250D01*
X121714977Y-87553278D01*
X121843709Y-87536330D01*
X121977625Y-87480861D01*
X122092621Y-87392621D01*
X122180861Y-87277625D01*
X122236330Y-87143709D01*
X122255250Y-87000000D01*
X122236330Y-86856291D01*
X122180861Y-86722375D01*
X122092621Y-86607379D01*
X121977625Y-86519139D01*
X121977624Y-86519138D01*
X121977622Y-86519137D01*
X121843712Y-86463671D01*
X121843710Y-86463670D01*
X121843709Y-86463670D01*
X121771854Y-86454210D01*
X121700001Y-86444750D01*
X121699999Y-86444750D01*
X121556291Y-86463670D01*
X121556287Y-86463671D01*
X121422377Y-86519137D01*
X121307379Y-86607379D01*
X121219137Y-86722377D01*
X121163671Y-86856287D01*
X121163670Y-86856291D01*
X121144750Y-86999999D01*
X70300500Y-86999999D01*
X70300500Y-84899999D01*
X122844750Y-84899999D01*
X122844750Y-84900000D01*
X122863670Y-85043708D01*
X122863671Y-85043712D01*
X122919137Y-85177622D01*
X122919138Y-85177624D01*
X122919139Y-85177625D01*
X123007379Y-85292621D01*
X123122375Y-85380861D01*
X123256291Y-85436330D01*
X123383280Y-85453048D01*
X123399999Y-85455250D01*
X123400000Y-85455250D01*
X123400001Y-85455250D01*
X123414977Y-85453278D01*
X123543709Y-85436330D01*
X123677625Y-85380861D01*
X123792621Y-85292621D01*
X123880861Y-85177625D01*
X123936330Y-85043709D01*
X123955250Y-84900000D01*
X123936330Y-84756291D01*
X123880861Y-84622375D01*
X123792621Y-84507379D01*
X123677625Y-84419139D01*
X123677624Y-84419138D01*
X123677622Y-84419137D01*
X123543712Y-84363671D01*
X123543710Y-84363670D01*
X123543709Y-84363670D01*
X123471854Y-84354210D01*
X123400001Y-84344750D01*
X123399999Y-84344750D01*
X123256291Y-84363670D01*
X123256287Y-84363671D01*
X123122377Y-84419137D01*
X123007379Y-84507379D01*
X122919137Y-84622377D01*
X122863671Y-84756287D01*
X122863670Y-84756291D01*
X122844750Y-84899999D01*
X70300500Y-84899999D01*
X70300500Y-82599999D01*
X98244750Y-82599999D01*
X98244750Y-82600000D01*
X98263670Y-82743708D01*
X98263671Y-82743712D01*
X98319137Y-82877622D01*
X98319138Y-82877624D01*
X98319139Y-82877625D01*
X98407379Y-82992621D01*
X98522375Y-83080861D01*
X98656291Y-83136330D01*
X98783280Y-83153048D01*
X98799999Y-83155250D01*
X98800000Y-83155250D01*
X98800001Y-83155250D01*
X98814977Y-83153278D01*
X98943709Y-83136330D01*
X99077625Y-83080861D01*
X99192621Y-82992621D01*
X99280861Y-82877625D01*
X99336330Y-82743709D01*
X99355250Y-82600000D01*
X99355250Y-82599999D01*
X105144750Y-82599999D01*
X105144750Y-82600000D01*
X105163670Y-82743708D01*
X105163671Y-82743712D01*
X105219137Y-82877622D01*
X105219138Y-82877624D01*
X105219139Y-82877625D01*
X105307379Y-82992621D01*
X105422375Y-83080861D01*
X105556291Y-83136330D01*
X105683280Y-83153048D01*
X105699999Y-83155250D01*
X105700000Y-83155250D01*
X105700001Y-83155250D01*
X105714977Y-83153278D01*
X105843709Y-83136330D01*
X105977625Y-83080861D01*
X106092621Y-82992621D01*
X106180861Y-82877625D01*
X106236330Y-82743709D01*
X106255250Y-82600000D01*
X106236330Y-82456291D01*
X106180861Y-82322375D01*
X106092621Y-82207379D01*
X105977625Y-82119139D01*
X105977624Y-82119138D01*
X105977622Y-82119137D01*
X105843712Y-82063671D01*
X105843710Y-82063670D01*
X105843709Y-82063670D01*
X105771854Y-82054210D01*
X105700001Y-82044750D01*
X105699999Y-82044750D01*
X105556291Y-82063670D01*
X105556287Y-82063671D01*
X105422377Y-82119137D01*
X105307379Y-82207379D01*
X105219137Y-82322377D01*
X105163671Y-82456287D01*
X105163670Y-82456291D01*
X105144750Y-82599999D01*
X99355250Y-82599999D01*
X99336330Y-82456291D01*
X99280861Y-82322375D01*
X99192621Y-82207379D01*
X99077625Y-82119139D01*
X99077624Y-82119138D01*
X99077622Y-82119137D01*
X98943712Y-82063671D01*
X98943710Y-82063670D01*
X98943709Y-82063670D01*
X98871854Y-82054210D01*
X98800001Y-82044750D01*
X98799999Y-82044750D01*
X98656291Y-82063670D01*
X98656287Y-82063671D01*
X98522377Y-82119137D01*
X98407379Y-82207379D01*
X98319137Y-82322377D01*
X98263671Y-82456287D01*
X98263670Y-82456291D01*
X98244750Y-82599999D01*
X70300500Y-82599999D01*
X70300500Y-81100000D01*
X86894353Y-81100000D01*
X86914834Y-81242456D01*
X86962582Y-81347007D01*
X86974623Y-81373373D01*
X87068872Y-81482143D01*
X87189947Y-81559953D01*
X87189950Y-81559954D01*
X87189949Y-81559954D01*
X87328036Y-81600499D01*
X87328038Y-81600500D01*
X87328039Y-81600500D01*
X87471962Y-81600500D01*
X87471962Y-81600499D01*
X87610053Y-81559953D01*
X87731128Y-81482143D01*
X87825377Y-81373373D01*
X87856603Y-81304999D01*
X145769364Y-81304999D01*
X145769364Y-81305000D01*
X146666988Y-81305000D01*
X146634075Y-81362007D01*
X146600000Y-81489174D01*
X146600000Y-81620826D01*
X146634075Y-81747993D01*
X146666988Y-81805000D01*
X145769364Y-81805000D01*
X145826567Y-82018486D01*
X145826570Y-82018492D01*
X145926399Y-82232578D01*
X146061894Y-82426082D01*
X146228917Y-82593105D01*
X146422421Y-82728600D01*
X146636507Y-82828429D01*
X146636516Y-82828433D01*
X146850000Y-82885634D01*
X146850000Y-81988012D01*
X146907007Y-82020925D01*
X147034174Y-82055000D01*
X147165826Y-82055000D01*
X147292993Y-82020925D01*
X147350000Y-81988012D01*
X147350000Y-82885633D01*
X147563483Y-82828433D01*
X147563492Y-82828429D01*
X147777578Y-82728600D01*
X147971082Y-82593105D01*
X148138105Y-82426082D01*
X148273600Y-82232578D01*
X148373429Y-82018492D01*
X148373432Y-82018486D01*
X148430636Y-81805000D01*
X147533012Y-81805000D01*
X147565925Y-81747993D01*
X147600000Y-81620826D01*
X147600000Y-81489174D01*
X147565925Y-81362007D01*
X147533012Y-81305000D01*
X148430636Y-81305000D01*
X148430635Y-81304999D01*
X148426616Y-81289999D01*
X156269364Y-81289999D01*
X156269364Y-81290000D01*
X157166988Y-81290000D01*
X157134075Y-81347007D01*
X157100000Y-81474174D01*
X157100000Y-81605826D01*
X157134075Y-81732993D01*
X157166988Y-81790000D01*
X156269364Y-81790000D01*
X156326567Y-82003486D01*
X156326570Y-82003492D01*
X156426399Y-82217578D01*
X156561894Y-82411082D01*
X156728917Y-82578105D01*
X156922421Y-82713600D01*
X157136507Y-82813429D01*
X157136516Y-82813433D01*
X157350000Y-82870634D01*
X157350000Y-81973012D01*
X157407007Y-82005925D01*
X157534174Y-82040000D01*
X157665826Y-82040000D01*
X157792993Y-82005925D01*
X157850000Y-81973012D01*
X157850000Y-82870633D01*
X158063483Y-82813433D01*
X158063492Y-82813429D01*
X158277578Y-82713600D01*
X158471082Y-82578105D01*
X158638105Y-82411082D01*
X158773600Y-82217578D01*
X158873429Y-82003492D01*
X158873432Y-82003486D01*
X158930636Y-81790000D01*
X158033012Y-81790000D01*
X158065925Y-81732993D01*
X158100000Y-81605826D01*
X158100000Y-81474174D01*
X158065925Y-81347007D01*
X158033012Y-81290000D01*
X158930636Y-81290000D01*
X158930635Y-81289999D01*
X158873432Y-81076513D01*
X158873429Y-81076507D01*
X158773600Y-80862422D01*
X158773599Y-80862420D01*
X158638113Y-80668926D01*
X158638108Y-80668920D01*
X158471082Y-80501894D01*
X158277578Y-80366399D01*
X158063492Y-80266570D01*
X158063486Y-80266567D01*
X157850000Y-80209364D01*
X157850000Y-81106988D01*
X157792993Y-81074075D01*
X157665826Y-81040000D01*
X157534174Y-81040000D01*
X157407007Y-81074075D01*
X157350000Y-81106988D01*
X157350000Y-80209364D01*
X157349999Y-80209364D01*
X157136513Y-80266567D01*
X157136507Y-80266570D01*
X156922422Y-80366399D01*
X156922420Y-80366400D01*
X156728926Y-80501886D01*
X156728920Y-80501891D01*
X156561891Y-80668920D01*
X156561886Y-80668926D01*
X156426400Y-80862420D01*
X156426399Y-80862422D01*
X156326570Y-81076507D01*
X156326567Y-81076513D01*
X156269364Y-81289999D01*
X148426616Y-81289999D01*
X148373432Y-81091513D01*
X148373429Y-81091507D01*
X148273600Y-80877422D01*
X148273599Y-80877420D01*
X148138113Y-80683926D01*
X148138108Y-80683920D01*
X147971082Y-80516894D01*
X147777578Y-80381399D01*
X147563492Y-80281570D01*
X147563486Y-80281567D01*
X147350000Y-80224364D01*
X147350000Y-81121988D01*
X147292993Y-81089075D01*
X147165826Y-81055000D01*
X147034174Y-81055000D01*
X146907007Y-81089075D01*
X146850000Y-81121988D01*
X146850000Y-80224364D01*
X146849999Y-80224364D01*
X146636513Y-80281567D01*
X146636507Y-80281570D01*
X146422422Y-80381399D01*
X146422420Y-80381400D01*
X146228926Y-80516886D01*
X146228920Y-80516891D01*
X146061891Y-80683920D01*
X146061886Y-80683926D01*
X145926400Y-80877420D01*
X145926399Y-80877422D01*
X145826570Y-81091507D01*
X145826567Y-81091513D01*
X145769364Y-81304999D01*
X87856603Y-81304999D01*
X87885165Y-81242457D01*
X87905647Y-81100000D01*
X87885165Y-80957543D01*
X87825377Y-80826627D01*
X87802305Y-80800000D01*
X139094353Y-80800000D01*
X139114834Y-80942456D01*
X139159382Y-81040000D01*
X139174623Y-81073373D01*
X139268872Y-81182143D01*
X139389947Y-81259953D01*
X139389950Y-81259954D01*
X139389949Y-81259954D01*
X139528036Y-81300499D01*
X139528038Y-81300500D01*
X139528039Y-81300500D01*
X139671962Y-81300500D01*
X139671962Y-81300499D01*
X139810053Y-81259953D01*
X139931128Y-81182143D01*
X140025377Y-81073373D01*
X140085165Y-80942457D01*
X140105647Y-80800000D01*
X140085165Y-80657543D01*
X140025377Y-80526627D01*
X139931128Y-80417857D01*
X139810053Y-80340047D01*
X139810051Y-80340046D01*
X139810049Y-80340045D01*
X139810050Y-80340045D01*
X139671963Y-80299500D01*
X139671961Y-80299500D01*
X139528039Y-80299500D01*
X139528036Y-80299500D01*
X139389949Y-80340045D01*
X139268873Y-80417856D01*
X139174623Y-80526626D01*
X139174622Y-80526628D01*
X139114834Y-80657543D01*
X139094353Y-80800000D01*
X87802305Y-80800000D01*
X87731128Y-80717857D01*
X87610053Y-80640047D01*
X87610051Y-80640046D01*
X87610049Y-80640045D01*
X87610050Y-80640045D01*
X87471963Y-80599500D01*
X87471961Y-80599500D01*
X87328039Y-80599500D01*
X87328036Y-80599500D01*
X87189949Y-80640045D01*
X87068873Y-80717856D01*
X86974623Y-80826626D01*
X86974622Y-80826628D01*
X86914834Y-80957543D01*
X86894353Y-81100000D01*
X70300500Y-81100000D01*
X70300500Y-79799999D01*
X115144750Y-79799999D01*
X115144750Y-79800000D01*
X115163670Y-79943708D01*
X115163671Y-79943712D01*
X115219137Y-80077622D01*
X115219138Y-80077624D01*
X115219139Y-80077625D01*
X115307379Y-80192621D01*
X115422375Y-80280861D01*
X115422376Y-80280861D01*
X115422377Y-80280862D01*
X115467013Y-80299350D01*
X115556291Y-80336330D01*
X115683280Y-80353048D01*
X115699999Y-80355250D01*
X115700000Y-80355250D01*
X115700001Y-80355250D01*
X115714977Y-80353278D01*
X115843709Y-80336330D01*
X115977625Y-80280861D01*
X116092621Y-80192621D01*
X116180861Y-80077625D01*
X116236330Y-79943709D01*
X116255250Y-79800000D01*
X116236330Y-79656291D01*
X116180861Y-79522375D01*
X116092621Y-79407379D01*
X116083005Y-79400000D01*
X121994353Y-79400000D01*
X122014834Y-79542456D01*
X122074622Y-79673371D01*
X122074623Y-79673373D01*
X122168872Y-79782143D01*
X122289947Y-79859953D01*
X122289950Y-79859954D01*
X122289949Y-79859954D01*
X122428036Y-79900499D01*
X122428038Y-79900500D01*
X122428039Y-79900500D01*
X122571962Y-79900500D01*
X122571962Y-79900499D01*
X122679121Y-79869035D01*
X122710050Y-79859954D01*
X122710050Y-79859953D01*
X122710053Y-79859953D01*
X122831128Y-79782143D01*
X122925377Y-79673373D01*
X122985165Y-79542457D01*
X123005647Y-79400000D01*
X122985165Y-79257543D01*
X122925377Y-79126627D01*
X122831128Y-79017857D01*
X122710053Y-78940047D01*
X122710051Y-78940046D01*
X122710049Y-78940045D01*
X122710050Y-78940045D01*
X122680021Y-78931228D01*
X146249500Y-78931228D01*
X146249500Y-79098771D01*
X146282182Y-79263074D01*
X146282184Y-79263082D01*
X146346295Y-79417860D01*
X146439373Y-79557162D01*
X146557837Y-79675626D01*
X146650494Y-79737537D01*
X146697137Y-79768703D01*
X146851918Y-79832816D01*
X146988346Y-79859953D01*
X147016228Y-79865499D01*
X147016232Y-79865500D01*
X147016233Y-79865500D01*
X147183768Y-79865500D01*
X147183769Y-79865499D01*
X147348082Y-79832816D01*
X147502863Y-79768703D01*
X147642162Y-79675626D01*
X147760626Y-79557162D01*
X147853703Y-79417863D01*
X147917816Y-79263082D01*
X147950500Y-79098767D01*
X147950500Y-78931233D01*
X147947515Y-78916228D01*
X156749500Y-78916228D01*
X156749500Y-79083771D01*
X156782182Y-79248074D01*
X156782184Y-79248082D01*
X156846295Y-79402860D01*
X156939373Y-79542162D01*
X157057837Y-79660626D01*
X157150494Y-79722537D01*
X157197137Y-79753703D01*
X157351918Y-79817816D01*
X157516228Y-79850499D01*
X157516232Y-79850500D01*
X157516233Y-79850500D01*
X157683768Y-79850500D01*
X157683769Y-79850499D01*
X157848082Y-79817816D01*
X158002863Y-79753703D01*
X158142162Y-79660626D01*
X158260626Y-79542162D01*
X158353703Y-79402863D01*
X158417816Y-79248082D01*
X158450500Y-79083767D01*
X158450500Y-78916233D01*
X158417816Y-78751918D01*
X158353703Y-78597137D01*
X158289132Y-78500500D01*
X158260626Y-78457837D01*
X158142162Y-78339373D01*
X158002860Y-78246295D01*
X157848082Y-78182184D01*
X157848074Y-78182182D01*
X157683771Y-78149500D01*
X157683767Y-78149500D01*
X157516233Y-78149500D01*
X157516228Y-78149500D01*
X157351925Y-78182182D01*
X157351917Y-78182184D01*
X157197139Y-78246295D01*
X157057837Y-78339373D01*
X156939373Y-78457837D01*
X156846295Y-78597139D01*
X156782184Y-78751917D01*
X156782182Y-78751925D01*
X156749500Y-78916228D01*
X147947515Y-78916228D01*
X147917816Y-78766918D01*
X147853703Y-78612137D01*
X147822537Y-78565494D01*
X147760626Y-78472837D01*
X147642162Y-78354373D01*
X147502860Y-78261295D01*
X147348082Y-78197184D01*
X147348074Y-78197182D01*
X147183771Y-78164500D01*
X147183767Y-78164500D01*
X147016233Y-78164500D01*
X147016228Y-78164500D01*
X146851925Y-78197182D01*
X146851917Y-78197184D01*
X146697139Y-78261295D01*
X146557837Y-78354373D01*
X146439373Y-78472837D01*
X146346295Y-78612139D01*
X146282184Y-78766917D01*
X146282182Y-78766925D01*
X146249500Y-78931228D01*
X122680021Y-78931228D01*
X122571963Y-78899500D01*
X122571961Y-78899500D01*
X122428039Y-78899500D01*
X122428036Y-78899500D01*
X122289949Y-78940045D01*
X122168873Y-79017856D01*
X122074623Y-79126626D01*
X122074622Y-79126628D01*
X122014834Y-79257543D01*
X121994353Y-79400000D01*
X116083005Y-79400000D01*
X115977625Y-79319139D01*
X115977624Y-79319138D01*
X115977622Y-79319137D01*
X115843712Y-79263671D01*
X115843710Y-79263670D01*
X115843709Y-79263670D01*
X115725248Y-79248074D01*
X115700001Y-79244750D01*
X115699999Y-79244750D01*
X115556291Y-79263670D01*
X115556287Y-79263671D01*
X115422377Y-79319137D01*
X115307379Y-79407379D01*
X115219137Y-79522377D01*
X115163671Y-79656287D01*
X115163670Y-79656291D01*
X115144750Y-79799999D01*
X70300500Y-79799999D01*
X70300500Y-77799999D01*
X98644750Y-77799999D01*
X98644750Y-77800000D01*
X98663670Y-77943708D01*
X98663671Y-77943712D01*
X98719137Y-78077622D01*
X98719138Y-78077624D01*
X98719139Y-78077625D01*
X98807379Y-78192621D01*
X98922375Y-78280861D01*
X99056291Y-78336330D01*
X99183280Y-78353048D01*
X99199999Y-78355250D01*
X99200000Y-78355250D01*
X99200001Y-78355250D01*
X99214977Y-78353278D01*
X99343709Y-78336330D01*
X99477625Y-78280861D01*
X99592621Y-78192621D01*
X99680861Y-78077625D01*
X99713014Y-78000000D01*
X129594353Y-78000000D01*
X129614834Y-78142456D01*
X129669107Y-78261295D01*
X129674623Y-78273373D01*
X129768872Y-78382143D01*
X129889947Y-78459953D01*
X129889950Y-78459954D01*
X129889949Y-78459954D01*
X130028036Y-78500499D01*
X130028038Y-78500500D01*
X130028039Y-78500500D01*
X130171962Y-78500500D01*
X130171962Y-78500499D01*
X130310053Y-78459953D01*
X130431128Y-78382143D01*
X130525377Y-78273373D01*
X130585165Y-78142457D01*
X130605647Y-78000000D01*
X130585165Y-77857543D01*
X130525377Y-77726627D01*
X130431128Y-77617857D01*
X130310053Y-77540047D01*
X130310051Y-77540046D01*
X130310049Y-77540045D01*
X130310050Y-77540045D01*
X130171963Y-77499500D01*
X130171961Y-77499500D01*
X130028039Y-77499500D01*
X130028036Y-77499500D01*
X129889949Y-77540045D01*
X129768873Y-77617856D01*
X129674623Y-77726626D01*
X129674622Y-77726628D01*
X129614834Y-77857543D01*
X129594353Y-78000000D01*
X99713014Y-78000000D01*
X99736330Y-77943709D01*
X99755250Y-77800000D01*
X99736330Y-77656291D01*
X99680861Y-77522375D01*
X99592621Y-77407379D01*
X99477625Y-77319139D01*
X99477624Y-77319138D01*
X99477622Y-77319137D01*
X99343712Y-77263671D01*
X99343710Y-77263670D01*
X99343709Y-77263670D01*
X99271854Y-77254210D01*
X99200001Y-77244750D01*
X99199999Y-77244750D01*
X99056291Y-77263670D01*
X99056287Y-77263671D01*
X98922377Y-77319137D01*
X98807379Y-77407379D01*
X98719137Y-77522377D01*
X98663671Y-77656287D01*
X98663670Y-77656291D01*
X98644750Y-77799999D01*
X70300500Y-77799999D01*
X70300500Y-76391228D01*
X146249500Y-76391228D01*
X146249500Y-76558771D01*
X146282182Y-76723074D01*
X146282184Y-76723082D01*
X146346295Y-76877860D01*
X146439373Y-77017162D01*
X146557837Y-77135626D01*
X146650494Y-77197537D01*
X146697137Y-77228703D01*
X146851918Y-77292816D01*
X146984244Y-77319137D01*
X147016228Y-77325499D01*
X147016232Y-77325500D01*
X147016233Y-77325500D01*
X147183768Y-77325500D01*
X147183769Y-77325499D01*
X147348082Y-77292816D01*
X147502863Y-77228703D01*
X147642162Y-77135626D01*
X147760626Y-77017162D01*
X147853703Y-76877863D01*
X147917816Y-76723082D01*
X147950500Y-76558767D01*
X147950500Y-76391233D01*
X147947515Y-76376228D01*
X156749500Y-76376228D01*
X156749500Y-76543771D01*
X156782182Y-76708074D01*
X156782184Y-76708082D01*
X156846295Y-76862860D01*
X156939373Y-77002162D01*
X157057837Y-77120626D01*
X157150494Y-77182537D01*
X157197137Y-77213703D01*
X157351918Y-77277816D01*
X157516228Y-77310499D01*
X157516232Y-77310500D01*
X157516233Y-77310500D01*
X157683768Y-77310500D01*
X157683769Y-77310499D01*
X157848082Y-77277816D01*
X158002863Y-77213703D01*
X158142162Y-77120626D01*
X158260626Y-77002162D01*
X158353703Y-76862863D01*
X158417816Y-76708082D01*
X158450500Y-76543767D01*
X158450500Y-76376233D01*
X158417816Y-76211918D01*
X158353703Y-76057137D01*
X158270649Y-75932838D01*
X158260626Y-75917837D01*
X158142162Y-75799373D01*
X158002860Y-75706295D01*
X157848082Y-75642184D01*
X157848074Y-75642182D01*
X157683771Y-75609500D01*
X157683767Y-75609500D01*
X157516233Y-75609500D01*
X157516228Y-75609500D01*
X157351925Y-75642182D01*
X157351917Y-75642184D01*
X157197139Y-75706295D01*
X157057837Y-75799373D01*
X156939373Y-75917837D01*
X156846295Y-76057139D01*
X156782184Y-76211917D01*
X156782182Y-76211925D01*
X156749500Y-76376228D01*
X147947515Y-76376228D01*
X147917816Y-76226918D01*
X147853703Y-76072137D01*
X147822537Y-76025494D01*
X147760626Y-75932837D01*
X147642162Y-75814373D01*
X147502860Y-75721295D01*
X147348082Y-75657184D01*
X147348074Y-75657182D01*
X147183771Y-75624500D01*
X147183767Y-75624500D01*
X147016233Y-75624500D01*
X147016228Y-75624500D01*
X146851925Y-75657182D01*
X146851917Y-75657184D01*
X146697139Y-75721295D01*
X146557837Y-75814373D01*
X146439373Y-75932837D01*
X146346295Y-76072139D01*
X146282184Y-76226917D01*
X146282182Y-76226925D01*
X146249500Y-76391228D01*
X70300500Y-76391228D01*
X70300500Y-74699999D01*
X123844750Y-74699999D01*
X123844750Y-74700000D01*
X123863670Y-74843708D01*
X123863671Y-74843712D01*
X123919137Y-74977622D01*
X123919138Y-74977624D01*
X123919139Y-74977625D01*
X124007379Y-75092621D01*
X124122375Y-75180861D01*
X124256291Y-75236330D01*
X124383280Y-75253048D01*
X124399999Y-75255250D01*
X124400000Y-75255250D01*
X124400001Y-75255250D01*
X124414977Y-75253278D01*
X124543709Y-75236330D01*
X124677625Y-75180861D01*
X124792621Y-75092621D01*
X124880861Y-74977625D01*
X124936330Y-74843709D01*
X124955250Y-74700000D01*
X124942085Y-74600000D01*
X133344750Y-74600000D01*
X133357915Y-74700000D01*
X133363670Y-74743708D01*
X133363671Y-74743712D01*
X133419137Y-74877622D01*
X133419138Y-74877624D01*
X133419139Y-74877625D01*
X133507379Y-74992621D01*
X133622375Y-75080861D01*
X133622376Y-75080861D01*
X133622377Y-75080862D01*
X133667013Y-75099350D01*
X133756291Y-75136330D01*
X133883280Y-75153048D01*
X133899999Y-75155250D01*
X133900000Y-75155250D01*
X133900001Y-75155250D01*
X133914977Y-75153278D01*
X134043709Y-75136330D01*
X134177625Y-75080861D01*
X134292621Y-74992621D01*
X134380861Y-74877625D01*
X134436330Y-74743709D01*
X134455250Y-74600000D01*
X134436330Y-74456291D01*
X134380861Y-74322375D01*
X134292621Y-74207379D01*
X134177625Y-74119139D01*
X134177624Y-74119138D01*
X134177622Y-74119137D01*
X134043712Y-74063671D01*
X134043710Y-74063670D01*
X134043709Y-74063670D01*
X133971854Y-74054210D01*
X133900001Y-74044750D01*
X133899999Y-74044750D01*
X133756291Y-74063670D01*
X133756287Y-74063671D01*
X133622377Y-74119137D01*
X133507379Y-74207379D01*
X133419137Y-74322377D01*
X133363671Y-74456287D01*
X133363670Y-74456291D01*
X133350505Y-74556291D01*
X133344750Y-74600000D01*
X124942085Y-74600000D01*
X124936330Y-74556291D01*
X124880861Y-74422375D01*
X124792621Y-74307379D01*
X124677625Y-74219139D01*
X124677624Y-74219138D01*
X124677622Y-74219137D01*
X124543712Y-74163671D01*
X124543710Y-74163670D01*
X124543709Y-74163670D01*
X124471854Y-74154210D01*
X124400001Y-74144750D01*
X124399999Y-74144750D01*
X124256291Y-74163670D01*
X124256287Y-74163671D01*
X124122377Y-74219137D01*
X124007379Y-74307379D01*
X123919137Y-74422377D01*
X123863671Y-74556287D01*
X123863670Y-74556291D01*
X123844750Y-74699999D01*
X70300500Y-74699999D01*
X70300500Y-72394999D01*
X137449750Y-72394999D01*
X137449750Y-72395000D01*
X137468670Y-72538708D01*
X137468671Y-72538712D01*
X137524137Y-72672622D01*
X137524138Y-72672624D01*
X137524139Y-72672625D01*
X137612379Y-72787621D01*
X137727375Y-72875861D01*
X137861291Y-72931330D01*
X137988280Y-72948048D01*
X138004999Y-72950250D01*
X138005000Y-72950250D01*
X138005001Y-72950250D01*
X138019977Y-72948278D01*
X138148709Y-72931330D01*
X138282625Y-72875861D01*
X138397621Y-72787621D01*
X138485861Y-72672625D01*
X138541330Y-72538709D01*
X138560250Y-72395000D01*
X138541330Y-72251291D01*
X138485861Y-72117375D01*
X138397621Y-72002379D01*
X138282625Y-71914139D01*
X138282624Y-71914138D01*
X138282622Y-71914137D01*
X138148712Y-71858671D01*
X138148710Y-71858670D01*
X138148709Y-71858670D01*
X138076854Y-71849210D01*
X138005001Y-71839750D01*
X138004999Y-71839750D01*
X137861291Y-71858670D01*
X137861287Y-71858671D01*
X137727377Y-71914137D01*
X137612379Y-72002379D01*
X137524137Y-72117377D01*
X137468671Y-72251287D01*
X137468670Y-72251291D01*
X137449750Y-72394999D01*
X70300500Y-72394999D01*
X70300500Y-69500000D01*
X126494353Y-69500000D01*
X126514834Y-69642456D01*
X126541114Y-69699999D01*
X126574623Y-69773373D01*
X126668872Y-69882143D01*
X126789947Y-69959953D01*
X126789950Y-69959954D01*
X126789949Y-69959954D01*
X126928036Y-70000499D01*
X126928038Y-70000500D01*
X126928039Y-70000500D01*
X127071962Y-70000500D01*
X127071962Y-70000499D01*
X127210053Y-69959953D01*
X127331128Y-69882143D01*
X127425377Y-69773373D01*
X127458886Y-69699999D01*
X136144750Y-69699999D01*
X136144750Y-69700000D01*
X136163670Y-69843708D01*
X136163671Y-69843712D01*
X136219137Y-69977622D01*
X136219138Y-69977624D01*
X136219139Y-69977625D01*
X136307379Y-70092621D01*
X136422375Y-70180861D01*
X136556291Y-70236330D01*
X136683280Y-70253048D01*
X136699999Y-70255250D01*
X136700000Y-70255250D01*
X136700001Y-70255250D01*
X136714977Y-70253278D01*
X136843709Y-70236330D01*
X136977625Y-70180861D01*
X137092621Y-70092621D01*
X137180861Y-69977625D01*
X137236330Y-69843709D01*
X137255250Y-69700000D01*
X137236330Y-69556291D01*
X137180861Y-69422375D01*
X137092621Y-69307379D01*
X136977625Y-69219139D01*
X136977624Y-69219138D01*
X136977622Y-69219137D01*
X136843712Y-69163671D01*
X136843710Y-69163670D01*
X136843709Y-69163670D01*
X136771854Y-69154210D01*
X136700001Y-69144750D01*
X136699999Y-69144750D01*
X136556291Y-69163670D01*
X136556287Y-69163671D01*
X136422377Y-69219137D01*
X136307379Y-69307379D01*
X136219137Y-69422377D01*
X136163671Y-69556287D01*
X136163670Y-69556291D01*
X136144750Y-69699999D01*
X127458886Y-69699999D01*
X127485165Y-69642457D01*
X127505647Y-69500000D01*
X127485165Y-69357543D01*
X127425377Y-69226627D01*
X127331128Y-69117857D01*
X127210053Y-69040047D01*
X127210051Y-69040046D01*
X127210049Y-69040045D01*
X127210050Y-69040045D01*
X127071963Y-68999500D01*
X127071961Y-68999500D01*
X126928039Y-68999500D01*
X126928036Y-68999500D01*
X126789949Y-69040045D01*
X126668873Y-69117856D01*
X126574623Y-69226626D01*
X126574622Y-69226628D01*
X126514834Y-69357543D01*
X126494353Y-69500000D01*
X70300500Y-69500000D01*
X70300500Y-68599999D01*
X129644750Y-68599999D01*
X129644750Y-68600000D01*
X129663670Y-68743708D01*
X129663671Y-68743712D01*
X129719137Y-68877622D01*
X129719138Y-68877624D01*
X129719139Y-68877625D01*
X129807379Y-68992621D01*
X129922375Y-69080861D01*
X130056291Y-69136330D01*
X130183280Y-69153048D01*
X130199999Y-69155250D01*
X130200000Y-69155250D01*
X130200001Y-69155250D01*
X130214977Y-69153278D01*
X130343709Y-69136330D01*
X130477625Y-69080861D01*
X130592621Y-68992621D01*
X130680861Y-68877625D01*
X130736330Y-68743709D01*
X130755250Y-68600000D01*
X130736330Y-68456291D01*
X130680861Y-68322375D01*
X130592621Y-68207379D01*
X130477625Y-68119139D01*
X130477624Y-68119138D01*
X130477622Y-68119137D01*
X130343712Y-68063671D01*
X130343710Y-68063670D01*
X130343709Y-68063670D01*
X130271854Y-68054210D01*
X130200001Y-68044750D01*
X130199999Y-68044750D01*
X130056291Y-68063670D01*
X130056287Y-68063671D01*
X129922377Y-68119137D01*
X129807379Y-68207379D01*
X129719137Y-68322377D01*
X129663671Y-68456287D01*
X129663670Y-68456291D01*
X129644750Y-68599999D01*
X70300500Y-68599999D01*
X70300500Y-66999999D01*
X112544750Y-66999999D01*
X112544750Y-67000000D01*
X112563670Y-67143708D01*
X112563671Y-67143712D01*
X112619137Y-67277622D01*
X112619138Y-67277624D01*
X112619139Y-67277625D01*
X112707379Y-67392621D01*
X112822375Y-67480861D01*
X112956291Y-67536330D01*
X113083280Y-67553048D01*
X113099999Y-67555250D01*
X113100000Y-67555250D01*
X113100001Y-67555250D01*
X113114977Y-67553278D01*
X113243709Y-67536330D01*
X113377625Y-67480861D01*
X113492621Y-67392621D01*
X113580861Y-67277625D01*
X113636330Y-67143709D01*
X113655250Y-67000000D01*
X113636330Y-66856291D01*
X113580861Y-66722375D01*
X113492621Y-66607379D01*
X113377625Y-66519139D01*
X113377624Y-66519138D01*
X113377622Y-66519137D01*
X113243712Y-66463671D01*
X113243710Y-66463670D01*
X113243709Y-66463670D01*
X113124633Y-66447993D01*
X113100001Y-66444750D01*
X113099999Y-66444750D01*
X112956291Y-66463670D01*
X112956287Y-66463671D01*
X112822377Y-66519137D01*
X112707379Y-66607379D01*
X112619137Y-66722377D01*
X112563671Y-66856287D01*
X112563670Y-66856291D01*
X112544750Y-66999999D01*
X70300500Y-66999999D01*
X70300500Y-66400000D01*
X132744750Y-66400000D01*
X132753132Y-66463670D01*
X132763670Y-66543708D01*
X132763671Y-66543712D01*
X132819137Y-66677622D01*
X132819138Y-66677624D01*
X132819139Y-66677625D01*
X132907379Y-66792621D01*
X133022375Y-66880861D01*
X133156291Y-66936330D01*
X133283280Y-66953048D01*
X133299999Y-66955250D01*
X133300000Y-66955250D01*
X133300001Y-66955250D01*
X133314977Y-66953278D01*
X133443709Y-66936330D01*
X133577625Y-66880861D01*
X133692621Y-66792621D01*
X133780861Y-66677625D01*
X133836330Y-66543709D01*
X133855250Y-66400000D01*
X133836330Y-66256291D01*
X133780861Y-66122375D01*
X133692621Y-66007379D01*
X133689519Y-66004999D01*
X140194364Y-66004999D01*
X140194364Y-66005000D01*
X141091988Y-66005000D01*
X141059075Y-66062007D01*
X141025000Y-66189174D01*
X141025000Y-66320826D01*
X141059075Y-66447993D01*
X141091988Y-66505000D01*
X140194364Y-66505000D01*
X140251567Y-66718486D01*
X140251570Y-66718492D01*
X140351399Y-66932578D01*
X140486894Y-67126082D01*
X140653917Y-67293105D01*
X140847421Y-67428600D01*
X141061507Y-67528429D01*
X141061516Y-67528433D01*
X141275000Y-67585634D01*
X141275000Y-66688012D01*
X141332007Y-66720925D01*
X141459174Y-66755000D01*
X141590826Y-66755000D01*
X141717993Y-66720925D01*
X141775000Y-66688012D01*
X141775000Y-67585633D01*
X141988483Y-67528433D01*
X141988492Y-67528429D01*
X142202578Y-67428600D01*
X142396082Y-67293105D01*
X142563105Y-67126082D01*
X142693425Y-66939968D01*
X142748002Y-66896344D01*
X142817501Y-66889151D01*
X142879855Y-66920673D01*
X142896575Y-66939968D01*
X143026894Y-67126082D01*
X143193917Y-67293105D01*
X143387421Y-67428600D01*
X143601507Y-67528429D01*
X143601516Y-67528433D01*
X143815000Y-67585634D01*
X143815000Y-66688012D01*
X143872007Y-66720925D01*
X143999174Y-66755000D01*
X144130826Y-66755000D01*
X144257993Y-66720925D01*
X144315000Y-66688012D01*
X144315000Y-67585633D01*
X144528483Y-67528433D01*
X144528492Y-67528429D01*
X144742578Y-67428600D01*
X144936082Y-67293105D01*
X145103105Y-67126082D01*
X145238600Y-66932578D01*
X145338429Y-66718492D01*
X145338432Y-66718486D01*
X145395636Y-66505000D01*
X144498012Y-66505000D01*
X144530925Y-66447993D01*
X144565000Y-66320826D01*
X144565000Y-66189174D01*
X144530925Y-66062007D01*
X144498012Y-66005000D01*
X145395636Y-66005000D01*
X145395635Y-66004999D01*
X145338432Y-65791513D01*
X145338429Y-65791507D01*
X145238600Y-65577422D01*
X145238599Y-65577420D01*
X145103113Y-65383926D01*
X145103108Y-65383920D01*
X144936082Y-65216894D01*
X144742578Y-65081399D01*
X144528492Y-64981570D01*
X144528486Y-64981567D01*
X144315000Y-64924364D01*
X144315000Y-65821988D01*
X144257993Y-65789075D01*
X144130826Y-65755000D01*
X143999174Y-65755000D01*
X143872007Y-65789075D01*
X143815000Y-65821988D01*
X143815000Y-64924364D01*
X143814999Y-64924364D01*
X143601513Y-64981567D01*
X143601507Y-64981570D01*
X143387422Y-65081399D01*
X143387420Y-65081400D01*
X143193926Y-65216886D01*
X143193920Y-65216891D01*
X143026891Y-65383920D01*
X143026890Y-65383922D01*
X142896575Y-65570031D01*
X142841998Y-65613655D01*
X142772499Y-65620848D01*
X142710145Y-65589326D01*
X142693425Y-65570031D01*
X142563109Y-65383922D01*
X142563108Y-65383920D01*
X142396082Y-65216894D01*
X142202578Y-65081399D01*
X141988492Y-64981570D01*
X141988486Y-64981567D01*
X141775000Y-64924364D01*
X141775000Y-65821988D01*
X141717993Y-65789075D01*
X141590826Y-65755000D01*
X141459174Y-65755000D01*
X141332007Y-65789075D01*
X141275000Y-65821988D01*
X141275000Y-64924364D01*
X141274999Y-64924364D01*
X141061513Y-64981567D01*
X141061507Y-64981570D01*
X140847422Y-65081399D01*
X140847420Y-65081400D01*
X140653926Y-65216886D01*
X140653920Y-65216891D01*
X140486891Y-65383920D01*
X140486886Y-65383926D01*
X140351400Y-65577420D01*
X140351399Y-65577422D01*
X140251570Y-65791507D01*
X140251567Y-65791513D01*
X140194364Y-66004999D01*
X133689519Y-66004999D01*
X133577625Y-65919139D01*
X133577624Y-65919138D01*
X133577622Y-65919137D01*
X133443712Y-65863671D01*
X133443710Y-65863670D01*
X133443709Y-65863670D01*
X133371854Y-65854210D01*
X133300001Y-65844750D01*
X133299999Y-65844750D01*
X133156291Y-65863670D01*
X133156287Y-65863671D01*
X133022377Y-65919137D01*
X132907379Y-66007379D01*
X132819137Y-66122377D01*
X132763671Y-66256287D01*
X132763670Y-66256291D01*
X132744750Y-66400000D01*
X70300500Y-66400000D01*
X70300500Y-64300000D01*
X99494353Y-64300000D01*
X99514834Y-64442456D01*
X99556101Y-64532816D01*
X99574623Y-64573373D01*
X99668872Y-64682143D01*
X99789947Y-64759953D01*
X99789950Y-64759954D01*
X99789949Y-64759954D01*
X99928036Y-64800499D01*
X99928038Y-64800500D01*
X99928039Y-64800500D01*
X100071962Y-64800500D01*
X100071962Y-64800499D01*
X100210053Y-64759953D01*
X100331128Y-64682143D01*
X100425377Y-64573373D01*
X100485165Y-64442457D01*
X100505647Y-64300000D01*
X100485165Y-64157543D01*
X100425377Y-64026627D01*
X100331128Y-63917857D01*
X100210053Y-63840047D01*
X100210051Y-63840046D01*
X100210049Y-63840045D01*
X100210050Y-63840045D01*
X100071963Y-63799500D01*
X100071961Y-63799500D01*
X99928039Y-63799500D01*
X99928036Y-63799500D01*
X99789949Y-63840045D01*
X99668873Y-63917856D01*
X99574623Y-64026626D01*
X99574622Y-64026628D01*
X99514834Y-64157543D01*
X99494353Y-64300000D01*
X70300500Y-64300000D01*
X70300500Y-63631228D01*
X140674500Y-63631228D01*
X140674500Y-63798771D01*
X140707182Y-63963074D01*
X140707184Y-63963082D01*
X140771295Y-64117860D01*
X140864373Y-64257162D01*
X140982837Y-64375626D01*
X141075494Y-64437537D01*
X141122137Y-64468703D01*
X141276918Y-64532816D01*
X141441228Y-64565499D01*
X141441232Y-64565500D01*
X141441233Y-64565500D01*
X141608768Y-64565500D01*
X141608769Y-64565499D01*
X141773082Y-64532816D01*
X141927863Y-64468703D01*
X142067162Y-64375626D01*
X142185626Y-64257162D01*
X142278703Y-64117863D01*
X142342816Y-63963082D01*
X142375500Y-63798767D01*
X142375500Y-63631233D01*
X142375499Y-63631228D01*
X143214500Y-63631228D01*
X143214500Y-63798771D01*
X143247182Y-63963074D01*
X143247184Y-63963082D01*
X143311295Y-64117860D01*
X143404373Y-64257162D01*
X143522837Y-64375626D01*
X143615494Y-64437537D01*
X143662137Y-64468703D01*
X143816918Y-64532816D01*
X143981228Y-64565499D01*
X143981232Y-64565500D01*
X143981233Y-64565500D01*
X144148768Y-64565500D01*
X144148769Y-64565499D01*
X144313082Y-64532816D01*
X144467863Y-64468703D01*
X144607162Y-64375626D01*
X144725626Y-64257162D01*
X144818703Y-64117863D01*
X144882816Y-63963082D01*
X144915500Y-63798767D01*
X144915500Y-63631233D01*
X144882816Y-63466918D01*
X144818703Y-63312137D01*
X144787537Y-63265494D01*
X144725626Y-63172837D01*
X144607162Y-63054373D01*
X144467860Y-62961295D01*
X144313082Y-62897184D01*
X144313074Y-62897182D01*
X144148771Y-62864500D01*
X144148767Y-62864500D01*
X143981233Y-62864500D01*
X143981228Y-62864500D01*
X143816925Y-62897182D01*
X143816917Y-62897184D01*
X143662139Y-62961295D01*
X143522837Y-63054373D01*
X143404373Y-63172837D01*
X143311295Y-63312139D01*
X143247184Y-63466917D01*
X143247182Y-63466925D01*
X143214500Y-63631228D01*
X142375499Y-63631228D01*
X142342816Y-63466918D01*
X142278703Y-63312137D01*
X142247537Y-63265494D01*
X142185626Y-63172837D01*
X142067162Y-63054373D01*
X141927860Y-62961295D01*
X141773082Y-62897184D01*
X141773074Y-62897182D01*
X141608771Y-62864500D01*
X141608767Y-62864500D01*
X141441233Y-62864500D01*
X141441228Y-62864500D01*
X141276925Y-62897182D01*
X141276917Y-62897184D01*
X141122139Y-62961295D01*
X140982837Y-63054373D01*
X140864373Y-63172837D01*
X140771295Y-63312139D01*
X140707184Y-63466917D01*
X140707182Y-63466925D01*
X140674500Y-63631228D01*
X70300500Y-63631228D01*
X70300500Y-61091228D01*
X140674500Y-61091228D01*
X140674500Y-61258771D01*
X140707182Y-61423074D01*
X140707184Y-61423082D01*
X140771295Y-61577860D01*
X140864373Y-61717162D01*
X140982837Y-61835626D01*
X141075494Y-61897537D01*
X141122137Y-61928703D01*
X141276918Y-61992816D01*
X141441228Y-62025499D01*
X141441232Y-62025500D01*
X141441233Y-62025500D01*
X141608768Y-62025500D01*
X141608769Y-62025499D01*
X141773082Y-61992816D01*
X141927863Y-61928703D01*
X142067162Y-61835626D01*
X142185626Y-61717162D01*
X142278703Y-61577863D01*
X142342816Y-61423082D01*
X142375500Y-61258767D01*
X142375500Y-61091233D01*
X142375499Y-61091228D01*
X143214500Y-61091228D01*
X143214500Y-61258771D01*
X143247182Y-61423074D01*
X143247184Y-61423082D01*
X143311295Y-61577860D01*
X143404373Y-61717162D01*
X143522837Y-61835626D01*
X143615494Y-61897537D01*
X143662137Y-61928703D01*
X143816918Y-61992816D01*
X143981228Y-62025499D01*
X143981232Y-62025500D01*
X143981233Y-62025500D01*
X144148768Y-62025500D01*
X144148769Y-62025499D01*
X144313082Y-61992816D01*
X144467863Y-61928703D01*
X144607162Y-61835626D01*
X144725626Y-61717162D01*
X144818703Y-61577863D01*
X144882816Y-61423082D01*
X144915500Y-61258767D01*
X144915500Y-61091233D01*
X144882816Y-60926918D01*
X144818703Y-60772137D01*
X144752711Y-60673373D01*
X144725626Y-60632837D01*
X144607162Y-60514373D01*
X144467860Y-60421295D01*
X144313082Y-60357184D01*
X144313074Y-60357182D01*
X144148771Y-60324500D01*
X144148767Y-60324500D01*
X143981233Y-60324500D01*
X143981228Y-60324500D01*
X143816925Y-60357182D01*
X143816917Y-60357184D01*
X143662139Y-60421295D01*
X143522837Y-60514373D01*
X143404373Y-60632837D01*
X143311295Y-60772139D01*
X143247184Y-60926917D01*
X143247182Y-60926925D01*
X143214500Y-61091228D01*
X142375499Y-61091228D01*
X142342816Y-60926918D01*
X142278703Y-60772137D01*
X142212711Y-60673373D01*
X142185626Y-60632837D01*
X142067162Y-60514373D01*
X141927860Y-60421295D01*
X141773082Y-60357184D01*
X141773074Y-60357182D01*
X141608771Y-60324500D01*
X141608767Y-60324500D01*
X141441233Y-60324500D01*
X141441228Y-60324500D01*
X141276925Y-60357182D01*
X141276917Y-60357184D01*
X141122139Y-60421295D01*
X140982837Y-60514373D01*
X140864373Y-60632837D01*
X140771295Y-60772139D01*
X140707184Y-60926917D01*
X140707182Y-60926925D01*
X140674500Y-61091228D01*
X70300500Y-61091228D01*
X70300500Y-60400000D01*
X110594353Y-60400000D01*
X110614834Y-60542456D01*
X110656111Y-60632838D01*
X110674623Y-60673373D01*
X110768872Y-60782143D01*
X110889947Y-60859953D01*
X110889950Y-60859954D01*
X110889949Y-60859954D01*
X111028036Y-60900499D01*
X111028038Y-60900500D01*
X111028039Y-60900500D01*
X111171962Y-60900500D01*
X111171962Y-60900499D01*
X111310053Y-60859953D01*
X111431128Y-60782143D01*
X111525377Y-60673373D01*
X111585165Y-60542457D01*
X111605647Y-60400000D01*
X111585165Y-60257543D01*
X111525377Y-60126627D01*
X111431128Y-60017857D01*
X111310053Y-59940047D01*
X111310051Y-59940046D01*
X111310049Y-59940045D01*
X111310050Y-59940045D01*
X111173666Y-59900000D01*
X126944750Y-59900000D01*
X126960266Y-60017857D01*
X126963670Y-60043708D01*
X126963671Y-60043712D01*
X127019137Y-60177622D01*
X127019138Y-60177624D01*
X127019139Y-60177625D01*
X127107379Y-60292621D01*
X127222375Y-60380861D01*
X127356291Y-60436330D01*
X127483280Y-60453048D01*
X127499999Y-60455250D01*
X127500000Y-60455250D01*
X127500001Y-60455250D01*
X127514977Y-60453278D01*
X127643709Y-60436330D01*
X127777625Y-60380861D01*
X127892621Y-60292621D01*
X127980861Y-60177625D01*
X128036330Y-60043709D01*
X128055250Y-59900000D01*
X128036330Y-59756291D01*
X127980861Y-59622375D01*
X127892621Y-59507379D01*
X127777625Y-59419139D01*
X127777624Y-59419138D01*
X127777622Y-59419137D01*
X127643712Y-59363671D01*
X127643710Y-59363670D01*
X127643709Y-59363670D01*
X127543675Y-59350500D01*
X127500001Y-59344750D01*
X127499999Y-59344750D01*
X127356291Y-59363670D01*
X127356287Y-59363671D01*
X127222377Y-59419137D01*
X127107379Y-59507379D01*
X127019137Y-59622377D01*
X126963671Y-59756287D01*
X126963670Y-59756291D01*
X126944750Y-59900000D01*
X111173666Y-59900000D01*
X111171963Y-59899500D01*
X111171961Y-59899500D01*
X111028039Y-59899500D01*
X111028036Y-59899500D01*
X110889949Y-59940045D01*
X110768873Y-60017856D01*
X110674623Y-60126626D01*
X110674622Y-60126628D01*
X110614834Y-60257543D01*
X110594353Y-60400000D01*
X70300500Y-60400000D01*
X70300500Y-58361304D01*
X82099500Y-58361304D01*
X82099500Y-58538695D01*
X82134103Y-58712658D01*
X82134106Y-58712667D01*
X82201983Y-58876540D01*
X82201990Y-58876553D01*
X82300535Y-59024034D01*
X82300538Y-59024038D01*
X82425961Y-59149461D01*
X82425965Y-59149464D01*
X82573446Y-59248009D01*
X82573459Y-59248016D01*
X82696363Y-59298923D01*
X82737334Y-59315894D01*
X82737336Y-59315894D01*
X82737341Y-59315896D01*
X82911304Y-59350499D01*
X82911307Y-59350500D01*
X82911309Y-59350500D01*
X83088693Y-59350500D01*
X83088694Y-59350499D01*
X83146682Y-59338964D01*
X83262658Y-59315896D01*
X83262661Y-59315894D01*
X83262666Y-59315894D01*
X83426547Y-59248013D01*
X83574035Y-59149464D01*
X83699464Y-59024035D01*
X83798013Y-58876547D01*
X83865894Y-58712666D01*
X83900500Y-58538691D01*
X83900500Y-58449999D01*
X84169939Y-58449999D01*
X84169939Y-58450000D01*
X84190145Y-58680958D01*
X84190147Y-58680968D01*
X84250148Y-58904900D01*
X84250152Y-58904909D01*
X84348133Y-59115030D01*
X84403023Y-59193422D01*
X84976212Y-58620233D01*
X84987482Y-58662292D01*
X85059890Y-58787708D01*
X85162292Y-58890110D01*
X85287708Y-58962518D01*
X85329765Y-58973787D01*
X84756576Y-59546975D01*
X84834969Y-59601867D01*
X85045090Y-59699847D01*
X85045099Y-59699851D01*
X85269031Y-59759852D01*
X85269041Y-59759854D01*
X85499999Y-59780061D01*
X85500001Y-59780061D01*
X85730958Y-59759854D01*
X85730968Y-59759852D01*
X85954900Y-59699851D01*
X85954909Y-59699847D01*
X86165030Y-59601867D01*
X86165034Y-59601865D01*
X86243422Y-59546976D01*
X86243422Y-59546975D01*
X85670235Y-58973787D01*
X85712292Y-58962518D01*
X85837708Y-58890110D01*
X85940110Y-58787708D01*
X86012518Y-58662292D01*
X86023787Y-58620234D01*
X86596975Y-59193422D01*
X86596976Y-59193422D01*
X86651865Y-59115034D01*
X86651867Y-59115030D01*
X86749847Y-58904909D01*
X86749851Y-58904900D01*
X86809852Y-58680968D01*
X86809854Y-58680958D01*
X86830061Y-58450000D01*
X86830061Y-58449999D01*
X86822301Y-58361304D01*
X87099500Y-58361304D01*
X87099500Y-58538695D01*
X87134103Y-58712658D01*
X87134106Y-58712667D01*
X87201983Y-58876540D01*
X87201990Y-58876553D01*
X87300535Y-59024034D01*
X87300538Y-59024038D01*
X87425961Y-59149461D01*
X87425965Y-59149464D01*
X87573446Y-59248009D01*
X87573459Y-59248016D01*
X87696363Y-59298923D01*
X87737334Y-59315894D01*
X87737336Y-59315894D01*
X87737341Y-59315896D01*
X87911304Y-59350499D01*
X87911307Y-59350500D01*
X87911309Y-59350500D01*
X88088693Y-59350500D01*
X88088694Y-59350499D01*
X88146682Y-59338964D01*
X88262658Y-59315896D01*
X88262661Y-59315894D01*
X88262666Y-59315894D01*
X88426547Y-59248013D01*
X88574035Y-59149464D01*
X88699464Y-59024035D01*
X88798013Y-58876547D01*
X88865894Y-58712666D01*
X88900500Y-58538691D01*
X88900500Y-58361309D01*
X88900500Y-58361306D01*
X88900499Y-58361304D01*
X88865896Y-58187341D01*
X88865893Y-58187332D01*
X88798016Y-58023459D01*
X88798009Y-58023446D01*
X88699464Y-57875965D01*
X88699461Y-57875961D01*
X88574038Y-57750538D01*
X88574034Y-57750535D01*
X88426553Y-57651990D01*
X88426540Y-57651983D01*
X88262667Y-57584106D01*
X88262658Y-57584103D01*
X88088694Y-57549500D01*
X88088691Y-57549500D01*
X87911309Y-57549500D01*
X87911306Y-57549500D01*
X87737341Y-57584103D01*
X87737332Y-57584106D01*
X87573459Y-57651983D01*
X87573446Y-57651990D01*
X87425965Y-57750535D01*
X87425961Y-57750538D01*
X87300538Y-57875961D01*
X87300535Y-57875965D01*
X87201990Y-58023446D01*
X87201983Y-58023459D01*
X87134106Y-58187332D01*
X87134103Y-58187341D01*
X87099500Y-58361304D01*
X86822301Y-58361304D01*
X86809854Y-58219041D01*
X86809852Y-58219031D01*
X86749851Y-57995099D01*
X86749847Y-57995090D01*
X86651867Y-57784971D01*
X86651866Y-57784969D01*
X86596975Y-57706577D01*
X86596975Y-57706576D01*
X86023787Y-58279764D01*
X86012518Y-58237708D01*
X85940110Y-58112292D01*
X85837708Y-58009890D01*
X85712292Y-57937482D01*
X85670234Y-57926212D01*
X86243422Y-57353023D01*
X86165030Y-57298133D01*
X85954909Y-57200152D01*
X85954900Y-57200148D01*
X85954348Y-57200000D01*
X124694353Y-57200000D01*
X124714834Y-57342456D01*
X124719660Y-57353023D01*
X124774623Y-57473373D01*
X124868872Y-57582143D01*
X124989947Y-57659953D01*
X124989950Y-57659954D01*
X124989949Y-57659954D01*
X125128036Y-57700499D01*
X125128038Y-57700500D01*
X125128039Y-57700500D01*
X125271962Y-57700500D01*
X125271962Y-57700499D01*
X125410053Y-57659953D01*
X125531128Y-57582143D01*
X125625377Y-57473373D01*
X125685165Y-57342457D01*
X125705647Y-57200000D01*
X125685165Y-57057543D01*
X125625377Y-56926627D01*
X125531128Y-56817857D01*
X125410053Y-56740047D01*
X125410051Y-56740046D01*
X125410049Y-56740045D01*
X125410050Y-56740045D01*
X125271963Y-56699500D01*
X125271961Y-56699500D01*
X125128039Y-56699500D01*
X125128036Y-56699500D01*
X124989949Y-56740045D01*
X124868873Y-56817856D01*
X124774623Y-56926626D01*
X124774622Y-56926628D01*
X124714834Y-57057543D01*
X124694353Y-57200000D01*
X85954348Y-57200000D01*
X85730968Y-57140147D01*
X85730958Y-57140145D01*
X85500001Y-57119939D01*
X85499999Y-57119939D01*
X85269041Y-57140145D01*
X85269031Y-57140147D01*
X85045099Y-57200148D01*
X85045090Y-57200152D01*
X84834967Y-57298134D01*
X84756576Y-57353022D01*
X85329766Y-57926212D01*
X85287708Y-57937482D01*
X85162292Y-58009890D01*
X85059890Y-58112292D01*
X84987482Y-58237708D01*
X84976212Y-58279766D01*
X84403022Y-57706576D01*
X84348134Y-57784967D01*
X84250152Y-57995090D01*
X84250148Y-57995099D01*
X84190147Y-58219031D01*
X84190145Y-58219041D01*
X84169939Y-58449999D01*
X83900500Y-58449999D01*
X83900500Y-58361309D01*
X83900500Y-58361306D01*
X83900499Y-58361304D01*
X83865896Y-58187341D01*
X83865893Y-58187332D01*
X83798016Y-58023459D01*
X83798009Y-58023446D01*
X83699464Y-57875965D01*
X83699461Y-57875961D01*
X83574038Y-57750538D01*
X83574034Y-57750535D01*
X83426553Y-57651990D01*
X83426540Y-57651983D01*
X83262667Y-57584106D01*
X83262658Y-57584103D01*
X83088694Y-57549500D01*
X83088691Y-57549500D01*
X82911309Y-57549500D01*
X82911306Y-57549500D01*
X82737341Y-57584103D01*
X82737332Y-57584106D01*
X82573459Y-57651983D01*
X82573446Y-57651990D01*
X82425965Y-57750535D01*
X82425961Y-57750538D01*
X82300538Y-57875961D01*
X82300535Y-57875965D01*
X82201990Y-58023446D01*
X82201983Y-58023459D01*
X82134106Y-58187332D01*
X82134103Y-58187341D01*
X82099500Y-58361304D01*
X70300500Y-58361304D01*
X70300500Y-55356102D01*
X70320185Y-55289063D01*
X70372989Y-55243308D01*
X70442147Y-55233364D01*
X70505703Y-55262389D01*
X70540264Y-55311664D01*
X70615244Y-55506994D01*
X70791310Y-55852543D01*
X71002531Y-56177793D01*
X71211095Y-56435350D01*
X71211096Y-56435350D01*
X72705748Y-54940698D01*
X72779588Y-55042330D01*
X72957670Y-55220412D01*
X73059300Y-55294251D01*
X71564648Y-56788903D01*
X71564649Y-56788904D01*
X71822206Y-56997468D01*
X72147456Y-57208689D01*
X72493005Y-57384755D01*
X72855063Y-57523737D01*
X73229669Y-57624112D01*
X73229676Y-57624113D01*
X73612712Y-57684780D01*
X73999999Y-57705078D01*
X74000001Y-57705078D01*
X74387287Y-57684780D01*
X74770323Y-57624113D01*
X74770330Y-57624112D01*
X75144936Y-57523737D01*
X75506994Y-57384755D01*
X75852543Y-57208689D01*
X76177783Y-56997476D01*
X76177785Y-56997475D01*
X76435349Y-56788902D01*
X74940698Y-55294251D01*
X75042330Y-55220412D01*
X75220412Y-55042330D01*
X75294251Y-54940698D01*
X76788902Y-56435349D01*
X76997475Y-56177785D01*
X76997476Y-56177783D01*
X77208689Y-55852543D01*
X77384755Y-55506994D01*
X77523737Y-55144936D01*
X77624112Y-54770330D01*
X77624113Y-54770323D01*
X77684780Y-54387287D01*
X77694596Y-54200000D01*
X112994353Y-54200000D01*
X113014834Y-54342456D01*
X113029545Y-54374668D01*
X113074623Y-54473373D01*
X113168872Y-54582143D01*
X113289947Y-54659953D01*
X113289950Y-54659954D01*
X113289949Y-54659954D01*
X113428036Y-54700499D01*
X113428038Y-54700500D01*
X113428039Y-54700500D01*
X113571962Y-54700500D01*
X113571962Y-54700499D01*
X113710053Y-54659953D01*
X113831128Y-54582143D01*
X113902305Y-54500000D01*
X135894353Y-54500000D01*
X135914834Y-54642456D01*
X135973230Y-54770323D01*
X135974623Y-54773373D01*
X136068872Y-54882143D01*
X136189947Y-54959953D01*
X136189950Y-54959954D01*
X136189949Y-54959954D01*
X136328036Y-55000499D01*
X136328038Y-55000500D01*
X136328039Y-55000500D01*
X136471962Y-55000500D01*
X136471962Y-55000499D01*
X136610053Y-54959953D01*
X136731128Y-54882143D01*
X136825377Y-54773373D01*
X136885165Y-54642457D01*
X136905647Y-54500000D01*
X136885165Y-54357543D01*
X136825377Y-54226627D01*
X136731128Y-54117857D01*
X136610053Y-54040047D01*
X136610051Y-54040046D01*
X136610049Y-54040045D01*
X136610050Y-54040045D01*
X136471963Y-53999500D01*
X136471961Y-53999500D01*
X136328039Y-53999500D01*
X136328036Y-53999500D01*
X136189949Y-54040045D01*
X136068873Y-54117856D01*
X135974623Y-54226626D01*
X135974622Y-54226628D01*
X135914834Y-54357543D01*
X135894353Y-54500000D01*
X113902305Y-54500000D01*
X113925377Y-54473373D01*
X113985165Y-54342457D01*
X114005647Y-54200000D01*
X113985165Y-54057543D01*
X113925377Y-53926627D01*
X113831128Y-53817857D01*
X113803340Y-53799999D01*
X142744750Y-53799999D01*
X142744750Y-53800000D01*
X142763670Y-53943708D01*
X142763671Y-53943712D01*
X142819137Y-54077622D01*
X142819138Y-54077624D01*
X142819139Y-54077625D01*
X142907379Y-54192621D01*
X143022375Y-54280861D01*
X143156291Y-54336330D01*
X143283280Y-54353048D01*
X143299999Y-54355250D01*
X143300000Y-54355250D01*
X143300001Y-54355250D01*
X143314977Y-54353278D01*
X143443709Y-54336330D01*
X143577625Y-54280861D01*
X143692621Y-54192621D01*
X143780861Y-54077625D01*
X143836330Y-53943709D01*
X143855250Y-53800000D01*
X143836330Y-53656291D01*
X143780861Y-53522375D01*
X143692621Y-53407379D01*
X143577625Y-53319139D01*
X143577624Y-53319138D01*
X143577622Y-53319137D01*
X143443712Y-53263671D01*
X143443710Y-53263670D01*
X143443709Y-53263670D01*
X143371854Y-53254210D01*
X143300001Y-53244750D01*
X143299999Y-53244750D01*
X143156291Y-53263670D01*
X143156287Y-53263671D01*
X143022377Y-53319137D01*
X142907379Y-53407379D01*
X142819137Y-53522377D01*
X142763671Y-53656287D01*
X142763670Y-53656291D01*
X142744750Y-53799999D01*
X113803340Y-53799999D01*
X113710053Y-53740047D01*
X113710051Y-53740046D01*
X113710049Y-53740045D01*
X113710050Y-53740045D01*
X113571963Y-53699500D01*
X113571961Y-53699500D01*
X113428039Y-53699500D01*
X113428036Y-53699500D01*
X113289949Y-53740045D01*
X113168873Y-53817856D01*
X113074623Y-53926626D01*
X113074622Y-53926628D01*
X113014834Y-54057543D01*
X112994353Y-54200000D01*
X77694596Y-54200000D01*
X77705078Y-54000000D01*
X77705078Y-53999999D01*
X77684780Y-53612712D01*
X77624113Y-53229676D01*
X77624112Y-53229669D01*
X77523737Y-52855063D01*
X77384755Y-52493005D01*
X77286414Y-52300000D01*
X104994353Y-52300000D01*
X105014834Y-52442456D01*
X105048979Y-52517221D01*
X105074623Y-52573373D01*
X105168872Y-52682143D01*
X105289947Y-52759953D01*
X105289950Y-52759954D01*
X105289949Y-52759954D01*
X105428036Y-52800499D01*
X105428038Y-52800500D01*
X105428039Y-52800500D01*
X105571962Y-52800500D01*
X105571962Y-52800499D01*
X105710053Y-52759953D01*
X105831128Y-52682143D01*
X105925377Y-52573373D01*
X105985165Y-52442457D01*
X106005647Y-52300000D01*
X105985165Y-52157543D01*
X105925377Y-52026627D01*
X105831128Y-51917857D01*
X105710053Y-51840047D01*
X105710051Y-51840046D01*
X105710049Y-51840045D01*
X105710050Y-51840045D01*
X105571963Y-51799500D01*
X105571961Y-51799500D01*
X105428039Y-51799500D01*
X105428036Y-51799500D01*
X105289949Y-51840045D01*
X105168873Y-51917856D01*
X105074623Y-52026626D01*
X105074622Y-52026628D01*
X105014834Y-52157543D01*
X104994353Y-52300000D01*
X77286414Y-52300000D01*
X77208689Y-52147456D01*
X76997468Y-51822206D01*
X76788904Y-51564649D01*
X76788903Y-51564648D01*
X75294251Y-53059300D01*
X75220412Y-52957670D01*
X75042330Y-52779588D01*
X74940698Y-52705748D01*
X76435350Y-51211096D01*
X76435350Y-51211095D01*
X76177793Y-51002531D01*
X75852543Y-50791310D01*
X75506994Y-50615244D01*
X75467279Y-50599999D01*
X107344750Y-50599999D01*
X107344750Y-50600000D01*
X107363670Y-50743708D01*
X107363671Y-50743712D01*
X107419137Y-50877622D01*
X107419138Y-50877624D01*
X107419139Y-50877625D01*
X107507379Y-50992621D01*
X107622375Y-51080861D01*
X107756291Y-51136330D01*
X107883280Y-51153048D01*
X107899999Y-51155250D01*
X107900000Y-51155250D01*
X107900001Y-51155250D01*
X107914977Y-51153278D01*
X108043709Y-51136330D01*
X108177625Y-51080861D01*
X108292621Y-50992621D01*
X108380861Y-50877625D01*
X108436330Y-50743709D01*
X108455250Y-50600000D01*
X108436330Y-50456291D01*
X108380861Y-50322375D01*
X108292621Y-50207379D01*
X108177625Y-50119139D01*
X108177624Y-50119138D01*
X108177622Y-50119137D01*
X108043712Y-50063671D01*
X108043710Y-50063670D01*
X108043709Y-50063670D01*
X107971854Y-50054210D01*
X107900001Y-50044750D01*
X107899999Y-50044750D01*
X107756291Y-50063670D01*
X107756287Y-50063671D01*
X107622377Y-50119137D01*
X107507379Y-50207379D01*
X107419137Y-50322377D01*
X107363671Y-50456287D01*
X107363670Y-50456291D01*
X107344750Y-50599999D01*
X75467279Y-50599999D01*
X75311664Y-50540264D01*
X75256132Y-50497862D01*
X75232339Y-50432168D01*
X75247841Y-50364040D01*
X75297714Y-50315107D01*
X75356102Y-50300500D01*
X99999794Y-50300500D01*
X100002837Y-50300502D01*
X100039344Y-50300527D01*
X100039344Y-50300526D01*
X100039356Y-50300527D01*
X100039367Y-50300523D01*
X100039552Y-50300500D01*
X100039562Y-50300500D01*
X100077936Y-50290217D01*
X100078023Y-50290219D01*
X100078017Y-50290196D01*
X100088588Y-50287370D01*
X100115797Y-50280100D01*
X100115801Y-50280097D01*
X100115982Y-50280022D01*
X100115989Y-50280021D01*
X100150605Y-50260034D01*
X100150691Y-50260013D01*
X100150679Y-50259993D01*
X100166119Y-50251091D01*
X100184346Y-50240586D01*
X100184350Y-50240581D01*
X100184503Y-50240464D01*
X100184511Y-50240460D01*
X100212340Y-50212631D01*
X100240334Y-50184676D01*
X100240335Y-50184672D01*
X100240455Y-50184518D01*
X100240457Y-50184513D01*
X100240460Y-50184511D01*
X100259785Y-50151037D01*
X100259786Y-50151035D01*
X100259791Y-50151038D01*
X100259821Y-50150974D01*
X100279942Y-50116181D01*
X100279944Y-50116172D01*
X100279949Y-50116164D01*
X100280016Y-50116003D01*
X100280018Y-50115992D01*
X100280021Y-50115989D01*
X100288721Y-50083517D01*
X100290089Y-50078414D01*
X100290108Y-50078419D01*
X100290110Y-50078332D01*
X100300473Y-50039768D01*
X100300473Y-50039761D01*
X100300500Y-50039561D01*
X100300500Y-50000329D01*
X100302040Y-47750774D01*
X100302417Y-47199998D01*
X102245019Y-47199998D01*
X102245019Y-47200001D01*
X102264918Y-47478223D01*
X102264919Y-47478230D01*
X102324207Y-47750774D01*
X102421689Y-48012134D01*
X102555361Y-48256938D01*
X102655602Y-48390843D01*
X103227912Y-47818532D01*
X103322829Y-47949175D01*
X103450825Y-48077171D01*
X103581465Y-48172086D01*
X103009155Y-48744396D01*
X103143061Y-48844637D01*
X103143061Y-48844638D01*
X103387865Y-48978310D01*
X103649225Y-49075792D01*
X103921769Y-49135080D01*
X103921776Y-49135081D01*
X104199999Y-49154981D01*
X104200001Y-49154981D01*
X104478223Y-49135081D01*
X104478230Y-49135080D01*
X104639496Y-49099999D01*
X140544750Y-49099999D01*
X140544750Y-49100000D01*
X140563670Y-49243708D01*
X140563671Y-49243712D01*
X140619137Y-49377622D01*
X140619138Y-49377624D01*
X140619139Y-49377625D01*
X140707379Y-49492621D01*
X140822375Y-49580861D01*
X140956291Y-49636330D01*
X141083280Y-49653048D01*
X141099999Y-49655250D01*
X141100000Y-49655250D01*
X141100001Y-49655250D01*
X141114977Y-49653278D01*
X141243709Y-49636330D01*
X141377625Y-49580861D01*
X141492621Y-49492621D01*
X141580861Y-49377625D01*
X141636330Y-49243709D01*
X141655250Y-49100000D01*
X141636330Y-48956291D01*
X141599350Y-48867013D01*
X141580862Y-48822377D01*
X141580861Y-48822376D01*
X141580861Y-48822375D01*
X141492621Y-48707379D01*
X141377625Y-48619139D01*
X141377624Y-48619138D01*
X141377622Y-48619137D01*
X141243712Y-48563671D01*
X141243710Y-48563670D01*
X141243709Y-48563670D01*
X141171854Y-48554210D01*
X141100001Y-48544750D01*
X141099999Y-48544750D01*
X140956291Y-48563670D01*
X140956287Y-48563671D01*
X140822377Y-48619137D01*
X140707379Y-48707379D01*
X140619137Y-48822377D01*
X140563671Y-48956287D01*
X140563670Y-48956291D01*
X140544750Y-49099999D01*
X104639496Y-49099999D01*
X104750774Y-49075792D01*
X105012134Y-48978310D01*
X105256942Y-48844635D01*
X105390842Y-48744396D01*
X105390843Y-48744396D01*
X104818534Y-48172086D01*
X104949175Y-48077171D01*
X105077171Y-47949175D01*
X105172086Y-47818533D01*
X105744396Y-48390843D01*
X105744396Y-48390842D01*
X105844635Y-48256942D01*
X105978310Y-48012134D01*
X106057432Y-47799999D01*
X108344750Y-47799999D01*
X108344750Y-47800000D01*
X108363670Y-47943708D01*
X108363671Y-47943712D01*
X108419137Y-48077622D01*
X108419138Y-48077624D01*
X108419139Y-48077625D01*
X108507379Y-48192621D01*
X108622375Y-48280861D01*
X108756291Y-48336330D01*
X108883280Y-48353048D01*
X108899999Y-48355250D01*
X108900000Y-48355250D01*
X108900001Y-48355250D01*
X108914977Y-48353278D01*
X109043709Y-48336330D01*
X109177625Y-48280861D01*
X109292621Y-48192621D01*
X109380861Y-48077625D01*
X109436330Y-47943709D01*
X109455250Y-47800000D01*
X109436330Y-47656291D01*
X109380861Y-47522375D01*
X109292621Y-47407379D01*
X109177625Y-47319139D01*
X109177624Y-47319138D01*
X109177622Y-47319137D01*
X109043712Y-47263671D01*
X109043710Y-47263670D01*
X109043709Y-47263670D01*
X108971854Y-47254210D01*
X108900001Y-47244750D01*
X108899999Y-47244750D01*
X108756291Y-47263670D01*
X108756287Y-47263671D01*
X108622377Y-47319137D01*
X108507379Y-47407379D01*
X108419137Y-47522377D01*
X108363671Y-47656287D01*
X108363670Y-47656291D01*
X108344750Y-47799999D01*
X106057432Y-47799999D01*
X106075792Y-47750774D01*
X106135080Y-47478230D01*
X106135081Y-47478223D01*
X106154981Y-47200001D01*
X106154981Y-47199998D01*
X106135081Y-46921776D01*
X106135080Y-46921769D01*
X106108591Y-46800000D01*
X140444750Y-46800000D01*
X140460782Y-46921776D01*
X140463670Y-46943708D01*
X140463671Y-46943712D01*
X140519137Y-47077622D01*
X140519138Y-47077624D01*
X140519139Y-47077625D01*
X140607379Y-47192621D01*
X140722375Y-47280861D01*
X140856291Y-47336330D01*
X140983280Y-47353048D01*
X140999999Y-47355250D01*
X141000000Y-47355250D01*
X141000001Y-47355250D01*
X141014977Y-47353278D01*
X141143709Y-47336330D01*
X141277625Y-47280861D01*
X141383007Y-47199998D01*
X143785019Y-47199998D01*
X143785019Y-47200001D01*
X143804918Y-47478223D01*
X143804919Y-47478230D01*
X143864207Y-47750774D01*
X143961689Y-48012134D01*
X144095361Y-48256938D01*
X144195602Y-48390843D01*
X144767912Y-47818532D01*
X144862829Y-47949175D01*
X144990825Y-48077171D01*
X145121465Y-48172086D01*
X144549155Y-48744396D01*
X144683061Y-48844637D01*
X144683061Y-48844638D01*
X144927865Y-48978310D01*
X145189225Y-49075792D01*
X145461769Y-49135080D01*
X145461776Y-49135081D01*
X145739999Y-49154981D01*
X145740001Y-49154981D01*
X146018223Y-49135081D01*
X146018230Y-49135080D01*
X146290774Y-49075792D01*
X146552134Y-48978310D01*
X146796942Y-48844635D01*
X146930842Y-48744396D01*
X146930843Y-48744396D01*
X146358534Y-48172086D01*
X146489175Y-48077171D01*
X146617171Y-47949175D01*
X146712086Y-47818533D01*
X147284396Y-48390843D01*
X147284396Y-48390842D01*
X147384635Y-48256942D01*
X147518310Y-48012134D01*
X147615792Y-47750774D01*
X147675080Y-47478230D01*
X147675081Y-47478223D01*
X147694981Y-47200001D01*
X147694981Y-47199998D01*
X147675081Y-46921776D01*
X147675080Y-46921769D01*
X147615792Y-46649225D01*
X147518310Y-46387865D01*
X147384638Y-46143061D01*
X147284396Y-46009155D01*
X146712086Y-46581465D01*
X146617171Y-46450825D01*
X146489175Y-46322829D01*
X146358533Y-46227912D01*
X146930843Y-45655602D01*
X146796938Y-45555362D01*
X146796938Y-45555361D01*
X146552134Y-45421689D01*
X146290774Y-45324207D01*
X146018230Y-45264919D01*
X146018223Y-45264918D01*
X145740001Y-45245019D01*
X145739999Y-45245019D01*
X145461776Y-45264918D01*
X145461769Y-45264919D01*
X145189225Y-45324207D01*
X144927865Y-45421689D01*
X144683061Y-45555361D01*
X144683054Y-45555366D01*
X144549156Y-45655601D01*
X144549155Y-45655602D01*
X145121466Y-46227913D01*
X144990825Y-46322829D01*
X144862829Y-46450825D01*
X144767913Y-46581466D01*
X144195602Y-46009155D01*
X144195601Y-46009156D01*
X144095366Y-46143054D01*
X144095361Y-46143061D01*
X143961689Y-46387865D01*
X143864207Y-46649225D01*
X143804919Y-46921769D01*
X143804918Y-46921776D01*
X143785019Y-47199998D01*
X141383007Y-47199998D01*
X141392621Y-47192621D01*
X141480861Y-47077625D01*
X141536330Y-46943709D01*
X141555250Y-46800000D01*
X141536330Y-46656291D01*
X141480861Y-46522375D01*
X141392621Y-46407379D01*
X141277625Y-46319139D01*
X141277624Y-46319138D01*
X141277622Y-46319137D01*
X141143712Y-46263671D01*
X141143710Y-46263670D01*
X141143709Y-46263670D01*
X141071854Y-46254210D01*
X141000001Y-46244750D01*
X140999999Y-46244750D01*
X140856291Y-46263670D01*
X140856287Y-46263671D01*
X140722377Y-46319137D01*
X140607379Y-46407379D01*
X140519137Y-46522377D01*
X140463671Y-46656287D01*
X140463670Y-46656291D01*
X140444750Y-46800000D01*
X106108591Y-46800000D01*
X106075792Y-46649225D01*
X105978310Y-46387865D01*
X105844638Y-46143061D01*
X105744396Y-46009155D01*
X105172086Y-46581465D01*
X105077171Y-46450825D01*
X104949175Y-46322829D01*
X104818533Y-46227912D01*
X105346445Y-45700000D01*
X121194353Y-45700000D01*
X121214834Y-45842456D01*
X121274622Y-45973371D01*
X121274623Y-45973373D01*
X121368872Y-46082143D01*
X121489947Y-46159953D01*
X121489950Y-46159954D01*
X121489949Y-46159954D01*
X121628036Y-46200499D01*
X121628038Y-46200500D01*
X121628039Y-46200500D01*
X121771962Y-46200500D01*
X121771962Y-46200499D01*
X121910053Y-46159953D01*
X122031128Y-46082143D01*
X122125377Y-45973373D01*
X122185165Y-45842457D01*
X122205647Y-45700000D01*
X122185165Y-45557543D01*
X122125377Y-45426627D01*
X122031128Y-45317857D01*
X121910053Y-45240047D01*
X121910051Y-45240046D01*
X121910049Y-45240045D01*
X121910050Y-45240045D01*
X121771963Y-45199500D01*
X121771961Y-45199500D01*
X121628039Y-45199500D01*
X121628036Y-45199500D01*
X121489949Y-45240045D01*
X121368873Y-45317856D01*
X121274623Y-45426626D01*
X121274622Y-45426628D01*
X121214834Y-45557543D01*
X121194353Y-45700000D01*
X105346445Y-45700000D01*
X105390843Y-45655602D01*
X105256938Y-45555362D01*
X105256938Y-45555361D01*
X105012134Y-45421689D01*
X104750774Y-45324207D01*
X104478230Y-45264919D01*
X104478223Y-45264918D01*
X104200001Y-45245019D01*
X104199999Y-45245019D01*
X103921776Y-45264918D01*
X103921769Y-45264919D01*
X103649225Y-45324207D01*
X103387865Y-45421689D01*
X103143061Y-45555361D01*
X103143054Y-45555366D01*
X103009156Y-45655601D01*
X103009155Y-45655602D01*
X103581466Y-46227913D01*
X103450825Y-46322829D01*
X103322829Y-46450825D01*
X103227913Y-46581466D01*
X102655602Y-46009155D01*
X102655601Y-46009156D01*
X102555366Y-46143054D01*
X102555361Y-46143061D01*
X102421689Y-46387865D01*
X102324207Y-46649225D01*
X102264919Y-46921769D01*
X102264918Y-46921776D01*
X102245019Y-47199998D01*
X100302417Y-47199998D01*
X100303404Y-45757656D01*
X100303444Y-45757164D01*
X100303444Y-45704875D01*
X100303826Y-45695146D01*
X100313748Y-45569073D01*
X100319872Y-45491252D01*
X100322916Y-45472043D01*
X100369520Y-45277918D01*
X100375526Y-45259433D01*
X100451926Y-45074988D01*
X100460759Y-45057654D01*
X100461443Y-45056539D01*
X100565063Y-44887444D01*
X100576499Y-44871705D01*
X100625265Y-44814608D01*
X100706152Y-44719901D01*
X100719901Y-44706152D01*
X100871707Y-44576497D01*
X100887447Y-44565062D01*
X101057657Y-44460757D01*
X101074988Y-44451926D01*
X101259433Y-44375526D01*
X101277918Y-44369520D01*
X101472046Y-44322914D01*
X101491252Y-44319872D01*
X101695146Y-44303825D01*
X101704875Y-44303444D01*
X101747595Y-44303444D01*
X148298056Y-44303444D01*
X148307788Y-44303826D01*
G37*
G04 #@! TD.AperFunction*
G04 #@! TA.AperFunction,Conductor*
G36*
X72779588Y-97042330D02*
G01*
X72957670Y-97220412D01*
X73059300Y-97294251D01*
X71564648Y-98788903D01*
X71564649Y-98788904D01*
X71822206Y-98997468D01*
X72147458Y-99208691D01*
X72147461Y-99208692D01*
X72350741Y-99312268D01*
X72401538Y-99360242D01*
X72418333Y-99428063D01*
X72395796Y-99494198D01*
X72341081Y-99537650D01*
X72271560Y-99544623D01*
X72260120Y-99541907D01*
X72249047Y-99538717D01*
X72235921Y-99534124D01*
X71948388Y-99415024D01*
X71935860Y-99408991D01*
X71771399Y-99318097D01*
X71663457Y-99258439D01*
X71651692Y-99251046D01*
X71397872Y-99070951D01*
X71387004Y-99062285D01*
X71154936Y-98854896D01*
X71145103Y-98845063D01*
X71094916Y-98788904D01*
X70937709Y-98612989D01*
X70929050Y-98602129D01*
X70748950Y-98348303D01*
X70741563Y-98336547D01*
X70591004Y-98064132D01*
X70584978Y-98051618D01*
X70465874Y-97764077D01*
X70461282Y-97750952D01*
X70458092Y-97739879D01*
X70458449Y-97670010D01*
X70496523Y-97611426D01*
X70560226Y-97582726D01*
X70629333Y-97593022D01*
X70681902Y-97639046D01*
X70687731Y-97649257D01*
X70791310Y-97852543D01*
X71002531Y-98177793D01*
X71211095Y-98435350D01*
X71211096Y-98435350D01*
X72705748Y-96940698D01*
X72779588Y-97042330D01*
G37*
G04 #@! TD.AperFunction*
G04 #@! TA.AperFunction,Conductor*
G36*
X168788902Y-98435349D02*
G01*
X168997475Y-98177785D01*
X168997476Y-98177783D01*
X169208691Y-97852541D01*
X169208692Y-97852538D01*
X169312268Y-97649258D01*
X169360242Y-97598462D01*
X169428063Y-97581666D01*
X169494198Y-97604203D01*
X169537650Y-97658918D01*
X169544623Y-97728439D01*
X169541907Y-97739879D01*
X169538717Y-97750952D01*
X169534124Y-97764078D01*
X169415024Y-98051611D01*
X169408991Y-98064139D01*
X169258442Y-98336538D01*
X169251043Y-98348312D01*
X169070954Y-98602123D01*
X169062285Y-98612995D01*
X168854896Y-98845063D01*
X168845063Y-98854896D01*
X168612995Y-99062285D01*
X168602123Y-99070954D01*
X168348312Y-99251043D01*
X168336538Y-99258442D01*
X168064139Y-99408991D01*
X168051611Y-99415024D01*
X167764078Y-99534124D01*
X167750952Y-99538717D01*
X167739879Y-99541907D01*
X167670010Y-99541550D01*
X167611426Y-99503476D01*
X167582726Y-99439773D01*
X167593022Y-99370666D01*
X167639046Y-99318097D01*
X167649258Y-99312268D01*
X167852538Y-99208692D01*
X167852541Y-99208691D01*
X168177783Y-98997476D01*
X168177785Y-98997475D01*
X168435349Y-98788902D01*
X166940698Y-97294251D01*
X167042330Y-97220412D01*
X167220412Y-97042330D01*
X167294251Y-96940698D01*
X168788902Y-98435349D01*
G37*
G04 #@! TD.AperFunction*
G04 #@! TA.AperFunction,Conductor*
G36*
X72329989Y-50458449D02*
G01*
X72388573Y-50496523D01*
X72417273Y-50560226D01*
X72406977Y-50629333D01*
X72360953Y-50681902D01*
X72350742Y-50687731D01*
X72147456Y-50791310D01*
X71822206Y-51002531D01*
X71564648Y-51211095D01*
X71564648Y-51211096D01*
X73059301Y-52705748D01*
X72957670Y-52779588D01*
X72779588Y-52957670D01*
X72705748Y-53059300D01*
X71211096Y-51564648D01*
X71211095Y-51564648D01*
X71002531Y-51822206D01*
X70791310Y-52147456D01*
X70687731Y-52350742D01*
X70639756Y-52401538D01*
X70571935Y-52418333D01*
X70505801Y-52395796D01*
X70462349Y-52341081D01*
X70455377Y-52271560D01*
X70458092Y-52260120D01*
X70461282Y-52249047D01*
X70465875Y-52235921D01*
X70584981Y-51948374D01*
X70591001Y-51935874D01*
X70741567Y-51663443D01*
X70748944Y-51651704D01*
X70929056Y-51397861D01*
X70937702Y-51387018D01*
X71145113Y-51154925D01*
X71154925Y-51145113D01*
X71387018Y-50937702D01*
X71397861Y-50929056D01*
X71651704Y-50748944D01*
X71663443Y-50741567D01*
X71935874Y-50591001D01*
X71948374Y-50584981D01*
X72235928Y-50465872D01*
X72249040Y-50461284D01*
X72260121Y-50458092D01*
X72329989Y-50458449D01*
G37*
G04 #@! TD.AperFunction*
G04 #@! TA.AperFunction,Conductor*
G36*
X167739879Y-50458092D02*
G01*
X167750952Y-50461282D01*
X167764077Y-50465874D01*
X168051618Y-50584978D01*
X168064132Y-50591004D01*
X168336547Y-50741563D01*
X168348303Y-50748950D01*
X168602129Y-50929050D01*
X168612989Y-50937709D01*
X168835245Y-51136329D01*
X168845063Y-51145103D01*
X168854894Y-51154934D01*
X168855176Y-51155250D01*
X169062285Y-51387004D01*
X169070954Y-51397876D01*
X169251043Y-51651687D01*
X169258442Y-51663461D01*
X169408991Y-51935860D01*
X169415024Y-51948388D01*
X169534124Y-52235921D01*
X169538717Y-52249047D01*
X169541907Y-52260120D01*
X169541550Y-52329989D01*
X169503476Y-52388573D01*
X169439773Y-52417273D01*
X169370666Y-52406977D01*
X169318097Y-52360953D01*
X169312268Y-52350741D01*
X169208692Y-52147461D01*
X169208691Y-52147458D01*
X168997468Y-51822206D01*
X168788904Y-51564649D01*
X168788903Y-51564648D01*
X167294251Y-53059300D01*
X167220412Y-52957670D01*
X167042330Y-52779588D01*
X166940698Y-52705748D01*
X168435350Y-51211096D01*
X168435350Y-51211095D01*
X168177793Y-51002531D01*
X167852543Y-50791310D01*
X167649257Y-50687731D01*
X167598461Y-50639757D01*
X167581666Y-50571936D01*
X167604203Y-50505801D01*
X167658918Y-50462349D01*
X167728439Y-50455376D01*
X167739879Y-50458092D01*
G37*
G04 #@! TD.AperFunction*
M02*
