%TF.GenerationSoftware,KiCad,Pcbnew,8.0.6*%
%TF.CreationDate,2025-12-23T16:16:10-08:00*%
%TF.ProjectId,ADC_CS5381KKSZ_Board,4144435f-4353-4353-9338-314b4b535a5f,rev?*%
%TF.SameCoordinates,PX42c1d80PY5f5e100*%
%TF.FileFunction,Copper,L4,Bot*%
%TF.FilePolarity,Positive*%
%FSLAX46Y46*%
G04 Gerber Fmt 4.6, Leading zero omitted, Abs format (unit mm)*
G04 Created by KiCad (PCBNEW 8.0.6) date 2025-12-23 16:16:10*
%MOMM*%
%LPD*%
G01*
G04 APERTURE LIST*
G04 Aperture macros list*
%AMRoundRect*
0 Rectangle with rounded corners*
0 $1 Rounding radius*
0 $2 $3 $4 $5 $6 $7 $8 $9 X,Y pos of 4 corners*
0 Add a 4 corners polygon primitive as box body*
4,1,4,$2,$3,$4,$5,$6,$7,$8,$9,$2,$3,0*
0 Add four circle primitives for the rounded corners*
1,1,$1+$1,$2,$3*
1,1,$1+$1,$4,$5*
1,1,$1+$1,$6,$7*
1,1,$1+$1,$8,$9*
0 Add four rect primitives between the rounded corners*
20,1,$1+$1,$2,$3,$4,$5,0*
20,1,$1+$1,$4,$5,$6,$7,0*
20,1,$1+$1,$6,$7,$8,$9,0*
20,1,$1+$1,$8,$9,$2,$3,0*%
G04 Aperture macros list end*
%TA.AperFunction,ComponentPad*%
%ADD10O,1.700000X1.700000*%
%TD*%
%TA.AperFunction,ComponentPad*%
%ADD11R,1.700000X1.700000*%
%TD*%
%TA.AperFunction,ComponentPad*%
%ADD12C,6.400000*%
%TD*%
%TA.AperFunction,ComponentPad*%
%ADD13C,1.650000*%
%TD*%
%TA.AperFunction,ComponentPad*%
%ADD14R,1.650000X1.650000*%
%TD*%
%TA.AperFunction,ComponentPad*%
%ADD15C,2.900000*%
%TD*%
%TA.AperFunction,SMDPad,CuDef*%
%ADD16C,0.900000*%
%TD*%
%TA.AperFunction,SMDPad,CuDef*%
%ADD17RoundRect,0.250000X-0.250000X-0.475000X0.250000X-0.475000X0.250000X0.475000X-0.250000X0.475000X0*%
%TD*%
%TA.AperFunction,ViaPad*%
%ADD18C,0.700000*%
%TD*%
%TA.AperFunction,ViaPad*%
%ADD19C,0.900000*%
%TD*%
%TA.AperFunction,ViaPad*%
%ADD20C,0.800000*%
%TD*%
%TA.AperFunction,Conductor*%
%ADD21C,0.150000*%
%TD*%
%TA.AperFunction,Conductor*%
%ADD22C,0.500000*%
%TD*%
%TA.AperFunction,Conductor*%
%ADD23C,0.300000*%
%TD*%
G04 APERTURE END LIST*
D10*
%TO.P,J2,10,Pin_10*%
%TO.N,GND*%
X19415000Y5060000D03*
%TO.P,J2,9,Pin_9*%
%TO.N,/ADC_CS5381K-KSZ/~{RST}_CS5381*%
X19415000Y7600000D03*
%TO.P,J2,8,Pin_8*%
%TO.N,GND*%
X21955000Y5060000D03*
%TO.P,J2,7,Pin_7*%
%TO.N,/ADC_CS5381K-KSZ/~{OVFL}*%
X21955000Y7600000D03*
%TO.P,J2,6,Pin_6*%
%TO.N,GND*%
X24495000Y5060000D03*
%TO.P,J2,5,Pin_5*%
%TO.N,/ADC_CS5381K-KSZ/M1*%
X24495000Y7600000D03*
%TO.P,J2,4,Pin_4*%
%TO.N,GND*%
X27035000Y5060000D03*
%TO.P,J2,3,Pin_3*%
%TO.N,/ADC_CS5381K-KSZ/M0*%
X27035000Y7600000D03*
%TO.P,J2,2,Pin_2*%
%TO.N,GND*%
X29575000Y5060000D03*
D11*
%TO.P,J2,1,Pin_1*%
%TO.N,/ADC_CS5381K-KSZ/~{HPF}*%
X29575000Y7600000D03*
%TD*%
D10*
%TO.P,J11,3,Pin_3*%
%TO.N,GND*%
X77100000Y18445000D03*
%TO.P,J11,2,Pin_2*%
%TO.N,/ADC_CS5381K-KSZ/MDIV*%
X77100000Y20985000D03*
D11*
%TO.P,J11,1,Pin_1*%
%TO.N,+3.3V*%
X77100000Y23525000D03*
%TD*%
D10*
%TO.P,J4,3,Pin_3*%
%TO.N,GND*%
X77200000Y6360000D03*
%TO.P,J4,2,Pin_2*%
%TO.N,/ADC_CS5381K-KSZ/I2S{slash}~{LJ}*%
X77200000Y8900000D03*
D11*
%TO.P,J4,1,Pin_1*%
%TO.N,+3.3V*%
X77200000Y11440000D03*
%TD*%
D10*
%TO.P,J9,3,Pin_3*%
%TO.N,GND*%
X87600000Y18460000D03*
%TO.P,J9,2,Pin_2*%
%TO.N,/ADC_CS5381K-KSZ/M{slash}~{S}*%
X87600000Y21000000D03*
D11*
%TO.P,J9,1,Pin_1*%
%TO.N,+3.3V*%
X87600000Y23540000D03*
%TD*%
D10*
%TO.P,J12,6,Pin_6*%
%TO.N,GND*%
X74065000Y33745000D03*
%TO.P,J12,5,Pin_5*%
X71525000Y33745000D03*
%TO.P,J12,4,Pin_4*%
%TO.N,/ADC_CS5381K-KSZ/M1*%
X74065000Y36285000D03*
%TO.P,J12,3,Pin_3*%
%TO.N,/ADC_CS5381K-KSZ/M0*%
X71525000Y36285000D03*
%TO.P,J12,2,Pin_2*%
%TO.N,+3.3V*%
X74065000Y38825000D03*
D11*
%TO.P,J12,1,Pin_1*%
X71525000Y38825000D03*
%TD*%
D10*
%TO.P,J10,3,Pin_3*%
%TO.N,GND*%
X87600000Y6345000D03*
%TO.P,J10,2,Pin_2*%
%TO.N,/ADC_CS5381K-KSZ/~{HPF}*%
X87600000Y8885000D03*
D11*
%TO.P,J10,1,Pin_1*%
%TO.N,+3.3V*%
X87600000Y11425000D03*
%TD*%
D12*
%TO.P,H6,1,1*%
%TO.N,GND*%
X96000000Y46000000D03*
%TD*%
D13*
%TO.P,JST2,3,RST*%
%TO.N,/Power_Management/RST_PWR*%
X13000000Y41550000D03*
%TO.P,JST2,2,PWR-*%
%TO.N,GND*%
X15500000Y41550000D03*
D14*
%TO.P,JST2,1,PWR+*%
%TO.N,/Power_Management/PWR+*%
X18000000Y41550000D03*
%TD*%
D12*
%TO.P,H5,1,1*%
%TO.N,GND*%
X4000000Y46000000D03*
%TD*%
%TO.P,H8,1,1*%
%TO.N,GND*%
X96000000Y4000000D03*
%TD*%
%TO.P,H7,1,1*%
%TO.N,GND*%
X4000000Y4000000D03*
%TD*%
D15*
%TO.P,MK2,4,GND*%
%TO.N,GND*%
X34200000Y52800000D03*
D16*
%TO.P,MK2,3,OUTPUT-*%
%TO.N,/ADC_Driver_ADA4940-2ACPZ-R7/MIC_R_OUT-*%
X36540000Y51600000D03*
%TO.P,MK2,2,OUTPUT+*%
%TO.N,/ADC_Driver_ADA4940-2ACPZ-R7/MIC_R_OUT+*%
X36540000Y52800000D03*
%TO.P,MK2,1,VDD*%
%TO.N,+3.3V*%
X36540000Y54000000D03*
%TD*%
D17*
%TO.P,C7,2*%
%TO.N,GND*%
X75250000Y49100000D03*
%TO.P,C7,1*%
%TO.N,+3.3V*%
X73350000Y49100000D03*
%TD*%
%TO.P,C2,2*%
%TO.N,GND*%
X42650000Y54300000D03*
%TO.P,C2,1*%
%TO.N,+3.3V*%
X40750000Y54300000D03*
%TD*%
D15*
%TO.P,MK1,4,GND*%
%TO.N,GND*%
X75740000Y52800000D03*
D16*
%TO.P,MK1,3,OUTPUT-*%
%TO.N,/ADC_Driver_ADA4940-2ACPZ-R7/MIC_L_OUT-*%
X73400000Y54000000D03*
%TO.P,MK1,2,OUTPUT+*%
%TO.N,/ADC_Driver_ADA4940-2ACPZ-R7/MIC_L_OUT+*%
X73400000Y52800000D03*
%TO.P,MK1,1,VDD*%
%TO.N,+3.3V*%
X73400000Y51600000D03*
%TD*%
D18*
%TO.N,GND*%
X65600000Y46600000D03*
X27200000Y47000000D03*
X50700000Y13800000D03*
X50600000Y12000000D03*
X51100000Y9900000D03*
X48900000Y9300000D03*
%TO.N,/ADC_CS5381K-KSZ/I2S_SCLK*%
X49100000Y10700000D03*
D19*
%TO.N,+3.3V*%
X35700000Y17400000D03*
D18*
%TO.N,GND*%
X31400000Y37100000D03*
X28800000Y37600000D03*
X18500000Y19800000D03*
X18500000Y18000000D03*
X16200000Y17900000D03*
X16200000Y19800000D03*
X38900000Y48600000D03*
X34400000Y46700000D03*
X36500000Y46800000D03*
X34300000Y48800000D03*
X36500000Y48700000D03*
X38800000Y50700000D03*
X39800000Y38600000D03*
X44500000Y32900000D03*
X28100000Y23200000D03*
X70000000Y47600000D03*
X69600000Y53800000D03*
X65100000Y24700000D03*
X68100000Y19200000D03*
X53300000Y12500000D03*
X52800000Y13800000D03*
X57600000Y8100000D03*
X65600000Y44300000D03*
D20*
%TO.N,/ADC_Driver_ADA4940-2ACPZ-R7/VCOM_B_LEFT*%
X43100000Y33000000D03*
X57500000Y40100000D03*
%TO.N,/ADC_CS5381K-KSZ/~{RST}_CS5381*%
X29200000Y22200000D03*
D18*
X66400000Y45500000D03*
D20*
X45700000Y20200000D03*
D18*
X55200000Y42800000D03*
D20*
%TO.N,+3.3V*%
X56750000Y9450000D03*
D18*
X17400000Y18900000D03*
D20*
X73300000Y46200000D03*
D18*
X35500000Y47700000D03*
D20*
X66700000Y30300000D03*
D18*
%TO.N,+5VA*%
X51700000Y54300000D03*
X41100000Y39600000D03*
X43500000Y45800000D03*
X57000000Y30500000D03*
X30000000Y35700000D03*
D20*
%TO.N,/ADC_Driver_ADA4940-2ACPZ-R7/MIC_L_OUT+*%
X71100000Y50900000D03*
%TO.N,/ADC_Driver_ADA4940-2ACPZ-R7/MIC_L_OUT-*%
X71000000Y53200000D03*
%TO.N,/ADC_Driver_ADA4940-2ACPZ-R7/MIC_R_OUT+*%
X38900000Y52200000D03*
%TO.N,/ADC_Driver_ADA4940-2ACPZ-R7/MIC_R_OUT-*%
X37900000Y49400000D03*
%TO.N,/ADC_CS5381K-KSZ/AINL-*%
X63300000Y33600000D03*
X60200000Y31400000D03*
D18*
%TO.N,/ADC_CS5381K-KSZ/M{slash}~{S}*%
X60100000Y22000000D03*
X52500000Y20600000D03*
D20*
%TO.N,/ADC_CS5381K-KSZ/~{OVFL}*%
X54400000Y25300000D03*
D18*
%TO.N,/ADC_CS5381K-KSZ/~{HPF}*%
X69600000Y19200000D03*
%TO.N,GND*%
X57400000Y20400000D03*
X45700000Y18500000D03*
X43800000Y43400000D03*
X66400000Y37400000D03*
X21800000Y40900000D03*
X29600000Y20800000D03*
X61500000Y8600000D03*
X32900000Y30600000D03*
X7900000Y24100000D03*
X66300000Y35600000D03*
X65500000Y55000000D03*
X79300000Y34400000D03*
X66400000Y33800000D03*
X11100000Y10300000D03*
D20*
X5900000Y15700000D03*
D18*
X41200000Y28100000D03*
X64800000Y37500000D03*
X40400000Y16700000D03*
D20*
X66500000Y15500000D03*
D18*
X70600000Y20000000D03*
X50500000Y55100000D03*
X27800000Y40700000D03*
X63500000Y47600000D03*
D20*
X66500000Y13600000D03*
D18*
X30400000Y44300000D03*
X15200000Y23200000D03*
X55700000Y33600000D03*
X29900000Y18400000D03*
X36600000Y18600000D03*
X64300000Y43100000D03*
X56000000Y24500000D03*
X58200000Y31400000D03*
X67900000Y45900000D03*
X64900000Y32100000D03*
X59000000Y37800000D03*
X42400000Y38400000D03*
X46200000Y9700000D03*
X27800000Y38500000D03*
X31900000Y26200000D03*
X69600000Y27600000D03*
X63500000Y55000000D03*
X78800000Y50200000D03*
X69300000Y22100000D03*
D20*
X5900000Y13400000D03*
D18*
X52800000Y24600000D03*
X33800000Y28200000D03*
X39700000Y23800000D03*
X67800000Y29000000D03*
X42300000Y26500000D03*
X42600000Y44600000D03*
X72000000Y47000000D03*
X44400000Y40900000D03*
X15800000Y25700000D03*
X33800000Y26200000D03*
X71700000Y49600000D03*
X72500000Y44900000D03*
X62600000Y32300000D03*
D20*
X21600000Y23800000D03*
D18*
X42900000Y47200000D03*
D20*
X25200000Y34400000D03*
X58400000Y54900000D03*
D18*
X71400000Y18300000D03*
X58300000Y29800000D03*
X20400000Y32900000D03*
X44600000Y44600000D03*
X52400000Y53100000D03*
X47700000Y11300000D03*
X40500000Y9600000D03*
X46500000Y37900000D03*
X42500000Y16700000D03*
D20*
X12900000Y29300000D03*
D18*
X25100000Y43200000D03*
X32500000Y40700000D03*
X71400000Y22100000D03*
D20*
X6200000Y11000000D03*
D18*
X25200000Y36400000D03*
X79300000Y32100000D03*
X43500000Y28100000D03*
X67200000Y47700000D03*
X53300000Y50300000D03*
X71400000Y16700000D03*
D20*
X61100000Y5300000D03*
X7800000Y31700000D03*
D18*
X32100000Y38900000D03*
X21400000Y43000000D03*
X70400000Y29500000D03*
X34000000Y42100000D03*
X43300000Y9600000D03*
X35700000Y28200000D03*
X42400000Y40800000D03*
X21800000Y38400000D03*
X59000000Y40100000D03*
D20*
X5500000Y26000000D03*
D18*
X67200000Y8300000D03*
X30700000Y22200000D03*
X59600000Y8600000D03*
X7900000Y26000000D03*
X68000000Y41100000D03*
X75200000Y46600000D03*
X67100000Y22100000D03*
X35700000Y26200000D03*
X45500000Y34800000D03*
X66400000Y39300000D03*
X79300000Y36700000D03*
D20*
X26900000Y19100000D03*
D18*
X21100000Y35800000D03*
X61600000Y22000000D03*
X37700000Y17500000D03*
D20*
X47400000Y5400000D03*
D18*
X64800000Y35600000D03*
X67500000Y55000000D03*
X28800000Y42900000D03*
X66200000Y29000000D03*
D20*
X66500000Y11600000D03*
D18*
X9200000Y22700000D03*
X77500000Y46500000D03*
X55300000Y15800000D03*
X37900000Y43800000D03*
X37700000Y28200000D03*
X50900000Y20800000D03*
X77200000Y40400000D03*
X27800000Y36500000D03*
X42700000Y34300000D03*
X79400000Y41200000D03*
X59000000Y36200000D03*
X16300000Y10200000D03*
X32200000Y35000000D03*
X35500000Y43500000D03*
D20*
X5900000Y17900000D03*
D18*
X62900000Y44300000D03*
X13700000Y10200000D03*
X32200000Y45900000D03*
X71800000Y41700000D03*
X66800000Y43000000D03*
X53000000Y11100000D03*
X80300000Y45600000D03*
X18500000Y32900000D03*
X8800000Y10300000D03*
X18400000Y31200000D03*
X54400000Y20500000D03*
X65300000Y41200000D03*
X20400000Y31200000D03*
X60000000Y20400000D03*
X45500000Y55000000D03*
X64800000Y33800000D03*
X59100000Y32700000D03*
X70900000Y55000000D03*
X70100000Y42700000D03*
X50700000Y24600000D03*
X53300000Y52000000D03*
D20*
X19300000Y23000000D03*
D18*
X30000000Y16600000D03*
D20*
X2100000Y28800000D03*
D18*
X76800000Y42400000D03*
X66400000Y32100000D03*
X64300000Y22100000D03*
D20*
X70100000Y11800000D03*
D18*
X64700000Y8300000D03*
X55200000Y9700000D03*
X76400000Y44900000D03*
X60800000Y46500000D03*
X43600000Y31700000D03*
X44800000Y17100000D03*
X39800000Y40400000D03*
D20*
X70100000Y14200000D03*
D18*
X82400000Y43400000D03*
X29000000Y48600000D03*
X59700000Y34500000D03*
X42300000Y23800000D03*
X53200000Y41900000D03*
X25200000Y40700000D03*
X25300000Y45400000D03*
X55900000Y40100000D03*
X25200000Y38500000D03*
D20*
%TO.N,/ADC_CS5381K-KSZ/M0*%
X68005000Y27605000D03*
%TO.N,/ADC_CS5381K-KSZ/M1*%
X63900000Y25400000D03*
%TO.N,/Power_Management/RST_PWR*%
X28800000Y17400000D03*
%TO.N,/ADC_CS5381K-KSZ/I2S_SCLK*%
X53400000Y15100000D03*
%TO.N,/ADC_CS5381K-KSZ/I2S_LRCK*%
X52600000Y9700000D03*
X51700000Y13000000D03*
%TD*%
D21*
%TO.N,/ADC_CS5381K-KSZ/I2S_SCLK*%
X50700000Y15100000D02*
X49100000Y13500000D01*
X53400000Y15100000D02*
X50700000Y15100000D01*
X49100000Y13500000D02*
X49100000Y10700000D01*
%TO.N,/ADC_CS5381K-KSZ/~{HPF}*%
X69600000Y19200000D02*
X69600000Y18300000D01*
X69600000Y18300000D02*
X68400000Y17100000D01*
X68400000Y17100000D02*
X51100000Y17100000D01*
X51100000Y17100000D02*
X46700000Y12700000D01*
X46700000Y12700000D02*
X31000000Y12700000D01*
X31000000Y12700000D02*
X29575000Y11275000D01*
X29575000Y11275000D02*
X29575000Y7600000D01*
%TO.N,/ADC_CS5381K-KSZ/M0*%
X48800000Y16300000D02*
X46100000Y13600000D01*
X28900000Y13600000D02*
X27080000Y11780000D01*
X66500000Y23700000D02*
X59700000Y23700000D01*
X68005000Y25205000D02*
X66500000Y23700000D01*
X68005000Y27605000D02*
X68005000Y25205000D01*
X49700000Y22500000D02*
X48800000Y21600000D01*
X58500000Y22500000D02*
X49700000Y22500000D01*
X46100000Y13600000D02*
X28900000Y13600000D01*
X48800000Y21600000D02*
X48800000Y16300000D01*
X27080000Y11780000D02*
X27080000Y7645000D01*
X59700000Y23700000D02*
X58500000Y22500000D01*
X27080000Y7645000D02*
X27035000Y7600000D01*
%TO.N,/ADC_CS5381K-KSZ/M1*%
X63900000Y25400000D02*
X63300000Y24800000D01*
X63300000Y24800000D02*
X59100000Y24800000D01*
X25700000Y14500000D02*
X24540000Y13340000D01*
X24540000Y7645000D02*
X24495000Y7600000D01*
X57800000Y23500000D02*
X48700000Y23500000D01*
X59100000Y24800000D02*
X57800000Y23500000D01*
X48700000Y23500000D02*
X47800000Y22600000D01*
X24540000Y13340000D02*
X24540000Y7645000D01*
X47800000Y22600000D02*
X47800000Y16800000D01*
X47800000Y16800000D02*
X45500000Y14500000D01*
X45500000Y14500000D02*
X25700000Y14500000D01*
%TO.N,/ADC_CS5381K-KSZ/~{OVFL}*%
X54400000Y25300000D02*
X48000000Y25300000D01*
X46900000Y24200000D02*
X46900000Y17300000D01*
X45015000Y15415000D02*
X23515000Y15415000D01*
X48000000Y25300000D02*
X46900000Y24200000D01*
X46900000Y17300000D02*
X45015000Y15415000D01*
X23515000Y15415000D02*
X22000000Y13900000D01*
X22000000Y13900000D02*
X22000000Y7645000D01*
X22000000Y7645000D02*
X21955000Y7600000D01*
D22*
%TO.N,+5VA*%
X45300000Y47600000D02*
X45300000Y53200000D01*
X46400000Y54300000D02*
X51700000Y54300000D01*
X43500000Y45800000D02*
X45300000Y47600000D01*
X45300000Y53200000D02*
X46400000Y54300000D01*
X43500000Y45800000D02*
X38900000Y45800000D01*
X41100000Y43600000D02*
X38900000Y45800000D01*
X38900000Y45800000D02*
X34900000Y45800000D01*
X41100000Y39600000D02*
X41100000Y43600000D01*
X34900000Y45800000D02*
X30000000Y40900000D01*
X30000000Y40900000D02*
X30000000Y35700000D01*
D21*
%TO.N,/ADC_Driver_ADA4940-2ACPZ-R7/MIC_R_OUT-*%
X37900000Y49400000D02*
X37200000Y49400000D01*
X37200000Y49400000D02*
X36540000Y50060000D01*
X36540000Y50060000D02*
X36540000Y51600000D01*
D23*
%TO.N,+3.3V*%
X35500000Y47700000D02*
X39300000Y47700000D01*
X42000000Y50400000D02*
X42000000Y52100000D01*
X39300000Y47700000D02*
X42000000Y50400000D01*
X42000000Y52100000D02*
X40750000Y53350000D01*
X40750000Y53350000D02*
X40750000Y54300000D01*
%TO.N,/ADC_Driver_ADA4940-2ACPZ-R7/VCOM_B_LEFT*%
X57500000Y40100000D02*
X57500000Y37500000D01*
X44000000Y35500000D02*
X44000000Y33900000D01*
X56200000Y36200000D02*
X44700000Y36200000D01*
X44700000Y36200000D02*
X44000000Y35500000D01*
X57500000Y37500000D02*
X56200000Y36200000D01*
X44000000Y33900000D02*
X43100000Y33000000D01*
D21*
%TO.N,/ADC_CS5381K-KSZ/~{RST}_CS5381*%
X55200000Y42800000D02*
X46800000Y42800000D01*
X39200000Y26700000D02*
X40900000Y25000000D01*
X44600000Y24100000D02*
X43700000Y25000000D01*
X32000000Y25000000D02*
X29200000Y22200000D01*
X43700000Y36700000D02*
X41300000Y36700000D01*
X45700000Y41700000D02*
X45700000Y38700000D01*
X45700000Y20200000D02*
X44600000Y21300000D01*
X41300000Y36700000D02*
X39200000Y34600000D01*
X45700000Y38700000D02*
X43700000Y36700000D01*
X39200000Y34600000D02*
X39200000Y26700000D01*
X43700000Y25000000D02*
X40900000Y25000000D01*
X40900000Y25000000D02*
X32000000Y25000000D01*
X44600000Y21300000D02*
X44600000Y24100000D01*
X46800000Y42800000D02*
X45700000Y41700000D01*
D23*
%TO.N,+3.3V*%
X36540000Y54000000D02*
X38700000Y54000000D01*
X71525000Y38825000D02*
X74065000Y38825000D01*
X73350000Y51550000D02*
X73400000Y51600000D01*
X77200000Y11440000D02*
X72660000Y11440000D01*
X77100000Y23525000D02*
X73825000Y23525000D01*
X67500000Y38100000D02*
X68225000Y38825000D01*
X91500000Y27440000D02*
X87600000Y23540000D01*
X56750000Y9450000D02*
X57100000Y9800000D01*
X87600000Y11425000D02*
X77215000Y11425000D01*
X39000000Y54300000D02*
X40750000Y54300000D01*
X66700000Y30300000D02*
X67500000Y31100000D01*
X77215000Y11425000D02*
X77200000Y11440000D01*
X91500000Y35500000D02*
X91500000Y27440000D01*
X57100000Y9800000D02*
X70900000Y9800000D01*
X74065000Y38825000D02*
X88175000Y38825000D01*
X73300000Y46200000D02*
X73300000Y49050000D01*
X67500000Y31100000D02*
X67500000Y38100000D01*
X77115000Y23540000D02*
X77100000Y23525000D01*
X72660000Y11440000D02*
X72600000Y11500000D01*
X73350000Y49100000D02*
X73350000Y51550000D01*
X73825000Y23525000D02*
X72600000Y22300000D01*
X87600000Y23540000D02*
X77115000Y23540000D01*
X73300000Y49050000D02*
X73350000Y49100000D01*
X38700000Y54000000D02*
X39000000Y54300000D01*
X70900000Y9800000D02*
X72600000Y11500000D01*
X88175000Y38825000D02*
X91500000Y35500000D01*
X68225000Y38825000D02*
X71525000Y38825000D01*
X72600000Y22300000D02*
X72600000Y11500000D01*
D21*
%TO.N,/ADC_Driver_ADA4940-2ACPZ-R7/MIC_L_OUT+*%
X72200000Y52800000D02*
X73400000Y52800000D01*
X71100000Y51700000D02*
X72200000Y52800000D01*
X71100000Y50900000D02*
X71100000Y51700000D01*
%TO.N,/ADC_Driver_ADA4940-2ACPZ-R7/MIC_L_OUT-*%
X71000000Y53200000D02*
X71000000Y53600000D01*
X71000000Y53600000D02*
X71400000Y54000000D01*
X71400000Y54000000D02*
X73400000Y54000000D01*
%TO.N,/ADC_Driver_ADA4940-2ACPZ-R7/MIC_R_OUT+*%
X38900000Y52200000D02*
X38300000Y52800000D01*
X38300000Y52800000D02*
X36540000Y52800000D01*
%TO.N,/ADC_CS5381K-KSZ/AINL-*%
X60800000Y33600000D02*
X60200000Y33000000D01*
X60200000Y33000000D02*
X60200000Y31400000D01*
X63300000Y33600000D02*
X60800000Y33600000D01*
%TO.N,/ADC_CS5381K-KSZ/M{slash}~{S}*%
X53400000Y21500000D02*
X52500000Y20600000D01*
X59600000Y21500000D02*
X53400000Y21500000D01*
X60100000Y22000000D02*
X59600000Y21500000D01*
%TO.N,/Power_Management/RST_PWR*%
X24500000Y20800000D02*
X27900000Y20800000D01*
X23900000Y21400000D02*
X24500000Y20800000D01*
X28800000Y19900000D02*
X28800000Y17400000D01*
X14200000Y44700000D02*
X22000000Y44700000D01*
X27900000Y20800000D02*
X28800000Y19900000D01*
X23900000Y42800000D02*
X23900000Y21400000D01*
X13000000Y41550000D02*
X13000000Y43500000D01*
X13000000Y43500000D02*
X14200000Y44700000D01*
X22000000Y44700000D02*
X23900000Y42800000D01*
%TO.N,/ADC_CS5381K-KSZ/I2S_LRCK*%
X52600000Y9700000D02*
X51700000Y10600000D01*
X51700000Y10600000D02*
X51700000Y13000000D01*
%TD*%
%TA.AperFunction,Conductor*%
%TO.N,GND*%
G36*
X21489075Y5252993D02*
G01*
X21455000Y5125826D01*
X21455000Y4994174D01*
X21489075Y4867007D01*
X21521988Y4810000D01*
X19848012Y4810000D01*
X19880925Y4867007D01*
X19915000Y4994174D01*
X19915000Y5125826D01*
X19880925Y5252993D01*
X19848012Y5310000D01*
X21521988Y5310000D01*
X21489075Y5252993D01*
G37*
%TD.AperFunction*%
%TA.AperFunction,Conductor*%
G36*
X24029075Y5252993D02*
G01*
X23995000Y5125826D01*
X23995000Y4994174D01*
X24029075Y4867007D01*
X24061988Y4810000D01*
X22388012Y4810000D01*
X22420925Y4867007D01*
X22455000Y4994174D01*
X22455000Y5125826D01*
X22420925Y5252993D01*
X22388012Y5310000D01*
X24061988Y5310000D01*
X24029075Y5252993D01*
G37*
%TD.AperFunction*%
%TA.AperFunction,Conductor*%
G36*
X26569075Y5252993D02*
G01*
X26535000Y5125826D01*
X26535000Y4994174D01*
X26569075Y4867007D01*
X26601988Y4810000D01*
X24928012Y4810000D01*
X24960925Y4867007D01*
X24995000Y4994174D01*
X24995000Y5125826D01*
X24960925Y5252993D01*
X24928012Y5310000D01*
X26601988Y5310000D01*
X26569075Y5252993D01*
G37*
%TD.AperFunction*%
%TA.AperFunction,Conductor*%
G36*
X29109075Y5252993D02*
G01*
X29075000Y5125826D01*
X29075000Y4994174D01*
X29109075Y4867007D01*
X29141988Y4810000D01*
X27468012Y4810000D01*
X27500925Y4867007D01*
X27535000Y4994174D01*
X27535000Y5125826D01*
X27500925Y5252993D01*
X27468012Y5310000D01*
X29141988Y5310000D01*
X29109075Y5252993D01*
G37*
%TD.AperFunction*%
%TA.AperFunction,Conductor*%
G36*
X73599075Y33937993D02*
G01*
X73565000Y33810826D01*
X73565000Y33679174D01*
X73599075Y33552007D01*
X73631988Y33495000D01*
X71958012Y33495000D01*
X71990925Y33552007D01*
X72025000Y33679174D01*
X72025000Y33810826D01*
X71990925Y33937993D01*
X71958012Y33995000D01*
X73631988Y33995000D01*
X73599075Y33937993D01*
G37*
%TD.AperFunction*%
%TA.AperFunction,Conductor*%
G36*
X42097263Y55676871D02*
G01*
X42143018Y55624067D01*
X42152962Y55554909D01*
X42123937Y55491353D01*
X42086880Y55463385D01*
X42087025Y55463149D01*
X42084528Y55461609D01*
X42082623Y55460171D01*
X42080877Y55459358D01*
X41931654Y55367316D01*
X41807683Y55243345D01*
X41807680Y55243341D01*
X41719334Y55100110D01*
X41667386Y55053385D01*
X41598424Y55042164D01*
X41534342Y55070007D01*
X41515420Y55089721D01*
X41485827Y55128287D01*
X41442020Y55185378D01*
X41428283Y55203281D01*
X41428282Y55203282D01*
X41302841Y55299536D01*
X41156762Y55360044D01*
X41156760Y55360045D01*
X41039361Y55375500D01*
X40460636Y55375500D01*
X40343246Y55360047D01*
X40343237Y55360044D01*
X40197160Y55299537D01*
X40071716Y55203281D01*
X39975463Y55077841D01*
X39966738Y55056779D01*
X39922894Y55002379D01*
X39922818Y55002326D01*
X39811248Y54924995D01*
X39663496Y54822587D01*
X39597186Y54800575D01*
X39592860Y54800500D01*
X38934107Y54800500D01*
X38806812Y54766392D01*
X38692686Y54700500D01*
X38692683Y54700498D01*
X38529005Y54536819D01*
X38467682Y54503334D01*
X38441324Y54500500D01*
X37538498Y54500500D01*
X37495967Y54508022D01*
X37055883Y54668714D01*
X36844649Y54745844D01*
X36844632Y54745850D01*
X36831334Y54750410D01*
X36831326Y54750412D01*
X36822201Y54751746D01*
X36799187Y54757399D01*
X36719252Y54785369D01*
X36540004Y54805565D01*
X36539996Y54805565D01*
X36360750Y54785370D01*
X36360745Y54785369D01*
X36190476Y54725789D01*
X36037737Y54629816D01*
X35910184Y54502263D01*
X35814211Y54349524D01*
X35754631Y54179255D01*
X35754630Y54179250D01*
X35736865Y54021572D01*
X35709799Y53957158D01*
X35701326Y53947774D01*
X35172086Y53418535D01*
X35077171Y53549175D01*
X34949175Y53677171D01*
X34818533Y53772088D01*
X35390843Y54344398D01*
X35256938Y54444638D01*
X35256938Y54444639D01*
X35012134Y54578311D01*
X34750774Y54675793D01*
X34478230Y54735081D01*
X34478223Y54735082D01*
X34200001Y54754981D01*
X34199999Y54754981D01*
X33921776Y54735082D01*
X33921769Y54735081D01*
X33649225Y54675793D01*
X33387865Y54578311D01*
X33143061Y54444639D01*
X33143054Y54444634D01*
X33009156Y54344399D01*
X33009155Y54344398D01*
X33581466Y53772087D01*
X33450825Y53677171D01*
X33322829Y53549175D01*
X33227913Y53418534D01*
X32655602Y53990845D01*
X32655601Y53990844D01*
X32555366Y53856946D01*
X32555361Y53856939D01*
X32421689Y53612135D01*
X32324207Y53350775D01*
X32264919Y53078231D01*
X32264918Y53078224D01*
X32245019Y52800002D01*
X32245019Y52799999D01*
X32264918Y52521777D01*
X32264919Y52521770D01*
X32324207Y52249226D01*
X32421689Y51987866D01*
X32555361Y51743062D01*
X32655602Y51609157D01*
X33227912Y52181468D01*
X33322829Y52050825D01*
X33450825Y51922829D01*
X33581465Y51827914D01*
X33009155Y51255604D01*
X33143061Y51155363D01*
X33143061Y51155362D01*
X33387865Y51021690D01*
X33649225Y50924208D01*
X33921769Y50864920D01*
X33921776Y50864919D01*
X34199999Y50845019D01*
X34200001Y50845019D01*
X34478223Y50864919D01*
X34478230Y50864920D01*
X34750774Y50924208D01*
X35012134Y51021690D01*
X35256942Y51155365D01*
X35390842Y51255604D01*
X35390843Y51255604D01*
X34818534Y51827914D01*
X34949175Y51922829D01*
X35077171Y52050825D01*
X35172086Y52181467D01*
X35701325Y51652229D01*
X35734810Y51590906D01*
X35736864Y51578432D01*
X35754630Y51420753D01*
X35754631Y51420748D01*
X35800961Y51288343D01*
X35803342Y51280769D01*
X35807471Y51265995D01*
X35807475Y51265984D01*
X35809997Y51260598D01*
X35813647Y51251650D01*
X35816194Y51246358D01*
X35819503Y51240293D01*
X35844044Y51187877D01*
X36076359Y50691683D01*
X36076360Y50691682D01*
X36076360Y50691679D01*
X36102800Y50635210D01*
X36114500Y50582630D01*
X36114500Y50116018D01*
X36114500Y50003982D01*
X36138564Y49914176D01*
X36143497Y49895764D01*
X36143498Y49895761D01*
X36150282Y49884011D01*
X36199515Y49798737D01*
X36199517Y49798735D01*
X36815657Y49182595D01*
X36818377Y49179588D01*
X36823964Y49173983D01*
X36827283Y49170969D01*
X36938737Y49059515D01*
X37035763Y49003497D01*
X37107446Y48984290D01*
X37137351Y48971902D01*
X37418585Y48809524D01*
X37546310Y48735779D01*
X37550263Y48733397D01*
X37572310Y48719544D01*
X37584916Y48715133D01*
X37591787Y48712497D01*
X37620529Y48700471D01*
X37622361Y48700161D01*
X37642617Y48694943D01*
X37731941Y48663687D01*
X37731944Y48663687D01*
X37731946Y48663686D01*
X37899997Y48644751D01*
X37900000Y48644751D01*
X37900003Y48644751D01*
X38068056Y48663686D01*
X38068059Y48663687D01*
X38227690Y48719544D01*
X38227692Y48719546D01*
X38227694Y48719546D01*
X38227697Y48719548D01*
X38370884Y48809519D01*
X38370885Y48809520D01*
X38370890Y48809523D01*
X38490477Y48929110D01*
X38517365Y48971902D01*
X38580452Y49072303D01*
X38580454Y49072306D01*
X38580454Y49072308D01*
X38580456Y49072310D01*
X38636313Y49231941D01*
X38636313Y49231942D01*
X38636314Y49231944D01*
X38655249Y49399998D01*
X38655249Y49400003D01*
X38636314Y49568057D01*
X38595431Y49684893D01*
X38580456Y49727690D01*
X38580455Y49727691D01*
X38580454Y49727695D01*
X38580452Y49727698D01*
X38490481Y49870885D01*
X38490476Y49870891D01*
X38370890Y49990477D01*
X38370884Y49990482D01*
X38227697Y50080453D01*
X38227694Y50080455D01*
X38068056Y50136315D01*
X37900003Y50155249D01*
X37899997Y50155249D01*
X37731941Y50136314D01*
X37626238Y50099328D01*
X37615399Y50096082D01*
X37594112Y50090753D01*
X37594110Y50090753D01*
X37594109Y50090752D01*
X37570453Y50080453D01*
X37334977Y49977937D01*
X37265652Y49969225D01*
X37202623Y49999376D01*
X37197799Y50003949D01*
X37001819Y50199929D01*
X36968334Y50261252D01*
X36965500Y50287610D01*
X36965500Y50582630D01*
X36977199Y50635208D01*
X36988105Y50658502D01*
X37260484Y51240273D01*
X37263792Y51246332D01*
X37266357Y51251658D01*
X37270020Y51260639D01*
X37272504Y51265943D01*
X37272523Y51265984D01*
X37272526Y51265990D01*
X37275658Y51272870D01*
X37275862Y51273331D01*
X37286762Y51301046D01*
X37288074Y51308812D01*
X37293296Y51329091D01*
X37325368Y51420745D01*
X37328073Y51444751D01*
X37345565Y51599997D01*
X37345565Y51600004D01*
X37325369Y51779250D01*
X37325368Y51779255D01*
X37265788Y51949525D01*
X37222211Y52018875D01*
X37194103Y52063609D01*
X37175103Y52130844D01*
X37195470Y52197679D01*
X37246517Y52241880D01*
X37504793Y52362802D01*
X37557371Y52374500D01*
X37942270Y52374500D01*
X38009309Y52354815D01*
X38055064Y52302011D01*
X38058402Y52293966D01*
X38193263Y51933642D01*
X38195376Y51928136D01*
X38195503Y51927813D01*
X38206614Y51902491D01*
X38207317Y51901251D01*
X38216478Y51881069D01*
X38219541Y51872315D01*
X38219547Y51872303D01*
X38309518Y51729116D01*
X38309523Y51729110D01*
X38429109Y51609524D01*
X38429115Y51609519D01*
X38572302Y51519548D01*
X38572305Y51519546D01*
X38572309Y51519545D01*
X38572310Y51519544D01*
X38644913Y51494140D01*
X38731943Y51463686D01*
X38899997Y51444751D01*
X38900000Y51444751D01*
X38900003Y51444751D01*
X39068056Y51463686D01*
X39068059Y51463687D01*
X39227690Y51519544D01*
X39227692Y51519546D01*
X39227694Y51519546D01*
X39227697Y51519548D01*
X39370884Y51609519D01*
X39370885Y51609520D01*
X39370890Y51609523D01*
X39490477Y51729110D01*
X39499244Y51743062D01*
X39580452Y51872303D01*
X39580454Y51872306D01*
X39580454Y51872308D01*
X39580456Y51872310D01*
X39636313Y52031941D01*
X39636313Y52031942D01*
X39636314Y52031944D01*
X39655249Y52199998D01*
X39655249Y52200003D01*
X39636314Y52368057D01*
X39589970Y52500500D01*
X39580456Y52527690D01*
X39580455Y52527691D01*
X39580454Y52527695D01*
X39580452Y52527698D01*
X39490481Y52670885D01*
X39490476Y52670891D01*
X39370890Y52790477D01*
X39370884Y52790482D01*
X39227693Y52880456D01*
X39198538Y52890657D01*
X39177507Y52900303D01*
X39166374Y52906729D01*
X39166372Y52906730D01*
X39166370Y52906731D01*
X39103446Y52930283D01*
X39103383Y52930308D01*
X38597107Y53119794D01*
X38565082Y53137554D01*
X38561265Y53140483D01*
X38561263Y53140485D01*
X38464237Y53196503D01*
X38356018Y53225500D01*
X38356017Y53225500D01*
X37557372Y53225500D01*
X37504792Y53237200D01*
X37465320Y53255681D01*
X37412953Y53301935D01*
X37393906Y53369158D01*
X37414226Y53436007D01*
X37467461Y53481259D01*
X37475355Y53484453D01*
X37495967Y53491980D01*
X37538494Y53499500D01*
X38765890Y53499500D01*
X38765892Y53499500D01*
X38893186Y53533608D01*
X39007314Y53599500D01*
X39170995Y53763181D01*
X39232318Y53796666D01*
X39258676Y53799500D01*
X39592860Y53799500D01*
X39659899Y53779815D01*
X39663497Y53777414D01*
X39922818Y53597677D01*
X39966702Y53543310D01*
X39966741Y53543217D01*
X39975462Y53522162D01*
X39975464Y53522159D01*
X40071719Y53396717D01*
X40098080Y53376490D01*
X40117759Y53357611D01*
X40272508Y53172367D01*
X40284730Y53154870D01*
X40349500Y53042686D01*
X40349502Y53042684D01*
X40535949Y52856237D01*
X40543430Y52848056D01*
X40557361Y52831380D01*
X40567857Y52819374D01*
X40568541Y52818626D01*
X40568542Y52818625D01*
X40568548Y52818619D01*
X40568550Y52818617D01*
X40595567Y52792064D01*
X40595680Y52791993D01*
X40598256Y52789945D01*
X40600895Y52787866D01*
X40600885Y52787855D01*
X40617699Y52774487D01*
X41463181Y51929005D01*
X41496666Y51867682D01*
X41499500Y51841324D01*
X41499500Y50658676D01*
X41479815Y50591637D01*
X41463181Y50570995D01*
X39129005Y48236819D01*
X39067682Y48203334D01*
X39041324Y48200500D01*
X36288105Y48200500D01*
X36251794Y48205936D01*
X35757486Y48357320D01*
X35750378Y48359753D01*
X35748767Y48360150D01*
X35744125Y48361415D01*
X35743179Y48361612D01*
X35738781Y48362612D01*
X35585057Y48400500D01*
X35585056Y48400500D01*
X35414944Y48400500D01*
X35249773Y48359790D01*
X35099150Y48280737D01*
X34971816Y48167928D01*
X34875182Y48027932D01*
X34814860Y47868875D01*
X34814859Y47868870D01*
X34794355Y47700000D01*
X34814859Y47531131D01*
X34814860Y47531126D01*
X34875182Y47372069D01*
X34925272Y47299503D01*
X34971817Y47232071D01*
X35070171Y47144937D01*
X35099150Y47119264D01*
X35245057Y47042686D01*
X35249775Y47040210D01*
X35414944Y46999500D01*
X35585056Y46999500D01*
X35750225Y47040210D01*
X35750226Y47040211D01*
X35750378Y47040248D01*
X35757451Y47042671D01*
X36251798Y47194066D01*
X36288103Y47199500D01*
X39365890Y47199500D01*
X39365892Y47199500D01*
X39493186Y47233608D01*
X39607314Y47299500D01*
X42400500Y50092686D01*
X42466392Y50206814D01*
X42500500Y50334108D01*
X42500500Y50465893D01*
X42500500Y52165892D01*
X42466392Y52293186D01*
X42400500Y52407314D01*
X42307314Y52500500D01*
X41520522Y53287292D01*
X41487037Y53348615D01*
X41492021Y53418307D01*
X41492454Y53419448D01*
X41508867Y53461990D01*
X41551362Y53517448D01*
X41617097Y53541129D01*
X41685198Y53525511D01*
X41730093Y53482450D01*
X41807684Y53356655D01*
X41931654Y53232685D01*
X42080875Y53140644D01*
X42080880Y53140642D01*
X42247302Y53085495D01*
X42247309Y53085494D01*
X42350019Y53075001D01*
X42900000Y53075001D01*
X42949972Y53075001D01*
X42949986Y53075002D01*
X43052697Y53085495D01*
X43219119Y53140642D01*
X43219124Y53140644D01*
X43368345Y53232685D01*
X43492315Y53356655D01*
X43584356Y53505876D01*
X43584358Y53505881D01*
X43639505Y53672303D01*
X43639506Y53672310D01*
X43649999Y53775014D01*
X43650000Y53775027D01*
X43650000Y54050000D01*
X42900000Y54050000D01*
X42900000Y53075001D01*
X42350019Y53075001D01*
X42399999Y53075002D01*
X42400000Y53075002D01*
X42400000Y54426000D01*
X42419685Y54493039D01*
X42472489Y54538794D01*
X42524000Y54550000D01*
X43649999Y54550000D01*
X43649999Y54824972D01*
X43649998Y54824987D01*
X43639505Y54927698D01*
X43584358Y55094120D01*
X43584356Y55094125D01*
X43492315Y55243346D01*
X43368345Y55367316D01*
X43219122Y55459358D01*
X43217377Y55460171D01*
X43216379Y55461049D01*
X43212975Y55463149D01*
X43213333Y55463731D01*
X43164935Y55506341D01*
X43145780Y55573534D01*
X43165992Y55640416D01*
X43219156Y55685753D01*
X43269776Y55696556D01*
X78298056Y55696556D01*
X78307788Y55696174D01*
X78511681Y55680123D01*
X78530891Y55677079D01*
X78725002Y55630473D01*
X78743498Y55624463D01*
X78866443Y55573534D01*
X78927932Y55548063D01*
X78945268Y55539229D01*
X79115469Y55434926D01*
X79131211Y55423489D01*
X79144489Y55412148D01*
X79282991Y55293852D01*
X79283008Y55293838D01*
X79296766Y55280079D01*
X79426405Y55128287D01*
X79437842Y55112546D01*
X79542147Y54942332D01*
X79550980Y54924995D01*
X79627370Y54740572D01*
X79633383Y54722067D01*
X79679984Y54527957D01*
X79683028Y54508739D01*
X79699118Y54304299D01*
X79699500Y54294570D01*
X79699500Y49960438D01*
X79709912Y49921581D01*
X79719979Y49884010D01*
X79719982Y49884005D01*
X79759535Y49815496D01*
X79759539Y49815491D01*
X79759540Y49815489D01*
X79815489Y49759540D01*
X79815491Y49759539D01*
X79815495Y49759536D01*
X79849394Y49739965D01*
X79884011Y49719979D01*
X79960438Y49699500D01*
X80039562Y49699500D01*
X94643898Y49699500D01*
X94710937Y49679815D01*
X94756692Y49627011D01*
X94766636Y49557853D01*
X94737611Y49494297D01*
X94688336Y49459736D01*
X94493005Y49384756D01*
X94147456Y49208690D01*
X93822206Y48997469D01*
X93564648Y48788905D01*
X93564648Y48788904D01*
X95059301Y47294252D01*
X94957670Y47220412D01*
X94779588Y47042330D01*
X94705748Y46940700D01*
X93211096Y48435352D01*
X93211095Y48435352D01*
X93002531Y48177794D01*
X92791310Y47852544D01*
X92615244Y47506995D01*
X92476262Y47144937D01*
X92375887Y46770331D01*
X92375886Y46770324D01*
X92315219Y46387288D01*
X92294922Y46000001D01*
X92294922Y46000000D01*
X92315219Y45612713D01*
X92375886Y45229677D01*
X92375887Y45229670D01*
X92476262Y44855064D01*
X92615244Y44493006D01*
X92791310Y44147457D01*
X93002531Y43822207D01*
X93211095Y43564650D01*
X93211096Y43564650D01*
X94705748Y45059302D01*
X94779588Y44957670D01*
X94957670Y44779588D01*
X95059300Y44705749D01*
X93564648Y43211097D01*
X93564649Y43211096D01*
X93822206Y43002532D01*
X94147456Y42791311D01*
X94493005Y42615245D01*
X94855063Y42476263D01*
X95229669Y42375888D01*
X95229676Y42375887D01*
X95612712Y42315220D01*
X95999999Y42294922D01*
X96000001Y42294922D01*
X96387287Y42315220D01*
X96770323Y42375887D01*
X96770330Y42375888D01*
X97144936Y42476263D01*
X97506994Y42615245D01*
X97852543Y42791311D01*
X98177783Y43002524D01*
X98177785Y43002525D01*
X98435349Y43211098D01*
X96940698Y44705749D01*
X97042330Y44779588D01*
X97220412Y44957670D01*
X97294251Y45059302D01*
X98788902Y43564651D01*
X98997475Y43822215D01*
X98997476Y43822217D01*
X99208689Y44147457D01*
X99384755Y44493006D01*
X99459736Y44688336D01*
X99502138Y44743868D01*
X99567832Y44767661D01*
X99635960Y44752159D01*
X99684893Y44702286D01*
X99699500Y44643898D01*
X99699500Y5356103D01*
X99679815Y5289064D01*
X99627011Y5243309D01*
X99557853Y5233365D01*
X99494297Y5262390D01*
X99459736Y5311665D01*
X99384755Y5506995D01*
X99208689Y5852544D01*
X98997468Y6177794D01*
X98788904Y6435351D01*
X98788903Y6435352D01*
X97294251Y4940700D01*
X97220412Y5042330D01*
X97042330Y5220412D01*
X96940698Y5294252D01*
X98435350Y6788904D01*
X98435350Y6788905D01*
X98177793Y6997469D01*
X97852543Y7208690D01*
X97506994Y7384756D01*
X97144936Y7523738D01*
X96770330Y7624113D01*
X96770323Y7624114D01*
X96387287Y7684781D01*
X96000001Y7705078D01*
X95999999Y7705078D01*
X95612712Y7684781D01*
X95229676Y7624114D01*
X95229669Y7624113D01*
X94855063Y7523738D01*
X94493005Y7384756D01*
X94147456Y7208690D01*
X93822206Y6997469D01*
X93564648Y6788905D01*
X93564648Y6788904D01*
X95059301Y5294252D01*
X94957670Y5220412D01*
X94779588Y5042330D01*
X94705748Y4940700D01*
X93211096Y6435352D01*
X93211095Y6435352D01*
X93002531Y6177794D01*
X92791310Y5852544D01*
X92615244Y5506995D01*
X92476262Y5144937D01*
X92375887Y4770331D01*
X92375886Y4770324D01*
X92315219Y4387288D01*
X92294922Y4000001D01*
X92294922Y4000000D01*
X92315219Y3612713D01*
X92375886Y3229677D01*
X92375887Y3229670D01*
X92476262Y2855064D01*
X92615244Y2493006D01*
X92791310Y2147457D01*
X93002531Y1822207D01*
X93211095Y1564650D01*
X93211096Y1564650D01*
X94705748Y3059302D01*
X94779588Y2957670D01*
X94957670Y2779588D01*
X95059300Y2705749D01*
X93564648Y1211097D01*
X93564649Y1211096D01*
X93822206Y1002532D01*
X94147456Y791311D01*
X94493005Y615245D01*
X94688336Y540264D01*
X94743868Y497862D01*
X94767661Y432168D01*
X94752159Y364040D01*
X94702286Y315107D01*
X94643898Y300500D01*
X5356102Y300500D01*
X5289063Y320185D01*
X5243308Y372989D01*
X5233364Y442147D01*
X5262389Y505703D01*
X5311664Y540264D01*
X5506994Y615245D01*
X5852543Y791311D01*
X6177783Y1002524D01*
X6177785Y1002525D01*
X6435349Y1211098D01*
X4940698Y2705749D01*
X5042330Y2779588D01*
X5220412Y2957670D01*
X5294251Y3059302D01*
X6788902Y1564651D01*
X6997475Y1822215D01*
X6997476Y1822217D01*
X7208689Y2147457D01*
X7384755Y2493006D01*
X7523737Y2855064D01*
X7624112Y3229670D01*
X7624113Y3229677D01*
X7684780Y3612713D01*
X7705078Y4000000D01*
X7705078Y4000001D01*
X7684780Y4387288D01*
X7624113Y4770324D01*
X7624112Y4770331D01*
X7523737Y5144937D01*
X7460374Y5310001D01*
X18084364Y5310001D01*
X18084364Y5310000D01*
X18981988Y5310000D01*
X18949075Y5252993D01*
X18915000Y5125826D01*
X18915000Y4994174D01*
X18949075Y4867007D01*
X18981988Y4810000D01*
X18084364Y4810000D01*
X18141567Y4596514D01*
X18141570Y4596508D01*
X18241399Y4382422D01*
X18376894Y4188918D01*
X18543917Y4021895D01*
X18737421Y3886400D01*
X18951507Y3786571D01*
X18951516Y3786567D01*
X19165000Y3729366D01*
X19165000Y4626988D01*
X19222007Y4594075D01*
X19349174Y4560000D01*
X19480826Y4560000D01*
X19607993Y4594075D01*
X19665000Y4626988D01*
X19665000Y3729366D01*
X19878483Y3786567D01*
X19878492Y3786571D01*
X20092578Y3886400D01*
X20286082Y4021895D01*
X20453105Y4188918D01*
X20583425Y4375032D01*
X20638002Y4418656D01*
X20707501Y4425849D01*
X20769855Y4394327D01*
X20786575Y4375032D01*
X20916894Y4188918D01*
X21083917Y4021895D01*
X21277421Y3886400D01*
X21491507Y3786571D01*
X21491516Y3786567D01*
X21705000Y3729366D01*
X21705000Y4626988D01*
X21762007Y4594075D01*
X21889174Y4560000D01*
X22020826Y4560000D01*
X22147993Y4594075D01*
X22205000Y4626988D01*
X22205000Y3729367D01*
X22418483Y3786567D01*
X22418492Y3786571D01*
X22632578Y3886400D01*
X22826082Y4021895D01*
X22993105Y4188918D01*
X23123425Y4375032D01*
X23178002Y4418656D01*
X23247501Y4425849D01*
X23309855Y4394327D01*
X23326575Y4375032D01*
X23456894Y4188918D01*
X23623917Y4021895D01*
X23817421Y3886400D01*
X24031507Y3786571D01*
X24031516Y3786567D01*
X24245000Y3729366D01*
X24245000Y4626988D01*
X24302007Y4594075D01*
X24429174Y4560000D01*
X24560826Y4560000D01*
X24687993Y4594075D01*
X24745000Y4626988D01*
X24745000Y3729367D01*
X24958483Y3786567D01*
X24958492Y3786571D01*
X25172578Y3886400D01*
X25366082Y4021895D01*
X25533105Y4188918D01*
X25663425Y4375032D01*
X25718002Y4418656D01*
X25787501Y4425849D01*
X25849855Y4394327D01*
X25866575Y4375032D01*
X25996894Y4188918D01*
X26163917Y4021895D01*
X26357421Y3886400D01*
X26571507Y3786571D01*
X26571516Y3786567D01*
X26785000Y3729366D01*
X26785000Y4626988D01*
X26842007Y4594075D01*
X26969174Y4560000D01*
X27100826Y4560000D01*
X27227993Y4594075D01*
X27285000Y4626988D01*
X27285000Y3729367D01*
X27498483Y3786567D01*
X27498492Y3786571D01*
X27712578Y3886400D01*
X27906082Y4021895D01*
X28073105Y4188918D01*
X28203425Y4375032D01*
X28258002Y4418656D01*
X28327501Y4425849D01*
X28389855Y4394327D01*
X28406575Y4375032D01*
X28536894Y4188918D01*
X28703917Y4021895D01*
X28897421Y3886400D01*
X29111507Y3786571D01*
X29111516Y3786567D01*
X29325000Y3729366D01*
X29325000Y4626988D01*
X29382007Y4594075D01*
X29509174Y4560000D01*
X29640826Y4560000D01*
X29767993Y4594075D01*
X29825000Y4626988D01*
X29825000Y3729367D01*
X30038483Y3786567D01*
X30038492Y3786571D01*
X30252578Y3886400D01*
X30446082Y4021895D01*
X30613105Y4188918D01*
X30748600Y4382422D01*
X30848429Y4596508D01*
X30848432Y4596514D01*
X30905636Y4810000D01*
X30008012Y4810000D01*
X30040925Y4867007D01*
X30075000Y4994174D01*
X30075000Y5125826D01*
X30040925Y5252993D01*
X30008012Y5310000D01*
X30905636Y5310000D01*
X30905635Y5310001D01*
X30848432Y5523487D01*
X30848429Y5523493D01*
X30748600Y5737578D01*
X30748599Y5737580D01*
X30613113Y5931074D01*
X30613108Y5931080D01*
X30446082Y6098106D01*
X30337802Y6173925D01*
X30294177Y6228502D01*
X30286985Y6298001D01*
X30318507Y6360355D01*
X30378737Y6395769D01*
X30408926Y6399500D01*
X30458261Y6399500D01*
X30480971Y6402809D01*
X30526393Y6409427D01*
X30631483Y6460802D01*
X30714198Y6543517D01*
X30765573Y6648607D01*
X30775500Y6716740D01*
X30775500Y8443056D01*
X30776054Y8450460D01*
X30775811Y8465758D01*
X30775825Y8465759D01*
X30775500Y8469342D01*
X30775500Y8483261D01*
X30765574Y8551389D01*
X30765573Y8551390D01*
X30765573Y8551393D01*
X30752926Y8577263D01*
X30749077Y8585972D01*
X30743714Y8599495D01*
X30740939Y8603787D01*
X30733674Y8616643D01*
X30714198Y8656483D01*
X30702768Y8667913D01*
X30686318Y8688270D01*
X30680201Y8697732D01*
X30680176Y8697771D01*
X30175576Y9251203D01*
X30032869Y9407721D01*
X30002247Y9470522D01*
X30000500Y9491266D01*
X30000500Y10700000D01*
X48394355Y10700000D01*
X48414859Y10531131D01*
X48414860Y10531126D01*
X48475182Y10372069D01*
X48531502Y10290477D01*
X48571817Y10232071D01*
X48677505Y10138440D01*
X48699150Y10119264D01*
X48838488Y10046134D01*
X48849775Y10040210D01*
X49014944Y9999500D01*
X49185056Y9999500D01*
X49350225Y10040210D01*
X49451213Y10093213D01*
X49500849Y10119264D01*
X49500850Y10119266D01*
X49500852Y10119266D01*
X49628183Y10232071D01*
X49724818Y10372070D01*
X49785140Y10531128D01*
X49805645Y10700000D01*
X49785140Y10868872D01*
X49754743Y10949023D01*
X49750487Y10962528D01*
X49744115Y10987681D01*
X49535948Y11462141D01*
X49525500Y11511961D01*
X49525500Y13000003D01*
X50944751Y13000003D01*
X50944751Y12999998D01*
X50963686Y12831944D01*
X51004080Y12716501D01*
X51006806Y12707666D01*
X51011913Y12688619D01*
X51011914Y12688615D01*
X51141835Y12403268D01*
X51263352Y12136380D01*
X51263353Y12136379D01*
X51274500Y12084997D01*
X51274500Y10656018D01*
X51274500Y10543982D01*
X51303497Y10435763D01*
X51359515Y10338737D01*
X51511939Y10186313D01*
X51652119Y10046134D01*
X51680570Y10001919D01*
X51706078Y9933766D01*
X51893263Y9433642D01*
X51895376Y9428136D01*
X51895503Y9427813D01*
X51906614Y9402491D01*
X51907317Y9401251D01*
X51916478Y9381069D01*
X51919541Y9372315D01*
X51919547Y9372303D01*
X52009518Y9229116D01*
X52009523Y9229110D01*
X52129109Y9109524D01*
X52129115Y9109519D01*
X52272302Y9019548D01*
X52272305Y9019546D01*
X52272309Y9019545D01*
X52272310Y9019544D01*
X52299580Y9010002D01*
X52431943Y8963686D01*
X52599997Y8944751D01*
X52600000Y8944751D01*
X52600003Y8944751D01*
X52768056Y8963686D01*
X52769545Y8964207D01*
X52927690Y9019544D01*
X52927692Y9019546D01*
X52927694Y9019546D01*
X52927697Y9019548D01*
X53070884Y9109519D01*
X53070885Y9109520D01*
X53070890Y9109523D01*
X53190477Y9229110D01*
X53230170Y9292281D01*
X53280452Y9372303D01*
X53280454Y9372306D01*
X53280454Y9372308D01*
X53280456Y9372310D01*
X53307642Y9450003D01*
X55994751Y9450003D01*
X55994751Y9449998D01*
X56013685Y9281944D01*
X56069545Y9122306D01*
X56069547Y9122303D01*
X56159518Y8979116D01*
X56159523Y8979110D01*
X56279109Y8859524D01*
X56279115Y8859519D01*
X56422302Y8769548D01*
X56422305Y8769546D01*
X56422309Y8769545D01*
X56422310Y8769544D01*
X56450677Y8759618D01*
X56581943Y8713686D01*
X56749997Y8694751D01*
X56750000Y8694751D01*
X56750003Y8694751D01*
X56918056Y8713686D01*
X56918059Y8713687D01*
X57077690Y8769544D01*
X57220890Y8859523D01*
X57313847Y8952482D01*
X57317093Y8955611D01*
X57322517Y8960650D01*
X57322520Y8960655D01*
X57325760Y8964207D01*
X57329713Y8968346D01*
X57340475Y8979108D01*
X57340481Y8979115D01*
X57353769Y9000265D01*
X57360541Y9009982D01*
X57546481Y9251204D01*
X57602999Y9292281D01*
X57644690Y9299500D01*
X70965890Y9299500D01*
X70965892Y9299500D01*
X71093186Y9333608D01*
X71207314Y9399500D01*
X72710995Y10903181D01*
X72772318Y10936666D01*
X72798676Y10939500D01*
X75321902Y10939500D01*
X75388941Y10919815D01*
X75400730Y10911219D01*
X75862271Y10531126D01*
X76115811Y10322328D01*
X76119544Y10319296D01*
X76119551Y10319292D01*
X76123954Y10316305D01*
X76123572Y10315743D01*
X76140031Y10303290D01*
X76143513Y10300805D01*
X76143514Y10300805D01*
X76143517Y10300802D01*
X76212485Y10267086D01*
X76218560Y10263904D01*
X76221672Y10262163D01*
X76226341Y10260037D01*
X76226324Y10260001D01*
X76231143Y10257965D01*
X76248604Y10249428D01*
X76248605Y10249428D01*
X76248607Y10249427D01*
X76316740Y10239500D01*
X76362221Y10239500D01*
X76369201Y10239137D01*
X76371057Y10239252D01*
X76371059Y10239251D01*
X76371060Y10239252D01*
X76371300Y10239266D01*
X76378915Y10239500D01*
X76671047Y10239500D01*
X76738086Y10219815D01*
X76783841Y10167011D01*
X76793785Y10097853D01*
X76764760Y10034297D01*
X76715841Y9999873D01*
X76662601Y9979249D01*
X76662595Y9979246D01*
X76473439Y9862126D01*
X76473437Y9862124D01*
X76309020Y9712239D01*
X76174943Y9534692D01*
X76174938Y9534684D01*
X76075775Y9335539D01*
X76075769Y9335524D01*
X76014885Y9121538D01*
X76014884Y9121536D01*
X75994357Y8900001D01*
X75994357Y8900000D01*
X76014884Y8678465D01*
X76014885Y8678463D01*
X76075769Y8464477D01*
X76075775Y8464462D01*
X76174938Y8265317D01*
X76174943Y8265309D01*
X76309020Y8087762D01*
X76473437Y7937877D01*
X76473439Y7937875D01*
X76667473Y7817735D01*
X76666836Y7816708D01*
X76713563Y7773393D01*
X76730989Y7705731D01*
X76709069Y7639389D01*
X76659464Y7597505D01*
X76522422Y7533601D01*
X76522420Y7533600D01*
X76328926Y7398114D01*
X76328920Y7398109D01*
X76161891Y7231080D01*
X76161886Y7231074D01*
X76026400Y7037580D01*
X76026399Y7037578D01*
X75926570Y6823493D01*
X75926567Y6823487D01*
X75869364Y6610001D01*
X75869364Y6610000D01*
X76766988Y6610000D01*
X76734075Y6552993D01*
X76700000Y6425826D01*
X76700000Y6294174D01*
X76734075Y6167007D01*
X76766988Y6110000D01*
X75869364Y6110000D01*
X75926567Y5896514D01*
X75926570Y5896508D01*
X76026399Y5682422D01*
X76161894Y5488918D01*
X76328917Y5321895D01*
X76522421Y5186400D01*
X76736507Y5086571D01*
X76736516Y5086567D01*
X76950000Y5029366D01*
X76950000Y5926988D01*
X77007007Y5894075D01*
X77134174Y5860000D01*
X77265826Y5860000D01*
X77392993Y5894075D01*
X77450000Y5926988D01*
X77450000Y5029367D01*
X77663483Y5086567D01*
X77663492Y5086571D01*
X77877578Y5186400D01*
X78071082Y5321895D01*
X78238105Y5488918D01*
X78373600Y5682422D01*
X78473429Y5896508D01*
X78473432Y5896514D01*
X78530636Y6110000D01*
X77633012Y6110000D01*
X77665925Y6167007D01*
X77700000Y6294174D01*
X77700000Y6425826D01*
X77665925Y6552993D01*
X77633012Y6610000D01*
X78530636Y6610000D01*
X78530635Y6610001D01*
X78473432Y6823487D01*
X78473429Y6823493D01*
X78373600Y7037578D01*
X78373599Y7037580D01*
X78238113Y7231074D01*
X78238108Y7231080D01*
X78071082Y7398106D01*
X77877578Y7533601D01*
X77740535Y7597505D01*
X77688096Y7643678D01*
X77668944Y7710871D01*
X77689160Y7777752D01*
X77733096Y7816816D01*
X77732527Y7817735D01*
X77902336Y7922876D01*
X77926562Y7937876D01*
X78090981Y8087764D01*
X78225058Y8265311D01*
X78324229Y8464472D01*
X78385115Y8678464D01*
X78405643Y8900000D01*
X78399693Y8964207D01*
X78385115Y9121536D01*
X78385114Y9121538D01*
X78384896Y9122303D01*
X78324229Y9335528D01*
X78310134Y9363835D01*
X78225061Y9534684D01*
X78225056Y9534692D01*
X78090979Y9712239D01*
X77926562Y9862124D01*
X77926560Y9862126D01*
X77737404Y9979246D01*
X77737398Y9979249D01*
X77684159Y9999873D01*
X77628758Y10042446D01*
X77605167Y10108213D01*
X77620878Y10176293D01*
X77670902Y10225072D01*
X77728953Y10239500D01*
X78018110Y10239500D01*
X78023697Y10239374D01*
X78033562Y10238930D01*
X78033566Y10238929D01*
X78033569Y10238930D01*
X78035112Y10238860D01*
X78045754Y10239500D01*
X78083255Y10239500D01*
X78083260Y10239500D01*
X78151393Y10249427D01*
X78167201Y10257156D01*
X78173741Y10259809D01*
X78173702Y10259898D01*
X78179276Y10262353D01*
X78179284Y10262355D01*
X78185664Y10265950D01*
X78192021Y10269290D01*
X78256483Y10300802D01*
X78256485Y10300805D01*
X78259108Y10302677D01*
X78277295Y10316478D01*
X78277002Y10316910D01*
X78281242Y10319785D01*
X78281248Y10319788D01*
X78997559Y10897050D01*
X79062110Y10923789D01*
X79075367Y10924500D01*
X85721902Y10924500D01*
X85788941Y10904815D01*
X85800730Y10896219D01*
X86414626Y10390657D01*
X86515811Y10307328D01*
X86519544Y10304296D01*
X86519551Y10304292D01*
X86523954Y10301305D01*
X86523572Y10300743D01*
X86540031Y10288290D01*
X86543513Y10285805D01*
X86543514Y10285805D01*
X86543517Y10285802D01*
X86612485Y10252086D01*
X86618560Y10248904D01*
X86621672Y10247163D01*
X86626341Y10245037D01*
X86626324Y10245001D01*
X86631143Y10242965D01*
X86648604Y10234428D01*
X86648605Y10234428D01*
X86648607Y10234427D01*
X86716740Y10224500D01*
X86762221Y10224500D01*
X86769201Y10224137D01*
X86771057Y10224252D01*
X86771059Y10224251D01*
X86771060Y10224252D01*
X86771300Y10224266D01*
X86778915Y10224500D01*
X87071047Y10224500D01*
X87138086Y10204815D01*
X87183841Y10152011D01*
X87193785Y10082853D01*
X87164760Y10019297D01*
X87115841Y9984873D01*
X87062601Y9964249D01*
X87062595Y9964246D01*
X86873439Y9847126D01*
X86873437Y9847124D01*
X86709020Y9697239D01*
X86574943Y9519692D01*
X86574938Y9519684D01*
X86475775Y9320539D01*
X86475769Y9320524D01*
X86414885Y9106538D01*
X86414884Y9106536D01*
X86394357Y8885001D01*
X86394357Y8885000D01*
X86414884Y8663465D01*
X86414885Y8663463D01*
X86475769Y8449477D01*
X86475775Y8449462D01*
X86574938Y8250317D01*
X86574943Y8250309D01*
X86709020Y8072762D01*
X86873437Y7922877D01*
X86873439Y7922875D01*
X87067473Y7802735D01*
X87066836Y7801708D01*
X87113563Y7758393D01*
X87130989Y7690731D01*
X87109069Y7624389D01*
X87059464Y7582505D01*
X86922422Y7518601D01*
X86922420Y7518600D01*
X86728926Y7383114D01*
X86728920Y7383109D01*
X86561891Y7216080D01*
X86561886Y7216074D01*
X86426400Y7022580D01*
X86426399Y7022578D01*
X86326570Y6808493D01*
X86326567Y6808487D01*
X86269364Y6595001D01*
X86269364Y6595000D01*
X87166988Y6595000D01*
X87134075Y6537993D01*
X87100000Y6410826D01*
X87100000Y6279174D01*
X87134075Y6152007D01*
X87166988Y6095000D01*
X86269364Y6095000D01*
X86326567Y5881514D01*
X86326570Y5881508D01*
X86426399Y5667422D01*
X86561894Y5473918D01*
X86728917Y5306895D01*
X86922421Y5171400D01*
X87136507Y5071571D01*
X87136516Y5071567D01*
X87350000Y5014366D01*
X87350000Y5911988D01*
X87407007Y5879075D01*
X87534174Y5845000D01*
X87665826Y5845000D01*
X87792993Y5879075D01*
X87850000Y5911988D01*
X87850000Y5014367D01*
X88063483Y5071567D01*
X88063492Y5071571D01*
X88277578Y5171400D01*
X88471082Y5306895D01*
X88638105Y5473918D01*
X88773600Y5667422D01*
X88873429Y5881508D01*
X88873432Y5881514D01*
X88930636Y6095000D01*
X88033012Y6095000D01*
X88065925Y6152007D01*
X88100000Y6279174D01*
X88100000Y6410826D01*
X88065925Y6537993D01*
X88033012Y6595000D01*
X88930636Y6595000D01*
X88930635Y6595001D01*
X88873432Y6808487D01*
X88873429Y6808493D01*
X88773600Y7022578D01*
X88773599Y7022580D01*
X88638113Y7216074D01*
X88638108Y7216080D01*
X88471082Y7383106D01*
X88277578Y7518601D01*
X88140535Y7582505D01*
X88088096Y7628678D01*
X88068944Y7695871D01*
X88089160Y7762752D01*
X88133096Y7801816D01*
X88132527Y7802735D01*
X88326560Y7922875D01*
X88326559Y7922875D01*
X88326562Y7922876D01*
X88490981Y8072764D01*
X88625058Y8250311D01*
X88724229Y8449472D01*
X88785115Y8663464D01*
X88805643Y8885000D01*
X88793175Y9019548D01*
X88785115Y9106536D01*
X88785114Y9106538D01*
X88784264Y9109524D01*
X88724229Y9320528D01*
X88717716Y9333608D01*
X88625061Y9519684D01*
X88625056Y9519692D01*
X88490979Y9697239D01*
X88326562Y9847124D01*
X88326560Y9847126D01*
X88137404Y9964246D01*
X88137398Y9964249D01*
X88084159Y9984873D01*
X88028758Y10027446D01*
X88005167Y10093213D01*
X88020878Y10161293D01*
X88070902Y10210072D01*
X88128953Y10224500D01*
X88483261Y10224500D01*
X88505971Y10227809D01*
X88551393Y10234427D01*
X88656483Y10285802D01*
X88739198Y10368517D01*
X88790573Y10473607D01*
X88800500Y10541740D01*
X88800500Y12308260D01*
X88790573Y12376393D01*
X88739198Y12481483D01*
X88739196Y12481485D01*
X88739196Y12481486D01*
X88656485Y12564197D01*
X88551391Y12615574D01*
X88483261Y12625500D01*
X88483260Y12625500D01*
X86778314Y12625500D01*
X86772926Y12626041D01*
X86772918Y12625799D01*
X86760618Y12626225D01*
X86749559Y12625500D01*
X86716739Y12625500D01*
X86648607Y12615574D01*
X86630853Y12606895D01*
X86618761Y12601910D01*
X86617154Y12601182D01*
X86609721Y12596891D01*
X86602194Y12592885D01*
X86543519Y12564200D01*
X86543509Y12564193D01*
X86541968Y12562651D01*
X86519925Y12545738D01*
X86520024Y12545595D01*
X86517078Y12543553D01*
X86516310Y12542963D01*
X86515819Y12542680D01*
X86515812Y12542675D01*
X85800728Y11953781D01*
X85736464Y11926358D01*
X85721900Y11925500D01*
X79079460Y11925500D01*
X79012421Y11945185D01*
X79000130Y11954196D01*
X78296623Y12539786D01*
X78288271Y12547410D01*
X78256485Y12579197D01*
X78151391Y12630574D01*
X78083261Y12640500D01*
X78083260Y12640500D01*
X76378314Y12640500D01*
X76372926Y12641041D01*
X76372918Y12640799D01*
X76360618Y12641225D01*
X76349559Y12640500D01*
X76316739Y12640500D01*
X76248607Y12630574D01*
X76230853Y12621895D01*
X76218761Y12616910D01*
X76217154Y12616182D01*
X76209721Y12611891D01*
X76202194Y12607885D01*
X76143519Y12579200D01*
X76143509Y12579193D01*
X76141968Y12577651D01*
X76119925Y12560738D01*
X76120024Y12560595D01*
X76117078Y12558553D01*
X76116310Y12557963D01*
X76115819Y12557680D01*
X76115812Y12557675D01*
X75400728Y11968781D01*
X75336464Y11941358D01*
X75321900Y11940500D01*
X73224500Y11940500D01*
X73157461Y11960185D01*
X73111706Y12012989D01*
X73100500Y12064500D01*
X73100500Y22041324D01*
X73120185Y22108363D01*
X73136819Y22129005D01*
X73995995Y22988181D01*
X74057318Y23021666D01*
X74083676Y23024500D01*
X75221902Y23024500D01*
X75288941Y23004815D01*
X75300730Y22996219D01*
X75431266Y22888719D01*
X76015811Y22407328D01*
X76019544Y22404296D01*
X76019551Y22404292D01*
X76023954Y22401305D01*
X76023572Y22400743D01*
X76040031Y22388290D01*
X76043513Y22385805D01*
X76043514Y22385805D01*
X76043517Y22385802D01*
X76112485Y22352086D01*
X76118560Y22348904D01*
X76121672Y22347163D01*
X76126341Y22345037D01*
X76126324Y22345001D01*
X76131143Y22342965D01*
X76148604Y22334428D01*
X76148605Y22334428D01*
X76148607Y22334427D01*
X76216740Y22324500D01*
X76262221Y22324500D01*
X76269201Y22324137D01*
X76271057Y22324252D01*
X76271059Y22324251D01*
X76271060Y22324252D01*
X76271300Y22324266D01*
X76278915Y22324500D01*
X76571047Y22324500D01*
X76638086Y22304815D01*
X76683841Y22252011D01*
X76693785Y22182853D01*
X76664760Y22119297D01*
X76615841Y22084873D01*
X76562601Y22064249D01*
X76562595Y22064246D01*
X76373439Y21947126D01*
X76373437Y21947124D01*
X76209020Y21797239D01*
X76074943Y21619692D01*
X76074938Y21619684D01*
X75975775Y21420539D01*
X75975769Y21420524D01*
X75914885Y21206538D01*
X75914884Y21206536D01*
X75894357Y20985001D01*
X75894357Y20985000D01*
X75914884Y20763465D01*
X75914885Y20763463D01*
X75975769Y20549477D01*
X75975775Y20549462D01*
X76074938Y20350317D01*
X76074943Y20350309D01*
X76209020Y20172762D01*
X76373437Y20022877D01*
X76373439Y20022875D01*
X76567473Y19902735D01*
X76566836Y19901708D01*
X76613563Y19858393D01*
X76630989Y19790731D01*
X76609069Y19724389D01*
X76559464Y19682505D01*
X76422422Y19618601D01*
X76422420Y19618600D01*
X76228926Y19483114D01*
X76228920Y19483109D01*
X76061891Y19316080D01*
X76061886Y19316074D01*
X75926400Y19122580D01*
X75926399Y19122578D01*
X75826570Y18908493D01*
X75826567Y18908487D01*
X75769364Y18695001D01*
X75769364Y18695000D01*
X76666988Y18695000D01*
X76634075Y18637993D01*
X76600000Y18510826D01*
X76600000Y18379174D01*
X76634075Y18252007D01*
X76666988Y18195000D01*
X75769364Y18195000D01*
X75826567Y17981514D01*
X75826570Y17981508D01*
X75926399Y17767422D01*
X76061894Y17573918D01*
X76228917Y17406895D01*
X76422421Y17271400D01*
X76636507Y17171571D01*
X76636516Y17171567D01*
X76850000Y17114366D01*
X76850000Y18011988D01*
X76907007Y17979075D01*
X77034174Y17945000D01*
X77165826Y17945000D01*
X77292993Y17979075D01*
X77350000Y18011988D01*
X77350000Y17114367D01*
X77563483Y17171567D01*
X77563492Y17171571D01*
X77777578Y17271400D01*
X77971082Y17406895D01*
X78138105Y17573918D01*
X78273600Y17767422D01*
X78373429Y17981508D01*
X78373432Y17981514D01*
X78430636Y18195000D01*
X77533012Y18195000D01*
X77565925Y18252007D01*
X77600000Y18379174D01*
X77600000Y18510826D01*
X77565925Y18637993D01*
X77533012Y18695000D01*
X78430636Y18695000D01*
X78430635Y18695001D01*
X78373432Y18908487D01*
X78373429Y18908493D01*
X78273600Y19122578D01*
X78273599Y19122580D01*
X78138113Y19316074D01*
X78138108Y19316080D01*
X77971082Y19483106D01*
X77777578Y19618601D01*
X77640535Y19682505D01*
X77588096Y19728678D01*
X77568944Y19795871D01*
X77589160Y19862752D01*
X77633096Y19901816D01*
X77632527Y19902735D01*
X77820728Y20019264D01*
X77826562Y20022876D01*
X77990981Y20172764D01*
X78125058Y20350311D01*
X78224229Y20549472D01*
X78285115Y20763464D01*
X78305643Y20985000D01*
X78285115Y21206536D01*
X78224229Y21420528D01*
X78224224Y21420539D01*
X78125061Y21619684D01*
X78125056Y21619692D01*
X77990979Y21797239D01*
X77826562Y21947124D01*
X77826560Y21947126D01*
X77637404Y22064246D01*
X77637398Y22064249D01*
X77584159Y22084873D01*
X77528758Y22127446D01*
X77505167Y22193213D01*
X77520878Y22261293D01*
X77570902Y22310072D01*
X77628953Y22324500D01*
X77983261Y22324500D01*
X78006815Y22327932D01*
X78051393Y22334427D01*
X78156483Y22385802D01*
X78188310Y22417631D01*
X78196627Y22425222D01*
X78806481Y22932853D01*
X78900129Y23010804D01*
X78964247Y23038564D01*
X78979458Y23039500D01*
X85721902Y23039500D01*
X85788941Y23019815D01*
X85800730Y23011219D01*
X86323461Y22580734D01*
X86515811Y22422328D01*
X86519544Y22419296D01*
X86519551Y22419292D01*
X86523954Y22416305D01*
X86523572Y22415743D01*
X86540031Y22403290D01*
X86543513Y22400805D01*
X86543514Y22400805D01*
X86543517Y22400802D01*
X86612485Y22367086D01*
X86618560Y22363904D01*
X86621672Y22362163D01*
X86626341Y22360037D01*
X86626324Y22360001D01*
X86631143Y22357965D01*
X86648604Y22349428D01*
X86648605Y22349428D01*
X86648607Y22349427D01*
X86716740Y22339500D01*
X86762221Y22339500D01*
X86769201Y22339137D01*
X86771057Y22339252D01*
X86771059Y22339251D01*
X86771060Y22339252D01*
X86771300Y22339266D01*
X86778915Y22339500D01*
X87071047Y22339500D01*
X87138086Y22319815D01*
X87183841Y22267011D01*
X87193785Y22197853D01*
X87164760Y22134297D01*
X87115841Y22099873D01*
X87062601Y22079249D01*
X87062595Y22079246D01*
X86873439Y21962126D01*
X86873437Y21962124D01*
X86709020Y21812239D01*
X86574943Y21634692D01*
X86574938Y21634684D01*
X86475775Y21435539D01*
X86475769Y21435524D01*
X86414885Y21221538D01*
X86414884Y21221536D01*
X86394357Y21000001D01*
X86394357Y21000000D01*
X86414884Y20778465D01*
X86414885Y20778463D01*
X86475769Y20564477D01*
X86475775Y20564462D01*
X86574938Y20365317D01*
X86574943Y20365309D01*
X86709020Y20187762D01*
X86873437Y20037877D01*
X86873439Y20037875D01*
X87067473Y19917735D01*
X87066836Y19916708D01*
X87113563Y19873393D01*
X87130989Y19805731D01*
X87109069Y19739389D01*
X87059464Y19697505D01*
X86922422Y19633601D01*
X86922420Y19633600D01*
X86728926Y19498114D01*
X86728920Y19498109D01*
X86561891Y19331080D01*
X86561886Y19331074D01*
X86426400Y19137580D01*
X86426399Y19137578D01*
X86326570Y18923493D01*
X86326567Y18923487D01*
X86269364Y18710001D01*
X86269364Y18710000D01*
X87166988Y18710000D01*
X87134075Y18652993D01*
X87100000Y18525826D01*
X87100000Y18394174D01*
X87134075Y18267007D01*
X87166988Y18210000D01*
X86269364Y18210000D01*
X86326567Y17996514D01*
X86326570Y17996508D01*
X86426399Y17782422D01*
X86561894Y17588918D01*
X86728917Y17421895D01*
X86922421Y17286400D01*
X87136507Y17186571D01*
X87136516Y17186567D01*
X87350000Y17129366D01*
X87350000Y18026988D01*
X87407007Y17994075D01*
X87534174Y17960000D01*
X87665826Y17960000D01*
X87792993Y17994075D01*
X87850000Y18026988D01*
X87850000Y17129367D01*
X88063483Y17186567D01*
X88063492Y17186571D01*
X88277578Y17286400D01*
X88471082Y17421895D01*
X88638105Y17588918D01*
X88773600Y17782422D01*
X88873429Y17996508D01*
X88873432Y17996514D01*
X88930636Y18210000D01*
X88033012Y18210000D01*
X88065925Y18267007D01*
X88100000Y18394174D01*
X88100000Y18525826D01*
X88065925Y18652993D01*
X88033012Y18710000D01*
X88930636Y18710000D01*
X88930635Y18710001D01*
X88873432Y18923487D01*
X88873429Y18923493D01*
X88773600Y19137578D01*
X88773599Y19137580D01*
X88638113Y19331074D01*
X88638108Y19331080D01*
X88471082Y19498106D01*
X88277578Y19633601D01*
X88140535Y19697505D01*
X88088096Y19743678D01*
X88068944Y19810871D01*
X88089160Y19877752D01*
X88133096Y19916816D01*
X88132527Y19917735D01*
X88296502Y20019264D01*
X88326562Y20037876D01*
X88490981Y20187764D01*
X88625058Y20365311D01*
X88724229Y20564472D01*
X88785115Y20778464D01*
X88805643Y21000000D01*
X88785115Y21221536D01*
X88724229Y21435528D01*
X88724224Y21435539D01*
X88625061Y21634684D01*
X88625056Y21634692D01*
X88490979Y21812239D01*
X88326562Y21962124D01*
X88326560Y21962126D01*
X88137404Y22079246D01*
X88137398Y22079249D01*
X88084159Y22099873D01*
X88028758Y22142446D01*
X88005167Y22208213D01*
X88020878Y22276293D01*
X88070902Y22325072D01*
X88128953Y22339500D01*
X88483261Y22339500D01*
X88507042Y22342965D01*
X88551393Y22349427D01*
X88656483Y22400802D01*
X88739198Y22483517D01*
X88790573Y22588607D01*
X88800500Y22656740D01*
X88800500Y23080019D01*
X88810038Y23127711D01*
X89453828Y24672810D01*
X89480604Y24712792D01*
X91900500Y27132686D01*
X91966392Y27246814D01*
X92000500Y27374108D01*
X92000500Y27505893D01*
X92000500Y35565892D01*
X91999854Y35568302D01*
X91966392Y35693186D01*
X91900500Y35807314D01*
X88482314Y39225500D01*
X88425250Y39258446D01*
X88368187Y39291392D01*
X88304539Y39308446D01*
X88240892Y39325500D01*
X88240891Y39325500D01*
X75881258Y39325500D01*
X75829240Y39336938D01*
X74611478Y39899701D01*
X74607586Y39901797D01*
X74607534Y39901691D01*
X74602408Y39904245D01*
X74601713Y39904514D01*
X74601368Y39904647D01*
X74594151Y39907709D01*
X74550449Y39927905D01*
X74544267Y39930691D01*
X74543864Y39930868D01*
X74543856Y39930871D01*
X74543845Y39930876D01*
X74516675Y39941500D01*
X74510726Y39942500D01*
X74486475Y39949158D01*
X74394940Y39984618D01*
X74176243Y40025500D01*
X73953757Y40025500D01*
X73827563Y40001910D01*
X73735054Y39984617D01*
X73616616Y39938734D01*
X73604611Y39934774D01*
X73579543Y39927902D01*
X73579539Y39927900D01*
X73535842Y39907707D01*
X73528644Y39904652D01*
X73527600Y39904248D01*
X73522486Y39901701D01*
X73522434Y39901805D01*
X73518543Y39899713D01*
X73040183Y39678649D01*
X72971070Y39668395D01*
X72909337Y39695492D01*
X72609218Y39942649D01*
X72605453Y39945707D01*
X72601036Y39948703D01*
X72601417Y39949266D01*
X72584982Y39961701D01*
X72581484Y39964198D01*
X72512533Y39997906D01*
X72506469Y40001081D01*
X72503323Y40002840D01*
X72503321Y40002841D01*
X72503317Y40002843D01*
X72498669Y40004960D01*
X72498684Y40004995D01*
X72493875Y40007028D01*
X72476393Y40015574D01*
X72476394Y40015574D01*
X72408261Y40025500D01*
X72408260Y40025500D01*
X72362794Y40025500D01*
X72355797Y40025864D01*
X72353669Y40025733D01*
X72346064Y40025500D01*
X70703314Y40025500D01*
X70697926Y40026041D01*
X70697918Y40025799D01*
X70685618Y40026225D01*
X70674559Y40025500D01*
X70641739Y40025500D01*
X70573607Y40015574D01*
X70555853Y40006895D01*
X70543761Y40001910D01*
X70542154Y40001182D01*
X70534721Y39996891D01*
X70527194Y39992885D01*
X70468519Y39964200D01*
X70468509Y39964193D01*
X70466968Y39962651D01*
X70444925Y39945738D01*
X70445024Y39945595D01*
X70442078Y39943553D01*
X70441310Y39942963D01*
X70440819Y39942680D01*
X70440812Y39942675D01*
X69725728Y39353781D01*
X69661464Y39326358D01*
X69646900Y39325500D01*
X68159108Y39325500D01*
X68031812Y39291392D01*
X67917686Y39225500D01*
X67917683Y39225498D01*
X67099502Y38407317D01*
X67099500Y38407314D01*
X67033608Y38293188D01*
X66999500Y38165892D01*
X66999500Y31366270D01*
X66979815Y31299231D01*
X66930352Y31255062D01*
X66576913Y31080734D01*
X66399474Y30993215D01*
X66390531Y30988646D01*
X66386759Y30986719D01*
X66373755Y30981153D01*
X66372308Y30980456D01*
X66229111Y30890479D01*
X66109523Y30770891D01*
X66109518Y30770885D01*
X66019547Y30627698D01*
X66019545Y30627695D01*
X65963685Y30468057D01*
X65944751Y30300003D01*
X65944751Y30299998D01*
X65963685Y30131944D01*
X66019545Y29972306D01*
X66019547Y29972303D01*
X66109518Y29829116D01*
X66109523Y29829110D01*
X66229109Y29709524D01*
X66229115Y29709519D01*
X66372302Y29619548D01*
X66372305Y29619546D01*
X66372309Y29619545D01*
X66372310Y29619544D01*
X66444913Y29594140D01*
X66531943Y29563686D01*
X66699997Y29544751D01*
X66700000Y29544751D01*
X66700003Y29544751D01*
X66868056Y29563686D01*
X66868059Y29563687D01*
X67027690Y29619544D01*
X67027692Y29619546D01*
X67027694Y29619546D01*
X67027697Y29619548D01*
X67170884Y29709519D01*
X67170885Y29709520D01*
X67170890Y29709523D01*
X67290477Y29829110D01*
X67380456Y29972310D01*
X67381220Y29974497D01*
X67391982Y29997426D01*
X67393205Y29999465D01*
X67393214Y29999476D01*
X67662447Y30545335D01*
X67685967Y30578155D01*
X67900500Y30792686D01*
X67966392Y30906814D01*
X68000500Y31034108D01*
X68000500Y31165893D01*
X68000500Y37841324D01*
X68020185Y37908363D01*
X68036819Y37929005D01*
X68395995Y38288181D01*
X68457318Y38321666D01*
X68483676Y38324500D01*
X69646902Y38324500D01*
X69713941Y38304815D01*
X69725730Y38296219D01*
X69883984Y38165892D01*
X70440811Y37707328D01*
X70444544Y37704296D01*
X70444551Y37704292D01*
X70448954Y37701305D01*
X70448572Y37700743D01*
X70465031Y37688290D01*
X70468513Y37685805D01*
X70468514Y37685805D01*
X70468517Y37685802D01*
X70537485Y37652086D01*
X70543560Y37648904D01*
X70546672Y37647163D01*
X70551341Y37645037D01*
X70551324Y37645001D01*
X70556143Y37642965D01*
X70573604Y37634428D01*
X70573605Y37634428D01*
X70573607Y37634427D01*
X70641740Y37624500D01*
X70687221Y37624500D01*
X70694201Y37624137D01*
X70696057Y37624252D01*
X70696059Y37624251D01*
X70696060Y37624252D01*
X70696300Y37624266D01*
X70703915Y37624500D01*
X70996047Y37624500D01*
X71063086Y37604815D01*
X71108841Y37552011D01*
X71118785Y37482853D01*
X71089760Y37419297D01*
X71040841Y37384873D01*
X70987601Y37364249D01*
X70987595Y37364246D01*
X70798439Y37247126D01*
X70798437Y37247124D01*
X70634020Y37097239D01*
X70499943Y36919692D01*
X70499938Y36919684D01*
X70400775Y36720539D01*
X70400769Y36720524D01*
X70339885Y36506538D01*
X70339884Y36506536D01*
X70319357Y36285001D01*
X70319357Y36285000D01*
X70339884Y36063465D01*
X70339885Y36063463D01*
X70400769Y35849477D01*
X70400775Y35849462D01*
X70499938Y35650317D01*
X70499943Y35650309D01*
X70634020Y35472762D01*
X70798437Y35322877D01*
X70798439Y35322875D01*
X70992473Y35202735D01*
X70991836Y35201708D01*
X71038563Y35158393D01*
X71055989Y35090731D01*
X71034069Y35024389D01*
X70984464Y34982505D01*
X70847422Y34918601D01*
X70847420Y34918600D01*
X70653926Y34783114D01*
X70653920Y34783109D01*
X70486891Y34616080D01*
X70486886Y34616074D01*
X70351400Y34422580D01*
X70351399Y34422578D01*
X70251570Y34208493D01*
X70251567Y34208487D01*
X70194364Y33995001D01*
X70194364Y33995000D01*
X71091988Y33995000D01*
X71059075Y33937993D01*
X71025000Y33810826D01*
X71025000Y33679174D01*
X71059075Y33552007D01*
X71091988Y33495000D01*
X70194364Y33495000D01*
X70251567Y33281514D01*
X70251570Y33281508D01*
X70351399Y33067422D01*
X70486894Y32873918D01*
X70653917Y32706895D01*
X70847421Y32571400D01*
X71061507Y32471571D01*
X71061516Y32471567D01*
X71275000Y32414366D01*
X71275000Y33311988D01*
X71332007Y33279075D01*
X71459174Y33245000D01*
X71590826Y33245000D01*
X71717993Y33279075D01*
X71775000Y33311988D01*
X71775000Y32414367D01*
X71988483Y32471567D01*
X71988492Y32471571D01*
X72202578Y32571400D01*
X72396082Y32706895D01*
X72563105Y32873918D01*
X72693425Y33060032D01*
X72748002Y33103656D01*
X72817501Y33110849D01*
X72879855Y33079327D01*
X72896575Y33060032D01*
X73026894Y32873918D01*
X73193917Y32706895D01*
X73387421Y32571400D01*
X73601507Y32471571D01*
X73601516Y32471567D01*
X73815000Y32414366D01*
X73815000Y33311988D01*
X73872007Y33279075D01*
X73999174Y33245000D01*
X74130826Y33245000D01*
X74257993Y33279075D01*
X74315000Y33311988D01*
X74315000Y32414367D01*
X74528483Y32471567D01*
X74528492Y32471571D01*
X74742578Y32571400D01*
X74936082Y32706895D01*
X75103105Y32873918D01*
X75238600Y33067422D01*
X75338429Y33281508D01*
X75338432Y33281514D01*
X75395636Y33495000D01*
X74498012Y33495000D01*
X74530925Y33552007D01*
X74565000Y33679174D01*
X74565000Y33810826D01*
X74530925Y33937993D01*
X74498012Y33995000D01*
X75395636Y33995000D01*
X75395635Y33995001D01*
X75338432Y34208487D01*
X75338429Y34208493D01*
X75238600Y34422578D01*
X75238599Y34422580D01*
X75103113Y34616074D01*
X75103108Y34616080D01*
X74936082Y34783106D01*
X74742578Y34918601D01*
X74605535Y34982505D01*
X74553096Y35028678D01*
X74533944Y35095871D01*
X74554160Y35162752D01*
X74598096Y35201816D01*
X74597527Y35202735D01*
X74742803Y35292686D01*
X74791562Y35322876D01*
X74955981Y35472764D01*
X75090058Y35650311D01*
X75189229Y35849472D01*
X75250115Y36063464D01*
X75270643Y36285000D01*
X75250115Y36506536D01*
X75189229Y36720528D01*
X75096744Y36906262D01*
X75090061Y36919684D01*
X75090056Y36919692D01*
X74955979Y37097239D01*
X74791562Y37247124D01*
X74791560Y37247126D01*
X74602404Y37364246D01*
X74602395Y37364250D01*
X74508956Y37400448D01*
X74408475Y37439375D01*
X74353075Y37481946D01*
X74329484Y37547712D01*
X74345195Y37615793D01*
X74395219Y37664572D01*
X74408468Y37670623D01*
X74513403Y37711276D01*
X74525387Y37715229D01*
X74550457Y37722100D01*
X74594117Y37742279D01*
X74601354Y37745349D01*
X74602401Y37745753D01*
X74602403Y37745755D01*
X74602407Y37745756D01*
X74607548Y37748316D01*
X74607601Y37748210D01*
X74611492Y37750308D01*
X75829238Y38313063D01*
X75881256Y38324500D01*
X87916324Y38324500D01*
X87983363Y38304815D01*
X88004005Y38288181D01*
X90963181Y35329005D01*
X90996666Y35267682D01*
X90999500Y35241324D01*
X90999500Y27698677D01*
X90979815Y27631638D01*
X90963181Y27610996D01*
X88772796Y25420612D01*
X88732807Y25393831D01*
X87187707Y24750038D01*
X87140015Y24740500D01*
X86778314Y24740500D01*
X86772926Y24741041D01*
X86772918Y24740799D01*
X86760618Y24741225D01*
X86749559Y24740500D01*
X86716739Y24740500D01*
X86648607Y24730574D01*
X86630853Y24721895D01*
X86618761Y24716910D01*
X86617154Y24716182D01*
X86609721Y24711891D01*
X86602194Y24707885D01*
X86543519Y24679200D01*
X86543509Y24679193D01*
X86541968Y24677651D01*
X86519925Y24660738D01*
X86520024Y24660595D01*
X86517078Y24658553D01*
X86516310Y24657963D01*
X86515819Y24657680D01*
X86515812Y24657675D01*
X85800728Y24068781D01*
X85736464Y24041358D01*
X85721900Y24040500D01*
X78975367Y24040500D01*
X78908328Y24060185D01*
X78897559Y24067950D01*
X78181322Y24645153D01*
X78180590Y24645738D01*
X78178963Y24647039D01*
X78178957Y24647043D01*
X78174584Y24649968D01*
X78175051Y24650668D01*
X78164900Y24658308D01*
X78164844Y24658229D01*
X78156480Y24664201D01*
X78084755Y24699265D01*
X78079265Y24702120D01*
X78076535Y24703628D01*
X78076531Y24703630D01*
X78076529Y24703631D01*
X78076525Y24703633D01*
X78071855Y24705729D01*
X78071907Y24705847D01*
X78067556Y24707672D01*
X78051393Y24715574D01*
X77983261Y24725500D01*
X77983260Y24725500D01*
X77938642Y24725500D01*
X77930525Y24725923D01*
X77927468Y24725734D01*
X77919854Y24725500D01*
X76278314Y24725500D01*
X76272926Y24726041D01*
X76272918Y24725799D01*
X76260618Y24726225D01*
X76249559Y24725500D01*
X76216739Y24725500D01*
X76148607Y24715574D01*
X76130853Y24706895D01*
X76118761Y24701910D01*
X76117154Y24701182D01*
X76109721Y24696891D01*
X76102194Y24692885D01*
X76043519Y24664200D01*
X76043509Y24664193D01*
X76041968Y24662651D01*
X76019925Y24645738D01*
X76020024Y24645595D01*
X76017078Y24643553D01*
X76016310Y24642963D01*
X76015819Y24642680D01*
X76015812Y24642675D01*
X75300728Y24053781D01*
X75236464Y24026358D01*
X75221900Y24025500D01*
X73759108Y24025500D01*
X73631812Y23991392D01*
X73517686Y23925500D01*
X73517683Y23925498D01*
X72199502Y22607317D01*
X72199500Y22607314D01*
X72133608Y22493188D01*
X72099500Y22365892D01*
X72099500Y11758676D01*
X72079815Y11691637D01*
X72063181Y11670995D01*
X70729005Y10336819D01*
X70667682Y10303334D01*
X70641324Y10300500D01*
X57034108Y10300500D01*
X56906814Y10266392D01*
X56906811Y10266391D01*
X56849718Y10233428D01*
X56806432Y10218235D01*
X56706251Y10202941D01*
X56706248Y10202940D01*
X56705260Y10202624D01*
X56681403Y10197521D01*
X56581946Y10186315D01*
X56422307Y10130456D01*
X56422302Y10130453D01*
X56279115Y10040482D01*
X56279109Y10040477D01*
X56159523Y9920891D01*
X56159518Y9920885D01*
X56069547Y9777698D01*
X56069545Y9777695D01*
X56013685Y9618057D01*
X55994751Y9450003D01*
X53307642Y9450003D01*
X53336313Y9531941D01*
X53336313Y9531942D01*
X53336314Y9531944D01*
X53355249Y9699998D01*
X53355249Y9700003D01*
X53336314Y9868057D01*
X53290320Y9999500D01*
X53280456Y10027690D01*
X53280455Y10027691D01*
X53280454Y10027695D01*
X53280452Y10027698D01*
X53190481Y10170885D01*
X53190476Y10170891D01*
X53070890Y10290477D01*
X53070884Y10290482D01*
X52927693Y10380456D01*
X52898538Y10390657D01*
X52877507Y10400303D01*
X52866374Y10406729D01*
X52866372Y10406730D01*
X52866370Y10406731D01*
X52803446Y10430283D01*
X52803383Y10430308D01*
X52298084Y10619429D01*
X52253869Y10647880D01*
X52161819Y10739930D01*
X52128334Y10801253D01*
X52125500Y10827611D01*
X52125500Y12084997D01*
X52136647Y12136380D01*
X52214906Y12308260D01*
X52388086Y12688619D01*
X52390367Y12693735D01*
X52390518Y12694081D01*
X52390520Y12694088D01*
X52390526Y12694100D01*
X52396043Y12708233D01*
X52400661Y12720057D01*
X52402189Y12729084D01*
X52407407Y12749334D01*
X52436314Y12831945D01*
X52455249Y12999998D01*
X52455249Y13000003D01*
X52436314Y13168057D01*
X52380454Y13327695D01*
X52380452Y13327698D01*
X52290481Y13470885D01*
X52290476Y13470891D01*
X52170890Y13590477D01*
X52170884Y13590482D01*
X52027697Y13680453D01*
X52027694Y13680455D01*
X51868056Y13736315D01*
X51700003Y13755249D01*
X51699997Y13755249D01*
X51531943Y13736315D01*
X51372305Y13680455D01*
X51372302Y13680453D01*
X51229115Y13590482D01*
X51229109Y13590477D01*
X51109523Y13470891D01*
X51109518Y13470885D01*
X51019547Y13327698D01*
X51019545Y13327695D01*
X50963685Y13168057D01*
X50944751Y13000003D01*
X49525500Y13000003D01*
X49525500Y13272390D01*
X49545185Y13339429D01*
X49561819Y13360071D01*
X50839929Y14638181D01*
X50901252Y14671666D01*
X50927610Y14674500D01*
X52484997Y14674500D01*
X52536380Y14663353D01*
X53088675Y14411887D01*
X53093712Y14409642D01*
X53094069Y14409486D01*
X53101198Y14406703D01*
X53120056Y14399339D01*
X53129072Y14397813D01*
X53149329Y14392595D01*
X53231941Y14363687D01*
X53231944Y14363686D01*
X53399997Y14344751D01*
X53400000Y14344751D01*
X53400003Y14344751D01*
X53568056Y14363686D01*
X53568059Y14363687D01*
X53727690Y14419544D01*
X53727692Y14419546D01*
X53727694Y14419546D01*
X53727697Y14419548D01*
X53870884Y14509519D01*
X53870885Y14509520D01*
X53870890Y14509523D01*
X53990477Y14629110D01*
X53996177Y14638181D01*
X54080452Y14772303D01*
X54080454Y14772306D01*
X54080454Y14772308D01*
X54080456Y14772310D01*
X54136313Y14931941D01*
X54136313Y14931942D01*
X54136314Y14931944D01*
X54155249Y15099998D01*
X54155249Y15100003D01*
X54136314Y15268057D01*
X54080454Y15427695D01*
X54080452Y15427698D01*
X53990481Y15570885D01*
X53990476Y15570891D01*
X53870890Y15690477D01*
X53870884Y15690482D01*
X53727697Y15780453D01*
X53727694Y15780455D01*
X53568056Y15836315D01*
X53400003Y15855249D01*
X53399997Y15855249D01*
X53231941Y15836314D01*
X53116510Y15795924D01*
X53107668Y15793196D01*
X53088622Y15788090D01*
X53088619Y15788089D01*
X52536377Y15536647D01*
X52484994Y15525500D01*
X50643982Y15525500D01*
X50535763Y15496503D01*
X50535760Y15496502D01*
X50438740Y15440487D01*
X50438734Y15440483D01*
X48759517Y13761266D01*
X48759513Y13761260D01*
X48703498Y13664240D01*
X48703497Y13664237D01*
X48674500Y13556018D01*
X48674500Y11511960D01*
X48664051Y11462140D01*
X48455970Y10987880D01*
X48455009Y10985669D01*
X48454844Y10985288D01*
X48445404Y10960947D01*
X48445403Y10960943D01*
X48443890Y10952016D01*
X48437577Y10928774D01*
X48414861Y10868878D01*
X48414859Y10868870D01*
X48394355Y10700000D01*
X30000500Y10700000D01*
X30000500Y11047391D01*
X30020185Y11114430D01*
X30036819Y11135072D01*
X31139928Y12238181D01*
X31201251Y12271666D01*
X31227609Y12274500D01*
X46756016Y12274500D01*
X46756018Y12274500D01*
X46864237Y12303497D01*
X46961263Y12359515D01*
X51239929Y16638181D01*
X51301252Y16671666D01*
X51327610Y16674500D01*
X68456016Y16674500D01*
X68456018Y16674500D01*
X68564237Y16703497D01*
X68661263Y16759515D01*
X69851053Y17949308D01*
X69851058Y17949311D01*
X69861261Y17959515D01*
X69861263Y17959515D01*
X69940485Y18038737D01*
X69996503Y18135763D01*
X70023618Y18236958D01*
X70023619Y18236960D01*
X70025500Y18243980D01*
X70025500Y18388041D01*
X70035948Y18437861D01*
X70067961Y18510826D01*
X70244115Y18912320D01*
X70245066Y18914507D01*
X70245150Y18914702D01*
X70254594Y18939052D01*
X70256105Y18947971D01*
X70262421Y18971222D01*
X70285139Y19031123D01*
X70285139Y19031125D01*
X70285139Y19031126D01*
X70285140Y19031128D01*
X70305645Y19200000D01*
X70285140Y19368872D01*
X70224818Y19527930D01*
X70202826Y19559790D01*
X70165566Y19613771D01*
X70128183Y19667929D01*
X70000852Y19780734D01*
X70000849Y19780737D01*
X69850226Y19859790D01*
X69685056Y19900500D01*
X69514944Y19900500D01*
X69349773Y19859790D01*
X69199150Y19780737D01*
X69071816Y19667928D01*
X68975182Y19527932D01*
X68914860Y19368875D01*
X68914859Y19368870D01*
X68894355Y19200000D01*
X68914859Y19031131D01*
X68914859Y19031130D01*
X68914860Y19031128D01*
X68941870Y18959905D01*
X68945251Y18950992D01*
X68949510Y18937476D01*
X68955882Y18912323D01*
X68955885Y18912316D01*
X69005264Y18799770D01*
X69121489Y18534868D01*
X69130399Y18465570D01*
X69100427Y18402455D01*
X69095619Y18397368D01*
X68260071Y17561819D01*
X68198748Y17528334D01*
X68172390Y17525500D01*
X51043982Y17525500D01*
X50935763Y17496503D01*
X50935760Y17496502D01*
X50838740Y17440487D01*
X50838734Y17440483D01*
X49398648Y16000397D01*
X49337325Y15966912D01*
X49267633Y15971896D01*
X49211700Y16013768D01*
X49187283Y16079232D01*
X49195140Y16127714D01*
X49194399Y16127912D01*
X49196357Y16135223D01*
X49196409Y16135538D01*
X49196498Y16135756D01*
X49196503Y16135763D01*
X49225500Y16243982D01*
X49225500Y16356019D01*
X49225500Y21372391D01*
X49245185Y21439430D01*
X49261819Y21460072D01*
X49839928Y22038181D01*
X49901251Y22071666D01*
X49927609Y22074500D01*
X53081289Y22074500D01*
X53148328Y22054815D01*
X53194083Y22002011D01*
X53204027Y21932853D01*
X53175002Y21869297D01*
X53143289Y21843113D01*
X53138740Y21840487D01*
X53138734Y21840483D01*
X53095491Y21797239D01*
X53059515Y21761263D01*
X53059513Y21761261D01*
X52838180Y21539929D01*
X52773266Y21475015D01*
X52730650Y21447176D01*
X52258688Y21263065D01*
X52256754Y21262452D01*
X52256759Y21262440D01*
X52246712Y21258628D01*
X52245468Y21258052D01*
X52245496Y21257990D01*
X52221682Y21247403D01*
X52215728Y21243176D01*
X52201587Y21234501D01*
X52099151Y21180736D01*
X52099148Y21180734D01*
X51971816Y21067928D01*
X51875182Y20927932D01*
X51814860Y20768875D01*
X51814859Y20768870D01*
X51794355Y20600000D01*
X51814859Y20431131D01*
X51814860Y20431126D01*
X51875182Y20272069D01*
X51924929Y20200000D01*
X51971817Y20132071D01*
X52048383Y20064240D01*
X52099150Y20019264D01*
X52249773Y19940211D01*
X52249775Y19940210D01*
X52414944Y19899500D01*
X52585056Y19899500D01*
X52750225Y19940210D01*
X52829692Y19981919D01*
X52900849Y20019264D01*
X52900850Y20019266D01*
X52900852Y20019266D01*
X53028183Y20132071D01*
X53124818Y20272070D01*
X53140504Y20313435D01*
X53149914Y20332918D01*
X53158879Y20347964D01*
X53347175Y20830657D01*
X53375008Y20873262D01*
X53539929Y21038184D01*
X53601252Y21071666D01*
X53627609Y21074500D01*
X59656016Y21074500D01*
X59656018Y21074500D01*
X59764237Y21103497D01*
X59800551Y21124464D01*
X59817459Y21132585D01*
X60341258Y21336918D01*
X60343200Y21337532D01*
X60343196Y21337543D01*
X60351928Y21340856D01*
X60353477Y21341605D01*
X60355310Y21342417D01*
X60355354Y21342434D01*
X60378312Y21352596D01*
X60383132Y21356018D01*
X60384249Y21356811D01*
X60398408Y21365500D01*
X60500852Y21419266D01*
X60628183Y21532071D01*
X60724818Y21672070D01*
X60785140Y21831128D01*
X60805645Y22000000D01*
X60785140Y22168872D01*
X60724818Y22327930D01*
X60720333Y22334427D01*
X60674516Y22400804D01*
X60628183Y22467929D01*
X60500852Y22580734D01*
X60500849Y22580737D01*
X60350226Y22659790D01*
X60185056Y22700500D01*
X60014944Y22700500D01*
X59849773Y22659790D01*
X59699150Y22580737D01*
X59571816Y22467928D01*
X59475181Y22327930D01*
X59475179Y22327926D01*
X59459500Y22286584D01*
X59450093Y22267103D01*
X59441118Y22252037D01*
X59344531Y22004436D01*
X59301829Y21949134D01*
X59236007Y21925698D01*
X59229010Y21925500D01*
X58818711Y21925500D01*
X58751672Y21945185D01*
X58705917Y21997989D01*
X58695973Y22067147D01*
X58724998Y22130703D01*
X58756711Y22156887D01*
X58761263Y22159515D01*
X59839928Y23238182D01*
X59901251Y23271666D01*
X59927609Y23274500D01*
X66556016Y23274500D01*
X66556018Y23274500D01*
X66664237Y23303497D01*
X66761263Y23359515D01*
X68345484Y24943736D01*
X68357321Y24964237D01*
X68401503Y25040763D01*
X68430500Y25148982D01*
X68430500Y26689997D01*
X68441647Y26741380D01*
X68693107Y27293665D01*
X68695341Y27298677D01*
X68695367Y27298735D01*
X68695518Y27299081D01*
X68695520Y27299088D01*
X68695526Y27299100D01*
X68701043Y27313233D01*
X68705661Y27325057D01*
X68707189Y27334084D01*
X68712407Y27354334D01*
X68741313Y27436941D01*
X68741313Y27436943D01*
X68741314Y27436945D01*
X68760249Y27604998D01*
X68760249Y27605003D01*
X68741314Y27773057D01*
X68685454Y27932695D01*
X68685452Y27932698D01*
X68595481Y28075885D01*
X68595476Y28075891D01*
X68475890Y28195477D01*
X68475884Y28195482D01*
X68332697Y28285453D01*
X68332694Y28285455D01*
X68173056Y28341315D01*
X68005003Y28360249D01*
X68004997Y28360249D01*
X67836943Y28341315D01*
X67677305Y28285455D01*
X67677302Y28285453D01*
X67534115Y28195482D01*
X67534109Y28195477D01*
X67414523Y28075891D01*
X67414518Y28075885D01*
X67324547Y27932698D01*
X67324545Y27932695D01*
X67268685Y27773057D01*
X67249751Y27605003D01*
X67249751Y27604998D01*
X67268686Y27436944D01*
X67309080Y27321501D01*
X67311806Y27312666D01*
X67316913Y27293619D01*
X67316914Y27293615D01*
X67390186Y27132687D01*
X67568352Y26741380D01*
X67568353Y26741379D01*
X67579500Y26689996D01*
X67579500Y25432610D01*
X67559815Y25365571D01*
X67543181Y25344929D01*
X66360071Y24161819D01*
X66298748Y24128334D01*
X66272390Y24125500D01*
X59756018Y24125500D01*
X59643981Y24125500D01*
X59535763Y24096503D01*
X59535761Y24096502D01*
X59535760Y24096502D01*
X59438740Y24040487D01*
X59438734Y24040483D01*
X58360071Y22961819D01*
X58298748Y22928334D01*
X58272390Y22925500D01*
X58118711Y22925500D01*
X58051672Y22945185D01*
X58005917Y22997989D01*
X57995973Y23067147D01*
X58024998Y23130703D01*
X58056711Y23156887D01*
X58061263Y23159515D01*
X59239929Y24338181D01*
X59301252Y24371666D01*
X59327610Y24374500D01*
X63356016Y24374500D01*
X63356018Y24374500D01*
X63464237Y24403497D01*
X63561263Y24459515D01*
X63561264Y24459517D01*
X63565082Y24462446D01*
X63597107Y24480208D01*
X64166369Y24693269D01*
X64171832Y24695365D01*
X64172183Y24695503D01*
X64197509Y24706616D01*
X64197515Y24706621D01*
X64198734Y24707311D01*
X64218939Y24716482D01*
X64224483Y24718422D01*
X64227690Y24719544D01*
X64370890Y24809523D01*
X64490477Y24929110D01*
X64490481Y24929116D01*
X64580452Y25072303D01*
X64580454Y25072306D01*
X64580454Y25072308D01*
X64580456Y25072310D01*
X64636313Y25231941D01*
X64636313Y25231942D01*
X64636314Y25231944D01*
X64655249Y25399998D01*
X64655249Y25400003D01*
X64636314Y25568057D01*
X64580454Y25727695D01*
X64580452Y25727698D01*
X64490481Y25870885D01*
X64490476Y25870891D01*
X64370890Y25990477D01*
X64370884Y25990482D01*
X64227697Y26080453D01*
X64227694Y26080455D01*
X64068056Y26136315D01*
X63900003Y26155249D01*
X63899997Y26155249D01*
X63731943Y26136315D01*
X63572305Y26080455D01*
X63572302Y26080453D01*
X63429115Y25990482D01*
X63429109Y25990477D01*
X63309523Y25870891D01*
X63219544Y25727690D01*
X63219540Y25727681D01*
X63209341Y25698536D01*
X63199699Y25677513D01*
X63193270Y25666374D01*
X63193262Y25666358D01*
X63058403Y25306035D01*
X63016469Y25250149D01*
X62950977Y25225806D01*
X62942271Y25225500D01*
X59043982Y25225500D01*
X58935763Y25196503D01*
X58935760Y25196502D01*
X58838740Y25140487D01*
X58838734Y25140483D01*
X57660071Y23961819D01*
X57598748Y23928334D01*
X57572390Y23925500D01*
X48643979Y23925500D01*
X48597606Y23913075D01*
X48597607Y23913074D01*
X48535761Y23896503D01*
X48535760Y23896502D01*
X48438740Y23840487D01*
X48438734Y23840483D01*
X48359513Y23761261D01*
X47537181Y22938930D01*
X47475858Y22905445D01*
X47406166Y22910429D01*
X47350233Y22952301D01*
X47325816Y23017765D01*
X47325500Y23026611D01*
X47325500Y23972390D01*
X47345185Y24039429D01*
X47361819Y24060071D01*
X48139929Y24838181D01*
X48201252Y24871666D01*
X48227610Y24874500D01*
X53484997Y24874500D01*
X53536380Y24863353D01*
X54088675Y24611887D01*
X54093712Y24609642D01*
X54094069Y24609486D01*
X54101198Y24606703D01*
X54120056Y24599339D01*
X54129072Y24597813D01*
X54149329Y24592595D01*
X54231941Y24563687D01*
X54231944Y24563686D01*
X54399997Y24544751D01*
X54400000Y24544751D01*
X54400003Y24544751D01*
X54568056Y24563686D01*
X54568059Y24563687D01*
X54727690Y24619544D01*
X54727692Y24619546D01*
X54727694Y24619546D01*
X54727697Y24619548D01*
X54870884Y24709519D01*
X54870885Y24709520D01*
X54870890Y24709523D01*
X54990477Y24829110D01*
X54996177Y24838181D01*
X55080452Y24972303D01*
X55080454Y24972306D01*
X55080454Y24972308D01*
X55080456Y24972310D01*
X55136313Y25131941D01*
X55136313Y25131942D01*
X55136314Y25131944D01*
X55155249Y25299998D01*
X55155249Y25300003D01*
X55136314Y25468057D01*
X55080454Y25627695D01*
X55080452Y25627698D01*
X54990481Y25770885D01*
X54990476Y25770891D01*
X54870890Y25890477D01*
X54870884Y25890482D01*
X54727697Y25980453D01*
X54727694Y25980455D01*
X54568056Y26036315D01*
X54400003Y26055249D01*
X54399997Y26055249D01*
X54231941Y26036314D01*
X54116510Y25995924D01*
X54107668Y25993196D01*
X54088622Y25988090D01*
X54088619Y25988089D01*
X53536377Y25736647D01*
X53484994Y25725500D01*
X47943982Y25725500D01*
X47835763Y25696503D01*
X47835760Y25696502D01*
X47738740Y25640487D01*
X47738734Y25640483D01*
X46559517Y24461266D01*
X46559513Y24461260D01*
X46503498Y24364240D01*
X46503497Y24364237D01*
X46474500Y24256018D01*
X46474500Y20786229D01*
X46454815Y20719190D01*
X46402011Y20673435D01*
X46332853Y20663491D01*
X46269297Y20692516D01*
X46262819Y20698548D01*
X46170890Y20790477D01*
X46170884Y20790482D01*
X46027693Y20880456D01*
X45998538Y20890657D01*
X45977507Y20900303D01*
X45966374Y20906729D01*
X45966372Y20906730D01*
X45966370Y20906731D01*
X45903446Y20930283D01*
X45903383Y20930308D01*
X45398083Y21119429D01*
X45353868Y21147880D01*
X45061819Y21439929D01*
X45028334Y21501252D01*
X45025500Y21527610D01*
X45025500Y24156017D01*
X45025500Y24156018D01*
X45013547Y24200626D01*
X44996503Y24264237D01*
X44988151Y24278703D01*
X44940485Y24361263D01*
X44861263Y24440485D01*
X44861262Y24440486D01*
X44856932Y24444816D01*
X44856921Y24444826D01*
X43961265Y25340483D01*
X43961264Y25340484D01*
X43961263Y25340485D01*
X43864237Y25396503D01*
X43756018Y25425500D01*
X43756017Y25425500D01*
X41127610Y25425500D01*
X41060571Y25445185D01*
X41039929Y25461819D01*
X39661819Y26839929D01*
X39628334Y26901252D01*
X39625500Y26927610D01*
X39625500Y30500000D01*
X56294355Y30500000D01*
X56314859Y30331131D01*
X56314860Y30331126D01*
X56375182Y30172069D01*
X56402879Y30131944D01*
X56471817Y30032071D01*
X56577505Y29938440D01*
X56599150Y29919264D01*
X56749773Y29840211D01*
X56749775Y29840210D01*
X56914944Y29799500D01*
X57085056Y29799500D01*
X57250225Y29840210D01*
X57329692Y29881919D01*
X57400849Y29919264D01*
X57400850Y29919266D01*
X57400852Y29919266D01*
X57528183Y30032071D01*
X57624818Y30172070D01*
X57685140Y30331128D01*
X57705645Y30500000D01*
X57685140Y30668872D01*
X57624818Y30827930D01*
X57528183Y30967929D01*
X57410369Y31072303D01*
X57400849Y31080737D01*
X57250226Y31159790D01*
X57085056Y31200500D01*
X56914944Y31200500D01*
X56749773Y31159790D01*
X56599150Y31080737D01*
X56471816Y30967928D01*
X56375182Y30827932D01*
X56314860Y30668875D01*
X56314859Y30668870D01*
X56294355Y30500000D01*
X39625500Y30500000D01*
X39625500Y31400003D01*
X59444751Y31400003D01*
X59444751Y31399998D01*
X59463685Y31231944D01*
X59519545Y31072306D01*
X59519547Y31072303D01*
X59609518Y30929116D01*
X59609523Y30929110D01*
X59729109Y30809524D01*
X59729115Y30809519D01*
X59872302Y30719548D01*
X59872305Y30719546D01*
X59872309Y30719545D01*
X59872310Y30719544D01*
X59944913Y30694140D01*
X60031943Y30663686D01*
X60199997Y30644751D01*
X60200000Y30644751D01*
X60200003Y30644751D01*
X60368056Y30663686D01*
X60382877Y30668872D01*
X60527690Y30719544D01*
X60527692Y30719546D01*
X60527694Y30719546D01*
X60527697Y30719548D01*
X60670884Y30809519D01*
X60670885Y30809520D01*
X60670890Y30809523D01*
X60790477Y30929110D01*
X60825781Y30985296D01*
X60880452Y31072303D01*
X60880454Y31072306D01*
X60880454Y31072308D01*
X60880456Y31072310D01*
X60936313Y31231941D01*
X60936313Y31231942D01*
X60936314Y31231944D01*
X60955249Y31399998D01*
X60955249Y31400003D01*
X60936314Y31568054D01*
X60936313Y31568056D01*
X60936313Y31568059D01*
X60903941Y31660573D01*
X60895915Y31683511D01*
X60893186Y31692357D01*
X60888086Y31711382D01*
X60636647Y32263622D01*
X60625500Y32315005D01*
X60625500Y32772390D01*
X60645185Y32839429D01*
X60661819Y32860071D01*
X60939929Y33138181D01*
X61001252Y33171666D01*
X61027610Y33174500D01*
X62384997Y33174500D01*
X62436380Y33163353D01*
X62988675Y32911887D01*
X62993712Y32909642D01*
X62994069Y32909486D01*
X63001198Y32906703D01*
X63020056Y32899339D01*
X63029072Y32897813D01*
X63049329Y32892595D01*
X63102703Y32873918D01*
X63131944Y32863686D01*
X63299997Y32844751D01*
X63300000Y32844751D01*
X63300003Y32844751D01*
X63468056Y32863686D01*
X63468059Y32863687D01*
X63627690Y32919544D01*
X63627692Y32919546D01*
X63627694Y32919546D01*
X63627697Y32919548D01*
X63770884Y33009519D01*
X63770885Y33009520D01*
X63770890Y33009523D01*
X63890477Y33129110D01*
X63896177Y33138181D01*
X63980452Y33272303D01*
X63980454Y33272306D01*
X63980454Y33272308D01*
X63980456Y33272310D01*
X64036313Y33431941D01*
X64036313Y33431942D01*
X64036314Y33431944D01*
X64055249Y33599998D01*
X64055249Y33600003D01*
X64036314Y33768057D01*
X63980454Y33927695D01*
X63980452Y33927698D01*
X63890481Y34070885D01*
X63890476Y34070891D01*
X63770890Y34190477D01*
X63770884Y34190482D01*
X63627697Y34280453D01*
X63627694Y34280455D01*
X63468056Y34336315D01*
X63300003Y34355249D01*
X63299997Y34355249D01*
X63131941Y34336314D01*
X63016510Y34295924D01*
X63007668Y34293196D01*
X62988622Y34288090D01*
X62988619Y34288089D01*
X62436377Y34036647D01*
X62384994Y34025500D01*
X60856018Y34025500D01*
X60743981Y34025500D01*
X60635763Y33996503D01*
X60635761Y33996502D01*
X60635760Y33996502D01*
X60538740Y33940487D01*
X60538734Y33940483D01*
X59859517Y33261266D01*
X59859513Y33261260D01*
X59803498Y33164240D01*
X59803497Y33164237D01*
X59774500Y33056018D01*
X59774500Y32315006D01*
X59763353Y32263623D01*
X59511885Y31711325D01*
X59509640Y31706288D01*
X59509485Y31705933D01*
X59499337Y31679943D01*
X59497807Y31670909D01*
X59492591Y31650668D01*
X59463686Y31568059D01*
X59444751Y31400003D01*
X39625500Y31400003D01*
X39625500Y34372390D01*
X39645185Y34439429D01*
X39661819Y34460071D01*
X41439929Y36238181D01*
X41501252Y36271666D01*
X41527610Y36274500D01*
X43764145Y36274500D01*
X43764145Y36271964D01*
X43820625Y36263171D01*
X43872894Y36216805D01*
X43891798Y36149541D01*
X43871335Y36082735D01*
X43855488Y36063302D01*
X43692686Y35900500D01*
X43599502Y35807317D01*
X43599500Y35807314D01*
X43533608Y35693188D01*
X43499500Y35565892D01*
X43499500Y34158676D01*
X43479815Y34091637D01*
X43463185Y34071000D01*
X43417686Y34025500D01*
X43378165Y33985979D01*
X43345336Y33962453D01*
X42827051Y33706817D01*
X42799474Y33693215D01*
X42790531Y33688646D01*
X42786759Y33686719D01*
X42773755Y33681153D01*
X42772308Y33680456D01*
X42629111Y33590479D01*
X42509523Y33470891D01*
X42509518Y33470885D01*
X42419547Y33327698D01*
X42419545Y33327695D01*
X42363685Y33168057D01*
X42344751Y33000003D01*
X42344751Y32999998D01*
X42363685Y32831944D01*
X42419545Y32672306D01*
X42419547Y32672303D01*
X42509518Y32529116D01*
X42509523Y32529110D01*
X42629109Y32409524D01*
X42629115Y32409519D01*
X42772302Y32319548D01*
X42772305Y32319546D01*
X42772309Y32319545D01*
X42772310Y32319544D01*
X42785282Y32315005D01*
X42931943Y32263686D01*
X43099997Y32244751D01*
X43100000Y32244751D01*
X43100003Y32244751D01*
X43268056Y32263686D01*
X43268059Y32263687D01*
X43427690Y32319544D01*
X43427692Y32319546D01*
X43427694Y32319546D01*
X43427697Y32319548D01*
X43570884Y32409519D01*
X43570885Y32409520D01*
X43570890Y32409523D01*
X43690477Y32529110D01*
X43780456Y32672310D01*
X43781220Y32674497D01*
X43791982Y32697426D01*
X43793205Y32699465D01*
X43793214Y32699476D01*
X44062448Y33245337D01*
X44085971Y33278160D01*
X44297104Y33489292D01*
X44297109Y33489296D01*
X44307312Y33499500D01*
X44307314Y33499500D01*
X44400500Y33592686D01*
X44466392Y33706814D01*
X44466393Y33706817D01*
X44474296Y33736311D01*
X44474296Y33736312D01*
X44482802Y33768059D01*
X44500500Y33834107D01*
X44500500Y33965892D01*
X44500500Y35241324D01*
X44520185Y35308363D01*
X44536819Y35329005D01*
X44870995Y35663181D01*
X44932318Y35696666D01*
X44958676Y35699500D01*
X56265890Y35699500D01*
X56265892Y35699500D01*
X56393186Y35733608D01*
X56507314Y35799500D01*
X57900500Y37192686D01*
X57966392Y37306814D01*
X58000500Y37434108D01*
X58000500Y37565893D01*
X58000500Y39206118D01*
X58007078Y39245968D01*
X58182526Y39762940D01*
X58202680Y39822327D01*
X58205748Y39831801D01*
X58206863Y39840089D01*
X58212710Y39864489D01*
X58236313Y39931941D01*
X58236633Y39934774D01*
X58255249Y40099998D01*
X58255249Y40100003D01*
X58236314Y40268057D01*
X58201786Y40366731D01*
X58180456Y40427690D01*
X58180455Y40427691D01*
X58180454Y40427695D01*
X58180452Y40427698D01*
X58090481Y40570885D01*
X58090476Y40570891D01*
X57970890Y40690477D01*
X57970884Y40690482D01*
X57827697Y40780453D01*
X57827694Y40780455D01*
X57668056Y40836315D01*
X57500003Y40855249D01*
X57499997Y40855249D01*
X57331943Y40836315D01*
X57172305Y40780455D01*
X57172302Y40780453D01*
X57029115Y40690482D01*
X57029109Y40690477D01*
X56909523Y40570891D01*
X56909518Y40570885D01*
X56819547Y40427698D01*
X56819545Y40427695D01*
X56763685Y40268057D01*
X56744751Y40100003D01*
X56744751Y40099998D01*
X56763686Y39931942D01*
X56789600Y39857882D01*
X56794937Y39836913D01*
X56797318Y39822328D01*
X56956333Y39353781D01*
X56984063Y39272070D01*
X56992922Y39245968D01*
X56999500Y39206118D01*
X56999500Y37758676D01*
X56979815Y37691637D01*
X56963181Y37670995D01*
X56029005Y36736819D01*
X55967682Y36703334D01*
X55941324Y36700500D01*
X44634105Y36700500D01*
X44627776Y36698804D01*
X44557927Y36700471D01*
X44500066Y36739637D01*
X44472566Y36803867D01*
X44484157Y36872769D01*
X44508006Y36906259D01*
X46040485Y38438737D01*
X46096503Y38535763D01*
X46125500Y38643981D01*
X46125500Y38756018D01*
X46125500Y41472390D01*
X46145185Y41539429D01*
X46161819Y41560071D01*
X46939929Y42338181D01*
X47001252Y42371666D01*
X47027610Y42374500D01*
X54388043Y42374500D01*
X54437863Y42364052D01*
X54912318Y42155885D01*
X54914506Y42154934D01*
X54914701Y42154850D01*
X54935651Y42146725D01*
X54948434Y42140914D01*
X54949775Y42140210D01*
X54949776Y42140210D01*
X54949778Y42140209D01*
X55114944Y42099500D01*
X55285056Y42099500D01*
X55450225Y42140210D01*
X55592787Y42215033D01*
X55600849Y42219264D01*
X55600850Y42219266D01*
X55600852Y42219266D01*
X55728183Y42332071D01*
X55824818Y42472070D01*
X55885140Y42631128D01*
X55905645Y42800000D01*
X55885140Y42968872D01*
X55824818Y43127930D01*
X55816153Y43140483D01*
X55767412Y43211096D01*
X55728183Y43267929D01*
X55600852Y43380734D01*
X55600849Y43380737D01*
X55450226Y43459790D01*
X55285056Y43500500D01*
X55114944Y43500500D01*
X54949775Y43459791D01*
X54939962Y43454640D01*
X54917135Y43445899D01*
X54917175Y43445784D01*
X54913898Y43444659D01*
X54912811Y43444242D01*
X54912334Y43444122D01*
X54912312Y43444114D01*
X54437861Y43235949D01*
X54388041Y43225500D01*
X46743982Y43225500D01*
X46635763Y43196503D01*
X46635760Y43196502D01*
X46538740Y43140487D01*
X46538734Y43140483D01*
X45359517Y41961266D01*
X45359513Y41961260D01*
X45303498Y41864240D01*
X45303497Y41864237D01*
X45274500Y41756018D01*
X45274500Y38927610D01*
X45254815Y38860571D01*
X45238181Y38839929D01*
X43560071Y37161819D01*
X43498748Y37128334D01*
X43472390Y37125500D01*
X41243981Y37125500D01*
X41146950Y37099502D01*
X41146951Y37099501D01*
X41135764Y37096504D01*
X41135760Y37096502D01*
X41038740Y37040487D01*
X41038734Y37040483D01*
X38859517Y34861266D01*
X38859513Y34861260D01*
X38803498Y34764240D01*
X38803497Y34764237D01*
X38774500Y34656018D01*
X38774500Y26756018D01*
X38774500Y26643982D01*
X38803497Y26535763D01*
X38859515Y26438737D01*
X38859517Y26438735D01*
X39661071Y25637181D01*
X39694556Y25575858D01*
X39689572Y25506166D01*
X39647700Y25450233D01*
X39582236Y25425816D01*
X39573390Y25425500D01*
X31943982Y25425500D01*
X31835763Y25396503D01*
X31835760Y25396502D01*
X31738740Y25340487D01*
X31738734Y25340483D01*
X29546131Y23147881D01*
X29501916Y23119430D01*
X28933661Y22906744D01*
X28927823Y22904502D01*
X28927564Y22904400D01*
X28902493Y22893388D01*
X28901257Y22892686D01*
X28881071Y22883522D01*
X28872309Y22880456D01*
X28729109Y22790477D01*
X28609523Y22670891D01*
X28609518Y22670885D01*
X28519547Y22527698D01*
X28519545Y22527695D01*
X28463685Y22368057D01*
X28444751Y22200003D01*
X28444751Y22199998D01*
X28463685Y22031944D01*
X28519545Y21872306D01*
X28519547Y21872303D01*
X28609518Y21729116D01*
X28609523Y21729110D01*
X28729109Y21609524D01*
X28729115Y21609519D01*
X28872302Y21519548D01*
X28872305Y21519546D01*
X28872309Y21519545D01*
X28872310Y21519544D01*
X28924586Y21501252D01*
X29031943Y21463686D01*
X29199997Y21444751D01*
X29200000Y21444751D01*
X29200003Y21444751D01*
X29368056Y21463686D01*
X29368059Y21463687D01*
X29527690Y21519544D01*
X29527692Y21519546D01*
X29527694Y21519546D01*
X29527697Y21519548D01*
X29670884Y21609519D01*
X29670885Y21609520D01*
X29670890Y21609523D01*
X29790477Y21729110D01*
X29880456Y21872310D01*
X29890658Y21901468D01*
X29900307Y21922503D01*
X29906731Y21933631D01*
X30119428Y22501921D01*
X30147876Y22546130D01*
X32139929Y24538181D01*
X32201252Y24571666D01*
X32227610Y24574500D01*
X40843982Y24574500D01*
X43472390Y24574500D01*
X43539429Y24554815D01*
X43560071Y24538181D01*
X44138181Y23960072D01*
X44171666Y23898749D01*
X44174500Y23872391D01*
X44174500Y21356018D01*
X44174500Y21243982D01*
X44202233Y21140483D01*
X44203497Y21135764D01*
X44203498Y21135761D01*
X44210027Y21124453D01*
X44259515Y21038737D01*
X44259517Y21038735D01*
X44752120Y20546132D01*
X44780570Y20501918D01*
X44806079Y20433765D01*
X44806079Y20433764D01*
X44831700Y20365309D01*
X44993263Y19933642D01*
X44995376Y19928136D01*
X44995503Y19927813D01*
X45006614Y19902491D01*
X45007317Y19901251D01*
X45016478Y19881069D01*
X45019541Y19872315D01*
X45019547Y19872303D01*
X45109518Y19729116D01*
X45109523Y19729110D01*
X45229109Y19609524D01*
X45229115Y19609519D01*
X45372302Y19519548D01*
X45372305Y19519546D01*
X45372309Y19519545D01*
X45372310Y19519544D01*
X45433554Y19498114D01*
X45531943Y19463686D01*
X45699997Y19444751D01*
X45700000Y19444751D01*
X45700003Y19444751D01*
X45868056Y19463686D01*
X45868059Y19463687D01*
X46027690Y19519544D01*
X46027692Y19519546D01*
X46027694Y19519546D01*
X46027697Y19519548D01*
X46170884Y19609519D01*
X46170885Y19609520D01*
X46170890Y19609523D01*
X46262819Y19701452D01*
X46324142Y19734937D01*
X46393834Y19729953D01*
X46449767Y19688081D01*
X46474184Y19622617D01*
X46474500Y19613771D01*
X46474500Y17527610D01*
X46454815Y17460571D01*
X46438181Y17439929D01*
X44875071Y15876819D01*
X44813748Y15843334D01*
X44787390Y15840500D01*
X23458982Y15840500D01*
X23350763Y15811503D01*
X23350760Y15811502D01*
X23253740Y15755487D01*
X23253734Y15755483D01*
X21659517Y14161266D01*
X21659513Y14161260D01*
X21603498Y14064240D01*
X21603497Y14064237D01*
X21574500Y13956018D01*
X21574500Y9423845D01*
X21559012Y9363837D01*
X21072035Y8483261D01*
X20951487Y8265280D01*
X20941932Y8250567D01*
X20929943Y8234692D01*
X20929936Y8234680D01*
X20889288Y8153050D01*
X20886804Y8148320D01*
X20864927Y8108758D01*
X20855775Y8091053D01*
X20855210Y8089883D01*
X20855204Y8089868D01*
X20844396Y8063604D01*
X20840728Y8055524D01*
X20830771Y8035528D01*
X20830767Y8035519D01*
X20804265Y7942373D01*
X20766986Y7883280D01*
X20703676Y7853723D01*
X20634436Y7863085D01*
X20581250Y7908395D01*
X20565736Y7942365D01*
X20539229Y8035528D01*
X20535937Y8042140D01*
X20440061Y8234684D01*
X20440056Y8234692D01*
X20305979Y8412239D01*
X20141562Y8562124D01*
X20141560Y8562126D01*
X19952404Y8679246D01*
X19952398Y8679248D01*
X19934711Y8686100D01*
X19744940Y8759618D01*
X19526243Y8800500D01*
X19303757Y8800500D01*
X19085060Y8759618D01*
X18966499Y8713687D01*
X18877601Y8679248D01*
X18877595Y8679246D01*
X18688439Y8562126D01*
X18688437Y8562124D01*
X18524020Y8412239D01*
X18389943Y8234692D01*
X18389938Y8234684D01*
X18290775Y8035539D01*
X18290769Y8035524D01*
X18229885Y7821538D01*
X18229884Y7821536D01*
X18209357Y7600001D01*
X18209357Y7600000D01*
X18229884Y7378465D01*
X18229885Y7378463D01*
X18290769Y7164477D01*
X18290775Y7164462D01*
X18389938Y6965317D01*
X18389943Y6965309D01*
X18524020Y6787762D01*
X18688437Y6637877D01*
X18688439Y6637875D01*
X18882473Y6517735D01*
X18881836Y6516708D01*
X18928563Y6473393D01*
X18945989Y6405731D01*
X18924069Y6339389D01*
X18874464Y6297505D01*
X18737422Y6233601D01*
X18737420Y6233600D01*
X18543926Y6098114D01*
X18543920Y6098109D01*
X18376891Y5931080D01*
X18376886Y5931074D01*
X18241400Y5737580D01*
X18241399Y5737578D01*
X18141570Y5523493D01*
X18141567Y5523487D01*
X18084364Y5310001D01*
X7460374Y5310001D01*
X7384755Y5506995D01*
X7208689Y5852544D01*
X6997468Y6177794D01*
X6788904Y6435351D01*
X6788903Y6435352D01*
X5294251Y4940700D01*
X5220412Y5042330D01*
X5042330Y5220412D01*
X4940698Y5294252D01*
X6435350Y6788904D01*
X6435350Y6788905D01*
X6177793Y6997469D01*
X5852543Y7208690D01*
X5506994Y7384756D01*
X5144936Y7523738D01*
X4770330Y7624113D01*
X4770323Y7624114D01*
X4387287Y7684781D01*
X4000001Y7705078D01*
X3999999Y7705078D01*
X3612712Y7684781D01*
X3229676Y7624114D01*
X3229669Y7624113D01*
X2855063Y7523738D01*
X2493005Y7384756D01*
X2147456Y7208690D01*
X1822206Y6997469D01*
X1564648Y6788905D01*
X1564648Y6788904D01*
X3059301Y5294252D01*
X2957670Y5220412D01*
X2779588Y5042330D01*
X2705748Y4940700D01*
X1211096Y6435352D01*
X1211095Y6435352D01*
X1002531Y6177794D01*
X791310Y5852544D01*
X615244Y5506995D01*
X540264Y5311665D01*
X497862Y5256133D01*
X432168Y5232340D01*
X364039Y5247842D01*
X315107Y5297715D01*
X300500Y5356103D01*
X300500Y18900000D01*
X16694355Y18900000D01*
X16714859Y18731131D01*
X16714860Y18731126D01*
X16775182Y18572069D01*
X16800859Y18534870D01*
X16871817Y18432071D01*
X16977505Y18338440D01*
X16999150Y18319264D01*
X17127298Y18252007D01*
X17149775Y18240210D01*
X17314944Y18199500D01*
X17485056Y18199500D01*
X17650225Y18240210D01*
X17729692Y18281919D01*
X17800849Y18319264D01*
X17800850Y18319266D01*
X17800852Y18319266D01*
X17928183Y18432071D01*
X18024818Y18572070D01*
X18085140Y18731128D01*
X18105645Y18900000D01*
X18085140Y19068872D01*
X18064771Y19122580D01*
X18024817Y19227932D01*
X17953618Y19331080D01*
X17928183Y19367929D01*
X17800852Y19480734D01*
X17800849Y19480737D01*
X17650226Y19559790D01*
X17485056Y19600500D01*
X17314944Y19600500D01*
X17149773Y19559790D01*
X16999150Y19480737D01*
X16958531Y19444751D01*
X16872882Y19368872D01*
X16871816Y19367928D01*
X16775182Y19227932D01*
X16714860Y19068875D01*
X16714859Y19068870D01*
X16694355Y18900000D01*
X300500Y18900000D01*
X300500Y41550001D01*
X11819464Y41550001D01*
X11819464Y41550000D01*
X11839564Y41333082D01*
X11839564Y41333080D01*
X11839565Y41333077D01*
X11899183Y41123541D01*
X11899184Y41123538D01*
X11996287Y40928530D01*
X11996288Y40928528D01*
X12127573Y40754678D01*
X12288568Y40607912D01*
X12288575Y40607908D01*
X12288576Y40607907D01*
X12473786Y40493230D01*
X12473792Y40493227D01*
X12496664Y40484367D01*
X12676931Y40414530D01*
X12891074Y40374500D01*
X12891076Y40374500D01*
X13108924Y40374500D01*
X13108926Y40374500D01*
X13323069Y40414530D01*
X13526210Y40493228D01*
X13711432Y40607912D01*
X13872427Y40754678D01*
X14003712Y40928528D01*
X14056418Y41034377D01*
X14103920Y41085613D01*
X14171583Y41103035D01*
X14237924Y41081110D01*
X14279800Y41031510D01*
X14348133Y40884970D01*
X14403023Y40806578D01*
X14976212Y41379767D01*
X14987482Y41337708D01*
X15059890Y41212292D01*
X15162292Y41109890D01*
X15287708Y41037482D01*
X15329765Y41026213D01*
X14756576Y40453025D01*
X14834969Y40398133D01*
X15045090Y40300153D01*
X15045099Y40300149D01*
X15269031Y40240148D01*
X15269041Y40240146D01*
X15499999Y40219939D01*
X15500001Y40219939D01*
X15730958Y40240146D01*
X15730968Y40240148D01*
X15954900Y40300149D01*
X15954909Y40300153D01*
X16165030Y40398133D01*
X16165034Y40398135D01*
X16243422Y40453024D01*
X16243422Y40453025D01*
X15670235Y41026213D01*
X15712292Y41037482D01*
X15837708Y41109890D01*
X15940110Y41212292D01*
X16012518Y41337708D01*
X16023787Y41379766D01*
X16596975Y40806579D01*
X16598925Y40809362D01*
X16653502Y40852987D01*
X16723001Y40860179D01*
X16785356Y40828657D01*
X16820769Y40768427D01*
X16824500Y40738238D01*
X16824500Y40691740D01*
X16834426Y40623609D01*
X16885803Y40518515D01*
X16968514Y40435804D01*
X16968515Y40435804D01*
X16968517Y40435802D01*
X17073607Y40384427D01*
X17107673Y40379464D01*
X17141739Y40374500D01*
X17141740Y40374500D01*
X18858261Y40374500D01*
X18880971Y40377809D01*
X18926393Y40384427D01*
X19031483Y40435802D01*
X19114198Y40518517D01*
X19165573Y40623607D01*
X19175500Y40691740D01*
X19175500Y42408260D01*
X19165573Y42476393D01*
X19114198Y42581483D01*
X19114196Y42581485D01*
X19114196Y42581486D01*
X19031485Y42664197D01*
X18926391Y42715574D01*
X18858261Y42725500D01*
X18858260Y42725500D01*
X17141740Y42725500D01*
X17141739Y42725500D01*
X17073608Y42715574D01*
X16968514Y42664197D01*
X16885803Y42581486D01*
X16834426Y42476392D01*
X16824500Y42408261D01*
X16824500Y42361763D01*
X16804815Y42294724D01*
X16752011Y42248969D01*
X16682853Y42239025D01*
X16619297Y42268050D01*
X16598925Y42290640D01*
X16596976Y42293423D01*
X16596975Y42293424D01*
X16023787Y41720236D01*
X16012518Y41762292D01*
X15940110Y41887708D01*
X15837708Y41990110D01*
X15712292Y42062518D01*
X15670234Y42073788D01*
X16243422Y42646977D01*
X16165030Y42701867D01*
X15954909Y42799848D01*
X15954900Y42799852D01*
X15730968Y42859853D01*
X15730958Y42859855D01*
X15500001Y42880061D01*
X15499999Y42880061D01*
X15269041Y42859855D01*
X15269031Y42859853D01*
X15045099Y42799852D01*
X15045090Y42799848D01*
X14834967Y42701866D01*
X14756576Y42646978D01*
X15329766Y42073788D01*
X15287708Y42062518D01*
X15162292Y41990110D01*
X15059890Y41887708D01*
X14987482Y41762292D01*
X14976212Y41720234D01*
X14403022Y42293424D01*
X14348134Y42215033D01*
X14281090Y42071258D01*
X14234917Y42018819D01*
X14167723Y41999667D01*
X14100842Y42019883D01*
X14058470Y42066887D01*
X14041673Y42099500D01*
X13457462Y43233819D01*
X13444267Y43302429D01*
X13470261Y43367283D01*
X13480012Y43378266D01*
X14339928Y44238181D01*
X14401251Y44271666D01*
X14427609Y44274500D01*
X21772390Y44274500D01*
X21839429Y44254815D01*
X21860071Y44238181D01*
X23438181Y42660071D01*
X23471666Y42598748D01*
X23474500Y42572390D01*
X23474500Y21456018D01*
X23474500Y21343982D01*
X23501295Y21243983D01*
X23503497Y21235764D01*
X23503498Y21235761D01*
X23509422Y21225500D01*
X23559515Y21138737D01*
X24238737Y20459515D01*
X24335763Y20403497D01*
X24443981Y20374500D01*
X24443982Y20374500D01*
X27672390Y20374500D01*
X27739429Y20354815D01*
X27760071Y20338181D01*
X28338181Y19760072D01*
X28371666Y19698749D01*
X28374500Y19672391D01*
X28374500Y18315006D01*
X28363353Y18263623D01*
X28111885Y17711325D01*
X28109640Y17706288D01*
X28109485Y17705933D01*
X28099337Y17679943D01*
X28097807Y17670909D01*
X28092591Y17650668D01*
X28063686Y17568059D01*
X28044751Y17400003D01*
X28044751Y17399998D01*
X28063685Y17231944D01*
X28119545Y17072306D01*
X28119547Y17072303D01*
X28209518Y16929116D01*
X28209523Y16929110D01*
X28329109Y16809524D01*
X28329115Y16809519D01*
X28472302Y16719548D01*
X28472305Y16719546D01*
X28472309Y16719545D01*
X28472310Y16719544D01*
X28518164Y16703499D01*
X28631943Y16663686D01*
X28799997Y16644751D01*
X28800000Y16644751D01*
X28800003Y16644751D01*
X28968056Y16663686D01*
X28968059Y16663687D01*
X29127690Y16719544D01*
X29127692Y16719546D01*
X29127694Y16719546D01*
X29127697Y16719548D01*
X29270884Y16809519D01*
X29270885Y16809520D01*
X29270890Y16809523D01*
X29390477Y16929110D01*
X29459361Y17038737D01*
X29480452Y17072303D01*
X29480454Y17072306D01*
X29480454Y17072308D01*
X29480456Y17072310D01*
X29536313Y17231941D01*
X29536313Y17231942D01*
X29536314Y17231944D01*
X29555249Y17399998D01*
X29555249Y17400003D01*
X29555249Y17400004D01*
X34894435Y17400004D01*
X34894435Y17399997D01*
X34914630Y17220751D01*
X34914631Y17220746D01*
X34974211Y17050477D01*
X34981588Y17038737D01*
X35070184Y16897738D01*
X35197738Y16770184D01*
X35350478Y16674211D01*
X35380557Y16663686D01*
X35520745Y16614632D01*
X35520750Y16614631D01*
X35699996Y16594435D01*
X35700000Y16594435D01*
X35700004Y16594435D01*
X35879249Y16614631D01*
X35879252Y16614632D01*
X35879255Y16614632D01*
X36049522Y16674211D01*
X36202262Y16770184D01*
X36329816Y16897738D01*
X36425789Y17050478D01*
X36485368Y17220745D01*
X36485369Y17220751D01*
X36505565Y17399997D01*
X36505565Y17400004D01*
X36485369Y17579250D01*
X36485368Y17579255D01*
X36481987Y17588918D01*
X36425789Y17749522D01*
X36329816Y17902262D01*
X36202262Y18029816D01*
X36188058Y18038741D01*
X36049523Y18125789D01*
X35879254Y18185369D01*
X35879249Y18185370D01*
X35700004Y18205565D01*
X35699996Y18205565D01*
X35520750Y18185370D01*
X35520745Y18185369D01*
X35350476Y18125789D01*
X35197737Y18029816D01*
X35070184Y17902263D01*
X34974211Y17749524D01*
X34914631Y17579255D01*
X34914630Y17579250D01*
X34894435Y17400004D01*
X29555249Y17400004D01*
X29536314Y17568054D01*
X29536313Y17568056D01*
X29536313Y17568059D01*
X29503941Y17660573D01*
X29495915Y17683511D01*
X29493186Y17692357D01*
X29488086Y17711382D01*
X29236647Y18263622D01*
X29225500Y18315005D01*
X29225500Y19956016D01*
X29225500Y19956018D01*
X29196503Y20064237D01*
X29140485Y20161263D01*
X29061263Y20240485D01*
X29061262Y20240486D01*
X29056932Y20244816D01*
X29056921Y20244826D01*
X28609231Y20692516D01*
X28161263Y21140485D01*
X28064237Y21196503D01*
X27956018Y21225500D01*
X27956017Y21225500D01*
X24727610Y21225500D01*
X24660571Y21245185D01*
X24639929Y21261819D01*
X24361819Y21539929D01*
X24328334Y21601252D01*
X24325500Y21627610D01*
X24325500Y35700000D01*
X29294355Y35700000D01*
X29314859Y35531131D01*
X29314860Y35531126D01*
X29375182Y35372069D01*
X29409138Y35322876D01*
X29471817Y35232071D01*
X29554983Y35158393D01*
X29599150Y35119264D01*
X29749773Y35040211D01*
X29749775Y35040210D01*
X29914944Y34999500D01*
X30085056Y34999500D01*
X30250225Y35040210D01*
X30356277Y35095871D01*
X30400849Y35119264D01*
X30400850Y35119266D01*
X30400852Y35119266D01*
X30528183Y35232071D01*
X30624818Y35372070D01*
X30685140Y35531128D01*
X30705645Y35700000D01*
X30700762Y35740204D01*
X30699893Y35758051D01*
X30700024Y35763592D01*
X30686198Y35860368D01*
X30685867Y35862876D01*
X30685140Y35868872D01*
X30685139Y35868874D01*
X30684744Y35872133D01*
X30683889Y35876532D01*
X30635279Y36216805D01*
X30603362Y36440230D01*
X30603361Y36440233D01*
X30602656Y36445169D01*
X30602902Y36445205D01*
X30600500Y36466731D01*
X30600500Y40599903D01*
X30620185Y40666942D01*
X30636819Y40687584D01*
X35112416Y45163181D01*
X35173739Y45196666D01*
X35200097Y45199500D01*
X38599903Y45199500D01*
X38666942Y45179815D01*
X38687584Y45163181D01*
X40463181Y43387584D01*
X40496666Y43326261D01*
X40499500Y43299903D01*
X40499500Y40366742D01*
X40497087Y40345348D01*
X40497364Y40345308D01*
X40496639Y40340235D01*
X40496638Y40340231D01*
X40451769Y40026154D01*
X40416099Y39776468D01*
X40415251Y39772095D01*
X40414139Y39762940D01*
X40413798Y39760360D01*
X40399974Y39663595D01*
X40397338Y39639103D01*
X40397221Y39637489D01*
X40397169Y39629861D01*
X40396269Y39615766D01*
X40394355Y39600000D01*
X40414859Y39431131D01*
X40414860Y39431126D01*
X40475182Y39272069D01*
X40520706Y39206118D01*
X40571817Y39132071D01*
X40677505Y39038440D01*
X40699150Y39019264D01*
X40849773Y38940211D01*
X40849775Y38940210D01*
X41014944Y38899500D01*
X41185056Y38899500D01*
X41350225Y38940210D01*
X41429692Y38981919D01*
X41500849Y39019264D01*
X41500850Y39019266D01*
X41500852Y39019266D01*
X41628183Y39132071D01*
X41724818Y39272070D01*
X41785140Y39431128D01*
X41805645Y39600000D01*
X41800762Y39640204D01*
X41799893Y39658051D01*
X41800024Y39663592D01*
X41786198Y39760368D01*
X41785867Y39762876D01*
X41785140Y39768872D01*
X41785139Y39768874D01*
X41784744Y39772133D01*
X41783889Y39776532D01*
X41765842Y39902864D01*
X41703362Y40340230D01*
X41703361Y40340233D01*
X41702656Y40345169D01*
X41702902Y40345205D01*
X41700500Y40366731D01*
X41700500Y43510941D01*
X41700501Y43510954D01*
X41700501Y43679055D01*
X41700501Y43679057D01*
X41659577Y43831785D01*
X41622212Y43896503D01*
X41622212Y43896504D01*
X41580524Y43968710D01*
X41580521Y43968714D01*
X41580520Y43968716D01*
X41468716Y44080520D01*
X41468715Y44080521D01*
X41464385Y44084851D01*
X41464374Y44084861D01*
X40561416Y44987819D01*
X40527931Y45049142D01*
X40532915Y45118834D01*
X40574787Y45174767D01*
X40640251Y45199184D01*
X40649097Y45199500D01*
X42733260Y45199500D01*
X42754653Y45197088D01*
X42754693Y45197364D01*
X42759765Y45196640D01*
X42759770Y45196638D01*
X43374641Y45108800D01*
X43386770Y45106444D01*
X43414939Y45099501D01*
X43414943Y45099500D01*
X43414944Y45099500D01*
X43434175Y45099500D01*
X43447450Y45098788D01*
X43460889Y45097340D01*
X43462511Y45097222D01*
X43509326Y45096907D01*
X43509331Y45096909D01*
X43516465Y45097687D01*
X43516490Y45097452D01*
X43534660Y45099500D01*
X43585056Y45099500D01*
X43750225Y45140210D01*
X43900852Y45219266D01*
X44004526Y45311114D01*
X44028181Y45332069D01*
X44028181Y45332070D01*
X44028183Y45332071D01*
X44045931Y45357785D01*
X44048714Y45361652D01*
X44152475Y45500000D01*
X65694355Y45500000D01*
X65714859Y45331131D01*
X65714860Y45331126D01*
X65775182Y45172069D01*
X65826846Y45097222D01*
X65871817Y45032071D01*
X65955799Y44957670D01*
X65999150Y44919264D01*
X66121473Y44855064D01*
X66149775Y44840210D01*
X66314944Y44799500D01*
X66485056Y44799500D01*
X66650225Y44840210D01*
X66729692Y44881919D01*
X66800849Y44919264D01*
X66800850Y44919266D01*
X66800852Y44919266D01*
X66928183Y45032071D01*
X67024818Y45172070D01*
X67085140Y45331128D01*
X67105645Y45500000D01*
X67085140Y45668872D01*
X67024818Y45827930D01*
X66994184Y45872310D01*
X66962959Y45917547D01*
X66928183Y45967929D01*
X66800852Y46080734D01*
X66800849Y46080737D01*
X66650226Y46159790D01*
X66485056Y46200500D01*
X66314944Y46200500D01*
X66149773Y46159790D01*
X65999150Y46080737D01*
X65871816Y45967928D01*
X65775182Y45827932D01*
X65714860Y45668875D01*
X65714859Y45668870D01*
X65694355Y45500000D01*
X44152475Y45500000D01*
X44431704Y45872303D01*
X44453057Y45900773D01*
X44453257Y45900623D01*
X44466776Y45917543D01*
X45658506Y47109272D01*
X45658511Y47109276D01*
X45668714Y47119480D01*
X45668716Y47119480D01*
X45780520Y47231284D01*
X45859577Y47368216D01*
X45896714Y47506814D01*
X45900500Y47520942D01*
X45900500Y47679057D01*
X45900500Y52899903D01*
X45920185Y52966942D01*
X45936819Y52987584D01*
X46149238Y53200003D01*
X70244751Y53200003D01*
X70244751Y53199998D01*
X70263685Y53031944D01*
X70319545Y52872306D01*
X70319547Y52872303D01*
X70409518Y52729116D01*
X70409523Y52729110D01*
X70529109Y52609524D01*
X70529115Y52609519D01*
X70672302Y52519548D01*
X70672305Y52519546D01*
X70672309Y52519545D01*
X70672310Y52519544D01*
X70726735Y52500500D01*
X70831943Y52463686D01*
X70962526Y52448973D01*
X71026939Y52421907D01*
X71066495Y52364312D01*
X71068632Y52294475D01*
X71036323Y52238072D01*
X70838737Y52040485D01*
X70759517Y51961266D01*
X70759513Y51961260D01*
X70703499Y51864241D01*
X70703495Y51864232D01*
X70698052Y51843920D01*
X70691132Y51824637D01*
X70411889Y51211333D01*
X70409633Y51206272D01*
X70409485Y51205933D01*
X70399337Y51179943D01*
X70397807Y51170909D01*
X70392591Y51150668D01*
X70363686Y51068059D01*
X70344751Y50900003D01*
X70344751Y50899998D01*
X70363685Y50731944D01*
X70419545Y50572306D01*
X70419547Y50572303D01*
X70509518Y50429116D01*
X70509523Y50429110D01*
X70629109Y50309524D01*
X70629115Y50309519D01*
X70772302Y50219548D01*
X70772305Y50219546D01*
X70772309Y50219545D01*
X70772310Y50219544D01*
X70828367Y50199929D01*
X70931943Y50163686D01*
X71099997Y50144751D01*
X71100000Y50144751D01*
X71100003Y50144751D01*
X71268056Y50163686D01*
X71278430Y50167316D01*
X71427690Y50219544D01*
X71427692Y50219546D01*
X71427694Y50219546D01*
X71427697Y50219548D01*
X71570884Y50309519D01*
X71570885Y50309520D01*
X71570890Y50309523D01*
X71690477Y50429110D01*
X71703136Y50449256D01*
X71780452Y50572303D01*
X71780454Y50572306D01*
X71780454Y50572308D01*
X71780456Y50572310D01*
X71836313Y50731941D01*
X71836313Y50731942D01*
X71836314Y50731944D01*
X71855249Y50899998D01*
X71855249Y50900003D01*
X71836314Y51068054D01*
X71836313Y51068056D01*
X71836313Y51068059D01*
X71803941Y51160573D01*
X71795915Y51183511D01*
X71793186Y51192357D01*
X71788086Y51211382D01*
X71643837Y51528199D01*
X71633972Y51597369D01*
X71663070Y51660892D01*
X71668994Y51667248D01*
X72325586Y52323839D01*
X72386907Y52357322D01*
X72456599Y52352338D01*
X72465843Y52348457D01*
X72693479Y52241880D01*
X72745847Y52195627D01*
X72764895Y52128404D01*
X72745895Y52063607D01*
X72674211Y51949524D01*
X72614631Y51779255D01*
X72614630Y51779250D01*
X72594435Y51600004D01*
X72594435Y51599997D01*
X72614630Y51420754D01*
X72614631Y51420748D01*
X72639848Y51348682D01*
X72645812Y51323395D01*
X72646833Y51315371D01*
X72646835Y51315364D01*
X72678101Y51211333D01*
X72844200Y50658676D01*
X72844253Y50658502D01*
X72849500Y50622811D01*
X72849500Y50449256D01*
X72836150Y50393287D01*
X72555291Y49838028D01*
X72555290Y49838027D01*
X72530583Y49774835D01*
X72528293Y49766781D01*
X72527981Y49766870D01*
X72523285Y49751873D01*
X72514956Y49731765D01*
X72499500Y49614369D01*
X72499500Y48585637D01*
X72514954Y48468246D01*
X72514955Y48468243D01*
X72514956Y48468238D01*
X72533956Y48422367D01*
X72539827Y48404438D01*
X72545218Y48382434D01*
X72781121Y47833059D01*
X72789440Y47813685D01*
X72799500Y47764759D01*
X72799500Y47093885D01*
X72792922Y47054035D01*
X72597332Y46477713D01*
X72594250Y46468195D01*
X72593135Y46459911D01*
X72587286Y46435505D01*
X72563686Y46368059D01*
X72544751Y46200003D01*
X72544751Y46199998D01*
X72563685Y46031944D01*
X72619545Y45872306D01*
X72619547Y45872303D01*
X72709518Y45729116D01*
X72709523Y45729110D01*
X72829109Y45609524D01*
X72829115Y45609519D01*
X72972302Y45519548D01*
X72972305Y45519546D01*
X72972309Y45519545D01*
X72972310Y45519544D01*
X73028164Y45500000D01*
X73131943Y45463686D01*
X73299997Y45444751D01*
X73300000Y45444751D01*
X73300003Y45444751D01*
X73468056Y45463686D01*
X73468059Y45463687D01*
X73627690Y45519544D01*
X73627692Y45519546D01*
X73627694Y45519546D01*
X73627697Y45519548D01*
X73770884Y45609519D01*
X73770885Y45609520D01*
X73770890Y45609523D01*
X73890477Y45729110D01*
X73952570Y45827930D01*
X73980452Y45872303D01*
X73980454Y45872306D01*
X73980454Y45872308D01*
X73980456Y45872310D01*
X74036313Y46031941D01*
X74036313Y46031942D01*
X74036314Y46031944D01*
X74055249Y46199998D01*
X74055249Y46200003D01*
X74036314Y46368052D01*
X74036313Y46368053D01*
X74036313Y46368059D01*
X74010395Y46442125D01*
X74005060Y46463096D01*
X74002680Y46477675D01*
X74002680Y46477676D01*
X73807078Y47054034D01*
X73800500Y47093884D01*
X73800500Y47737139D01*
X73817302Y47799465D01*
X74106622Y48297083D01*
X74157335Y48345144D01*
X74225982Y48358158D01*
X74290768Y48331993D01*
X74319359Y48299853D01*
X74407684Y48156655D01*
X74531654Y48032685D01*
X74680875Y47940644D01*
X74680880Y47940642D01*
X74847302Y47885495D01*
X74847309Y47885494D01*
X74950019Y47875001D01*
X75500000Y47875001D01*
X75549972Y47875001D01*
X75549986Y47875002D01*
X75652697Y47885495D01*
X75819119Y47940642D01*
X75819124Y47940644D01*
X75968345Y48032685D01*
X76092315Y48156655D01*
X76184356Y48305876D01*
X76184358Y48305881D01*
X76239505Y48472303D01*
X76239506Y48472310D01*
X76249999Y48575014D01*
X76250000Y48575027D01*
X76250000Y48850000D01*
X75500000Y48850000D01*
X75500000Y47875001D01*
X74950019Y47875001D01*
X74999999Y47875002D01*
X75000000Y47875002D01*
X75000000Y49350000D01*
X75500000Y49350000D01*
X76249999Y49350000D01*
X76249999Y49624972D01*
X76249998Y49624987D01*
X76239505Y49727698D01*
X76184358Y49894120D01*
X76184356Y49894125D01*
X76092315Y50043346D01*
X75968345Y50167316D01*
X75819124Y50259357D01*
X75819119Y50259359D01*
X75652697Y50314506D01*
X75652690Y50314507D01*
X75549986Y50325000D01*
X75500000Y50325000D01*
X75500000Y49350000D01*
X75000000Y49350000D01*
X75000000Y50325000D01*
X74999999Y50325001D01*
X74950029Y50325000D01*
X74950011Y50324999D01*
X74847302Y50314506D01*
X74680880Y50259359D01*
X74680875Y50259357D01*
X74531654Y50167316D01*
X74407683Y50043345D01*
X74407680Y50043341D01*
X74322380Y49905048D01*
X74270432Y49858323D01*
X74201470Y49847102D01*
X74137388Y49874945D01*
X74106192Y49914176D01*
X73863850Y50393288D01*
X73850500Y50449257D01*
X73850500Y50597787D01*
X73860995Y50647712D01*
X73880334Y50691679D01*
X74136353Y51273737D01*
X74137937Y51277393D01*
X74138027Y51277604D01*
X74147023Y51300937D01*
X74148615Y51310359D01*
X74153837Y51330635D01*
X74160152Y51348682D01*
X74185368Y51420745D01*
X74203135Y51578432D01*
X74230201Y51642845D01*
X74238674Y51652229D01*
X74767912Y52181468D01*
X74862829Y52050825D01*
X74990825Y51922829D01*
X75121465Y51827914D01*
X74549155Y51255604D01*
X74683061Y51155363D01*
X74683061Y51155362D01*
X74927865Y51021690D01*
X75189225Y50924208D01*
X75461769Y50864920D01*
X75461776Y50864919D01*
X75739999Y50845019D01*
X75740001Y50845019D01*
X76018223Y50864919D01*
X76018230Y50864920D01*
X76290774Y50924208D01*
X76552134Y51021690D01*
X76796942Y51155365D01*
X76930842Y51255604D01*
X76930843Y51255604D01*
X76358534Y51827914D01*
X76489175Y51922829D01*
X76617171Y52050825D01*
X76712086Y52181467D01*
X77284396Y51609157D01*
X77284396Y51609158D01*
X77384635Y51743058D01*
X77518310Y51987866D01*
X77615792Y52249226D01*
X77675080Y52521770D01*
X77675081Y52521777D01*
X77694981Y52799999D01*
X77694981Y52800002D01*
X77675081Y53078224D01*
X77675080Y53078231D01*
X77615792Y53350775D01*
X77518310Y53612135D01*
X77384638Y53856939D01*
X77284396Y53990845D01*
X76712086Y53418535D01*
X76617171Y53549175D01*
X76489175Y53677171D01*
X76358533Y53772088D01*
X76930843Y54344398D01*
X76796938Y54444638D01*
X76796938Y54444639D01*
X76552134Y54578311D01*
X76290774Y54675793D01*
X76018230Y54735081D01*
X76018223Y54735082D01*
X75740001Y54754981D01*
X75739999Y54754981D01*
X75461776Y54735082D01*
X75461769Y54735081D01*
X75189225Y54675793D01*
X74927865Y54578311D01*
X74683061Y54444639D01*
X74683054Y54444634D01*
X74549156Y54344399D01*
X74549155Y54344398D01*
X75121466Y53772087D01*
X74990825Y53677171D01*
X74862829Y53549175D01*
X74767913Y53418534D01*
X74238673Y53947773D01*
X74205188Y54009096D01*
X74203135Y54021561D01*
X74185369Y54179250D01*
X74185369Y54179251D01*
X74185368Y54179255D01*
X74175744Y54206760D01*
X74125789Y54349522D01*
X74096269Y54396502D01*
X74066026Y54444634D01*
X74029816Y54502262D01*
X73902262Y54629816D01*
X73749523Y54725789D01*
X73579254Y54785369D01*
X73579249Y54785370D01*
X73400004Y54805565D01*
X73399996Y54805565D01*
X73220747Y54785369D01*
X73088343Y54739040D01*
X73080775Y54736661D01*
X73065988Y54732528D01*
X73060574Y54729993D01*
X73051646Y54726352D01*
X73046353Y54723803D01*
X73040290Y54720496D01*
X72929691Y54668714D01*
X72435203Y54437199D01*
X72382627Y54425500D01*
X71456018Y54425500D01*
X71343981Y54425500D01*
X71235763Y54396503D01*
X71235761Y54396502D01*
X71235760Y54396502D01*
X71138740Y54340487D01*
X71138734Y54340483D01*
X71138729Y54340477D01*
X71015004Y54216754D01*
X70993029Y54199276D01*
X70986165Y54194988D01*
X70986157Y54194982D01*
X70986157Y54194981D01*
X70497532Y53763181D01*
X70491009Y53757417D01*
X70482839Y53749966D01*
X70482344Y53749501D01*
X70482344Y53749500D01*
X70460076Y53726577D01*
X70460073Y53726573D01*
X70458855Y53724632D01*
X70441527Y53702895D01*
X70409521Y53670888D01*
X70409518Y53670884D01*
X70319547Y53527698D01*
X70319545Y53527695D01*
X70263685Y53368057D01*
X70244751Y53200003D01*
X46149238Y53200003D01*
X46612416Y53663181D01*
X46673739Y53696666D01*
X46700097Y53699500D01*
X50933260Y53699500D01*
X50954653Y53697088D01*
X50954693Y53697364D01*
X50959765Y53696640D01*
X50959770Y53696638D01*
X51574641Y53608800D01*
X51586770Y53606444D01*
X51614939Y53599501D01*
X51614943Y53599500D01*
X51614944Y53599500D01*
X51634175Y53599500D01*
X51647450Y53598788D01*
X51660889Y53597340D01*
X51662511Y53597222D01*
X51709326Y53596907D01*
X51709331Y53596909D01*
X51716465Y53597687D01*
X51716490Y53597452D01*
X51734660Y53599500D01*
X51785056Y53599500D01*
X51950225Y53640210D01*
X52029692Y53681919D01*
X52100849Y53719264D01*
X52100850Y53719266D01*
X52100852Y53719266D01*
X52228183Y53832071D01*
X52324818Y53972070D01*
X52385140Y54131128D01*
X52405645Y54300000D01*
X52385140Y54468872D01*
X52372070Y54503334D01*
X52324817Y54627932D01*
X52281601Y54690540D01*
X52228183Y54767929D01*
X52124735Y54859576D01*
X52100849Y54880737D01*
X51950226Y54959790D01*
X51785056Y55000500D01*
X51614944Y55000500D01*
X51614943Y55000500D01*
X51586777Y54993558D01*
X51574639Y54991201D01*
X51362327Y54960871D01*
X50959770Y54903362D01*
X50959768Y54903362D01*
X50954830Y54902656D01*
X50954794Y54902904D01*
X50933269Y54900500D01*
X46486669Y54900500D01*
X46486653Y54900501D01*
X46479057Y54900501D01*
X46320943Y54900501D01*
X46213587Y54871735D01*
X46168210Y54859576D01*
X46168209Y54859575D01*
X46118096Y54830641D01*
X46118095Y54830640D01*
X46108304Y54824987D01*
X46031285Y54780521D01*
X46031282Y54780519D01*
X44819482Y53568719D01*
X44819478Y53568713D01*
X44773001Y53488212D01*
X44740424Y53431788D01*
X44740423Y53431787D01*
X44723642Y53369158D01*
X44699499Y53279057D01*
X44699499Y53279055D01*
X44699499Y53110954D01*
X44699500Y53110941D01*
X44699500Y47900098D01*
X44679815Y47833059D01*
X44663181Y47812417D01*
X43617553Y46766790D01*
X43600715Y46753362D01*
X43600881Y46753140D01*
X43248101Y46488556D01*
X43191238Y46465002D01*
X42925379Y46427021D01*
X42759770Y46403362D01*
X42759767Y46403362D01*
X42754831Y46402656D01*
X42754795Y46402904D01*
X42733269Y46400500D01*
X38986669Y46400500D01*
X38986653Y46400501D01*
X38979057Y46400501D01*
X38820943Y46400501D01*
X38813347Y46400501D01*
X38813331Y46400500D01*
X34820940Y46400500D01*
X34780019Y46389536D01*
X34780019Y46389535D01*
X34742751Y46379549D01*
X34668214Y46359577D01*
X34668209Y46359574D01*
X34531290Y46280525D01*
X34531282Y46280519D01*
X29519481Y41268718D01*
X29519479Y41268715D01*
X29485302Y41209517D01*
X29485301Y41209515D01*
X29440423Y41131786D01*
X29440423Y41131785D01*
X29399499Y40979057D01*
X29399499Y40979055D01*
X29399499Y40810954D01*
X29399500Y40810941D01*
X29399500Y36466742D01*
X29397087Y36445348D01*
X29397364Y36445308D01*
X29396639Y36440235D01*
X29396638Y36440231D01*
X29364720Y36216805D01*
X29316099Y35876468D01*
X29315251Y35872095D01*
X29314139Y35862940D01*
X29313798Y35860360D01*
X29299974Y35763595D01*
X29297338Y35739103D01*
X29297221Y35737489D01*
X29297169Y35729861D01*
X29296269Y35715766D01*
X29294355Y35700000D01*
X24325500Y35700000D01*
X24325500Y42856016D01*
X24325500Y42856018D01*
X24296503Y42964237D01*
X24240485Y43061263D01*
X24161263Y43140485D01*
X22261263Y45040485D01*
X22164237Y45096503D01*
X22056018Y45125500D01*
X14256018Y45125500D01*
X14143981Y45125500D01*
X14048723Y45099976D01*
X14048722Y45099977D01*
X14035764Y45096504D01*
X14035759Y45096502D01*
X13938740Y45040488D01*
X13938734Y45040483D01*
X13886071Y44987819D01*
X13859515Y44961263D01*
X13859513Y44961261D01*
X13298252Y44400000D01*
X12721296Y43823045D01*
X12721295Y43823045D01*
X12721296Y43823044D01*
X12659514Y43761262D01*
X12659513Y43761260D01*
X12603498Y43664240D01*
X12603497Y43664237D01*
X12574500Y43556018D01*
X12574500Y43325935D01*
X12560738Y43269159D01*
X11927552Y42039750D01*
X11920972Y42026282D01*
X11920571Y42025416D01*
X11909821Y41998702D01*
X11905790Y41989730D01*
X11899185Y41976466D01*
X11899182Y41976458D01*
X11839564Y41766919D01*
X11819464Y41550001D01*
X300500Y41550001D01*
X300500Y44643898D01*
X320185Y44710937D01*
X372989Y44756692D01*
X442147Y44766636D01*
X505703Y44737611D01*
X540264Y44688336D01*
X615244Y44493006D01*
X791310Y44147457D01*
X1002531Y43822207D01*
X1211095Y43564650D01*
X1211096Y43564650D01*
X2705748Y45059302D01*
X2779588Y44957670D01*
X2957670Y44779588D01*
X3059300Y44705749D01*
X1564648Y43211097D01*
X1564649Y43211096D01*
X1822206Y43002532D01*
X2147456Y42791311D01*
X2493005Y42615245D01*
X2855063Y42476263D01*
X3229669Y42375888D01*
X3229676Y42375887D01*
X3612712Y42315220D01*
X3999999Y42294922D01*
X4000001Y42294922D01*
X4387287Y42315220D01*
X4770323Y42375887D01*
X4770330Y42375888D01*
X5144936Y42476263D01*
X5506994Y42615245D01*
X5852543Y42791311D01*
X6177783Y43002524D01*
X6177785Y43002525D01*
X6435349Y43211098D01*
X4940698Y44705749D01*
X5042330Y44779588D01*
X5220412Y44957670D01*
X5294251Y45059302D01*
X6788902Y43564651D01*
X6997475Y43822215D01*
X6997476Y43822217D01*
X7208689Y44147457D01*
X7384755Y44493006D01*
X7523737Y44855064D01*
X7624112Y45229670D01*
X7624113Y45229677D01*
X7684780Y45612713D01*
X7705078Y46000000D01*
X7705078Y46000001D01*
X7684780Y46387288D01*
X7624113Y46770324D01*
X7624112Y46770331D01*
X7523737Y47144937D01*
X7384755Y47506995D01*
X7208689Y47852544D01*
X6997468Y48177794D01*
X6788904Y48435351D01*
X6788903Y48435352D01*
X5294251Y46940700D01*
X5220412Y47042330D01*
X5042330Y47220412D01*
X4940698Y47294252D01*
X6435350Y48788904D01*
X6435350Y48788905D01*
X6177793Y48997469D01*
X5852543Y49208690D01*
X5506994Y49384756D01*
X5311664Y49459736D01*
X5256132Y49502138D01*
X5232339Y49567832D01*
X5247841Y49635960D01*
X5297714Y49684893D01*
X5356102Y49699500D01*
X29999794Y49699500D01*
X30002837Y49699498D01*
X30039344Y49699473D01*
X30039344Y49699474D01*
X30039356Y49699473D01*
X30039367Y49699477D01*
X30039552Y49699500D01*
X30039562Y49699500D01*
X30077936Y49709783D01*
X30078023Y49709781D01*
X30078017Y49709804D01*
X30088588Y49712630D01*
X30115797Y49719900D01*
X30115801Y49719903D01*
X30115982Y49719978D01*
X30115989Y49719979D01*
X30150605Y49739966D01*
X30150691Y49739987D01*
X30150679Y49740007D01*
X30171263Y49751873D01*
X30184346Y49759414D01*
X30184350Y49759419D01*
X30184503Y49759536D01*
X30184511Y49759540D01*
X30212340Y49787369D01*
X30240334Y49815324D01*
X30240335Y49815328D01*
X30240455Y49815482D01*
X30240457Y49815487D01*
X30240460Y49815489D01*
X30259785Y49848963D01*
X30259786Y49848965D01*
X30259791Y49848962D01*
X30259821Y49849026D01*
X30279942Y49883819D01*
X30279944Y49883828D01*
X30279949Y49883836D01*
X30280016Y49883997D01*
X30280018Y49884008D01*
X30280021Y49884011D01*
X30288721Y49916483D01*
X30290089Y49921586D01*
X30290108Y49921581D01*
X30290110Y49921668D01*
X30300473Y49960232D01*
X30300473Y49960239D01*
X30300500Y49960439D01*
X30300500Y49999671D01*
X30300642Y50206814D01*
X30303404Y54242344D01*
X30303444Y54242836D01*
X30303444Y54295125D01*
X30303826Y54304854D01*
X30316734Y54468870D01*
X30319872Y54508748D01*
X30322916Y54527957D01*
X30369520Y54722082D01*
X30375526Y54740567D01*
X30451926Y54925012D01*
X30460759Y54942346D01*
X30461443Y54943461D01*
X30565063Y55112556D01*
X30576499Y55128295D01*
X30625265Y55185392D01*
X30706152Y55280099D01*
X30719901Y55293848D01*
X30871707Y55423503D01*
X30887447Y55434938D01*
X30928624Y55460171D01*
X31057657Y55539243D01*
X31074988Y55548074D01*
X31259433Y55624474D01*
X31277918Y55630480D01*
X31472046Y55677086D01*
X31491252Y55680128D01*
X31695146Y55696175D01*
X31704875Y55696556D01*
X31747595Y55696556D01*
X42030224Y55696556D01*
X42097263Y55676871D01*
G37*
%TD.AperFunction*%
%TA.AperFunction,Conductor*%
G36*
X2779588Y2957670D02*
G01*
X2957670Y2779588D01*
X3059300Y2705749D01*
X1564648Y1211097D01*
X1564649Y1211096D01*
X1822206Y1002532D01*
X2147458Y791309D01*
X2147461Y791308D01*
X2350741Y687732D01*
X2401538Y639758D01*
X2418333Y571937D01*
X2395796Y505802D01*
X2341081Y462350D01*
X2271560Y455377D01*
X2260120Y458093D01*
X2249047Y461283D01*
X2235921Y465876D01*
X1948388Y584976D01*
X1935860Y591009D01*
X1771399Y681903D01*
X1663457Y741561D01*
X1651692Y748954D01*
X1397872Y929049D01*
X1387004Y937715D01*
X1154936Y1145104D01*
X1145103Y1154937D01*
X1094916Y1211096D01*
X937709Y1387011D01*
X929050Y1397871D01*
X748950Y1651697D01*
X741563Y1663453D01*
X591004Y1935868D01*
X584978Y1948382D01*
X465874Y2235923D01*
X461282Y2249048D01*
X458092Y2260121D01*
X458449Y2329990D01*
X496523Y2388574D01*
X560226Y2417274D01*
X629333Y2406978D01*
X681902Y2360954D01*
X687731Y2350743D01*
X791310Y2147457D01*
X1002531Y1822207D01*
X1211095Y1564650D01*
X1211096Y1564650D01*
X2705748Y3059302D01*
X2779588Y2957670D01*
G37*
%TD.AperFunction*%
%TA.AperFunction,Conductor*%
G36*
X98788902Y1564651D02*
G01*
X98997475Y1822215D01*
X98997476Y1822217D01*
X99208691Y2147459D01*
X99208692Y2147462D01*
X99312268Y2350742D01*
X99360242Y2401538D01*
X99428063Y2418334D01*
X99494198Y2395797D01*
X99537650Y2341082D01*
X99544623Y2271561D01*
X99541907Y2260121D01*
X99538717Y2249048D01*
X99534124Y2235922D01*
X99415024Y1948389D01*
X99408991Y1935861D01*
X99258442Y1663462D01*
X99251043Y1651688D01*
X99070954Y1397877D01*
X99062285Y1387005D01*
X98854896Y1154937D01*
X98845063Y1145104D01*
X98612995Y937715D01*
X98602123Y929046D01*
X98348312Y748957D01*
X98336538Y741558D01*
X98064139Y591009D01*
X98051611Y584976D01*
X97764078Y465876D01*
X97750952Y461283D01*
X97739879Y458093D01*
X97670010Y458450D01*
X97611426Y496524D01*
X97582726Y560227D01*
X97593022Y629334D01*
X97639046Y681903D01*
X97649258Y687732D01*
X97852538Y791308D01*
X97852541Y791309D01*
X98177783Y1002524D01*
X98177785Y1002525D01*
X98435349Y1211098D01*
X96940698Y2705749D01*
X97042330Y2779588D01*
X97220412Y2957670D01*
X97294251Y3059302D01*
X98788902Y1564651D01*
G37*
%TD.AperFunction*%
%TA.AperFunction,Conductor*%
G36*
X2329989Y49541551D02*
G01*
X2388573Y49503477D01*
X2417273Y49439774D01*
X2406977Y49370667D01*
X2360953Y49318098D01*
X2350742Y49312269D01*
X2147456Y49208690D01*
X1822206Y48997469D01*
X1564648Y48788905D01*
X1564648Y48788904D01*
X3059301Y47294252D01*
X2957670Y47220412D01*
X2779588Y47042330D01*
X2705748Y46940700D01*
X1211096Y48435352D01*
X1211095Y48435352D01*
X1002531Y48177794D01*
X791310Y47852544D01*
X687731Y47649258D01*
X639756Y47598462D01*
X571935Y47581667D01*
X505801Y47604204D01*
X462349Y47658919D01*
X455377Y47728440D01*
X458092Y47739880D01*
X461282Y47750953D01*
X465875Y47764079D01*
X468562Y47770566D01*
X584981Y48051626D01*
X591001Y48064126D01*
X741567Y48336557D01*
X748944Y48348296D01*
X929056Y48602139D01*
X937702Y48612982D01*
X1145113Y48845075D01*
X1154925Y48854887D01*
X1387018Y49062298D01*
X1397861Y49070944D01*
X1651704Y49251056D01*
X1663443Y49258433D01*
X1935874Y49408999D01*
X1948374Y49415019D01*
X2235928Y49534128D01*
X2249040Y49538716D01*
X2260121Y49541908D01*
X2329989Y49541551D01*
G37*
%TD.AperFunction*%
%TA.AperFunction,Conductor*%
G36*
X97739879Y49541908D02*
G01*
X97750952Y49538718D01*
X97764077Y49534126D01*
X98051618Y49415022D01*
X98064132Y49408996D01*
X98336547Y49258437D01*
X98348303Y49251050D01*
X98602129Y49070950D01*
X98612989Y49062291D01*
X98808289Y48887760D01*
X98845063Y48854897D01*
X98854894Y48845066D01*
X99016985Y48663686D01*
X99062285Y48612996D01*
X99070951Y48602128D01*
X99244057Y48358158D01*
X99251043Y48348313D01*
X99258439Y48336543D01*
X99333628Y48200500D01*
X99408991Y48064140D01*
X99415024Y48051612D01*
X99534124Y47764079D01*
X99538717Y47750953D01*
X99541907Y47739880D01*
X99541550Y47670011D01*
X99503476Y47611427D01*
X99439773Y47582727D01*
X99370666Y47593023D01*
X99318097Y47639047D01*
X99312268Y47649259D01*
X99208692Y47852539D01*
X99208691Y47852542D01*
X98997468Y48177794D01*
X98788904Y48435351D01*
X98788903Y48435352D01*
X97294251Y46940700D01*
X97220412Y47042330D01*
X97042330Y47220412D01*
X96940698Y47294252D01*
X98435350Y48788904D01*
X98435350Y48788905D01*
X98177793Y48997469D01*
X97852543Y49208690D01*
X97649257Y49312269D01*
X97598461Y49360243D01*
X97581666Y49428064D01*
X97604203Y49494199D01*
X97658918Y49537651D01*
X97728439Y49544624D01*
X97739879Y49541908D01*
G37*
%TD.AperFunction*%
%TD*%
%TA.AperFunction,Conductor*%
%TO.N,/ADC_CS5381K-KSZ/I2S_LRCK*%
G36*
X51973076Y12887150D02*
G01*
X52058398Y12851577D01*
X52064716Y12845230D01*
X52064695Y12836276D01*
X52064544Y12835930D01*
X51778120Y12206852D01*
X51771573Y12200742D01*
X51767472Y12200000D01*
X51632528Y12200000D01*
X51624255Y12203427D01*
X51621880Y12206852D01*
X51335455Y12835930D01*
X51335145Y12844879D01*
X51341255Y12851426D01*
X51341601Y12851577D01*
X51695500Y12999125D01*
X51704449Y12999145D01*
X51973076Y12887150D01*
G37*
%TD.AperFunction*%
%TD*%
%TA.AperFunction,Conductor*%
%TO.N,/ADC_CS5381K-KSZ/I2S_LRCK*%
G36*
X52094394Y10316081D02*
G01*
X52675765Y10098487D01*
X52741755Y10073788D01*
X52748302Y10067678D01*
X52748612Y10058729D01*
X52748474Y10058378D01*
X52602563Y9703805D01*
X52596245Y9697458D01*
X52596195Y9697437D01*
X52241622Y9551526D01*
X52232668Y9551547D01*
X52226350Y9557894D01*
X52226212Y9558245D01*
X52039023Y10058378D01*
X51983920Y10205604D01*
X51984230Y10214551D01*
X51986602Y10217973D01*
X52082025Y10313396D01*
X52090297Y10316822D01*
X52094394Y10316081D01*
G37*
%TD.AperFunction*%
%TD*%
%TA.AperFunction,Conductor*%
%TO.N,/Power_Management/RST_PWR*%
G36*
X13076138Y43196573D02*
G01*
X13078267Y43193657D01*
X13756387Y41877003D01*
X13757128Y41868079D01*
X13751342Y41861244D01*
X13750474Y41860842D01*
X13004489Y41550866D01*
X12995535Y41550856D01*
X12995511Y41550866D01*
X12249525Y41860842D01*
X12243200Y41867181D01*
X12243210Y41876135D01*
X12243601Y41876980D01*
X12921733Y43193658D01*
X12928568Y43199443D01*
X12932135Y43200000D01*
X13067865Y43200000D01*
X13076138Y43196573D01*
G37*
%TD.AperFunction*%
%TD*%
%TA.AperFunction,Conductor*%
%TO.N,/Power_Management/RST_PWR*%
G36*
X28875745Y18196573D02*
G01*
X28878120Y18193148D01*
X29164544Y17564071D01*
X29164854Y17555122D01*
X29158744Y17548575D01*
X29158398Y17548424D01*
X28804502Y17400877D01*
X28795548Y17400856D01*
X28795498Y17400877D01*
X28441601Y17548424D01*
X28435283Y17554771D01*
X28435304Y17563725D01*
X28435455Y17564071D01*
X28721880Y18193148D01*
X28728427Y18199258D01*
X28732528Y18200000D01*
X28867472Y18200000D01*
X28875745Y18196573D01*
G37*
%TD.AperFunction*%
%TD*%
%TA.AperFunction,Conductor*%
%TO.N,/ADC_CS5381K-KSZ/M{slash}~{S}*%
G36*
X59787639Y22129418D02*
G01*
X60096191Y22002564D01*
X60102540Y21996249D01*
X60102563Y21996192D01*
X60229408Y21687662D01*
X60229385Y21678707D01*
X60223036Y21672392D01*
X60222839Y21672313D01*
X59665179Y21454771D01*
X59656226Y21454957D01*
X59652654Y21457398D01*
X59557397Y21552655D01*
X59553970Y21560928D01*
X59554769Y21565176D01*
X59772312Y22122841D01*
X59778511Y22129302D01*
X59787464Y22129488D01*
X59787639Y22129418D01*
G37*
%TD.AperFunction*%
%TD*%
%TA.AperFunction,Conductor*%
%TO.N,/ADC_CS5381K-KSZ/M{slash}~{S}*%
G36*
X52943773Y21145044D02*
G01*
X52947345Y21142603D01*
X53042602Y21047346D01*
X53046029Y21039073D01*
X53045229Y21034821D01*
X52827687Y20477161D01*
X52821488Y20470699D01*
X52812535Y20470513D01*
X52812338Y20470592D01*
X52503808Y20597437D01*
X52497460Y20603751D01*
X52370591Y20912340D01*
X52370614Y20921294D01*
X52376963Y20927609D01*
X52377131Y20927677D01*
X52934822Y21145230D01*
X52943773Y21145044D01*
G37*
%TD.AperFunction*%
%TD*%
%TA.AperFunction,Conductor*%
%TO.N,/ADC_CS5381K-KSZ/AINL-*%
G36*
X63151425Y33958745D02*
G01*
X63151576Y33958399D01*
X63299123Y33604502D01*
X63299144Y33595548D01*
X63299123Y33595498D01*
X63151576Y33241602D01*
X63145229Y33235284D01*
X63136275Y33235305D01*
X63135929Y33235456D01*
X62506852Y33521881D01*
X62500742Y33528428D01*
X62500000Y33532529D01*
X62500000Y33667472D01*
X62503427Y33675745D01*
X62506852Y33678120D01*
X63135930Y33964546D01*
X63144878Y33964855D01*
X63151425Y33958745D01*
G37*
%TD.AperFunction*%
%TD*%
%TA.AperFunction,Conductor*%
%TO.N,/ADC_CS5381K-KSZ/AINL-*%
G36*
X60275745Y32196573D02*
G01*
X60278120Y32193148D01*
X60564544Y31564071D01*
X60564854Y31555122D01*
X60558744Y31548575D01*
X60558398Y31548424D01*
X60204502Y31400877D01*
X60195548Y31400856D01*
X60195498Y31400877D01*
X59841601Y31548424D01*
X59835283Y31554771D01*
X59835304Y31563725D01*
X59835455Y31564071D01*
X60121880Y32193148D01*
X60128427Y32199258D01*
X60132528Y32200000D01*
X60267472Y32200000D01*
X60275745Y32196573D01*
G37*
%TD.AperFunction*%
%TD*%
%TA.AperFunction,Conductor*%
%TO.N,/ADC_Driver_ADA4940-2ACPZ-R7/MIC_R_OUT+*%
G36*
X36722810Y53210771D02*
G01*
X36723247Y53210578D01*
X37433262Y52878155D01*
X37439301Y52871545D01*
X37440000Y52867560D01*
X37440000Y52732441D01*
X37436573Y52724168D01*
X37433261Y52721845D01*
X36723271Y52389434D01*
X36714325Y52389029D01*
X36707714Y52395069D01*
X36707510Y52395530D01*
X36540873Y52795502D01*
X36540855Y52804453D01*
X36707511Y53204473D01*
X36713855Y53210790D01*
X36722810Y53210771D01*
G37*
%TD.AperFunction*%
%TD*%
%TA.AperFunction,Conductor*%
%TO.N,/ADC_Driver_ADA4940-2ACPZ-R7/MIC_R_OUT+*%
G36*
X38394394Y52816081D02*
G01*
X38975765Y52598487D01*
X39041755Y52573788D01*
X39048302Y52567678D01*
X39048612Y52558729D01*
X39048474Y52558378D01*
X38902563Y52203805D01*
X38896245Y52197458D01*
X38896195Y52197437D01*
X38541622Y52051526D01*
X38532668Y52051547D01*
X38526350Y52057894D01*
X38526212Y52058245D01*
X38339023Y52558378D01*
X38283920Y52705604D01*
X38284230Y52714551D01*
X38286602Y52717973D01*
X38382025Y52813396D01*
X38390297Y52816822D01*
X38394394Y52816081D01*
G37*
%TD.AperFunction*%
%TD*%
%TA.AperFunction,Conductor*%
%TO.N,/ADC_Driver_ADA4940-2ACPZ-R7/MIC_L_OUT-*%
G36*
X73232285Y54404932D02*
G01*
X73232489Y54404471D01*
X73399125Y54004500D01*
X73399144Y53995545D01*
X73399125Y53995500D01*
X73232489Y53595530D01*
X73226144Y53589211D01*
X73217189Y53589230D01*
X73216728Y53589434D01*
X72506739Y53921845D01*
X72500699Y53928456D01*
X72500000Y53932441D01*
X72500000Y54067560D01*
X72503427Y54075833D01*
X72506735Y54078154D01*
X73216730Y54410568D01*
X73225674Y54410972D01*
X73232285Y54404932D01*
G37*
%TD.AperFunction*%
%TD*%
%TA.AperFunction,Conductor*%
%TO.N,/ADC_Driver_ADA4940-2ACPZ-R7/MIC_L_OUT-*%
G36*
X71237587Y53928097D02*
G01*
X71332929Y53832755D01*
X71336296Y53825667D01*
X71398690Y53212863D01*
X71396119Y53204285D01*
X71388235Y53200038D01*
X71387071Y53199978D01*
X71004168Y53199302D01*
X70995889Y53202714D01*
X70725911Y53474045D01*
X70722506Y53482325D01*
X70725954Y53490590D01*
X70726445Y53491052D01*
X71221566Y53928592D01*
X71230035Y53931502D01*
X71237587Y53928097D01*
G37*
%TD.AperFunction*%
%TD*%
%TA.AperFunction,Conductor*%
%TO.N,/ADC_Driver_ADA4940-2ACPZ-R7/MIC_L_OUT+*%
G36*
X71175745Y51696573D02*
G01*
X71178120Y51693148D01*
X71464544Y51064071D01*
X71464854Y51055122D01*
X71458744Y51048575D01*
X71458398Y51048424D01*
X71104502Y50900877D01*
X71095548Y50900856D01*
X71095498Y50900877D01*
X70741601Y51048424D01*
X70735283Y51054771D01*
X70735304Y51063725D01*
X70735455Y51064071D01*
X71021880Y51693148D01*
X71028427Y51699258D01*
X71032528Y51700000D01*
X71167472Y51700000D01*
X71175745Y51696573D01*
G37*
%TD.AperFunction*%
%TD*%
%TA.AperFunction,Conductor*%
%TO.N,/ADC_Driver_ADA4940-2ACPZ-R7/MIC_L_OUT+*%
G36*
X73232285Y53204932D02*
G01*
X73232489Y53204471D01*
X73399125Y52804500D01*
X73399144Y52795545D01*
X73399125Y52795500D01*
X73232489Y52395530D01*
X73226144Y52389211D01*
X73217189Y52389230D01*
X73216728Y52389434D01*
X72506739Y52721845D01*
X72500699Y52728456D01*
X72500000Y52732441D01*
X72500000Y52867560D01*
X72503427Y52875833D01*
X72506735Y52878154D01*
X73216730Y53210568D01*
X73225674Y53210972D01*
X73232285Y53204932D01*
G37*
%TD.AperFunction*%
%TD*%
%TA.AperFunction,Conductor*%
%TO.N,+3.3V*%
G36*
X70682511Y39667498D02*
G01*
X71517712Y38833278D01*
X71521144Y38825007D01*
X71517722Y38816732D01*
X71517712Y38816722D01*
X70682511Y37982503D01*
X70674236Y37979081D01*
X70666805Y37981749D01*
X69829262Y38671491D01*
X69825054Y38679396D01*
X69825000Y38680523D01*
X69825000Y38969478D01*
X69828427Y38977751D01*
X69829262Y38978510D01*
X70666806Y39668253D01*
X70675370Y39670866D01*
X70682511Y39667498D01*
G37*
%TD.AperFunction*%
%TD*%
%TA.AperFunction,Conductor*%
%TO.N,+3.3V*%
G36*
X86757511Y24382498D02*
G01*
X87592712Y23548278D01*
X87596144Y23540007D01*
X87592722Y23531732D01*
X87592712Y23531722D01*
X86757511Y22697503D01*
X86749236Y22694081D01*
X86741805Y22696749D01*
X85904262Y23386491D01*
X85900054Y23394396D01*
X85900000Y23395523D01*
X85900000Y23684478D01*
X85903427Y23692751D01*
X85904262Y23693510D01*
X86741806Y24383253D01*
X86750370Y24385866D01*
X86757511Y24382498D01*
G37*
%TD.AperFunction*%
%TD*%
%TA.AperFunction,Conductor*%
%TO.N,+3.3V*%
G36*
X77958176Y24368411D02*
G01*
X78795642Y23693512D01*
X78799933Y23685653D01*
X78800000Y23684403D01*
X78800000Y23395484D01*
X78796573Y23387211D01*
X78795785Y23386492D01*
X77958166Y22689270D01*
X77949615Y22686611D01*
X77942449Y22689948D01*
X77238901Y23386492D01*
X77107359Y23516724D01*
X77103892Y23524978D01*
X77107277Y23533268D01*
X77942570Y24367579D01*
X77950843Y24371000D01*
X77958176Y24368411D01*
G37*
%TD.AperFunction*%
%TD*%
%TA.AperFunction,Conductor*%
%TO.N,+3.3V*%
G36*
X73501080Y50321573D02*
G01*
X73503247Y50318581D01*
X73827480Y49677570D01*
X73828157Y49668641D01*
X73825993Y49664757D01*
X73358953Y49109642D01*
X73351004Y49105517D01*
X73342468Y49108221D01*
X73341047Y49109642D01*
X72874006Y49664757D01*
X72871302Y49673293D01*
X72872518Y49677568D01*
X73196753Y50318582D01*
X73203545Y50324417D01*
X73207193Y50325000D01*
X73492807Y50325000D01*
X73501080Y50321573D01*
G37*
%TD.AperFunction*%
%TD*%
%TA.AperFunction,Conductor*%
%TO.N,+3.3V*%
G36*
X73773535Y51445378D02*
G01*
X73804731Y51432381D01*
X73811050Y51426036D01*
X73811031Y51417081D01*
X73810941Y51416870D01*
X73503074Y50716935D01*
X73496606Y50710742D01*
X73492364Y50709946D01*
X73208701Y50709946D01*
X73200428Y50713373D01*
X73197496Y50718278D01*
X72987292Y51417684D01*
X72988193Y51426594D01*
X72993995Y51431851D01*
X73395501Y51599127D01*
X73404452Y51599145D01*
X73773535Y51445378D01*
G37*
%TD.AperFunction*%
%TD*%
%TA.AperFunction,Conductor*%
%TO.N,+3.3V*%
G36*
X73449889Y46996573D02*
G01*
X73452695Y46992060D01*
X73666038Y46363426D01*
X73665452Y46354490D01*
X73659461Y46348867D01*
X73304502Y46200877D01*
X73295548Y46200856D01*
X73295498Y46200877D01*
X72940538Y46348867D01*
X72934220Y46355214D01*
X72933961Y46363425D01*
X73147305Y46992061D01*
X73153208Y46998793D01*
X73158384Y47000000D01*
X73441616Y47000000D01*
X73449889Y46996573D01*
G37*
%TD.AperFunction*%
%TD*%
%TA.AperFunction,Conductor*%
%TO.N,+3.3V*%
G36*
X73357445Y49091677D02*
G01*
X73358933Y49090175D01*
X73624390Y48768500D01*
X73821663Y48529448D01*
X73824286Y48520886D01*
X73822754Y48516120D01*
X73453383Y47880819D01*
X73446262Y47875390D01*
X73443268Y47875000D01*
X73157709Y47875000D01*
X73149436Y47878427D01*
X73146958Y47882084D01*
X72871876Y48522701D01*
X72871761Y48531655D01*
X72873674Y48534849D01*
X73340961Y49090257D01*
X73348909Y49094381D01*
X73357445Y49091677D01*
G37*
%TD.AperFunction*%
%TD*%
%TA.AperFunction,Conductor*%
%TO.N,+3.3V*%
G36*
X74400906Y39605378D02*
G01*
X74401325Y39605194D01*
X75758208Y38978139D01*
X75764281Y38971557D01*
X75765000Y38967518D01*
X75765000Y38682483D01*
X75761573Y38674210D01*
X75758208Y38671862D01*
X74401325Y38044807D01*
X74392378Y38044447D01*
X74385796Y38050520D01*
X74385612Y38050939D01*
X74065865Y38820511D01*
X74065856Y38829466D01*
X74065865Y38829489D01*
X74123214Y38967518D01*
X74385613Y39599064D01*
X74391951Y39605387D01*
X74400906Y39605378D01*
G37*
%TD.AperFunction*%
%TD*%
%TA.AperFunction,Conductor*%
%TO.N,+3.3V*%
G36*
X67165548Y30965822D02*
G01*
X67365821Y30765549D01*
X67369248Y30757276D01*
X67368041Y30752100D01*
X67074387Y30156732D01*
X67067654Y30150829D01*
X67059442Y30151088D01*
X66703804Y30297437D01*
X66697457Y30303755D01*
X66697436Y30303805D01*
X66551087Y30659443D01*
X66551108Y30668397D01*
X66556730Y30674388D01*
X67152099Y30968043D01*
X67161035Y30968628D01*
X67165548Y30965822D01*
G37*
%TD.AperFunction*%
%TD*%
%TA.AperFunction,Conductor*%
%TO.N,+3.3V*%
G36*
X40261881Y54793036D02*
G01*
X40742825Y54308240D01*
X40746219Y54299953D01*
X40742825Y54291760D01*
X40261881Y53806965D01*
X40253622Y53803505D01*
X40246910Y53805589D01*
X39755035Y54146511D01*
X39750188Y54154040D01*
X39750000Y54156127D01*
X39750000Y54443874D01*
X39753427Y54452147D01*
X39755035Y54453490D01*
X40244925Y54793036D01*
X40246911Y54794413D01*
X40255662Y54796308D01*
X40261881Y54793036D01*
G37*
%TD.AperFunction*%
%TD*%
%TA.AperFunction,Conductor*%
%TO.N,+3.3V*%
G36*
X86757511Y12267498D02*
G01*
X87592712Y11433278D01*
X87596144Y11425007D01*
X87592722Y11416732D01*
X87592712Y11416722D01*
X86757511Y10582503D01*
X86749236Y10579081D01*
X86741805Y10581749D01*
X85904262Y11271491D01*
X85900054Y11279396D01*
X85900000Y11280523D01*
X85900000Y11569478D01*
X85903427Y11577751D01*
X85904262Y11578510D01*
X86741806Y12268253D01*
X86750370Y12270866D01*
X86757511Y12267498D01*
G37*
%TD.AperFunction*%
%TD*%
%TA.AperFunction,Conductor*%
%TO.N,+3.3V*%
G36*
X78058165Y12275733D02*
G01*
X78895785Y11578509D01*
X78899951Y11570583D01*
X78900000Y11569517D01*
X78900000Y11280598D01*
X78896573Y11272325D01*
X78895642Y11271488D01*
X78058178Y10596591D01*
X78049586Y10594068D01*
X78042568Y10597423D01*
X77207324Y11431686D01*
X77203892Y11439957D01*
X77207313Y11448231D01*
X78042450Y12275055D01*
X78050740Y12278440D01*
X78058165Y12275733D01*
G37*
%TD.AperFunction*%
%TD*%
%TA.AperFunction,Conductor*%
%TO.N,+3.3V*%
G36*
X57400256Y9945806D02*
G01*
X57404892Y9938145D01*
X57405026Y9936379D01*
X57405026Y9653987D01*
X57402593Y9646844D01*
X57040955Y9177683D01*
X57033190Y9173223D01*
X57024545Y9175559D01*
X57023429Y9176538D01*
X56752453Y9446559D01*
X56749012Y9454826D01*
X56749012Y9454876D01*
X56749492Y9646844D01*
X56749974Y9839979D01*
X56753422Y9848241D01*
X56759906Y9851513D01*
X57391561Y9947945D01*
X57400256Y9945806D01*
G37*
%TD.AperFunction*%
%TD*%
%TA.AperFunction,Conductor*%
%TO.N,+3.3V*%
G36*
X88950514Y25091566D02*
G01*
X89151565Y24890515D01*
X89154992Y24882242D01*
X89154092Y24877742D01*
X88454486Y23198685D01*
X88448141Y23192366D01*
X88439219Y23192371D01*
X87603784Y23537438D01*
X87597446Y23543764D01*
X87252370Y24379222D01*
X87252379Y24388175D01*
X87258681Y24394485D01*
X88937742Y25094094D01*
X88946696Y25094112D01*
X88950514Y25091566D01*
G37*
%TD.AperFunction*%
%TD*%
%TA.AperFunction,Conductor*%
%TO.N,+3.3V*%
G36*
X76257511Y24367498D02*
G01*
X77092712Y23533278D01*
X77096144Y23525007D01*
X77092722Y23516732D01*
X77092712Y23516722D01*
X76257511Y22682503D01*
X76249236Y22679081D01*
X76241805Y22681749D01*
X75404262Y23371491D01*
X75400054Y23379396D01*
X75400000Y23380523D01*
X75400000Y23669478D01*
X75403427Y23677751D01*
X75404262Y23678510D01*
X76241806Y24368253D01*
X76250370Y24370866D01*
X76257511Y24367498D01*
G37*
%TD.AperFunction*%
%TD*%
%TA.AperFunction,Conductor*%
%TO.N,+3.3V*%
G36*
X76357511Y12282498D02*
G01*
X77192712Y11448278D01*
X77196144Y11440007D01*
X77192722Y11431732D01*
X77192712Y11431722D01*
X76357511Y10597503D01*
X76349236Y10594081D01*
X76341805Y10596749D01*
X75504262Y11286491D01*
X75500054Y11294396D01*
X75500000Y11295523D01*
X75500000Y11584478D01*
X75503427Y11592751D01*
X75504262Y11593510D01*
X76341806Y12283253D01*
X76350370Y12285866D01*
X76357511Y12282498D01*
G37*
%TD.AperFunction*%
%TD*%
%TA.AperFunction,Conductor*%
%TO.N,+3.3V*%
G36*
X73744203Y39599481D02*
G01*
X73744387Y39599062D01*
X74064134Y38829489D01*
X74064143Y38820534D01*
X74064134Y38820511D01*
X73744387Y38050939D01*
X73738048Y38044614D01*
X73729093Y38044623D01*
X73728674Y38044807D01*
X72371792Y38671862D01*
X72365719Y38678444D01*
X72365000Y38682483D01*
X72365000Y38967518D01*
X72368427Y38975791D01*
X72371792Y38978139D01*
X73728674Y39605194D01*
X73737621Y39605554D01*
X73744203Y39599481D01*
G37*
%TD.AperFunction*%
%TD*%
%TA.AperFunction,Conductor*%
%TO.N,+3.3V*%
G36*
X72383194Y39668252D02*
G01*
X73220738Y38978510D01*
X73224946Y38970605D01*
X73225000Y38969478D01*
X73225000Y38680523D01*
X73221573Y38672250D01*
X73220738Y38671491D01*
X72383194Y37981749D01*
X72374629Y37979135D01*
X72367488Y37982503D01*
X71532286Y38816724D01*
X71528855Y38824993D01*
X71532276Y38833267D01*
X72367490Y39667499D01*
X72375763Y39670920D01*
X72383194Y39668252D01*
G37*
%TD.AperFunction*%
%TD*%
%TA.AperFunction,Conductor*%
%TO.N,+3.3V*%
G36*
X37432313Y54152807D02*
G01*
X37438909Y54146751D01*
X37440000Y54141817D01*
X37440000Y53858184D01*
X37436573Y53849911D01*
X37432313Y53847194D01*
X36722718Y53588092D01*
X36713771Y53588473D01*
X36707905Y53594582D01*
X36540873Y53995502D01*
X36540855Y54004453D01*
X36707905Y54405420D01*
X36714250Y54411738D01*
X36722716Y54411909D01*
X37432313Y54152807D01*
G37*
%TD.AperFunction*%
%TD*%
%TA.AperFunction,Conductor*%
%TO.N,/ADC_CS5381K-KSZ/~{RST}_CS5381*%
G36*
X45194394Y20816081D02*
G01*
X45775765Y20598487D01*
X45841755Y20573788D01*
X45848302Y20567678D01*
X45848612Y20558729D01*
X45848474Y20558378D01*
X45702563Y20203805D01*
X45696245Y20197458D01*
X45696195Y20197437D01*
X45341622Y20051526D01*
X45332668Y20051547D01*
X45326350Y20057894D01*
X45326212Y20058245D01*
X45139023Y20558378D01*
X45083920Y20705604D01*
X45084230Y20714551D01*
X45086602Y20717973D01*
X45182025Y20813396D01*
X45190297Y20816822D01*
X45194394Y20816081D01*
G37*
%TD.AperFunction*%
%TD*%
%TA.AperFunction,Conductor*%
%TO.N,/ADC_CS5381K-KSZ/~{RST}_CS5381*%
G36*
X29714550Y22815770D02*
G01*
X29717975Y22813395D01*
X29813394Y22717976D01*
X29816821Y22709703D01*
X29816079Y22705602D01*
X29573787Y22058245D01*
X29567677Y22051698D01*
X29558728Y22051388D01*
X29558377Y22051526D01*
X29203804Y22197437D01*
X29197457Y22203755D01*
X29197436Y22203805D01*
X29051525Y22558378D01*
X29051546Y22567332D01*
X29057893Y22573650D01*
X29058228Y22573782D01*
X29705603Y22816080D01*
X29714550Y22815770D01*
G37*
%TD.AperFunction*%
%TD*%
%TA.AperFunction,Conductor*%
%TO.N,/ADC_CS5381K-KSZ/~{RST}_CS5381*%
G36*
X55070565Y43112558D02*
G01*
X55070649Y43112363D01*
X55199119Y42804506D01*
X55199142Y42795551D01*
X55199119Y42795494D01*
X55070649Y42487638D01*
X55064300Y42481323D01*
X55055345Y42481346D01*
X55055150Y42481430D01*
X54506999Y42721930D01*
X54500800Y42728392D01*
X54500000Y42732644D01*
X54500000Y42867357D01*
X54503427Y42875630D01*
X54506999Y42878071D01*
X55055150Y43118571D01*
X55064103Y43118757D01*
X55070565Y43112558D01*
G37*
%TD.AperFunction*%
%TD*%
%TA.AperFunction,Conductor*%
%TO.N,/ADC_Driver_ADA4940-2ACPZ-R7/VCOM_B_LEFT*%
G36*
X43565548Y33665822D02*
G01*
X43765821Y33465549D01*
X43769248Y33457276D01*
X43768041Y33452100D01*
X43474387Y32856732D01*
X43467654Y32850829D01*
X43459442Y32851088D01*
X43103804Y32997437D01*
X43097457Y33003755D01*
X43097436Y33003805D01*
X42951087Y33359443D01*
X42951108Y33368397D01*
X42956730Y33374388D01*
X43552099Y33668043D01*
X43561035Y33668628D01*
X43565548Y33665822D01*
G37*
%TD.AperFunction*%
%TD*%
%TA.AperFunction,Conductor*%
%TO.N,/ADC_Driver_ADA4940-2ACPZ-R7/VCOM_B_LEFT*%
G36*
X57819439Y39967820D02*
G01*
X57859461Y39951134D01*
X57865779Y39944787D01*
X57866038Y39936575D01*
X57652695Y39307940D01*
X57646792Y39301207D01*
X57641616Y39300000D01*
X57358384Y39300000D01*
X57350111Y39303427D01*
X57347305Y39307940D01*
X57133961Y39936575D01*
X57134547Y39945511D01*
X57140537Y39951134D01*
X57495500Y40099125D01*
X57504449Y40099145D01*
X57819439Y39967820D01*
G37*
%TD.AperFunction*%
%TD*%
%TA.AperFunction,Conductor*%
%TO.N,+3.3V*%
G36*
X40756937Y54290575D02*
G01*
X40760006Y54287999D01*
X41226507Y53734623D01*
X41229220Y53726089D01*
X41228478Y53722871D01*
X41051411Y53263923D01*
X41048768Y53259861D01*
X40847436Y53058529D01*
X40839163Y53055102D01*
X40830890Y53058529D01*
X40830184Y53059301D01*
X40362399Y53619269D01*
X40359725Y53627815D01*
X40361259Y53632643D01*
X40740945Y54286335D01*
X40748062Y54291767D01*
X40756937Y54290575D01*
G37*
%TD.AperFunction*%
%TD*%
%TA.AperFunction,Conductor*%
%TO.N,+3.3V*%
G36*
X36191726Y47852534D02*
G01*
X36198633Y47846835D01*
X36200000Y47841347D01*
X36200000Y47558654D01*
X36196573Y47550381D01*
X36191726Y47547467D01*
X35644079Y47379748D01*
X35635165Y47380602D01*
X35629855Y47386429D01*
X35500880Y47695494D01*
X35500857Y47704449D01*
X35500880Y47704506D01*
X35561596Y47850000D01*
X35629855Y48013573D01*
X35636204Y48019887D01*
X35644077Y48020253D01*
X36191726Y47852534D01*
G37*
%TD.AperFunction*%
%TD*%
%TA.AperFunction,Conductor*%
%TO.N,/ADC_Driver_ADA4940-2ACPZ-R7/MIC_R_OUT-*%
G36*
X36944470Y51432490D02*
G01*
X36950789Y51426145D01*
X36950770Y51417190D01*
X36950566Y51416729D01*
X36618155Y50706739D01*
X36611544Y50700699D01*
X36607559Y50700000D01*
X36472441Y50700000D01*
X36464168Y50703427D01*
X36461845Y50706739D01*
X36398319Y50842422D01*
X36129432Y51416731D01*
X36129028Y51425675D01*
X36135068Y51432286D01*
X36135505Y51432480D01*
X36535501Y51599127D01*
X36544452Y51599145D01*
X36944470Y51432490D01*
G37*
%TD.AperFunction*%
%TD*%
%TA.AperFunction,Conductor*%
%TO.N,/ADC_Driver_ADA4940-2ACPZ-R7/MIC_R_OUT-*%
G36*
X37751413Y49758745D02*
G01*
X37751491Y49758563D01*
X37898839Y49403790D01*
X37898848Y49394835D01*
X37898833Y49394800D01*
X37752049Y49042734D01*
X37745702Y49036416D01*
X37736748Y49036437D01*
X37735400Y49037104D01*
X37089461Y49410054D01*
X37084010Y49417158D01*
X37085179Y49426036D01*
X37087034Y49428455D01*
X37180757Y49522178D01*
X37184355Y49524628D01*
X37736016Y49764803D01*
X37744969Y49764963D01*
X37751413Y49758745D01*
G37*
%TD.AperFunction*%
%TD*%
%TA.AperFunction,Conductor*%
%TO.N,+5VA*%
G36*
X30248126Y36396573D02*
G01*
X30251435Y36389955D01*
X30348097Y35713317D01*
X30345875Y35704642D01*
X30338170Y35700080D01*
X30336548Y35699962D01*
X30000033Y35699001D01*
X29999967Y35699001D01*
X29663451Y35699962D01*
X29655187Y35703413D01*
X29651784Y35711695D01*
X29651902Y35713317D01*
X29748565Y36389955D01*
X29753127Y36397660D01*
X29760147Y36400000D01*
X30239853Y36400000D01*
X30248126Y36396573D01*
G37*
%TD.AperFunction*%
%TD*%
%TA.AperFunction,Conductor*%
%TO.N,+5VA*%
G36*
X41348126Y40296573D02*
G01*
X41351435Y40289955D01*
X41448097Y39613317D01*
X41445875Y39604642D01*
X41438170Y39600080D01*
X41436548Y39599962D01*
X41100033Y39599001D01*
X41099967Y39599001D01*
X40763451Y39599962D01*
X40755187Y39603413D01*
X40751784Y39611695D01*
X40751902Y39613317D01*
X40848565Y40289955D01*
X40853127Y40297660D01*
X40860147Y40300000D01*
X41339853Y40300000D01*
X41348126Y40296573D01*
G37*
%TD.AperFunction*%
%TD*%
%TA.AperFunction,Conductor*%
%TO.N,+5VA*%
G36*
X43495358Y46145876D02*
G01*
X43499920Y46138171D01*
X43500038Y46136549D01*
X43501000Y45800000D01*
X43501000Y45799934D01*
X43500038Y45463452D01*
X43496587Y45455188D01*
X43488305Y45451785D01*
X43486683Y45451903D01*
X42810045Y45548565D01*
X42802340Y45553127D01*
X42800000Y45560147D01*
X42800000Y46039853D01*
X42803427Y46048126D01*
X42810045Y46051435D01*
X43486684Y46148098D01*
X43495358Y46145876D01*
G37*
%TD.AperFunction*%
%TD*%
%TA.AperFunction,Conductor*%
%TO.N,+5VA*%
G36*
X43825372Y46464576D02*
G01*
X44164575Y46125373D01*
X44168002Y46117100D01*
X44165662Y46110080D01*
X43755557Y45563274D01*
X43747852Y45558712D01*
X43739177Y45560934D01*
X43737953Y45561993D01*
X43499293Y45799293D01*
X43261995Y46037951D01*
X43258593Y46046231D01*
X43262044Y46054495D01*
X43263264Y46055551D01*
X43810080Y46465664D01*
X43818754Y46467885D01*
X43825372Y46464576D01*
G37*
%TD.AperFunction*%
%TD*%
%TA.AperFunction,Conductor*%
%TO.N,+5VA*%
G36*
X51695358Y54645876D02*
G01*
X51699920Y54638171D01*
X51700038Y54636549D01*
X51701000Y54300000D01*
X51701000Y54299934D01*
X51700038Y53963452D01*
X51696587Y53955188D01*
X51688305Y53951785D01*
X51686683Y53951903D01*
X51010045Y54048565D01*
X51002340Y54053127D01*
X51000000Y54060147D01*
X51000000Y54539853D01*
X51003427Y54548126D01*
X51010045Y54551435D01*
X51686684Y54648098D01*
X51695358Y54645876D01*
G37*
%TD.AperFunction*%
%TD*%
%TA.AperFunction,Conductor*%
%TO.N,/ADC_CS5381K-KSZ/~{OVFL}*%
G36*
X22075958Y9287622D02*
G01*
X22078203Y9284473D01*
X22734859Y7936446D01*
X22735402Y7927507D01*
X22729465Y7920804D01*
X22728830Y7920517D01*
X21959489Y7600866D01*
X21950534Y7600857D01*
X21950511Y7600866D01*
X21181782Y7920262D01*
X21175457Y7926601D01*
X21175466Y7935556D01*
X21176025Y7936716D01*
X21921661Y9285011D01*
X21928664Y9290593D01*
X21931900Y9291049D01*
X22067685Y9291049D01*
X22075958Y9287622D01*
G37*
%TD.AperFunction*%
%TD*%
%TA.AperFunction,Conductor*%
%TO.N,/ADC_CS5381K-KSZ/~{OVFL}*%
G36*
X54251425Y25658745D02*
G01*
X54251576Y25658399D01*
X54399123Y25304502D01*
X54399144Y25295548D01*
X54399123Y25295498D01*
X54251576Y24941602D01*
X54245229Y24935284D01*
X54236275Y24935305D01*
X54235929Y24935456D01*
X53606852Y25221881D01*
X53600742Y25228428D01*
X53600000Y25232529D01*
X53600000Y25367472D01*
X53603427Y25375745D01*
X53606852Y25378120D01*
X54235930Y25664546D01*
X54244878Y25664855D01*
X54251425Y25658745D01*
G37*
%TD.AperFunction*%
%TD*%
%TA.AperFunction,Conductor*%
%TO.N,/ADC_CS5381K-KSZ/M1*%
G36*
X24615958Y9287622D02*
G01*
X24618203Y9284473D01*
X25274859Y7936446D01*
X25275402Y7927507D01*
X25269465Y7920804D01*
X25268830Y7920517D01*
X24499489Y7600866D01*
X24490534Y7600857D01*
X24490511Y7600866D01*
X23721782Y7920262D01*
X23715457Y7926601D01*
X23715466Y7935556D01*
X23716025Y7936716D01*
X24461661Y9285011D01*
X24468664Y9290593D01*
X24471900Y9291049D01*
X24607685Y9291049D01*
X24615958Y9287622D01*
G37*
%TD.AperFunction*%
%TD*%
%TA.AperFunction,Conductor*%
%TO.N,/ADC_CS5381K-KSZ/M1*%
G36*
X63541609Y25548481D02*
G01*
X63896195Y25402564D01*
X63902542Y25396246D01*
X63902563Y25396196D01*
X64048474Y25041623D01*
X64048453Y25032669D01*
X64042106Y25026351D01*
X64041755Y25026213D01*
X63394398Y24783921D01*
X63385449Y24784231D01*
X63382024Y24786606D01*
X63286605Y24882025D01*
X63283178Y24890298D01*
X63283919Y24894394D01*
X63526212Y25541757D01*
X63532322Y25548303D01*
X63541271Y25548613D01*
X63541609Y25548481D01*
G37*
%TD.AperFunction*%
%TD*%
%TA.AperFunction,Conductor*%
%TO.N,/ADC_CS5381K-KSZ/M0*%
G36*
X27155958Y9287622D02*
G01*
X27158203Y9284473D01*
X27814859Y7936446D01*
X27815402Y7927507D01*
X27809465Y7920804D01*
X27808830Y7920517D01*
X27039489Y7600866D01*
X27030534Y7600857D01*
X27030511Y7600866D01*
X26261782Y7920262D01*
X26255457Y7926601D01*
X26255466Y7935556D01*
X26256025Y7936716D01*
X27001661Y9285011D01*
X27008664Y9290593D01*
X27011900Y9291049D01*
X27147685Y9291049D01*
X27155958Y9287622D01*
G37*
%TD.AperFunction*%
%TD*%
%TA.AperFunction,Conductor*%
%TO.N,/ADC_CS5381K-KSZ/M0*%
G36*
X68278076Y27492150D02*
G01*
X68363398Y27456577D01*
X68369716Y27450230D01*
X68369695Y27441276D01*
X68369544Y27440930D01*
X68083120Y26811852D01*
X68076573Y26805742D01*
X68072472Y26805000D01*
X67937528Y26805000D01*
X67929255Y26808427D01*
X67926880Y26811852D01*
X67640455Y27440930D01*
X67640145Y27449879D01*
X67646255Y27456426D01*
X67646601Y27456577D01*
X68000500Y27604125D01*
X68009449Y27604145D01*
X68278076Y27492150D01*
G37*
%TD.AperFunction*%
%TD*%
%TA.AperFunction,Conductor*%
%TO.N,/ADC_CS5381K-KSZ/~{HPF}*%
G36*
X29653107Y9296573D02*
G01*
X29653480Y9296183D01*
X30417477Y8458251D01*
X30420519Y8449829D01*
X30417109Y8442100D01*
X29583278Y7607288D01*
X29575007Y7603856D01*
X29566732Y7607278D01*
X29566722Y7607288D01*
X29344233Y7830039D01*
X28732889Y8442102D01*
X28729468Y8450375D01*
X28732521Y8458250D01*
X29496520Y9296183D01*
X29504627Y9299988D01*
X29505166Y9300000D01*
X29644834Y9300000D01*
X29653107Y9296573D01*
G37*
%TD.AperFunction*%
%TD*%
%TA.AperFunction,Conductor*%
%TO.N,/ADC_CS5381K-KSZ/~{HPF}*%
G36*
X69604478Y19199132D02*
G01*
X69912362Y19070650D01*
X69918677Y19064301D01*
X69918654Y19055346D01*
X69918570Y19055151D01*
X69678071Y18506999D01*
X69671609Y18500800D01*
X69667357Y18500000D01*
X69532643Y18500000D01*
X69524370Y18503427D01*
X69521929Y18506999D01*
X69281429Y19055151D01*
X69281243Y19064104D01*
X69287442Y19070566D01*
X69287582Y19070627D01*
X69595494Y19199121D01*
X69604449Y19199143D01*
X69604478Y19199132D01*
G37*
%TD.AperFunction*%
%TD*%
%TA.AperFunction,Conductor*%
%TO.N,/ADC_CS5381K-KSZ/I2S_SCLK*%
G36*
X49175630Y11396573D02*
G01*
X49178071Y11393001D01*
X49418570Y10844850D01*
X49418756Y10835897D01*
X49412557Y10829435D01*
X49412362Y10829351D01*
X49104506Y10700881D01*
X49095551Y10700858D01*
X49095494Y10700881D01*
X48787637Y10829351D01*
X48781322Y10835700D01*
X48781345Y10844655D01*
X48781429Y10844850D01*
X49021929Y11393001D01*
X49028391Y11399200D01*
X49032643Y11400000D01*
X49167357Y11400000D01*
X49175630Y11396573D01*
G37*
%TD.AperFunction*%
%TD*%
%TA.AperFunction,Conductor*%
%TO.N,/ADC_CS5381K-KSZ/I2S_SCLK*%
G36*
X53251425Y15458745D02*
G01*
X53251576Y15458399D01*
X53399123Y15104502D01*
X53399144Y15095548D01*
X53399123Y15095498D01*
X53251576Y14741602D01*
X53245229Y14735284D01*
X53236275Y14735305D01*
X53235929Y14735456D01*
X52606852Y15021881D01*
X52600742Y15028428D01*
X52600000Y15032529D01*
X52600000Y15167472D01*
X52603427Y15175745D01*
X52606852Y15178120D01*
X53235930Y15464546D01*
X53244878Y15464855D01*
X53251425Y15458745D01*
G37*
%TD.AperFunction*%
%TD*%
M02*
