%TF.GenerationSoftware,KiCad,Pcbnew,8.0.6*%
%TF.CreationDate,2025-12-23T16:16:10-08:00*%
%TF.ProjectId,ADC_CS5381KKSZ_Board,4144435f-4353-4353-9338-314b4b535a5f,rev?*%
%TF.SameCoordinates,PX42c1d80PY5f5e100*%
%TF.FileFunction,Legend,Bot*%
%TF.FilePolarity,Positive*%
%FSLAX46Y46*%
G04 Gerber Fmt 4.6, Leading zero omitted, Abs format (unit mm)*
G04 Created by KiCad (PCBNEW 8.0.6) date 2025-12-23 16:16:10*
%MOMM*%
%LPD*%
G01*
G04 APERTURE LIST*
%ADD10C,0.100000*%
%ADD11C,0.153000*%
%ADD12C,0.200000*%
%ADD13C,0.120000*%
%ADD14C,0.000000*%
G04 APERTURE END LIST*
D10*
X15400000Y21300000D02*
X42200000Y21300000D01*
X42200000Y12300000D01*
X15400000Y12300000D01*
X15400000Y21300000D01*
D11*
X41461247Y19765225D02*
X41461247Y20765225D01*
X41461247Y20765225D02*
X41127914Y20050940D01*
X41127914Y20050940D02*
X40794581Y20765225D01*
X40794581Y20765225D02*
X40794581Y19765225D01*
X40175533Y19765225D02*
X40270771Y19812844D01*
X40270771Y19812844D02*
X40318390Y19860464D01*
X40318390Y19860464D02*
X40366009Y19955702D01*
X40366009Y19955702D02*
X40366009Y20241416D01*
X40366009Y20241416D02*
X40318390Y20336654D01*
X40318390Y20336654D02*
X40270771Y20384273D01*
X40270771Y20384273D02*
X40175533Y20431892D01*
X40175533Y20431892D02*
X40032676Y20431892D01*
X40032676Y20431892D02*
X39937438Y20384273D01*
X39937438Y20384273D02*
X39889819Y20336654D01*
X39889819Y20336654D02*
X39842200Y20241416D01*
X39842200Y20241416D02*
X39842200Y19955702D01*
X39842200Y19955702D02*
X39889819Y19860464D01*
X39889819Y19860464D02*
X39937438Y19812844D01*
X39937438Y19812844D02*
X40032676Y19765225D01*
X40032676Y19765225D02*
X40175533Y19765225D01*
X38985057Y19765225D02*
X38985057Y20765225D01*
X38985057Y19812844D02*
X39080295Y19765225D01*
X39080295Y19765225D02*
X39270771Y19765225D01*
X39270771Y19765225D02*
X39366009Y19812844D01*
X39366009Y19812844D02*
X39413628Y19860464D01*
X39413628Y19860464D02*
X39461247Y19955702D01*
X39461247Y19955702D02*
X39461247Y20241416D01*
X39461247Y20241416D02*
X39413628Y20336654D01*
X39413628Y20336654D02*
X39366009Y20384273D01*
X39366009Y20384273D02*
X39270771Y20431892D01*
X39270771Y20431892D02*
X39080295Y20431892D01*
X39080295Y20431892D02*
X38985057Y20384273D01*
X38127914Y19812844D02*
X38223152Y19765225D01*
X38223152Y19765225D02*
X38413628Y19765225D01*
X38413628Y19765225D02*
X38508866Y19812844D01*
X38508866Y19812844D02*
X38556485Y19908083D01*
X38556485Y19908083D02*
X38556485Y20289035D01*
X38556485Y20289035D02*
X38508866Y20384273D01*
X38508866Y20384273D02*
X38413628Y20431892D01*
X38413628Y20431892D02*
X38223152Y20431892D01*
X38223152Y20431892D02*
X38127914Y20384273D01*
X38127914Y20384273D02*
X38080295Y20289035D01*
X38080295Y20289035D02*
X38080295Y20193797D01*
X38080295Y20193797D02*
X38556485Y20098559D01*
X41461247Y18155281D02*
X41461247Y19155281D01*
X41461247Y19155281D02*
X41127914Y18440996D01*
X41127914Y18440996D02*
X40794581Y19155281D01*
X40794581Y19155281D02*
X40794581Y18155281D01*
X39794581Y18155281D02*
X40366009Y18155281D01*
X40080295Y18155281D02*
X40080295Y19155281D01*
X40080295Y19155281D02*
X40175533Y19012424D01*
X40175533Y19012424D02*
X40270771Y18917186D01*
X40270771Y18917186D02*
X40366009Y18869567D01*
X36318389Y18155281D02*
X36318389Y19155281D01*
X36318389Y19155281D02*
X35985056Y18440996D01*
X35985056Y18440996D02*
X35651723Y19155281D01*
X35651723Y19155281D02*
X35651723Y18155281D01*
X34985056Y19155281D02*
X34889818Y19155281D01*
X34889818Y19155281D02*
X34794580Y19107662D01*
X34794580Y19107662D02*
X34746961Y19060043D01*
X34746961Y19060043D02*
X34699342Y18964805D01*
X34699342Y18964805D02*
X34651723Y18774329D01*
X34651723Y18774329D02*
X34651723Y18536234D01*
X34651723Y18536234D02*
X34699342Y18345758D01*
X34699342Y18345758D02*
X34746961Y18250520D01*
X34746961Y18250520D02*
X34794580Y18202900D01*
X34794580Y18202900D02*
X34889818Y18155281D01*
X34889818Y18155281D02*
X34985056Y18155281D01*
X34985056Y18155281D02*
X35080294Y18202900D01*
X35080294Y18202900D02*
X35127913Y18250520D01*
X35127913Y18250520D02*
X35175532Y18345758D01*
X35175532Y18345758D02*
X35223151Y18536234D01*
X35223151Y18536234D02*
X35223151Y18774329D01*
X35223151Y18774329D02*
X35175532Y18964805D01*
X35175532Y18964805D02*
X35127913Y19060043D01*
X35127913Y19060043D02*
X35080294Y19107662D01*
X35080294Y19107662D02*
X34985056Y19155281D01*
X31746960Y19155281D02*
X31556484Y19155281D01*
X31556484Y19155281D02*
X31461246Y19107662D01*
X31461246Y19107662D02*
X31366008Y19012424D01*
X31366008Y19012424D02*
X31318389Y18821948D01*
X31318389Y18821948D02*
X31318389Y18488615D01*
X31318389Y18488615D02*
X31366008Y18298139D01*
X31366008Y18298139D02*
X31461246Y18202900D01*
X31461246Y18202900D02*
X31556484Y18155281D01*
X31556484Y18155281D02*
X31746960Y18155281D01*
X31746960Y18155281D02*
X31842198Y18202900D01*
X31842198Y18202900D02*
X31937436Y18298139D01*
X31937436Y18298139D02*
X31985055Y18488615D01*
X31985055Y18488615D02*
X31985055Y18821948D01*
X31985055Y18821948D02*
X31937436Y19012424D01*
X31937436Y19012424D02*
X31842198Y19107662D01*
X31842198Y19107662D02*
X31746960Y19155281D01*
X30461246Y18821948D02*
X30461246Y18155281D01*
X30889817Y18821948D02*
X30889817Y18298139D01*
X30889817Y18298139D02*
X30842198Y18202900D01*
X30842198Y18202900D02*
X30746960Y18155281D01*
X30746960Y18155281D02*
X30604103Y18155281D01*
X30604103Y18155281D02*
X30508865Y18202900D01*
X30508865Y18202900D02*
X30461246Y18250520D01*
X30127912Y18821948D02*
X29746960Y18821948D01*
X29985055Y19155281D02*
X29985055Y18298139D01*
X29985055Y18298139D02*
X29937436Y18202900D01*
X29937436Y18202900D02*
X29842198Y18155281D01*
X29842198Y18155281D02*
X29746960Y18155281D01*
X29413626Y18821948D02*
X29413626Y17821948D01*
X29413626Y18774329D02*
X29318388Y18821948D01*
X29318388Y18821948D02*
X29127912Y18821948D01*
X29127912Y18821948D02*
X29032674Y18774329D01*
X29032674Y18774329D02*
X28985055Y18726710D01*
X28985055Y18726710D02*
X28937436Y18631472D01*
X28937436Y18631472D02*
X28937436Y18345758D01*
X28937436Y18345758D02*
X28985055Y18250520D01*
X28985055Y18250520D02*
X29032674Y18202900D01*
X29032674Y18202900D02*
X29127912Y18155281D01*
X29127912Y18155281D02*
X29318388Y18155281D01*
X29318388Y18155281D02*
X29413626Y18202900D01*
X28080293Y18821948D02*
X28080293Y18155281D01*
X28508864Y18821948D02*
X28508864Y18298139D01*
X28508864Y18298139D02*
X28461245Y18202900D01*
X28461245Y18202900D02*
X28366007Y18155281D01*
X28366007Y18155281D02*
X28223150Y18155281D01*
X28223150Y18155281D02*
X28127912Y18202900D01*
X28127912Y18202900D02*
X28080293Y18250520D01*
X27746959Y18821948D02*
X27366007Y18821948D01*
X27604102Y19155281D02*
X27604102Y18298139D01*
X27604102Y18298139D02*
X27556483Y18202900D01*
X27556483Y18202900D02*
X27461245Y18155281D01*
X27461245Y18155281D02*
X27366007Y18155281D01*
X26318387Y18202900D02*
X26175530Y18155281D01*
X26175530Y18155281D02*
X25937435Y18155281D01*
X25937435Y18155281D02*
X25842197Y18202900D01*
X25842197Y18202900D02*
X25794578Y18250520D01*
X25794578Y18250520D02*
X25746959Y18345758D01*
X25746959Y18345758D02*
X25746959Y18440996D01*
X25746959Y18440996D02*
X25794578Y18536234D01*
X25794578Y18536234D02*
X25842197Y18583853D01*
X25842197Y18583853D02*
X25937435Y18631472D01*
X25937435Y18631472D02*
X26127911Y18679091D01*
X26127911Y18679091D02*
X26223149Y18726710D01*
X26223149Y18726710D02*
X26270768Y18774329D01*
X26270768Y18774329D02*
X26318387Y18869567D01*
X26318387Y18869567D02*
X26318387Y18964805D01*
X26318387Y18964805D02*
X26270768Y19060043D01*
X26270768Y19060043D02*
X26223149Y19107662D01*
X26223149Y19107662D02*
X26127911Y19155281D01*
X26127911Y19155281D02*
X25889816Y19155281D01*
X25889816Y19155281D02*
X25746959Y19107662D01*
X24889816Y18155281D02*
X24889816Y18679091D01*
X24889816Y18679091D02*
X24937435Y18774329D01*
X24937435Y18774329D02*
X25032673Y18821948D01*
X25032673Y18821948D02*
X25223149Y18821948D01*
X25223149Y18821948D02*
X25318387Y18774329D01*
X24889816Y18202900D02*
X24985054Y18155281D01*
X24985054Y18155281D02*
X25223149Y18155281D01*
X25223149Y18155281D02*
X25318387Y18202900D01*
X25318387Y18202900D02*
X25366006Y18298139D01*
X25366006Y18298139D02*
X25366006Y18393377D01*
X25366006Y18393377D02*
X25318387Y18488615D01*
X25318387Y18488615D02*
X25223149Y18536234D01*
X25223149Y18536234D02*
X24985054Y18536234D01*
X24985054Y18536234D02*
X24889816Y18583853D01*
X24413625Y18155281D02*
X24413625Y18821948D01*
X24413625Y18726710D02*
X24366006Y18774329D01*
X24366006Y18774329D02*
X24270768Y18821948D01*
X24270768Y18821948D02*
X24127911Y18821948D01*
X24127911Y18821948D02*
X24032673Y18774329D01*
X24032673Y18774329D02*
X23985054Y18679091D01*
X23985054Y18679091D02*
X23985054Y18155281D01*
X23985054Y18679091D02*
X23937435Y18774329D01*
X23937435Y18774329D02*
X23842197Y18821948D01*
X23842197Y18821948D02*
X23699340Y18821948D01*
X23699340Y18821948D02*
X23604101Y18774329D01*
X23604101Y18774329D02*
X23556482Y18679091D01*
X23556482Y18679091D02*
X23556482Y18155281D01*
X23080292Y18821948D02*
X23080292Y17821948D01*
X23080292Y18774329D02*
X22985054Y18821948D01*
X22985054Y18821948D02*
X22794578Y18821948D01*
X22794578Y18821948D02*
X22699340Y18774329D01*
X22699340Y18774329D02*
X22651721Y18726710D01*
X22651721Y18726710D02*
X22604102Y18631472D01*
X22604102Y18631472D02*
X22604102Y18345758D01*
X22604102Y18345758D02*
X22651721Y18250520D01*
X22651721Y18250520D02*
X22699340Y18202900D01*
X22699340Y18202900D02*
X22794578Y18155281D01*
X22794578Y18155281D02*
X22985054Y18155281D01*
X22985054Y18155281D02*
X23080292Y18202900D01*
X22032673Y18155281D02*
X22127911Y18202900D01*
X22127911Y18202900D02*
X22175530Y18298139D01*
X22175530Y18298139D02*
X22175530Y19155281D01*
X21270768Y18202900D02*
X21366006Y18155281D01*
X21366006Y18155281D02*
X21556482Y18155281D01*
X21556482Y18155281D02*
X21651720Y18202900D01*
X21651720Y18202900D02*
X21699339Y18298139D01*
X21699339Y18298139D02*
X21699339Y18679091D01*
X21699339Y18679091D02*
X21651720Y18774329D01*
X21651720Y18774329D02*
X21556482Y18821948D01*
X21556482Y18821948D02*
X21366006Y18821948D01*
X21366006Y18821948D02*
X21270768Y18774329D01*
X21270768Y18774329D02*
X21223149Y18679091D01*
X21223149Y18679091D02*
X21223149Y18583853D01*
X21223149Y18583853D02*
X21699339Y18488615D01*
X19461244Y18155281D02*
X19794577Y18631472D01*
X20032672Y18155281D02*
X20032672Y19155281D01*
X20032672Y19155281D02*
X19651720Y19155281D01*
X19651720Y19155281D02*
X19556482Y19107662D01*
X19556482Y19107662D02*
X19508863Y19060043D01*
X19508863Y19060043D02*
X19461244Y18964805D01*
X19461244Y18964805D02*
X19461244Y18821948D01*
X19461244Y18821948D02*
X19508863Y18726710D01*
X19508863Y18726710D02*
X19556482Y18679091D01*
X19556482Y18679091D02*
X19651720Y18631472D01*
X19651720Y18631472D02*
X20032672Y18631472D01*
X18604101Y18155281D02*
X18604101Y18679091D01*
X18604101Y18679091D02*
X18651720Y18774329D01*
X18651720Y18774329D02*
X18746958Y18821948D01*
X18746958Y18821948D02*
X18937434Y18821948D01*
X18937434Y18821948D02*
X19032672Y18774329D01*
X18604101Y18202900D02*
X18699339Y18155281D01*
X18699339Y18155281D02*
X18937434Y18155281D01*
X18937434Y18155281D02*
X19032672Y18202900D01*
X19032672Y18202900D02*
X19080291Y18298139D01*
X19080291Y18298139D02*
X19080291Y18393377D01*
X19080291Y18393377D02*
X19032672Y18488615D01*
X19032672Y18488615D02*
X18937434Y18536234D01*
X18937434Y18536234D02*
X18699339Y18536234D01*
X18699339Y18536234D02*
X18604101Y18583853D01*
X18270767Y18821948D02*
X17889815Y18821948D01*
X18127910Y19155281D02*
X18127910Y18298139D01*
X18127910Y18298139D02*
X18080291Y18202900D01*
X18080291Y18202900D02*
X17985053Y18155281D01*
X17985053Y18155281D02*
X17889815Y18155281D01*
X17175529Y18202900D02*
X17270767Y18155281D01*
X17270767Y18155281D02*
X17461243Y18155281D01*
X17461243Y18155281D02*
X17556481Y18202900D01*
X17556481Y18202900D02*
X17604100Y18298139D01*
X17604100Y18298139D02*
X17604100Y18679091D01*
X17604100Y18679091D02*
X17556481Y18774329D01*
X17556481Y18774329D02*
X17461243Y18821948D01*
X17461243Y18821948D02*
X17270767Y18821948D01*
X17270767Y18821948D02*
X17175529Y18774329D01*
X17175529Y18774329D02*
X17127910Y18679091D01*
X17127910Y18679091D02*
X17127910Y18583853D01*
X17127910Y18583853D02*
X17604100Y18488615D01*
X40508866Y17545337D02*
X40413628Y17545337D01*
X40413628Y17545337D02*
X40318390Y17497718D01*
X40318390Y17497718D02*
X40270771Y17450099D01*
X40270771Y17450099D02*
X40223152Y17354861D01*
X40223152Y17354861D02*
X40175533Y17164385D01*
X40175533Y17164385D02*
X40175533Y16926290D01*
X40175533Y16926290D02*
X40223152Y16735814D01*
X40223152Y16735814D02*
X40270771Y16640576D01*
X40270771Y16640576D02*
X40318390Y16592956D01*
X40318390Y16592956D02*
X40413628Y16545337D01*
X40413628Y16545337D02*
X40508866Y16545337D01*
X40508866Y16545337D02*
X40604104Y16592956D01*
X40604104Y16592956D02*
X40651723Y16640576D01*
X40651723Y16640576D02*
X40699342Y16735814D01*
X40699342Y16735814D02*
X40746961Y16926290D01*
X40746961Y16926290D02*
X40746961Y17164385D01*
X40746961Y17164385D02*
X40699342Y17354861D01*
X40699342Y17354861D02*
X40651723Y17450099D01*
X40651723Y17450099D02*
X40604104Y17497718D01*
X40604104Y17497718D02*
X40508866Y17545337D01*
X35746960Y17545337D02*
X35651722Y17545337D01*
X35651722Y17545337D02*
X35556484Y17497718D01*
X35556484Y17497718D02*
X35508865Y17450099D01*
X35508865Y17450099D02*
X35461246Y17354861D01*
X35461246Y17354861D02*
X35413627Y17164385D01*
X35413627Y17164385D02*
X35413627Y16926290D01*
X35413627Y16926290D02*
X35461246Y16735814D01*
X35461246Y16735814D02*
X35508865Y16640576D01*
X35508865Y16640576D02*
X35556484Y16592956D01*
X35556484Y16592956D02*
X35651722Y16545337D01*
X35651722Y16545337D02*
X35746960Y16545337D01*
X35746960Y16545337D02*
X35842198Y16592956D01*
X35842198Y16592956D02*
X35889817Y16640576D01*
X35889817Y16640576D02*
X35937436Y16735814D01*
X35937436Y16735814D02*
X35985055Y16926290D01*
X35985055Y16926290D02*
X35985055Y17164385D01*
X35985055Y17164385D02*
X35937436Y17354861D01*
X35937436Y17354861D02*
X35889817Y17450099D01*
X35889817Y17450099D02*
X35842198Y17497718D01*
X35842198Y17497718D02*
X35746960Y17545337D01*
X31985054Y17450099D02*
X31937435Y17497718D01*
X31937435Y17497718D02*
X31842197Y17545337D01*
X31842197Y17545337D02*
X31604102Y17545337D01*
X31604102Y17545337D02*
X31508864Y17497718D01*
X31508864Y17497718D02*
X31461245Y17450099D01*
X31461245Y17450099D02*
X31413626Y17354861D01*
X31413626Y17354861D02*
X31413626Y17259623D01*
X31413626Y17259623D02*
X31461245Y17116766D01*
X31461245Y17116766D02*
X32032673Y16545337D01*
X32032673Y16545337D02*
X31413626Y16545337D01*
X30985054Y16545337D02*
X30985054Y17545337D01*
X30889816Y16926290D02*
X30604102Y16545337D01*
X30604102Y17212004D02*
X30985054Y16831052D01*
X30175530Y16545337D02*
X30175530Y17545337D01*
X30175530Y17069147D02*
X29604102Y17069147D01*
X29604102Y16545337D02*
X29604102Y17545337D01*
X29223149Y17212004D02*
X28699340Y17212004D01*
X28699340Y17212004D02*
X29223149Y16545337D01*
X29223149Y16545337D02*
X28699340Y16545337D01*
X27556482Y16926290D02*
X26794578Y16926290D01*
X25080292Y17545337D02*
X25556482Y17545337D01*
X25556482Y17545337D02*
X25604101Y17069147D01*
X25604101Y17069147D02*
X25556482Y17116766D01*
X25556482Y17116766D02*
X25461244Y17164385D01*
X25461244Y17164385D02*
X25223149Y17164385D01*
X25223149Y17164385D02*
X25127911Y17116766D01*
X25127911Y17116766D02*
X25080292Y17069147D01*
X25080292Y17069147D02*
X25032673Y16973909D01*
X25032673Y16973909D02*
X25032673Y16735814D01*
X25032673Y16735814D02*
X25080292Y16640576D01*
X25080292Y16640576D02*
X25127911Y16592956D01*
X25127911Y16592956D02*
X25223149Y16545337D01*
X25223149Y16545337D02*
X25461244Y16545337D01*
X25461244Y16545337D02*
X25556482Y16592956D01*
X25556482Y16592956D02*
X25604101Y16640576D01*
X24413625Y17545337D02*
X24318387Y17545337D01*
X24318387Y17545337D02*
X24223149Y17497718D01*
X24223149Y17497718D02*
X24175530Y17450099D01*
X24175530Y17450099D02*
X24127911Y17354861D01*
X24127911Y17354861D02*
X24080292Y17164385D01*
X24080292Y17164385D02*
X24080292Y16926290D01*
X24080292Y16926290D02*
X24127911Y16735814D01*
X24127911Y16735814D02*
X24175530Y16640576D01*
X24175530Y16640576D02*
X24223149Y16592956D01*
X24223149Y16592956D02*
X24318387Y16545337D01*
X24318387Y16545337D02*
X24413625Y16545337D01*
X24413625Y16545337D02*
X24508863Y16592956D01*
X24508863Y16592956D02*
X24556482Y16640576D01*
X24556482Y16640576D02*
X24604101Y16735814D01*
X24604101Y16735814D02*
X24651720Y16926290D01*
X24651720Y16926290D02*
X24651720Y17164385D01*
X24651720Y17164385D02*
X24604101Y17354861D01*
X24604101Y17354861D02*
X24556482Y17450099D01*
X24556482Y17450099D02*
X24508863Y17497718D01*
X24508863Y17497718D02*
X24413625Y17545337D01*
X22889815Y16545337D02*
X22889815Y17545337D01*
X22794577Y16926290D02*
X22508863Y16545337D01*
X22508863Y17212004D02*
X22889815Y16831052D01*
X22080291Y16545337D02*
X22080291Y17545337D01*
X22080291Y17069147D02*
X21508863Y17069147D01*
X21508863Y16545337D02*
X21508863Y17545337D01*
X21127910Y17212004D02*
X20604101Y17212004D01*
X20604101Y17212004D02*
X21127910Y16545337D01*
X21127910Y16545337D02*
X20604101Y16545337D01*
X40508866Y15935393D02*
X40413628Y15935393D01*
X40413628Y15935393D02*
X40318390Y15887774D01*
X40318390Y15887774D02*
X40270771Y15840155D01*
X40270771Y15840155D02*
X40223152Y15744917D01*
X40223152Y15744917D02*
X40175533Y15554441D01*
X40175533Y15554441D02*
X40175533Y15316346D01*
X40175533Y15316346D02*
X40223152Y15125870D01*
X40223152Y15125870D02*
X40270771Y15030632D01*
X40270771Y15030632D02*
X40318390Y14983012D01*
X40318390Y14983012D02*
X40413628Y14935393D01*
X40413628Y14935393D02*
X40508866Y14935393D01*
X40508866Y14935393D02*
X40604104Y14983012D01*
X40604104Y14983012D02*
X40651723Y15030632D01*
X40651723Y15030632D02*
X40699342Y15125870D01*
X40699342Y15125870D02*
X40746961Y15316346D01*
X40746961Y15316346D02*
X40746961Y15554441D01*
X40746961Y15554441D02*
X40699342Y15744917D01*
X40699342Y15744917D02*
X40651723Y15840155D01*
X40651723Y15840155D02*
X40604104Y15887774D01*
X40604104Y15887774D02*
X40508866Y15935393D01*
X35413627Y14935393D02*
X35985055Y14935393D01*
X35699341Y14935393D02*
X35699341Y15935393D01*
X35699341Y15935393D02*
X35794579Y15792536D01*
X35794579Y15792536D02*
X35889817Y15697298D01*
X35889817Y15697298D02*
X35985055Y15649679D01*
X31461245Y15935393D02*
X31937435Y15935393D01*
X31937435Y15935393D02*
X31985054Y15459203D01*
X31985054Y15459203D02*
X31937435Y15506822D01*
X31937435Y15506822D02*
X31842197Y15554441D01*
X31842197Y15554441D02*
X31604102Y15554441D01*
X31604102Y15554441D02*
X31508864Y15506822D01*
X31508864Y15506822D02*
X31461245Y15459203D01*
X31461245Y15459203D02*
X31413626Y15363965D01*
X31413626Y15363965D02*
X31413626Y15125870D01*
X31413626Y15125870D02*
X31461245Y15030632D01*
X31461245Y15030632D02*
X31508864Y14983012D01*
X31508864Y14983012D02*
X31604102Y14935393D01*
X31604102Y14935393D02*
X31842197Y14935393D01*
X31842197Y14935393D02*
X31937435Y14983012D01*
X31937435Y14983012D02*
X31985054Y15030632D01*
X30794578Y15935393D02*
X30699340Y15935393D01*
X30699340Y15935393D02*
X30604102Y15887774D01*
X30604102Y15887774D02*
X30556483Y15840155D01*
X30556483Y15840155D02*
X30508864Y15744917D01*
X30508864Y15744917D02*
X30461245Y15554441D01*
X30461245Y15554441D02*
X30461245Y15316346D01*
X30461245Y15316346D02*
X30508864Y15125870D01*
X30508864Y15125870D02*
X30556483Y15030632D01*
X30556483Y15030632D02*
X30604102Y14983012D01*
X30604102Y14983012D02*
X30699340Y14935393D01*
X30699340Y14935393D02*
X30794578Y14935393D01*
X30794578Y14935393D02*
X30889816Y14983012D01*
X30889816Y14983012D02*
X30937435Y15030632D01*
X30937435Y15030632D02*
X30985054Y15125870D01*
X30985054Y15125870D02*
X31032673Y15316346D01*
X31032673Y15316346D02*
X31032673Y15554441D01*
X31032673Y15554441D02*
X30985054Y15744917D01*
X30985054Y15744917D02*
X30937435Y15840155D01*
X30937435Y15840155D02*
X30889816Y15887774D01*
X30889816Y15887774D02*
X30794578Y15935393D01*
X29270768Y14935393D02*
X29270768Y15935393D01*
X29175530Y15316346D02*
X28889816Y14935393D01*
X28889816Y15602060D02*
X29270768Y15221108D01*
X28461244Y14935393D02*
X28461244Y15935393D01*
X28461244Y15459203D02*
X27889816Y15459203D01*
X27889816Y14935393D02*
X27889816Y15935393D01*
X27508863Y15602060D02*
X26985054Y15602060D01*
X26985054Y15602060D02*
X27508863Y14935393D01*
X27508863Y14935393D02*
X26985054Y14935393D01*
X25842196Y15316346D02*
X25080292Y15316346D01*
X23318387Y14935393D02*
X23889815Y14935393D01*
X23604101Y14935393D02*
X23604101Y15935393D01*
X23604101Y15935393D02*
X23699339Y15792536D01*
X23699339Y15792536D02*
X23794577Y15697298D01*
X23794577Y15697298D02*
X23889815Y15649679D01*
X22699339Y15935393D02*
X22604101Y15935393D01*
X22604101Y15935393D02*
X22508863Y15887774D01*
X22508863Y15887774D02*
X22461244Y15840155D01*
X22461244Y15840155D02*
X22413625Y15744917D01*
X22413625Y15744917D02*
X22366006Y15554441D01*
X22366006Y15554441D02*
X22366006Y15316346D01*
X22366006Y15316346D02*
X22413625Y15125870D01*
X22413625Y15125870D02*
X22461244Y15030632D01*
X22461244Y15030632D02*
X22508863Y14983012D01*
X22508863Y14983012D02*
X22604101Y14935393D01*
X22604101Y14935393D02*
X22699339Y14935393D01*
X22699339Y14935393D02*
X22794577Y14983012D01*
X22794577Y14983012D02*
X22842196Y15030632D01*
X22842196Y15030632D02*
X22889815Y15125870D01*
X22889815Y15125870D02*
X22937434Y15316346D01*
X22937434Y15316346D02*
X22937434Y15554441D01*
X22937434Y15554441D02*
X22889815Y15744917D01*
X22889815Y15744917D02*
X22842196Y15840155D01*
X22842196Y15840155D02*
X22794577Y15887774D01*
X22794577Y15887774D02*
X22699339Y15935393D01*
X21794577Y15506822D02*
X21889815Y15554441D01*
X21889815Y15554441D02*
X21937434Y15602060D01*
X21937434Y15602060D02*
X21985053Y15697298D01*
X21985053Y15697298D02*
X21985053Y15744917D01*
X21985053Y15744917D02*
X21937434Y15840155D01*
X21937434Y15840155D02*
X21889815Y15887774D01*
X21889815Y15887774D02*
X21794577Y15935393D01*
X21794577Y15935393D02*
X21604101Y15935393D01*
X21604101Y15935393D02*
X21508863Y15887774D01*
X21508863Y15887774D02*
X21461244Y15840155D01*
X21461244Y15840155D02*
X21413625Y15744917D01*
X21413625Y15744917D02*
X21413625Y15697298D01*
X21413625Y15697298D02*
X21461244Y15602060D01*
X21461244Y15602060D02*
X21508863Y15554441D01*
X21508863Y15554441D02*
X21604101Y15506822D01*
X21604101Y15506822D02*
X21794577Y15506822D01*
X21794577Y15506822D02*
X21889815Y15459203D01*
X21889815Y15459203D02*
X21937434Y15411584D01*
X21937434Y15411584D02*
X21985053Y15316346D01*
X21985053Y15316346D02*
X21985053Y15125870D01*
X21985053Y15125870D02*
X21937434Y15030632D01*
X21937434Y15030632D02*
X21889815Y14983012D01*
X21889815Y14983012D02*
X21794577Y14935393D01*
X21794577Y14935393D02*
X21604101Y14935393D01*
X21604101Y14935393D02*
X21508863Y14983012D01*
X21508863Y14983012D02*
X21461244Y15030632D01*
X21461244Y15030632D02*
X21413625Y15125870D01*
X21413625Y15125870D02*
X21413625Y15316346D01*
X21413625Y15316346D02*
X21461244Y15411584D01*
X21461244Y15411584D02*
X21508863Y15459203D01*
X21508863Y15459203D02*
X21604101Y15506822D01*
X20223148Y14935393D02*
X20223148Y15935393D01*
X20127910Y15316346D02*
X19842196Y14935393D01*
X19842196Y15602060D02*
X20223148Y15221108D01*
X19413624Y14935393D02*
X19413624Y15935393D01*
X19413624Y15459203D02*
X18842196Y15459203D01*
X18842196Y14935393D02*
X18842196Y15935393D01*
X18461243Y15602060D02*
X17937434Y15602060D01*
X17937434Y15602060D02*
X18461243Y14935393D01*
X18461243Y14935393D02*
X17937434Y14935393D01*
X40175533Y13325449D02*
X40746961Y13325449D01*
X40461247Y13325449D02*
X40461247Y14325449D01*
X40461247Y14325449D02*
X40556485Y14182592D01*
X40556485Y14182592D02*
X40651723Y14087354D01*
X40651723Y14087354D02*
X40746961Y14039735D01*
X35746960Y14325449D02*
X35651722Y14325449D01*
X35651722Y14325449D02*
X35556484Y14277830D01*
X35556484Y14277830D02*
X35508865Y14230211D01*
X35508865Y14230211D02*
X35461246Y14134973D01*
X35461246Y14134973D02*
X35413627Y13944497D01*
X35413627Y13944497D02*
X35413627Y13706402D01*
X35413627Y13706402D02*
X35461246Y13515926D01*
X35461246Y13515926D02*
X35508865Y13420688D01*
X35508865Y13420688D02*
X35556484Y13373068D01*
X35556484Y13373068D02*
X35651722Y13325449D01*
X35651722Y13325449D02*
X35746960Y13325449D01*
X35746960Y13325449D02*
X35842198Y13373068D01*
X35842198Y13373068D02*
X35889817Y13420688D01*
X35889817Y13420688D02*
X35937436Y13515926D01*
X35937436Y13515926D02*
X35985055Y13706402D01*
X35985055Y13706402D02*
X35985055Y13944497D01*
X35985055Y13944497D02*
X35937436Y14134973D01*
X35937436Y14134973D02*
X35889817Y14230211D01*
X35889817Y14230211D02*
X35842198Y14277830D01*
X35842198Y14277830D02*
X35746960Y14325449D01*
X31413626Y13325449D02*
X31985054Y13325449D01*
X31699340Y13325449D02*
X31699340Y14325449D01*
X31699340Y14325449D02*
X31794578Y14182592D01*
X31794578Y14182592D02*
X31889816Y14087354D01*
X31889816Y14087354D02*
X31985054Y14039735D01*
X30794578Y14325449D02*
X30699340Y14325449D01*
X30699340Y14325449D02*
X30604102Y14277830D01*
X30604102Y14277830D02*
X30556483Y14230211D01*
X30556483Y14230211D02*
X30508864Y14134973D01*
X30508864Y14134973D02*
X30461245Y13944497D01*
X30461245Y13944497D02*
X30461245Y13706402D01*
X30461245Y13706402D02*
X30508864Y13515926D01*
X30508864Y13515926D02*
X30556483Y13420688D01*
X30556483Y13420688D02*
X30604102Y13373068D01*
X30604102Y13373068D02*
X30699340Y13325449D01*
X30699340Y13325449D02*
X30794578Y13325449D01*
X30794578Y13325449D02*
X30889816Y13373068D01*
X30889816Y13373068D02*
X30937435Y13420688D01*
X30937435Y13420688D02*
X30985054Y13515926D01*
X30985054Y13515926D02*
X31032673Y13706402D01*
X31032673Y13706402D02*
X31032673Y13944497D01*
X31032673Y13944497D02*
X30985054Y14134973D01*
X30985054Y14134973D02*
X30937435Y14230211D01*
X30937435Y14230211D02*
X30889816Y14277830D01*
X30889816Y14277830D02*
X30794578Y14325449D01*
X29842197Y14325449D02*
X29746959Y14325449D01*
X29746959Y14325449D02*
X29651721Y14277830D01*
X29651721Y14277830D02*
X29604102Y14230211D01*
X29604102Y14230211D02*
X29556483Y14134973D01*
X29556483Y14134973D02*
X29508864Y13944497D01*
X29508864Y13944497D02*
X29508864Y13706402D01*
X29508864Y13706402D02*
X29556483Y13515926D01*
X29556483Y13515926D02*
X29604102Y13420688D01*
X29604102Y13420688D02*
X29651721Y13373068D01*
X29651721Y13373068D02*
X29746959Y13325449D01*
X29746959Y13325449D02*
X29842197Y13325449D01*
X29842197Y13325449D02*
X29937435Y13373068D01*
X29937435Y13373068D02*
X29985054Y13420688D01*
X29985054Y13420688D02*
X30032673Y13515926D01*
X30032673Y13515926D02*
X30080292Y13706402D01*
X30080292Y13706402D02*
X30080292Y13944497D01*
X30080292Y13944497D02*
X30032673Y14134973D01*
X30032673Y14134973D02*
X29985054Y14230211D01*
X29985054Y14230211D02*
X29937435Y14277830D01*
X29937435Y14277830D02*
X29842197Y14325449D01*
X28318387Y13325449D02*
X28318387Y14325449D01*
X28223149Y13706402D02*
X27937435Y13325449D01*
X27937435Y13992116D02*
X28318387Y13611164D01*
X27508863Y13325449D02*
X27508863Y14325449D01*
X27508863Y13849259D02*
X26937435Y13849259D01*
X26937435Y13325449D02*
X26937435Y14325449D01*
X26556482Y13992116D02*
X26032673Y13992116D01*
X26032673Y13992116D02*
X26556482Y13325449D01*
X26556482Y13325449D02*
X26032673Y13325449D01*
X24889815Y13706402D02*
X24127911Y13706402D01*
X22937434Y14230211D02*
X22889815Y14277830D01*
X22889815Y14277830D02*
X22794577Y14325449D01*
X22794577Y14325449D02*
X22556482Y14325449D01*
X22556482Y14325449D02*
X22461244Y14277830D01*
X22461244Y14277830D02*
X22413625Y14230211D01*
X22413625Y14230211D02*
X22366006Y14134973D01*
X22366006Y14134973D02*
X22366006Y14039735D01*
X22366006Y14039735D02*
X22413625Y13896878D01*
X22413625Y13896878D02*
X22985053Y13325449D01*
X22985053Y13325449D02*
X22366006Y13325449D01*
X21413625Y13325449D02*
X21985053Y13325449D01*
X21699339Y13325449D02*
X21699339Y14325449D01*
X21699339Y14325449D02*
X21794577Y14182592D01*
X21794577Y14182592D02*
X21889815Y14087354D01*
X21889815Y14087354D02*
X21985053Y14039735D01*
X20556482Y14325449D02*
X20746958Y14325449D01*
X20746958Y14325449D02*
X20842196Y14277830D01*
X20842196Y14277830D02*
X20889815Y14230211D01*
X20889815Y14230211D02*
X20985053Y14087354D01*
X20985053Y14087354D02*
X21032672Y13896878D01*
X21032672Y13896878D02*
X21032672Y13515926D01*
X21032672Y13515926D02*
X20985053Y13420688D01*
X20985053Y13420688D02*
X20937434Y13373068D01*
X20937434Y13373068D02*
X20842196Y13325449D01*
X20842196Y13325449D02*
X20651720Y13325449D01*
X20651720Y13325449D02*
X20556482Y13373068D01*
X20556482Y13373068D02*
X20508863Y13420688D01*
X20508863Y13420688D02*
X20461244Y13515926D01*
X20461244Y13515926D02*
X20461244Y13754021D01*
X20461244Y13754021D02*
X20508863Y13849259D01*
X20508863Y13849259D02*
X20556482Y13896878D01*
X20556482Y13896878D02*
X20651720Y13944497D01*
X20651720Y13944497D02*
X20842196Y13944497D01*
X20842196Y13944497D02*
X20937434Y13896878D01*
X20937434Y13896878D02*
X20985053Y13849259D01*
X20985053Y13849259D02*
X21032672Y13754021D01*
X19270767Y13325449D02*
X19270767Y14325449D01*
X19175529Y13706402D02*
X18889815Y13325449D01*
X18889815Y13992116D02*
X19270767Y13611164D01*
X18461243Y13325449D02*
X18461243Y14325449D01*
X18032672Y13325449D02*
X18032672Y13849259D01*
X18032672Y13849259D02*
X18080291Y13944497D01*
X18080291Y13944497D02*
X18175529Y13992116D01*
X18175529Y13992116D02*
X18318386Y13992116D01*
X18318386Y13992116D02*
X18413624Y13944497D01*
X18413624Y13944497D02*
X18461243Y13896878D01*
X17651719Y13992116D02*
X17127910Y13992116D01*
X17127910Y13992116D02*
X17651719Y13325449D01*
X17651719Y13325449D02*
X17127910Y13325449D01*
X16537438Y5797718D02*
X16632676Y5845337D01*
X16632676Y5845337D02*
X16775533Y5845337D01*
X16775533Y5845337D02*
X16918390Y5797718D01*
X16918390Y5797718D02*
X17013628Y5702480D01*
X17013628Y5702480D02*
X17061247Y5607242D01*
X17061247Y5607242D02*
X17108866Y5416766D01*
X17108866Y5416766D02*
X17108866Y5273909D01*
X17108866Y5273909D02*
X17061247Y5083433D01*
X17061247Y5083433D02*
X17013628Y4988195D01*
X17013628Y4988195D02*
X16918390Y4892956D01*
X16918390Y4892956D02*
X16775533Y4845337D01*
X16775533Y4845337D02*
X16680295Y4845337D01*
X16680295Y4845337D02*
X16537438Y4892956D01*
X16537438Y4892956D02*
X16489819Y4940576D01*
X16489819Y4940576D02*
X16489819Y5273909D01*
X16489819Y5273909D02*
X16680295Y5273909D01*
X16061247Y4845337D02*
X16061247Y5845337D01*
X16061247Y5845337D02*
X15489819Y4845337D01*
X15489819Y4845337D02*
X15489819Y5845337D01*
X15013628Y4845337D02*
X15013628Y5845337D01*
X15013628Y5845337D02*
X14775533Y5845337D01*
X14775533Y5845337D02*
X14632676Y5797718D01*
X14632676Y5797718D02*
X14537438Y5702480D01*
X14537438Y5702480D02*
X14489819Y5607242D01*
X14489819Y5607242D02*
X14442200Y5416766D01*
X14442200Y5416766D02*
X14442200Y5273909D01*
X14442200Y5273909D02*
X14489819Y5083433D01*
X14489819Y5083433D02*
X14537438Y4988195D01*
X14537438Y4988195D02*
X14632676Y4892956D01*
X14632676Y4892956D02*
X14775533Y4845337D01*
X14775533Y4845337D02*
X15013628Y4845337D01*
D10*
X17800000Y3800000D02*
X17800000Y6700000D01*
X31200000Y3800000D02*
X17800000Y3800000D01*
X31200000Y6700000D02*
X31200000Y3800000D01*
X17800000Y6700000D02*
X31200000Y6700000D01*
D11*
X41508866Y35165856D02*
X41032676Y35165856D01*
X41604104Y34880141D02*
X41270771Y35880141D01*
X41270771Y35880141D02*
X40937438Y34880141D01*
X40604104Y34880141D02*
X40604104Y35880141D01*
X40604104Y35880141D02*
X40366009Y35880141D01*
X40366009Y35880141D02*
X40223152Y35832522D01*
X40223152Y35832522D02*
X40127914Y35737284D01*
X40127914Y35737284D02*
X40080295Y35642046D01*
X40080295Y35642046D02*
X40032676Y35451570D01*
X40032676Y35451570D02*
X40032676Y35308713D01*
X40032676Y35308713D02*
X40080295Y35118237D01*
X40080295Y35118237D02*
X40127914Y35022999D01*
X40127914Y35022999D02*
X40223152Y34927760D01*
X40223152Y34927760D02*
X40366009Y34880141D01*
X40366009Y34880141D02*
X40604104Y34880141D01*
X39032676Y34975380D02*
X39080295Y34927760D01*
X39080295Y34927760D02*
X39223152Y34880141D01*
X39223152Y34880141D02*
X39318390Y34880141D01*
X39318390Y34880141D02*
X39461247Y34927760D01*
X39461247Y34927760D02*
X39556485Y35022999D01*
X39556485Y35022999D02*
X39604104Y35118237D01*
X39604104Y35118237D02*
X39651723Y35308713D01*
X39651723Y35308713D02*
X39651723Y35451570D01*
X39651723Y35451570D02*
X39604104Y35642046D01*
X39604104Y35642046D02*
X39556485Y35737284D01*
X39556485Y35737284D02*
X39461247Y35832522D01*
X39461247Y35832522D02*
X39318390Y35880141D01*
X39318390Y35880141D02*
X39223152Y35880141D01*
X39223152Y35880141D02*
X39080295Y35832522D01*
X39080295Y35832522D02*
X39032676Y35784903D01*
X37508866Y35403951D02*
X37366009Y35356332D01*
X37366009Y35356332D02*
X37318390Y35308713D01*
X37318390Y35308713D02*
X37270771Y35213475D01*
X37270771Y35213475D02*
X37270771Y35070618D01*
X37270771Y35070618D02*
X37318390Y34975380D01*
X37318390Y34975380D02*
X37366009Y34927760D01*
X37366009Y34927760D02*
X37461247Y34880141D01*
X37461247Y34880141D02*
X37842199Y34880141D01*
X37842199Y34880141D02*
X37842199Y35880141D01*
X37842199Y35880141D02*
X37508866Y35880141D01*
X37508866Y35880141D02*
X37413628Y35832522D01*
X37413628Y35832522D02*
X37366009Y35784903D01*
X37366009Y35784903D02*
X37318390Y35689665D01*
X37318390Y35689665D02*
X37318390Y35594427D01*
X37318390Y35594427D02*
X37366009Y35499189D01*
X37366009Y35499189D02*
X37413628Y35451570D01*
X37413628Y35451570D02*
X37508866Y35403951D01*
X37508866Y35403951D02*
X37842199Y35403951D01*
X36651723Y35880141D02*
X36461247Y35880141D01*
X36461247Y35880141D02*
X36366009Y35832522D01*
X36366009Y35832522D02*
X36270771Y35737284D01*
X36270771Y35737284D02*
X36223152Y35546808D01*
X36223152Y35546808D02*
X36223152Y35213475D01*
X36223152Y35213475D02*
X36270771Y35022999D01*
X36270771Y35022999D02*
X36366009Y34927760D01*
X36366009Y34927760D02*
X36461247Y34880141D01*
X36461247Y34880141D02*
X36651723Y34880141D01*
X36651723Y34880141D02*
X36746961Y34927760D01*
X36746961Y34927760D02*
X36842199Y35022999D01*
X36842199Y35022999D02*
X36889818Y35213475D01*
X36889818Y35213475D02*
X36889818Y35546808D01*
X36889818Y35546808D02*
X36842199Y35737284D01*
X36842199Y35737284D02*
X36746961Y35832522D01*
X36746961Y35832522D02*
X36651723Y35880141D01*
X35842199Y35165856D02*
X35366009Y35165856D01*
X35937437Y34880141D02*
X35604104Y35880141D01*
X35604104Y35880141D02*
X35270771Y34880141D01*
X34366009Y34880141D02*
X34699342Y35356332D01*
X34937437Y34880141D02*
X34937437Y35880141D01*
X34937437Y35880141D02*
X34556485Y35880141D01*
X34556485Y35880141D02*
X34461247Y35832522D01*
X34461247Y35832522D02*
X34413628Y35784903D01*
X34413628Y35784903D02*
X34366009Y35689665D01*
X34366009Y35689665D02*
X34366009Y35546808D01*
X34366009Y35546808D02*
X34413628Y35451570D01*
X34413628Y35451570D02*
X34461247Y35403951D01*
X34461247Y35403951D02*
X34556485Y35356332D01*
X34556485Y35356332D02*
X34937437Y35356332D01*
X33937437Y34880141D02*
X33937437Y35880141D01*
X33937437Y35880141D02*
X33699342Y35880141D01*
X33699342Y35880141D02*
X33556485Y35832522D01*
X33556485Y35832522D02*
X33461247Y35737284D01*
X33461247Y35737284D02*
X33413628Y35642046D01*
X33413628Y35642046D02*
X33366009Y35451570D01*
X33366009Y35451570D02*
X33366009Y35308713D01*
X33366009Y35308713D02*
X33413628Y35118237D01*
X33413628Y35118237D02*
X33461247Y35022999D01*
X33461247Y35022999D02*
X33556485Y34927760D01*
X33556485Y34927760D02*
X33699342Y34880141D01*
X33699342Y34880141D02*
X33937437Y34880141D01*
X40889819Y33270197D02*
X41223152Y33746388D01*
X41461247Y33270197D02*
X41461247Y34270197D01*
X41461247Y34270197D02*
X41080295Y34270197D01*
X41080295Y34270197D02*
X40985057Y34222578D01*
X40985057Y34222578D02*
X40937438Y34174959D01*
X40937438Y34174959D02*
X40889819Y34079721D01*
X40889819Y34079721D02*
X40889819Y33936864D01*
X40889819Y33936864D02*
X40937438Y33841626D01*
X40937438Y33841626D02*
X40985057Y33794007D01*
X40985057Y33794007D02*
X41080295Y33746388D01*
X41080295Y33746388D02*
X41461247Y33746388D01*
X40080295Y33317816D02*
X40175533Y33270197D01*
X40175533Y33270197D02*
X40366009Y33270197D01*
X40366009Y33270197D02*
X40461247Y33317816D01*
X40461247Y33317816D02*
X40508866Y33413055D01*
X40508866Y33413055D02*
X40508866Y33794007D01*
X40508866Y33794007D02*
X40461247Y33889245D01*
X40461247Y33889245D02*
X40366009Y33936864D01*
X40366009Y33936864D02*
X40175533Y33936864D01*
X40175533Y33936864D02*
X40080295Y33889245D01*
X40080295Y33889245D02*
X40032676Y33794007D01*
X40032676Y33794007D02*
X40032676Y33698769D01*
X40032676Y33698769D02*
X40508866Y33603531D01*
X39699342Y33936864D02*
X39461247Y33270197D01*
X39461247Y33270197D02*
X39223152Y33936864D01*
X38842199Y33270197D02*
X38842199Y33936864D01*
X38842199Y34270197D02*
X38889818Y34222578D01*
X38889818Y34222578D02*
X38842199Y34174959D01*
X38842199Y34174959D02*
X38794580Y34222578D01*
X38794580Y34222578D02*
X38842199Y34270197D01*
X38842199Y34270197D02*
X38842199Y34174959D01*
X38413628Y33317816D02*
X38318390Y33270197D01*
X38318390Y33270197D02*
X38127914Y33270197D01*
X38127914Y33270197D02*
X38032676Y33317816D01*
X38032676Y33317816D02*
X37985057Y33413055D01*
X37985057Y33413055D02*
X37985057Y33460674D01*
X37985057Y33460674D02*
X38032676Y33555912D01*
X38032676Y33555912D02*
X38127914Y33603531D01*
X38127914Y33603531D02*
X38270771Y33603531D01*
X38270771Y33603531D02*
X38366009Y33651150D01*
X38366009Y33651150D02*
X38413628Y33746388D01*
X38413628Y33746388D02*
X38413628Y33794007D01*
X38413628Y33794007D02*
X38366009Y33889245D01*
X38366009Y33889245D02*
X38270771Y33936864D01*
X38270771Y33936864D02*
X38127914Y33936864D01*
X38127914Y33936864D02*
X38032676Y33889245D01*
X37556485Y33270197D02*
X37556485Y33936864D01*
X37556485Y34270197D02*
X37604104Y34222578D01*
X37604104Y34222578D02*
X37556485Y34174959D01*
X37556485Y34174959D02*
X37508866Y34222578D01*
X37508866Y34222578D02*
X37556485Y34270197D01*
X37556485Y34270197D02*
X37556485Y34174959D01*
X36937438Y33270197D02*
X37032676Y33317816D01*
X37032676Y33317816D02*
X37080295Y33365436D01*
X37080295Y33365436D02*
X37127914Y33460674D01*
X37127914Y33460674D02*
X37127914Y33746388D01*
X37127914Y33746388D02*
X37080295Y33841626D01*
X37080295Y33841626D02*
X37032676Y33889245D01*
X37032676Y33889245D02*
X36937438Y33936864D01*
X36937438Y33936864D02*
X36794581Y33936864D01*
X36794581Y33936864D02*
X36699343Y33889245D01*
X36699343Y33889245D02*
X36651724Y33841626D01*
X36651724Y33841626D02*
X36604105Y33746388D01*
X36604105Y33746388D02*
X36604105Y33460674D01*
X36604105Y33460674D02*
X36651724Y33365436D01*
X36651724Y33365436D02*
X36699343Y33317816D01*
X36699343Y33317816D02*
X36794581Y33270197D01*
X36794581Y33270197D02*
X36937438Y33270197D01*
X36175533Y33936864D02*
X36175533Y33270197D01*
X36175533Y33841626D02*
X36127914Y33889245D01*
X36127914Y33889245D02*
X36032676Y33936864D01*
X36032676Y33936864D02*
X35889819Y33936864D01*
X35889819Y33936864D02*
X35794581Y33889245D01*
X35794581Y33889245D02*
X35746962Y33794007D01*
X35746962Y33794007D02*
X35746962Y33270197D01*
X35270771Y33365436D02*
X35223152Y33317816D01*
X35223152Y33317816D02*
X35270771Y33270197D01*
X35270771Y33270197D02*
X35318390Y33317816D01*
X35318390Y33317816D02*
X35270771Y33365436D01*
X35270771Y33365436D02*
X35270771Y33270197D01*
X35270771Y33889245D02*
X35223152Y33841626D01*
X35223152Y33841626D02*
X35270771Y33794007D01*
X35270771Y33794007D02*
X35318390Y33841626D01*
X35318390Y33841626D02*
X35270771Y33889245D01*
X35270771Y33889245D02*
X35270771Y33794007D01*
X33461248Y33270197D02*
X33794581Y33746388D01*
X34032676Y33270197D02*
X34032676Y34270197D01*
X34032676Y34270197D02*
X33651724Y34270197D01*
X33651724Y34270197D02*
X33556486Y34222578D01*
X33556486Y34222578D02*
X33508867Y34174959D01*
X33508867Y34174959D02*
X33461248Y34079721D01*
X33461248Y34079721D02*
X33461248Y33936864D01*
X33461248Y33936864D02*
X33508867Y33841626D01*
X33508867Y33841626D02*
X33556486Y33794007D01*
X33556486Y33794007D02*
X33651724Y33746388D01*
X33651724Y33746388D02*
X34032676Y33746388D01*
X33032676Y33794007D02*
X32699343Y33794007D01*
X32556486Y33270197D02*
X33032676Y33270197D01*
X33032676Y33270197D02*
X33032676Y34270197D01*
X33032676Y34270197D02*
X32556486Y34270197D01*
X32270771Y34270197D02*
X31937438Y33270197D01*
X31937438Y33270197D02*
X31604105Y34270197D01*
X30175533Y33794007D02*
X30032676Y33746388D01*
X30032676Y33746388D02*
X29985057Y33698769D01*
X29985057Y33698769D02*
X29937438Y33603531D01*
X29937438Y33603531D02*
X29937438Y33460674D01*
X29937438Y33460674D02*
X29985057Y33365436D01*
X29985057Y33365436D02*
X30032676Y33317816D01*
X30032676Y33317816D02*
X30127914Y33270197D01*
X30127914Y33270197D02*
X30508866Y33270197D01*
X30508866Y33270197D02*
X30508866Y34270197D01*
X30508866Y34270197D02*
X30175533Y34270197D01*
X30175533Y34270197D02*
X30080295Y34222578D01*
X30080295Y34222578D02*
X30032676Y34174959D01*
X30032676Y34174959D02*
X29985057Y34079721D01*
X29985057Y34079721D02*
X29985057Y33984483D01*
X29985057Y33984483D02*
X30032676Y33889245D01*
X30032676Y33889245D02*
X30080295Y33841626D01*
X30080295Y33841626D02*
X30175533Y33794007D01*
X30175533Y33794007D02*
X30508866Y33794007D01*
X41461247Y31660253D02*
X41461247Y32660253D01*
X41461247Y32660253D02*
X41223152Y32660253D01*
X41223152Y32660253D02*
X41080295Y32612634D01*
X41080295Y32612634D02*
X40985057Y32517396D01*
X40985057Y32517396D02*
X40937438Y32422158D01*
X40937438Y32422158D02*
X40889819Y32231682D01*
X40889819Y32231682D02*
X40889819Y32088825D01*
X40889819Y32088825D02*
X40937438Y31898349D01*
X40937438Y31898349D02*
X40985057Y31803111D01*
X40985057Y31803111D02*
X41080295Y31707872D01*
X41080295Y31707872D02*
X41223152Y31660253D01*
X41223152Y31660253D02*
X41461247Y31660253D01*
X40080295Y31707872D02*
X40175533Y31660253D01*
X40175533Y31660253D02*
X40366009Y31660253D01*
X40366009Y31660253D02*
X40461247Y31707872D01*
X40461247Y31707872D02*
X40508866Y31803111D01*
X40508866Y31803111D02*
X40508866Y32184063D01*
X40508866Y32184063D02*
X40461247Y32279301D01*
X40461247Y32279301D02*
X40366009Y32326920D01*
X40366009Y32326920D02*
X40175533Y32326920D01*
X40175533Y32326920D02*
X40080295Y32279301D01*
X40080295Y32279301D02*
X40032676Y32184063D01*
X40032676Y32184063D02*
X40032676Y32088825D01*
X40032676Y32088825D02*
X40508866Y31993587D01*
X39651723Y31707872D02*
X39556485Y31660253D01*
X39556485Y31660253D02*
X39366009Y31660253D01*
X39366009Y31660253D02*
X39270771Y31707872D01*
X39270771Y31707872D02*
X39223152Y31803111D01*
X39223152Y31803111D02*
X39223152Y31850730D01*
X39223152Y31850730D02*
X39270771Y31945968D01*
X39270771Y31945968D02*
X39366009Y31993587D01*
X39366009Y31993587D02*
X39508866Y31993587D01*
X39508866Y31993587D02*
X39604104Y32041206D01*
X39604104Y32041206D02*
X39651723Y32136444D01*
X39651723Y32136444D02*
X39651723Y32184063D01*
X39651723Y32184063D02*
X39604104Y32279301D01*
X39604104Y32279301D02*
X39508866Y32326920D01*
X39508866Y32326920D02*
X39366009Y32326920D01*
X39366009Y32326920D02*
X39270771Y32279301D01*
X38794580Y31660253D02*
X38794580Y32326920D01*
X38794580Y32660253D02*
X38842199Y32612634D01*
X38842199Y32612634D02*
X38794580Y32565015D01*
X38794580Y32565015D02*
X38746961Y32612634D01*
X38746961Y32612634D02*
X38794580Y32660253D01*
X38794580Y32660253D02*
X38794580Y32565015D01*
X37889819Y32326920D02*
X37889819Y31517396D01*
X37889819Y31517396D02*
X37937438Y31422158D01*
X37937438Y31422158D02*
X37985057Y31374539D01*
X37985057Y31374539D02*
X38080295Y31326920D01*
X38080295Y31326920D02*
X38223152Y31326920D01*
X38223152Y31326920D02*
X38318390Y31374539D01*
X37889819Y31707872D02*
X37985057Y31660253D01*
X37985057Y31660253D02*
X38175533Y31660253D01*
X38175533Y31660253D02*
X38270771Y31707872D01*
X38270771Y31707872D02*
X38318390Y31755492D01*
X38318390Y31755492D02*
X38366009Y31850730D01*
X38366009Y31850730D02*
X38366009Y32136444D01*
X38366009Y32136444D02*
X38318390Y32231682D01*
X38318390Y32231682D02*
X38270771Y32279301D01*
X38270771Y32279301D02*
X38175533Y32326920D01*
X38175533Y32326920D02*
X37985057Y32326920D01*
X37985057Y32326920D02*
X37889819Y32279301D01*
X37413628Y32326920D02*
X37413628Y31660253D01*
X37413628Y32231682D02*
X37366009Y32279301D01*
X37366009Y32279301D02*
X37270771Y32326920D01*
X37270771Y32326920D02*
X37127914Y32326920D01*
X37127914Y32326920D02*
X37032676Y32279301D01*
X37032676Y32279301D02*
X36985057Y32184063D01*
X36985057Y32184063D02*
X36985057Y31660253D01*
X36127914Y31707872D02*
X36223152Y31660253D01*
X36223152Y31660253D02*
X36413628Y31660253D01*
X36413628Y31660253D02*
X36508866Y31707872D01*
X36508866Y31707872D02*
X36556485Y31803111D01*
X36556485Y31803111D02*
X36556485Y32184063D01*
X36556485Y32184063D02*
X36508866Y32279301D01*
X36508866Y32279301D02*
X36413628Y32326920D01*
X36413628Y32326920D02*
X36223152Y32326920D01*
X36223152Y32326920D02*
X36127914Y32279301D01*
X36127914Y32279301D02*
X36080295Y32184063D01*
X36080295Y32184063D02*
X36080295Y32088825D01*
X36080295Y32088825D02*
X36556485Y31993587D01*
X35651723Y31660253D02*
X35651723Y32326920D01*
X35651723Y32136444D02*
X35604104Y32231682D01*
X35604104Y32231682D02*
X35556485Y32279301D01*
X35556485Y32279301D02*
X35461247Y32326920D01*
X35461247Y32326920D02*
X35366009Y32326920D01*
X35032675Y31755492D02*
X34985056Y31707872D01*
X34985056Y31707872D02*
X35032675Y31660253D01*
X35032675Y31660253D02*
X35080294Y31707872D01*
X35080294Y31707872D02*
X35032675Y31755492D01*
X35032675Y31755492D02*
X35032675Y31660253D01*
X35032675Y32279301D02*
X34985056Y32231682D01*
X34985056Y32231682D02*
X35032675Y32184063D01*
X35032675Y32184063D02*
X35080294Y32231682D01*
X35080294Y32231682D02*
X35032675Y32279301D01*
X35032675Y32279301D02*
X35032675Y32184063D01*
X33794580Y31660253D02*
X33794580Y32660253D01*
X33794580Y32660253D02*
X33413628Y32660253D01*
X33413628Y32660253D02*
X33318390Y32612634D01*
X33318390Y32612634D02*
X33270771Y32565015D01*
X33270771Y32565015D02*
X33223152Y32469777D01*
X33223152Y32469777D02*
X33223152Y32326920D01*
X33223152Y32326920D02*
X33270771Y32231682D01*
X33270771Y32231682D02*
X33318390Y32184063D01*
X33318390Y32184063D02*
X33413628Y32136444D01*
X33413628Y32136444D02*
X33794580Y32136444D01*
X32413628Y31707872D02*
X32508866Y31660253D01*
X32508866Y31660253D02*
X32699342Y31660253D01*
X32699342Y31660253D02*
X32794580Y31707872D01*
X32794580Y31707872D02*
X32842199Y31803111D01*
X32842199Y31803111D02*
X32842199Y32184063D01*
X32842199Y32184063D02*
X32794580Y32279301D01*
X32794580Y32279301D02*
X32699342Y32326920D01*
X32699342Y32326920D02*
X32508866Y32326920D01*
X32508866Y32326920D02*
X32413628Y32279301D01*
X32413628Y32279301D02*
X32366009Y32184063D01*
X32366009Y32184063D02*
X32366009Y32088825D01*
X32366009Y32088825D02*
X32842199Y31993587D01*
X32080294Y32326920D02*
X31699342Y32326920D01*
X31937437Y32660253D02*
X31937437Y31803111D01*
X31937437Y31803111D02*
X31889818Y31707872D01*
X31889818Y31707872D02*
X31794580Y31660253D01*
X31794580Y31660253D02*
X31699342Y31660253D01*
X30985056Y31707872D02*
X31080294Y31660253D01*
X31080294Y31660253D02*
X31270770Y31660253D01*
X31270770Y31660253D02*
X31366008Y31707872D01*
X31366008Y31707872D02*
X31413627Y31803111D01*
X31413627Y31803111D02*
X31413627Y32184063D01*
X31413627Y32184063D02*
X31366008Y32279301D01*
X31366008Y32279301D02*
X31270770Y32326920D01*
X31270770Y32326920D02*
X31080294Y32326920D01*
X31080294Y32326920D02*
X30985056Y32279301D01*
X30985056Y32279301D02*
X30937437Y32184063D01*
X30937437Y32184063D02*
X30937437Y32088825D01*
X30937437Y32088825D02*
X31413627Y31993587D01*
X30508865Y31660253D02*
X30508865Y32326920D01*
X30508865Y32136444D02*
X30461246Y32231682D01*
X30461246Y32231682D02*
X30413627Y32279301D01*
X30413627Y32279301D02*
X30318389Y32326920D01*
X30318389Y32326920D02*
X30223151Y32326920D01*
X29127912Y31660253D02*
X29127912Y32660253D01*
X29127912Y32184063D02*
X28556484Y32184063D01*
X28556484Y31660253D02*
X28556484Y32660253D01*
X27651722Y31660253D02*
X27651722Y32184063D01*
X27651722Y32184063D02*
X27699341Y32279301D01*
X27699341Y32279301D02*
X27794579Y32326920D01*
X27794579Y32326920D02*
X27985055Y32326920D01*
X27985055Y32326920D02*
X28080293Y32279301D01*
X27651722Y31707872D02*
X27746960Y31660253D01*
X27746960Y31660253D02*
X27985055Y31660253D01*
X27985055Y31660253D02*
X28080293Y31707872D01*
X28080293Y31707872D02*
X28127912Y31803111D01*
X28127912Y31803111D02*
X28127912Y31898349D01*
X28127912Y31898349D02*
X28080293Y31993587D01*
X28080293Y31993587D02*
X27985055Y32041206D01*
X27985055Y32041206D02*
X27746960Y32041206D01*
X27746960Y32041206D02*
X27651722Y32088825D01*
X27175531Y32326920D02*
X27175531Y31660253D01*
X27175531Y32231682D02*
X27127912Y32279301D01*
X27127912Y32279301D02*
X27032674Y32326920D01*
X27032674Y32326920D02*
X26889817Y32326920D01*
X26889817Y32326920D02*
X26794579Y32279301D01*
X26794579Y32279301D02*
X26746960Y32184063D01*
X26746960Y32184063D02*
X26746960Y31660253D01*
X25842198Y31707872D02*
X25937436Y31660253D01*
X25937436Y31660253D02*
X26127912Y31660253D01*
X26127912Y31660253D02*
X26223150Y31707872D01*
X26223150Y31707872D02*
X26270769Y31755492D01*
X26270769Y31755492D02*
X26318388Y31850730D01*
X26318388Y31850730D02*
X26318388Y32136444D01*
X26318388Y32136444D02*
X26270769Y32231682D01*
X26270769Y32231682D02*
X26223150Y32279301D01*
X26223150Y32279301D02*
X26127912Y32326920D01*
X26127912Y32326920D02*
X25937436Y32326920D01*
X25937436Y32326920D02*
X25842198Y32279301D01*
X24985055Y31660253D02*
X24985055Y32184063D01*
X24985055Y32184063D02*
X25032674Y32279301D01*
X25032674Y32279301D02*
X25127912Y32326920D01*
X25127912Y32326920D02*
X25318388Y32326920D01*
X25318388Y32326920D02*
X25413626Y32279301D01*
X24985055Y31707872D02*
X25080293Y31660253D01*
X25080293Y31660253D02*
X25318388Y31660253D01*
X25318388Y31660253D02*
X25413626Y31707872D01*
X25413626Y31707872D02*
X25461245Y31803111D01*
X25461245Y31803111D02*
X25461245Y31898349D01*
X25461245Y31898349D02*
X25413626Y31993587D01*
X25413626Y31993587D02*
X25318388Y32041206D01*
X25318388Y32041206D02*
X25080293Y32041206D01*
X25080293Y32041206D02*
X24985055Y32088825D01*
X24508864Y31660253D02*
X24508864Y32660253D01*
X24413626Y32041206D02*
X24127912Y31660253D01*
X24127912Y32326920D02*
X24508864Y31945968D01*
X41508866Y30336024D02*
X41032676Y30336024D01*
X41604104Y30050309D02*
X41270771Y31050309D01*
X41270771Y31050309D02*
X40937438Y30050309D01*
X40604104Y30050309D02*
X40604104Y31050309D01*
X40604104Y31050309D02*
X40366009Y31050309D01*
X40366009Y31050309D02*
X40223152Y31002690D01*
X40223152Y31002690D02*
X40127914Y30907452D01*
X40127914Y30907452D02*
X40080295Y30812214D01*
X40080295Y30812214D02*
X40032676Y30621738D01*
X40032676Y30621738D02*
X40032676Y30478881D01*
X40032676Y30478881D02*
X40080295Y30288405D01*
X40080295Y30288405D02*
X40127914Y30193167D01*
X40127914Y30193167D02*
X40223152Y30097928D01*
X40223152Y30097928D02*
X40366009Y30050309D01*
X40366009Y30050309D02*
X40604104Y30050309D01*
X39032676Y30145548D02*
X39080295Y30097928D01*
X39080295Y30097928D02*
X39223152Y30050309D01*
X39223152Y30050309D02*
X39318390Y30050309D01*
X39318390Y30050309D02*
X39461247Y30097928D01*
X39461247Y30097928D02*
X39556485Y30193167D01*
X39556485Y30193167D02*
X39604104Y30288405D01*
X39604104Y30288405D02*
X39651723Y30478881D01*
X39651723Y30478881D02*
X39651723Y30621738D01*
X39651723Y30621738D02*
X39604104Y30812214D01*
X39604104Y30812214D02*
X39556485Y30907452D01*
X39556485Y30907452D02*
X39461247Y31002690D01*
X39461247Y31002690D02*
X39318390Y31050309D01*
X39318390Y31050309D02*
X39223152Y31050309D01*
X39223152Y31050309D02*
X39080295Y31002690D01*
X39080295Y31002690D02*
X39032676Y30955071D01*
X37842199Y30050309D02*
X37842199Y31050309D01*
X37842199Y31050309D02*
X37604104Y31050309D01*
X37604104Y31050309D02*
X37461247Y31002690D01*
X37461247Y31002690D02*
X37366009Y30907452D01*
X37366009Y30907452D02*
X37318390Y30812214D01*
X37318390Y30812214D02*
X37270771Y30621738D01*
X37270771Y30621738D02*
X37270771Y30478881D01*
X37270771Y30478881D02*
X37318390Y30288405D01*
X37318390Y30288405D02*
X37366009Y30193167D01*
X37366009Y30193167D02*
X37461247Y30097928D01*
X37461247Y30097928D02*
X37604104Y30050309D01*
X37604104Y30050309D02*
X37842199Y30050309D01*
X36270771Y30050309D02*
X36604104Y30526500D01*
X36842199Y30050309D02*
X36842199Y31050309D01*
X36842199Y31050309D02*
X36461247Y31050309D01*
X36461247Y31050309D02*
X36366009Y31002690D01*
X36366009Y31002690D02*
X36318390Y30955071D01*
X36318390Y30955071D02*
X36270771Y30859833D01*
X36270771Y30859833D02*
X36270771Y30716976D01*
X36270771Y30716976D02*
X36318390Y30621738D01*
X36318390Y30621738D02*
X36366009Y30574119D01*
X36366009Y30574119D02*
X36461247Y30526500D01*
X36461247Y30526500D02*
X36842199Y30526500D01*
X35842199Y30050309D02*
X35842199Y31050309D01*
X35508866Y31050309D02*
X35175533Y30050309D01*
X35175533Y30050309D02*
X34842200Y31050309D01*
X34508866Y30574119D02*
X34175533Y30574119D01*
X34032676Y30050309D02*
X34508866Y30050309D01*
X34508866Y30050309D02*
X34508866Y31050309D01*
X34508866Y31050309D02*
X34032676Y31050309D01*
X33032676Y30050309D02*
X33366009Y30526500D01*
X33604104Y30050309D02*
X33604104Y31050309D01*
X33604104Y31050309D02*
X33223152Y31050309D01*
X33223152Y31050309D02*
X33127914Y31002690D01*
X33127914Y31002690D02*
X33080295Y30955071D01*
X33080295Y30955071D02*
X33032676Y30859833D01*
X33032676Y30859833D02*
X33032676Y30716976D01*
X33032676Y30716976D02*
X33080295Y30621738D01*
X33080295Y30621738D02*
X33127914Y30574119D01*
X33127914Y30574119D02*
X33223152Y30526500D01*
X33223152Y30526500D02*
X33604104Y30526500D01*
X32604104Y30145548D02*
X32556485Y30097928D01*
X32556485Y30097928D02*
X32604104Y30050309D01*
X32604104Y30050309D02*
X32651723Y30097928D01*
X32651723Y30097928D02*
X32604104Y30145548D01*
X32604104Y30145548D02*
X32604104Y30050309D01*
X32604104Y30669357D02*
X32556485Y30621738D01*
X32556485Y30621738D02*
X32604104Y30574119D01*
X32604104Y30574119D02*
X32651723Y30621738D01*
X32651723Y30621738D02*
X32604104Y30669357D01*
X32604104Y30669357D02*
X32604104Y30574119D01*
X31413628Y30336024D02*
X30937438Y30336024D01*
X31508866Y30050309D02*
X31175533Y31050309D01*
X31175533Y31050309D02*
X30842200Y30050309D01*
X30508866Y30050309D02*
X30508866Y31050309D01*
X30508866Y31050309D02*
X30270771Y31050309D01*
X30270771Y31050309D02*
X30127914Y31002690D01*
X30127914Y31002690D02*
X30032676Y30907452D01*
X30032676Y30907452D02*
X29985057Y30812214D01*
X29985057Y30812214D02*
X29937438Y30621738D01*
X29937438Y30621738D02*
X29937438Y30478881D01*
X29937438Y30478881D02*
X29985057Y30288405D01*
X29985057Y30288405D02*
X30032676Y30193167D01*
X30032676Y30193167D02*
X30127914Y30097928D01*
X30127914Y30097928D02*
X30270771Y30050309D01*
X30270771Y30050309D02*
X30508866Y30050309D01*
X29556485Y30336024D02*
X29080295Y30336024D01*
X29651723Y30050309D02*
X29318390Y31050309D01*
X29318390Y31050309D02*
X28985057Y30050309D01*
X28223152Y30716976D02*
X28223152Y30050309D01*
X28461247Y31097928D02*
X28699342Y30383643D01*
X28699342Y30383643D02*
X28080295Y30383643D01*
X27651723Y30050309D02*
X27461247Y30050309D01*
X27461247Y30050309D02*
X27366009Y30097928D01*
X27366009Y30097928D02*
X27318390Y30145548D01*
X27318390Y30145548D02*
X27223152Y30288405D01*
X27223152Y30288405D02*
X27175533Y30478881D01*
X27175533Y30478881D02*
X27175533Y30859833D01*
X27175533Y30859833D02*
X27223152Y30955071D01*
X27223152Y30955071D02*
X27270771Y31002690D01*
X27270771Y31002690D02*
X27366009Y31050309D01*
X27366009Y31050309D02*
X27556485Y31050309D01*
X27556485Y31050309D02*
X27651723Y31002690D01*
X27651723Y31002690D02*
X27699342Y30955071D01*
X27699342Y30955071D02*
X27746961Y30859833D01*
X27746961Y30859833D02*
X27746961Y30621738D01*
X27746961Y30621738D02*
X27699342Y30526500D01*
X27699342Y30526500D02*
X27651723Y30478881D01*
X27651723Y30478881D02*
X27556485Y30431262D01*
X27556485Y30431262D02*
X27366009Y30431262D01*
X27366009Y30431262D02*
X27270771Y30478881D01*
X27270771Y30478881D02*
X27223152Y30526500D01*
X27223152Y30526500D02*
X27175533Y30621738D01*
X26318390Y30716976D02*
X26318390Y30050309D01*
X26556485Y31097928D02*
X26794580Y30383643D01*
X26794580Y30383643D02*
X26175533Y30383643D01*
X25604104Y31050309D02*
X25508866Y31050309D01*
X25508866Y31050309D02*
X25413628Y31002690D01*
X25413628Y31002690D02*
X25366009Y30955071D01*
X25366009Y30955071D02*
X25318390Y30859833D01*
X25318390Y30859833D02*
X25270771Y30669357D01*
X25270771Y30669357D02*
X25270771Y30431262D01*
X25270771Y30431262D02*
X25318390Y30240786D01*
X25318390Y30240786D02*
X25366009Y30145548D01*
X25366009Y30145548D02*
X25413628Y30097928D01*
X25413628Y30097928D02*
X25508866Y30050309D01*
X25508866Y30050309D02*
X25604104Y30050309D01*
X25604104Y30050309D02*
X25699342Y30097928D01*
X25699342Y30097928D02*
X25746961Y30145548D01*
X25746961Y30145548D02*
X25794580Y30240786D01*
X25794580Y30240786D02*
X25842199Y30431262D01*
X25842199Y30431262D02*
X25842199Y30669357D01*
X25842199Y30669357D02*
X25794580Y30859833D01*
X25794580Y30859833D02*
X25746961Y30955071D01*
X25746961Y30955071D02*
X25699342Y31002690D01*
X25699342Y31002690D02*
X25604104Y31050309D01*
X24842199Y30431262D02*
X24080295Y30431262D01*
X23651723Y30955071D02*
X23604104Y31002690D01*
X23604104Y31002690D02*
X23508866Y31050309D01*
X23508866Y31050309D02*
X23270771Y31050309D01*
X23270771Y31050309D02*
X23175533Y31002690D01*
X23175533Y31002690D02*
X23127914Y30955071D01*
X23127914Y30955071D02*
X23080295Y30859833D01*
X23080295Y30859833D02*
X23080295Y30764595D01*
X23080295Y30764595D02*
X23127914Y30621738D01*
X23127914Y30621738D02*
X23699342Y30050309D01*
X23699342Y30050309D02*
X23080295Y30050309D01*
X22699342Y30336024D02*
X22223152Y30336024D01*
X22794580Y30050309D02*
X22461247Y31050309D01*
X22461247Y31050309D02*
X22127914Y30050309D01*
X21223152Y30145548D02*
X21270771Y30097928D01*
X21270771Y30097928D02*
X21413628Y30050309D01*
X21413628Y30050309D02*
X21508866Y30050309D01*
X21508866Y30050309D02*
X21651723Y30097928D01*
X21651723Y30097928D02*
X21746961Y30193167D01*
X21746961Y30193167D02*
X21794580Y30288405D01*
X21794580Y30288405D02*
X21842199Y30478881D01*
X21842199Y30478881D02*
X21842199Y30621738D01*
X21842199Y30621738D02*
X21794580Y30812214D01*
X21794580Y30812214D02*
X21746961Y30907452D01*
X21746961Y30907452D02*
X21651723Y31002690D01*
X21651723Y31002690D02*
X21508866Y31050309D01*
X21508866Y31050309D02*
X21413628Y31050309D01*
X21413628Y31050309D02*
X21270771Y31002690D01*
X21270771Y31002690D02*
X21223152Y30955071D01*
X20794580Y30050309D02*
X20794580Y31050309D01*
X20794580Y31050309D02*
X20413628Y31050309D01*
X20413628Y31050309D02*
X20318390Y31002690D01*
X20318390Y31002690D02*
X20270771Y30955071D01*
X20270771Y30955071D02*
X20223152Y30859833D01*
X20223152Y30859833D02*
X20223152Y30716976D01*
X20223152Y30716976D02*
X20270771Y30621738D01*
X20270771Y30621738D02*
X20318390Y30574119D01*
X20318390Y30574119D02*
X20413628Y30526500D01*
X20413628Y30526500D02*
X20794580Y30526500D01*
X19889818Y31050309D02*
X19223152Y31050309D01*
X19223152Y31050309D02*
X19889818Y30050309D01*
X19889818Y30050309D02*
X19223152Y30050309D01*
X18842199Y30431262D02*
X18080295Y30431262D01*
X17032676Y30050309D02*
X17366009Y30526500D01*
X17604104Y30050309D02*
X17604104Y31050309D01*
X17604104Y31050309D02*
X17223152Y31050309D01*
X17223152Y31050309D02*
X17127914Y31002690D01*
X17127914Y31002690D02*
X17080295Y30955071D01*
X17080295Y30955071D02*
X17032676Y30859833D01*
X17032676Y30859833D02*
X17032676Y30716976D01*
X17032676Y30716976D02*
X17080295Y30621738D01*
X17080295Y30621738D02*
X17127914Y30574119D01*
X17127914Y30574119D02*
X17223152Y30526500D01*
X17223152Y30526500D02*
X17604104Y30526500D01*
X16699342Y31050309D02*
X16032676Y31050309D01*
X16032676Y31050309D02*
X16461247Y30050309D01*
X41508866Y28726080D02*
X41032676Y28726080D01*
X41604104Y28440365D02*
X41270771Y29440365D01*
X41270771Y29440365D02*
X40937438Y28440365D01*
X40604104Y28440365D02*
X40604104Y29440365D01*
X40604104Y29440365D02*
X40366009Y29440365D01*
X40366009Y29440365D02*
X40223152Y29392746D01*
X40223152Y29392746D02*
X40127914Y29297508D01*
X40127914Y29297508D02*
X40080295Y29202270D01*
X40080295Y29202270D02*
X40032676Y29011794D01*
X40032676Y29011794D02*
X40032676Y28868937D01*
X40032676Y28868937D02*
X40080295Y28678461D01*
X40080295Y28678461D02*
X40127914Y28583223D01*
X40127914Y28583223D02*
X40223152Y28487984D01*
X40223152Y28487984D02*
X40366009Y28440365D01*
X40366009Y28440365D02*
X40604104Y28440365D01*
X39032676Y28535604D02*
X39080295Y28487984D01*
X39080295Y28487984D02*
X39223152Y28440365D01*
X39223152Y28440365D02*
X39318390Y28440365D01*
X39318390Y28440365D02*
X39461247Y28487984D01*
X39461247Y28487984D02*
X39556485Y28583223D01*
X39556485Y28583223D02*
X39604104Y28678461D01*
X39604104Y28678461D02*
X39651723Y28868937D01*
X39651723Y28868937D02*
X39651723Y29011794D01*
X39651723Y29011794D02*
X39604104Y29202270D01*
X39604104Y29202270D02*
X39556485Y29297508D01*
X39556485Y29297508D02*
X39461247Y29392746D01*
X39461247Y29392746D02*
X39318390Y29440365D01*
X39318390Y29440365D02*
X39223152Y29440365D01*
X39223152Y29440365D02*
X39080295Y29392746D01*
X39080295Y29392746D02*
X39032676Y29345127D01*
X38604104Y28535604D02*
X38556485Y28487984D01*
X38556485Y28487984D02*
X38604104Y28440365D01*
X38604104Y28440365D02*
X38651723Y28487984D01*
X38651723Y28487984D02*
X38604104Y28535604D01*
X38604104Y28535604D02*
X38604104Y28440365D01*
X38604104Y29059413D02*
X38556485Y29011794D01*
X38556485Y29011794D02*
X38604104Y28964175D01*
X38604104Y28964175D02*
X38651723Y29011794D01*
X38651723Y29011794D02*
X38604104Y29059413D01*
X38604104Y29059413D02*
X38604104Y28964175D01*
X36794581Y28535604D02*
X36842200Y28487984D01*
X36842200Y28487984D02*
X36985057Y28440365D01*
X36985057Y28440365D02*
X37080295Y28440365D01*
X37080295Y28440365D02*
X37223152Y28487984D01*
X37223152Y28487984D02*
X37318390Y28583223D01*
X37318390Y28583223D02*
X37366009Y28678461D01*
X37366009Y28678461D02*
X37413628Y28868937D01*
X37413628Y28868937D02*
X37413628Y29011794D01*
X37413628Y29011794D02*
X37366009Y29202270D01*
X37366009Y29202270D02*
X37318390Y29297508D01*
X37318390Y29297508D02*
X37223152Y29392746D01*
X37223152Y29392746D02*
X37080295Y29440365D01*
X37080295Y29440365D02*
X36985057Y29440365D01*
X36985057Y29440365D02*
X36842200Y29392746D01*
X36842200Y29392746D02*
X36794581Y29345127D01*
X36413628Y28487984D02*
X36270771Y28440365D01*
X36270771Y28440365D02*
X36032676Y28440365D01*
X36032676Y28440365D02*
X35937438Y28487984D01*
X35937438Y28487984D02*
X35889819Y28535604D01*
X35889819Y28535604D02*
X35842200Y28630842D01*
X35842200Y28630842D02*
X35842200Y28726080D01*
X35842200Y28726080D02*
X35889819Y28821318D01*
X35889819Y28821318D02*
X35937438Y28868937D01*
X35937438Y28868937D02*
X36032676Y28916556D01*
X36032676Y28916556D02*
X36223152Y28964175D01*
X36223152Y28964175D02*
X36318390Y29011794D01*
X36318390Y29011794D02*
X36366009Y29059413D01*
X36366009Y29059413D02*
X36413628Y29154651D01*
X36413628Y29154651D02*
X36413628Y29249889D01*
X36413628Y29249889D02*
X36366009Y29345127D01*
X36366009Y29345127D02*
X36318390Y29392746D01*
X36318390Y29392746D02*
X36223152Y29440365D01*
X36223152Y29440365D02*
X35985057Y29440365D01*
X35985057Y29440365D02*
X35842200Y29392746D01*
X34937438Y29440365D02*
X35413628Y29440365D01*
X35413628Y29440365D02*
X35461247Y28964175D01*
X35461247Y28964175D02*
X35413628Y29011794D01*
X35413628Y29011794D02*
X35318390Y29059413D01*
X35318390Y29059413D02*
X35080295Y29059413D01*
X35080295Y29059413D02*
X34985057Y29011794D01*
X34985057Y29011794D02*
X34937438Y28964175D01*
X34937438Y28964175D02*
X34889819Y28868937D01*
X34889819Y28868937D02*
X34889819Y28630842D01*
X34889819Y28630842D02*
X34937438Y28535604D01*
X34937438Y28535604D02*
X34985057Y28487984D01*
X34985057Y28487984D02*
X35080295Y28440365D01*
X35080295Y28440365D02*
X35318390Y28440365D01*
X35318390Y28440365D02*
X35413628Y28487984D01*
X35413628Y28487984D02*
X35461247Y28535604D01*
X34556485Y29440365D02*
X33937438Y29440365D01*
X33937438Y29440365D02*
X34270771Y29059413D01*
X34270771Y29059413D02*
X34127914Y29059413D01*
X34127914Y29059413D02*
X34032676Y29011794D01*
X34032676Y29011794D02*
X33985057Y28964175D01*
X33985057Y28964175D02*
X33937438Y28868937D01*
X33937438Y28868937D02*
X33937438Y28630842D01*
X33937438Y28630842D02*
X33985057Y28535604D01*
X33985057Y28535604D02*
X34032676Y28487984D01*
X34032676Y28487984D02*
X34127914Y28440365D01*
X34127914Y28440365D02*
X34413628Y28440365D01*
X34413628Y28440365D02*
X34508866Y28487984D01*
X34508866Y28487984D02*
X34556485Y28535604D01*
X33366009Y29011794D02*
X33461247Y29059413D01*
X33461247Y29059413D02*
X33508866Y29107032D01*
X33508866Y29107032D02*
X33556485Y29202270D01*
X33556485Y29202270D02*
X33556485Y29249889D01*
X33556485Y29249889D02*
X33508866Y29345127D01*
X33508866Y29345127D02*
X33461247Y29392746D01*
X33461247Y29392746D02*
X33366009Y29440365D01*
X33366009Y29440365D02*
X33175533Y29440365D01*
X33175533Y29440365D02*
X33080295Y29392746D01*
X33080295Y29392746D02*
X33032676Y29345127D01*
X33032676Y29345127D02*
X32985057Y29249889D01*
X32985057Y29249889D02*
X32985057Y29202270D01*
X32985057Y29202270D02*
X33032676Y29107032D01*
X33032676Y29107032D02*
X33080295Y29059413D01*
X33080295Y29059413D02*
X33175533Y29011794D01*
X33175533Y29011794D02*
X33366009Y29011794D01*
X33366009Y29011794D02*
X33461247Y28964175D01*
X33461247Y28964175D02*
X33508866Y28916556D01*
X33508866Y28916556D02*
X33556485Y28821318D01*
X33556485Y28821318D02*
X33556485Y28630842D01*
X33556485Y28630842D02*
X33508866Y28535604D01*
X33508866Y28535604D02*
X33461247Y28487984D01*
X33461247Y28487984D02*
X33366009Y28440365D01*
X33366009Y28440365D02*
X33175533Y28440365D01*
X33175533Y28440365D02*
X33080295Y28487984D01*
X33080295Y28487984D02*
X33032676Y28535604D01*
X33032676Y28535604D02*
X32985057Y28630842D01*
X32985057Y28630842D02*
X32985057Y28821318D01*
X32985057Y28821318D02*
X33032676Y28916556D01*
X33032676Y28916556D02*
X33080295Y28964175D01*
X33080295Y28964175D02*
X33175533Y29011794D01*
X32032676Y28440365D02*
X32604104Y28440365D01*
X32318390Y28440365D02*
X32318390Y29440365D01*
X32318390Y29440365D02*
X32413628Y29297508D01*
X32413628Y29297508D02*
X32508866Y29202270D01*
X32508866Y29202270D02*
X32604104Y29154651D01*
X31604104Y28440365D02*
X31604104Y29440365D01*
X31032676Y28440365D02*
X31461247Y29011794D01*
X31032676Y29440365D02*
X31604104Y28868937D01*
X30604104Y28821318D02*
X29842200Y28821318D01*
X29366009Y28440365D02*
X29366009Y29440365D01*
X28794581Y28440365D02*
X29223152Y29011794D01*
X28794581Y29440365D02*
X29366009Y28868937D01*
X28413628Y28487984D02*
X28270771Y28440365D01*
X28270771Y28440365D02*
X28032676Y28440365D01*
X28032676Y28440365D02*
X27937438Y28487984D01*
X27937438Y28487984D02*
X27889819Y28535604D01*
X27889819Y28535604D02*
X27842200Y28630842D01*
X27842200Y28630842D02*
X27842200Y28726080D01*
X27842200Y28726080D02*
X27889819Y28821318D01*
X27889819Y28821318D02*
X27937438Y28868937D01*
X27937438Y28868937D02*
X28032676Y28916556D01*
X28032676Y28916556D02*
X28223152Y28964175D01*
X28223152Y28964175D02*
X28318390Y29011794D01*
X28318390Y29011794D02*
X28366009Y29059413D01*
X28366009Y29059413D02*
X28413628Y29154651D01*
X28413628Y29154651D02*
X28413628Y29249889D01*
X28413628Y29249889D02*
X28366009Y29345127D01*
X28366009Y29345127D02*
X28318390Y29392746D01*
X28318390Y29392746D02*
X28223152Y29440365D01*
X28223152Y29440365D02*
X27985057Y29440365D01*
X27985057Y29440365D02*
X27842200Y29392746D01*
X27508866Y29440365D02*
X26842200Y29440365D01*
X26842200Y29440365D02*
X27508866Y28440365D01*
X27508866Y28440365D02*
X26842200Y28440365D01*
X40985057Y26830421D02*
X41461247Y26830421D01*
X41461247Y26830421D02*
X41461247Y27830421D01*
X40651723Y26830421D02*
X40651723Y27830421D01*
X40651723Y27830421D02*
X40413628Y27830421D01*
X40413628Y27830421D02*
X40270771Y27782802D01*
X40270771Y27782802D02*
X40175533Y27687564D01*
X40175533Y27687564D02*
X40127914Y27592326D01*
X40127914Y27592326D02*
X40080295Y27401850D01*
X40080295Y27401850D02*
X40080295Y27258993D01*
X40080295Y27258993D02*
X40127914Y27068517D01*
X40127914Y27068517D02*
X40175533Y26973279D01*
X40175533Y26973279D02*
X40270771Y26878040D01*
X40270771Y26878040D02*
X40413628Y26830421D01*
X40413628Y26830421D02*
X40651723Y26830421D01*
X39461247Y27830421D02*
X39270771Y27830421D01*
X39270771Y27830421D02*
X39175533Y27782802D01*
X39175533Y27782802D02*
X39080295Y27687564D01*
X39080295Y27687564D02*
X39032676Y27497088D01*
X39032676Y27497088D02*
X39032676Y27163755D01*
X39032676Y27163755D02*
X39080295Y26973279D01*
X39080295Y26973279D02*
X39175533Y26878040D01*
X39175533Y26878040D02*
X39270771Y26830421D01*
X39270771Y26830421D02*
X39461247Y26830421D01*
X39461247Y26830421D02*
X39556485Y26878040D01*
X39556485Y26878040D02*
X39651723Y26973279D01*
X39651723Y26973279D02*
X39699342Y27163755D01*
X39699342Y27163755D02*
X39699342Y27497088D01*
X39699342Y27497088D02*
X39651723Y27687564D01*
X39651723Y27687564D02*
X39556485Y27782802D01*
X39556485Y27782802D02*
X39461247Y27830421D01*
X38604104Y26925660D02*
X38556485Y26878040D01*
X38556485Y26878040D02*
X38604104Y26830421D01*
X38604104Y26830421D02*
X38651723Y26878040D01*
X38651723Y26878040D02*
X38604104Y26925660D01*
X38604104Y26925660D02*
X38604104Y26830421D01*
X38604104Y27449469D02*
X38556485Y27401850D01*
X38556485Y27401850D02*
X38604104Y27354231D01*
X38604104Y27354231D02*
X38651723Y27401850D01*
X38651723Y27401850D02*
X38604104Y27449469D01*
X38604104Y27449469D02*
X38604104Y27354231D01*
X36889819Y26830421D02*
X37366009Y26830421D01*
X37366009Y26830421D02*
X37366009Y27830421D01*
X36556485Y26830421D02*
X36556485Y27830421D01*
X36556485Y27830421D02*
X36318390Y27830421D01*
X36318390Y27830421D02*
X36175533Y27782802D01*
X36175533Y27782802D02*
X36080295Y27687564D01*
X36080295Y27687564D02*
X36032676Y27592326D01*
X36032676Y27592326D02*
X35985057Y27401850D01*
X35985057Y27401850D02*
X35985057Y27258993D01*
X35985057Y27258993D02*
X36032676Y27068517D01*
X36032676Y27068517D02*
X36080295Y26973279D01*
X36080295Y26973279D02*
X36175533Y26878040D01*
X36175533Y26878040D02*
X36318390Y26830421D01*
X36318390Y26830421D02*
X36556485Y26830421D01*
X35080295Y26830421D02*
X35556485Y26830421D01*
X35556485Y26830421D02*
X35556485Y27830421D01*
X34746961Y26830421D02*
X34746961Y27830421D01*
X34746961Y27830421D02*
X34175533Y26830421D01*
X34175533Y26830421D02*
X34175533Y27830421D01*
X33508866Y27830421D02*
X33413628Y27830421D01*
X33413628Y27830421D02*
X33318390Y27782802D01*
X33318390Y27782802D02*
X33270771Y27735183D01*
X33270771Y27735183D02*
X33223152Y27639945D01*
X33223152Y27639945D02*
X33175533Y27449469D01*
X33175533Y27449469D02*
X33175533Y27211374D01*
X33175533Y27211374D02*
X33223152Y27020898D01*
X33223152Y27020898D02*
X33270771Y26925660D01*
X33270771Y26925660D02*
X33318390Y26878040D01*
X33318390Y26878040D02*
X33413628Y26830421D01*
X33413628Y26830421D02*
X33508866Y26830421D01*
X33508866Y26830421D02*
X33604104Y26878040D01*
X33604104Y26878040D02*
X33651723Y26925660D01*
X33651723Y26925660D02*
X33699342Y27020898D01*
X33699342Y27020898D02*
X33746961Y27211374D01*
X33746961Y27211374D02*
X33746961Y27449469D01*
X33746961Y27449469D02*
X33699342Y27639945D01*
X33699342Y27639945D02*
X33651723Y27735183D01*
X33651723Y27735183D02*
X33604104Y27782802D01*
X33604104Y27782802D02*
X33508866Y27830421D01*
X32270771Y27830421D02*
X32746961Y27830421D01*
X32746961Y27830421D02*
X32794580Y27354231D01*
X32794580Y27354231D02*
X32746961Y27401850D01*
X32746961Y27401850D02*
X32651723Y27449469D01*
X32651723Y27449469D02*
X32413628Y27449469D01*
X32413628Y27449469D02*
X32318390Y27401850D01*
X32318390Y27401850D02*
X32270771Y27354231D01*
X32270771Y27354231D02*
X32223152Y27258993D01*
X32223152Y27258993D02*
X32223152Y27020898D01*
X32223152Y27020898D02*
X32270771Y26925660D01*
X32270771Y26925660D02*
X32318390Y26878040D01*
X32318390Y26878040D02*
X32413628Y26830421D01*
X32413628Y26830421D02*
X32651723Y26830421D01*
X32651723Y26830421D02*
X32746961Y26878040D01*
X32746961Y26878040D02*
X32794580Y26925660D01*
X31604104Y27830421D02*
X31508866Y27830421D01*
X31508866Y27830421D02*
X31413628Y27782802D01*
X31413628Y27782802D02*
X31366009Y27735183D01*
X31366009Y27735183D02*
X31318390Y27639945D01*
X31318390Y27639945D02*
X31270771Y27449469D01*
X31270771Y27449469D02*
X31270771Y27211374D01*
X31270771Y27211374D02*
X31318390Y27020898D01*
X31318390Y27020898D02*
X31366009Y26925660D01*
X31366009Y26925660D02*
X31413628Y26878040D01*
X31413628Y26878040D02*
X31508866Y26830421D01*
X31508866Y26830421D02*
X31604104Y26830421D01*
X31604104Y26830421D02*
X31699342Y26878040D01*
X31699342Y26878040D02*
X31746961Y26925660D01*
X31746961Y26925660D02*
X31794580Y27020898D01*
X31794580Y27020898D02*
X31842199Y27211374D01*
X31842199Y27211374D02*
X31842199Y27449469D01*
X31842199Y27449469D02*
X31794580Y27639945D01*
X31794580Y27639945D02*
X31746961Y27735183D01*
X31746961Y27735183D02*
X31699342Y27782802D01*
X31699342Y27782802D02*
X31604104Y27830421D01*
X30842199Y26830421D02*
X30842199Y27830421D01*
X30842199Y27830421D02*
X30461247Y27830421D01*
X30461247Y27830421D02*
X30366009Y27782802D01*
X30366009Y27782802D02*
X30318390Y27735183D01*
X30318390Y27735183D02*
X30270771Y27639945D01*
X30270771Y27639945D02*
X30270771Y27497088D01*
X30270771Y27497088D02*
X30318390Y27401850D01*
X30318390Y27401850D02*
X30366009Y27354231D01*
X30366009Y27354231D02*
X30461247Y27306612D01*
X30461247Y27306612D02*
X30842199Y27306612D01*
X29842199Y27830421D02*
X29842199Y27020898D01*
X29842199Y27020898D02*
X29794580Y26925660D01*
X29794580Y26925660D02*
X29746961Y26878040D01*
X29746961Y26878040D02*
X29651723Y26830421D01*
X29651723Y26830421D02*
X29461247Y26830421D01*
X29461247Y26830421D02*
X29366009Y26878040D01*
X29366009Y26878040D02*
X29318390Y26925660D01*
X29318390Y26925660D02*
X29270771Y27020898D01*
X29270771Y27020898D02*
X29270771Y27830421D01*
X28223152Y26830421D02*
X28556485Y27306612D01*
X28794580Y26830421D02*
X28794580Y27830421D01*
X28794580Y27830421D02*
X28413628Y27830421D01*
X28413628Y27830421D02*
X28318390Y27782802D01*
X28318390Y27782802D02*
X28270771Y27735183D01*
X28270771Y27735183D02*
X28223152Y27639945D01*
X28223152Y27639945D02*
X28223152Y27497088D01*
X28223152Y27497088D02*
X28270771Y27401850D01*
X28270771Y27401850D02*
X28318390Y27354231D01*
X28318390Y27354231D02*
X28413628Y27306612D01*
X28413628Y27306612D02*
X28794580Y27306612D01*
X27746961Y26878040D02*
X27746961Y26830421D01*
X27746961Y26830421D02*
X27794580Y26735183D01*
X27794580Y26735183D02*
X27842199Y26687564D01*
X26080295Y26830421D02*
X26556485Y26830421D01*
X26556485Y26830421D02*
X26556485Y27830421D01*
X25746961Y26830421D02*
X25746961Y27830421D01*
X25746961Y27830421D02*
X25508866Y27830421D01*
X25508866Y27830421D02*
X25366009Y27782802D01*
X25366009Y27782802D02*
X25270771Y27687564D01*
X25270771Y27687564D02*
X25223152Y27592326D01*
X25223152Y27592326D02*
X25175533Y27401850D01*
X25175533Y27401850D02*
X25175533Y27258993D01*
X25175533Y27258993D02*
X25223152Y27068517D01*
X25223152Y27068517D02*
X25270771Y26973279D01*
X25270771Y26973279D02*
X25366009Y26878040D01*
X25366009Y26878040D02*
X25508866Y26830421D01*
X25508866Y26830421D02*
X25746961Y26830421D01*
X24270771Y26830421D02*
X24746961Y26830421D01*
X24746961Y26830421D02*
X24746961Y27830421D01*
X23937437Y26830421D02*
X23937437Y27830421D01*
X23937437Y27830421D02*
X23366009Y26830421D01*
X23366009Y26830421D02*
X23366009Y27830421D01*
X22699342Y27830421D02*
X22604104Y27830421D01*
X22604104Y27830421D02*
X22508866Y27782802D01*
X22508866Y27782802D02*
X22461247Y27735183D01*
X22461247Y27735183D02*
X22413628Y27639945D01*
X22413628Y27639945D02*
X22366009Y27449469D01*
X22366009Y27449469D02*
X22366009Y27211374D01*
X22366009Y27211374D02*
X22413628Y27020898D01*
X22413628Y27020898D02*
X22461247Y26925660D01*
X22461247Y26925660D02*
X22508866Y26878040D01*
X22508866Y26878040D02*
X22604104Y26830421D01*
X22604104Y26830421D02*
X22699342Y26830421D01*
X22699342Y26830421D02*
X22794580Y26878040D01*
X22794580Y26878040D02*
X22842199Y26925660D01*
X22842199Y26925660D02*
X22889818Y27020898D01*
X22889818Y27020898D02*
X22937437Y27211374D01*
X22937437Y27211374D02*
X22937437Y27449469D01*
X22937437Y27449469D02*
X22889818Y27639945D01*
X22889818Y27639945D02*
X22842199Y27735183D01*
X22842199Y27735183D02*
X22794580Y27782802D01*
X22794580Y27782802D02*
X22699342Y27830421D01*
X21461247Y27830421D02*
X21937437Y27830421D01*
X21937437Y27830421D02*
X21985056Y27354231D01*
X21985056Y27354231D02*
X21937437Y27401850D01*
X21937437Y27401850D02*
X21842199Y27449469D01*
X21842199Y27449469D02*
X21604104Y27449469D01*
X21604104Y27449469D02*
X21508866Y27401850D01*
X21508866Y27401850D02*
X21461247Y27354231D01*
X21461247Y27354231D02*
X21413628Y27258993D01*
X21413628Y27258993D02*
X21413628Y27020898D01*
X21413628Y27020898D02*
X21461247Y26925660D01*
X21461247Y26925660D02*
X21508866Y26878040D01*
X21508866Y26878040D02*
X21604104Y26830421D01*
X21604104Y26830421D02*
X21842199Y26830421D01*
X21842199Y26830421D02*
X21937437Y26878040D01*
X21937437Y26878040D02*
X21985056Y26925660D01*
X20794580Y27830421D02*
X20699342Y27830421D01*
X20699342Y27830421D02*
X20604104Y27782802D01*
X20604104Y27782802D02*
X20556485Y27735183D01*
X20556485Y27735183D02*
X20508866Y27639945D01*
X20508866Y27639945D02*
X20461247Y27449469D01*
X20461247Y27449469D02*
X20461247Y27211374D01*
X20461247Y27211374D02*
X20508866Y27020898D01*
X20508866Y27020898D02*
X20556485Y26925660D01*
X20556485Y26925660D02*
X20604104Y26878040D01*
X20604104Y26878040D02*
X20699342Y26830421D01*
X20699342Y26830421D02*
X20794580Y26830421D01*
X20794580Y26830421D02*
X20889818Y26878040D01*
X20889818Y26878040D02*
X20937437Y26925660D01*
X20937437Y26925660D02*
X20985056Y27020898D01*
X20985056Y27020898D02*
X21032675Y27211374D01*
X21032675Y27211374D02*
X21032675Y27449469D01*
X21032675Y27449469D02*
X20985056Y27639945D01*
X20985056Y27639945D02*
X20937437Y27735183D01*
X20937437Y27735183D02*
X20889818Y27782802D01*
X20889818Y27782802D02*
X20794580Y27830421D01*
X20032675Y26830421D02*
X20032675Y27830421D01*
X20032675Y27830421D02*
X19651723Y27830421D01*
X19651723Y27830421D02*
X19556485Y27782802D01*
X19556485Y27782802D02*
X19508866Y27735183D01*
X19508866Y27735183D02*
X19461247Y27639945D01*
X19461247Y27639945D02*
X19461247Y27497088D01*
X19461247Y27497088D02*
X19508866Y27401850D01*
X19508866Y27401850D02*
X19556485Y27354231D01*
X19556485Y27354231D02*
X19651723Y27306612D01*
X19651723Y27306612D02*
X20032675Y27306612D01*
X19032675Y27830421D02*
X19032675Y27020898D01*
X19032675Y27020898D02*
X18985056Y26925660D01*
X18985056Y26925660D02*
X18937437Y26878040D01*
X18937437Y26878040D02*
X18842199Y26830421D01*
X18842199Y26830421D02*
X18651723Y26830421D01*
X18651723Y26830421D02*
X18556485Y26878040D01*
X18556485Y26878040D02*
X18508866Y26925660D01*
X18508866Y26925660D02*
X18461247Y27020898D01*
X18461247Y27020898D02*
X18461247Y27830421D01*
X18080294Y27830421D02*
X17461247Y27830421D01*
X17461247Y27830421D02*
X17794580Y27449469D01*
X17794580Y27449469D02*
X17651723Y27449469D01*
X17651723Y27449469D02*
X17556485Y27401850D01*
X17556485Y27401850D02*
X17508866Y27354231D01*
X17508866Y27354231D02*
X17461247Y27258993D01*
X17461247Y27258993D02*
X17461247Y27020898D01*
X17461247Y27020898D02*
X17508866Y26925660D01*
X17508866Y26925660D02*
X17556485Y26878040D01*
X17556485Y26878040D02*
X17651723Y26830421D01*
X17651723Y26830421D02*
X17937437Y26830421D01*
X17937437Y26830421D02*
X18032675Y26878040D01*
X18032675Y26878040D02*
X18080294Y26925660D01*
X17127913Y27830421D02*
X16508866Y27830421D01*
X16508866Y27830421D02*
X16842199Y27449469D01*
X16842199Y27449469D02*
X16699342Y27449469D01*
X16699342Y27449469D02*
X16604104Y27401850D01*
X16604104Y27401850D02*
X16556485Y27354231D01*
X16556485Y27354231D02*
X16508866Y27258993D01*
X16508866Y27258993D02*
X16508866Y27020898D01*
X16508866Y27020898D02*
X16556485Y26925660D01*
X16556485Y26925660D02*
X16604104Y26878040D01*
X16604104Y26878040D02*
X16699342Y26830421D01*
X16699342Y26830421D02*
X16985056Y26830421D01*
X16985056Y26830421D02*
X17080294Y26878040D01*
X17080294Y26878040D02*
X17127913Y26925660D01*
X15508866Y26830421D02*
X15842199Y27306612D01*
X16080294Y26830421D02*
X16080294Y27830421D01*
X16080294Y27830421D02*
X15699342Y27830421D01*
X15699342Y27830421D02*
X15604104Y27782802D01*
X15604104Y27782802D02*
X15556485Y27735183D01*
X15556485Y27735183D02*
X15508866Y27639945D01*
X15508866Y27639945D02*
X15508866Y27497088D01*
X15508866Y27497088D02*
X15556485Y27401850D01*
X15556485Y27401850D02*
X15604104Y27354231D01*
X15604104Y27354231D02*
X15699342Y27306612D01*
X15699342Y27306612D02*
X16080294Y27306612D01*
X14032675Y26449469D02*
X14080294Y26497088D01*
X14080294Y26497088D02*
X14175532Y26639945D01*
X14175532Y26639945D02*
X14223151Y26735183D01*
X14223151Y26735183D02*
X14270770Y26878040D01*
X14270770Y26878040D02*
X14318389Y27116136D01*
X14318389Y27116136D02*
X14318389Y27306612D01*
X14318389Y27306612D02*
X14270770Y27544707D01*
X14270770Y27544707D02*
X14223151Y27687564D01*
X14223151Y27687564D02*
X14175532Y27782802D01*
X14175532Y27782802D02*
X14080294Y27925660D01*
X14080294Y27925660D02*
X14032675Y27973279D01*
X13175532Y26830421D02*
X13651722Y26830421D01*
X13651722Y26830421D02*
X13651722Y27830421D01*
X12699341Y26830421D02*
X12794579Y26878040D01*
X12794579Y26878040D02*
X12842198Y26925660D01*
X12842198Y26925660D02*
X12889817Y27020898D01*
X12889817Y27020898D02*
X12889817Y27306612D01*
X12889817Y27306612D02*
X12842198Y27401850D01*
X12842198Y27401850D02*
X12794579Y27449469D01*
X12794579Y27449469D02*
X12699341Y27497088D01*
X12699341Y27497088D02*
X12556484Y27497088D01*
X12556484Y27497088D02*
X12461246Y27449469D01*
X12461246Y27449469D02*
X12413627Y27401850D01*
X12413627Y27401850D02*
X12366008Y27306612D01*
X12366008Y27306612D02*
X12366008Y27020898D01*
X12366008Y27020898D02*
X12413627Y26925660D01*
X12413627Y26925660D02*
X12461246Y26878040D01*
X12461246Y26878040D02*
X12556484Y26830421D01*
X12556484Y26830421D02*
X12699341Y26830421D01*
X12032674Y27497088D02*
X11842198Y26830421D01*
X11842198Y26830421D02*
X11651722Y27306612D01*
X11651722Y27306612D02*
X11461246Y26830421D01*
X11461246Y26830421D02*
X11270770Y27497088D01*
X10127912Y27497088D02*
X10127912Y26830421D01*
X10127912Y27401850D02*
X10080293Y27449469D01*
X10080293Y27449469D02*
X9985055Y27497088D01*
X9985055Y27497088D02*
X9842198Y27497088D01*
X9842198Y27497088D02*
X9746960Y27449469D01*
X9746960Y27449469D02*
X9699341Y27354231D01*
X9699341Y27354231D02*
X9699341Y26830421D01*
X9080293Y26830421D02*
X9175531Y26878040D01*
X9175531Y26878040D02*
X9223150Y26925660D01*
X9223150Y26925660D02*
X9270769Y27020898D01*
X9270769Y27020898D02*
X9270769Y27306612D01*
X9270769Y27306612D02*
X9223150Y27401850D01*
X9223150Y27401850D02*
X9175531Y27449469D01*
X9175531Y27449469D02*
X9080293Y27497088D01*
X9080293Y27497088D02*
X8937436Y27497088D01*
X8937436Y27497088D02*
X8842198Y27449469D01*
X8842198Y27449469D02*
X8794579Y27401850D01*
X8794579Y27401850D02*
X8746960Y27306612D01*
X8746960Y27306612D02*
X8746960Y27020898D01*
X8746960Y27020898D02*
X8794579Y26925660D01*
X8794579Y26925660D02*
X8842198Y26878040D01*
X8842198Y26878040D02*
X8937436Y26830421D01*
X8937436Y26830421D02*
X9080293Y26830421D01*
X8318388Y26830421D02*
X8318388Y27497088D01*
X8318388Y27830421D02*
X8366007Y27782802D01*
X8366007Y27782802D02*
X8318388Y27735183D01*
X8318388Y27735183D02*
X8270769Y27782802D01*
X8270769Y27782802D02*
X8318388Y27830421D01*
X8318388Y27830421D02*
X8318388Y27735183D01*
X7889817Y26878040D02*
X7794579Y26830421D01*
X7794579Y26830421D02*
X7604103Y26830421D01*
X7604103Y26830421D02*
X7508865Y26878040D01*
X7508865Y26878040D02*
X7461246Y26973279D01*
X7461246Y26973279D02*
X7461246Y27020898D01*
X7461246Y27020898D02*
X7508865Y27116136D01*
X7508865Y27116136D02*
X7604103Y27163755D01*
X7604103Y27163755D02*
X7746960Y27163755D01*
X7746960Y27163755D02*
X7842198Y27211374D01*
X7842198Y27211374D02*
X7889817Y27306612D01*
X7889817Y27306612D02*
X7889817Y27354231D01*
X7889817Y27354231D02*
X7842198Y27449469D01*
X7842198Y27449469D02*
X7746960Y27497088D01*
X7746960Y27497088D02*
X7604103Y27497088D01*
X7604103Y27497088D02*
X7508865Y27449469D01*
X6651722Y26878040D02*
X6746960Y26830421D01*
X6746960Y26830421D02*
X6937436Y26830421D01*
X6937436Y26830421D02*
X7032674Y26878040D01*
X7032674Y26878040D02*
X7080293Y26973279D01*
X7080293Y26973279D02*
X7080293Y27354231D01*
X7080293Y27354231D02*
X7032674Y27449469D01*
X7032674Y27449469D02*
X6937436Y27497088D01*
X6937436Y27497088D02*
X6746960Y27497088D01*
X6746960Y27497088D02*
X6651722Y27449469D01*
X6651722Y27449469D02*
X6604103Y27354231D01*
X6604103Y27354231D02*
X6604103Y27258993D01*
X6604103Y27258993D02*
X7080293Y27163755D01*
X6270769Y26449469D02*
X6223150Y26497088D01*
X6223150Y26497088D02*
X6127912Y26639945D01*
X6127912Y26639945D02*
X6080293Y26735183D01*
X6080293Y26735183D02*
X6032674Y26878040D01*
X6032674Y26878040D02*
X5985055Y27116136D01*
X5985055Y27116136D02*
X5985055Y27306612D01*
X5985055Y27306612D02*
X6032674Y27544707D01*
X6032674Y27544707D02*
X6080293Y27687564D01*
X6080293Y27687564D02*
X6127912Y27782802D01*
X6127912Y27782802D02*
X6223150Y27925660D01*
X6223150Y27925660D02*
X6270769Y27973279D01*
X41461247Y25220477D02*
X41461247Y26220477D01*
X40985057Y25220477D02*
X40985057Y26220477D01*
X40985057Y26220477D02*
X40413629Y25220477D01*
X40413629Y25220477D02*
X40413629Y26220477D01*
X40080295Y26220477D02*
X39508867Y26220477D01*
X39794581Y25220477D02*
X39794581Y26220477D01*
X39175533Y25744287D02*
X38842200Y25744287D01*
X38699343Y25220477D02*
X39175533Y25220477D01*
X39175533Y25220477D02*
X39175533Y26220477D01*
X39175533Y26220477D02*
X38699343Y26220477D01*
X37699343Y25220477D02*
X38032676Y25696668D01*
X38270771Y25220477D02*
X38270771Y26220477D01*
X38270771Y26220477D02*
X37889819Y26220477D01*
X37889819Y26220477D02*
X37794581Y26172858D01*
X37794581Y26172858D02*
X37746962Y26125239D01*
X37746962Y26125239D02*
X37699343Y26030001D01*
X37699343Y26030001D02*
X37699343Y25887144D01*
X37699343Y25887144D02*
X37746962Y25791906D01*
X37746962Y25791906D02*
X37794581Y25744287D01*
X37794581Y25744287D02*
X37889819Y25696668D01*
X37889819Y25696668D02*
X38270771Y25696668D01*
X36937438Y25744287D02*
X37270771Y25744287D01*
X37270771Y25220477D02*
X37270771Y26220477D01*
X37270771Y26220477D02*
X36794581Y26220477D01*
X36461247Y25506192D02*
X35985057Y25506192D01*
X36556485Y25220477D02*
X36223152Y26220477D01*
X36223152Y26220477D02*
X35889819Y25220477D01*
X34985057Y25315716D02*
X35032676Y25268096D01*
X35032676Y25268096D02*
X35175533Y25220477D01*
X35175533Y25220477D02*
X35270771Y25220477D01*
X35270771Y25220477D02*
X35413628Y25268096D01*
X35413628Y25268096D02*
X35508866Y25363335D01*
X35508866Y25363335D02*
X35556485Y25458573D01*
X35556485Y25458573D02*
X35604104Y25649049D01*
X35604104Y25649049D02*
X35604104Y25791906D01*
X35604104Y25791906D02*
X35556485Y25982382D01*
X35556485Y25982382D02*
X35508866Y26077620D01*
X35508866Y26077620D02*
X35413628Y26172858D01*
X35413628Y26172858D02*
X35270771Y26220477D01*
X35270771Y26220477D02*
X35175533Y26220477D01*
X35175533Y26220477D02*
X35032676Y26172858D01*
X35032676Y26172858D02*
X34985057Y26125239D01*
X34556485Y25744287D02*
X34223152Y25744287D01*
X34080295Y25220477D02*
X34556485Y25220477D01*
X34556485Y25220477D02*
X34556485Y26220477D01*
X34556485Y26220477D02*
X34080295Y26220477D01*
X33651723Y25315716D02*
X33604104Y25268096D01*
X33604104Y25268096D02*
X33651723Y25220477D01*
X33651723Y25220477D02*
X33699342Y25268096D01*
X33699342Y25268096D02*
X33651723Y25315716D01*
X33651723Y25315716D02*
X33651723Y25220477D01*
X33651723Y25839525D02*
X33604104Y25791906D01*
X33604104Y25791906D02*
X33651723Y25744287D01*
X33651723Y25744287D02*
X33699342Y25791906D01*
X33699342Y25791906D02*
X33651723Y25839525D01*
X33651723Y25839525D02*
X33651723Y25744287D01*
X32413628Y25220477D02*
X32413628Y26220477D01*
X31985057Y26125239D02*
X31937438Y26172858D01*
X31937438Y26172858D02*
X31842200Y26220477D01*
X31842200Y26220477D02*
X31604105Y26220477D01*
X31604105Y26220477D02*
X31508867Y26172858D01*
X31508867Y26172858D02*
X31461248Y26125239D01*
X31461248Y26125239D02*
X31413629Y26030001D01*
X31413629Y26030001D02*
X31413629Y25934763D01*
X31413629Y25934763D02*
X31461248Y25791906D01*
X31461248Y25791906D02*
X32032676Y25220477D01*
X32032676Y25220477D02*
X31413629Y25220477D01*
X31032676Y25268096D02*
X30889819Y25220477D01*
X30889819Y25220477D02*
X30651724Y25220477D01*
X30651724Y25220477D02*
X30556486Y25268096D01*
X30556486Y25268096D02*
X30508867Y25315716D01*
X30508867Y25315716D02*
X30461248Y25410954D01*
X30461248Y25410954D02*
X30461248Y25506192D01*
X30461248Y25506192D02*
X30508867Y25601430D01*
X30508867Y25601430D02*
X30556486Y25649049D01*
X30556486Y25649049D02*
X30651724Y25696668D01*
X30651724Y25696668D02*
X30842200Y25744287D01*
X30842200Y25744287D02*
X30937438Y25791906D01*
X30937438Y25791906D02*
X30985057Y25839525D01*
X30985057Y25839525D02*
X31032676Y25934763D01*
X31032676Y25934763D02*
X31032676Y26030001D01*
X31032676Y26030001D02*
X30985057Y26125239D01*
X30985057Y26125239D02*
X30937438Y26172858D01*
X30937438Y26172858D02*
X30842200Y26220477D01*
X30842200Y26220477D02*
X30604105Y26220477D01*
X30604105Y26220477D02*
X30461248Y26172858D01*
X28985057Y24839525D02*
X29032676Y24887144D01*
X29032676Y24887144D02*
X29127914Y25030001D01*
X29127914Y25030001D02*
X29175533Y25125239D01*
X29175533Y25125239D02*
X29223152Y25268096D01*
X29223152Y25268096D02*
X29270771Y25506192D01*
X29270771Y25506192D02*
X29270771Y25696668D01*
X29270771Y25696668D02*
X29223152Y25934763D01*
X29223152Y25934763D02*
X29175533Y26077620D01*
X29175533Y26077620D02*
X29127914Y26172858D01*
X29127914Y26172858D02*
X29032676Y26315716D01*
X29032676Y26315716D02*
X28985057Y26363335D01*
X28270771Y25744287D02*
X28604104Y25744287D01*
X28604104Y25220477D02*
X28604104Y26220477D01*
X28604104Y26220477D02*
X28127914Y26220477D01*
X27746961Y25220477D02*
X27746961Y26220477D01*
X27746961Y26220477D02*
X27366009Y26220477D01*
X27366009Y26220477D02*
X27270771Y26172858D01*
X27270771Y26172858D02*
X27223152Y26125239D01*
X27223152Y26125239D02*
X27175533Y26030001D01*
X27175533Y26030001D02*
X27175533Y25887144D01*
X27175533Y25887144D02*
X27223152Y25791906D01*
X27223152Y25791906D02*
X27270771Y25744287D01*
X27270771Y25744287D02*
X27366009Y25696668D01*
X27366009Y25696668D02*
X27746961Y25696668D01*
X26175533Y25315716D02*
X26223152Y25268096D01*
X26223152Y25268096D02*
X26366009Y25220477D01*
X26366009Y25220477D02*
X26461247Y25220477D01*
X26461247Y25220477D02*
X26604104Y25268096D01*
X26604104Y25268096D02*
X26699342Y25363335D01*
X26699342Y25363335D02*
X26746961Y25458573D01*
X26746961Y25458573D02*
X26794580Y25649049D01*
X26794580Y25649049D02*
X26794580Y25791906D01*
X26794580Y25791906D02*
X26746961Y25982382D01*
X26746961Y25982382D02*
X26699342Y26077620D01*
X26699342Y26077620D02*
X26604104Y26172858D01*
X26604104Y26172858D02*
X26461247Y26220477D01*
X26461247Y26220477D02*
X26366009Y26220477D01*
X26366009Y26220477D02*
X26223152Y26172858D01*
X26223152Y26172858D02*
X26175533Y26125239D01*
X25842199Y24839525D02*
X25794580Y24887144D01*
X25794580Y24887144D02*
X25699342Y25030001D01*
X25699342Y25030001D02*
X25651723Y25125239D01*
X25651723Y25125239D02*
X25604104Y25268096D01*
X25604104Y25268096D02*
X25556485Y25506192D01*
X25556485Y25506192D02*
X25556485Y25696668D01*
X25556485Y25696668D02*
X25604104Y25934763D01*
X25604104Y25934763D02*
X25651723Y26077620D01*
X25651723Y26077620D02*
X25699342Y26172858D01*
X25699342Y26172858D02*
X25794580Y26315716D01*
X25794580Y26315716D02*
X25842199Y26363335D01*
X41604104Y24610533D02*
X41270771Y23610533D01*
X41270771Y23610533D02*
X40937438Y24610533D01*
X40604104Y23610533D02*
X40604104Y24610533D01*
X40127914Y23610533D02*
X40127914Y24610533D01*
X40127914Y24610533D02*
X39556486Y23610533D01*
X39556486Y23610533D02*
X39556486Y24610533D01*
X39080295Y23705772D02*
X39032676Y23658152D01*
X39032676Y23658152D02*
X39080295Y23610533D01*
X39080295Y23610533D02*
X39127914Y23658152D01*
X39127914Y23658152D02*
X39080295Y23705772D01*
X39080295Y23705772D02*
X39080295Y23610533D01*
X39080295Y24229581D02*
X39032676Y24181962D01*
X39032676Y24181962D02*
X39080295Y24134343D01*
X39080295Y24134343D02*
X39127914Y24181962D01*
X39127914Y24181962D02*
X39080295Y24229581D01*
X39080295Y24229581D02*
X39080295Y24134343D01*
X37889819Y24515295D02*
X37842200Y24562914D01*
X37842200Y24562914D02*
X37746962Y24610533D01*
X37746962Y24610533D02*
X37508867Y24610533D01*
X37508867Y24610533D02*
X37413629Y24562914D01*
X37413629Y24562914D02*
X37366010Y24515295D01*
X37366010Y24515295D02*
X37318391Y24420057D01*
X37318391Y24420057D02*
X37318391Y24324819D01*
X37318391Y24324819D02*
X37366010Y24181962D01*
X37366010Y24181962D02*
X37937438Y23610533D01*
X37937438Y23610533D02*
X37318391Y23610533D01*
X36889819Y23705772D02*
X36842200Y23658152D01*
X36842200Y23658152D02*
X36889819Y23610533D01*
X36889819Y23610533D02*
X36937438Y23658152D01*
X36937438Y23658152D02*
X36889819Y23705772D01*
X36889819Y23705772D02*
X36889819Y23610533D01*
X36508867Y24610533D02*
X35842201Y24610533D01*
X35842201Y24610533D02*
X36270772Y23610533D01*
X34842200Y24277200D02*
X34461248Y24277200D01*
X34699343Y24610533D02*
X34699343Y23753391D01*
X34699343Y23753391D02*
X34651724Y23658152D01*
X34651724Y23658152D02*
X34556486Y23610533D01*
X34556486Y23610533D02*
X34461248Y23610533D01*
X33985057Y23610533D02*
X34080295Y23658152D01*
X34080295Y23658152D02*
X34127914Y23705772D01*
X34127914Y23705772D02*
X34175533Y23801010D01*
X34175533Y23801010D02*
X34175533Y24086724D01*
X34175533Y24086724D02*
X34127914Y24181962D01*
X34127914Y24181962D02*
X34080295Y24229581D01*
X34080295Y24229581D02*
X33985057Y24277200D01*
X33985057Y24277200D02*
X33842200Y24277200D01*
X33842200Y24277200D02*
X33746962Y24229581D01*
X33746962Y24229581D02*
X33699343Y24181962D01*
X33699343Y24181962D02*
X33651724Y24086724D01*
X33651724Y24086724D02*
X33651724Y23801010D01*
X33651724Y23801010D02*
X33699343Y23705772D01*
X33699343Y23705772D02*
X33746962Y23658152D01*
X33746962Y23658152D02*
X33842200Y23610533D01*
X33842200Y23610533D02*
X33985057Y23610533D01*
X32032676Y24610533D02*
X32223152Y24610533D01*
X32223152Y24610533D02*
X32318390Y24562914D01*
X32318390Y24562914D02*
X32366009Y24515295D01*
X32366009Y24515295D02*
X32461247Y24372438D01*
X32461247Y24372438D02*
X32508866Y24181962D01*
X32508866Y24181962D02*
X32508866Y23801010D01*
X32508866Y23801010D02*
X32461247Y23705772D01*
X32461247Y23705772D02*
X32413628Y23658152D01*
X32413628Y23658152D02*
X32318390Y23610533D01*
X32318390Y23610533D02*
X32127914Y23610533D01*
X32127914Y23610533D02*
X32032676Y23658152D01*
X32032676Y23658152D02*
X31985057Y23705772D01*
X31985057Y23705772D02*
X31937438Y23801010D01*
X31937438Y23801010D02*
X31937438Y24039105D01*
X31937438Y24039105D02*
X31985057Y24134343D01*
X31985057Y24134343D02*
X32032676Y24181962D01*
X32032676Y24181962D02*
X32127914Y24229581D01*
X32127914Y24229581D02*
X32318390Y24229581D01*
X32318390Y24229581D02*
X32413628Y24181962D01*
X32413628Y24181962D02*
X32461247Y24134343D01*
X32461247Y24134343D02*
X32508866Y24039105D01*
X31508866Y23705772D02*
X31461247Y23658152D01*
X31461247Y23658152D02*
X31508866Y23610533D01*
X31508866Y23610533D02*
X31556485Y23658152D01*
X31556485Y23658152D02*
X31508866Y23705772D01*
X31508866Y23705772D02*
X31508866Y23610533D01*
X30556486Y24610533D02*
X31032676Y24610533D01*
X31032676Y24610533D02*
X31080295Y24134343D01*
X31080295Y24134343D02*
X31032676Y24181962D01*
X31032676Y24181962D02*
X30937438Y24229581D01*
X30937438Y24229581D02*
X30699343Y24229581D01*
X30699343Y24229581D02*
X30604105Y24181962D01*
X30604105Y24181962D02*
X30556486Y24134343D01*
X30556486Y24134343D02*
X30508867Y24039105D01*
X30508867Y24039105D02*
X30508867Y23801010D01*
X30508867Y23801010D02*
X30556486Y23705772D01*
X30556486Y23705772D02*
X30604105Y23658152D01*
X30604105Y23658152D02*
X30699343Y23610533D01*
X30699343Y23610533D02*
X30937438Y23610533D01*
X30937438Y23610533D02*
X31032676Y23658152D01*
X31032676Y23658152D02*
X31080295Y23705772D01*
X30223152Y24610533D02*
X29889819Y23610533D01*
X29889819Y23610533D02*
X29556486Y24610533D01*
D10*
%TO.C,MK2*%
X37860000Y54000000D02*
G75*
G02*
X37760000Y54000000I-50000J0D01*
G01*
X37760000Y54000000D02*
G75*
G02*
X37860000Y54000000I50000J0D01*
G01*
X37860000Y54000000D02*
X37860000Y54000000D01*
X37760000Y54000000D02*
X37760000Y54000000D01*
D12*
X37220000Y50920000D02*
X32460000Y50920000D01*
X37220000Y54680000D02*
X37220000Y50920000D01*
X32460000Y50920000D02*
X32460000Y54680000D01*
X32460000Y54680000D02*
X37220000Y54680000D01*
D13*
%TO.C,C7*%
X74561252Y48365000D02*
X74038748Y48365000D01*
X74561252Y49835000D02*
X74038748Y49835000D01*
%TO.C,C2*%
X41961252Y53565000D02*
X41438748Y53565000D01*
X41961252Y55035000D02*
X41438748Y55035000D01*
D10*
%TO.C,MK1*%
X72180000Y51600000D02*
G75*
G02*
X72080000Y51600000I-50000J0D01*
G01*
X72080000Y51600000D02*
G75*
G02*
X72180000Y51600000I50000J0D01*
G01*
D12*
X77480000Y50920000D02*
X72720000Y50920000D01*
X77480000Y54680000D02*
X77480000Y50920000D01*
X72720000Y50920000D02*
X72720000Y54680000D01*
X72720000Y54680000D02*
X77480000Y54680000D01*
D10*
X72180000Y51600000D02*
X72180000Y51600000D01*
X72080000Y51600000D02*
X72080000Y51600000D01*
D14*
%TO.C,G\u002A\u002A\u002A*%
G36*
X53959896Y32257577D02*
G01*
X53959896Y31621231D01*
X54483872Y31616876D01*
X54530944Y31616484D01*
X54659889Y31615338D01*
X54763601Y31614154D01*
X54845170Y31612724D01*
X54907689Y31610839D01*
X54954247Y31608291D01*
X54987936Y31604872D01*
X55011846Y31600372D01*
X55029069Y31594585D01*
X55042694Y31587300D01*
X55055814Y31578310D01*
X55077841Y31559789D01*
X55120128Y31507107D01*
X55150258Y31446324D01*
X55161743Y31389033D01*
X55152694Y31340873D01*
X55127608Y31282445D01*
X55092754Y31227673D01*
X55054432Y31188337D01*
X55043367Y31180943D01*
X55029557Y31174391D01*
X55010852Y31169156D01*
X54984201Y31165053D01*
X54946551Y31161896D01*
X54894850Y31159500D01*
X54826045Y31157679D01*
X54737085Y31156247D01*
X54624916Y31155020D01*
X54486487Y31153811D01*
X53959896Y31149456D01*
X53959896Y30520438D01*
X53959896Y29891420D01*
X54485035Y29887228D01*
X55010173Y29883035D01*
X55062664Y29842982D01*
X55085696Y29823027D01*
X55130702Y29761402D01*
X55152979Y29691685D01*
X55153080Y29619787D01*
X55131559Y29551622D01*
X55088970Y29493100D01*
X55025866Y29450133D01*
X55021030Y29447984D01*
X55002148Y29440786D01*
X54980103Y29435041D01*
X54951625Y29430586D01*
X54913446Y29427254D01*
X54862298Y29424881D01*
X54794910Y29423302D01*
X54708016Y29422351D01*
X54598345Y29421862D01*
X54462631Y29421672D01*
X53961384Y29421350D01*
X53956976Y28809435D01*
X53952568Y28197519D01*
X53913300Y28090018D01*
X53885341Y28019401D01*
X53828567Y27907711D01*
X53757749Y27806906D01*
X53666139Y27706521D01*
X53575117Y27623127D01*
X53482393Y27555642D01*
X53380835Y27500741D01*
X53260205Y27452004D01*
X53131795Y27406059D01*
X52497894Y27401543D01*
X51863993Y27397028D01*
X51863993Y26879400D01*
X51863818Y26776467D01*
X51863184Y26660477D01*
X51862142Y26555341D01*
X51860751Y26464751D01*
X51859071Y26392399D01*
X51857159Y26341976D01*
X51855074Y26317174D01*
X51851310Y26302619D01*
X51820466Y26244358D01*
X51770679Y26193706D01*
X51710098Y26159525D01*
X51681101Y26150789D01*
X51600296Y26144579D01*
X51524967Y26163840D01*
X51460653Y26206504D01*
X51412893Y26270503D01*
X51409335Y26277531D01*
X51401295Y26294681D01*
X51394895Y26312702D01*
X51389987Y26334754D01*
X51386424Y26363996D01*
X51384057Y26403590D01*
X51382739Y26456695D01*
X51382322Y26526470D01*
X51382660Y26616078D01*
X51383603Y26728676D01*
X51385006Y26867427D01*
X51390504Y27398731D01*
X50762505Y27398731D01*
X50134507Y27398731D01*
X50134507Y26855850D01*
X50134463Y26748656D01*
X50134195Y26626929D01*
X50133554Y26529180D01*
X50132397Y26452340D01*
X50130580Y26393341D01*
X50127961Y26349116D01*
X50124396Y26316597D01*
X50119741Y26292715D01*
X50113853Y26274402D01*
X50106588Y26258591D01*
X50099470Y26245851D01*
X50051718Y26191918D01*
X49990192Y26158145D01*
X49920881Y26144218D01*
X49849776Y26149824D01*
X49782867Y26174647D01*
X49726141Y26218374D01*
X49685590Y26280689D01*
X49681145Y26294829D01*
X49676444Y26322572D01*
X49672717Y26363718D01*
X49669873Y26420918D01*
X49667820Y26496825D01*
X49666466Y26594089D01*
X49665721Y26715361D01*
X49665494Y26863292D01*
X49665494Y27398731D01*
X49043089Y27398731D01*
X48420685Y27398731D01*
X48416517Y26842832D01*
X48416146Y26793808D01*
X48415043Y26660189D01*
X48413878Y26551970D01*
X48412477Y26466192D01*
X48410668Y26399896D01*
X48408275Y26350124D01*
X48405127Y26313918D01*
X48401049Y26288318D01*
X48395868Y26270366D01*
X48389410Y26257104D01*
X48381503Y26245573D01*
X48338805Y26201159D01*
X48267237Y26161225D01*
X48185170Y26147277D01*
X48123877Y26154928D01*
X48048997Y26188314D01*
X47988837Y26245573D01*
X47986117Y26249285D01*
X47978697Y26261052D01*
X47972670Y26275504D01*
X47967864Y26295600D01*
X47964105Y26324299D01*
X47961219Y26364560D01*
X47959034Y26419340D01*
X47957375Y26491599D01*
X47956069Y26584294D01*
X47954944Y26700386D01*
X47953824Y26842832D01*
X47949656Y27398731D01*
X47363275Y27398731D01*
X47297721Y27398761D01*
X47152633Y27399139D01*
X47032537Y27400028D01*
X46934346Y27401531D01*
X46854973Y27403750D01*
X46791331Y27406786D01*
X46740334Y27410742D01*
X46698894Y27415720D01*
X46663924Y27421820D01*
X46590569Y27439479D01*
X46427967Y27499261D01*
X46279675Y27583366D01*
X46147874Y27689856D01*
X46034748Y27816790D01*
X45942481Y27962230D01*
X45873256Y28124236D01*
X45833874Y28241489D01*
X45828627Y28831420D01*
X45823379Y29421350D01*
X45325616Y29421350D01*
X45243144Y29421377D01*
X45114368Y29421744D01*
X45010116Y29422918D01*
X44927300Y29425361D01*
X44862831Y29429536D01*
X44813621Y29435906D01*
X44776581Y29444936D01*
X44748622Y29457087D01*
X44726656Y29472822D01*
X44707594Y29492606D01*
X44688347Y29516901D01*
X44673854Y29538641D01*
X44654880Y29590945D01*
X46295201Y29590945D01*
X46295359Y29391353D01*
X46295752Y29212247D01*
X46296417Y29052436D01*
X46297386Y28910729D01*
X46298696Y28785935D01*
X46300380Y28676863D01*
X46302474Y28582321D01*
X46305012Y28501120D01*
X46308029Y28432067D01*
X46311559Y28373971D01*
X46315638Y28325643D01*
X46320300Y28285890D01*
X46325580Y28253521D01*
X46331512Y28227346D01*
X46338132Y28206173D01*
X46345473Y28188812D01*
X46353571Y28174071D01*
X46362461Y28160759D01*
X46372176Y28147685D01*
X46382752Y28133659D01*
X46394224Y28117489D01*
X46406540Y28099971D01*
X46488934Y28007827D01*
X46586103Y27934160D01*
X46691156Y27884381D01*
X46783822Y27853087D01*
X49906510Y27853875D01*
X50185120Y27853951D01*
X50520346Y27854064D01*
X50828361Y27854203D01*
X51110349Y27854377D01*
X51367496Y27854597D01*
X51600987Y27854872D01*
X51812007Y27855213D01*
X52001742Y27855628D01*
X52171376Y27856129D01*
X52322095Y27856725D01*
X52455085Y27857426D01*
X52571530Y27858241D01*
X52672615Y27859181D01*
X52759526Y27860256D01*
X52833449Y27861474D01*
X52895567Y27862847D01*
X52947067Y27864384D01*
X52989134Y27866095D01*
X53022953Y27867990D01*
X53049709Y27870078D01*
X53070588Y27872370D01*
X53086774Y27874876D01*
X53099453Y27877605D01*
X53109810Y27880567D01*
X53206603Y27920965D01*
X53312310Y27992052D01*
X53398445Y28083651D01*
X53462933Y28193456D01*
X53503702Y28319158D01*
X53504705Y28324416D01*
X53509762Y28368974D01*
X53514035Y28437041D01*
X53517328Y28523724D01*
X53519447Y28624126D01*
X53520196Y28733353D01*
X53520196Y29069880D01*
X52138806Y29068930D01*
X51895872Y29068613D01*
X51663060Y29067980D01*
X51452540Y29067049D01*
X51265191Y29065829D01*
X51101889Y29064330D01*
X50963512Y29062562D01*
X50850937Y29060533D01*
X50765042Y29058254D01*
X50706705Y29055734D01*
X50676803Y29052982D01*
X50652949Y29048291D01*
X50602143Y29035548D01*
X50555914Y29018260D01*
X50510117Y28993659D01*
X50460609Y28958976D01*
X50403245Y28911442D01*
X50333881Y28848288D01*
X50248372Y28766745D01*
X50162891Y28685475D01*
X50084340Y28614523D01*
X50017742Y28559840D01*
X49959031Y28518595D01*
X49904141Y28487955D01*
X49849007Y28465089D01*
X49789563Y28447165D01*
X49754802Y28441705D01*
X49692861Y28436657D01*
X49608719Y28432379D01*
X49506032Y28428870D01*
X49388457Y28426133D01*
X49259652Y28424166D01*
X49123272Y28422970D01*
X48982976Y28422546D01*
X48842420Y28422894D01*
X48705260Y28424015D01*
X48575154Y28425909D01*
X48455759Y28428576D01*
X48350731Y28432016D01*
X48263728Y28436231D01*
X48198406Y28441221D01*
X48158423Y28446985D01*
X48112657Y28458909D01*
X48023545Y28490931D01*
X47940897Y28535226D01*
X47857476Y28596048D01*
X47766045Y28677652D01*
X47631577Y28806025D01*
X47538610Y28782208D01*
X47434228Y28766572D01*
X47319273Y28774977D01*
X47211275Y28809489D01*
X47113846Y28868403D01*
X47030599Y28950017D01*
X46965145Y29052627D01*
X46952703Y29078457D01*
X46933815Y29123793D01*
X46923154Y29165497D01*
X46918434Y29214540D01*
X46917369Y29281893D01*
X46917374Y29282571D01*
X47276457Y29282571D01*
X47282001Y29241541D01*
X47308523Y29186775D01*
X47351866Y29149103D01*
X47407426Y29130177D01*
X47461836Y29136364D01*
X47512091Y29171060D01*
X47539989Y29207806D01*
X47557193Y29266117D01*
X47547275Y29325547D01*
X47510284Y29380315D01*
X47479233Y29407576D01*
X47449990Y29418806D01*
X47411351Y29416338D01*
X47368414Y29401471D01*
X47322718Y29368437D01*
X47289370Y29326130D01*
X47276457Y29282571D01*
X46917374Y29282571D01*
X46917711Y29328821D01*
X46920563Y29380788D01*
X46928287Y29420840D01*
X46943205Y29459362D01*
X46967639Y29506740D01*
X46975703Y29521138D01*
X47048210Y29620163D01*
X47135720Y29696339D01*
X47234521Y29749053D01*
X47340900Y29777689D01*
X47451146Y29781634D01*
X47561545Y29760273D01*
X47668386Y29712991D01*
X47767955Y29639175D01*
X47829421Y29570234D01*
X47885971Y29470056D01*
X47918330Y29359497D01*
X47923796Y29266117D01*
X47925105Y29243754D01*
X47904904Y29128024D01*
X47888406Y29072956D01*
X48000993Y28965012D01*
X48032512Y28934342D01*
X48066353Y28901203D01*
X48096386Y28873577D01*
X48125372Y28850966D01*
X48156069Y28832871D01*
X48191239Y28818796D01*
X48233640Y28808241D01*
X48286032Y28800709D01*
X48351175Y28795702D01*
X48431829Y28792723D01*
X48530754Y28791272D01*
X48650709Y28790852D01*
X48794454Y28790965D01*
X48964750Y28791114D01*
X49077802Y28791167D01*
X49231808Y28791490D01*
X49360364Y28792161D01*
X49465823Y28793242D01*
X49550539Y28794796D01*
X49616867Y28796886D01*
X49667161Y28799574D01*
X49703774Y28802922D01*
X49729062Y28806993D01*
X49745377Y28811850D01*
X49747471Y28812812D01*
X49775432Y28831490D01*
X49819601Y28866846D01*
X49875868Y28915350D01*
X49940124Y28973473D01*
X50008259Y29037683D01*
X50040193Y29068221D01*
X50133324Y29154469D01*
X50213021Y29222751D01*
X50283723Y29276243D01*
X50349871Y29318123D01*
X50415906Y29351568D01*
X50486267Y29379756D01*
X50581535Y29414022D01*
X52050866Y29418027D01*
X53520196Y29422031D01*
X53520196Y29634456D01*
X53520196Y29846881D01*
X51853001Y29842973D01*
X50185805Y29839065D01*
X50107337Y29797742D01*
X50091838Y29788588D01*
X50044555Y29754759D01*
X49984064Y29705926D01*
X49915379Y29646232D01*
X49843517Y29579820D01*
X49831400Y29568288D01*
X49749002Y29490935D01*
X49682124Y29430991D01*
X49626364Y29385317D01*
X49577318Y29350777D01*
X49530585Y29324233D01*
X49481761Y29302547D01*
X49426443Y29282581D01*
X49356374Y29264056D01*
X49248250Y29248512D01*
X49134138Y29243974D01*
X49024965Y29250738D01*
X48931656Y29269103D01*
X48922345Y29271876D01*
X48880629Y29284808D01*
X48842720Y29298242D01*
X48806577Y29313864D01*
X48770154Y29333360D01*
X48731409Y29358417D01*
X48688296Y29390721D01*
X48638773Y29431958D01*
X48580795Y29483815D01*
X48512319Y29547977D01*
X48431300Y29626132D01*
X48335696Y29719965D01*
X48223461Y29831163D01*
X48092552Y29961413D01*
X48023362Y30030492D01*
X47916881Y30137518D01*
X47817055Y30238712D01*
X47725915Y30331965D01*
X47645493Y30415172D01*
X47577820Y30486226D01*
X47524927Y30543020D01*
X47488846Y30583447D01*
X47471607Y30605401D01*
X47443108Y30660913D01*
X47409989Y30748742D01*
X47387404Y30838317D01*
X47379054Y30917171D01*
X47379054Y30988683D01*
X47206838Y30992813D01*
X47034622Y30996942D01*
X47034622Y32594518D01*
X47034622Y34192095D01*
X47382718Y34196024D01*
X47730814Y34199954D01*
X47730814Y33547467D01*
X47730814Y32894980D01*
X48346394Y32894980D01*
X48961974Y32894980D01*
X48961974Y33547202D01*
X48961974Y34199423D01*
X49321062Y34199423D01*
X49680150Y34199423D01*
X49680150Y32594518D01*
X49680150Y30989614D01*
X49321062Y30989614D01*
X48961974Y30989614D01*
X48961974Y31641835D01*
X48961974Y32294057D01*
X48346394Y32294057D01*
X47730814Y32294057D01*
X47731423Y31616186D01*
X47731475Y31566250D01*
X47731772Y31413141D01*
X47732321Y31285827D01*
X47733218Y31181586D01*
X47734556Y31097693D01*
X47736428Y31031427D01*
X47738927Y30980064D01*
X47742148Y30940880D01*
X47746184Y30911154D01*
X47751127Y30888161D01*
X47757072Y30869180D01*
X47761346Y30858868D01*
X47772293Y30839005D01*
X47789380Y30814434D01*
X47814240Y30783391D01*
X47848511Y30744110D01*
X47893828Y30694827D01*
X47951827Y30633776D01*
X48024144Y30559193D01*
X48112415Y30469312D01*
X48218275Y30362368D01*
X48343361Y30236596D01*
X48405828Y30173964D01*
X48533142Y30046941D01*
X48641927Y29939422D01*
X48733398Y29850254D01*
X48808772Y29778286D01*
X48869263Y29722366D01*
X48916088Y29681342D01*
X48950461Y29654063D01*
X48973598Y29639376D01*
X48985281Y29634041D01*
X49066173Y29611280D01*
X49158260Y29603836D01*
X49249654Y29611841D01*
X49328466Y29635428D01*
X49342192Y29642857D01*
X49386372Y29673724D01*
X49445696Y29721627D01*
X49516646Y29783650D01*
X49595704Y29856878D01*
X49599565Y29860544D01*
X49682284Y29937584D01*
X49750034Y29997012D01*
X49807541Y30042583D01*
X49859536Y30078056D01*
X49910747Y30107186D01*
X49933852Y30119276D01*
X49961814Y30133783D01*
X49988429Y30146708D01*
X50015401Y30158144D01*
X50044433Y30168180D01*
X50077228Y30176909D01*
X50115489Y30184421D01*
X50160920Y30190807D01*
X50215225Y30196159D01*
X50280106Y30200567D01*
X50357267Y30204124D01*
X50448411Y30206919D01*
X50555241Y30209044D01*
X50679462Y30210590D01*
X50822776Y30211648D01*
X50986886Y30212309D01*
X51173497Y30212665D01*
X51384310Y30212807D01*
X51621030Y30212825D01*
X51885360Y30212810D01*
X53520196Y30212810D01*
X53520196Y32314736D01*
X53520188Y32569997D01*
X53520146Y32835717D01*
X53520053Y33074884D01*
X53519890Y33288971D01*
X53519638Y33479452D01*
X53519279Y33647798D01*
X53518794Y33795484D01*
X53518164Y33923981D01*
X53517371Y34034762D01*
X53516397Y34129302D01*
X53515223Y34209071D01*
X53513830Y34275544D01*
X53512199Y34330192D01*
X53510313Y34374490D01*
X53508152Y34409909D01*
X53505699Y34437923D01*
X53502934Y34460005D01*
X53499838Y34477626D01*
X53496394Y34492261D01*
X53492583Y34505382D01*
X53452105Y34609896D01*
X53394299Y34704761D01*
X53315769Y34790883D01*
X53248144Y34845544D01*
X53132144Y34909234D01*
X53004921Y34947222D01*
X52994711Y34948284D01*
X52953420Y34950104D01*
X52883118Y34951755D01*
X52784002Y34953236D01*
X52656267Y34954546D01*
X52500109Y34955684D01*
X52315724Y34956651D01*
X52103307Y34957445D01*
X51863055Y34958065D01*
X51595163Y34958511D01*
X51299827Y34958783D01*
X50977243Y34958879D01*
X50627607Y34958799D01*
X50251114Y34958542D01*
X49847961Y34958108D01*
X46770802Y34954241D01*
X46671633Y34907419D01*
X46594747Y34864135D01*
X46495688Y34786653D01*
X46411276Y34694928D01*
X46348843Y34596033D01*
X46301789Y34499885D01*
X46297483Y31436642D01*
X46297266Y31285404D01*
X46296737Y30937884D01*
X46296236Y30617995D01*
X46295797Y30324548D01*
X46295455Y30056352D01*
X46295245Y29812214D01*
X46295201Y29590945D01*
X44654880Y29590945D01*
X44648570Y29608341D01*
X44647267Y29682221D01*
X44668327Y29753537D01*
X44710131Y29815546D01*
X44771061Y29861506D01*
X44777858Y29864867D01*
X44795128Y29872017D01*
X44815750Y29877694D01*
X44842968Y29882067D01*
X44880028Y29885304D01*
X44930175Y29887575D01*
X44996654Y29889048D01*
X45082711Y29889891D01*
X45191590Y29890274D01*
X45326537Y29890364D01*
X45825447Y29890364D01*
X45825447Y30519902D01*
X45825447Y31149440D01*
X45306185Y31153802D01*
X45186243Y31154856D01*
X45071670Y31156080D01*
X44980691Y31157486D01*
X44910236Y31159265D01*
X44857233Y31161606D01*
X44818609Y31164699D01*
X44791293Y31168733D01*
X44772213Y31173899D01*
X44758297Y31180386D01*
X44746473Y31188384D01*
X44733791Y31198312D01*
X44676111Y31261461D01*
X44645889Y31332398D01*
X44643743Y31408700D01*
X44670289Y31487940D01*
X44673038Y31493180D01*
X44713137Y31548132D01*
X44769609Y31586873D01*
X44785038Y31594395D01*
X44803352Y31601814D01*
X44824512Y31607630D01*
X44851827Y31612040D01*
X44888604Y31615237D01*
X44938152Y31617417D01*
X45003780Y31618773D01*
X45088797Y31619501D01*
X45196509Y31619795D01*
X45330226Y31619850D01*
X45825447Y31619850D01*
X45825447Y32257415D01*
X45825447Y32894980D01*
X45330785Y32895302D01*
X45324309Y32895306D01*
X45190404Y32895522D01*
X45082395Y32896068D01*
X44997007Y32897106D01*
X44930965Y32898800D01*
X44880996Y32901311D01*
X44843823Y32904802D01*
X44816173Y32909435D01*
X44794772Y32915371D01*
X44776344Y32922774D01*
X44715404Y32960499D01*
X44668458Y33018629D01*
X44644594Y33094351D01*
X44643109Y33143722D01*
X44662701Y33217400D01*
X44705876Y33281687D01*
X44769168Y33330024D01*
X44786153Y33338710D01*
X44803880Y33346153D01*
X44824544Y33351970D01*
X44851443Y33356361D01*
X44887873Y33359528D01*
X44937132Y33361669D01*
X45002517Y33362986D01*
X45087323Y33363679D01*
X45194849Y33363948D01*
X45328392Y33363993D01*
X45823379Y33363993D01*
X45828757Y33953924D01*
X45829541Y34038469D01*
X45830907Y34171286D01*
X45832346Y34279681D01*
X45834037Y34366812D01*
X45836156Y34435834D01*
X45838884Y34489904D01*
X45842397Y34532179D01*
X45846875Y34565815D01*
X45852496Y34593968D01*
X45859438Y34619794D01*
X45867879Y34646451D01*
X45905451Y34745426D01*
X45989454Y34904151D01*
X46096034Y35045680D01*
X46223296Y35168018D01*
X46369347Y35269166D01*
X46532292Y35347128D01*
X46653549Y35393782D01*
X47298442Y35401190D01*
X47943335Y35408598D01*
X47950664Y35960838D01*
X47951086Y35992531D01*
X47952985Y36128858D01*
X47954791Y36239457D01*
X47956692Y36327298D01*
X47958879Y36395352D01*
X47961542Y36446587D01*
X47964872Y36483974D01*
X47969058Y36510483D01*
X47974290Y36529082D01*
X47980758Y36542742D01*
X47988653Y36554433D01*
X47995802Y36563809D01*
X48054703Y36621821D01*
X48120501Y36652667D01*
X48196771Y36658128D01*
X48263058Y36645735D01*
X48326612Y36612063D01*
X48382130Y36553522D01*
X48384184Y36550729D01*
X48391569Y36539094D01*
X48397578Y36524730D01*
X48402380Y36504686D01*
X48406145Y36476007D01*
X48409045Y36435738D01*
X48411249Y36380926D01*
X48412928Y36308617D01*
X48414252Y36215857D01*
X48415392Y36099692D01*
X48416517Y35957169D01*
X48420685Y35401270D01*
X49043089Y35401270D01*
X49665494Y35401270D01*
X49665494Y35933132D01*
X49665495Y35969145D01*
X49665574Y36101546D01*
X49665903Y36208553D01*
X49666656Y36293325D01*
X49668007Y36359022D01*
X49670132Y36408803D01*
X49673205Y36445827D01*
X49677401Y36473252D01*
X49682894Y36494239D01*
X49689859Y36511947D01*
X49698471Y36529533D01*
X49710060Y36550733D01*
X49755645Y36608655D01*
X49813009Y36642913D01*
X49888400Y36657724D01*
X49966606Y36652995D01*
X50039125Y36623031D01*
X50097393Y36567599D01*
X50098825Y36565657D01*
X50106207Y36554053D01*
X50112256Y36539587D01*
X50117154Y36519320D01*
X50121083Y36490313D01*
X50124226Y36449628D01*
X50126764Y36394325D01*
X50128879Y36321466D01*
X50130753Y36228112D01*
X50132569Y36111323D01*
X50134507Y35968162D01*
X50141835Y35408598D01*
X50761140Y35408598D01*
X51380445Y35408598D01*
X51384048Y35960825D01*
X51384323Y36002546D01*
X51385295Y36136972D01*
X51386349Y36245870D01*
X51387657Y36332209D01*
X51389391Y36398959D01*
X51391723Y36449091D01*
X51394823Y36485574D01*
X51398863Y36511379D01*
X51404016Y36529475D01*
X51410452Y36542832D01*
X51418343Y36554420D01*
X51419082Y36555412D01*
X51480782Y36614943D01*
X51556233Y36649621D01*
X51641087Y36657436D01*
X51709237Y36645014D01*
X51771562Y36611679D01*
X51826446Y36553522D01*
X51828442Y36550810D01*
X51835842Y36539176D01*
X51841863Y36524834D01*
X51846674Y36504828D01*
X51850447Y36476203D01*
X51853351Y36436001D01*
X51855559Y36381268D01*
X51857240Y36309046D01*
X51858566Y36216379D01*
X51859706Y36100312D01*
X51860831Y35957889D01*
X51864997Y35402710D01*
X52498396Y35397906D01*
X53131795Y35393103D01*
X53237985Y35354113D01*
X53266775Y35343281D01*
X53395745Y35286321D01*
X53505560Y35221286D01*
X53604613Y35143353D01*
X53661421Y35089957D01*
X53767924Y34968378D01*
X53852670Y34835510D01*
X53920856Y34683798D01*
X53925419Y34671296D01*
X53932152Y34649887D01*
X53937677Y34625853D01*
X53942147Y34596229D01*
X53945712Y34558049D01*
X53948522Y34508347D01*
X53950731Y34444159D01*
X53952487Y34362520D01*
X53953943Y34260463D01*
X53955250Y34135024D01*
X53956558Y33983237D01*
X53961632Y33363993D01*
X54462755Y33363671D01*
X54500854Y33363641D01*
X54629441Y33363389D01*
X54732836Y33362796D01*
X54814310Y33361696D01*
X54877131Y33359925D01*
X54924568Y33357317D01*
X54959891Y33353706D01*
X54986369Y33348929D01*
X55007271Y33342818D01*
X55025866Y33335210D01*
X55052080Y33321183D01*
X55107500Y33271645D01*
X55142195Y33208785D01*
X55155613Y33138515D01*
X55147200Y33066747D01*
X55116402Y32999392D01*
X55062664Y32942362D01*
X55010173Y32902308D01*
X54485035Y32898116D01*
X53959896Y32893924D01*
X53959896Y32314736D01*
X53959896Y32257577D01*
G37*
G36*
X52596826Y32594518D02*
G01*
X52596826Y30989614D01*
X52245067Y30989614D01*
X51893307Y30989614D01*
X51893307Y31479309D01*
X51893307Y31969004D01*
X51457271Y31975172D01*
X51418323Y31975734D01*
X51298028Y31977726D01*
X51201844Y31979934D01*
X51125716Y31982641D01*
X51065589Y31986125D01*
X51017407Y31990667D01*
X50977115Y31996549D01*
X50940659Y32004050D01*
X50903982Y32013452D01*
X50833070Y32034801D01*
X50662348Y32104569D01*
X50512382Y32194323D01*
X50383781Y32303491D01*
X50277152Y32431500D01*
X50193101Y32577775D01*
X50132237Y32741746D01*
X50114838Y32824687D01*
X50102896Y32931914D01*
X50097838Y33049517D01*
X50098305Y33078188D01*
X50787129Y33078188D01*
X50788596Y33004202D01*
X50793551Y32947790D01*
X50803278Y32903460D01*
X50819070Y32862483D01*
X50839041Y32824348D01*
X50903332Y32737950D01*
X50985206Y32662917D01*
X51076427Y32607409D01*
X51167802Y32565205D01*
X51530554Y32560824D01*
X51893307Y32556444D01*
X51893307Y33078386D01*
X51893307Y33600329D01*
X51523226Y33595750D01*
X51153145Y33591172D01*
X51074875Y33549949D01*
X50973584Y33483799D01*
X50888571Y33400896D01*
X50827334Y33307441D01*
X50813597Y33278198D01*
X50799430Y33239996D01*
X50791370Y33200047D01*
X50787806Y33149171D01*
X50787129Y33078188D01*
X50098305Y33078188D01*
X50099771Y33168129D01*
X50108802Y33278384D01*
X50125039Y33370917D01*
X50129620Y33388772D01*
X50186822Y33548638D01*
X50268978Y33697760D01*
X50373118Y33832785D01*
X50496275Y33950358D01*
X50635480Y34047125D01*
X50787764Y34119732D01*
X50830916Y34135352D01*
X50876597Y34149926D01*
X50923548Y34162129D01*
X50974571Y34172167D01*
X51032472Y34180248D01*
X51100056Y34186579D01*
X51180125Y34191367D01*
X51275485Y34194820D01*
X51388939Y34197145D01*
X51523292Y34198549D01*
X51681349Y34199239D01*
X51865913Y34199423D01*
X52596826Y34199423D01*
X52596826Y33078386D01*
X52596826Y32594518D01*
G37*
%TD*%
M02*
