%TF.GenerationSoftware,KiCad,Pcbnew,8.0.6*%
%TF.CreationDate,2025-12-23T16:16:10-08:00*%
%TF.ProjectId,ADC_CS5381KKSZ_Board,4144435f-4353-4353-9338-314b4b535a5f,rev?*%
%TF.SameCoordinates,PX42c1d80PY5f5e100*%
%TF.FileFunction,Legend,Top*%
%TF.FilePolarity,Positive*%
%FSLAX46Y46*%
G04 Gerber Fmt 4.6, Leading zero omitted, Abs format (unit mm)*
G04 Created by KiCad (PCBNEW 8.0.6) date 2025-12-23 16:16:10*
%MOMM*%
%LPD*%
G01*
G04 APERTURE LIST*
%ADD10C,0.100000*%
%ADD11C,0.153000*%
%ADD12C,0.150000*%
%ADD13C,0.120000*%
%ADD14C,0.000000*%
%ADD15C,0.152400*%
%ADD16C,0.200000*%
%ADD17C,0.250000*%
G04 APERTURE END LIST*
D10*
X32200000Y4100000D02*
X31600000Y4100000D01*
X32200000Y6000000D02*
X32200000Y4100000D01*
X31600000Y6000000D02*
X32200000Y6000000D01*
D11*
X33462561Y5597718D02*
X33367323Y5645337D01*
X33367323Y5645337D02*
X33224466Y5645337D01*
X33224466Y5645337D02*
X33081609Y5597718D01*
X33081609Y5597718D02*
X32986371Y5502480D01*
X32986371Y5502480D02*
X32938752Y5407242D01*
X32938752Y5407242D02*
X32891133Y5216766D01*
X32891133Y5216766D02*
X32891133Y5073909D01*
X32891133Y5073909D02*
X32938752Y4883433D01*
X32938752Y4883433D02*
X32986371Y4788195D01*
X32986371Y4788195D02*
X33081609Y4692956D01*
X33081609Y4692956D02*
X33224466Y4645337D01*
X33224466Y4645337D02*
X33319704Y4645337D01*
X33319704Y4645337D02*
X33462561Y4692956D01*
X33462561Y4692956D02*
X33510180Y4740576D01*
X33510180Y4740576D02*
X33510180Y5073909D01*
X33510180Y5073909D02*
X33319704Y5073909D01*
X33938752Y4645337D02*
X33938752Y5645337D01*
X33938752Y5645337D02*
X34510180Y4645337D01*
X34510180Y4645337D02*
X34510180Y5645337D01*
X34986371Y4645337D02*
X34986371Y5645337D01*
X34986371Y5645337D02*
X35224466Y5645337D01*
X35224466Y5645337D02*
X35367323Y5597718D01*
X35367323Y5597718D02*
X35462561Y5502480D01*
X35462561Y5502480D02*
X35510180Y5407242D01*
X35510180Y5407242D02*
X35557799Y5216766D01*
X35557799Y5216766D02*
X35557799Y5073909D01*
X35557799Y5073909D02*
X35510180Y4883433D01*
X35510180Y4883433D02*
X35462561Y4788195D01*
X35462561Y4788195D02*
X35367323Y4692956D01*
X35367323Y4692956D02*
X35224466Y4645337D01*
X35224466Y4645337D02*
X34986371Y4645337D01*
X74554663Y41190477D02*
X73554663Y41190477D01*
X73554663Y41190477D02*
X74268948Y41523810D01*
X74268948Y41523810D02*
X73554663Y41857143D01*
X73554663Y41857143D02*
X74554663Y41857143D01*
X74554663Y42857143D02*
X74554663Y42285715D01*
X74554663Y42571429D02*
X73554663Y42571429D01*
X73554663Y42571429D02*
X73697520Y42476191D01*
X73697520Y42476191D02*
X73792758Y42380953D01*
X73792758Y42380953D02*
X73840377Y42285715D01*
X71954663Y41190477D02*
X70954663Y41190477D01*
X70954663Y41190477D02*
X71668948Y41523810D01*
X71668948Y41523810D02*
X70954663Y41857143D01*
X70954663Y41857143D02*
X71954663Y41857143D01*
X70954663Y42523810D02*
X70954663Y42619048D01*
X70954663Y42619048D02*
X71002282Y42714286D01*
X71002282Y42714286D02*
X71049901Y42761905D01*
X71049901Y42761905D02*
X71145139Y42809524D01*
X71145139Y42809524D02*
X71335615Y42857143D01*
X71335615Y42857143D02*
X71573710Y42857143D01*
X71573710Y42857143D02*
X71764186Y42809524D01*
X71764186Y42809524D02*
X71859424Y42761905D01*
X71859424Y42761905D02*
X71907044Y42714286D01*
X71907044Y42714286D02*
X71954663Y42619048D01*
X71954663Y42619048D02*
X71954663Y42523810D01*
X71954663Y42523810D02*
X71907044Y42428572D01*
X71907044Y42428572D02*
X71859424Y42380953D01*
X71859424Y42380953D02*
X71764186Y42333334D01*
X71764186Y42333334D02*
X71573710Y42285715D01*
X71573710Y42285715D02*
X71335615Y42285715D01*
X71335615Y42285715D02*
X71145139Y42333334D01*
X71145139Y42333334D02*
X71049901Y42380953D01*
X71049901Y42380953D02*
X71002282Y42428572D01*
X71002282Y42428572D02*
X70954663Y42523810D01*
X69154663Y34433334D02*
X68154663Y34433334D01*
X68154663Y34433334D02*
X68868948Y34766667D01*
X68868948Y34766667D02*
X68154663Y35100000D01*
X68154663Y35100000D02*
X69154663Y35100000D01*
X69154663Y35719048D02*
X69107044Y35623810D01*
X69107044Y35623810D02*
X69059424Y35576191D01*
X69059424Y35576191D02*
X68964186Y35528572D01*
X68964186Y35528572D02*
X68678472Y35528572D01*
X68678472Y35528572D02*
X68583234Y35576191D01*
X68583234Y35576191D02*
X68535615Y35623810D01*
X68535615Y35623810D02*
X68487996Y35719048D01*
X68487996Y35719048D02*
X68487996Y35861905D01*
X68487996Y35861905D02*
X68535615Y35957143D01*
X68535615Y35957143D02*
X68583234Y36004762D01*
X68583234Y36004762D02*
X68678472Y36052381D01*
X68678472Y36052381D02*
X68964186Y36052381D01*
X68964186Y36052381D02*
X69059424Y36004762D01*
X69059424Y36004762D02*
X69107044Y35957143D01*
X69107044Y35957143D02*
X69154663Y35861905D01*
X69154663Y35861905D02*
X69154663Y35719048D01*
X69154663Y36909524D02*
X68154663Y36909524D01*
X69107044Y36909524D02*
X69154663Y36814286D01*
X69154663Y36814286D02*
X69154663Y36623810D01*
X69154663Y36623810D02*
X69107044Y36528572D01*
X69107044Y36528572D02*
X69059424Y36480953D01*
X69059424Y36480953D02*
X68964186Y36433334D01*
X68964186Y36433334D02*
X68678472Y36433334D01*
X68678472Y36433334D02*
X68583234Y36480953D01*
X68583234Y36480953D02*
X68535615Y36528572D01*
X68535615Y36528572D02*
X68487996Y36623810D01*
X68487996Y36623810D02*
X68487996Y36814286D01*
X68487996Y36814286D02*
X68535615Y36909524D01*
X69107044Y37766667D02*
X69154663Y37671429D01*
X69154663Y37671429D02*
X69154663Y37480953D01*
X69154663Y37480953D02*
X69107044Y37385715D01*
X69107044Y37385715D02*
X69011805Y37338096D01*
X69011805Y37338096D02*
X68630853Y37338096D01*
X68630853Y37338096D02*
X68535615Y37385715D01*
X68535615Y37385715D02*
X68487996Y37480953D01*
X68487996Y37480953D02*
X68487996Y37671429D01*
X68487996Y37671429D02*
X68535615Y37766667D01*
X68535615Y37766667D02*
X68630853Y37814286D01*
X68630853Y37814286D02*
X68726091Y37814286D01*
X68726091Y37814286D02*
X68821329Y37338096D01*
X91154663Y5804763D02*
X91154663Y5328573D01*
X91154663Y5328573D02*
X90154663Y5328573D01*
X90154663Y6328573D02*
X90154663Y6519049D01*
X90154663Y6519049D02*
X90202282Y6614287D01*
X90202282Y6614287D02*
X90297520Y6709525D01*
X90297520Y6709525D02*
X90487996Y6757144D01*
X90487996Y6757144D02*
X90821329Y6757144D01*
X90821329Y6757144D02*
X91011805Y6709525D01*
X91011805Y6709525D02*
X91107044Y6614287D01*
X91107044Y6614287D02*
X91154663Y6519049D01*
X91154663Y6519049D02*
X91154663Y6328573D01*
X91154663Y6328573D02*
X91107044Y6233335D01*
X91107044Y6233335D02*
X91011805Y6138097D01*
X91011805Y6138097D02*
X90821329Y6090478D01*
X90821329Y6090478D02*
X90487996Y6090478D01*
X90487996Y6090478D02*
X90297520Y6138097D01*
X90297520Y6138097D02*
X90202282Y6233335D01*
X90202282Y6233335D02*
X90154663Y6328573D01*
X90154663Y7090478D02*
X91154663Y7328573D01*
X91154663Y7328573D02*
X90440377Y7519049D01*
X90440377Y7519049D02*
X91154663Y7709525D01*
X91154663Y7709525D02*
X90154663Y7947620D01*
X90107044Y9042858D02*
X91392758Y8185716D01*
X91154663Y9376192D02*
X90154663Y9376192D01*
X90630853Y9376192D02*
X90630853Y9947620D01*
X91154663Y9947620D02*
X90154663Y9947620D01*
X91154663Y10423811D02*
X90154663Y10423811D01*
X90202282Y11423810D02*
X90154663Y11328572D01*
X90154663Y11328572D02*
X90154663Y11185715D01*
X90154663Y11185715D02*
X90202282Y11042858D01*
X90202282Y11042858D02*
X90297520Y10947620D01*
X90297520Y10947620D02*
X90392758Y10900001D01*
X90392758Y10900001D02*
X90583234Y10852382D01*
X90583234Y10852382D02*
X90726091Y10852382D01*
X90726091Y10852382D02*
X90916567Y10900001D01*
X90916567Y10900001D02*
X91011805Y10947620D01*
X91011805Y10947620D02*
X91107044Y11042858D01*
X91107044Y11042858D02*
X91154663Y11185715D01*
X91154663Y11185715D02*
X91154663Y11280953D01*
X91154663Y11280953D02*
X91107044Y11423810D01*
X91107044Y11423810D02*
X91059424Y11471429D01*
X91059424Y11471429D02*
X90726091Y11471429D01*
X90726091Y11471429D02*
X90726091Y11280953D01*
X91154663Y11900001D02*
X90154663Y11900001D01*
X90630853Y11900001D02*
X90630853Y12471429D01*
X91154663Y12471429D02*
X90154663Y12471429D01*
D10*
X89600000Y12900000D02*
X91700000Y12900000D01*
X89600000Y4800000D02*
X89600000Y12900000D01*
X91700000Y12900000D02*
X91700000Y4800000D01*
X91700000Y4800000D02*
X89600000Y4800000D01*
X81000000Y17100000D02*
X79000000Y17100000D01*
X81000000Y25200000D02*
X81000000Y17100000D01*
X79000000Y17100000D02*
X79000000Y25200000D01*
X79000000Y25200000D02*
X81000000Y25200000D01*
D11*
X31654663Y50790477D02*
X30654663Y50790477D01*
X30654663Y50790477D02*
X31368948Y51123810D01*
X31368948Y51123810D02*
X30654663Y51457143D01*
X30654663Y51457143D02*
X31654663Y51457143D01*
X31654663Y51933334D02*
X30654663Y51933334D01*
X31654663Y52504762D02*
X31083234Y52076191D01*
X30654663Y52504762D02*
X31226091Y51933334D01*
X30749901Y52885715D02*
X30702282Y52933334D01*
X30702282Y52933334D02*
X30654663Y53028572D01*
X30654663Y53028572D02*
X30654663Y53266667D01*
X30654663Y53266667D02*
X30702282Y53361905D01*
X30702282Y53361905D02*
X30749901Y53409524D01*
X30749901Y53409524D02*
X30845139Y53457143D01*
X30845139Y53457143D02*
X30940377Y53457143D01*
X30940377Y53457143D02*
X31083234Y53409524D01*
X31083234Y53409524D02*
X31654663Y52838096D01*
X31654663Y52838096D02*
X31654663Y53457143D01*
D12*
X24045180Y11509524D02*
X25045180Y11509524D01*
X25045180Y11509524D02*
X24330895Y11176191D01*
X24330895Y11176191D02*
X25045180Y10842858D01*
X25045180Y10842858D02*
X24045180Y10842858D01*
X24045180Y9842858D02*
X24045180Y10414286D01*
X24045180Y10128572D02*
X25045180Y10128572D01*
X25045180Y10128572D02*
X24902323Y10223810D01*
X24902323Y10223810D02*
X24807085Y10319048D01*
X24807085Y10319048D02*
X24759466Y10414286D01*
X22545180Y12857143D02*
X22545180Y12666667D01*
X22545180Y12666667D02*
X22497561Y12571429D01*
X22497561Y12571429D02*
X22402323Y12476191D01*
X22402323Y12476191D02*
X22211847Y12428572D01*
X22211847Y12428572D02*
X21878514Y12428572D01*
X21878514Y12428572D02*
X21688038Y12476191D01*
X21688038Y12476191D02*
X21592800Y12571429D01*
X21592800Y12571429D02*
X21545180Y12666667D01*
X21545180Y12666667D02*
X21545180Y12857143D01*
X21545180Y12857143D02*
X21592800Y12952381D01*
X21592800Y12952381D02*
X21688038Y13047619D01*
X21688038Y13047619D02*
X21878514Y13095238D01*
X21878514Y13095238D02*
X22211847Y13095238D01*
X22211847Y13095238D02*
X22402323Y13047619D01*
X22402323Y13047619D02*
X22497561Y12952381D01*
X22497561Y12952381D02*
X22545180Y12857143D01*
X22545180Y12142857D02*
X21545180Y11809524D01*
X21545180Y11809524D02*
X22545180Y11476191D01*
X22068990Y10809524D02*
X22068990Y11142857D01*
X21545180Y11142857D02*
X22545180Y11142857D01*
X22545180Y11142857D02*
X22545180Y10666667D01*
X21545180Y9809524D02*
X21545180Y10285714D01*
X21545180Y10285714D02*
X22545180Y10285714D01*
X80354819Y17523811D02*
X79354819Y17523811D01*
X79354819Y17523811D02*
X79354819Y17761906D01*
X79354819Y17761906D02*
X79402438Y17904763D01*
X79402438Y17904763D02*
X79497676Y18000001D01*
X79497676Y18000001D02*
X79592914Y18047620D01*
X79592914Y18047620D02*
X79783390Y18095239D01*
X79783390Y18095239D02*
X79926247Y18095239D01*
X79926247Y18095239D02*
X80116723Y18047620D01*
X80116723Y18047620D02*
X80211961Y18000001D01*
X80211961Y18000001D02*
X80307200Y17904763D01*
X80307200Y17904763D02*
X80354819Y17761906D01*
X80354819Y17761906D02*
X80354819Y17523811D01*
X80354819Y18523811D02*
X79688152Y18523811D01*
X79354819Y18523811D02*
X79402438Y18476192D01*
X79402438Y18476192D02*
X79450057Y18523811D01*
X79450057Y18523811D02*
X79402438Y18571430D01*
X79402438Y18571430D02*
X79354819Y18523811D01*
X79354819Y18523811D02*
X79450057Y18523811D01*
X79688152Y18904763D02*
X80354819Y19142858D01*
X80354819Y19142858D02*
X79688152Y19380953D01*
X80354819Y20285715D02*
X80354819Y19714287D01*
X80354819Y20000001D02*
X79354819Y20000001D01*
X79354819Y20000001D02*
X79497676Y19904763D01*
X79497676Y19904763D02*
X79592914Y19809525D01*
X79592914Y19809525D02*
X79640533Y19714287D01*
X79307200Y21428572D02*
X80592914Y20571430D01*
X80354819Y21761906D02*
X79354819Y21761906D01*
X79354819Y21761906D02*
X79354819Y22000001D01*
X79354819Y22000001D02*
X79402438Y22142858D01*
X79402438Y22142858D02*
X79497676Y22238096D01*
X79497676Y22238096D02*
X79592914Y22285715D01*
X79592914Y22285715D02*
X79783390Y22333334D01*
X79783390Y22333334D02*
X79926247Y22333334D01*
X79926247Y22333334D02*
X80116723Y22285715D01*
X80116723Y22285715D02*
X80211961Y22238096D01*
X80211961Y22238096D02*
X80307200Y22142858D01*
X80307200Y22142858D02*
X80354819Y22000001D01*
X80354819Y22000001D02*
X80354819Y21761906D01*
X80354819Y22761906D02*
X79688152Y22761906D01*
X79354819Y22761906D02*
X79402438Y22714287D01*
X79402438Y22714287D02*
X79450057Y22761906D01*
X79450057Y22761906D02*
X79402438Y22809525D01*
X79402438Y22809525D02*
X79354819Y22761906D01*
X79354819Y22761906D02*
X79450057Y22761906D01*
X79688152Y23142858D02*
X80354819Y23380953D01*
X80354819Y23380953D02*
X79688152Y23619048D01*
X79450057Y23952382D02*
X79402438Y24000001D01*
X79402438Y24000001D02*
X79354819Y24095239D01*
X79354819Y24095239D02*
X79354819Y24333334D01*
X79354819Y24333334D02*
X79402438Y24428572D01*
X79402438Y24428572D02*
X79450057Y24476191D01*
X79450057Y24476191D02*
X79545295Y24523810D01*
X79545295Y24523810D02*
X79640533Y24523810D01*
X79640533Y24523810D02*
X79783390Y24476191D01*
X79783390Y24476191D02*
X80354819Y23904763D01*
X80354819Y23904763D02*
X80354819Y24523810D01*
X83749847Y5428572D02*
X82749847Y5428572D01*
X83226037Y5428572D02*
X83226037Y6000000D01*
X83749847Y6000000D02*
X82749847Y6000000D01*
X83749847Y6476191D02*
X83083180Y6476191D01*
X82749847Y6476191D02*
X82797466Y6428572D01*
X82797466Y6428572D02*
X82845085Y6476191D01*
X82845085Y6476191D02*
X82797466Y6523810D01*
X82797466Y6523810D02*
X82749847Y6476191D01*
X82749847Y6476191D02*
X82845085Y6476191D01*
X83083180Y7380952D02*
X83892704Y7380952D01*
X83892704Y7380952D02*
X83987942Y7333333D01*
X83987942Y7333333D02*
X84035561Y7285714D01*
X84035561Y7285714D02*
X84083180Y7190476D01*
X84083180Y7190476D02*
X84083180Y7047619D01*
X84083180Y7047619D02*
X84035561Y6952381D01*
X83702228Y7380952D02*
X83749847Y7285714D01*
X83749847Y7285714D02*
X83749847Y7095238D01*
X83749847Y7095238D02*
X83702228Y7000000D01*
X83702228Y7000000D02*
X83654608Y6952381D01*
X83654608Y6952381D02*
X83559370Y6904762D01*
X83559370Y6904762D02*
X83273656Y6904762D01*
X83273656Y6904762D02*
X83178418Y6952381D01*
X83178418Y6952381D02*
X83130799Y7000000D01*
X83130799Y7000000D02*
X83083180Y7095238D01*
X83083180Y7095238D02*
X83083180Y7285714D01*
X83083180Y7285714D02*
X83130799Y7380952D01*
X83749847Y7857143D02*
X82749847Y7857143D01*
X83749847Y8285714D02*
X83226037Y8285714D01*
X83226037Y8285714D02*
X83130799Y8238095D01*
X83130799Y8238095D02*
X83083180Y8142857D01*
X83083180Y8142857D02*
X83083180Y8000000D01*
X83083180Y8000000D02*
X83130799Y7904762D01*
X83130799Y7904762D02*
X83178418Y7857143D01*
X83749847Y9523810D02*
X82749847Y9523810D01*
X82749847Y9523810D02*
X82749847Y9904762D01*
X82749847Y9904762D02*
X82797466Y10000000D01*
X82797466Y10000000D02*
X82845085Y10047619D01*
X82845085Y10047619D02*
X82940323Y10095238D01*
X82940323Y10095238D02*
X83083180Y10095238D01*
X83083180Y10095238D02*
X83178418Y10047619D01*
X83178418Y10047619D02*
X83226037Y10000000D01*
X83226037Y10000000D02*
X83273656Y9904762D01*
X83273656Y9904762D02*
X83273656Y9523810D01*
X83749847Y10952381D02*
X83226037Y10952381D01*
X83226037Y10952381D02*
X83130799Y10904762D01*
X83130799Y10904762D02*
X83083180Y10809524D01*
X83083180Y10809524D02*
X83083180Y10619048D01*
X83083180Y10619048D02*
X83130799Y10523810D01*
X83702228Y10952381D02*
X83749847Y10857143D01*
X83749847Y10857143D02*
X83749847Y10619048D01*
X83749847Y10619048D02*
X83702228Y10523810D01*
X83702228Y10523810D02*
X83606989Y10476191D01*
X83606989Y10476191D02*
X83511751Y10476191D01*
X83511751Y10476191D02*
X83416513Y10523810D01*
X83416513Y10523810D02*
X83368894Y10619048D01*
X83368894Y10619048D02*
X83368894Y10857143D01*
X83368894Y10857143D02*
X83321275Y10952381D01*
X83702228Y11380953D02*
X83749847Y11476191D01*
X83749847Y11476191D02*
X83749847Y11666667D01*
X83749847Y11666667D02*
X83702228Y11761905D01*
X83702228Y11761905D02*
X83606989Y11809524D01*
X83606989Y11809524D02*
X83559370Y11809524D01*
X83559370Y11809524D02*
X83464132Y11761905D01*
X83464132Y11761905D02*
X83416513Y11666667D01*
X83416513Y11666667D02*
X83416513Y11523810D01*
X83416513Y11523810D02*
X83368894Y11428572D01*
X83368894Y11428572D02*
X83273656Y11380953D01*
X83273656Y11380953D02*
X83226037Y11380953D01*
X83226037Y11380953D02*
X83130799Y11428572D01*
X83130799Y11428572D02*
X83083180Y11523810D01*
X83083180Y11523810D02*
X83083180Y11666667D01*
X83083180Y11666667D02*
X83130799Y11761905D01*
X83702228Y12190477D02*
X83749847Y12285715D01*
X83749847Y12285715D02*
X83749847Y12476191D01*
X83749847Y12476191D02*
X83702228Y12571429D01*
X83702228Y12571429D02*
X83606989Y12619048D01*
X83606989Y12619048D02*
X83559370Y12619048D01*
X83559370Y12619048D02*
X83464132Y12571429D01*
X83464132Y12571429D02*
X83416513Y12476191D01*
X83416513Y12476191D02*
X83416513Y12333334D01*
X83416513Y12333334D02*
X83368894Y12238096D01*
X83368894Y12238096D02*
X83273656Y12190477D01*
X83273656Y12190477D02*
X83226037Y12190477D01*
X83226037Y12190477D02*
X83130799Y12238096D01*
X83130799Y12238096D02*
X83083180Y12333334D01*
X83083180Y12333334D02*
X83083180Y12476191D01*
X83083180Y12476191D02*
X83130799Y12571429D01*
X84835981Y7619048D02*
X84835981Y7285715D01*
X85359791Y7285715D02*
X84359791Y7285715D01*
X84359791Y7285715D02*
X84359791Y7761905D01*
X85359791Y8142858D02*
X84693124Y8142858D01*
X84359791Y8142858D02*
X84407410Y8095239D01*
X84407410Y8095239D02*
X84455029Y8142858D01*
X84455029Y8142858D02*
X84407410Y8190477D01*
X84407410Y8190477D02*
X84359791Y8142858D01*
X84359791Y8142858D02*
X84455029Y8142858D01*
X85359791Y8761905D02*
X85312172Y8666667D01*
X85312172Y8666667D02*
X85216933Y8619048D01*
X85216933Y8619048D02*
X84359791Y8619048D01*
X84693124Y9000001D02*
X84693124Y9380953D01*
X84359791Y9142858D02*
X85216933Y9142858D01*
X85216933Y9142858D02*
X85312172Y9190477D01*
X85312172Y9190477D02*
X85359791Y9285715D01*
X85359791Y9285715D02*
X85359791Y9380953D01*
X85312172Y10095239D02*
X85359791Y10000001D01*
X85359791Y10000001D02*
X85359791Y9809525D01*
X85359791Y9809525D02*
X85312172Y9714287D01*
X85312172Y9714287D02*
X85216933Y9666668D01*
X85216933Y9666668D02*
X84835981Y9666668D01*
X84835981Y9666668D02*
X84740743Y9714287D01*
X84740743Y9714287D02*
X84693124Y9809525D01*
X84693124Y9809525D02*
X84693124Y10000001D01*
X84693124Y10000001D02*
X84740743Y10095239D01*
X84740743Y10095239D02*
X84835981Y10142858D01*
X84835981Y10142858D02*
X84931219Y10142858D01*
X84931219Y10142858D02*
X85026457Y9666668D01*
X85359791Y10571430D02*
X84693124Y10571430D01*
X84883600Y10571430D02*
X84788362Y10619049D01*
X84788362Y10619049D02*
X84740743Y10666668D01*
X84740743Y10666668D02*
X84693124Y10761906D01*
X84693124Y10761906D02*
X84693124Y10857144D01*
X74954819Y16433334D02*
X73954819Y16433334D01*
X73954819Y16433334D02*
X74669104Y16766667D01*
X74669104Y16766667D02*
X73954819Y17100000D01*
X73954819Y17100000D02*
X74954819Y17100000D01*
X74859580Y18147619D02*
X74907200Y18100000D01*
X74907200Y18100000D02*
X74954819Y17957143D01*
X74954819Y17957143D02*
X74954819Y17861905D01*
X74954819Y17861905D02*
X74907200Y17719048D01*
X74907200Y17719048D02*
X74811961Y17623810D01*
X74811961Y17623810D02*
X74716723Y17576191D01*
X74716723Y17576191D02*
X74526247Y17528572D01*
X74526247Y17528572D02*
X74383390Y17528572D01*
X74383390Y17528572D02*
X74192914Y17576191D01*
X74192914Y17576191D02*
X74097676Y17623810D01*
X74097676Y17623810D02*
X74002438Y17719048D01*
X74002438Y17719048D02*
X73954819Y17861905D01*
X73954819Y17861905D02*
X73954819Y17957143D01*
X73954819Y17957143D02*
X74002438Y18100000D01*
X74002438Y18100000D02*
X74050057Y18147619D01*
X74954819Y19052381D02*
X74954819Y18576191D01*
X74954819Y18576191D02*
X73954819Y18576191D01*
X74954819Y19385715D02*
X73954819Y19385715D01*
X74954819Y19957143D02*
X74383390Y19528572D01*
X73954819Y19957143D02*
X74526247Y19385715D01*
X74954819Y21147620D02*
X73954819Y21147620D01*
X73954819Y21147620D02*
X73954819Y21385715D01*
X73954819Y21385715D02*
X74002438Y21528572D01*
X74002438Y21528572D02*
X74097676Y21623810D01*
X74097676Y21623810D02*
X74192914Y21671429D01*
X74192914Y21671429D02*
X74383390Y21719048D01*
X74383390Y21719048D02*
X74526247Y21719048D01*
X74526247Y21719048D02*
X74716723Y21671429D01*
X74716723Y21671429D02*
X74811961Y21623810D01*
X74811961Y21623810D02*
X74907200Y21528572D01*
X74907200Y21528572D02*
X74954819Y21385715D01*
X74954819Y21385715D02*
X74954819Y21147620D01*
X74954819Y22147620D02*
X74288152Y22147620D01*
X73954819Y22147620D02*
X74002438Y22100001D01*
X74002438Y22100001D02*
X74050057Y22147620D01*
X74050057Y22147620D02*
X74002438Y22195239D01*
X74002438Y22195239D02*
X73954819Y22147620D01*
X73954819Y22147620D02*
X74050057Y22147620D01*
X74288152Y22528572D02*
X74954819Y22766667D01*
X74954819Y22766667D02*
X74288152Y23004762D01*
X74954819Y23385715D02*
X74288152Y23385715D01*
X73954819Y23385715D02*
X74002438Y23338096D01*
X74002438Y23338096D02*
X74050057Y23385715D01*
X74050057Y23385715D02*
X74002438Y23433334D01*
X74002438Y23433334D02*
X73954819Y23385715D01*
X73954819Y23385715D02*
X74050057Y23385715D01*
X74954819Y24290476D02*
X73954819Y24290476D01*
X74907200Y24290476D02*
X74954819Y24195238D01*
X74954819Y24195238D02*
X74954819Y24004762D01*
X74954819Y24004762D02*
X74907200Y23909524D01*
X74907200Y23909524D02*
X74859580Y23861905D01*
X74859580Y23861905D02*
X74764342Y23814286D01*
X74764342Y23814286D02*
X74478628Y23814286D01*
X74478628Y23814286D02*
X74383390Y23861905D01*
X74383390Y23861905D02*
X74335771Y23909524D01*
X74335771Y23909524D02*
X74288152Y24004762D01*
X74288152Y24004762D02*
X74288152Y24195238D01*
X74288152Y24195238D02*
X74335771Y24290476D01*
X74907200Y25147619D02*
X74954819Y25052381D01*
X74954819Y25052381D02*
X74954819Y24861905D01*
X74954819Y24861905D02*
X74907200Y24766667D01*
X74907200Y24766667D02*
X74811961Y24719048D01*
X74811961Y24719048D02*
X74431009Y24719048D01*
X74431009Y24719048D02*
X74335771Y24766667D01*
X74335771Y24766667D02*
X74288152Y24861905D01*
X74288152Y24861905D02*
X74288152Y25052381D01*
X74288152Y25052381D02*
X74335771Y25147619D01*
X74335771Y25147619D02*
X74431009Y25195238D01*
X74431009Y25195238D02*
X74526247Y25195238D01*
X74526247Y25195238D02*
X74621485Y24719048D01*
X74954819Y25623810D02*
X74288152Y25623810D01*
X74478628Y25623810D02*
X74383390Y25671429D01*
X74383390Y25671429D02*
X74335771Y25719048D01*
X74335771Y25719048D02*
X74288152Y25814286D01*
X74288152Y25814286D02*
X74288152Y25909524D01*
X73064132Y3095238D02*
X73064132Y3571428D01*
X73349847Y3000000D02*
X72349847Y3333333D01*
X72349847Y3333333D02*
X73349847Y3666666D01*
X72683180Y4428571D02*
X73349847Y4428571D01*
X72683180Y4000000D02*
X73206989Y4000000D01*
X73206989Y4000000D02*
X73302228Y4047619D01*
X73302228Y4047619D02*
X73349847Y4142857D01*
X73349847Y4142857D02*
X73349847Y4285714D01*
X73349847Y4285714D02*
X73302228Y4380952D01*
X73302228Y4380952D02*
X73254608Y4428571D01*
X73349847Y5333333D02*
X72349847Y5333333D01*
X73302228Y5333333D02*
X73349847Y5238095D01*
X73349847Y5238095D02*
X73349847Y5047619D01*
X73349847Y5047619D02*
X73302228Y4952381D01*
X73302228Y4952381D02*
X73254608Y4904762D01*
X73254608Y4904762D02*
X73159370Y4857143D01*
X73159370Y4857143D02*
X72873656Y4857143D01*
X72873656Y4857143D02*
X72778418Y4904762D01*
X72778418Y4904762D02*
X72730799Y4952381D01*
X72730799Y4952381D02*
X72683180Y5047619D01*
X72683180Y5047619D02*
X72683180Y5238095D01*
X72683180Y5238095D02*
X72730799Y5333333D01*
X73349847Y5809524D02*
X72683180Y5809524D01*
X72349847Y5809524D02*
X72397466Y5761905D01*
X72397466Y5761905D02*
X72445085Y5809524D01*
X72445085Y5809524D02*
X72397466Y5857143D01*
X72397466Y5857143D02*
X72349847Y5809524D01*
X72349847Y5809524D02*
X72445085Y5809524D01*
X73349847Y6428571D02*
X73302228Y6333333D01*
X73302228Y6333333D02*
X73254608Y6285714D01*
X73254608Y6285714D02*
X73159370Y6238095D01*
X73159370Y6238095D02*
X72873656Y6238095D01*
X72873656Y6238095D02*
X72778418Y6285714D01*
X72778418Y6285714D02*
X72730799Y6333333D01*
X72730799Y6333333D02*
X72683180Y6428571D01*
X72683180Y6428571D02*
X72683180Y6571428D01*
X72683180Y6571428D02*
X72730799Y6666666D01*
X72730799Y6666666D02*
X72778418Y6714285D01*
X72778418Y6714285D02*
X72873656Y6761904D01*
X72873656Y6761904D02*
X73159370Y6761904D01*
X73159370Y6761904D02*
X73254608Y6714285D01*
X73254608Y6714285D02*
X73302228Y6666666D01*
X73302228Y6666666D02*
X73349847Y6571428D01*
X73349847Y6571428D02*
X73349847Y6428571D01*
X73349847Y7952381D02*
X72349847Y7952381D01*
X72683180Y8428571D02*
X73349847Y8428571D01*
X72778418Y8428571D02*
X72730799Y8476190D01*
X72730799Y8476190D02*
X72683180Y8571428D01*
X72683180Y8571428D02*
X72683180Y8714285D01*
X72683180Y8714285D02*
X72730799Y8809523D01*
X72730799Y8809523D02*
X72826037Y8857142D01*
X72826037Y8857142D02*
X73349847Y8857142D01*
X72683180Y9190476D02*
X72683180Y9571428D01*
X72349847Y9333333D02*
X73206989Y9333333D01*
X73206989Y9333333D02*
X73302228Y9380952D01*
X73302228Y9380952D02*
X73349847Y9476190D01*
X73349847Y9476190D02*
X73349847Y9571428D01*
X73302228Y10285714D02*
X73349847Y10190476D01*
X73349847Y10190476D02*
X73349847Y10000000D01*
X73349847Y10000000D02*
X73302228Y9904762D01*
X73302228Y9904762D02*
X73206989Y9857143D01*
X73206989Y9857143D02*
X72826037Y9857143D01*
X72826037Y9857143D02*
X72730799Y9904762D01*
X72730799Y9904762D02*
X72683180Y10000000D01*
X72683180Y10000000D02*
X72683180Y10190476D01*
X72683180Y10190476D02*
X72730799Y10285714D01*
X72730799Y10285714D02*
X72826037Y10333333D01*
X72826037Y10333333D02*
X72921275Y10333333D01*
X72921275Y10333333D02*
X73016513Y9857143D01*
X73349847Y10761905D02*
X72683180Y10761905D01*
X72873656Y10761905D02*
X72778418Y10809524D01*
X72778418Y10809524D02*
X72730799Y10857143D01*
X72730799Y10857143D02*
X72683180Y10952381D01*
X72683180Y10952381D02*
X72683180Y11047619D01*
X72683180Y11238096D02*
X72683180Y11619048D01*
X73349847Y11380953D02*
X72492704Y11380953D01*
X72492704Y11380953D02*
X72397466Y11428572D01*
X72397466Y11428572D02*
X72349847Y11523810D01*
X72349847Y11523810D02*
X72349847Y11619048D01*
X73349847Y12380953D02*
X72826037Y12380953D01*
X72826037Y12380953D02*
X72730799Y12333334D01*
X72730799Y12333334D02*
X72683180Y12238096D01*
X72683180Y12238096D02*
X72683180Y12047620D01*
X72683180Y12047620D02*
X72730799Y11952382D01*
X73302228Y12380953D02*
X73349847Y12285715D01*
X73349847Y12285715D02*
X73349847Y12047620D01*
X73349847Y12047620D02*
X73302228Y11952382D01*
X73302228Y11952382D02*
X73206989Y11904763D01*
X73206989Y11904763D02*
X73111751Y11904763D01*
X73111751Y11904763D02*
X73016513Y11952382D01*
X73016513Y11952382D02*
X72968894Y12047620D01*
X72968894Y12047620D02*
X72968894Y12285715D01*
X72968894Y12285715D02*
X72921275Y12380953D01*
X73302228Y13285715D02*
X73349847Y13190477D01*
X73349847Y13190477D02*
X73349847Y13000001D01*
X73349847Y13000001D02*
X73302228Y12904763D01*
X73302228Y12904763D02*
X73254608Y12857144D01*
X73254608Y12857144D02*
X73159370Y12809525D01*
X73159370Y12809525D02*
X72873656Y12809525D01*
X72873656Y12809525D02*
X72778418Y12857144D01*
X72778418Y12857144D02*
X72730799Y12904763D01*
X72730799Y12904763D02*
X72683180Y13000001D01*
X72683180Y13000001D02*
X72683180Y13190477D01*
X72683180Y13190477D02*
X72730799Y13285715D01*
X73302228Y14095239D02*
X73349847Y14000001D01*
X73349847Y14000001D02*
X73349847Y13809525D01*
X73349847Y13809525D02*
X73302228Y13714287D01*
X73302228Y13714287D02*
X73206989Y13666668D01*
X73206989Y13666668D02*
X72826037Y13666668D01*
X72826037Y13666668D02*
X72730799Y13714287D01*
X72730799Y13714287D02*
X72683180Y13809525D01*
X72683180Y13809525D02*
X72683180Y14000001D01*
X72683180Y14000001D02*
X72730799Y14095239D01*
X72730799Y14095239D02*
X72826037Y14142858D01*
X72826037Y14142858D02*
X72921275Y14142858D01*
X72921275Y14142858D02*
X73016513Y13666668D01*
X74435981Y6976191D02*
X74435981Y6642858D01*
X74959791Y6642858D02*
X73959791Y6642858D01*
X73959791Y6642858D02*
X73959791Y7119048D01*
X74959791Y7642858D02*
X74912172Y7547620D01*
X74912172Y7547620D02*
X74864552Y7500001D01*
X74864552Y7500001D02*
X74769314Y7452382D01*
X74769314Y7452382D02*
X74483600Y7452382D01*
X74483600Y7452382D02*
X74388362Y7500001D01*
X74388362Y7500001D02*
X74340743Y7547620D01*
X74340743Y7547620D02*
X74293124Y7642858D01*
X74293124Y7642858D02*
X74293124Y7785715D01*
X74293124Y7785715D02*
X74340743Y7880953D01*
X74340743Y7880953D02*
X74388362Y7928572D01*
X74388362Y7928572D02*
X74483600Y7976191D01*
X74483600Y7976191D02*
X74769314Y7976191D01*
X74769314Y7976191D02*
X74864552Y7928572D01*
X74864552Y7928572D02*
X74912172Y7880953D01*
X74912172Y7880953D02*
X74959791Y7785715D01*
X74959791Y7785715D02*
X74959791Y7642858D01*
X74959791Y8404763D02*
X74293124Y8404763D01*
X74483600Y8404763D02*
X74388362Y8452382D01*
X74388362Y8452382D02*
X74340743Y8500001D01*
X74340743Y8500001D02*
X74293124Y8595239D01*
X74293124Y8595239D02*
X74293124Y8690477D01*
X74959791Y9023811D02*
X74293124Y9023811D01*
X74388362Y9023811D02*
X74340743Y9071430D01*
X74340743Y9071430D02*
X74293124Y9166668D01*
X74293124Y9166668D02*
X74293124Y9309525D01*
X74293124Y9309525D02*
X74340743Y9404763D01*
X74340743Y9404763D02*
X74435981Y9452382D01*
X74435981Y9452382D02*
X74959791Y9452382D01*
X74435981Y9452382D02*
X74340743Y9500001D01*
X74340743Y9500001D02*
X74293124Y9595239D01*
X74293124Y9595239D02*
X74293124Y9738096D01*
X74293124Y9738096D02*
X74340743Y9833335D01*
X74340743Y9833335D02*
X74435981Y9880954D01*
X74435981Y9880954D02*
X74959791Y9880954D01*
X74959791Y10785715D02*
X74435981Y10785715D01*
X74435981Y10785715D02*
X74340743Y10738096D01*
X74340743Y10738096D02*
X74293124Y10642858D01*
X74293124Y10642858D02*
X74293124Y10452382D01*
X74293124Y10452382D02*
X74340743Y10357144D01*
X74912172Y10785715D02*
X74959791Y10690477D01*
X74959791Y10690477D02*
X74959791Y10452382D01*
X74959791Y10452382D02*
X74912172Y10357144D01*
X74912172Y10357144D02*
X74816933Y10309525D01*
X74816933Y10309525D02*
X74721695Y10309525D01*
X74721695Y10309525D02*
X74626457Y10357144D01*
X74626457Y10357144D02*
X74578838Y10452382D01*
X74578838Y10452382D02*
X74578838Y10690477D01*
X74578838Y10690477D02*
X74531219Y10785715D01*
X74293124Y11119049D02*
X74293124Y11500001D01*
X73959791Y11261906D02*
X74816933Y11261906D01*
X74816933Y11261906D02*
X74912172Y11309525D01*
X74912172Y11309525D02*
X74959791Y11404763D01*
X74959791Y11404763D02*
X74959791Y11500001D01*
X18945180Y11747620D02*
X19421371Y12080953D01*
X18945180Y12319048D02*
X19945180Y12319048D01*
X19945180Y12319048D02*
X19945180Y11938096D01*
X19945180Y11938096D02*
X19897561Y11842858D01*
X19897561Y11842858D02*
X19849942Y11795239D01*
X19849942Y11795239D02*
X19754704Y11747620D01*
X19754704Y11747620D02*
X19611847Y11747620D01*
X19611847Y11747620D02*
X19516609Y11795239D01*
X19516609Y11795239D02*
X19468990Y11842858D01*
X19468990Y11842858D02*
X19421371Y11938096D01*
X19421371Y11938096D02*
X19421371Y12319048D01*
X18992800Y11366667D02*
X18945180Y11223810D01*
X18945180Y11223810D02*
X18945180Y10985715D01*
X18945180Y10985715D02*
X18992800Y10890477D01*
X18992800Y10890477D02*
X19040419Y10842858D01*
X19040419Y10842858D02*
X19135657Y10795239D01*
X19135657Y10795239D02*
X19230895Y10795239D01*
X19230895Y10795239D02*
X19326133Y10842858D01*
X19326133Y10842858D02*
X19373752Y10890477D01*
X19373752Y10890477D02*
X19421371Y10985715D01*
X19421371Y10985715D02*
X19468990Y11176191D01*
X19468990Y11176191D02*
X19516609Y11271429D01*
X19516609Y11271429D02*
X19564228Y11319048D01*
X19564228Y11319048D02*
X19659466Y11366667D01*
X19659466Y11366667D02*
X19754704Y11366667D01*
X19754704Y11366667D02*
X19849942Y11319048D01*
X19849942Y11319048D02*
X19897561Y11271429D01*
X19897561Y11271429D02*
X19945180Y11176191D01*
X19945180Y11176191D02*
X19945180Y10938096D01*
X19945180Y10938096D02*
X19897561Y10795239D01*
X19945180Y10509524D02*
X19945180Y9938096D01*
X18945180Y10223810D02*
X19945180Y10223810D01*
X83749847Y16261905D02*
X82749847Y16261905D01*
X82749847Y16261905D02*
X83464132Y16595238D01*
X83464132Y16595238D02*
X82749847Y16928571D01*
X82749847Y16928571D02*
X83749847Y16928571D01*
X83749847Y17833333D02*
X83226037Y17833333D01*
X83226037Y17833333D02*
X83130799Y17785714D01*
X83130799Y17785714D02*
X83083180Y17690476D01*
X83083180Y17690476D02*
X83083180Y17500000D01*
X83083180Y17500000D02*
X83130799Y17404762D01*
X83702228Y17833333D02*
X83749847Y17738095D01*
X83749847Y17738095D02*
X83749847Y17500000D01*
X83749847Y17500000D02*
X83702228Y17404762D01*
X83702228Y17404762D02*
X83606989Y17357143D01*
X83606989Y17357143D02*
X83511751Y17357143D01*
X83511751Y17357143D02*
X83416513Y17404762D01*
X83416513Y17404762D02*
X83368894Y17500000D01*
X83368894Y17500000D02*
X83368894Y17738095D01*
X83368894Y17738095D02*
X83321275Y17833333D01*
X83702228Y18261905D02*
X83749847Y18357143D01*
X83749847Y18357143D02*
X83749847Y18547619D01*
X83749847Y18547619D02*
X83702228Y18642857D01*
X83702228Y18642857D02*
X83606989Y18690476D01*
X83606989Y18690476D02*
X83559370Y18690476D01*
X83559370Y18690476D02*
X83464132Y18642857D01*
X83464132Y18642857D02*
X83416513Y18547619D01*
X83416513Y18547619D02*
X83416513Y18404762D01*
X83416513Y18404762D02*
X83368894Y18309524D01*
X83368894Y18309524D02*
X83273656Y18261905D01*
X83273656Y18261905D02*
X83226037Y18261905D01*
X83226037Y18261905D02*
X83130799Y18309524D01*
X83130799Y18309524D02*
X83083180Y18404762D01*
X83083180Y18404762D02*
X83083180Y18547619D01*
X83083180Y18547619D02*
X83130799Y18642857D01*
X83083180Y18976191D02*
X83083180Y19357143D01*
X82749847Y19119048D02*
X83606989Y19119048D01*
X83606989Y19119048D02*
X83702228Y19166667D01*
X83702228Y19166667D02*
X83749847Y19261905D01*
X83749847Y19261905D02*
X83749847Y19357143D01*
X83702228Y20071429D02*
X83749847Y19976191D01*
X83749847Y19976191D02*
X83749847Y19785715D01*
X83749847Y19785715D02*
X83702228Y19690477D01*
X83702228Y19690477D02*
X83606989Y19642858D01*
X83606989Y19642858D02*
X83226037Y19642858D01*
X83226037Y19642858D02*
X83130799Y19690477D01*
X83130799Y19690477D02*
X83083180Y19785715D01*
X83083180Y19785715D02*
X83083180Y19976191D01*
X83083180Y19976191D02*
X83130799Y20071429D01*
X83130799Y20071429D02*
X83226037Y20119048D01*
X83226037Y20119048D02*
X83321275Y20119048D01*
X83321275Y20119048D02*
X83416513Y19642858D01*
X83749847Y20547620D02*
X83083180Y20547620D01*
X83273656Y20547620D02*
X83178418Y20595239D01*
X83178418Y20595239D02*
X83130799Y20642858D01*
X83130799Y20642858D02*
X83083180Y20738096D01*
X83083180Y20738096D02*
X83083180Y20833334D01*
X82702228Y21880953D02*
X83987942Y21023811D01*
X83702228Y22166668D02*
X83749847Y22309525D01*
X83749847Y22309525D02*
X83749847Y22547620D01*
X83749847Y22547620D02*
X83702228Y22642858D01*
X83702228Y22642858D02*
X83654608Y22690477D01*
X83654608Y22690477D02*
X83559370Y22738096D01*
X83559370Y22738096D02*
X83464132Y22738096D01*
X83464132Y22738096D02*
X83368894Y22690477D01*
X83368894Y22690477D02*
X83321275Y22642858D01*
X83321275Y22642858D02*
X83273656Y22547620D01*
X83273656Y22547620D02*
X83226037Y22357144D01*
X83226037Y22357144D02*
X83178418Y22261906D01*
X83178418Y22261906D02*
X83130799Y22214287D01*
X83130799Y22214287D02*
X83035561Y22166668D01*
X83035561Y22166668D02*
X82940323Y22166668D01*
X82940323Y22166668D02*
X82845085Y22214287D01*
X82845085Y22214287D02*
X82797466Y22261906D01*
X82797466Y22261906D02*
X82749847Y22357144D01*
X82749847Y22357144D02*
X82749847Y22595239D01*
X82749847Y22595239D02*
X82797466Y22738096D01*
X83749847Y23309525D02*
X83702228Y23214287D01*
X83702228Y23214287D02*
X83606989Y23166668D01*
X83606989Y23166668D02*
X82749847Y23166668D01*
X83749847Y24119049D02*
X83226037Y24119049D01*
X83226037Y24119049D02*
X83130799Y24071430D01*
X83130799Y24071430D02*
X83083180Y23976192D01*
X83083180Y23976192D02*
X83083180Y23785716D01*
X83083180Y23785716D02*
X83130799Y23690478D01*
X83702228Y24119049D02*
X83749847Y24023811D01*
X83749847Y24023811D02*
X83749847Y23785716D01*
X83749847Y23785716D02*
X83702228Y23690478D01*
X83702228Y23690478D02*
X83606989Y23642859D01*
X83606989Y23642859D02*
X83511751Y23642859D01*
X83511751Y23642859D02*
X83416513Y23690478D01*
X83416513Y23690478D02*
X83368894Y23785716D01*
X83368894Y23785716D02*
X83368894Y24023811D01*
X83368894Y24023811D02*
X83321275Y24119049D01*
X83083180Y24500002D02*
X83749847Y24738097D01*
X83749847Y24738097D02*
X83083180Y24976192D01*
X83702228Y25738097D02*
X83749847Y25642859D01*
X83749847Y25642859D02*
X83749847Y25452383D01*
X83749847Y25452383D02*
X83702228Y25357145D01*
X83702228Y25357145D02*
X83606989Y25309526D01*
X83606989Y25309526D02*
X83226037Y25309526D01*
X83226037Y25309526D02*
X83130799Y25357145D01*
X83130799Y25357145D02*
X83083180Y25452383D01*
X83083180Y25452383D02*
X83083180Y25642859D01*
X83083180Y25642859D02*
X83130799Y25738097D01*
X83130799Y25738097D02*
X83226037Y25785716D01*
X83226037Y25785716D02*
X83321275Y25785716D01*
X83321275Y25785716D02*
X83416513Y25309526D01*
X85359791Y19333334D02*
X84359791Y19333334D01*
X84359791Y19333334D02*
X85074076Y19666667D01*
X85074076Y19666667D02*
X84359791Y20000000D01*
X84359791Y20000000D02*
X85359791Y20000000D01*
X85359791Y20619048D02*
X85312172Y20523810D01*
X85312172Y20523810D02*
X85264552Y20476191D01*
X85264552Y20476191D02*
X85169314Y20428572D01*
X85169314Y20428572D02*
X84883600Y20428572D01*
X84883600Y20428572D02*
X84788362Y20476191D01*
X84788362Y20476191D02*
X84740743Y20523810D01*
X84740743Y20523810D02*
X84693124Y20619048D01*
X84693124Y20619048D02*
X84693124Y20761905D01*
X84693124Y20761905D02*
X84740743Y20857143D01*
X84740743Y20857143D02*
X84788362Y20904762D01*
X84788362Y20904762D02*
X84883600Y20952381D01*
X84883600Y20952381D02*
X85169314Y20952381D01*
X85169314Y20952381D02*
X85264552Y20904762D01*
X85264552Y20904762D02*
X85312172Y20857143D01*
X85312172Y20857143D02*
X85359791Y20761905D01*
X85359791Y20761905D02*
X85359791Y20619048D01*
X85359791Y21809524D02*
X84359791Y21809524D01*
X85312172Y21809524D02*
X85359791Y21714286D01*
X85359791Y21714286D02*
X85359791Y21523810D01*
X85359791Y21523810D02*
X85312172Y21428572D01*
X85312172Y21428572D02*
X85264552Y21380953D01*
X85264552Y21380953D02*
X85169314Y21333334D01*
X85169314Y21333334D02*
X84883600Y21333334D01*
X84883600Y21333334D02*
X84788362Y21380953D01*
X84788362Y21380953D02*
X84740743Y21428572D01*
X84740743Y21428572D02*
X84693124Y21523810D01*
X84693124Y21523810D02*
X84693124Y21714286D01*
X84693124Y21714286D02*
X84740743Y21809524D01*
X85312172Y22666667D02*
X85359791Y22571429D01*
X85359791Y22571429D02*
X85359791Y22380953D01*
X85359791Y22380953D02*
X85312172Y22285715D01*
X85312172Y22285715D02*
X85216933Y22238096D01*
X85216933Y22238096D02*
X84835981Y22238096D01*
X84835981Y22238096D02*
X84740743Y22285715D01*
X84740743Y22285715D02*
X84693124Y22380953D01*
X84693124Y22380953D02*
X84693124Y22571429D01*
X84693124Y22571429D02*
X84740743Y22666667D01*
X84740743Y22666667D02*
X84835981Y22714286D01*
X84835981Y22714286D02*
X84931219Y22714286D01*
X84931219Y22714286D02*
X85026457Y22238096D01*
X26645180Y11509524D02*
X27645180Y11509524D01*
X27645180Y11509524D02*
X26930895Y11176191D01*
X26930895Y11176191D02*
X27645180Y10842858D01*
X27645180Y10842858D02*
X26645180Y10842858D01*
X27645180Y10176191D02*
X27645180Y10080953D01*
X27645180Y10080953D02*
X27597561Y9985715D01*
X27597561Y9985715D02*
X27549942Y9938096D01*
X27549942Y9938096D02*
X27454704Y9890477D01*
X27454704Y9890477D02*
X27264228Y9842858D01*
X27264228Y9842858D02*
X27026133Y9842858D01*
X27026133Y9842858D02*
X26835657Y9890477D01*
X26835657Y9890477D02*
X26740419Y9938096D01*
X26740419Y9938096D02*
X26692800Y9985715D01*
X26692800Y9985715D02*
X26645180Y10080953D01*
X26645180Y10080953D02*
X26645180Y10176191D01*
X26645180Y10176191D02*
X26692800Y10271429D01*
X26692800Y10271429D02*
X26740419Y10319048D01*
X26740419Y10319048D02*
X26835657Y10366667D01*
X26835657Y10366667D02*
X27026133Y10414286D01*
X27026133Y10414286D02*
X27264228Y10414286D01*
X27264228Y10414286D02*
X27454704Y10366667D01*
X27454704Y10366667D02*
X27549942Y10319048D01*
X27549942Y10319048D02*
X27597561Y10271429D01*
X27597561Y10271429D02*
X27645180Y10176191D01*
D11*
X60638095Y1545337D02*
X60638095Y2545337D01*
X61066666Y2450099D02*
X61114285Y2497718D01*
X61114285Y2497718D02*
X61209523Y2545337D01*
X61209523Y2545337D02*
X61447618Y2545337D01*
X61447618Y2545337D02*
X61542856Y2497718D01*
X61542856Y2497718D02*
X61590475Y2450099D01*
X61590475Y2450099D02*
X61638094Y2354861D01*
X61638094Y2354861D02*
X61638094Y2259623D01*
X61638094Y2259623D02*
X61590475Y2116766D01*
X61590475Y2116766D02*
X61019047Y1545337D01*
X61019047Y1545337D02*
X61638094Y1545337D01*
X62019047Y1592956D02*
X62161904Y1545337D01*
X62161904Y1545337D02*
X62399999Y1545337D01*
X62399999Y1545337D02*
X62495237Y1592956D01*
X62495237Y1592956D02*
X62542856Y1640576D01*
X62542856Y1640576D02*
X62590475Y1735814D01*
X62590475Y1735814D02*
X62590475Y1831052D01*
X62590475Y1831052D02*
X62542856Y1926290D01*
X62542856Y1926290D02*
X62495237Y1973909D01*
X62495237Y1973909D02*
X62399999Y2021528D01*
X62399999Y2021528D02*
X62209523Y2069147D01*
X62209523Y2069147D02*
X62114285Y2116766D01*
X62114285Y2116766D02*
X62066666Y2164385D01*
X62066666Y2164385D02*
X62019047Y2259623D01*
X62019047Y2259623D02*
X62019047Y2354861D01*
X62019047Y2354861D02*
X62066666Y2450099D01*
X62066666Y2450099D02*
X62114285Y2497718D01*
X62114285Y2497718D02*
X62209523Y2545337D01*
X62209523Y2545337D02*
X62447618Y2545337D01*
X62447618Y2545337D02*
X62590475Y2497718D01*
X63971428Y2545337D02*
X64161904Y2545337D01*
X64161904Y2545337D02*
X64257142Y2497718D01*
X64257142Y2497718D02*
X64352380Y2402480D01*
X64352380Y2402480D02*
X64399999Y2212004D01*
X64399999Y2212004D02*
X64399999Y1878671D01*
X64399999Y1878671D02*
X64352380Y1688195D01*
X64352380Y1688195D02*
X64257142Y1592956D01*
X64257142Y1592956D02*
X64161904Y1545337D01*
X64161904Y1545337D02*
X63971428Y1545337D01*
X63971428Y1545337D02*
X63876190Y1592956D01*
X63876190Y1592956D02*
X63780952Y1688195D01*
X63780952Y1688195D02*
X63733333Y1878671D01*
X63733333Y1878671D02*
X63733333Y2212004D01*
X63733333Y2212004D02*
X63780952Y2402480D01*
X63780952Y2402480D02*
X63876190Y2497718D01*
X63876190Y2497718D02*
X63971428Y2545337D01*
X64828571Y2545337D02*
X64828571Y1735814D01*
X64828571Y1735814D02*
X64876190Y1640576D01*
X64876190Y1640576D02*
X64923809Y1592956D01*
X64923809Y1592956D02*
X65019047Y1545337D01*
X65019047Y1545337D02*
X65209523Y1545337D01*
X65209523Y1545337D02*
X65304761Y1592956D01*
X65304761Y1592956D02*
X65352380Y1640576D01*
X65352380Y1640576D02*
X65399999Y1735814D01*
X65399999Y1735814D02*
X65399999Y2545337D01*
X65733333Y2545337D02*
X66304761Y2545337D01*
X66019047Y1545337D02*
X66019047Y2545337D01*
D12*
X90907200Y19619049D02*
X90954819Y19761906D01*
X90954819Y19761906D02*
X90954819Y20000001D01*
X90954819Y20000001D02*
X90907200Y20095239D01*
X90907200Y20095239D02*
X90859580Y20142858D01*
X90859580Y20142858D02*
X90764342Y20190477D01*
X90764342Y20190477D02*
X90669104Y20190477D01*
X90669104Y20190477D02*
X90573866Y20142858D01*
X90573866Y20142858D02*
X90526247Y20095239D01*
X90526247Y20095239D02*
X90478628Y20000001D01*
X90478628Y20000001D02*
X90431009Y19809525D01*
X90431009Y19809525D02*
X90383390Y19714287D01*
X90383390Y19714287D02*
X90335771Y19666668D01*
X90335771Y19666668D02*
X90240533Y19619049D01*
X90240533Y19619049D02*
X90145295Y19619049D01*
X90145295Y19619049D02*
X90050057Y19666668D01*
X90050057Y19666668D02*
X90002438Y19714287D01*
X90002438Y19714287D02*
X89954819Y19809525D01*
X89954819Y19809525D02*
X89954819Y20047620D01*
X89954819Y20047620D02*
X90002438Y20190477D01*
X89907200Y21333334D02*
X91192914Y20476192D01*
X90954819Y21666668D02*
X89954819Y21666668D01*
X89954819Y21666668D02*
X90669104Y22000001D01*
X90669104Y22000001D02*
X89954819Y22333334D01*
X89954819Y22333334D02*
X90954819Y22333334D01*
D11*
X9545336Y49104761D02*
X8545336Y48771428D01*
X8545336Y48771428D02*
X9545336Y48438095D01*
X8545336Y48104761D02*
X9545336Y48104761D01*
X8545336Y47628571D02*
X9545336Y47628571D01*
X9545336Y47628571D02*
X8545336Y47057143D01*
X8545336Y47057143D02*
X9545336Y47057143D01*
X8640575Y46580952D02*
X8592956Y46533333D01*
X8592956Y46533333D02*
X8545336Y46580952D01*
X8545336Y46580952D02*
X8592956Y46628571D01*
X8592956Y46628571D02*
X8640575Y46580952D01*
X8640575Y46580952D02*
X8545336Y46580952D01*
X9164384Y46580952D02*
X9116765Y46533333D01*
X9116765Y46533333D02*
X9069146Y46580952D01*
X9069146Y46580952D02*
X9116765Y46628571D01*
X9116765Y46628571D02*
X9164384Y46580952D01*
X9164384Y46580952D02*
X9069146Y46580952D01*
X9545336Y44866667D02*
X9545336Y45342857D01*
X9545336Y45342857D02*
X9069146Y45390476D01*
X9069146Y45390476D02*
X9116765Y45342857D01*
X9116765Y45342857D02*
X9164384Y45247619D01*
X9164384Y45247619D02*
X9164384Y45009524D01*
X9164384Y45009524D02*
X9116765Y44914286D01*
X9116765Y44914286D02*
X9069146Y44866667D01*
X9069146Y44866667D02*
X8973908Y44819048D01*
X8973908Y44819048D02*
X8735813Y44819048D01*
X8735813Y44819048D02*
X8640575Y44866667D01*
X8640575Y44866667D02*
X8592956Y44914286D01*
X8592956Y44914286D02*
X8545336Y45009524D01*
X8545336Y45009524D02*
X8545336Y45247619D01*
X8545336Y45247619D02*
X8592956Y45342857D01*
X8592956Y45342857D02*
X8640575Y45390476D01*
X8640575Y44390476D02*
X8592956Y44342857D01*
X8592956Y44342857D02*
X8545336Y44390476D01*
X8545336Y44390476D02*
X8592956Y44438095D01*
X8592956Y44438095D02*
X8640575Y44390476D01*
X8640575Y44390476D02*
X8545336Y44390476D01*
X9545336Y43438096D02*
X9545336Y43914286D01*
X9545336Y43914286D02*
X9069146Y43961905D01*
X9069146Y43961905D02*
X9116765Y43914286D01*
X9116765Y43914286D02*
X9164384Y43819048D01*
X9164384Y43819048D02*
X9164384Y43580953D01*
X9164384Y43580953D02*
X9116765Y43485715D01*
X9116765Y43485715D02*
X9069146Y43438096D01*
X9069146Y43438096D02*
X8973908Y43390477D01*
X8973908Y43390477D02*
X8735813Y43390477D01*
X8735813Y43390477D02*
X8640575Y43438096D01*
X8640575Y43438096D02*
X8592956Y43485715D01*
X8592956Y43485715D02*
X8545336Y43580953D01*
X8545336Y43580953D02*
X8545336Y43819048D01*
X8545336Y43819048D02*
X8592956Y43914286D01*
X8592956Y43914286D02*
X8640575Y43961905D01*
X8926289Y42200000D02*
X8926289Y41438095D01*
X9545336Y39771429D02*
X9545336Y39961905D01*
X9545336Y39961905D02*
X9497717Y40057143D01*
X9497717Y40057143D02*
X9450098Y40104762D01*
X9450098Y40104762D02*
X9307241Y40200000D01*
X9307241Y40200000D02*
X9116765Y40247619D01*
X9116765Y40247619D02*
X8735813Y40247619D01*
X8735813Y40247619D02*
X8640575Y40200000D01*
X8640575Y40200000D02*
X8592956Y40152381D01*
X8592956Y40152381D02*
X8545336Y40057143D01*
X8545336Y40057143D02*
X8545336Y39866667D01*
X8545336Y39866667D02*
X8592956Y39771429D01*
X8592956Y39771429D02*
X8640575Y39723810D01*
X8640575Y39723810D02*
X8735813Y39676191D01*
X8735813Y39676191D02*
X8973908Y39676191D01*
X8973908Y39676191D02*
X9069146Y39723810D01*
X9069146Y39723810D02*
X9116765Y39771429D01*
X9116765Y39771429D02*
X9164384Y39866667D01*
X9164384Y39866667D02*
X9164384Y40057143D01*
X9164384Y40057143D02*
X9116765Y40152381D01*
X9116765Y40152381D02*
X9069146Y40200000D01*
X9069146Y40200000D02*
X8973908Y40247619D01*
X8640575Y39247619D02*
X8592956Y39200000D01*
X8592956Y39200000D02*
X8545336Y39247619D01*
X8545336Y39247619D02*
X8592956Y39295238D01*
X8592956Y39295238D02*
X8640575Y39247619D01*
X8640575Y39247619D02*
X8545336Y39247619D01*
X9545336Y38295239D02*
X9545336Y38771429D01*
X9545336Y38771429D02*
X9069146Y38819048D01*
X9069146Y38819048D02*
X9116765Y38771429D01*
X9116765Y38771429D02*
X9164384Y38676191D01*
X9164384Y38676191D02*
X9164384Y38438096D01*
X9164384Y38438096D02*
X9116765Y38342858D01*
X9116765Y38342858D02*
X9069146Y38295239D01*
X9069146Y38295239D02*
X8973908Y38247620D01*
X8973908Y38247620D02*
X8735813Y38247620D01*
X8735813Y38247620D02*
X8640575Y38295239D01*
X8640575Y38295239D02*
X8592956Y38342858D01*
X8592956Y38342858D02*
X8545336Y38438096D01*
X8545336Y38438096D02*
X8545336Y38676191D01*
X8545336Y38676191D02*
X8592956Y38771429D01*
X8592956Y38771429D02*
X8640575Y38819048D01*
X9545336Y37961905D02*
X8545336Y37628572D01*
X8545336Y37628572D02*
X9545336Y37295239D01*
D12*
X29045180Y12214286D02*
X30045180Y12214286D01*
X29568990Y12214286D02*
X29568990Y11642858D01*
X29045180Y11642858D02*
X30045180Y11642858D01*
X29045180Y11166667D02*
X30045180Y11166667D01*
X30045180Y11166667D02*
X30045180Y10785715D01*
X30045180Y10785715D02*
X29997561Y10690477D01*
X29997561Y10690477D02*
X29949942Y10642858D01*
X29949942Y10642858D02*
X29854704Y10595239D01*
X29854704Y10595239D02*
X29711847Y10595239D01*
X29711847Y10595239D02*
X29616609Y10642858D01*
X29616609Y10642858D02*
X29568990Y10690477D01*
X29568990Y10690477D02*
X29521371Y10785715D01*
X29521371Y10785715D02*
X29521371Y11166667D01*
X29568990Y9833334D02*
X29568990Y10166667D01*
X29045180Y10166667D02*
X30045180Y10166667D01*
X30045180Y10166667D02*
X30045180Y9690477D01*
D13*
%TO.C,J2*%
X30905000Y960000D02*
X30905000Y3620000D01*
X30905000Y3620000D02*
X18085000Y3620000D01*
X30845000Y8870000D02*
X30845000Y7600000D01*
X29955000Y4017071D02*
X29955000Y3620000D01*
X29955000Y6490000D02*
X29955000Y6102929D01*
X29575000Y8870000D02*
X30845000Y8870000D01*
X29195000Y4017071D02*
X29195000Y3620000D01*
X29195000Y6490000D02*
X29195000Y6102929D01*
X28305000Y3620000D02*
X28305000Y960000D01*
X27415000Y4017071D02*
X27415000Y3620000D01*
X27415000Y6557071D02*
X27415000Y6102929D01*
X26655000Y4017071D02*
X26655000Y3620000D01*
X26655000Y6557071D02*
X26655000Y6102929D01*
X25765000Y3620000D02*
X25765000Y960000D01*
X24875000Y4017071D02*
X24875000Y3620000D01*
X24875000Y6557071D02*
X24875000Y6102929D01*
X24115000Y4017071D02*
X24115000Y3620000D01*
X24115000Y6557071D02*
X24115000Y6102929D01*
X23225000Y3620000D02*
X23225000Y960000D01*
X22335000Y4017071D02*
X22335000Y3620000D01*
X22335000Y6557071D02*
X22335000Y6102929D01*
X21575000Y4017071D02*
X21575000Y3620000D01*
X21575000Y6557071D02*
X21575000Y6102929D01*
X20685000Y3620000D02*
X20685000Y960000D01*
X19795000Y4017071D02*
X19795000Y3620000D01*
X19795000Y6557071D02*
X19795000Y6102929D01*
X19035000Y4017071D02*
X19035000Y3620000D01*
X19035000Y6557071D02*
X19035000Y6102929D01*
X18085000Y960000D02*
X30905000Y960000D01*
X18085000Y3620000D02*
X18085000Y960000D01*
%TO.C,C40*%
X55488748Y50465000D02*
X56011252Y50465000D01*
X55488748Y51935000D02*
X56011252Y51935000D01*
D14*
%TO.C,G\u002A\u002A\u002A*%
G36*
X88379499Y43352667D02*
G01*
X88445297Y43321821D01*
X88504198Y43263809D01*
X88511347Y43254433D01*
X88519242Y43242742D01*
X88525710Y43229082D01*
X88530942Y43210483D01*
X88535128Y43183974D01*
X88538458Y43146587D01*
X88541121Y43095352D01*
X88543308Y43027298D01*
X88545209Y42939457D01*
X88547015Y42828858D01*
X88548914Y42692531D01*
X88549336Y42660838D01*
X88556665Y42108598D01*
X89201558Y42101190D01*
X89846451Y42093782D01*
X89967708Y42047128D01*
X90130653Y41969166D01*
X90276704Y41868018D01*
X90403966Y41745680D01*
X90510546Y41604151D01*
X90594549Y41445426D01*
X90632121Y41346451D01*
X90640562Y41319794D01*
X90647504Y41293968D01*
X90653125Y41265815D01*
X90657603Y41232179D01*
X90661116Y41189904D01*
X90663844Y41135834D01*
X90665963Y41066812D01*
X90667654Y40979681D01*
X90669093Y40871286D01*
X90670459Y40738469D01*
X90671243Y40653924D01*
X90676621Y40063993D01*
X91171608Y40063993D01*
X91305151Y40063948D01*
X91412677Y40063679D01*
X91497483Y40062986D01*
X91562868Y40061669D01*
X91612127Y40059528D01*
X91648557Y40056361D01*
X91675456Y40051970D01*
X91696120Y40046153D01*
X91713847Y40038710D01*
X91730832Y40030024D01*
X91794124Y39981687D01*
X91837299Y39917400D01*
X91856891Y39843722D01*
X91855406Y39794351D01*
X91831542Y39718629D01*
X91784596Y39660499D01*
X91723656Y39622774D01*
X91705228Y39615371D01*
X91683827Y39609435D01*
X91656177Y39604802D01*
X91619004Y39601311D01*
X91569035Y39598800D01*
X91502993Y39597106D01*
X91417605Y39596068D01*
X91309596Y39595522D01*
X91175691Y39595306D01*
X91169215Y39595302D01*
X90674553Y39594980D01*
X90674553Y38957415D01*
X90674553Y38319850D01*
X91169774Y38319850D01*
X91303491Y38319795D01*
X91411203Y38319501D01*
X91496220Y38318773D01*
X91561848Y38317417D01*
X91611396Y38315237D01*
X91648173Y38312040D01*
X91675488Y38307630D01*
X91696648Y38301814D01*
X91714962Y38294395D01*
X91730391Y38286873D01*
X91786863Y38248132D01*
X91826962Y38193180D01*
X91829711Y38187940D01*
X91856257Y38108700D01*
X91854111Y38032398D01*
X91823889Y37961461D01*
X91766209Y37898312D01*
X91753527Y37888384D01*
X91741703Y37880386D01*
X91727787Y37873899D01*
X91708707Y37868733D01*
X91681391Y37864699D01*
X91642767Y37861606D01*
X91589764Y37859265D01*
X91519309Y37857486D01*
X91428330Y37856080D01*
X91313757Y37854856D01*
X91193815Y37853802D01*
X90674553Y37849440D01*
X90674553Y37219902D01*
X90674553Y36590364D01*
X91173463Y36590364D01*
X91308410Y36590274D01*
X91417289Y36589891D01*
X91503346Y36589048D01*
X91569825Y36587575D01*
X91619972Y36585304D01*
X91657032Y36582067D01*
X91684250Y36577694D01*
X91704872Y36572017D01*
X91722142Y36564867D01*
X91728939Y36561506D01*
X91789869Y36515546D01*
X91831673Y36453537D01*
X91852733Y36382221D01*
X91851430Y36308341D01*
X91826146Y36238641D01*
X91811653Y36216901D01*
X91792406Y36192606D01*
X91773344Y36172822D01*
X91751378Y36157087D01*
X91723419Y36144936D01*
X91686379Y36135906D01*
X91637169Y36129536D01*
X91572700Y36125361D01*
X91489884Y36122918D01*
X91385632Y36121744D01*
X91256856Y36121377D01*
X91174384Y36121350D01*
X90676621Y36121350D01*
X90671373Y35531420D01*
X90666126Y34941489D01*
X90626744Y34824236D01*
X90557519Y34662230D01*
X90465252Y34516790D01*
X90352126Y34389856D01*
X90220325Y34283366D01*
X90072033Y34199261D01*
X89909431Y34139479D01*
X89836076Y34121820D01*
X89801106Y34115720D01*
X89759666Y34110742D01*
X89708669Y34106786D01*
X89645027Y34103750D01*
X89565654Y34101531D01*
X89467463Y34100028D01*
X89347367Y34099139D01*
X89202279Y34098761D01*
X89136725Y34098731D01*
X88550344Y34098731D01*
X88546176Y33542832D01*
X88545056Y33400386D01*
X88543931Y33284294D01*
X88542625Y33191599D01*
X88540966Y33119340D01*
X88538781Y33064560D01*
X88535895Y33024299D01*
X88532136Y32995600D01*
X88527330Y32975504D01*
X88521303Y32961052D01*
X88513883Y32949285D01*
X88511163Y32945573D01*
X88451003Y32888314D01*
X88376123Y32854928D01*
X88314830Y32847277D01*
X88232763Y32861225D01*
X88161195Y32901159D01*
X88118497Y32945573D01*
X88110590Y32957104D01*
X88104132Y32970366D01*
X88098951Y32988318D01*
X88094873Y33013918D01*
X88091725Y33050124D01*
X88089332Y33099896D01*
X88087523Y33166192D01*
X88086122Y33251970D01*
X88084957Y33360189D01*
X88083854Y33493808D01*
X88083483Y33542832D01*
X88079315Y34098731D01*
X87456911Y34098731D01*
X86834506Y34098731D01*
X86834506Y33563292D01*
X86834279Y33415361D01*
X86833534Y33294089D01*
X86832180Y33196825D01*
X86830127Y33120918D01*
X86827283Y33063718D01*
X86823556Y33022572D01*
X86818855Y32994829D01*
X86814410Y32980689D01*
X86773859Y32918374D01*
X86717133Y32874647D01*
X86650224Y32849824D01*
X86579119Y32844218D01*
X86509808Y32858145D01*
X86448282Y32891918D01*
X86400530Y32945851D01*
X86393412Y32958591D01*
X86386147Y32974402D01*
X86380259Y32992715D01*
X86375604Y33016597D01*
X86372039Y33049116D01*
X86369420Y33093341D01*
X86367603Y33152340D01*
X86366446Y33229180D01*
X86365805Y33326929D01*
X86365537Y33448656D01*
X86365493Y33555850D01*
X86365493Y34098731D01*
X85737495Y34098731D01*
X85109496Y34098731D01*
X85114994Y33567427D01*
X85116397Y33428676D01*
X85117340Y33316078D01*
X85117678Y33226470D01*
X85117261Y33156695D01*
X85115943Y33103590D01*
X85113576Y33063996D01*
X85110013Y33034754D01*
X85105105Y33012702D01*
X85098705Y32994681D01*
X85090665Y32977531D01*
X85087107Y32970503D01*
X85039347Y32906504D01*
X84975033Y32863840D01*
X84899704Y32844579D01*
X84818899Y32850789D01*
X84789902Y32859525D01*
X84729321Y32893706D01*
X84679534Y32944358D01*
X84648690Y33002619D01*
X84644926Y33017174D01*
X84642841Y33041976D01*
X84640929Y33092399D01*
X84639249Y33164751D01*
X84637858Y33255341D01*
X84636816Y33360477D01*
X84636182Y33476467D01*
X84636007Y33579400D01*
X84636007Y34097028D01*
X84002106Y34101543D01*
X83368205Y34106059D01*
X83239795Y34152004D01*
X83119165Y34200741D01*
X83017607Y34255642D01*
X82924883Y34323127D01*
X82833861Y34406521D01*
X82742251Y34506906D01*
X82671433Y34607711D01*
X82614659Y34719401D01*
X82586700Y34790018D01*
X82547432Y34897519D01*
X82543024Y35509435D01*
X82538616Y36121350D01*
X82037369Y36121672D01*
X81901655Y36121862D01*
X81791984Y36122351D01*
X81705090Y36123302D01*
X81637702Y36124881D01*
X81586554Y36127254D01*
X81548375Y36130586D01*
X81519897Y36135041D01*
X81497852Y36140786D01*
X81478970Y36147984D01*
X81474134Y36150133D01*
X81411030Y36193100D01*
X81368441Y36251622D01*
X81346920Y36319787D01*
X81347021Y36391685D01*
X81369298Y36461402D01*
X81414304Y36523027D01*
X81437336Y36542982D01*
X81489827Y36583035D01*
X82014965Y36587228D01*
X82540104Y36591420D01*
X82540104Y36912810D01*
X82979804Y36912810D01*
X84614640Y36912810D01*
X84878970Y36912825D01*
X85115690Y36912807D01*
X85326503Y36912665D01*
X85513114Y36912309D01*
X85677224Y36911648D01*
X85820538Y36910590D01*
X85944759Y36909044D01*
X86051589Y36906919D01*
X86142733Y36904124D01*
X86219894Y36900567D01*
X86284775Y36896159D01*
X86339080Y36890807D01*
X86384511Y36884421D01*
X86422772Y36876909D01*
X86455567Y36868180D01*
X86484599Y36858144D01*
X86511571Y36846708D01*
X86538186Y36833783D01*
X86566148Y36819276D01*
X86589253Y36807186D01*
X86640464Y36778056D01*
X86692459Y36742583D01*
X86749966Y36697012D01*
X86817716Y36637584D01*
X86900435Y36560544D01*
X86904296Y36556878D01*
X86983354Y36483650D01*
X87054304Y36421627D01*
X87113628Y36373724D01*
X87157808Y36342857D01*
X87171534Y36335428D01*
X87250346Y36311841D01*
X87341740Y36303836D01*
X87433827Y36311280D01*
X87514719Y36334041D01*
X87526402Y36339376D01*
X87549539Y36354063D01*
X87583912Y36381342D01*
X87630737Y36422366D01*
X87691228Y36478286D01*
X87766602Y36550254D01*
X87858073Y36639422D01*
X87966858Y36746941D01*
X88094172Y36873964D01*
X88156639Y36936596D01*
X88281725Y37062368D01*
X88387585Y37169312D01*
X88475856Y37259193D01*
X88548173Y37333776D01*
X88606172Y37394827D01*
X88651489Y37444110D01*
X88685760Y37483391D01*
X88710620Y37514434D01*
X88727707Y37539005D01*
X88738654Y37558868D01*
X88742928Y37569180D01*
X88748873Y37588161D01*
X88753816Y37611154D01*
X88757852Y37640880D01*
X88761073Y37680064D01*
X88763572Y37731427D01*
X88765444Y37797693D01*
X88766782Y37881586D01*
X88767679Y37985827D01*
X88768228Y38113141D01*
X88768525Y38266250D01*
X88768577Y38316186D01*
X88769186Y38994057D01*
X88153606Y38994057D01*
X87538026Y38994057D01*
X87538026Y38341835D01*
X87538026Y37689614D01*
X87178938Y37689614D01*
X86819850Y37689614D01*
X86819850Y39294518D01*
X86819850Y40899423D01*
X87178938Y40899423D01*
X87538026Y40899423D01*
X87538026Y40247202D01*
X87538026Y39594980D01*
X88153606Y39594980D01*
X88769186Y39594980D01*
X88769186Y40247467D01*
X88769186Y40899954D01*
X89117282Y40896024D01*
X89465378Y40892095D01*
X89465378Y39294518D01*
X89465378Y37696942D01*
X89293162Y37692813D01*
X89120946Y37688683D01*
X89120946Y37617171D01*
X89112596Y37538317D01*
X89090011Y37448742D01*
X89056892Y37360913D01*
X89028393Y37305401D01*
X89011154Y37283447D01*
X88975073Y37243020D01*
X88922180Y37186226D01*
X88854507Y37115172D01*
X88774085Y37031965D01*
X88682945Y36938712D01*
X88583119Y36837518D01*
X88476638Y36730492D01*
X88407448Y36661413D01*
X88276539Y36531163D01*
X88164304Y36419965D01*
X88068700Y36326132D01*
X87987681Y36247977D01*
X87919205Y36183815D01*
X87861227Y36131958D01*
X87811704Y36090721D01*
X87768591Y36058417D01*
X87729846Y36033360D01*
X87693423Y36013864D01*
X87657280Y35998242D01*
X87619371Y35984808D01*
X87577655Y35971876D01*
X87568344Y35969103D01*
X87475035Y35950738D01*
X87365862Y35943974D01*
X87251750Y35948512D01*
X87143626Y35964056D01*
X87073557Y35982581D01*
X87018239Y36002547D01*
X86969415Y36024233D01*
X86922682Y36050777D01*
X86873636Y36085317D01*
X86817876Y36130991D01*
X86750998Y36190935D01*
X86668600Y36268288D01*
X86656483Y36279820D01*
X86584621Y36346232D01*
X86515936Y36405926D01*
X86455445Y36454759D01*
X86408162Y36488588D01*
X86392663Y36497742D01*
X86314195Y36539065D01*
X84646999Y36542973D01*
X82979804Y36546881D01*
X82979804Y36334456D01*
X82979804Y36122031D01*
X84449134Y36118027D01*
X85918465Y36114022D01*
X86013733Y36079756D01*
X86084094Y36051568D01*
X86150129Y36018123D01*
X86216277Y35976243D01*
X86286979Y35922751D01*
X86366676Y35854469D01*
X86459807Y35768221D01*
X86491741Y35737683D01*
X86559876Y35673473D01*
X86624132Y35615350D01*
X86680399Y35566846D01*
X86724568Y35531490D01*
X86752529Y35512812D01*
X86754623Y35511850D01*
X86770938Y35506993D01*
X86796226Y35502922D01*
X86832839Y35499574D01*
X86883133Y35496886D01*
X86949461Y35494796D01*
X87034177Y35493242D01*
X87139636Y35492161D01*
X87268192Y35491490D01*
X87422198Y35491167D01*
X87535250Y35491114D01*
X87705546Y35490965D01*
X87849291Y35490852D01*
X87969246Y35491272D01*
X88068171Y35492723D01*
X88148825Y35495702D01*
X88213968Y35500709D01*
X88266360Y35508241D01*
X88308761Y35518796D01*
X88343931Y35532871D01*
X88374628Y35550966D01*
X88403614Y35573577D01*
X88433647Y35601203D01*
X88467488Y35634342D01*
X88499007Y35665012D01*
X88611594Y35772956D01*
X88595096Y35828024D01*
X88574895Y35943754D01*
X88576204Y35966117D01*
X88942807Y35966117D01*
X88960011Y35907806D01*
X88987909Y35871060D01*
X89038164Y35836364D01*
X89092574Y35830177D01*
X89148134Y35849103D01*
X89191477Y35886775D01*
X89217999Y35941541D01*
X89223543Y35982571D01*
X89210630Y36026130D01*
X89177282Y36068437D01*
X89131586Y36101471D01*
X89088649Y36116338D01*
X89050010Y36118806D01*
X89020767Y36107576D01*
X88989716Y36080315D01*
X88952725Y36025547D01*
X88942807Y35966117D01*
X88576204Y35966117D01*
X88581670Y36059497D01*
X88614029Y36170056D01*
X88670579Y36270234D01*
X88732045Y36339175D01*
X88831614Y36412991D01*
X88938455Y36460273D01*
X89048854Y36481634D01*
X89159100Y36477689D01*
X89265479Y36449053D01*
X89364280Y36396339D01*
X89451790Y36320163D01*
X89524297Y36221138D01*
X89532361Y36206740D01*
X89556795Y36159362D01*
X89571713Y36120840D01*
X89579437Y36080788D01*
X89582289Y36028821D01*
X89582631Y35981893D01*
X89581566Y35914540D01*
X89576846Y35865497D01*
X89566185Y35823793D01*
X89547297Y35778457D01*
X89534855Y35752627D01*
X89469401Y35650017D01*
X89386154Y35568403D01*
X89288725Y35509489D01*
X89180727Y35474977D01*
X89065772Y35466572D01*
X88961390Y35482208D01*
X88868423Y35506025D01*
X88733955Y35377652D01*
X88642524Y35296048D01*
X88559103Y35235226D01*
X88476455Y35190931D01*
X88387343Y35158909D01*
X88341577Y35146985D01*
X88301594Y35141221D01*
X88236272Y35136231D01*
X88149269Y35132016D01*
X88044241Y35128576D01*
X87924846Y35125909D01*
X87794740Y35124015D01*
X87657580Y35122894D01*
X87517024Y35122546D01*
X87376728Y35122970D01*
X87240348Y35124166D01*
X87111543Y35126133D01*
X86993968Y35128870D01*
X86891281Y35132379D01*
X86807139Y35136657D01*
X86745198Y35141705D01*
X86710437Y35147165D01*
X86650993Y35165089D01*
X86595859Y35187955D01*
X86540969Y35218595D01*
X86482258Y35259840D01*
X86415660Y35314523D01*
X86337109Y35385475D01*
X86251628Y35466745D01*
X86166119Y35548288D01*
X86096755Y35611442D01*
X86039391Y35658976D01*
X85989883Y35693659D01*
X85944086Y35718260D01*
X85897857Y35735548D01*
X85847051Y35748291D01*
X85823197Y35752982D01*
X85793295Y35755734D01*
X85734958Y35758254D01*
X85649063Y35760533D01*
X85536488Y35762562D01*
X85398111Y35764330D01*
X85234809Y35765829D01*
X85047460Y35767049D01*
X84836940Y35767980D01*
X84604128Y35768613D01*
X84361194Y35768930D01*
X82979804Y35769880D01*
X82979804Y35433353D01*
X82980553Y35324126D01*
X82982672Y35223724D01*
X82985965Y35137041D01*
X82990238Y35068974D01*
X82995295Y35024416D01*
X82996298Y35019158D01*
X83037067Y34893456D01*
X83101555Y34783651D01*
X83187690Y34692052D01*
X83293397Y34620965D01*
X83390190Y34580567D01*
X83400547Y34577605D01*
X83413226Y34574876D01*
X83429412Y34572370D01*
X83450291Y34570078D01*
X83477047Y34567990D01*
X83510866Y34566095D01*
X83552933Y34564384D01*
X83604433Y34562847D01*
X83666551Y34561474D01*
X83740474Y34560256D01*
X83827385Y34559181D01*
X83928470Y34558241D01*
X84044915Y34557426D01*
X84177905Y34556725D01*
X84328624Y34556129D01*
X84498258Y34555628D01*
X84687993Y34555213D01*
X84899013Y34554872D01*
X85132504Y34554597D01*
X85389651Y34554377D01*
X85671639Y34554203D01*
X85979654Y34554064D01*
X86314880Y34553951D01*
X86593490Y34553875D01*
X89716178Y34553087D01*
X89808844Y34584381D01*
X89913897Y34634160D01*
X90011066Y34707827D01*
X90093460Y34799971D01*
X90105776Y34817489D01*
X90117248Y34833659D01*
X90127824Y34847685D01*
X90137539Y34860759D01*
X90146429Y34874071D01*
X90154527Y34888812D01*
X90161868Y34906173D01*
X90168488Y34927346D01*
X90174420Y34953521D01*
X90179700Y34985890D01*
X90184362Y35025643D01*
X90188441Y35073971D01*
X90191971Y35132067D01*
X90194988Y35201120D01*
X90197526Y35282321D01*
X90199620Y35376863D01*
X90201304Y35485935D01*
X90202614Y35610729D01*
X90203583Y35752436D01*
X90204248Y35912247D01*
X90204641Y36091353D01*
X90204799Y36290945D01*
X90204755Y36512214D01*
X90204545Y36756352D01*
X90204203Y37024548D01*
X90203764Y37317995D01*
X90203263Y37637884D01*
X90202734Y37985404D01*
X90202517Y38136642D01*
X90198211Y41199885D01*
X90151157Y41296033D01*
X90088724Y41394928D01*
X90004312Y41486653D01*
X89905253Y41564135D01*
X89828367Y41607419D01*
X89729198Y41654241D01*
X86652039Y41658108D01*
X86248886Y41658542D01*
X85872393Y41658799D01*
X85522757Y41658879D01*
X85200173Y41658783D01*
X84904837Y41658511D01*
X84636945Y41658065D01*
X84396693Y41657445D01*
X84184276Y41656651D01*
X83999891Y41655684D01*
X83843733Y41654546D01*
X83715998Y41653236D01*
X83616882Y41651755D01*
X83546580Y41650104D01*
X83505289Y41648284D01*
X83495079Y41647222D01*
X83367856Y41609234D01*
X83251856Y41545544D01*
X83184231Y41490883D01*
X83105701Y41404761D01*
X83047895Y41309896D01*
X83007417Y41205382D01*
X83003606Y41192261D01*
X83000162Y41177626D01*
X82997066Y41160005D01*
X82994301Y41137923D01*
X82991848Y41109909D01*
X82989687Y41074490D01*
X82987801Y41030192D01*
X82986170Y40975544D01*
X82984777Y40909071D01*
X82983603Y40829302D01*
X82982629Y40734762D01*
X82981836Y40623981D01*
X82981206Y40495484D01*
X82980721Y40347798D01*
X82980362Y40179452D01*
X82980110Y39988971D01*
X82979947Y39774884D01*
X82979854Y39535717D01*
X82979812Y39269997D01*
X82979804Y39014736D01*
X82979804Y36912810D01*
X82540104Y36912810D01*
X82540104Y37220438D01*
X82540104Y37849456D01*
X82013513Y37853811D01*
X81875084Y37855020D01*
X81762915Y37856247D01*
X81673955Y37857679D01*
X81605150Y37859500D01*
X81553449Y37861896D01*
X81515799Y37865053D01*
X81489148Y37869156D01*
X81470443Y37874391D01*
X81456633Y37880943D01*
X81445568Y37888337D01*
X81407246Y37927673D01*
X81372392Y37982445D01*
X81347306Y38040873D01*
X81338257Y38089033D01*
X81349742Y38146324D01*
X81379872Y38207107D01*
X81422159Y38259789D01*
X81444186Y38278310D01*
X81457306Y38287300D01*
X81470931Y38294585D01*
X81488154Y38300372D01*
X81512064Y38304872D01*
X81545753Y38308291D01*
X81592311Y38310839D01*
X81654830Y38312724D01*
X81736399Y38314154D01*
X81840111Y38315338D01*
X81969056Y38316484D01*
X82016128Y38316876D01*
X82540104Y38321231D01*
X82540104Y38957577D01*
X82540104Y39014736D01*
X82540104Y39593924D01*
X82014965Y39598116D01*
X81489827Y39602308D01*
X81437336Y39642362D01*
X81383598Y39699392D01*
X81352800Y39766747D01*
X81344387Y39838515D01*
X81357805Y39908785D01*
X81392500Y39971645D01*
X81447920Y40021183D01*
X81474134Y40035210D01*
X81492729Y40042818D01*
X81513631Y40048929D01*
X81540109Y40053706D01*
X81575432Y40057317D01*
X81622869Y40059925D01*
X81685690Y40061696D01*
X81767164Y40062796D01*
X81870559Y40063389D01*
X81999146Y40063641D01*
X82037245Y40063671D01*
X82538368Y40063993D01*
X82543442Y40683237D01*
X82544750Y40835024D01*
X82546057Y40960463D01*
X82547513Y41062520D01*
X82549269Y41144159D01*
X82551478Y41208347D01*
X82554288Y41258049D01*
X82557853Y41296229D01*
X82562323Y41325853D01*
X82567848Y41349887D01*
X82574581Y41371296D01*
X82579144Y41383798D01*
X82647330Y41535510D01*
X82732076Y41668378D01*
X82838579Y41789957D01*
X82895387Y41843353D01*
X82994440Y41921286D01*
X83104255Y41986321D01*
X83233225Y42043281D01*
X83262015Y42054113D01*
X83368205Y42093103D01*
X84001604Y42097906D01*
X84635003Y42102710D01*
X84639169Y42657889D01*
X84640294Y42800312D01*
X84641434Y42916379D01*
X84642760Y43009046D01*
X84644441Y43081268D01*
X84646649Y43136001D01*
X84649553Y43176203D01*
X84653326Y43204828D01*
X84658137Y43224834D01*
X84664158Y43239176D01*
X84671558Y43250810D01*
X84673554Y43253522D01*
X84728438Y43311679D01*
X84790763Y43345014D01*
X84858913Y43357436D01*
X84943767Y43349621D01*
X85019218Y43314943D01*
X85080918Y43255412D01*
X85081657Y43254420D01*
X85089548Y43242832D01*
X85095984Y43229475D01*
X85101137Y43211379D01*
X85105177Y43185574D01*
X85108277Y43149091D01*
X85110609Y43098959D01*
X85112343Y43032209D01*
X85113651Y42945870D01*
X85114705Y42836972D01*
X85115677Y42702546D01*
X85115952Y42660825D01*
X85119555Y42108598D01*
X85738860Y42108598D01*
X86358165Y42108598D01*
X86365493Y42668162D01*
X86367431Y42811323D01*
X86369247Y42928112D01*
X86371121Y43021466D01*
X86373236Y43094325D01*
X86375774Y43149628D01*
X86378917Y43190313D01*
X86382846Y43219320D01*
X86387744Y43239587D01*
X86393793Y43254053D01*
X86401175Y43265657D01*
X86402607Y43267599D01*
X86460875Y43323031D01*
X86533394Y43352995D01*
X86611600Y43357724D01*
X86686991Y43342913D01*
X86744355Y43308655D01*
X86789940Y43250733D01*
X86801529Y43229533D01*
X86810141Y43211947D01*
X86817106Y43194239D01*
X86822599Y43173252D01*
X86826795Y43145827D01*
X86829868Y43108803D01*
X86831993Y43059022D01*
X86833344Y42993325D01*
X86834097Y42908553D01*
X86834426Y42801546D01*
X86834505Y42669145D01*
X86834506Y42633132D01*
X86834506Y42101270D01*
X87456911Y42101270D01*
X88079315Y42101270D01*
X88083483Y42657169D01*
X88084608Y42799692D01*
X88085748Y42915857D01*
X88087072Y43008617D01*
X88088751Y43080926D01*
X88090955Y43135738D01*
X88093855Y43176007D01*
X88097620Y43204686D01*
X88102422Y43224730D01*
X88108431Y43239094D01*
X88115816Y43250729D01*
X88117870Y43253522D01*
X88173388Y43312063D01*
X88236942Y43345735D01*
X88303229Y43358128D01*
X88379499Y43352667D01*
G37*
G36*
X84818651Y40899239D02*
G01*
X84976708Y40898549D01*
X85111061Y40897145D01*
X85224515Y40894820D01*
X85319875Y40891367D01*
X85399944Y40886579D01*
X85467528Y40880248D01*
X85525429Y40872167D01*
X85576452Y40862129D01*
X85623403Y40849926D01*
X85669084Y40835352D01*
X85712236Y40819732D01*
X85864520Y40747125D01*
X86003725Y40650358D01*
X86126882Y40532785D01*
X86231022Y40397760D01*
X86313178Y40248638D01*
X86370380Y40088772D01*
X86374961Y40070917D01*
X86391198Y39978384D01*
X86400229Y39868129D01*
X86402162Y39749517D01*
X86397104Y39631914D01*
X86385162Y39524687D01*
X86367763Y39441746D01*
X86306899Y39277775D01*
X86222848Y39131500D01*
X86116219Y39003491D01*
X85987618Y38894323D01*
X85837652Y38804569D01*
X85666930Y38734801D01*
X85596018Y38713452D01*
X85559341Y38704050D01*
X85522885Y38696549D01*
X85482593Y38690667D01*
X85434411Y38686125D01*
X85374284Y38682641D01*
X85298156Y38679934D01*
X85201972Y38677726D01*
X85081677Y38675734D01*
X85042729Y38675172D01*
X84606693Y38669004D01*
X84606693Y38179309D01*
X84606693Y37689614D01*
X84254933Y37689614D01*
X83903174Y37689614D01*
X83903174Y39256444D01*
X84606693Y39256444D01*
X84969446Y39260824D01*
X85332198Y39265205D01*
X85423573Y39307409D01*
X85514794Y39362917D01*
X85596668Y39437950D01*
X85660959Y39524348D01*
X85680930Y39562483D01*
X85696722Y39603460D01*
X85706449Y39647790D01*
X85711404Y39704202D01*
X85712871Y39778188D01*
X85712194Y39849171D01*
X85708630Y39900047D01*
X85700570Y39939996D01*
X85686403Y39978198D01*
X85672666Y40007441D01*
X85611429Y40100896D01*
X85526416Y40183799D01*
X85425125Y40249949D01*
X85346855Y40291172D01*
X84976774Y40295750D01*
X84606693Y40300329D01*
X84606693Y39778386D01*
X84606693Y39256444D01*
X83903174Y39256444D01*
X83903174Y39294518D01*
X83903174Y39778386D01*
X83903174Y40899423D01*
X84634087Y40899423D01*
X84818651Y40899239D01*
G37*
D13*
%TO.C,C9*%
X68548752Y51290000D02*
X68026248Y51290000D01*
X68548752Y52760000D02*
X68026248Y52760000D01*
%TO.C,C14*%
X59803748Y10770000D02*
X60326252Y10770000D01*
X59803748Y12240000D02*
X60326252Y12240000D01*
%TO.C,C4*%
X38405000Y21261252D02*
X38405000Y20738748D01*
X36935000Y21261252D02*
X36935000Y20738748D01*
%TO.C,C13*%
X48835000Y31088748D02*
X48835000Y31611252D01*
X47365000Y31088748D02*
X47365000Y31611252D01*
%TO.C,R15*%
X45347936Y51140000D02*
X45802064Y51140000D01*
X45347936Y52610000D02*
X45802064Y52610000D01*
D15*
%TO.C,Q2*%
X14329900Y36350000D02*
G75*
G02*
X14177500Y36350000I-76200J0D01*
G01*
X14177500Y36350000D02*
G75*
G02*
X14329900Y36350000I76200J0D01*
G01*
X17517600Y33749000D02*
X17517600Y34787860D01*
X17517600Y36012140D02*
X17517600Y37051000D01*
X17517600Y37051000D02*
X15866600Y37051000D01*
X15866600Y33749000D02*
X17517600Y33749000D01*
X15866600Y35737861D02*
X15866600Y35062139D01*
D13*
%TO.C,C6*%
X56426252Y13170000D02*
X55903748Y13170000D01*
X56426252Y14640000D02*
X55903748Y14640000D01*
%TO.C,C17*%
X39938748Y35665000D02*
X40461252Y35665000D01*
X39938748Y37135000D02*
X40461252Y37135000D01*
%TO.C,J11*%
X78430000Y22255000D02*
X78430000Y17115000D01*
X75770000Y17115000D02*
X78430000Y17115000D01*
X75770000Y22255000D02*
X78430000Y22255000D01*
X75770000Y22255000D02*
X75770000Y17115000D01*
X75770000Y23525000D02*
X75770000Y24855000D01*
X75770000Y24855000D02*
X77100000Y24855000D01*
%TO.C,LDO2*%
X11075000Y17715000D02*
X10595000Y18195000D01*
X11075000Y18195000D01*
X11075000Y17715000D01*
G36*
X11075000Y17715000D02*
G01*
X10595000Y18195000D01*
X11075000Y18195000D01*
X11075000Y17715000D01*
G37*
X13975000Y18715000D02*
X13975000Y21715000D01*
X10755000Y18715000D02*
X10755000Y21715000D01*
%TO.C,C32*%
X41513748Y48740000D02*
X42036252Y48740000D01*
X41513748Y50210000D02*
X42036252Y50210000D01*
D16*
%TO.C,VS2*%
X21000000Y14840000D02*
X20900000Y14840000D01*
X21000000Y17760000D02*
X21000000Y14840000D01*
X20900000Y14840000D02*
X20900000Y17760000D01*
X20900000Y17760000D02*
X21000000Y17760000D01*
X19250000Y17880000D02*
X20550000Y17880000D01*
D10*
%TO.C,FPC1*%
X51950000Y5950000D02*
G75*
G02*
X51950000Y6050000I0J50000D01*
G01*
X51950000Y6050000D02*
G75*
G02*
X51950000Y5950000I0J-50000D01*
G01*
D16*
X59300000Y1325000D02*
X59300000Y2125000D01*
X58700000Y4125000D02*
X58700000Y4725000D01*
X58700000Y4725000D02*
X57000000Y4725000D01*
D10*
X51950000Y5950000D02*
X51950000Y5950000D01*
X51950000Y6050000D02*
X51950000Y6050000D01*
D16*
X49675000Y4125000D02*
X49675000Y4725000D01*
X49675000Y4725000D02*
X51400000Y4725000D01*
X49100000Y1325000D02*
X59300000Y1325000D01*
X49100000Y2125000D02*
X49100000Y1325000D01*
D13*
%TO.C,R9*%
X23492500Y32072936D02*
X23492500Y32527064D01*
X22022500Y32072936D02*
X22022500Y32527064D01*
D16*
%TO.C,Z2*%
X13310000Y34390000D02*
X13310000Y33290000D01*
X13225000Y32640000D02*
X10325000Y32640000D01*
X13225000Y32940000D02*
X13225000Y32640000D01*
X10325000Y32640000D02*
X10325000Y32940000D01*
X10325000Y32940000D02*
X13225000Y32940000D01*
D13*
%TO.C,J4*%
X78530000Y10170000D02*
X78530000Y5030000D01*
X75870000Y5030000D02*
X78530000Y5030000D01*
X75870000Y10170000D02*
X78530000Y10170000D01*
X75870000Y10170000D02*
X75870000Y5030000D01*
X75870000Y11440000D02*
X75870000Y12770000D01*
X75870000Y12770000D02*
X77200000Y12770000D01*
%TO.C,C5*%
X56426252Y10770000D02*
X55903748Y10770000D01*
X56426252Y12240000D02*
X55903748Y12240000D01*
%TO.C,C43*%
X50535000Y41361252D02*
X50535000Y40838748D01*
X49065000Y41361252D02*
X49065000Y40838748D01*
%TO.C,J9*%
X88930000Y22270000D02*
X88930000Y17130000D01*
X86270000Y17130000D02*
X88930000Y17130000D01*
X86270000Y22270000D02*
X88930000Y22270000D01*
X86270000Y22270000D02*
X86270000Y17130000D01*
X86270000Y23540000D02*
X86270000Y24870000D01*
X86270000Y24870000D02*
X87600000Y24870000D01*
D16*
%TO.C,IC2*%
X39987000Y29853000D02*
X36791000Y29853000D01*
X39987000Y34757000D02*
X39987000Y29853000D01*
X36791000Y29853000D02*
X36791000Y34757000D01*
X36791000Y34757000D02*
X39987000Y34757000D01*
X34914000Y34885000D02*
X36441000Y34885000D01*
D13*
%TO.C,J12*%
X75395000Y40155000D02*
X75395000Y32415000D01*
X72795000Y37555000D02*
X72795000Y40155000D01*
X72795000Y40155000D02*
X75395000Y40155000D01*
X70195000Y32415000D02*
X75395000Y32415000D01*
X70195000Y37555000D02*
X72795000Y37555000D01*
X70195000Y37555000D02*
X70195000Y32415000D01*
X70195000Y38825000D02*
X70195000Y40155000D01*
X70195000Y40155000D02*
X71525000Y40155000D01*
%TO.C,C15*%
X48935000Y26511252D02*
X48935000Y25988748D01*
X47465000Y26511252D02*
X47465000Y25988748D01*
%TO.C,C8*%
X68548752Y48940000D02*
X68026248Y48940000D01*
X68548752Y50410000D02*
X68026248Y50410000D01*
%TO.C,J10*%
X88930000Y10155000D02*
X88930000Y5015000D01*
X86270000Y5015000D02*
X88930000Y5015000D01*
X86270000Y10155000D02*
X88930000Y10155000D01*
X86270000Y10155000D02*
X86270000Y5015000D01*
X86270000Y11425000D02*
X86270000Y12755000D01*
X86270000Y12755000D02*
X87600000Y12755000D01*
%TO.C,C24*%
X29068752Y33382500D02*
X28546248Y33382500D01*
X29068752Y34852500D02*
X28546248Y34852500D01*
%TO.C,C12*%
X59803748Y13170000D02*
X60326252Y13170000D01*
X59803748Y14640000D02*
X60326252Y14640000D01*
%TO.C,R27*%
X49310000Y49002064D02*
X49310000Y48547936D01*
X47840000Y49002064D02*
X47840000Y48547936D01*
%TO.C,C39*%
X55488748Y52765000D02*
X56011252Y52765000D01*
X55488748Y54235000D02*
X56011252Y54235000D01*
%TO.C,R30*%
X64010000Y39714564D02*
X64010000Y39260436D01*
X62540000Y39714564D02*
X62540000Y39260436D01*
%TO.C,FB1*%
X30692500Y28628752D02*
X30692500Y28106248D01*
X29222500Y28628752D02*
X29222500Y28106248D01*
%TO.C,R16*%
X45347936Y48740000D02*
X45802064Y48740000D01*
X45347936Y50210000D02*
X45802064Y50210000D01*
%TO.C,R7*%
X12102064Y35455000D02*
X11647936Y35455000D01*
X12102064Y36925000D02*
X11647936Y36925000D01*
%TO.C,C11*%
X51135000Y31088748D02*
X51135000Y31611252D01*
X49665000Y31088748D02*
X49665000Y31611252D01*
%TO.C,C45*%
X53436252Y35740000D02*
X52913748Y35740000D01*
X53436252Y37210000D02*
X52913748Y37210000D01*
%TO.C,C44*%
X57363748Y41340000D02*
X57886252Y41340000D01*
X57363748Y42810000D02*
X57886252Y42810000D01*
%TO.C,R26*%
X62122500Y49202064D02*
X62122500Y48747936D01*
X60652500Y49202064D02*
X60652500Y48747936D01*
%TO.C,C18*%
X10035000Y19338748D02*
X10035000Y19861252D01*
X8565000Y19338748D02*
X8565000Y19861252D01*
%TO.C,U3*%
X50055000Y18242500D02*
X49585000Y17902500D01*
X49585000Y18582500D01*
X50055000Y18242500D01*
G36*
X50055000Y18242500D02*
G01*
X49585000Y17902500D01*
X49585000Y18582500D01*
X50055000Y18242500D01*
G37*
X65410000Y19095000D02*
X65145000Y19095000D01*
X65410000Y22955000D02*
X65410000Y19095000D01*
X65410000Y22955000D02*
X65410000Y26815000D01*
X65410000Y26815000D02*
X65145000Y26815000D01*
X49790000Y19095000D02*
X50055000Y19095000D01*
X49790000Y22955000D02*
X49790000Y19095000D01*
X49790000Y22955000D02*
X49790000Y26815000D01*
X49790000Y26815000D02*
X50055000Y26815000D01*
%TO.C,C1*%
X12043748Y23905000D02*
X12566252Y23905000D01*
X12043748Y25375000D02*
X12566252Y25375000D01*
%TO.C,C16*%
X46635000Y26511252D02*
X46635000Y25988748D01*
X45165000Y26511252D02*
X45165000Y25988748D01*
D10*
%TO.C,OS2*%
X40730000Y18900000D02*
G75*
G02*
X40730000Y19000000I0J50000D01*
G01*
X40730000Y19000000D02*
G75*
G02*
X40730000Y18900000I0J-50000D01*
G01*
X44500000Y19400000D02*
X44500000Y22600000D01*
X44500000Y19400000D02*
X44200000Y19400000D01*
X44500000Y22600000D02*
X44200000Y22600000D01*
X40730000Y18900000D02*
X40730000Y18900000D01*
X40730000Y19000000D02*
X40730000Y19000000D01*
X39800000Y19400000D02*
X39500000Y19400000D01*
X39800000Y22600000D02*
X39500000Y22600000D01*
X39500000Y19400000D02*
X39500000Y22600000D01*
D13*
%TO.C,C19*%
X15292500Y28138748D02*
X15292500Y28661252D01*
X13822500Y28138748D02*
X13822500Y28661252D01*
%TO.C,R3*%
X63835000Y13439564D02*
X63835000Y12985436D01*
X62365000Y13439564D02*
X62365000Y12985436D01*
%TO.C,R2*%
X64614564Y48940000D02*
X64160436Y48940000D01*
X64614564Y50410000D02*
X64160436Y50410000D01*
%TO.C,R1*%
X64127064Y29665000D02*
X63672936Y29665000D01*
X64127064Y31135000D02*
X63672936Y31135000D01*
%TO.C,U1*%
X27077500Y14460000D02*
X26597500Y14460000D01*
X26837500Y14790000D01*
X27077500Y14460000D01*
G36*
X27077500Y14460000D02*
G01*
X26597500Y14460000D01*
X26837500Y14790000D01*
X27077500Y14460000D01*
G37*
X25537500Y14740000D02*
X26337500Y14740000D01*
X25537500Y14740000D02*
X24737500Y14740000D01*
X25537500Y17860000D02*
X26337500Y17860000D01*
X25537500Y17860000D02*
X24737500Y17860000D01*
%TO.C,R6*%
X23492500Y28177936D02*
X23492500Y28632064D01*
X22022500Y28177936D02*
X22022500Y28632064D01*
D16*
%TO.C,JST2*%
X20450000Y41550000D02*
X20450000Y49150000D01*
X20450000Y49150000D02*
X10550000Y49150000D01*
X10550000Y49150000D02*
X10550000Y37650000D01*
%TO.C,VS1*%
X27810000Y26050000D02*
X27810000Y24750000D01*
X27690000Y24300000D02*
X24770000Y24300000D01*
X27690000Y24400000D02*
X27690000Y24300000D01*
X24770000Y24300000D02*
X24770000Y24400000D01*
X24770000Y24400000D02*
X27690000Y24400000D01*
D13*
%TO.C,R29*%
X52710000Y39802064D02*
X52710000Y39347936D01*
X51240000Y39802064D02*
X51240000Y39347936D01*
%TO.C,R8*%
X64627064Y51340000D02*
X64172936Y51340000D01*
X64627064Y52810000D02*
X64172936Y52810000D01*
%TO.C,C42*%
X50510000Y45136252D02*
X50510000Y44613748D01*
X49040000Y45136252D02*
X49040000Y44613748D01*
%TO.C,C23*%
X29068752Y30882500D02*
X28546248Y30882500D01*
X29068752Y32352500D02*
X28546248Y32352500D01*
%TO.C,R5*%
X46802936Y21365000D02*
X47257064Y21365000D01*
X46802936Y22835000D02*
X47257064Y22835000D01*
%TO.C,C46*%
X62536252Y35640000D02*
X62013748Y35640000D01*
X62536252Y37110000D02*
X62013748Y37110000D01*
%TO.C,R4*%
X33705000Y21227064D02*
X33705000Y20772936D01*
X32235000Y21227064D02*
X32235000Y20772936D01*
%TO.C,C21*%
X13438748Y15965000D02*
X13961252Y15965000D01*
X13438748Y17435000D02*
X13961252Y17435000D01*
D17*
%TO.C,ADC1*%
X57800000Y48650000D02*
G75*
G02*
X57550000Y48650000I-125000J0D01*
G01*
X57550000Y48650000D02*
G75*
G02*
X57800000Y48650000I125000J0D01*
G01*
D13*
%TO.C,LDO1*%
X20902500Y26640000D02*
X20902500Y27120000D01*
X21382500Y27120000D01*
X20902500Y26640000D01*
G36*
X20902500Y26640000D02*
G01*
X20902500Y27120000D01*
X21382500Y27120000D01*
X20902500Y26640000D01*
G37*
X20382500Y26800000D02*
X17382500Y26800000D01*
X20382500Y30020000D02*
X17382500Y30020000D01*
%TO.C,R31*%
X61710000Y39714564D02*
X61710000Y39260436D01*
X60240000Y39714564D02*
X60240000Y39260436D01*
%TO.C,R28*%
X54910000Y39802064D02*
X54910000Y39347936D01*
X53440000Y39802064D02*
X53440000Y39347936D01*
%TO.C,R19*%
X49335000Y52372936D02*
X49335000Y52827064D01*
X47865000Y52372936D02*
X47865000Y52827064D01*
%TO.C,R18*%
X62135000Y53027064D02*
X62135000Y52572936D01*
X60665000Y53027064D02*
X60665000Y52572936D01*
D16*
%TO.C,D2*%
X11475000Y30075000D02*
X4925000Y30075000D01*
X4925000Y27525000D02*
X11725000Y27525000D01*
D13*
%TO.C,C20*%
X25892500Y28156248D02*
X25892500Y28678752D01*
X24422500Y28156248D02*
X24422500Y28678752D01*
%TO.C,C10*%
X41463748Y51152500D02*
X41986252Y51152500D01*
X41463748Y52622500D02*
X41986252Y52622500D01*
%TO.C,C22*%
X28292500Y28156248D02*
X28292500Y28678752D01*
X26822500Y28156248D02*
X26822500Y28678752D01*
%TO.C,C3*%
X36005000Y21261252D02*
X36005000Y20738748D01*
X34535000Y21261252D02*
X34535000Y20738748D01*
%TO.C,C41*%
X48210000Y45136252D02*
X48210000Y44613748D01*
X46740000Y45136252D02*
X46740000Y44613748D01*
%TD*%
M02*
