G04 #@! TF.GenerationSoftware,KiCad,Pcbnew,8.0.6*
G04 #@! TF.CreationDate,2026-01-05T17:46:43-08:00*
G04 #@! TF.ProjectId,ADC_CS5381KKSZ_Board,4144435f-4353-4353-9338-314b4b535a5f,rev?*
G04 #@! TF.SameCoordinates,Original*
G04 #@! TF.FileFunction,Legend,Bot*
G04 #@! TF.FilePolarity,Positive*
%FSLAX46Y46*%
G04 Gerber Fmt 4.6, Leading zero omitted, Abs format (unit mm)*
G04 Created by KiCad (PCBNEW 8.0.6) date 2026-01-05 17:46:43*
%MOMM*%
%LPD*%
G01*
G04 APERTURE LIST*
G04 Aperture macros list*
%AMRoundRect*
0 Rectangle with rounded corners*
0 $1 Rounding radius*
0 $2 $3 $4 $5 $6 $7 $8 $9 X,Y pos of 4 corners*
0 Add a 4 corners polygon primitive as box body*
4,1,4,$2,$3,$4,$5,$6,$7,$8,$9,$2,$3,0*
0 Add four circle primitives for the rounded corners*
1,1,$1+$1,$2,$3*
1,1,$1+$1,$4,$5*
1,1,$1+$1,$6,$7*
1,1,$1+$1,$8,$9*
0 Add four rect primitives between the rounded corners*
20,1,$1+$1,$2,$3,$4,$5,0*
20,1,$1+$1,$4,$5,$6,$7,0*
20,1,$1+$1,$6,$7,$8,$9,0*
20,1,$1+$1,$8,$9,$2,$3,0*%
G04 Aperture macros list end*
%ADD10C,0.100000*%
%ADD11C,0.153000*%
%ADD12C,0.150000*%
%ADD13C,0.200000*%
%ADD14C,0.120000*%
%ADD15C,0.000000*%
%ADD16R,1.700000X1.700000*%
%ADD17O,1.700000X1.700000*%
%ADD18C,6.400000*%
%ADD19R,1.650000X1.650000*%
%ADD20C,1.650000*%
%ADD21C,0.900000*%
%ADD22C,2.900000*%
%ADD23RoundRect,0.250000X-0.250000X-0.475000X0.250000X-0.475000X0.250000X0.475000X-0.250000X0.475000X0*%
G04 APERTURE END LIST*
D10*
X87800000Y-96200000D02*
X87800000Y-93300000D01*
X101200000Y-96200000D02*
X87800000Y-96200000D01*
X101200000Y-93300000D02*
X101200000Y-96200000D01*
X85400000Y-78700000D02*
X112200000Y-78700000D01*
X112200000Y-87700000D01*
X85400000Y-87700000D01*
X85400000Y-78700000D01*
X87800000Y-93300000D02*
X101200000Y-93300000D01*
D11*
X86537438Y-94202282D02*
X86632676Y-94154663D01*
X86632676Y-94154663D02*
X86775533Y-94154663D01*
X86775533Y-94154663D02*
X86918390Y-94202282D01*
X86918390Y-94202282D02*
X87013628Y-94297520D01*
X87013628Y-94297520D02*
X87061247Y-94392758D01*
X87061247Y-94392758D02*
X87108866Y-94583234D01*
X87108866Y-94583234D02*
X87108866Y-94726091D01*
X87108866Y-94726091D02*
X87061247Y-94916567D01*
X87061247Y-94916567D02*
X87013628Y-95011805D01*
X87013628Y-95011805D02*
X86918390Y-95107044D01*
X86918390Y-95107044D02*
X86775533Y-95154663D01*
X86775533Y-95154663D02*
X86680295Y-95154663D01*
X86680295Y-95154663D02*
X86537438Y-95107044D01*
X86537438Y-95107044D02*
X86489819Y-95059424D01*
X86489819Y-95059424D02*
X86489819Y-94726091D01*
X86489819Y-94726091D02*
X86680295Y-94726091D01*
X86061247Y-95154663D02*
X86061247Y-94154663D01*
X86061247Y-94154663D02*
X85489819Y-95154663D01*
X85489819Y-95154663D02*
X85489819Y-94154663D01*
X85013628Y-95154663D02*
X85013628Y-94154663D01*
X85013628Y-94154663D02*
X84775533Y-94154663D01*
X84775533Y-94154663D02*
X84632676Y-94202282D01*
X84632676Y-94202282D02*
X84537438Y-94297520D01*
X84537438Y-94297520D02*
X84489819Y-94392758D01*
X84489819Y-94392758D02*
X84442200Y-94583234D01*
X84442200Y-94583234D02*
X84442200Y-94726091D01*
X84442200Y-94726091D02*
X84489819Y-94916567D01*
X84489819Y-94916567D02*
X84537438Y-95011805D01*
X84537438Y-95011805D02*
X84632676Y-95107044D01*
X84632676Y-95107044D02*
X84775533Y-95154663D01*
X84775533Y-95154663D02*
X85013628Y-95154663D01*
X111508866Y-64834144D02*
X111032676Y-64834144D01*
X111604104Y-65119859D02*
X111270771Y-64119859D01*
X111270771Y-64119859D02*
X110937438Y-65119859D01*
X110604104Y-65119859D02*
X110604104Y-64119859D01*
X110604104Y-64119859D02*
X110366009Y-64119859D01*
X110366009Y-64119859D02*
X110223152Y-64167478D01*
X110223152Y-64167478D02*
X110127914Y-64262716D01*
X110127914Y-64262716D02*
X110080295Y-64357954D01*
X110080295Y-64357954D02*
X110032676Y-64548430D01*
X110032676Y-64548430D02*
X110032676Y-64691287D01*
X110032676Y-64691287D02*
X110080295Y-64881763D01*
X110080295Y-64881763D02*
X110127914Y-64977001D01*
X110127914Y-64977001D02*
X110223152Y-65072240D01*
X110223152Y-65072240D02*
X110366009Y-65119859D01*
X110366009Y-65119859D02*
X110604104Y-65119859D01*
X109032676Y-65024620D02*
X109080295Y-65072240D01*
X109080295Y-65072240D02*
X109223152Y-65119859D01*
X109223152Y-65119859D02*
X109318390Y-65119859D01*
X109318390Y-65119859D02*
X109461247Y-65072240D01*
X109461247Y-65072240D02*
X109556485Y-64977001D01*
X109556485Y-64977001D02*
X109604104Y-64881763D01*
X109604104Y-64881763D02*
X109651723Y-64691287D01*
X109651723Y-64691287D02*
X109651723Y-64548430D01*
X109651723Y-64548430D02*
X109604104Y-64357954D01*
X109604104Y-64357954D02*
X109556485Y-64262716D01*
X109556485Y-64262716D02*
X109461247Y-64167478D01*
X109461247Y-64167478D02*
X109318390Y-64119859D01*
X109318390Y-64119859D02*
X109223152Y-64119859D01*
X109223152Y-64119859D02*
X109080295Y-64167478D01*
X109080295Y-64167478D02*
X109032676Y-64215097D01*
X107508866Y-64596049D02*
X107366009Y-64643668D01*
X107366009Y-64643668D02*
X107318390Y-64691287D01*
X107318390Y-64691287D02*
X107270771Y-64786525D01*
X107270771Y-64786525D02*
X107270771Y-64929382D01*
X107270771Y-64929382D02*
X107318390Y-65024620D01*
X107318390Y-65024620D02*
X107366009Y-65072240D01*
X107366009Y-65072240D02*
X107461247Y-65119859D01*
X107461247Y-65119859D02*
X107842199Y-65119859D01*
X107842199Y-65119859D02*
X107842199Y-64119859D01*
X107842199Y-64119859D02*
X107508866Y-64119859D01*
X107508866Y-64119859D02*
X107413628Y-64167478D01*
X107413628Y-64167478D02*
X107366009Y-64215097D01*
X107366009Y-64215097D02*
X107318390Y-64310335D01*
X107318390Y-64310335D02*
X107318390Y-64405573D01*
X107318390Y-64405573D02*
X107366009Y-64500811D01*
X107366009Y-64500811D02*
X107413628Y-64548430D01*
X107413628Y-64548430D02*
X107508866Y-64596049D01*
X107508866Y-64596049D02*
X107842199Y-64596049D01*
X106651723Y-64119859D02*
X106461247Y-64119859D01*
X106461247Y-64119859D02*
X106366009Y-64167478D01*
X106366009Y-64167478D02*
X106270771Y-64262716D01*
X106270771Y-64262716D02*
X106223152Y-64453192D01*
X106223152Y-64453192D02*
X106223152Y-64786525D01*
X106223152Y-64786525D02*
X106270771Y-64977001D01*
X106270771Y-64977001D02*
X106366009Y-65072240D01*
X106366009Y-65072240D02*
X106461247Y-65119859D01*
X106461247Y-65119859D02*
X106651723Y-65119859D01*
X106651723Y-65119859D02*
X106746961Y-65072240D01*
X106746961Y-65072240D02*
X106842199Y-64977001D01*
X106842199Y-64977001D02*
X106889818Y-64786525D01*
X106889818Y-64786525D02*
X106889818Y-64453192D01*
X106889818Y-64453192D02*
X106842199Y-64262716D01*
X106842199Y-64262716D02*
X106746961Y-64167478D01*
X106746961Y-64167478D02*
X106651723Y-64119859D01*
X105842199Y-64834144D02*
X105366009Y-64834144D01*
X105937437Y-65119859D02*
X105604104Y-64119859D01*
X105604104Y-64119859D02*
X105270771Y-65119859D01*
X104366009Y-65119859D02*
X104699342Y-64643668D01*
X104937437Y-65119859D02*
X104937437Y-64119859D01*
X104937437Y-64119859D02*
X104556485Y-64119859D01*
X104556485Y-64119859D02*
X104461247Y-64167478D01*
X104461247Y-64167478D02*
X104413628Y-64215097D01*
X104413628Y-64215097D02*
X104366009Y-64310335D01*
X104366009Y-64310335D02*
X104366009Y-64453192D01*
X104366009Y-64453192D02*
X104413628Y-64548430D01*
X104413628Y-64548430D02*
X104461247Y-64596049D01*
X104461247Y-64596049D02*
X104556485Y-64643668D01*
X104556485Y-64643668D02*
X104937437Y-64643668D01*
X103937437Y-65119859D02*
X103937437Y-64119859D01*
X103937437Y-64119859D02*
X103699342Y-64119859D01*
X103699342Y-64119859D02*
X103556485Y-64167478D01*
X103556485Y-64167478D02*
X103461247Y-64262716D01*
X103461247Y-64262716D02*
X103413628Y-64357954D01*
X103413628Y-64357954D02*
X103366009Y-64548430D01*
X103366009Y-64548430D02*
X103366009Y-64691287D01*
X103366009Y-64691287D02*
X103413628Y-64881763D01*
X103413628Y-64881763D02*
X103461247Y-64977001D01*
X103461247Y-64977001D02*
X103556485Y-65072240D01*
X103556485Y-65072240D02*
X103699342Y-65119859D01*
X103699342Y-65119859D02*
X103937437Y-65119859D01*
X110889819Y-66729803D02*
X111223152Y-66253612D01*
X111461247Y-66729803D02*
X111461247Y-65729803D01*
X111461247Y-65729803D02*
X111080295Y-65729803D01*
X111080295Y-65729803D02*
X110985057Y-65777422D01*
X110985057Y-65777422D02*
X110937438Y-65825041D01*
X110937438Y-65825041D02*
X110889819Y-65920279D01*
X110889819Y-65920279D02*
X110889819Y-66063136D01*
X110889819Y-66063136D02*
X110937438Y-66158374D01*
X110937438Y-66158374D02*
X110985057Y-66205993D01*
X110985057Y-66205993D02*
X111080295Y-66253612D01*
X111080295Y-66253612D02*
X111461247Y-66253612D01*
X110080295Y-66682184D02*
X110175533Y-66729803D01*
X110175533Y-66729803D02*
X110366009Y-66729803D01*
X110366009Y-66729803D02*
X110461247Y-66682184D01*
X110461247Y-66682184D02*
X110508866Y-66586945D01*
X110508866Y-66586945D02*
X110508866Y-66205993D01*
X110508866Y-66205993D02*
X110461247Y-66110755D01*
X110461247Y-66110755D02*
X110366009Y-66063136D01*
X110366009Y-66063136D02*
X110175533Y-66063136D01*
X110175533Y-66063136D02*
X110080295Y-66110755D01*
X110080295Y-66110755D02*
X110032676Y-66205993D01*
X110032676Y-66205993D02*
X110032676Y-66301231D01*
X110032676Y-66301231D02*
X110508866Y-66396469D01*
X109699342Y-66063136D02*
X109461247Y-66729803D01*
X109461247Y-66729803D02*
X109223152Y-66063136D01*
X108842199Y-66729803D02*
X108842199Y-66063136D01*
X108842199Y-65729803D02*
X108889818Y-65777422D01*
X108889818Y-65777422D02*
X108842199Y-65825041D01*
X108842199Y-65825041D02*
X108794580Y-65777422D01*
X108794580Y-65777422D02*
X108842199Y-65729803D01*
X108842199Y-65729803D02*
X108842199Y-65825041D01*
X108413628Y-66682184D02*
X108318390Y-66729803D01*
X108318390Y-66729803D02*
X108127914Y-66729803D01*
X108127914Y-66729803D02*
X108032676Y-66682184D01*
X108032676Y-66682184D02*
X107985057Y-66586945D01*
X107985057Y-66586945D02*
X107985057Y-66539326D01*
X107985057Y-66539326D02*
X108032676Y-66444088D01*
X108032676Y-66444088D02*
X108127914Y-66396469D01*
X108127914Y-66396469D02*
X108270771Y-66396469D01*
X108270771Y-66396469D02*
X108366009Y-66348850D01*
X108366009Y-66348850D02*
X108413628Y-66253612D01*
X108413628Y-66253612D02*
X108413628Y-66205993D01*
X108413628Y-66205993D02*
X108366009Y-66110755D01*
X108366009Y-66110755D02*
X108270771Y-66063136D01*
X108270771Y-66063136D02*
X108127914Y-66063136D01*
X108127914Y-66063136D02*
X108032676Y-66110755D01*
X107556485Y-66729803D02*
X107556485Y-66063136D01*
X107556485Y-65729803D02*
X107604104Y-65777422D01*
X107604104Y-65777422D02*
X107556485Y-65825041D01*
X107556485Y-65825041D02*
X107508866Y-65777422D01*
X107508866Y-65777422D02*
X107556485Y-65729803D01*
X107556485Y-65729803D02*
X107556485Y-65825041D01*
X106937438Y-66729803D02*
X107032676Y-66682184D01*
X107032676Y-66682184D02*
X107080295Y-66634564D01*
X107080295Y-66634564D02*
X107127914Y-66539326D01*
X107127914Y-66539326D02*
X107127914Y-66253612D01*
X107127914Y-66253612D02*
X107080295Y-66158374D01*
X107080295Y-66158374D02*
X107032676Y-66110755D01*
X107032676Y-66110755D02*
X106937438Y-66063136D01*
X106937438Y-66063136D02*
X106794581Y-66063136D01*
X106794581Y-66063136D02*
X106699343Y-66110755D01*
X106699343Y-66110755D02*
X106651724Y-66158374D01*
X106651724Y-66158374D02*
X106604105Y-66253612D01*
X106604105Y-66253612D02*
X106604105Y-66539326D01*
X106604105Y-66539326D02*
X106651724Y-66634564D01*
X106651724Y-66634564D02*
X106699343Y-66682184D01*
X106699343Y-66682184D02*
X106794581Y-66729803D01*
X106794581Y-66729803D02*
X106937438Y-66729803D01*
X106175533Y-66063136D02*
X106175533Y-66729803D01*
X106175533Y-66158374D02*
X106127914Y-66110755D01*
X106127914Y-66110755D02*
X106032676Y-66063136D01*
X106032676Y-66063136D02*
X105889819Y-66063136D01*
X105889819Y-66063136D02*
X105794581Y-66110755D01*
X105794581Y-66110755D02*
X105746962Y-66205993D01*
X105746962Y-66205993D02*
X105746962Y-66729803D01*
X105270771Y-66634564D02*
X105223152Y-66682184D01*
X105223152Y-66682184D02*
X105270771Y-66729803D01*
X105270771Y-66729803D02*
X105318390Y-66682184D01*
X105318390Y-66682184D02*
X105270771Y-66634564D01*
X105270771Y-66634564D02*
X105270771Y-66729803D01*
X105270771Y-66110755D02*
X105223152Y-66158374D01*
X105223152Y-66158374D02*
X105270771Y-66205993D01*
X105270771Y-66205993D02*
X105318390Y-66158374D01*
X105318390Y-66158374D02*
X105270771Y-66110755D01*
X105270771Y-66110755D02*
X105270771Y-66205993D01*
X103461248Y-66729803D02*
X103794581Y-66253612D01*
X104032676Y-66729803D02*
X104032676Y-65729803D01*
X104032676Y-65729803D02*
X103651724Y-65729803D01*
X103651724Y-65729803D02*
X103556486Y-65777422D01*
X103556486Y-65777422D02*
X103508867Y-65825041D01*
X103508867Y-65825041D02*
X103461248Y-65920279D01*
X103461248Y-65920279D02*
X103461248Y-66063136D01*
X103461248Y-66063136D02*
X103508867Y-66158374D01*
X103508867Y-66158374D02*
X103556486Y-66205993D01*
X103556486Y-66205993D02*
X103651724Y-66253612D01*
X103651724Y-66253612D02*
X104032676Y-66253612D01*
X103032676Y-66205993D02*
X102699343Y-66205993D01*
X102556486Y-66729803D02*
X103032676Y-66729803D01*
X103032676Y-66729803D02*
X103032676Y-65729803D01*
X103032676Y-65729803D02*
X102556486Y-65729803D01*
X102270771Y-65729803D02*
X101937438Y-66729803D01*
X101937438Y-66729803D02*
X101604105Y-65729803D01*
X100175533Y-66205993D02*
X100032676Y-66253612D01*
X100032676Y-66253612D02*
X99985057Y-66301231D01*
X99985057Y-66301231D02*
X99937438Y-66396469D01*
X99937438Y-66396469D02*
X99937438Y-66539326D01*
X99937438Y-66539326D02*
X99985057Y-66634564D01*
X99985057Y-66634564D02*
X100032676Y-66682184D01*
X100032676Y-66682184D02*
X100127914Y-66729803D01*
X100127914Y-66729803D02*
X100508866Y-66729803D01*
X100508866Y-66729803D02*
X100508866Y-65729803D01*
X100508866Y-65729803D02*
X100175533Y-65729803D01*
X100175533Y-65729803D02*
X100080295Y-65777422D01*
X100080295Y-65777422D02*
X100032676Y-65825041D01*
X100032676Y-65825041D02*
X99985057Y-65920279D01*
X99985057Y-65920279D02*
X99985057Y-66015517D01*
X99985057Y-66015517D02*
X100032676Y-66110755D01*
X100032676Y-66110755D02*
X100080295Y-66158374D01*
X100080295Y-66158374D02*
X100175533Y-66205993D01*
X100175533Y-66205993D02*
X100508866Y-66205993D01*
X111461247Y-68339747D02*
X111461247Y-67339747D01*
X111461247Y-67339747D02*
X111223152Y-67339747D01*
X111223152Y-67339747D02*
X111080295Y-67387366D01*
X111080295Y-67387366D02*
X110985057Y-67482604D01*
X110985057Y-67482604D02*
X110937438Y-67577842D01*
X110937438Y-67577842D02*
X110889819Y-67768318D01*
X110889819Y-67768318D02*
X110889819Y-67911175D01*
X110889819Y-67911175D02*
X110937438Y-68101651D01*
X110937438Y-68101651D02*
X110985057Y-68196889D01*
X110985057Y-68196889D02*
X111080295Y-68292128D01*
X111080295Y-68292128D02*
X111223152Y-68339747D01*
X111223152Y-68339747D02*
X111461247Y-68339747D01*
X110080295Y-68292128D02*
X110175533Y-68339747D01*
X110175533Y-68339747D02*
X110366009Y-68339747D01*
X110366009Y-68339747D02*
X110461247Y-68292128D01*
X110461247Y-68292128D02*
X110508866Y-68196889D01*
X110508866Y-68196889D02*
X110508866Y-67815937D01*
X110508866Y-67815937D02*
X110461247Y-67720699D01*
X110461247Y-67720699D02*
X110366009Y-67673080D01*
X110366009Y-67673080D02*
X110175533Y-67673080D01*
X110175533Y-67673080D02*
X110080295Y-67720699D01*
X110080295Y-67720699D02*
X110032676Y-67815937D01*
X110032676Y-67815937D02*
X110032676Y-67911175D01*
X110032676Y-67911175D02*
X110508866Y-68006413D01*
X109651723Y-68292128D02*
X109556485Y-68339747D01*
X109556485Y-68339747D02*
X109366009Y-68339747D01*
X109366009Y-68339747D02*
X109270771Y-68292128D01*
X109270771Y-68292128D02*
X109223152Y-68196889D01*
X109223152Y-68196889D02*
X109223152Y-68149270D01*
X109223152Y-68149270D02*
X109270771Y-68054032D01*
X109270771Y-68054032D02*
X109366009Y-68006413D01*
X109366009Y-68006413D02*
X109508866Y-68006413D01*
X109508866Y-68006413D02*
X109604104Y-67958794D01*
X109604104Y-67958794D02*
X109651723Y-67863556D01*
X109651723Y-67863556D02*
X109651723Y-67815937D01*
X109651723Y-67815937D02*
X109604104Y-67720699D01*
X109604104Y-67720699D02*
X109508866Y-67673080D01*
X109508866Y-67673080D02*
X109366009Y-67673080D01*
X109366009Y-67673080D02*
X109270771Y-67720699D01*
X108794580Y-68339747D02*
X108794580Y-67673080D01*
X108794580Y-67339747D02*
X108842199Y-67387366D01*
X108842199Y-67387366D02*
X108794580Y-67434985D01*
X108794580Y-67434985D02*
X108746961Y-67387366D01*
X108746961Y-67387366D02*
X108794580Y-67339747D01*
X108794580Y-67339747D02*
X108794580Y-67434985D01*
X107889819Y-67673080D02*
X107889819Y-68482604D01*
X107889819Y-68482604D02*
X107937438Y-68577842D01*
X107937438Y-68577842D02*
X107985057Y-68625461D01*
X107985057Y-68625461D02*
X108080295Y-68673080D01*
X108080295Y-68673080D02*
X108223152Y-68673080D01*
X108223152Y-68673080D02*
X108318390Y-68625461D01*
X107889819Y-68292128D02*
X107985057Y-68339747D01*
X107985057Y-68339747D02*
X108175533Y-68339747D01*
X108175533Y-68339747D02*
X108270771Y-68292128D01*
X108270771Y-68292128D02*
X108318390Y-68244508D01*
X108318390Y-68244508D02*
X108366009Y-68149270D01*
X108366009Y-68149270D02*
X108366009Y-67863556D01*
X108366009Y-67863556D02*
X108318390Y-67768318D01*
X108318390Y-67768318D02*
X108270771Y-67720699D01*
X108270771Y-67720699D02*
X108175533Y-67673080D01*
X108175533Y-67673080D02*
X107985057Y-67673080D01*
X107985057Y-67673080D02*
X107889819Y-67720699D01*
X107413628Y-67673080D02*
X107413628Y-68339747D01*
X107413628Y-67768318D02*
X107366009Y-67720699D01*
X107366009Y-67720699D02*
X107270771Y-67673080D01*
X107270771Y-67673080D02*
X107127914Y-67673080D01*
X107127914Y-67673080D02*
X107032676Y-67720699D01*
X107032676Y-67720699D02*
X106985057Y-67815937D01*
X106985057Y-67815937D02*
X106985057Y-68339747D01*
X106127914Y-68292128D02*
X106223152Y-68339747D01*
X106223152Y-68339747D02*
X106413628Y-68339747D01*
X106413628Y-68339747D02*
X106508866Y-68292128D01*
X106508866Y-68292128D02*
X106556485Y-68196889D01*
X106556485Y-68196889D02*
X106556485Y-67815937D01*
X106556485Y-67815937D02*
X106508866Y-67720699D01*
X106508866Y-67720699D02*
X106413628Y-67673080D01*
X106413628Y-67673080D02*
X106223152Y-67673080D01*
X106223152Y-67673080D02*
X106127914Y-67720699D01*
X106127914Y-67720699D02*
X106080295Y-67815937D01*
X106080295Y-67815937D02*
X106080295Y-67911175D01*
X106080295Y-67911175D02*
X106556485Y-68006413D01*
X105651723Y-68339747D02*
X105651723Y-67673080D01*
X105651723Y-67863556D02*
X105604104Y-67768318D01*
X105604104Y-67768318D02*
X105556485Y-67720699D01*
X105556485Y-67720699D02*
X105461247Y-67673080D01*
X105461247Y-67673080D02*
X105366009Y-67673080D01*
X105032675Y-68244508D02*
X104985056Y-68292128D01*
X104985056Y-68292128D02*
X105032675Y-68339747D01*
X105032675Y-68339747D02*
X105080294Y-68292128D01*
X105080294Y-68292128D02*
X105032675Y-68244508D01*
X105032675Y-68244508D02*
X105032675Y-68339747D01*
X105032675Y-67720699D02*
X104985056Y-67768318D01*
X104985056Y-67768318D02*
X105032675Y-67815937D01*
X105032675Y-67815937D02*
X105080294Y-67768318D01*
X105080294Y-67768318D02*
X105032675Y-67720699D01*
X105032675Y-67720699D02*
X105032675Y-67815937D01*
X103794580Y-68339747D02*
X103794580Y-67339747D01*
X103794580Y-67339747D02*
X103413628Y-67339747D01*
X103413628Y-67339747D02*
X103318390Y-67387366D01*
X103318390Y-67387366D02*
X103270771Y-67434985D01*
X103270771Y-67434985D02*
X103223152Y-67530223D01*
X103223152Y-67530223D02*
X103223152Y-67673080D01*
X103223152Y-67673080D02*
X103270771Y-67768318D01*
X103270771Y-67768318D02*
X103318390Y-67815937D01*
X103318390Y-67815937D02*
X103413628Y-67863556D01*
X103413628Y-67863556D02*
X103794580Y-67863556D01*
X102413628Y-68292128D02*
X102508866Y-68339747D01*
X102508866Y-68339747D02*
X102699342Y-68339747D01*
X102699342Y-68339747D02*
X102794580Y-68292128D01*
X102794580Y-68292128D02*
X102842199Y-68196889D01*
X102842199Y-68196889D02*
X102842199Y-67815937D01*
X102842199Y-67815937D02*
X102794580Y-67720699D01*
X102794580Y-67720699D02*
X102699342Y-67673080D01*
X102699342Y-67673080D02*
X102508866Y-67673080D01*
X102508866Y-67673080D02*
X102413628Y-67720699D01*
X102413628Y-67720699D02*
X102366009Y-67815937D01*
X102366009Y-67815937D02*
X102366009Y-67911175D01*
X102366009Y-67911175D02*
X102842199Y-68006413D01*
X102080294Y-67673080D02*
X101699342Y-67673080D01*
X101937437Y-67339747D02*
X101937437Y-68196889D01*
X101937437Y-68196889D02*
X101889818Y-68292128D01*
X101889818Y-68292128D02*
X101794580Y-68339747D01*
X101794580Y-68339747D02*
X101699342Y-68339747D01*
X100985056Y-68292128D02*
X101080294Y-68339747D01*
X101080294Y-68339747D02*
X101270770Y-68339747D01*
X101270770Y-68339747D02*
X101366008Y-68292128D01*
X101366008Y-68292128D02*
X101413627Y-68196889D01*
X101413627Y-68196889D02*
X101413627Y-67815937D01*
X101413627Y-67815937D02*
X101366008Y-67720699D01*
X101366008Y-67720699D02*
X101270770Y-67673080D01*
X101270770Y-67673080D02*
X101080294Y-67673080D01*
X101080294Y-67673080D02*
X100985056Y-67720699D01*
X100985056Y-67720699D02*
X100937437Y-67815937D01*
X100937437Y-67815937D02*
X100937437Y-67911175D01*
X100937437Y-67911175D02*
X101413627Y-68006413D01*
X100508865Y-68339747D02*
X100508865Y-67673080D01*
X100508865Y-67863556D02*
X100461246Y-67768318D01*
X100461246Y-67768318D02*
X100413627Y-67720699D01*
X100413627Y-67720699D02*
X100318389Y-67673080D01*
X100318389Y-67673080D02*
X100223151Y-67673080D01*
X99127912Y-68339747D02*
X99127912Y-67339747D01*
X99127912Y-67815937D02*
X98556484Y-67815937D01*
X98556484Y-68339747D02*
X98556484Y-67339747D01*
X97651722Y-68339747D02*
X97651722Y-67815937D01*
X97651722Y-67815937D02*
X97699341Y-67720699D01*
X97699341Y-67720699D02*
X97794579Y-67673080D01*
X97794579Y-67673080D02*
X97985055Y-67673080D01*
X97985055Y-67673080D02*
X98080293Y-67720699D01*
X97651722Y-68292128D02*
X97746960Y-68339747D01*
X97746960Y-68339747D02*
X97985055Y-68339747D01*
X97985055Y-68339747D02*
X98080293Y-68292128D01*
X98080293Y-68292128D02*
X98127912Y-68196889D01*
X98127912Y-68196889D02*
X98127912Y-68101651D01*
X98127912Y-68101651D02*
X98080293Y-68006413D01*
X98080293Y-68006413D02*
X97985055Y-67958794D01*
X97985055Y-67958794D02*
X97746960Y-67958794D01*
X97746960Y-67958794D02*
X97651722Y-67911175D01*
X97175531Y-67673080D02*
X97175531Y-68339747D01*
X97175531Y-67768318D02*
X97127912Y-67720699D01*
X97127912Y-67720699D02*
X97032674Y-67673080D01*
X97032674Y-67673080D02*
X96889817Y-67673080D01*
X96889817Y-67673080D02*
X96794579Y-67720699D01*
X96794579Y-67720699D02*
X96746960Y-67815937D01*
X96746960Y-67815937D02*
X96746960Y-68339747D01*
X95842198Y-68292128D02*
X95937436Y-68339747D01*
X95937436Y-68339747D02*
X96127912Y-68339747D01*
X96127912Y-68339747D02*
X96223150Y-68292128D01*
X96223150Y-68292128D02*
X96270769Y-68244508D01*
X96270769Y-68244508D02*
X96318388Y-68149270D01*
X96318388Y-68149270D02*
X96318388Y-67863556D01*
X96318388Y-67863556D02*
X96270769Y-67768318D01*
X96270769Y-67768318D02*
X96223150Y-67720699D01*
X96223150Y-67720699D02*
X96127912Y-67673080D01*
X96127912Y-67673080D02*
X95937436Y-67673080D01*
X95937436Y-67673080D02*
X95842198Y-67720699D01*
X94985055Y-68339747D02*
X94985055Y-67815937D01*
X94985055Y-67815937D02*
X95032674Y-67720699D01*
X95032674Y-67720699D02*
X95127912Y-67673080D01*
X95127912Y-67673080D02*
X95318388Y-67673080D01*
X95318388Y-67673080D02*
X95413626Y-67720699D01*
X94985055Y-68292128D02*
X95080293Y-68339747D01*
X95080293Y-68339747D02*
X95318388Y-68339747D01*
X95318388Y-68339747D02*
X95413626Y-68292128D01*
X95413626Y-68292128D02*
X95461245Y-68196889D01*
X95461245Y-68196889D02*
X95461245Y-68101651D01*
X95461245Y-68101651D02*
X95413626Y-68006413D01*
X95413626Y-68006413D02*
X95318388Y-67958794D01*
X95318388Y-67958794D02*
X95080293Y-67958794D01*
X95080293Y-67958794D02*
X94985055Y-67911175D01*
X94508864Y-68339747D02*
X94508864Y-67339747D01*
X94413626Y-67958794D02*
X94127912Y-68339747D01*
X94127912Y-67673080D02*
X94508864Y-68054032D01*
X111508866Y-69663976D02*
X111032676Y-69663976D01*
X111604104Y-69949691D02*
X111270771Y-68949691D01*
X111270771Y-68949691D02*
X110937438Y-69949691D01*
X110604104Y-69949691D02*
X110604104Y-68949691D01*
X110604104Y-68949691D02*
X110366009Y-68949691D01*
X110366009Y-68949691D02*
X110223152Y-68997310D01*
X110223152Y-68997310D02*
X110127914Y-69092548D01*
X110127914Y-69092548D02*
X110080295Y-69187786D01*
X110080295Y-69187786D02*
X110032676Y-69378262D01*
X110032676Y-69378262D02*
X110032676Y-69521119D01*
X110032676Y-69521119D02*
X110080295Y-69711595D01*
X110080295Y-69711595D02*
X110127914Y-69806833D01*
X110127914Y-69806833D02*
X110223152Y-69902072D01*
X110223152Y-69902072D02*
X110366009Y-69949691D01*
X110366009Y-69949691D02*
X110604104Y-69949691D01*
X109032676Y-69854452D02*
X109080295Y-69902072D01*
X109080295Y-69902072D02*
X109223152Y-69949691D01*
X109223152Y-69949691D02*
X109318390Y-69949691D01*
X109318390Y-69949691D02*
X109461247Y-69902072D01*
X109461247Y-69902072D02*
X109556485Y-69806833D01*
X109556485Y-69806833D02*
X109604104Y-69711595D01*
X109604104Y-69711595D02*
X109651723Y-69521119D01*
X109651723Y-69521119D02*
X109651723Y-69378262D01*
X109651723Y-69378262D02*
X109604104Y-69187786D01*
X109604104Y-69187786D02*
X109556485Y-69092548D01*
X109556485Y-69092548D02*
X109461247Y-68997310D01*
X109461247Y-68997310D02*
X109318390Y-68949691D01*
X109318390Y-68949691D02*
X109223152Y-68949691D01*
X109223152Y-68949691D02*
X109080295Y-68997310D01*
X109080295Y-68997310D02*
X109032676Y-69044929D01*
X107842199Y-69949691D02*
X107842199Y-68949691D01*
X107842199Y-68949691D02*
X107604104Y-68949691D01*
X107604104Y-68949691D02*
X107461247Y-68997310D01*
X107461247Y-68997310D02*
X107366009Y-69092548D01*
X107366009Y-69092548D02*
X107318390Y-69187786D01*
X107318390Y-69187786D02*
X107270771Y-69378262D01*
X107270771Y-69378262D02*
X107270771Y-69521119D01*
X107270771Y-69521119D02*
X107318390Y-69711595D01*
X107318390Y-69711595D02*
X107366009Y-69806833D01*
X107366009Y-69806833D02*
X107461247Y-69902072D01*
X107461247Y-69902072D02*
X107604104Y-69949691D01*
X107604104Y-69949691D02*
X107842199Y-69949691D01*
X106270771Y-69949691D02*
X106604104Y-69473500D01*
X106842199Y-69949691D02*
X106842199Y-68949691D01*
X106842199Y-68949691D02*
X106461247Y-68949691D01*
X106461247Y-68949691D02*
X106366009Y-68997310D01*
X106366009Y-68997310D02*
X106318390Y-69044929D01*
X106318390Y-69044929D02*
X106270771Y-69140167D01*
X106270771Y-69140167D02*
X106270771Y-69283024D01*
X106270771Y-69283024D02*
X106318390Y-69378262D01*
X106318390Y-69378262D02*
X106366009Y-69425881D01*
X106366009Y-69425881D02*
X106461247Y-69473500D01*
X106461247Y-69473500D02*
X106842199Y-69473500D01*
X105842199Y-69949691D02*
X105842199Y-68949691D01*
X105508866Y-68949691D02*
X105175533Y-69949691D01*
X105175533Y-69949691D02*
X104842200Y-68949691D01*
X104508866Y-69425881D02*
X104175533Y-69425881D01*
X104032676Y-69949691D02*
X104508866Y-69949691D01*
X104508866Y-69949691D02*
X104508866Y-68949691D01*
X104508866Y-68949691D02*
X104032676Y-68949691D01*
X103032676Y-69949691D02*
X103366009Y-69473500D01*
X103604104Y-69949691D02*
X103604104Y-68949691D01*
X103604104Y-68949691D02*
X103223152Y-68949691D01*
X103223152Y-68949691D02*
X103127914Y-68997310D01*
X103127914Y-68997310D02*
X103080295Y-69044929D01*
X103080295Y-69044929D02*
X103032676Y-69140167D01*
X103032676Y-69140167D02*
X103032676Y-69283024D01*
X103032676Y-69283024D02*
X103080295Y-69378262D01*
X103080295Y-69378262D02*
X103127914Y-69425881D01*
X103127914Y-69425881D02*
X103223152Y-69473500D01*
X103223152Y-69473500D02*
X103604104Y-69473500D01*
X102604104Y-69854452D02*
X102556485Y-69902072D01*
X102556485Y-69902072D02*
X102604104Y-69949691D01*
X102604104Y-69949691D02*
X102651723Y-69902072D01*
X102651723Y-69902072D02*
X102604104Y-69854452D01*
X102604104Y-69854452D02*
X102604104Y-69949691D01*
X102604104Y-69330643D02*
X102556485Y-69378262D01*
X102556485Y-69378262D02*
X102604104Y-69425881D01*
X102604104Y-69425881D02*
X102651723Y-69378262D01*
X102651723Y-69378262D02*
X102604104Y-69330643D01*
X102604104Y-69330643D02*
X102604104Y-69425881D01*
X101413628Y-69663976D02*
X100937438Y-69663976D01*
X101508866Y-69949691D02*
X101175533Y-68949691D01*
X101175533Y-68949691D02*
X100842200Y-69949691D01*
X100508866Y-69949691D02*
X100508866Y-68949691D01*
X100508866Y-68949691D02*
X100270771Y-68949691D01*
X100270771Y-68949691D02*
X100127914Y-68997310D01*
X100127914Y-68997310D02*
X100032676Y-69092548D01*
X100032676Y-69092548D02*
X99985057Y-69187786D01*
X99985057Y-69187786D02*
X99937438Y-69378262D01*
X99937438Y-69378262D02*
X99937438Y-69521119D01*
X99937438Y-69521119D02*
X99985057Y-69711595D01*
X99985057Y-69711595D02*
X100032676Y-69806833D01*
X100032676Y-69806833D02*
X100127914Y-69902072D01*
X100127914Y-69902072D02*
X100270771Y-69949691D01*
X100270771Y-69949691D02*
X100508866Y-69949691D01*
X99556485Y-69663976D02*
X99080295Y-69663976D01*
X99651723Y-69949691D02*
X99318390Y-68949691D01*
X99318390Y-68949691D02*
X98985057Y-69949691D01*
X98223152Y-69283024D02*
X98223152Y-69949691D01*
X98461247Y-68902072D02*
X98699342Y-69616357D01*
X98699342Y-69616357D02*
X98080295Y-69616357D01*
X97651723Y-69949691D02*
X97461247Y-69949691D01*
X97461247Y-69949691D02*
X97366009Y-69902072D01*
X97366009Y-69902072D02*
X97318390Y-69854452D01*
X97318390Y-69854452D02*
X97223152Y-69711595D01*
X97223152Y-69711595D02*
X97175533Y-69521119D01*
X97175533Y-69521119D02*
X97175533Y-69140167D01*
X97175533Y-69140167D02*
X97223152Y-69044929D01*
X97223152Y-69044929D02*
X97270771Y-68997310D01*
X97270771Y-68997310D02*
X97366009Y-68949691D01*
X97366009Y-68949691D02*
X97556485Y-68949691D01*
X97556485Y-68949691D02*
X97651723Y-68997310D01*
X97651723Y-68997310D02*
X97699342Y-69044929D01*
X97699342Y-69044929D02*
X97746961Y-69140167D01*
X97746961Y-69140167D02*
X97746961Y-69378262D01*
X97746961Y-69378262D02*
X97699342Y-69473500D01*
X97699342Y-69473500D02*
X97651723Y-69521119D01*
X97651723Y-69521119D02*
X97556485Y-69568738D01*
X97556485Y-69568738D02*
X97366009Y-69568738D01*
X97366009Y-69568738D02*
X97270771Y-69521119D01*
X97270771Y-69521119D02*
X97223152Y-69473500D01*
X97223152Y-69473500D02*
X97175533Y-69378262D01*
X96318390Y-69283024D02*
X96318390Y-69949691D01*
X96556485Y-68902072D02*
X96794580Y-69616357D01*
X96794580Y-69616357D02*
X96175533Y-69616357D01*
X95604104Y-68949691D02*
X95508866Y-68949691D01*
X95508866Y-68949691D02*
X95413628Y-68997310D01*
X95413628Y-68997310D02*
X95366009Y-69044929D01*
X95366009Y-69044929D02*
X95318390Y-69140167D01*
X95318390Y-69140167D02*
X95270771Y-69330643D01*
X95270771Y-69330643D02*
X95270771Y-69568738D01*
X95270771Y-69568738D02*
X95318390Y-69759214D01*
X95318390Y-69759214D02*
X95366009Y-69854452D01*
X95366009Y-69854452D02*
X95413628Y-69902072D01*
X95413628Y-69902072D02*
X95508866Y-69949691D01*
X95508866Y-69949691D02*
X95604104Y-69949691D01*
X95604104Y-69949691D02*
X95699342Y-69902072D01*
X95699342Y-69902072D02*
X95746961Y-69854452D01*
X95746961Y-69854452D02*
X95794580Y-69759214D01*
X95794580Y-69759214D02*
X95842199Y-69568738D01*
X95842199Y-69568738D02*
X95842199Y-69330643D01*
X95842199Y-69330643D02*
X95794580Y-69140167D01*
X95794580Y-69140167D02*
X95746961Y-69044929D01*
X95746961Y-69044929D02*
X95699342Y-68997310D01*
X95699342Y-68997310D02*
X95604104Y-68949691D01*
X94842199Y-69568738D02*
X94080295Y-69568738D01*
X93651723Y-69044929D02*
X93604104Y-68997310D01*
X93604104Y-68997310D02*
X93508866Y-68949691D01*
X93508866Y-68949691D02*
X93270771Y-68949691D01*
X93270771Y-68949691D02*
X93175533Y-68997310D01*
X93175533Y-68997310D02*
X93127914Y-69044929D01*
X93127914Y-69044929D02*
X93080295Y-69140167D01*
X93080295Y-69140167D02*
X93080295Y-69235405D01*
X93080295Y-69235405D02*
X93127914Y-69378262D01*
X93127914Y-69378262D02*
X93699342Y-69949691D01*
X93699342Y-69949691D02*
X93080295Y-69949691D01*
X92699342Y-69663976D02*
X92223152Y-69663976D01*
X92794580Y-69949691D02*
X92461247Y-68949691D01*
X92461247Y-68949691D02*
X92127914Y-69949691D01*
X91223152Y-69854452D02*
X91270771Y-69902072D01*
X91270771Y-69902072D02*
X91413628Y-69949691D01*
X91413628Y-69949691D02*
X91508866Y-69949691D01*
X91508866Y-69949691D02*
X91651723Y-69902072D01*
X91651723Y-69902072D02*
X91746961Y-69806833D01*
X91746961Y-69806833D02*
X91794580Y-69711595D01*
X91794580Y-69711595D02*
X91842199Y-69521119D01*
X91842199Y-69521119D02*
X91842199Y-69378262D01*
X91842199Y-69378262D02*
X91794580Y-69187786D01*
X91794580Y-69187786D02*
X91746961Y-69092548D01*
X91746961Y-69092548D02*
X91651723Y-68997310D01*
X91651723Y-68997310D02*
X91508866Y-68949691D01*
X91508866Y-68949691D02*
X91413628Y-68949691D01*
X91413628Y-68949691D02*
X91270771Y-68997310D01*
X91270771Y-68997310D02*
X91223152Y-69044929D01*
X90794580Y-69949691D02*
X90794580Y-68949691D01*
X90794580Y-68949691D02*
X90413628Y-68949691D01*
X90413628Y-68949691D02*
X90318390Y-68997310D01*
X90318390Y-68997310D02*
X90270771Y-69044929D01*
X90270771Y-69044929D02*
X90223152Y-69140167D01*
X90223152Y-69140167D02*
X90223152Y-69283024D01*
X90223152Y-69283024D02*
X90270771Y-69378262D01*
X90270771Y-69378262D02*
X90318390Y-69425881D01*
X90318390Y-69425881D02*
X90413628Y-69473500D01*
X90413628Y-69473500D02*
X90794580Y-69473500D01*
X89889818Y-68949691D02*
X89223152Y-68949691D01*
X89223152Y-68949691D02*
X89889818Y-69949691D01*
X89889818Y-69949691D02*
X89223152Y-69949691D01*
X88842199Y-69568738D02*
X88080295Y-69568738D01*
X87032676Y-69949691D02*
X87366009Y-69473500D01*
X87604104Y-69949691D02*
X87604104Y-68949691D01*
X87604104Y-68949691D02*
X87223152Y-68949691D01*
X87223152Y-68949691D02*
X87127914Y-68997310D01*
X87127914Y-68997310D02*
X87080295Y-69044929D01*
X87080295Y-69044929D02*
X87032676Y-69140167D01*
X87032676Y-69140167D02*
X87032676Y-69283024D01*
X87032676Y-69283024D02*
X87080295Y-69378262D01*
X87080295Y-69378262D02*
X87127914Y-69425881D01*
X87127914Y-69425881D02*
X87223152Y-69473500D01*
X87223152Y-69473500D02*
X87604104Y-69473500D01*
X86699342Y-68949691D02*
X86032676Y-68949691D01*
X86032676Y-68949691D02*
X86461247Y-69949691D01*
X111508866Y-71273920D02*
X111032676Y-71273920D01*
X111604104Y-71559635D02*
X111270771Y-70559635D01*
X111270771Y-70559635D02*
X110937438Y-71559635D01*
X110604104Y-71559635D02*
X110604104Y-70559635D01*
X110604104Y-70559635D02*
X110366009Y-70559635D01*
X110366009Y-70559635D02*
X110223152Y-70607254D01*
X110223152Y-70607254D02*
X110127914Y-70702492D01*
X110127914Y-70702492D02*
X110080295Y-70797730D01*
X110080295Y-70797730D02*
X110032676Y-70988206D01*
X110032676Y-70988206D02*
X110032676Y-71131063D01*
X110032676Y-71131063D02*
X110080295Y-71321539D01*
X110080295Y-71321539D02*
X110127914Y-71416777D01*
X110127914Y-71416777D02*
X110223152Y-71512016D01*
X110223152Y-71512016D02*
X110366009Y-71559635D01*
X110366009Y-71559635D02*
X110604104Y-71559635D01*
X109032676Y-71464396D02*
X109080295Y-71512016D01*
X109080295Y-71512016D02*
X109223152Y-71559635D01*
X109223152Y-71559635D02*
X109318390Y-71559635D01*
X109318390Y-71559635D02*
X109461247Y-71512016D01*
X109461247Y-71512016D02*
X109556485Y-71416777D01*
X109556485Y-71416777D02*
X109604104Y-71321539D01*
X109604104Y-71321539D02*
X109651723Y-71131063D01*
X109651723Y-71131063D02*
X109651723Y-70988206D01*
X109651723Y-70988206D02*
X109604104Y-70797730D01*
X109604104Y-70797730D02*
X109556485Y-70702492D01*
X109556485Y-70702492D02*
X109461247Y-70607254D01*
X109461247Y-70607254D02*
X109318390Y-70559635D01*
X109318390Y-70559635D02*
X109223152Y-70559635D01*
X109223152Y-70559635D02*
X109080295Y-70607254D01*
X109080295Y-70607254D02*
X109032676Y-70654873D01*
X108604104Y-71464396D02*
X108556485Y-71512016D01*
X108556485Y-71512016D02*
X108604104Y-71559635D01*
X108604104Y-71559635D02*
X108651723Y-71512016D01*
X108651723Y-71512016D02*
X108604104Y-71464396D01*
X108604104Y-71464396D02*
X108604104Y-71559635D01*
X108604104Y-70940587D02*
X108556485Y-70988206D01*
X108556485Y-70988206D02*
X108604104Y-71035825D01*
X108604104Y-71035825D02*
X108651723Y-70988206D01*
X108651723Y-70988206D02*
X108604104Y-70940587D01*
X108604104Y-70940587D02*
X108604104Y-71035825D01*
X106794581Y-71464396D02*
X106842200Y-71512016D01*
X106842200Y-71512016D02*
X106985057Y-71559635D01*
X106985057Y-71559635D02*
X107080295Y-71559635D01*
X107080295Y-71559635D02*
X107223152Y-71512016D01*
X107223152Y-71512016D02*
X107318390Y-71416777D01*
X107318390Y-71416777D02*
X107366009Y-71321539D01*
X107366009Y-71321539D02*
X107413628Y-71131063D01*
X107413628Y-71131063D02*
X107413628Y-70988206D01*
X107413628Y-70988206D02*
X107366009Y-70797730D01*
X107366009Y-70797730D02*
X107318390Y-70702492D01*
X107318390Y-70702492D02*
X107223152Y-70607254D01*
X107223152Y-70607254D02*
X107080295Y-70559635D01*
X107080295Y-70559635D02*
X106985057Y-70559635D01*
X106985057Y-70559635D02*
X106842200Y-70607254D01*
X106842200Y-70607254D02*
X106794581Y-70654873D01*
X106413628Y-71512016D02*
X106270771Y-71559635D01*
X106270771Y-71559635D02*
X106032676Y-71559635D01*
X106032676Y-71559635D02*
X105937438Y-71512016D01*
X105937438Y-71512016D02*
X105889819Y-71464396D01*
X105889819Y-71464396D02*
X105842200Y-71369158D01*
X105842200Y-71369158D02*
X105842200Y-71273920D01*
X105842200Y-71273920D02*
X105889819Y-71178682D01*
X105889819Y-71178682D02*
X105937438Y-71131063D01*
X105937438Y-71131063D02*
X106032676Y-71083444D01*
X106032676Y-71083444D02*
X106223152Y-71035825D01*
X106223152Y-71035825D02*
X106318390Y-70988206D01*
X106318390Y-70988206D02*
X106366009Y-70940587D01*
X106366009Y-70940587D02*
X106413628Y-70845349D01*
X106413628Y-70845349D02*
X106413628Y-70750111D01*
X106413628Y-70750111D02*
X106366009Y-70654873D01*
X106366009Y-70654873D02*
X106318390Y-70607254D01*
X106318390Y-70607254D02*
X106223152Y-70559635D01*
X106223152Y-70559635D02*
X105985057Y-70559635D01*
X105985057Y-70559635D02*
X105842200Y-70607254D01*
X104937438Y-70559635D02*
X105413628Y-70559635D01*
X105413628Y-70559635D02*
X105461247Y-71035825D01*
X105461247Y-71035825D02*
X105413628Y-70988206D01*
X105413628Y-70988206D02*
X105318390Y-70940587D01*
X105318390Y-70940587D02*
X105080295Y-70940587D01*
X105080295Y-70940587D02*
X104985057Y-70988206D01*
X104985057Y-70988206D02*
X104937438Y-71035825D01*
X104937438Y-71035825D02*
X104889819Y-71131063D01*
X104889819Y-71131063D02*
X104889819Y-71369158D01*
X104889819Y-71369158D02*
X104937438Y-71464396D01*
X104937438Y-71464396D02*
X104985057Y-71512016D01*
X104985057Y-71512016D02*
X105080295Y-71559635D01*
X105080295Y-71559635D02*
X105318390Y-71559635D01*
X105318390Y-71559635D02*
X105413628Y-71512016D01*
X105413628Y-71512016D02*
X105461247Y-71464396D01*
X104556485Y-70559635D02*
X103937438Y-70559635D01*
X103937438Y-70559635D02*
X104270771Y-70940587D01*
X104270771Y-70940587D02*
X104127914Y-70940587D01*
X104127914Y-70940587D02*
X104032676Y-70988206D01*
X104032676Y-70988206D02*
X103985057Y-71035825D01*
X103985057Y-71035825D02*
X103937438Y-71131063D01*
X103937438Y-71131063D02*
X103937438Y-71369158D01*
X103937438Y-71369158D02*
X103985057Y-71464396D01*
X103985057Y-71464396D02*
X104032676Y-71512016D01*
X104032676Y-71512016D02*
X104127914Y-71559635D01*
X104127914Y-71559635D02*
X104413628Y-71559635D01*
X104413628Y-71559635D02*
X104508866Y-71512016D01*
X104508866Y-71512016D02*
X104556485Y-71464396D01*
X103366009Y-70988206D02*
X103461247Y-70940587D01*
X103461247Y-70940587D02*
X103508866Y-70892968D01*
X103508866Y-70892968D02*
X103556485Y-70797730D01*
X103556485Y-70797730D02*
X103556485Y-70750111D01*
X103556485Y-70750111D02*
X103508866Y-70654873D01*
X103508866Y-70654873D02*
X103461247Y-70607254D01*
X103461247Y-70607254D02*
X103366009Y-70559635D01*
X103366009Y-70559635D02*
X103175533Y-70559635D01*
X103175533Y-70559635D02*
X103080295Y-70607254D01*
X103080295Y-70607254D02*
X103032676Y-70654873D01*
X103032676Y-70654873D02*
X102985057Y-70750111D01*
X102985057Y-70750111D02*
X102985057Y-70797730D01*
X102985057Y-70797730D02*
X103032676Y-70892968D01*
X103032676Y-70892968D02*
X103080295Y-70940587D01*
X103080295Y-70940587D02*
X103175533Y-70988206D01*
X103175533Y-70988206D02*
X103366009Y-70988206D01*
X103366009Y-70988206D02*
X103461247Y-71035825D01*
X103461247Y-71035825D02*
X103508866Y-71083444D01*
X103508866Y-71083444D02*
X103556485Y-71178682D01*
X103556485Y-71178682D02*
X103556485Y-71369158D01*
X103556485Y-71369158D02*
X103508866Y-71464396D01*
X103508866Y-71464396D02*
X103461247Y-71512016D01*
X103461247Y-71512016D02*
X103366009Y-71559635D01*
X103366009Y-71559635D02*
X103175533Y-71559635D01*
X103175533Y-71559635D02*
X103080295Y-71512016D01*
X103080295Y-71512016D02*
X103032676Y-71464396D01*
X103032676Y-71464396D02*
X102985057Y-71369158D01*
X102985057Y-71369158D02*
X102985057Y-71178682D01*
X102985057Y-71178682D02*
X103032676Y-71083444D01*
X103032676Y-71083444D02*
X103080295Y-71035825D01*
X103080295Y-71035825D02*
X103175533Y-70988206D01*
X102032676Y-71559635D02*
X102604104Y-71559635D01*
X102318390Y-71559635D02*
X102318390Y-70559635D01*
X102318390Y-70559635D02*
X102413628Y-70702492D01*
X102413628Y-70702492D02*
X102508866Y-70797730D01*
X102508866Y-70797730D02*
X102604104Y-70845349D01*
X101604104Y-71559635D02*
X101604104Y-70559635D01*
X101032676Y-71559635D02*
X101461247Y-70988206D01*
X101032676Y-70559635D02*
X101604104Y-71131063D01*
X100604104Y-71178682D02*
X99842200Y-71178682D01*
X99366009Y-71559635D02*
X99366009Y-70559635D01*
X98794581Y-71559635D02*
X99223152Y-70988206D01*
X98794581Y-70559635D02*
X99366009Y-71131063D01*
X98413628Y-71512016D02*
X98270771Y-71559635D01*
X98270771Y-71559635D02*
X98032676Y-71559635D01*
X98032676Y-71559635D02*
X97937438Y-71512016D01*
X97937438Y-71512016D02*
X97889819Y-71464396D01*
X97889819Y-71464396D02*
X97842200Y-71369158D01*
X97842200Y-71369158D02*
X97842200Y-71273920D01*
X97842200Y-71273920D02*
X97889819Y-71178682D01*
X97889819Y-71178682D02*
X97937438Y-71131063D01*
X97937438Y-71131063D02*
X98032676Y-71083444D01*
X98032676Y-71083444D02*
X98223152Y-71035825D01*
X98223152Y-71035825D02*
X98318390Y-70988206D01*
X98318390Y-70988206D02*
X98366009Y-70940587D01*
X98366009Y-70940587D02*
X98413628Y-70845349D01*
X98413628Y-70845349D02*
X98413628Y-70750111D01*
X98413628Y-70750111D02*
X98366009Y-70654873D01*
X98366009Y-70654873D02*
X98318390Y-70607254D01*
X98318390Y-70607254D02*
X98223152Y-70559635D01*
X98223152Y-70559635D02*
X97985057Y-70559635D01*
X97985057Y-70559635D02*
X97842200Y-70607254D01*
X97508866Y-70559635D02*
X96842200Y-70559635D01*
X96842200Y-70559635D02*
X97508866Y-71559635D01*
X97508866Y-71559635D02*
X96842200Y-71559635D01*
X110985057Y-73169579D02*
X111461247Y-73169579D01*
X111461247Y-73169579D02*
X111461247Y-72169579D01*
X110651723Y-73169579D02*
X110651723Y-72169579D01*
X110651723Y-72169579D02*
X110413628Y-72169579D01*
X110413628Y-72169579D02*
X110270771Y-72217198D01*
X110270771Y-72217198D02*
X110175533Y-72312436D01*
X110175533Y-72312436D02*
X110127914Y-72407674D01*
X110127914Y-72407674D02*
X110080295Y-72598150D01*
X110080295Y-72598150D02*
X110080295Y-72741007D01*
X110080295Y-72741007D02*
X110127914Y-72931483D01*
X110127914Y-72931483D02*
X110175533Y-73026721D01*
X110175533Y-73026721D02*
X110270771Y-73121960D01*
X110270771Y-73121960D02*
X110413628Y-73169579D01*
X110413628Y-73169579D02*
X110651723Y-73169579D01*
X109461247Y-72169579D02*
X109270771Y-72169579D01*
X109270771Y-72169579D02*
X109175533Y-72217198D01*
X109175533Y-72217198D02*
X109080295Y-72312436D01*
X109080295Y-72312436D02*
X109032676Y-72502912D01*
X109032676Y-72502912D02*
X109032676Y-72836245D01*
X109032676Y-72836245D02*
X109080295Y-73026721D01*
X109080295Y-73026721D02*
X109175533Y-73121960D01*
X109175533Y-73121960D02*
X109270771Y-73169579D01*
X109270771Y-73169579D02*
X109461247Y-73169579D01*
X109461247Y-73169579D02*
X109556485Y-73121960D01*
X109556485Y-73121960D02*
X109651723Y-73026721D01*
X109651723Y-73026721D02*
X109699342Y-72836245D01*
X109699342Y-72836245D02*
X109699342Y-72502912D01*
X109699342Y-72502912D02*
X109651723Y-72312436D01*
X109651723Y-72312436D02*
X109556485Y-72217198D01*
X109556485Y-72217198D02*
X109461247Y-72169579D01*
X108604104Y-73074340D02*
X108556485Y-73121960D01*
X108556485Y-73121960D02*
X108604104Y-73169579D01*
X108604104Y-73169579D02*
X108651723Y-73121960D01*
X108651723Y-73121960D02*
X108604104Y-73074340D01*
X108604104Y-73074340D02*
X108604104Y-73169579D01*
X108604104Y-72550531D02*
X108556485Y-72598150D01*
X108556485Y-72598150D02*
X108604104Y-72645769D01*
X108604104Y-72645769D02*
X108651723Y-72598150D01*
X108651723Y-72598150D02*
X108604104Y-72550531D01*
X108604104Y-72550531D02*
X108604104Y-72645769D01*
X106889819Y-73169579D02*
X107366009Y-73169579D01*
X107366009Y-73169579D02*
X107366009Y-72169579D01*
X106556485Y-73169579D02*
X106556485Y-72169579D01*
X106556485Y-72169579D02*
X106318390Y-72169579D01*
X106318390Y-72169579D02*
X106175533Y-72217198D01*
X106175533Y-72217198D02*
X106080295Y-72312436D01*
X106080295Y-72312436D02*
X106032676Y-72407674D01*
X106032676Y-72407674D02*
X105985057Y-72598150D01*
X105985057Y-72598150D02*
X105985057Y-72741007D01*
X105985057Y-72741007D02*
X106032676Y-72931483D01*
X106032676Y-72931483D02*
X106080295Y-73026721D01*
X106080295Y-73026721D02*
X106175533Y-73121960D01*
X106175533Y-73121960D02*
X106318390Y-73169579D01*
X106318390Y-73169579D02*
X106556485Y-73169579D01*
X105080295Y-73169579D02*
X105556485Y-73169579D01*
X105556485Y-73169579D02*
X105556485Y-72169579D01*
X104746961Y-73169579D02*
X104746961Y-72169579D01*
X104746961Y-72169579D02*
X104175533Y-73169579D01*
X104175533Y-73169579D02*
X104175533Y-72169579D01*
X103508866Y-72169579D02*
X103413628Y-72169579D01*
X103413628Y-72169579D02*
X103318390Y-72217198D01*
X103318390Y-72217198D02*
X103270771Y-72264817D01*
X103270771Y-72264817D02*
X103223152Y-72360055D01*
X103223152Y-72360055D02*
X103175533Y-72550531D01*
X103175533Y-72550531D02*
X103175533Y-72788626D01*
X103175533Y-72788626D02*
X103223152Y-72979102D01*
X103223152Y-72979102D02*
X103270771Y-73074340D01*
X103270771Y-73074340D02*
X103318390Y-73121960D01*
X103318390Y-73121960D02*
X103413628Y-73169579D01*
X103413628Y-73169579D02*
X103508866Y-73169579D01*
X103508866Y-73169579D02*
X103604104Y-73121960D01*
X103604104Y-73121960D02*
X103651723Y-73074340D01*
X103651723Y-73074340D02*
X103699342Y-72979102D01*
X103699342Y-72979102D02*
X103746961Y-72788626D01*
X103746961Y-72788626D02*
X103746961Y-72550531D01*
X103746961Y-72550531D02*
X103699342Y-72360055D01*
X103699342Y-72360055D02*
X103651723Y-72264817D01*
X103651723Y-72264817D02*
X103604104Y-72217198D01*
X103604104Y-72217198D02*
X103508866Y-72169579D01*
X102270771Y-72169579D02*
X102746961Y-72169579D01*
X102746961Y-72169579D02*
X102794580Y-72645769D01*
X102794580Y-72645769D02*
X102746961Y-72598150D01*
X102746961Y-72598150D02*
X102651723Y-72550531D01*
X102651723Y-72550531D02*
X102413628Y-72550531D01*
X102413628Y-72550531D02*
X102318390Y-72598150D01*
X102318390Y-72598150D02*
X102270771Y-72645769D01*
X102270771Y-72645769D02*
X102223152Y-72741007D01*
X102223152Y-72741007D02*
X102223152Y-72979102D01*
X102223152Y-72979102D02*
X102270771Y-73074340D01*
X102270771Y-73074340D02*
X102318390Y-73121960D01*
X102318390Y-73121960D02*
X102413628Y-73169579D01*
X102413628Y-73169579D02*
X102651723Y-73169579D01*
X102651723Y-73169579D02*
X102746961Y-73121960D01*
X102746961Y-73121960D02*
X102794580Y-73074340D01*
X101604104Y-72169579D02*
X101508866Y-72169579D01*
X101508866Y-72169579D02*
X101413628Y-72217198D01*
X101413628Y-72217198D02*
X101366009Y-72264817D01*
X101366009Y-72264817D02*
X101318390Y-72360055D01*
X101318390Y-72360055D02*
X101270771Y-72550531D01*
X101270771Y-72550531D02*
X101270771Y-72788626D01*
X101270771Y-72788626D02*
X101318390Y-72979102D01*
X101318390Y-72979102D02*
X101366009Y-73074340D01*
X101366009Y-73074340D02*
X101413628Y-73121960D01*
X101413628Y-73121960D02*
X101508866Y-73169579D01*
X101508866Y-73169579D02*
X101604104Y-73169579D01*
X101604104Y-73169579D02*
X101699342Y-73121960D01*
X101699342Y-73121960D02*
X101746961Y-73074340D01*
X101746961Y-73074340D02*
X101794580Y-72979102D01*
X101794580Y-72979102D02*
X101842199Y-72788626D01*
X101842199Y-72788626D02*
X101842199Y-72550531D01*
X101842199Y-72550531D02*
X101794580Y-72360055D01*
X101794580Y-72360055D02*
X101746961Y-72264817D01*
X101746961Y-72264817D02*
X101699342Y-72217198D01*
X101699342Y-72217198D02*
X101604104Y-72169579D01*
X100842199Y-73169579D02*
X100842199Y-72169579D01*
X100842199Y-72169579D02*
X100461247Y-72169579D01*
X100461247Y-72169579D02*
X100366009Y-72217198D01*
X100366009Y-72217198D02*
X100318390Y-72264817D01*
X100318390Y-72264817D02*
X100270771Y-72360055D01*
X100270771Y-72360055D02*
X100270771Y-72502912D01*
X100270771Y-72502912D02*
X100318390Y-72598150D01*
X100318390Y-72598150D02*
X100366009Y-72645769D01*
X100366009Y-72645769D02*
X100461247Y-72693388D01*
X100461247Y-72693388D02*
X100842199Y-72693388D01*
X99842199Y-72169579D02*
X99842199Y-72979102D01*
X99842199Y-72979102D02*
X99794580Y-73074340D01*
X99794580Y-73074340D02*
X99746961Y-73121960D01*
X99746961Y-73121960D02*
X99651723Y-73169579D01*
X99651723Y-73169579D02*
X99461247Y-73169579D01*
X99461247Y-73169579D02*
X99366009Y-73121960D01*
X99366009Y-73121960D02*
X99318390Y-73074340D01*
X99318390Y-73074340D02*
X99270771Y-72979102D01*
X99270771Y-72979102D02*
X99270771Y-72169579D01*
X98223152Y-73169579D02*
X98556485Y-72693388D01*
X98794580Y-73169579D02*
X98794580Y-72169579D01*
X98794580Y-72169579D02*
X98413628Y-72169579D01*
X98413628Y-72169579D02*
X98318390Y-72217198D01*
X98318390Y-72217198D02*
X98270771Y-72264817D01*
X98270771Y-72264817D02*
X98223152Y-72360055D01*
X98223152Y-72360055D02*
X98223152Y-72502912D01*
X98223152Y-72502912D02*
X98270771Y-72598150D01*
X98270771Y-72598150D02*
X98318390Y-72645769D01*
X98318390Y-72645769D02*
X98413628Y-72693388D01*
X98413628Y-72693388D02*
X98794580Y-72693388D01*
X97746961Y-73121960D02*
X97746961Y-73169579D01*
X97746961Y-73169579D02*
X97794580Y-73264817D01*
X97794580Y-73264817D02*
X97842199Y-73312436D01*
X96080295Y-73169579D02*
X96556485Y-73169579D01*
X96556485Y-73169579D02*
X96556485Y-72169579D01*
X95746961Y-73169579D02*
X95746961Y-72169579D01*
X95746961Y-72169579D02*
X95508866Y-72169579D01*
X95508866Y-72169579D02*
X95366009Y-72217198D01*
X95366009Y-72217198D02*
X95270771Y-72312436D01*
X95270771Y-72312436D02*
X95223152Y-72407674D01*
X95223152Y-72407674D02*
X95175533Y-72598150D01*
X95175533Y-72598150D02*
X95175533Y-72741007D01*
X95175533Y-72741007D02*
X95223152Y-72931483D01*
X95223152Y-72931483D02*
X95270771Y-73026721D01*
X95270771Y-73026721D02*
X95366009Y-73121960D01*
X95366009Y-73121960D02*
X95508866Y-73169579D01*
X95508866Y-73169579D02*
X95746961Y-73169579D01*
X94270771Y-73169579D02*
X94746961Y-73169579D01*
X94746961Y-73169579D02*
X94746961Y-72169579D01*
X93937437Y-73169579D02*
X93937437Y-72169579D01*
X93937437Y-72169579D02*
X93366009Y-73169579D01*
X93366009Y-73169579D02*
X93366009Y-72169579D01*
X92699342Y-72169579D02*
X92604104Y-72169579D01*
X92604104Y-72169579D02*
X92508866Y-72217198D01*
X92508866Y-72217198D02*
X92461247Y-72264817D01*
X92461247Y-72264817D02*
X92413628Y-72360055D01*
X92413628Y-72360055D02*
X92366009Y-72550531D01*
X92366009Y-72550531D02*
X92366009Y-72788626D01*
X92366009Y-72788626D02*
X92413628Y-72979102D01*
X92413628Y-72979102D02*
X92461247Y-73074340D01*
X92461247Y-73074340D02*
X92508866Y-73121960D01*
X92508866Y-73121960D02*
X92604104Y-73169579D01*
X92604104Y-73169579D02*
X92699342Y-73169579D01*
X92699342Y-73169579D02*
X92794580Y-73121960D01*
X92794580Y-73121960D02*
X92842199Y-73074340D01*
X92842199Y-73074340D02*
X92889818Y-72979102D01*
X92889818Y-72979102D02*
X92937437Y-72788626D01*
X92937437Y-72788626D02*
X92937437Y-72550531D01*
X92937437Y-72550531D02*
X92889818Y-72360055D01*
X92889818Y-72360055D02*
X92842199Y-72264817D01*
X92842199Y-72264817D02*
X92794580Y-72217198D01*
X92794580Y-72217198D02*
X92699342Y-72169579D01*
X91461247Y-72169579D02*
X91937437Y-72169579D01*
X91937437Y-72169579D02*
X91985056Y-72645769D01*
X91985056Y-72645769D02*
X91937437Y-72598150D01*
X91937437Y-72598150D02*
X91842199Y-72550531D01*
X91842199Y-72550531D02*
X91604104Y-72550531D01*
X91604104Y-72550531D02*
X91508866Y-72598150D01*
X91508866Y-72598150D02*
X91461247Y-72645769D01*
X91461247Y-72645769D02*
X91413628Y-72741007D01*
X91413628Y-72741007D02*
X91413628Y-72979102D01*
X91413628Y-72979102D02*
X91461247Y-73074340D01*
X91461247Y-73074340D02*
X91508866Y-73121960D01*
X91508866Y-73121960D02*
X91604104Y-73169579D01*
X91604104Y-73169579D02*
X91842199Y-73169579D01*
X91842199Y-73169579D02*
X91937437Y-73121960D01*
X91937437Y-73121960D02*
X91985056Y-73074340D01*
X90794580Y-72169579D02*
X90699342Y-72169579D01*
X90699342Y-72169579D02*
X90604104Y-72217198D01*
X90604104Y-72217198D02*
X90556485Y-72264817D01*
X90556485Y-72264817D02*
X90508866Y-72360055D01*
X90508866Y-72360055D02*
X90461247Y-72550531D01*
X90461247Y-72550531D02*
X90461247Y-72788626D01*
X90461247Y-72788626D02*
X90508866Y-72979102D01*
X90508866Y-72979102D02*
X90556485Y-73074340D01*
X90556485Y-73074340D02*
X90604104Y-73121960D01*
X90604104Y-73121960D02*
X90699342Y-73169579D01*
X90699342Y-73169579D02*
X90794580Y-73169579D01*
X90794580Y-73169579D02*
X90889818Y-73121960D01*
X90889818Y-73121960D02*
X90937437Y-73074340D01*
X90937437Y-73074340D02*
X90985056Y-72979102D01*
X90985056Y-72979102D02*
X91032675Y-72788626D01*
X91032675Y-72788626D02*
X91032675Y-72550531D01*
X91032675Y-72550531D02*
X90985056Y-72360055D01*
X90985056Y-72360055D02*
X90937437Y-72264817D01*
X90937437Y-72264817D02*
X90889818Y-72217198D01*
X90889818Y-72217198D02*
X90794580Y-72169579D01*
X90032675Y-73169579D02*
X90032675Y-72169579D01*
X90032675Y-72169579D02*
X89651723Y-72169579D01*
X89651723Y-72169579D02*
X89556485Y-72217198D01*
X89556485Y-72217198D02*
X89508866Y-72264817D01*
X89508866Y-72264817D02*
X89461247Y-72360055D01*
X89461247Y-72360055D02*
X89461247Y-72502912D01*
X89461247Y-72502912D02*
X89508866Y-72598150D01*
X89508866Y-72598150D02*
X89556485Y-72645769D01*
X89556485Y-72645769D02*
X89651723Y-72693388D01*
X89651723Y-72693388D02*
X90032675Y-72693388D01*
X89032675Y-72169579D02*
X89032675Y-72979102D01*
X89032675Y-72979102D02*
X88985056Y-73074340D01*
X88985056Y-73074340D02*
X88937437Y-73121960D01*
X88937437Y-73121960D02*
X88842199Y-73169579D01*
X88842199Y-73169579D02*
X88651723Y-73169579D01*
X88651723Y-73169579D02*
X88556485Y-73121960D01*
X88556485Y-73121960D02*
X88508866Y-73074340D01*
X88508866Y-73074340D02*
X88461247Y-72979102D01*
X88461247Y-72979102D02*
X88461247Y-72169579D01*
X88080294Y-72169579D02*
X87461247Y-72169579D01*
X87461247Y-72169579D02*
X87794580Y-72550531D01*
X87794580Y-72550531D02*
X87651723Y-72550531D01*
X87651723Y-72550531D02*
X87556485Y-72598150D01*
X87556485Y-72598150D02*
X87508866Y-72645769D01*
X87508866Y-72645769D02*
X87461247Y-72741007D01*
X87461247Y-72741007D02*
X87461247Y-72979102D01*
X87461247Y-72979102D02*
X87508866Y-73074340D01*
X87508866Y-73074340D02*
X87556485Y-73121960D01*
X87556485Y-73121960D02*
X87651723Y-73169579D01*
X87651723Y-73169579D02*
X87937437Y-73169579D01*
X87937437Y-73169579D02*
X88032675Y-73121960D01*
X88032675Y-73121960D02*
X88080294Y-73074340D01*
X87127913Y-72169579D02*
X86508866Y-72169579D01*
X86508866Y-72169579D02*
X86842199Y-72550531D01*
X86842199Y-72550531D02*
X86699342Y-72550531D01*
X86699342Y-72550531D02*
X86604104Y-72598150D01*
X86604104Y-72598150D02*
X86556485Y-72645769D01*
X86556485Y-72645769D02*
X86508866Y-72741007D01*
X86508866Y-72741007D02*
X86508866Y-72979102D01*
X86508866Y-72979102D02*
X86556485Y-73074340D01*
X86556485Y-73074340D02*
X86604104Y-73121960D01*
X86604104Y-73121960D02*
X86699342Y-73169579D01*
X86699342Y-73169579D02*
X86985056Y-73169579D01*
X86985056Y-73169579D02*
X87080294Y-73121960D01*
X87080294Y-73121960D02*
X87127913Y-73074340D01*
X85508866Y-73169579D02*
X85842199Y-72693388D01*
X86080294Y-73169579D02*
X86080294Y-72169579D01*
X86080294Y-72169579D02*
X85699342Y-72169579D01*
X85699342Y-72169579D02*
X85604104Y-72217198D01*
X85604104Y-72217198D02*
X85556485Y-72264817D01*
X85556485Y-72264817D02*
X85508866Y-72360055D01*
X85508866Y-72360055D02*
X85508866Y-72502912D01*
X85508866Y-72502912D02*
X85556485Y-72598150D01*
X85556485Y-72598150D02*
X85604104Y-72645769D01*
X85604104Y-72645769D02*
X85699342Y-72693388D01*
X85699342Y-72693388D02*
X86080294Y-72693388D01*
X84032675Y-73550531D02*
X84080294Y-73502912D01*
X84080294Y-73502912D02*
X84175532Y-73360055D01*
X84175532Y-73360055D02*
X84223151Y-73264817D01*
X84223151Y-73264817D02*
X84270770Y-73121960D01*
X84270770Y-73121960D02*
X84318389Y-72883864D01*
X84318389Y-72883864D02*
X84318389Y-72693388D01*
X84318389Y-72693388D02*
X84270770Y-72455293D01*
X84270770Y-72455293D02*
X84223151Y-72312436D01*
X84223151Y-72312436D02*
X84175532Y-72217198D01*
X84175532Y-72217198D02*
X84080294Y-72074340D01*
X84080294Y-72074340D02*
X84032675Y-72026721D01*
X83175532Y-73169579D02*
X83651722Y-73169579D01*
X83651722Y-73169579D02*
X83651722Y-72169579D01*
X82699341Y-73169579D02*
X82794579Y-73121960D01*
X82794579Y-73121960D02*
X82842198Y-73074340D01*
X82842198Y-73074340D02*
X82889817Y-72979102D01*
X82889817Y-72979102D02*
X82889817Y-72693388D01*
X82889817Y-72693388D02*
X82842198Y-72598150D01*
X82842198Y-72598150D02*
X82794579Y-72550531D01*
X82794579Y-72550531D02*
X82699341Y-72502912D01*
X82699341Y-72502912D02*
X82556484Y-72502912D01*
X82556484Y-72502912D02*
X82461246Y-72550531D01*
X82461246Y-72550531D02*
X82413627Y-72598150D01*
X82413627Y-72598150D02*
X82366008Y-72693388D01*
X82366008Y-72693388D02*
X82366008Y-72979102D01*
X82366008Y-72979102D02*
X82413627Y-73074340D01*
X82413627Y-73074340D02*
X82461246Y-73121960D01*
X82461246Y-73121960D02*
X82556484Y-73169579D01*
X82556484Y-73169579D02*
X82699341Y-73169579D01*
X82032674Y-72502912D02*
X81842198Y-73169579D01*
X81842198Y-73169579D02*
X81651722Y-72693388D01*
X81651722Y-72693388D02*
X81461246Y-73169579D01*
X81461246Y-73169579D02*
X81270770Y-72502912D01*
X80127912Y-72502912D02*
X80127912Y-73169579D01*
X80127912Y-72598150D02*
X80080293Y-72550531D01*
X80080293Y-72550531D02*
X79985055Y-72502912D01*
X79985055Y-72502912D02*
X79842198Y-72502912D01*
X79842198Y-72502912D02*
X79746960Y-72550531D01*
X79746960Y-72550531D02*
X79699341Y-72645769D01*
X79699341Y-72645769D02*
X79699341Y-73169579D01*
X79080293Y-73169579D02*
X79175531Y-73121960D01*
X79175531Y-73121960D02*
X79223150Y-73074340D01*
X79223150Y-73074340D02*
X79270769Y-72979102D01*
X79270769Y-72979102D02*
X79270769Y-72693388D01*
X79270769Y-72693388D02*
X79223150Y-72598150D01*
X79223150Y-72598150D02*
X79175531Y-72550531D01*
X79175531Y-72550531D02*
X79080293Y-72502912D01*
X79080293Y-72502912D02*
X78937436Y-72502912D01*
X78937436Y-72502912D02*
X78842198Y-72550531D01*
X78842198Y-72550531D02*
X78794579Y-72598150D01*
X78794579Y-72598150D02*
X78746960Y-72693388D01*
X78746960Y-72693388D02*
X78746960Y-72979102D01*
X78746960Y-72979102D02*
X78794579Y-73074340D01*
X78794579Y-73074340D02*
X78842198Y-73121960D01*
X78842198Y-73121960D02*
X78937436Y-73169579D01*
X78937436Y-73169579D02*
X79080293Y-73169579D01*
X78318388Y-73169579D02*
X78318388Y-72502912D01*
X78318388Y-72169579D02*
X78366007Y-72217198D01*
X78366007Y-72217198D02*
X78318388Y-72264817D01*
X78318388Y-72264817D02*
X78270769Y-72217198D01*
X78270769Y-72217198D02*
X78318388Y-72169579D01*
X78318388Y-72169579D02*
X78318388Y-72264817D01*
X77889817Y-73121960D02*
X77794579Y-73169579D01*
X77794579Y-73169579D02*
X77604103Y-73169579D01*
X77604103Y-73169579D02*
X77508865Y-73121960D01*
X77508865Y-73121960D02*
X77461246Y-73026721D01*
X77461246Y-73026721D02*
X77461246Y-72979102D01*
X77461246Y-72979102D02*
X77508865Y-72883864D01*
X77508865Y-72883864D02*
X77604103Y-72836245D01*
X77604103Y-72836245D02*
X77746960Y-72836245D01*
X77746960Y-72836245D02*
X77842198Y-72788626D01*
X77842198Y-72788626D02*
X77889817Y-72693388D01*
X77889817Y-72693388D02*
X77889817Y-72645769D01*
X77889817Y-72645769D02*
X77842198Y-72550531D01*
X77842198Y-72550531D02*
X77746960Y-72502912D01*
X77746960Y-72502912D02*
X77604103Y-72502912D01*
X77604103Y-72502912D02*
X77508865Y-72550531D01*
X76651722Y-73121960D02*
X76746960Y-73169579D01*
X76746960Y-73169579D02*
X76937436Y-73169579D01*
X76937436Y-73169579D02*
X77032674Y-73121960D01*
X77032674Y-73121960D02*
X77080293Y-73026721D01*
X77080293Y-73026721D02*
X77080293Y-72645769D01*
X77080293Y-72645769D02*
X77032674Y-72550531D01*
X77032674Y-72550531D02*
X76937436Y-72502912D01*
X76937436Y-72502912D02*
X76746960Y-72502912D01*
X76746960Y-72502912D02*
X76651722Y-72550531D01*
X76651722Y-72550531D02*
X76604103Y-72645769D01*
X76604103Y-72645769D02*
X76604103Y-72741007D01*
X76604103Y-72741007D02*
X77080293Y-72836245D01*
X76270769Y-73550531D02*
X76223150Y-73502912D01*
X76223150Y-73502912D02*
X76127912Y-73360055D01*
X76127912Y-73360055D02*
X76080293Y-73264817D01*
X76080293Y-73264817D02*
X76032674Y-73121960D01*
X76032674Y-73121960D02*
X75985055Y-72883864D01*
X75985055Y-72883864D02*
X75985055Y-72693388D01*
X75985055Y-72693388D02*
X76032674Y-72455293D01*
X76032674Y-72455293D02*
X76080293Y-72312436D01*
X76080293Y-72312436D02*
X76127912Y-72217198D01*
X76127912Y-72217198D02*
X76223150Y-72074340D01*
X76223150Y-72074340D02*
X76270769Y-72026721D01*
X111461247Y-74779523D02*
X111461247Y-73779523D01*
X110985057Y-74779523D02*
X110985057Y-73779523D01*
X110985057Y-73779523D02*
X110413629Y-74779523D01*
X110413629Y-74779523D02*
X110413629Y-73779523D01*
X110080295Y-73779523D02*
X109508867Y-73779523D01*
X109794581Y-74779523D02*
X109794581Y-73779523D01*
X109175533Y-74255713D02*
X108842200Y-74255713D01*
X108699343Y-74779523D02*
X109175533Y-74779523D01*
X109175533Y-74779523D02*
X109175533Y-73779523D01*
X109175533Y-73779523D02*
X108699343Y-73779523D01*
X107699343Y-74779523D02*
X108032676Y-74303332D01*
X108270771Y-74779523D02*
X108270771Y-73779523D01*
X108270771Y-73779523D02*
X107889819Y-73779523D01*
X107889819Y-73779523D02*
X107794581Y-73827142D01*
X107794581Y-73827142D02*
X107746962Y-73874761D01*
X107746962Y-73874761D02*
X107699343Y-73969999D01*
X107699343Y-73969999D02*
X107699343Y-74112856D01*
X107699343Y-74112856D02*
X107746962Y-74208094D01*
X107746962Y-74208094D02*
X107794581Y-74255713D01*
X107794581Y-74255713D02*
X107889819Y-74303332D01*
X107889819Y-74303332D02*
X108270771Y-74303332D01*
X106937438Y-74255713D02*
X107270771Y-74255713D01*
X107270771Y-74779523D02*
X107270771Y-73779523D01*
X107270771Y-73779523D02*
X106794581Y-73779523D01*
X106461247Y-74493808D02*
X105985057Y-74493808D01*
X106556485Y-74779523D02*
X106223152Y-73779523D01*
X106223152Y-73779523D02*
X105889819Y-74779523D01*
X104985057Y-74684284D02*
X105032676Y-74731904D01*
X105032676Y-74731904D02*
X105175533Y-74779523D01*
X105175533Y-74779523D02*
X105270771Y-74779523D01*
X105270771Y-74779523D02*
X105413628Y-74731904D01*
X105413628Y-74731904D02*
X105508866Y-74636665D01*
X105508866Y-74636665D02*
X105556485Y-74541427D01*
X105556485Y-74541427D02*
X105604104Y-74350951D01*
X105604104Y-74350951D02*
X105604104Y-74208094D01*
X105604104Y-74208094D02*
X105556485Y-74017618D01*
X105556485Y-74017618D02*
X105508866Y-73922380D01*
X105508866Y-73922380D02*
X105413628Y-73827142D01*
X105413628Y-73827142D02*
X105270771Y-73779523D01*
X105270771Y-73779523D02*
X105175533Y-73779523D01*
X105175533Y-73779523D02*
X105032676Y-73827142D01*
X105032676Y-73827142D02*
X104985057Y-73874761D01*
X104556485Y-74255713D02*
X104223152Y-74255713D01*
X104080295Y-74779523D02*
X104556485Y-74779523D01*
X104556485Y-74779523D02*
X104556485Y-73779523D01*
X104556485Y-73779523D02*
X104080295Y-73779523D01*
X103651723Y-74684284D02*
X103604104Y-74731904D01*
X103604104Y-74731904D02*
X103651723Y-74779523D01*
X103651723Y-74779523D02*
X103699342Y-74731904D01*
X103699342Y-74731904D02*
X103651723Y-74684284D01*
X103651723Y-74684284D02*
X103651723Y-74779523D01*
X103651723Y-74160475D02*
X103604104Y-74208094D01*
X103604104Y-74208094D02*
X103651723Y-74255713D01*
X103651723Y-74255713D02*
X103699342Y-74208094D01*
X103699342Y-74208094D02*
X103651723Y-74160475D01*
X103651723Y-74160475D02*
X103651723Y-74255713D01*
X102413628Y-74779523D02*
X102413628Y-73779523D01*
X101985057Y-73874761D02*
X101937438Y-73827142D01*
X101937438Y-73827142D02*
X101842200Y-73779523D01*
X101842200Y-73779523D02*
X101604105Y-73779523D01*
X101604105Y-73779523D02*
X101508867Y-73827142D01*
X101508867Y-73827142D02*
X101461248Y-73874761D01*
X101461248Y-73874761D02*
X101413629Y-73969999D01*
X101413629Y-73969999D02*
X101413629Y-74065237D01*
X101413629Y-74065237D02*
X101461248Y-74208094D01*
X101461248Y-74208094D02*
X102032676Y-74779523D01*
X102032676Y-74779523D02*
X101413629Y-74779523D01*
X101032676Y-74731904D02*
X100889819Y-74779523D01*
X100889819Y-74779523D02*
X100651724Y-74779523D01*
X100651724Y-74779523D02*
X100556486Y-74731904D01*
X100556486Y-74731904D02*
X100508867Y-74684284D01*
X100508867Y-74684284D02*
X100461248Y-74589046D01*
X100461248Y-74589046D02*
X100461248Y-74493808D01*
X100461248Y-74493808D02*
X100508867Y-74398570D01*
X100508867Y-74398570D02*
X100556486Y-74350951D01*
X100556486Y-74350951D02*
X100651724Y-74303332D01*
X100651724Y-74303332D02*
X100842200Y-74255713D01*
X100842200Y-74255713D02*
X100937438Y-74208094D01*
X100937438Y-74208094D02*
X100985057Y-74160475D01*
X100985057Y-74160475D02*
X101032676Y-74065237D01*
X101032676Y-74065237D02*
X101032676Y-73969999D01*
X101032676Y-73969999D02*
X100985057Y-73874761D01*
X100985057Y-73874761D02*
X100937438Y-73827142D01*
X100937438Y-73827142D02*
X100842200Y-73779523D01*
X100842200Y-73779523D02*
X100604105Y-73779523D01*
X100604105Y-73779523D02*
X100461248Y-73827142D01*
X98985057Y-75160475D02*
X99032676Y-75112856D01*
X99032676Y-75112856D02*
X99127914Y-74969999D01*
X99127914Y-74969999D02*
X99175533Y-74874761D01*
X99175533Y-74874761D02*
X99223152Y-74731904D01*
X99223152Y-74731904D02*
X99270771Y-74493808D01*
X99270771Y-74493808D02*
X99270771Y-74303332D01*
X99270771Y-74303332D02*
X99223152Y-74065237D01*
X99223152Y-74065237D02*
X99175533Y-73922380D01*
X99175533Y-73922380D02*
X99127914Y-73827142D01*
X99127914Y-73827142D02*
X99032676Y-73684284D01*
X99032676Y-73684284D02*
X98985057Y-73636665D01*
X98270771Y-74255713D02*
X98604104Y-74255713D01*
X98604104Y-74779523D02*
X98604104Y-73779523D01*
X98604104Y-73779523D02*
X98127914Y-73779523D01*
X97746961Y-74779523D02*
X97746961Y-73779523D01*
X97746961Y-73779523D02*
X97366009Y-73779523D01*
X97366009Y-73779523D02*
X97270771Y-73827142D01*
X97270771Y-73827142D02*
X97223152Y-73874761D01*
X97223152Y-73874761D02*
X97175533Y-73969999D01*
X97175533Y-73969999D02*
X97175533Y-74112856D01*
X97175533Y-74112856D02*
X97223152Y-74208094D01*
X97223152Y-74208094D02*
X97270771Y-74255713D01*
X97270771Y-74255713D02*
X97366009Y-74303332D01*
X97366009Y-74303332D02*
X97746961Y-74303332D01*
X96175533Y-74684284D02*
X96223152Y-74731904D01*
X96223152Y-74731904D02*
X96366009Y-74779523D01*
X96366009Y-74779523D02*
X96461247Y-74779523D01*
X96461247Y-74779523D02*
X96604104Y-74731904D01*
X96604104Y-74731904D02*
X96699342Y-74636665D01*
X96699342Y-74636665D02*
X96746961Y-74541427D01*
X96746961Y-74541427D02*
X96794580Y-74350951D01*
X96794580Y-74350951D02*
X96794580Y-74208094D01*
X96794580Y-74208094D02*
X96746961Y-74017618D01*
X96746961Y-74017618D02*
X96699342Y-73922380D01*
X96699342Y-73922380D02*
X96604104Y-73827142D01*
X96604104Y-73827142D02*
X96461247Y-73779523D01*
X96461247Y-73779523D02*
X96366009Y-73779523D01*
X96366009Y-73779523D02*
X96223152Y-73827142D01*
X96223152Y-73827142D02*
X96175533Y-73874761D01*
X95842199Y-75160475D02*
X95794580Y-75112856D01*
X95794580Y-75112856D02*
X95699342Y-74969999D01*
X95699342Y-74969999D02*
X95651723Y-74874761D01*
X95651723Y-74874761D02*
X95604104Y-74731904D01*
X95604104Y-74731904D02*
X95556485Y-74493808D01*
X95556485Y-74493808D02*
X95556485Y-74303332D01*
X95556485Y-74303332D02*
X95604104Y-74065237D01*
X95604104Y-74065237D02*
X95651723Y-73922380D01*
X95651723Y-73922380D02*
X95699342Y-73827142D01*
X95699342Y-73827142D02*
X95794580Y-73684284D01*
X95794580Y-73684284D02*
X95842199Y-73636665D01*
X111604104Y-75389467D02*
X111270771Y-76389467D01*
X111270771Y-76389467D02*
X110937438Y-75389467D01*
X110604104Y-76389467D02*
X110604104Y-75389467D01*
X110127914Y-76389467D02*
X110127914Y-75389467D01*
X110127914Y-75389467D02*
X109556486Y-76389467D01*
X109556486Y-76389467D02*
X109556486Y-75389467D01*
X109080295Y-76294228D02*
X109032676Y-76341848D01*
X109032676Y-76341848D02*
X109080295Y-76389467D01*
X109080295Y-76389467D02*
X109127914Y-76341848D01*
X109127914Y-76341848D02*
X109080295Y-76294228D01*
X109080295Y-76294228D02*
X109080295Y-76389467D01*
X109080295Y-75770419D02*
X109032676Y-75818038D01*
X109032676Y-75818038D02*
X109080295Y-75865657D01*
X109080295Y-75865657D02*
X109127914Y-75818038D01*
X109127914Y-75818038D02*
X109080295Y-75770419D01*
X109080295Y-75770419D02*
X109080295Y-75865657D01*
X107889819Y-75484705D02*
X107842200Y-75437086D01*
X107842200Y-75437086D02*
X107746962Y-75389467D01*
X107746962Y-75389467D02*
X107508867Y-75389467D01*
X107508867Y-75389467D02*
X107413629Y-75437086D01*
X107413629Y-75437086D02*
X107366010Y-75484705D01*
X107366010Y-75484705D02*
X107318391Y-75579943D01*
X107318391Y-75579943D02*
X107318391Y-75675181D01*
X107318391Y-75675181D02*
X107366010Y-75818038D01*
X107366010Y-75818038D02*
X107937438Y-76389467D01*
X107937438Y-76389467D02*
X107318391Y-76389467D01*
X106889819Y-76294228D02*
X106842200Y-76341848D01*
X106842200Y-76341848D02*
X106889819Y-76389467D01*
X106889819Y-76389467D02*
X106937438Y-76341848D01*
X106937438Y-76341848D02*
X106889819Y-76294228D01*
X106889819Y-76294228D02*
X106889819Y-76389467D01*
X106508867Y-75389467D02*
X105842201Y-75389467D01*
X105842201Y-75389467D02*
X106270772Y-76389467D01*
X104842200Y-75722800D02*
X104461248Y-75722800D01*
X104699343Y-75389467D02*
X104699343Y-76246609D01*
X104699343Y-76246609D02*
X104651724Y-76341848D01*
X104651724Y-76341848D02*
X104556486Y-76389467D01*
X104556486Y-76389467D02*
X104461248Y-76389467D01*
X103985057Y-76389467D02*
X104080295Y-76341848D01*
X104080295Y-76341848D02*
X104127914Y-76294228D01*
X104127914Y-76294228D02*
X104175533Y-76198990D01*
X104175533Y-76198990D02*
X104175533Y-75913276D01*
X104175533Y-75913276D02*
X104127914Y-75818038D01*
X104127914Y-75818038D02*
X104080295Y-75770419D01*
X104080295Y-75770419D02*
X103985057Y-75722800D01*
X103985057Y-75722800D02*
X103842200Y-75722800D01*
X103842200Y-75722800D02*
X103746962Y-75770419D01*
X103746962Y-75770419D02*
X103699343Y-75818038D01*
X103699343Y-75818038D02*
X103651724Y-75913276D01*
X103651724Y-75913276D02*
X103651724Y-76198990D01*
X103651724Y-76198990D02*
X103699343Y-76294228D01*
X103699343Y-76294228D02*
X103746962Y-76341848D01*
X103746962Y-76341848D02*
X103842200Y-76389467D01*
X103842200Y-76389467D02*
X103985057Y-76389467D01*
X102032676Y-75389467D02*
X102223152Y-75389467D01*
X102223152Y-75389467D02*
X102318390Y-75437086D01*
X102318390Y-75437086D02*
X102366009Y-75484705D01*
X102366009Y-75484705D02*
X102461247Y-75627562D01*
X102461247Y-75627562D02*
X102508866Y-75818038D01*
X102508866Y-75818038D02*
X102508866Y-76198990D01*
X102508866Y-76198990D02*
X102461247Y-76294228D01*
X102461247Y-76294228D02*
X102413628Y-76341848D01*
X102413628Y-76341848D02*
X102318390Y-76389467D01*
X102318390Y-76389467D02*
X102127914Y-76389467D01*
X102127914Y-76389467D02*
X102032676Y-76341848D01*
X102032676Y-76341848D02*
X101985057Y-76294228D01*
X101985057Y-76294228D02*
X101937438Y-76198990D01*
X101937438Y-76198990D02*
X101937438Y-75960895D01*
X101937438Y-75960895D02*
X101985057Y-75865657D01*
X101985057Y-75865657D02*
X102032676Y-75818038D01*
X102032676Y-75818038D02*
X102127914Y-75770419D01*
X102127914Y-75770419D02*
X102318390Y-75770419D01*
X102318390Y-75770419D02*
X102413628Y-75818038D01*
X102413628Y-75818038D02*
X102461247Y-75865657D01*
X102461247Y-75865657D02*
X102508866Y-75960895D01*
X101508866Y-76294228D02*
X101461247Y-76341848D01*
X101461247Y-76341848D02*
X101508866Y-76389467D01*
X101508866Y-76389467D02*
X101556485Y-76341848D01*
X101556485Y-76341848D02*
X101508866Y-76294228D01*
X101508866Y-76294228D02*
X101508866Y-76389467D01*
X100556486Y-75389467D02*
X101032676Y-75389467D01*
X101032676Y-75389467D02*
X101080295Y-75865657D01*
X101080295Y-75865657D02*
X101032676Y-75818038D01*
X101032676Y-75818038D02*
X100937438Y-75770419D01*
X100937438Y-75770419D02*
X100699343Y-75770419D01*
X100699343Y-75770419D02*
X100604105Y-75818038D01*
X100604105Y-75818038D02*
X100556486Y-75865657D01*
X100556486Y-75865657D02*
X100508867Y-75960895D01*
X100508867Y-75960895D02*
X100508867Y-76198990D01*
X100508867Y-76198990D02*
X100556486Y-76294228D01*
X100556486Y-76294228D02*
X100604105Y-76341848D01*
X100604105Y-76341848D02*
X100699343Y-76389467D01*
X100699343Y-76389467D02*
X100937438Y-76389467D01*
X100937438Y-76389467D02*
X101032676Y-76341848D01*
X101032676Y-76341848D02*
X101080295Y-76294228D01*
X100223152Y-75389467D02*
X99889819Y-76389467D01*
X99889819Y-76389467D02*
X99556486Y-75389467D01*
X111461247Y-80234775D02*
X111461247Y-79234775D01*
X111461247Y-79234775D02*
X111127914Y-79949060D01*
X111127914Y-79949060D02*
X110794581Y-79234775D01*
X110794581Y-79234775D02*
X110794581Y-80234775D01*
X110175533Y-80234775D02*
X110270771Y-80187156D01*
X110270771Y-80187156D02*
X110318390Y-80139536D01*
X110318390Y-80139536D02*
X110366009Y-80044298D01*
X110366009Y-80044298D02*
X110366009Y-79758584D01*
X110366009Y-79758584D02*
X110318390Y-79663346D01*
X110318390Y-79663346D02*
X110270771Y-79615727D01*
X110270771Y-79615727D02*
X110175533Y-79568108D01*
X110175533Y-79568108D02*
X110032676Y-79568108D01*
X110032676Y-79568108D02*
X109937438Y-79615727D01*
X109937438Y-79615727D02*
X109889819Y-79663346D01*
X109889819Y-79663346D02*
X109842200Y-79758584D01*
X109842200Y-79758584D02*
X109842200Y-80044298D01*
X109842200Y-80044298D02*
X109889819Y-80139536D01*
X109889819Y-80139536D02*
X109937438Y-80187156D01*
X109937438Y-80187156D02*
X110032676Y-80234775D01*
X110032676Y-80234775D02*
X110175533Y-80234775D01*
X108985057Y-80234775D02*
X108985057Y-79234775D01*
X108985057Y-80187156D02*
X109080295Y-80234775D01*
X109080295Y-80234775D02*
X109270771Y-80234775D01*
X109270771Y-80234775D02*
X109366009Y-80187156D01*
X109366009Y-80187156D02*
X109413628Y-80139536D01*
X109413628Y-80139536D02*
X109461247Y-80044298D01*
X109461247Y-80044298D02*
X109461247Y-79758584D01*
X109461247Y-79758584D02*
X109413628Y-79663346D01*
X109413628Y-79663346D02*
X109366009Y-79615727D01*
X109366009Y-79615727D02*
X109270771Y-79568108D01*
X109270771Y-79568108D02*
X109080295Y-79568108D01*
X109080295Y-79568108D02*
X108985057Y-79615727D01*
X108127914Y-80187156D02*
X108223152Y-80234775D01*
X108223152Y-80234775D02*
X108413628Y-80234775D01*
X108413628Y-80234775D02*
X108508866Y-80187156D01*
X108508866Y-80187156D02*
X108556485Y-80091917D01*
X108556485Y-80091917D02*
X108556485Y-79710965D01*
X108556485Y-79710965D02*
X108508866Y-79615727D01*
X108508866Y-79615727D02*
X108413628Y-79568108D01*
X108413628Y-79568108D02*
X108223152Y-79568108D01*
X108223152Y-79568108D02*
X108127914Y-79615727D01*
X108127914Y-79615727D02*
X108080295Y-79710965D01*
X108080295Y-79710965D02*
X108080295Y-79806203D01*
X108080295Y-79806203D02*
X108556485Y-79901441D01*
X111461247Y-81844719D02*
X111461247Y-80844719D01*
X111461247Y-80844719D02*
X111127914Y-81559004D01*
X111127914Y-81559004D02*
X110794581Y-80844719D01*
X110794581Y-80844719D02*
X110794581Y-81844719D01*
X109794581Y-81844719D02*
X110366009Y-81844719D01*
X110080295Y-81844719D02*
X110080295Y-80844719D01*
X110080295Y-80844719D02*
X110175533Y-80987576D01*
X110175533Y-80987576D02*
X110270771Y-81082814D01*
X110270771Y-81082814D02*
X110366009Y-81130433D01*
X106318389Y-81844719D02*
X106318389Y-80844719D01*
X106318389Y-80844719D02*
X105985056Y-81559004D01*
X105985056Y-81559004D02*
X105651723Y-80844719D01*
X105651723Y-80844719D02*
X105651723Y-81844719D01*
X104985056Y-80844719D02*
X104889818Y-80844719D01*
X104889818Y-80844719D02*
X104794580Y-80892338D01*
X104794580Y-80892338D02*
X104746961Y-80939957D01*
X104746961Y-80939957D02*
X104699342Y-81035195D01*
X104699342Y-81035195D02*
X104651723Y-81225671D01*
X104651723Y-81225671D02*
X104651723Y-81463766D01*
X104651723Y-81463766D02*
X104699342Y-81654242D01*
X104699342Y-81654242D02*
X104746961Y-81749480D01*
X104746961Y-81749480D02*
X104794580Y-81797100D01*
X104794580Y-81797100D02*
X104889818Y-81844719D01*
X104889818Y-81844719D02*
X104985056Y-81844719D01*
X104985056Y-81844719D02*
X105080294Y-81797100D01*
X105080294Y-81797100D02*
X105127913Y-81749480D01*
X105127913Y-81749480D02*
X105175532Y-81654242D01*
X105175532Y-81654242D02*
X105223151Y-81463766D01*
X105223151Y-81463766D02*
X105223151Y-81225671D01*
X105223151Y-81225671D02*
X105175532Y-81035195D01*
X105175532Y-81035195D02*
X105127913Y-80939957D01*
X105127913Y-80939957D02*
X105080294Y-80892338D01*
X105080294Y-80892338D02*
X104985056Y-80844719D01*
X101746960Y-80844719D02*
X101556484Y-80844719D01*
X101556484Y-80844719D02*
X101461246Y-80892338D01*
X101461246Y-80892338D02*
X101366008Y-80987576D01*
X101366008Y-80987576D02*
X101318389Y-81178052D01*
X101318389Y-81178052D02*
X101318389Y-81511385D01*
X101318389Y-81511385D02*
X101366008Y-81701861D01*
X101366008Y-81701861D02*
X101461246Y-81797100D01*
X101461246Y-81797100D02*
X101556484Y-81844719D01*
X101556484Y-81844719D02*
X101746960Y-81844719D01*
X101746960Y-81844719D02*
X101842198Y-81797100D01*
X101842198Y-81797100D02*
X101937436Y-81701861D01*
X101937436Y-81701861D02*
X101985055Y-81511385D01*
X101985055Y-81511385D02*
X101985055Y-81178052D01*
X101985055Y-81178052D02*
X101937436Y-80987576D01*
X101937436Y-80987576D02*
X101842198Y-80892338D01*
X101842198Y-80892338D02*
X101746960Y-80844719D01*
X100461246Y-81178052D02*
X100461246Y-81844719D01*
X100889817Y-81178052D02*
X100889817Y-81701861D01*
X100889817Y-81701861D02*
X100842198Y-81797100D01*
X100842198Y-81797100D02*
X100746960Y-81844719D01*
X100746960Y-81844719D02*
X100604103Y-81844719D01*
X100604103Y-81844719D02*
X100508865Y-81797100D01*
X100508865Y-81797100D02*
X100461246Y-81749480D01*
X100127912Y-81178052D02*
X99746960Y-81178052D01*
X99985055Y-80844719D02*
X99985055Y-81701861D01*
X99985055Y-81701861D02*
X99937436Y-81797100D01*
X99937436Y-81797100D02*
X99842198Y-81844719D01*
X99842198Y-81844719D02*
X99746960Y-81844719D01*
X99413626Y-81178052D02*
X99413626Y-82178052D01*
X99413626Y-81225671D02*
X99318388Y-81178052D01*
X99318388Y-81178052D02*
X99127912Y-81178052D01*
X99127912Y-81178052D02*
X99032674Y-81225671D01*
X99032674Y-81225671D02*
X98985055Y-81273290D01*
X98985055Y-81273290D02*
X98937436Y-81368528D01*
X98937436Y-81368528D02*
X98937436Y-81654242D01*
X98937436Y-81654242D02*
X98985055Y-81749480D01*
X98985055Y-81749480D02*
X99032674Y-81797100D01*
X99032674Y-81797100D02*
X99127912Y-81844719D01*
X99127912Y-81844719D02*
X99318388Y-81844719D01*
X99318388Y-81844719D02*
X99413626Y-81797100D01*
X98080293Y-81178052D02*
X98080293Y-81844719D01*
X98508864Y-81178052D02*
X98508864Y-81701861D01*
X98508864Y-81701861D02*
X98461245Y-81797100D01*
X98461245Y-81797100D02*
X98366007Y-81844719D01*
X98366007Y-81844719D02*
X98223150Y-81844719D01*
X98223150Y-81844719D02*
X98127912Y-81797100D01*
X98127912Y-81797100D02*
X98080293Y-81749480D01*
X97746959Y-81178052D02*
X97366007Y-81178052D01*
X97604102Y-80844719D02*
X97604102Y-81701861D01*
X97604102Y-81701861D02*
X97556483Y-81797100D01*
X97556483Y-81797100D02*
X97461245Y-81844719D01*
X97461245Y-81844719D02*
X97366007Y-81844719D01*
X96318387Y-81797100D02*
X96175530Y-81844719D01*
X96175530Y-81844719D02*
X95937435Y-81844719D01*
X95937435Y-81844719D02*
X95842197Y-81797100D01*
X95842197Y-81797100D02*
X95794578Y-81749480D01*
X95794578Y-81749480D02*
X95746959Y-81654242D01*
X95746959Y-81654242D02*
X95746959Y-81559004D01*
X95746959Y-81559004D02*
X95794578Y-81463766D01*
X95794578Y-81463766D02*
X95842197Y-81416147D01*
X95842197Y-81416147D02*
X95937435Y-81368528D01*
X95937435Y-81368528D02*
X96127911Y-81320909D01*
X96127911Y-81320909D02*
X96223149Y-81273290D01*
X96223149Y-81273290D02*
X96270768Y-81225671D01*
X96270768Y-81225671D02*
X96318387Y-81130433D01*
X96318387Y-81130433D02*
X96318387Y-81035195D01*
X96318387Y-81035195D02*
X96270768Y-80939957D01*
X96270768Y-80939957D02*
X96223149Y-80892338D01*
X96223149Y-80892338D02*
X96127911Y-80844719D01*
X96127911Y-80844719D02*
X95889816Y-80844719D01*
X95889816Y-80844719D02*
X95746959Y-80892338D01*
X94889816Y-81844719D02*
X94889816Y-81320909D01*
X94889816Y-81320909D02*
X94937435Y-81225671D01*
X94937435Y-81225671D02*
X95032673Y-81178052D01*
X95032673Y-81178052D02*
X95223149Y-81178052D01*
X95223149Y-81178052D02*
X95318387Y-81225671D01*
X94889816Y-81797100D02*
X94985054Y-81844719D01*
X94985054Y-81844719D02*
X95223149Y-81844719D01*
X95223149Y-81844719D02*
X95318387Y-81797100D01*
X95318387Y-81797100D02*
X95366006Y-81701861D01*
X95366006Y-81701861D02*
X95366006Y-81606623D01*
X95366006Y-81606623D02*
X95318387Y-81511385D01*
X95318387Y-81511385D02*
X95223149Y-81463766D01*
X95223149Y-81463766D02*
X94985054Y-81463766D01*
X94985054Y-81463766D02*
X94889816Y-81416147D01*
X94413625Y-81844719D02*
X94413625Y-81178052D01*
X94413625Y-81273290D02*
X94366006Y-81225671D01*
X94366006Y-81225671D02*
X94270768Y-81178052D01*
X94270768Y-81178052D02*
X94127911Y-81178052D01*
X94127911Y-81178052D02*
X94032673Y-81225671D01*
X94032673Y-81225671D02*
X93985054Y-81320909D01*
X93985054Y-81320909D02*
X93985054Y-81844719D01*
X93985054Y-81320909D02*
X93937435Y-81225671D01*
X93937435Y-81225671D02*
X93842197Y-81178052D01*
X93842197Y-81178052D02*
X93699340Y-81178052D01*
X93699340Y-81178052D02*
X93604101Y-81225671D01*
X93604101Y-81225671D02*
X93556482Y-81320909D01*
X93556482Y-81320909D02*
X93556482Y-81844719D01*
X93080292Y-81178052D02*
X93080292Y-82178052D01*
X93080292Y-81225671D02*
X92985054Y-81178052D01*
X92985054Y-81178052D02*
X92794578Y-81178052D01*
X92794578Y-81178052D02*
X92699340Y-81225671D01*
X92699340Y-81225671D02*
X92651721Y-81273290D01*
X92651721Y-81273290D02*
X92604102Y-81368528D01*
X92604102Y-81368528D02*
X92604102Y-81654242D01*
X92604102Y-81654242D02*
X92651721Y-81749480D01*
X92651721Y-81749480D02*
X92699340Y-81797100D01*
X92699340Y-81797100D02*
X92794578Y-81844719D01*
X92794578Y-81844719D02*
X92985054Y-81844719D01*
X92985054Y-81844719D02*
X93080292Y-81797100D01*
X92032673Y-81844719D02*
X92127911Y-81797100D01*
X92127911Y-81797100D02*
X92175530Y-81701861D01*
X92175530Y-81701861D02*
X92175530Y-80844719D01*
X91270768Y-81797100D02*
X91366006Y-81844719D01*
X91366006Y-81844719D02*
X91556482Y-81844719D01*
X91556482Y-81844719D02*
X91651720Y-81797100D01*
X91651720Y-81797100D02*
X91699339Y-81701861D01*
X91699339Y-81701861D02*
X91699339Y-81320909D01*
X91699339Y-81320909D02*
X91651720Y-81225671D01*
X91651720Y-81225671D02*
X91556482Y-81178052D01*
X91556482Y-81178052D02*
X91366006Y-81178052D01*
X91366006Y-81178052D02*
X91270768Y-81225671D01*
X91270768Y-81225671D02*
X91223149Y-81320909D01*
X91223149Y-81320909D02*
X91223149Y-81416147D01*
X91223149Y-81416147D02*
X91699339Y-81511385D01*
X89461244Y-81844719D02*
X89794577Y-81368528D01*
X90032672Y-81844719D02*
X90032672Y-80844719D01*
X90032672Y-80844719D02*
X89651720Y-80844719D01*
X89651720Y-80844719D02*
X89556482Y-80892338D01*
X89556482Y-80892338D02*
X89508863Y-80939957D01*
X89508863Y-80939957D02*
X89461244Y-81035195D01*
X89461244Y-81035195D02*
X89461244Y-81178052D01*
X89461244Y-81178052D02*
X89508863Y-81273290D01*
X89508863Y-81273290D02*
X89556482Y-81320909D01*
X89556482Y-81320909D02*
X89651720Y-81368528D01*
X89651720Y-81368528D02*
X90032672Y-81368528D01*
X88604101Y-81844719D02*
X88604101Y-81320909D01*
X88604101Y-81320909D02*
X88651720Y-81225671D01*
X88651720Y-81225671D02*
X88746958Y-81178052D01*
X88746958Y-81178052D02*
X88937434Y-81178052D01*
X88937434Y-81178052D02*
X89032672Y-81225671D01*
X88604101Y-81797100D02*
X88699339Y-81844719D01*
X88699339Y-81844719D02*
X88937434Y-81844719D01*
X88937434Y-81844719D02*
X89032672Y-81797100D01*
X89032672Y-81797100D02*
X89080291Y-81701861D01*
X89080291Y-81701861D02*
X89080291Y-81606623D01*
X89080291Y-81606623D02*
X89032672Y-81511385D01*
X89032672Y-81511385D02*
X88937434Y-81463766D01*
X88937434Y-81463766D02*
X88699339Y-81463766D01*
X88699339Y-81463766D02*
X88604101Y-81416147D01*
X88270767Y-81178052D02*
X87889815Y-81178052D01*
X88127910Y-80844719D02*
X88127910Y-81701861D01*
X88127910Y-81701861D02*
X88080291Y-81797100D01*
X88080291Y-81797100D02*
X87985053Y-81844719D01*
X87985053Y-81844719D02*
X87889815Y-81844719D01*
X87175529Y-81797100D02*
X87270767Y-81844719D01*
X87270767Y-81844719D02*
X87461243Y-81844719D01*
X87461243Y-81844719D02*
X87556481Y-81797100D01*
X87556481Y-81797100D02*
X87604100Y-81701861D01*
X87604100Y-81701861D02*
X87604100Y-81320909D01*
X87604100Y-81320909D02*
X87556481Y-81225671D01*
X87556481Y-81225671D02*
X87461243Y-81178052D01*
X87461243Y-81178052D02*
X87270767Y-81178052D01*
X87270767Y-81178052D02*
X87175529Y-81225671D01*
X87175529Y-81225671D02*
X87127910Y-81320909D01*
X87127910Y-81320909D02*
X87127910Y-81416147D01*
X87127910Y-81416147D02*
X87604100Y-81511385D01*
X110508866Y-82454663D02*
X110413628Y-82454663D01*
X110413628Y-82454663D02*
X110318390Y-82502282D01*
X110318390Y-82502282D02*
X110270771Y-82549901D01*
X110270771Y-82549901D02*
X110223152Y-82645139D01*
X110223152Y-82645139D02*
X110175533Y-82835615D01*
X110175533Y-82835615D02*
X110175533Y-83073710D01*
X110175533Y-83073710D02*
X110223152Y-83264186D01*
X110223152Y-83264186D02*
X110270771Y-83359424D01*
X110270771Y-83359424D02*
X110318390Y-83407044D01*
X110318390Y-83407044D02*
X110413628Y-83454663D01*
X110413628Y-83454663D02*
X110508866Y-83454663D01*
X110508866Y-83454663D02*
X110604104Y-83407044D01*
X110604104Y-83407044D02*
X110651723Y-83359424D01*
X110651723Y-83359424D02*
X110699342Y-83264186D01*
X110699342Y-83264186D02*
X110746961Y-83073710D01*
X110746961Y-83073710D02*
X110746961Y-82835615D01*
X110746961Y-82835615D02*
X110699342Y-82645139D01*
X110699342Y-82645139D02*
X110651723Y-82549901D01*
X110651723Y-82549901D02*
X110604104Y-82502282D01*
X110604104Y-82502282D02*
X110508866Y-82454663D01*
X105746960Y-82454663D02*
X105651722Y-82454663D01*
X105651722Y-82454663D02*
X105556484Y-82502282D01*
X105556484Y-82502282D02*
X105508865Y-82549901D01*
X105508865Y-82549901D02*
X105461246Y-82645139D01*
X105461246Y-82645139D02*
X105413627Y-82835615D01*
X105413627Y-82835615D02*
X105413627Y-83073710D01*
X105413627Y-83073710D02*
X105461246Y-83264186D01*
X105461246Y-83264186D02*
X105508865Y-83359424D01*
X105508865Y-83359424D02*
X105556484Y-83407044D01*
X105556484Y-83407044D02*
X105651722Y-83454663D01*
X105651722Y-83454663D02*
X105746960Y-83454663D01*
X105746960Y-83454663D02*
X105842198Y-83407044D01*
X105842198Y-83407044D02*
X105889817Y-83359424D01*
X105889817Y-83359424D02*
X105937436Y-83264186D01*
X105937436Y-83264186D02*
X105985055Y-83073710D01*
X105985055Y-83073710D02*
X105985055Y-82835615D01*
X105985055Y-82835615D02*
X105937436Y-82645139D01*
X105937436Y-82645139D02*
X105889817Y-82549901D01*
X105889817Y-82549901D02*
X105842198Y-82502282D01*
X105842198Y-82502282D02*
X105746960Y-82454663D01*
X101985054Y-82549901D02*
X101937435Y-82502282D01*
X101937435Y-82502282D02*
X101842197Y-82454663D01*
X101842197Y-82454663D02*
X101604102Y-82454663D01*
X101604102Y-82454663D02*
X101508864Y-82502282D01*
X101508864Y-82502282D02*
X101461245Y-82549901D01*
X101461245Y-82549901D02*
X101413626Y-82645139D01*
X101413626Y-82645139D02*
X101413626Y-82740377D01*
X101413626Y-82740377D02*
X101461245Y-82883234D01*
X101461245Y-82883234D02*
X102032673Y-83454663D01*
X102032673Y-83454663D02*
X101413626Y-83454663D01*
X100985054Y-83454663D02*
X100985054Y-82454663D01*
X100889816Y-83073710D02*
X100604102Y-83454663D01*
X100604102Y-82787996D02*
X100985054Y-83168948D01*
X100175530Y-83454663D02*
X100175530Y-82454663D01*
X100175530Y-82930853D02*
X99604102Y-82930853D01*
X99604102Y-83454663D02*
X99604102Y-82454663D01*
X99223149Y-82787996D02*
X98699340Y-82787996D01*
X98699340Y-82787996D02*
X99223149Y-83454663D01*
X99223149Y-83454663D02*
X98699340Y-83454663D01*
X97556482Y-83073710D02*
X96794578Y-83073710D01*
X95080292Y-82454663D02*
X95556482Y-82454663D01*
X95556482Y-82454663D02*
X95604101Y-82930853D01*
X95604101Y-82930853D02*
X95556482Y-82883234D01*
X95556482Y-82883234D02*
X95461244Y-82835615D01*
X95461244Y-82835615D02*
X95223149Y-82835615D01*
X95223149Y-82835615D02*
X95127911Y-82883234D01*
X95127911Y-82883234D02*
X95080292Y-82930853D01*
X95080292Y-82930853D02*
X95032673Y-83026091D01*
X95032673Y-83026091D02*
X95032673Y-83264186D01*
X95032673Y-83264186D02*
X95080292Y-83359424D01*
X95080292Y-83359424D02*
X95127911Y-83407044D01*
X95127911Y-83407044D02*
X95223149Y-83454663D01*
X95223149Y-83454663D02*
X95461244Y-83454663D01*
X95461244Y-83454663D02*
X95556482Y-83407044D01*
X95556482Y-83407044D02*
X95604101Y-83359424D01*
X94413625Y-82454663D02*
X94318387Y-82454663D01*
X94318387Y-82454663D02*
X94223149Y-82502282D01*
X94223149Y-82502282D02*
X94175530Y-82549901D01*
X94175530Y-82549901D02*
X94127911Y-82645139D01*
X94127911Y-82645139D02*
X94080292Y-82835615D01*
X94080292Y-82835615D02*
X94080292Y-83073710D01*
X94080292Y-83073710D02*
X94127911Y-83264186D01*
X94127911Y-83264186D02*
X94175530Y-83359424D01*
X94175530Y-83359424D02*
X94223149Y-83407044D01*
X94223149Y-83407044D02*
X94318387Y-83454663D01*
X94318387Y-83454663D02*
X94413625Y-83454663D01*
X94413625Y-83454663D02*
X94508863Y-83407044D01*
X94508863Y-83407044D02*
X94556482Y-83359424D01*
X94556482Y-83359424D02*
X94604101Y-83264186D01*
X94604101Y-83264186D02*
X94651720Y-83073710D01*
X94651720Y-83073710D02*
X94651720Y-82835615D01*
X94651720Y-82835615D02*
X94604101Y-82645139D01*
X94604101Y-82645139D02*
X94556482Y-82549901D01*
X94556482Y-82549901D02*
X94508863Y-82502282D01*
X94508863Y-82502282D02*
X94413625Y-82454663D01*
X92889815Y-83454663D02*
X92889815Y-82454663D01*
X92794577Y-83073710D02*
X92508863Y-83454663D01*
X92508863Y-82787996D02*
X92889815Y-83168948D01*
X92080291Y-83454663D02*
X92080291Y-82454663D01*
X92080291Y-82930853D02*
X91508863Y-82930853D01*
X91508863Y-83454663D02*
X91508863Y-82454663D01*
X91127910Y-82787996D02*
X90604101Y-82787996D01*
X90604101Y-82787996D02*
X91127910Y-83454663D01*
X91127910Y-83454663D02*
X90604101Y-83454663D01*
X110508866Y-84064607D02*
X110413628Y-84064607D01*
X110413628Y-84064607D02*
X110318390Y-84112226D01*
X110318390Y-84112226D02*
X110270771Y-84159845D01*
X110270771Y-84159845D02*
X110223152Y-84255083D01*
X110223152Y-84255083D02*
X110175533Y-84445559D01*
X110175533Y-84445559D02*
X110175533Y-84683654D01*
X110175533Y-84683654D02*
X110223152Y-84874130D01*
X110223152Y-84874130D02*
X110270771Y-84969368D01*
X110270771Y-84969368D02*
X110318390Y-85016988D01*
X110318390Y-85016988D02*
X110413628Y-85064607D01*
X110413628Y-85064607D02*
X110508866Y-85064607D01*
X110508866Y-85064607D02*
X110604104Y-85016988D01*
X110604104Y-85016988D02*
X110651723Y-84969368D01*
X110651723Y-84969368D02*
X110699342Y-84874130D01*
X110699342Y-84874130D02*
X110746961Y-84683654D01*
X110746961Y-84683654D02*
X110746961Y-84445559D01*
X110746961Y-84445559D02*
X110699342Y-84255083D01*
X110699342Y-84255083D02*
X110651723Y-84159845D01*
X110651723Y-84159845D02*
X110604104Y-84112226D01*
X110604104Y-84112226D02*
X110508866Y-84064607D01*
X105413627Y-85064607D02*
X105985055Y-85064607D01*
X105699341Y-85064607D02*
X105699341Y-84064607D01*
X105699341Y-84064607D02*
X105794579Y-84207464D01*
X105794579Y-84207464D02*
X105889817Y-84302702D01*
X105889817Y-84302702D02*
X105985055Y-84350321D01*
X101461245Y-84064607D02*
X101937435Y-84064607D01*
X101937435Y-84064607D02*
X101985054Y-84540797D01*
X101985054Y-84540797D02*
X101937435Y-84493178D01*
X101937435Y-84493178D02*
X101842197Y-84445559D01*
X101842197Y-84445559D02*
X101604102Y-84445559D01*
X101604102Y-84445559D02*
X101508864Y-84493178D01*
X101508864Y-84493178D02*
X101461245Y-84540797D01*
X101461245Y-84540797D02*
X101413626Y-84636035D01*
X101413626Y-84636035D02*
X101413626Y-84874130D01*
X101413626Y-84874130D02*
X101461245Y-84969368D01*
X101461245Y-84969368D02*
X101508864Y-85016988D01*
X101508864Y-85016988D02*
X101604102Y-85064607D01*
X101604102Y-85064607D02*
X101842197Y-85064607D01*
X101842197Y-85064607D02*
X101937435Y-85016988D01*
X101937435Y-85016988D02*
X101985054Y-84969368D01*
X100794578Y-84064607D02*
X100699340Y-84064607D01*
X100699340Y-84064607D02*
X100604102Y-84112226D01*
X100604102Y-84112226D02*
X100556483Y-84159845D01*
X100556483Y-84159845D02*
X100508864Y-84255083D01*
X100508864Y-84255083D02*
X100461245Y-84445559D01*
X100461245Y-84445559D02*
X100461245Y-84683654D01*
X100461245Y-84683654D02*
X100508864Y-84874130D01*
X100508864Y-84874130D02*
X100556483Y-84969368D01*
X100556483Y-84969368D02*
X100604102Y-85016988D01*
X100604102Y-85016988D02*
X100699340Y-85064607D01*
X100699340Y-85064607D02*
X100794578Y-85064607D01*
X100794578Y-85064607D02*
X100889816Y-85016988D01*
X100889816Y-85016988D02*
X100937435Y-84969368D01*
X100937435Y-84969368D02*
X100985054Y-84874130D01*
X100985054Y-84874130D02*
X101032673Y-84683654D01*
X101032673Y-84683654D02*
X101032673Y-84445559D01*
X101032673Y-84445559D02*
X100985054Y-84255083D01*
X100985054Y-84255083D02*
X100937435Y-84159845D01*
X100937435Y-84159845D02*
X100889816Y-84112226D01*
X100889816Y-84112226D02*
X100794578Y-84064607D01*
X99270768Y-85064607D02*
X99270768Y-84064607D01*
X99175530Y-84683654D02*
X98889816Y-85064607D01*
X98889816Y-84397940D02*
X99270768Y-84778892D01*
X98461244Y-85064607D02*
X98461244Y-84064607D01*
X98461244Y-84540797D02*
X97889816Y-84540797D01*
X97889816Y-85064607D02*
X97889816Y-84064607D01*
X97508863Y-84397940D02*
X96985054Y-84397940D01*
X96985054Y-84397940D02*
X97508863Y-85064607D01*
X97508863Y-85064607D02*
X96985054Y-85064607D01*
X95842196Y-84683654D02*
X95080292Y-84683654D01*
X93318387Y-85064607D02*
X93889815Y-85064607D01*
X93604101Y-85064607D02*
X93604101Y-84064607D01*
X93604101Y-84064607D02*
X93699339Y-84207464D01*
X93699339Y-84207464D02*
X93794577Y-84302702D01*
X93794577Y-84302702D02*
X93889815Y-84350321D01*
X92699339Y-84064607D02*
X92604101Y-84064607D01*
X92604101Y-84064607D02*
X92508863Y-84112226D01*
X92508863Y-84112226D02*
X92461244Y-84159845D01*
X92461244Y-84159845D02*
X92413625Y-84255083D01*
X92413625Y-84255083D02*
X92366006Y-84445559D01*
X92366006Y-84445559D02*
X92366006Y-84683654D01*
X92366006Y-84683654D02*
X92413625Y-84874130D01*
X92413625Y-84874130D02*
X92461244Y-84969368D01*
X92461244Y-84969368D02*
X92508863Y-85016988D01*
X92508863Y-85016988D02*
X92604101Y-85064607D01*
X92604101Y-85064607D02*
X92699339Y-85064607D01*
X92699339Y-85064607D02*
X92794577Y-85016988D01*
X92794577Y-85016988D02*
X92842196Y-84969368D01*
X92842196Y-84969368D02*
X92889815Y-84874130D01*
X92889815Y-84874130D02*
X92937434Y-84683654D01*
X92937434Y-84683654D02*
X92937434Y-84445559D01*
X92937434Y-84445559D02*
X92889815Y-84255083D01*
X92889815Y-84255083D02*
X92842196Y-84159845D01*
X92842196Y-84159845D02*
X92794577Y-84112226D01*
X92794577Y-84112226D02*
X92699339Y-84064607D01*
X91794577Y-84493178D02*
X91889815Y-84445559D01*
X91889815Y-84445559D02*
X91937434Y-84397940D01*
X91937434Y-84397940D02*
X91985053Y-84302702D01*
X91985053Y-84302702D02*
X91985053Y-84255083D01*
X91985053Y-84255083D02*
X91937434Y-84159845D01*
X91937434Y-84159845D02*
X91889815Y-84112226D01*
X91889815Y-84112226D02*
X91794577Y-84064607D01*
X91794577Y-84064607D02*
X91604101Y-84064607D01*
X91604101Y-84064607D02*
X91508863Y-84112226D01*
X91508863Y-84112226D02*
X91461244Y-84159845D01*
X91461244Y-84159845D02*
X91413625Y-84255083D01*
X91413625Y-84255083D02*
X91413625Y-84302702D01*
X91413625Y-84302702D02*
X91461244Y-84397940D01*
X91461244Y-84397940D02*
X91508863Y-84445559D01*
X91508863Y-84445559D02*
X91604101Y-84493178D01*
X91604101Y-84493178D02*
X91794577Y-84493178D01*
X91794577Y-84493178D02*
X91889815Y-84540797D01*
X91889815Y-84540797D02*
X91937434Y-84588416D01*
X91937434Y-84588416D02*
X91985053Y-84683654D01*
X91985053Y-84683654D02*
X91985053Y-84874130D01*
X91985053Y-84874130D02*
X91937434Y-84969368D01*
X91937434Y-84969368D02*
X91889815Y-85016988D01*
X91889815Y-85016988D02*
X91794577Y-85064607D01*
X91794577Y-85064607D02*
X91604101Y-85064607D01*
X91604101Y-85064607D02*
X91508863Y-85016988D01*
X91508863Y-85016988D02*
X91461244Y-84969368D01*
X91461244Y-84969368D02*
X91413625Y-84874130D01*
X91413625Y-84874130D02*
X91413625Y-84683654D01*
X91413625Y-84683654D02*
X91461244Y-84588416D01*
X91461244Y-84588416D02*
X91508863Y-84540797D01*
X91508863Y-84540797D02*
X91604101Y-84493178D01*
X90223148Y-85064607D02*
X90223148Y-84064607D01*
X90127910Y-84683654D02*
X89842196Y-85064607D01*
X89842196Y-84397940D02*
X90223148Y-84778892D01*
X89413624Y-85064607D02*
X89413624Y-84064607D01*
X89413624Y-84540797D02*
X88842196Y-84540797D01*
X88842196Y-85064607D02*
X88842196Y-84064607D01*
X88461243Y-84397940D02*
X87937434Y-84397940D01*
X87937434Y-84397940D02*
X88461243Y-85064607D01*
X88461243Y-85064607D02*
X87937434Y-85064607D01*
X110175533Y-86674551D02*
X110746961Y-86674551D01*
X110461247Y-86674551D02*
X110461247Y-85674551D01*
X110461247Y-85674551D02*
X110556485Y-85817408D01*
X110556485Y-85817408D02*
X110651723Y-85912646D01*
X110651723Y-85912646D02*
X110746961Y-85960265D01*
X105746960Y-85674551D02*
X105651722Y-85674551D01*
X105651722Y-85674551D02*
X105556484Y-85722170D01*
X105556484Y-85722170D02*
X105508865Y-85769789D01*
X105508865Y-85769789D02*
X105461246Y-85865027D01*
X105461246Y-85865027D02*
X105413627Y-86055503D01*
X105413627Y-86055503D02*
X105413627Y-86293598D01*
X105413627Y-86293598D02*
X105461246Y-86484074D01*
X105461246Y-86484074D02*
X105508865Y-86579312D01*
X105508865Y-86579312D02*
X105556484Y-86626932D01*
X105556484Y-86626932D02*
X105651722Y-86674551D01*
X105651722Y-86674551D02*
X105746960Y-86674551D01*
X105746960Y-86674551D02*
X105842198Y-86626932D01*
X105842198Y-86626932D02*
X105889817Y-86579312D01*
X105889817Y-86579312D02*
X105937436Y-86484074D01*
X105937436Y-86484074D02*
X105985055Y-86293598D01*
X105985055Y-86293598D02*
X105985055Y-86055503D01*
X105985055Y-86055503D02*
X105937436Y-85865027D01*
X105937436Y-85865027D02*
X105889817Y-85769789D01*
X105889817Y-85769789D02*
X105842198Y-85722170D01*
X105842198Y-85722170D02*
X105746960Y-85674551D01*
X101413626Y-86674551D02*
X101985054Y-86674551D01*
X101699340Y-86674551D02*
X101699340Y-85674551D01*
X101699340Y-85674551D02*
X101794578Y-85817408D01*
X101794578Y-85817408D02*
X101889816Y-85912646D01*
X101889816Y-85912646D02*
X101985054Y-85960265D01*
X100794578Y-85674551D02*
X100699340Y-85674551D01*
X100699340Y-85674551D02*
X100604102Y-85722170D01*
X100604102Y-85722170D02*
X100556483Y-85769789D01*
X100556483Y-85769789D02*
X100508864Y-85865027D01*
X100508864Y-85865027D02*
X100461245Y-86055503D01*
X100461245Y-86055503D02*
X100461245Y-86293598D01*
X100461245Y-86293598D02*
X100508864Y-86484074D01*
X100508864Y-86484074D02*
X100556483Y-86579312D01*
X100556483Y-86579312D02*
X100604102Y-86626932D01*
X100604102Y-86626932D02*
X100699340Y-86674551D01*
X100699340Y-86674551D02*
X100794578Y-86674551D01*
X100794578Y-86674551D02*
X100889816Y-86626932D01*
X100889816Y-86626932D02*
X100937435Y-86579312D01*
X100937435Y-86579312D02*
X100985054Y-86484074D01*
X100985054Y-86484074D02*
X101032673Y-86293598D01*
X101032673Y-86293598D02*
X101032673Y-86055503D01*
X101032673Y-86055503D02*
X100985054Y-85865027D01*
X100985054Y-85865027D02*
X100937435Y-85769789D01*
X100937435Y-85769789D02*
X100889816Y-85722170D01*
X100889816Y-85722170D02*
X100794578Y-85674551D01*
X99842197Y-85674551D02*
X99746959Y-85674551D01*
X99746959Y-85674551D02*
X99651721Y-85722170D01*
X99651721Y-85722170D02*
X99604102Y-85769789D01*
X99604102Y-85769789D02*
X99556483Y-85865027D01*
X99556483Y-85865027D02*
X99508864Y-86055503D01*
X99508864Y-86055503D02*
X99508864Y-86293598D01*
X99508864Y-86293598D02*
X99556483Y-86484074D01*
X99556483Y-86484074D02*
X99604102Y-86579312D01*
X99604102Y-86579312D02*
X99651721Y-86626932D01*
X99651721Y-86626932D02*
X99746959Y-86674551D01*
X99746959Y-86674551D02*
X99842197Y-86674551D01*
X99842197Y-86674551D02*
X99937435Y-86626932D01*
X99937435Y-86626932D02*
X99985054Y-86579312D01*
X99985054Y-86579312D02*
X100032673Y-86484074D01*
X100032673Y-86484074D02*
X100080292Y-86293598D01*
X100080292Y-86293598D02*
X100080292Y-86055503D01*
X100080292Y-86055503D02*
X100032673Y-85865027D01*
X100032673Y-85865027D02*
X99985054Y-85769789D01*
X99985054Y-85769789D02*
X99937435Y-85722170D01*
X99937435Y-85722170D02*
X99842197Y-85674551D01*
X98318387Y-86674551D02*
X98318387Y-85674551D01*
X98223149Y-86293598D02*
X97937435Y-86674551D01*
X97937435Y-86007884D02*
X98318387Y-86388836D01*
X97508863Y-86674551D02*
X97508863Y-85674551D01*
X97508863Y-86150741D02*
X96937435Y-86150741D01*
X96937435Y-86674551D02*
X96937435Y-85674551D01*
X96556482Y-86007884D02*
X96032673Y-86007884D01*
X96032673Y-86007884D02*
X96556482Y-86674551D01*
X96556482Y-86674551D02*
X96032673Y-86674551D01*
X94889815Y-86293598D02*
X94127911Y-86293598D01*
X92937434Y-85769789D02*
X92889815Y-85722170D01*
X92889815Y-85722170D02*
X92794577Y-85674551D01*
X92794577Y-85674551D02*
X92556482Y-85674551D01*
X92556482Y-85674551D02*
X92461244Y-85722170D01*
X92461244Y-85722170D02*
X92413625Y-85769789D01*
X92413625Y-85769789D02*
X92366006Y-85865027D01*
X92366006Y-85865027D02*
X92366006Y-85960265D01*
X92366006Y-85960265D02*
X92413625Y-86103122D01*
X92413625Y-86103122D02*
X92985053Y-86674551D01*
X92985053Y-86674551D02*
X92366006Y-86674551D01*
X91413625Y-86674551D02*
X91985053Y-86674551D01*
X91699339Y-86674551D02*
X91699339Y-85674551D01*
X91699339Y-85674551D02*
X91794577Y-85817408D01*
X91794577Y-85817408D02*
X91889815Y-85912646D01*
X91889815Y-85912646D02*
X91985053Y-85960265D01*
X90556482Y-85674551D02*
X90746958Y-85674551D01*
X90746958Y-85674551D02*
X90842196Y-85722170D01*
X90842196Y-85722170D02*
X90889815Y-85769789D01*
X90889815Y-85769789D02*
X90985053Y-85912646D01*
X90985053Y-85912646D02*
X91032672Y-86103122D01*
X91032672Y-86103122D02*
X91032672Y-86484074D01*
X91032672Y-86484074D02*
X90985053Y-86579312D01*
X90985053Y-86579312D02*
X90937434Y-86626932D01*
X90937434Y-86626932D02*
X90842196Y-86674551D01*
X90842196Y-86674551D02*
X90651720Y-86674551D01*
X90651720Y-86674551D02*
X90556482Y-86626932D01*
X90556482Y-86626932D02*
X90508863Y-86579312D01*
X90508863Y-86579312D02*
X90461244Y-86484074D01*
X90461244Y-86484074D02*
X90461244Y-86245979D01*
X90461244Y-86245979D02*
X90508863Y-86150741D01*
X90508863Y-86150741D02*
X90556482Y-86103122D01*
X90556482Y-86103122D02*
X90651720Y-86055503D01*
X90651720Y-86055503D02*
X90842196Y-86055503D01*
X90842196Y-86055503D02*
X90937434Y-86103122D01*
X90937434Y-86103122D02*
X90985053Y-86150741D01*
X90985053Y-86150741D02*
X91032672Y-86245979D01*
X89270767Y-86674551D02*
X89270767Y-85674551D01*
X89175529Y-86293598D02*
X88889815Y-86674551D01*
X88889815Y-86007884D02*
X89270767Y-86388836D01*
X88461243Y-86674551D02*
X88461243Y-85674551D01*
X88032672Y-86674551D02*
X88032672Y-86150741D01*
X88032672Y-86150741D02*
X88080291Y-86055503D01*
X88080291Y-86055503D02*
X88175529Y-86007884D01*
X88175529Y-86007884D02*
X88318386Y-86007884D01*
X88318386Y-86007884D02*
X88413624Y-86055503D01*
X88413624Y-86055503D02*
X88461243Y-86103122D01*
X87651719Y-86007884D02*
X87127910Y-86007884D01*
X87127910Y-86007884D02*
X87651719Y-86674551D01*
X87651719Y-86674551D02*
X87127910Y-86674551D01*
X104209523Y-50954663D02*
X104209523Y-49954663D01*
X104209523Y-49954663D02*
X103876190Y-50668948D01*
X103876190Y-50668948D02*
X103542857Y-49954663D01*
X103542857Y-49954663D02*
X103542857Y-50954663D01*
X103066666Y-50954663D02*
X103066666Y-49954663D01*
X102495238Y-50954663D02*
X102923809Y-50383234D01*
X102495238Y-49954663D02*
X103066666Y-50526091D01*
X102114285Y-50049901D02*
X102066666Y-50002282D01*
X102066666Y-50002282D02*
X101971428Y-49954663D01*
X101971428Y-49954663D02*
X101733333Y-49954663D01*
X101733333Y-49954663D02*
X101638095Y-50002282D01*
X101638095Y-50002282D02*
X101590476Y-50049901D01*
X101590476Y-50049901D02*
X101542857Y-50145139D01*
X101542857Y-50145139D02*
X101542857Y-50240377D01*
X101542857Y-50240377D02*
X101590476Y-50383234D01*
X101590476Y-50383234D02*
X102161904Y-50954663D01*
X102161904Y-50954663D02*
X101542857Y-50954663D01*
D12*
X147566666Y-51459580D02*
X147614285Y-51507200D01*
X147614285Y-51507200D02*
X147757142Y-51554819D01*
X147757142Y-51554819D02*
X147852380Y-51554819D01*
X147852380Y-51554819D02*
X147995237Y-51507200D01*
X147995237Y-51507200D02*
X148090475Y-51411961D01*
X148090475Y-51411961D02*
X148138094Y-51316723D01*
X148138094Y-51316723D02*
X148185713Y-51126247D01*
X148185713Y-51126247D02*
X148185713Y-50983390D01*
X148185713Y-50983390D02*
X148138094Y-50792914D01*
X148138094Y-50792914D02*
X148090475Y-50697676D01*
X148090475Y-50697676D02*
X147995237Y-50602438D01*
X147995237Y-50602438D02*
X147852380Y-50554819D01*
X147852380Y-50554819D02*
X147757142Y-50554819D01*
X147757142Y-50554819D02*
X147614285Y-50602438D01*
X147614285Y-50602438D02*
X147566666Y-50650057D01*
X147233332Y-50554819D02*
X146566666Y-50554819D01*
X146566666Y-50554819D02*
X146995237Y-51554819D01*
X114766666Y-46059580D02*
X114814285Y-46107200D01*
X114814285Y-46107200D02*
X114957142Y-46154819D01*
X114957142Y-46154819D02*
X115052380Y-46154819D01*
X115052380Y-46154819D02*
X115195237Y-46107200D01*
X115195237Y-46107200D02*
X115290475Y-46011961D01*
X115290475Y-46011961D02*
X115338094Y-45916723D01*
X115338094Y-45916723D02*
X115385713Y-45726247D01*
X115385713Y-45726247D02*
X115385713Y-45583390D01*
X115385713Y-45583390D02*
X115338094Y-45392914D01*
X115338094Y-45392914D02*
X115290475Y-45297676D01*
X115290475Y-45297676D02*
X115195237Y-45202438D01*
X115195237Y-45202438D02*
X115052380Y-45154819D01*
X115052380Y-45154819D02*
X114957142Y-45154819D01*
X114957142Y-45154819D02*
X114814285Y-45202438D01*
X114814285Y-45202438D02*
X114766666Y-45250057D01*
X114385713Y-45250057D02*
X114338094Y-45202438D01*
X114338094Y-45202438D02*
X114242856Y-45154819D01*
X114242856Y-45154819D02*
X114004761Y-45154819D01*
X114004761Y-45154819D02*
X113909523Y-45202438D01*
X113909523Y-45202438D02*
X113861904Y-45250057D01*
X113861904Y-45250057D02*
X113814285Y-45345295D01*
X113814285Y-45345295D02*
X113814285Y-45440533D01*
X113814285Y-45440533D02*
X113861904Y-45583390D01*
X113861904Y-45583390D02*
X114433332Y-46154819D01*
X114433332Y-46154819D02*
X113814285Y-46154819D01*
D13*
X102460000Y-45320000D02*
X107220000Y-45320000D01*
X102460000Y-49080000D02*
X102460000Y-45320000D01*
X107220000Y-45320000D02*
X107220000Y-49080000D01*
X107220000Y-49080000D02*
X102460000Y-49080000D01*
D10*
X107760000Y-46000000D02*
X107760000Y-46000000D01*
X107860000Y-46000000D02*
X107860000Y-46000000D01*
X107760000Y-46000000D02*
G75*
G02*
X107860000Y-46000000I50000J0D01*
G01*
X107860000Y-46000000D02*
G75*
G02*
X107760000Y-46000000I-50000J0D01*
G01*
D14*
X144561252Y-50165000D02*
X144038748Y-50165000D01*
X144561252Y-51635000D02*
X144038748Y-51635000D01*
X111961252Y-44965000D02*
X111438748Y-44965000D01*
X111961252Y-46435000D02*
X111438748Y-46435000D01*
D10*
X142080000Y-48400000D02*
X142080000Y-48400000D01*
X142180000Y-48400000D02*
X142180000Y-48400000D01*
D13*
X142720000Y-45320000D02*
X147480000Y-45320000D01*
X142720000Y-49080000D02*
X142720000Y-45320000D01*
X147480000Y-45320000D02*
X147480000Y-49080000D01*
X147480000Y-49080000D02*
X142720000Y-49080000D01*
D10*
X142080000Y-48400000D02*
G75*
G02*
X142180000Y-48400000I50000J0D01*
G01*
X142180000Y-48400000D02*
G75*
G02*
X142080000Y-48400000I-50000J0D01*
G01*
D15*
G36*
X122596826Y-67405482D02*
G01*
X122596826Y-69010386D01*
X122245067Y-69010386D01*
X121893307Y-69010386D01*
X121893307Y-68520691D01*
X121893307Y-68030996D01*
X121457271Y-68024828D01*
X121418323Y-68024266D01*
X121298028Y-68022274D01*
X121201844Y-68020066D01*
X121125716Y-68017359D01*
X121065589Y-68013875D01*
X121017407Y-68009333D01*
X120977115Y-68003451D01*
X120940659Y-67995950D01*
X120903982Y-67986548D01*
X120833070Y-67965199D01*
X120662348Y-67895431D01*
X120512382Y-67805677D01*
X120383781Y-67696509D01*
X120277152Y-67568500D01*
X120193101Y-67422225D01*
X120132237Y-67258254D01*
X120114838Y-67175313D01*
X120102896Y-67068086D01*
X120097838Y-66950483D01*
X120098305Y-66921812D01*
X120787129Y-66921812D01*
X120788596Y-66995798D01*
X120793551Y-67052210D01*
X120803278Y-67096540D01*
X120819070Y-67137517D01*
X120839041Y-67175652D01*
X120903332Y-67262050D01*
X120985206Y-67337083D01*
X121076427Y-67392591D01*
X121167802Y-67434795D01*
X121530554Y-67439176D01*
X121893307Y-67443556D01*
X121893307Y-66921614D01*
X121893307Y-66399671D01*
X121523226Y-66404250D01*
X121153145Y-66408828D01*
X121074875Y-66450051D01*
X120973584Y-66516201D01*
X120888571Y-66599104D01*
X120827334Y-66692559D01*
X120813597Y-66721802D01*
X120799430Y-66760004D01*
X120791370Y-66799953D01*
X120787806Y-66850829D01*
X120787129Y-66921812D01*
X120098305Y-66921812D01*
X120099771Y-66831871D01*
X120108802Y-66721616D01*
X120125039Y-66629083D01*
X120129620Y-66611228D01*
X120186822Y-66451362D01*
X120268978Y-66302240D01*
X120373118Y-66167215D01*
X120496275Y-66049642D01*
X120635480Y-65952875D01*
X120787764Y-65880268D01*
X120830916Y-65864648D01*
X120876597Y-65850074D01*
X120923548Y-65837871D01*
X120974571Y-65827833D01*
X121032472Y-65819752D01*
X121100056Y-65813421D01*
X121180125Y-65808633D01*
X121275485Y-65805180D01*
X121388939Y-65802855D01*
X121523292Y-65801451D01*
X121681349Y-65800761D01*
X121865913Y-65800577D01*
X122596826Y-65800577D01*
X122596826Y-66921614D01*
X122596826Y-67405482D01*
G37*
G36*
X123959896Y-67742423D02*
G01*
X123959896Y-68378769D01*
X124483872Y-68383124D01*
X124530944Y-68383516D01*
X124659889Y-68384662D01*
X124763601Y-68385846D01*
X124845170Y-68387276D01*
X124907689Y-68389161D01*
X124954247Y-68391709D01*
X124987936Y-68395128D01*
X125011846Y-68399628D01*
X125029069Y-68405415D01*
X125042694Y-68412700D01*
X125055814Y-68421690D01*
X125077841Y-68440211D01*
X125120128Y-68492893D01*
X125150258Y-68553676D01*
X125161743Y-68610967D01*
X125152694Y-68659127D01*
X125127608Y-68717555D01*
X125092754Y-68772327D01*
X125054432Y-68811663D01*
X125043367Y-68819057D01*
X125029557Y-68825609D01*
X125010852Y-68830844D01*
X124984201Y-68834947D01*
X124946551Y-68838104D01*
X124894850Y-68840500D01*
X124826045Y-68842321D01*
X124737085Y-68843753D01*
X124624916Y-68844980D01*
X124486487Y-68846189D01*
X123959896Y-68850544D01*
X123959896Y-69479562D01*
X123959896Y-70108580D01*
X124485035Y-70112772D01*
X125010173Y-70116965D01*
X125062664Y-70157018D01*
X125085696Y-70176973D01*
X125130702Y-70238598D01*
X125152979Y-70308315D01*
X125153080Y-70380213D01*
X125131559Y-70448378D01*
X125088970Y-70506900D01*
X125025866Y-70549867D01*
X125021030Y-70552016D01*
X125002148Y-70559214D01*
X124980103Y-70564959D01*
X124951625Y-70569414D01*
X124913446Y-70572746D01*
X124862298Y-70575119D01*
X124794910Y-70576698D01*
X124708016Y-70577649D01*
X124598345Y-70578138D01*
X124462631Y-70578328D01*
X123961384Y-70578650D01*
X123956976Y-71190565D01*
X123952568Y-71802481D01*
X123913300Y-71909982D01*
X123885341Y-71980599D01*
X123828567Y-72092289D01*
X123757749Y-72193094D01*
X123666139Y-72293479D01*
X123575117Y-72376873D01*
X123482393Y-72444358D01*
X123380835Y-72499259D01*
X123260205Y-72547996D01*
X123131795Y-72593941D01*
X122497894Y-72598457D01*
X121863993Y-72602972D01*
X121863993Y-73120600D01*
X121863818Y-73223533D01*
X121863184Y-73339523D01*
X121862142Y-73444659D01*
X121860751Y-73535249D01*
X121859071Y-73607601D01*
X121857159Y-73658024D01*
X121855074Y-73682826D01*
X121851310Y-73697381D01*
X121820466Y-73755642D01*
X121770679Y-73806294D01*
X121710098Y-73840475D01*
X121681101Y-73849211D01*
X121600296Y-73855421D01*
X121524967Y-73836160D01*
X121460653Y-73793496D01*
X121412893Y-73729497D01*
X121409335Y-73722469D01*
X121401295Y-73705319D01*
X121394895Y-73687298D01*
X121389987Y-73665246D01*
X121386424Y-73636004D01*
X121384057Y-73596410D01*
X121382739Y-73543305D01*
X121382322Y-73473530D01*
X121382660Y-73383922D01*
X121383603Y-73271324D01*
X121385006Y-73132573D01*
X121390504Y-72601269D01*
X120762505Y-72601269D01*
X120134507Y-72601269D01*
X120134507Y-73144150D01*
X120134463Y-73251344D01*
X120134195Y-73373071D01*
X120133554Y-73470820D01*
X120132397Y-73547660D01*
X120130580Y-73606659D01*
X120127961Y-73650884D01*
X120124396Y-73683403D01*
X120119741Y-73707285D01*
X120113853Y-73725598D01*
X120106588Y-73741409D01*
X120099470Y-73754149D01*
X120051718Y-73808082D01*
X119990192Y-73841855D01*
X119920881Y-73855782D01*
X119849776Y-73850176D01*
X119782867Y-73825353D01*
X119726141Y-73781626D01*
X119685590Y-73719311D01*
X119681145Y-73705171D01*
X119676444Y-73677428D01*
X119672717Y-73636282D01*
X119669873Y-73579082D01*
X119667820Y-73503175D01*
X119666466Y-73405911D01*
X119665721Y-73284639D01*
X119665494Y-73136708D01*
X119665494Y-72601269D01*
X119043089Y-72601269D01*
X118420685Y-72601269D01*
X118416517Y-73157168D01*
X118416146Y-73206192D01*
X118415043Y-73339811D01*
X118413878Y-73448030D01*
X118412477Y-73533808D01*
X118410668Y-73600104D01*
X118408275Y-73649876D01*
X118405127Y-73686082D01*
X118401049Y-73711682D01*
X118395868Y-73729634D01*
X118389410Y-73742896D01*
X118381503Y-73754427D01*
X118338805Y-73798841D01*
X118267237Y-73838775D01*
X118185170Y-73852723D01*
X118123877Y-73845072D01*
X118048997Y-73811686D01*
X117988837Y-73754427D01*
X117986117Y-73750715D01*
X117978697Y-73738948D01*
X117972670Y-73724496D01*
X117967864Y-73704400D01*
X117964105Y-73675701D01*
X117961219Y-73635440D01*
X117959034Y-73580660D01*
X117957375Y-73508401D01*
X117956069Y-73415706D01*
X117954944Y-73299614D01*
X117953824Y-73157168D01*
X117949656Y-72601269D01*
X117363275Y-72601269D01*
X117297721Y-72601239D01*
X117152633Y-72600861D01*
X117032537Y-72599972D01*
X116934346Y-72598469D01*
X116854973Y-72596250D01*
X116791331Y-72593214D01*
X116740334Y-72589258D01*
X116698894Y-72584280D01*
X116663924Y-72578180D01*
X116590569Y-72560521D01*
X116427967Y-72500739D01*
X116279675Y-72416634D01*
X116147874Y-72310144D01*
X116034748Y-72183210D01*
X115942481Y-72037770D01*
X115873256Y-71875764D01*
X115833874Y-71758511D01*
X115828627Y-71168580D01*
X115823379Y-70578650D01*
X115325616Y-70578650D01*
X115243144Y-70578623D01*
X115114368Y-70578256D01*
X115010116Y-70577082D01*
X114927300Y-70574639D01*
X114862831Y-70570464D01*
X114813621Y-70564094D01*
X114776581Y-70555064D01*
X114748622Y-70542913D01*
X114726656Y-70527178D01*
X114707594Y-70507394D01*
X114688347Y-70483099D01*
X114673854Y-70461359D01*
X114654880Y-70409055D01*
X116295201Y-70409055D01*
X116295359Y-70608647D01*
X116295752Y-70787753D01*
X116296417Y-70947564D01*
X116297386Y-71089271D01*
X116298696Y-71214065D01*
X116300380Y-71323137D01*
X116302474Y-71417679D01*
X116305012Y-71498880D01*
X116308029Y-71567933D01*
X116311559Y-71626029D01*
X116315638Y-71674357D01*
X116320300Y-71714110D01*
X116325580Y-71746479D01*
X116331512Y-71772654D01*
X116338132Y-71793827D01*
X116345473Y-71811188D01*
X116353571Y-71825929D01*
X116362461Y-71839241D01*
X116372176Y-71852315D01*
X116382752Y-71866341D01*
X116394224Y-71882511D01*
X116406540Y-71900029D01*
X116488934Y-71992173D01*
X116586103Y-72065840D01*
X116691156Y-72115619D01*
X116783822Y-72146913D01*
X119906510Y-72146125D01*
X120185120Y-72146049D01*
X120520346Y-72145936D01*
X120828361Y-72145797D01*
X121110349Y-72145623D01*
X121367496Y-72145403D01*
X121600987Y-72145128D01*
X121812007Y-72144787D01*
X122001742Y-72144372D01*
X122171376Y-72143871D01*
X122322095Y-72143275D01*
X122455085Y-72142574D01*
X122571530Y-72141759D01*
X122672615Y-72140819D01*
X122759526Y-72139744D01*
X122833449Y-72138526D01*
X122895567Y-72137153D01*
X122947067Y-72135616D01*
X122989134Y-72133905D01*
X123022953Y-72132010D01*
X123049709Y-72129922D01*
X123070588Y-72127630D01*
X123086774Y-72125124D01*
X123099453Y-72122395D01*
X123109810Y-72119433D01*
X123206603Y-72079035D01*
X123312310Y-72007948D01*
X123398445Y-71916349D01*
X123462933Y-71806544D01*
X123503702Y-71680842D01*
X123504705Y-71675584D01*
X123509762Y-71631026D01*
X123514035Y-71562959D01*
X123517328Y-71476276D01*
X123519447Y-71375874D01*
X123520196Y-71266647D01*
X123520196Y-70930120D01*
X122138806Y-70931070D01*
X121895872Y-70931387D01*
X121663060Y-70932020D01*
X121452540Y-70932951D01*
X121265191Y-70934171D01*
X121101889Y-70935670D01*
X120963512Y-70937438D01*
X120850937Y-70939467D01*
X120765042Y-70941746D01*
X120706705Y-70944266D01*
X120676803Y-70947018D01*
X120652949Y-70951709D01*
X120602143Y-70964452D01*
X120555914Y-70981740D01*
X120510117Y-71006341D01*
X120460609Y-71041024D01*
X120403245Y-71088558D01*
X120333881Y-71151712D01*
X120248372Y-71233255D01*
X120162891Y-71314525D01*
X120084340Y-71385477D01*
X120017742Y-71440160D01*
X119959031Y-71481405D01*
X119904141Y-71512045D01*
X119849007Y-71534911D01*
X119789563Y-71552835D01*
X119754802Y-71558295D01*
X119692861Y-71563343D01*
X119608719Y-71567621D01*
X119506032Y-71571130D01*
X119388457Y-71573867D01*
X119259652Y-71575834D01*
X119123272Y-71577030D01*
X118982976Y-71577454D01*
X118842420Y-71577106D01*
X118705260Y-71575985D01*
X118575154Y-71574091D01*
X118455759Y-71571424D01*
X118350731Y-71567984D01*
X118263728Y-71563769D01*
X118198406Y-71558779D01*
X118158423Y-71553015D01*
X118112657Y-71541091D01*
X118023545Y-71509069D01*
X117940897Y-71464774D01*
X117857476Y-71403952D01*
X117766045Y-71322348D01*
X117631577Y-71193975D01*
X117538610Y-71217792D01*
X117434228Y-71233428D01*
X117319273Y-71225023D01*
X117211275Y-71190511D01*
X117113846Y-71131597D01*
X117030599Y-71049983D01*
X116965145Y-70947373D01*
X116952703Y-70921543D01*
X116933815Y-70876207D01*
X116923154Y-70834503D01*
X116918434Y-70785460D01*
X116917369Y-70718107D01*
X116917374Y-70717429D01*
X117276457Y-70717429D01*
X117282001Y-70758459D01*
X117308523Y-70813225D01*
X117351866Y-70850897D01*
X117407426Y-70869823D01*
X117461836Y-70863636D01*
X117512091Y-70828940D01*
X117539989Y-70792194D01*
X117557193Y-70733883D01*
X117547275Y-70674453D01*
X117510284Y-70619685D01*
X117479233Y-70592424D01*
X117449990Y-70581194D01*
X117411351Y-70583662D01*
X117368414Y-70598529D01*
X117322718Y-70631563D01*
X117289370Y-70673870D01*
X117276457Y-70717429D01*
X116917374Y-70717429D01*
X116917711Y-70671179D01*
X116920563Y-70619212D01*
X116928287Y-70579160D01*
X116943205Y-70540638D01*
X116967639Y-70493260D01*
X116975703Y-70478862D01*
X117048210Y-70379837D01*
X117135720Y-70303661D01*
X117234521Y-70250947D01*
X117340900Y-70222311D01*
X117451146Y-70218366D01*
X117561545Y-70239727D01*
X117668386Y-70287009D01*
X117767955Y-70360825D01*
X117829421Y-70429766D01*
X117885971Y-70529944D01*
X117918330Y-70640503D01*
X117923796Y-70733883D01*
X117925105Y-70756246D01*
X117904904Y-70871976D01*
X117888406Y-70927044D01*
X118000993Y-71034988D01*
X118032512Y-71065658D01*
X118066353Y-71098797D01*
X118096386Y-71126423D01*
X118125372Y-71149034D01*
X118156069Y-71167129D01*
X118191239Y-71181204D01*
X118233640Y-71191759D01*
X118286032Y-71199291D01*
X118351175Y-71204298D01*
X118431829Y-71207277D01*
X118530754Y-71208728D01*
X118650709Y-71209148D01*
X118794454Y-71209035D01*
X118964750Y-71208886D01*
X119077802Y-71208833D01*
X119231808Y-71208510D01*
X119360364Y-71207839D01*
X119465823Y-71206758D01*
X119550539Y-71205204D01*
X119616867Y-71203114D01*
X119667161Y-71200426D01*
X119703774Y-71197078D01*
X119729062Y-71193007D01*
X119745377Y-71188150D01*
X119747471Y-71187188D01*
X119775432Y-71168510D01*
X119819601Y-71133154D01*
X119875868Y-71084650D01*
X119940124Y-71026527D01*
X120008259Y-70962317D01*
X120040193Y-70931779D01*
X120133324Y-70845531D01*
X120213021Y-70777249D01*
X120283723Y-70723757D01*
X120349871Y-70681877D01*
X120415906Y-70648432D01*
X120486267Y-70620244D01*
X120581535Y-70585978D01*
X122050866Y-70581973D01*
X123520196Y-70577969D01*
X123520196Y-70365544D01*
X123520196Y-70153119D01*
X121853001Y-70157027D01*
X120185805Y-70160935D01*
X120107337Y-70202258D01*
X120091838Y-70211412D01*
X120044555Y-70245241D01*
X119984064Y-70294074D01*
X119915379Y-70353768D01*
X119843517Y-70420180D01*
X119831400Y-70431712D01*
X119749002Y-70509065D01*
X119682124Y-70569009D01*
X119626364Y-70614683D01*
X119577318Y-70649223D01*
X119530585Y-70675767D01*
X119481761Y-70697453D01*
X119426443Y-70717419D01*
X119356374Y-70735944D01*
X119248250Y-70751488D01*
X119134138Y-70756026D01*
X119024965Y-70749262D01*
X118931656Y-70730897D01*
X118922345Y-70728124D01*
X118880629Y-70715192D01*
X118842720Y-70701758D01*
X118806577Y-70686136D01*
X118770154Y-70666640D01*
X118731409Y-70641583D01*
X118688296Y-70609279D01*
X118638773Y-70568042D01*
X118580795Y-70516185D01*
X118512319Y-70452023D01*
X118431300Y-70373868D01*
X118335696Y-70280035D01*
X118223461Y-70168837D01*
X118092552Y-70038587D01*
X118023362Y-69969508D01*
X117916881Y-69862482D01*
X117817055Y-69761288D01*
X117725915Y-69668035D01*
X117645493Y-69584828D01*
X117577820Y-69513774D01*
X117524927Y-69456980D01*
X117488846Y-69416553D01*
X117471607Y-69394599D01*
X117443108Y-69339087D01*
X117409989Y-69251258D01*
X117387404Y-69161683D01*
X117379054Y-69082829D01*
X117379054Y-69011317D01*
X117206838Y-69007187D01*
X117034622Y-69003058D01*
X117034622Y-67405482D01*
X117034622Y-65807905D01*
X117382718Y-65803976D01*
X117730814Y-65800046D01*
X117730814Y-66452533D01*
X117730814Y-67105020D01*
X118346394Y-67105020D01*
X118961974Y-67105020D01*
X118961974Y-66452798D01*
X118961974Y-65800577D01*
X119321062Y-65800577D01*
X119680150Y-65800577D01*
X119680150Y-67405482D01*
X119680150Y-69010386D01*
X119321062Y-69010386D01*
X118961974Y-69010386D01*
X118961974Y-68358165D01*
X118961974Y-67705943D01*
X118346394Y-67705943D01*
X117730814Y-67705943D01*
X117731423Y-68383814D01*
X117731475Y-68433750D01*
X117731772Y-68586859D01*
X117732321Y-68714173D01*
X117733218Y-68818414D01*
X117734556Y-68902307D01*
X117736428Y-68968573D01*
X117738927Y-69019936D01*
X117742148Y-69059120D01*
X117746184Y-69088846D01*
X117751127Y-69111839D01*
X117757072Y-69130820D01*
X117761346Y-69141132D01*
X117772293Y-69160995D01*
X117789380Y-69185566D01*
X117814240Y-69216609D01*
X117848511Y-69255890D01*
X117893828Y-69305173D01*
X117951827Y-69366224D01*
X118024144Y-69440807D01*
X118112415Y-69530688D01*
X118218275Y-69637632D01*
X118343361Y-69763404D01*
X118405828Y-69826036D01*
X118533142Y-69953059D01*
X118641927Y-70060578D01*
X118733398Y-70149746D01*
X118808772Y-70221714D01*
X118869263Y-70277634D01*
X118916088Y-70318658D01*
X118950461Y-70345937D01*
X118973598Y-70360624D01*
X118985281Y-70365959D01*
X119066173Y-70388720D01*
X119158260Y-70396164D01*
X119249654Y-70388159D01*
X119328466Y-70364572D01*
X119342192Y-70357143D01*
X119386372Y-70326276D01*
X119445696Y-70278373D01*
X119516646Y-70216350D01*
X119595704Y-70143122D01*
X119599565Y-70139456D01*
X119682284Y-70062416D01*
X119750034Y-70002988D01*
X119807541Y-69957417D01*
X119859536Y-69921944D01*
X119910747Y-69892814D01*
X119933852Y-69880724D01*
X119961814Y-69866217D01*
X119988429Y-69853292D01*
X120015401Y-69841856D01*
X120044433Y-69831820D01*
X120077228Y-69823091D01*
X120115489Y-69815579D01*
X120160920Y-69809193D01*
X120215225Y-69803841D01*
X120280106Y-69799433D01*
X120357267Y-69795876D01*
X120448411Y-69793081D01*
X120555241Y-69790956D01*
X120679462Y-69789410D01*
X120822776Y-69788352D01*
X120986886Y-69787691D01*
X121173497Y-69787335D01*
X121384310Y-69787193D01*
X121621030Y-69787175D01*
X121885360Y-69787190D01*
X123520196Y-69787190D01*
X123520196Y-67685264D01*
X123520188Y-67430003D01*
X123520146Y-67164283D01*
X123520053Y-66925116D01*
X123519890Y-66711029D01*
X123519638Y-66520548D01*
X123519279Y-66352202D01*
X123518794Y-66204516D01*
X123518164Y-66076019D01*
X123517371Y-65965238D01*
X123516397Y-65870698D01*
X123515223Y-65790929D01*
X123513830Y-65724456D01*
X123512199Y-65669808D01*
X123510313Y-65625510D01*
X123508152Y-65590091D01*
X123505699Y-65562077D01*
X123502934Y-65539995D01*
X123499838Y-65522374D01*
X123496394Y-65507739D01*
X123492583Y-65494618D01*
X123452105Y-65390104D01*
X123394299Y-65295239D01*
X123315769Y-65209117D01*
X123248144Y-65154456D01*
X123132144Y-65090766D01*
X123004921Y-65052778D01*
X122994711Y-65051716D01*
X122953420Y-65049896D01*
X122883118Y-65048245D01*
X122784002Y-65046764D01*
X122656267Y-65045454D01*
X122500109Y-65044316D01*
X122315724Y-65043349D01*
X122103307Y-65042555D01*
X121863055Y-65041935D01*
X121595163Y-65041489D01*
X121299827Y-65041217D01*
X120977243Y-65041121D01*
X120627607Y-65041201D01*
X120251114Y-65041458D01*
X119847961Y-65041892D01*
X116770802Y-65045759D01*
X116671633Y-65092581D01*
X116594747Y-65135865D01*
X116495688Y-65213347D01*
X116411276Y-65305072D01*
X116348843Y-65403967D01*
X116301789Y-65500115D01*
X116297483Y-68563358D01*
X116297266Y-68714596D01*
X116296737Y-69062116D01*
X116296236Y-69382005D01*
X116295797Y-69675452D01*
X116295455Y-69943648D01*
X116295245Y-70187786D01*
X116295201Y-70409055D01*
X114654880Y-70409055D01*
X114648570Y-70391659D01*
X114647267Y-70317779D01*
X114668327Y-70246463D01*
X114710131Y-70184454D01*
X114771061Y-70138494D01*
X114777858Y-70135133D01*
X114795128Y-70127983D01*
X114815750Y-70122306D01*
X114842968Y-70117933D01*
X114880028Y-70114696D01*
X114930175Y-70112425D01*
X114996654Y-70110952D01*
X115082711Y-70110109D01*
X115191590Y-70109726D01*
X115326537Y-70109636D01*
X115825447Y-70109636D01*
X115825447Y-69480098D01*
X115825447Y-68850560D01*
X115306185Y-68846198D01*
X115186243Y-68845144D01*
X115071670Y-68843920D01*
X114980691Y-68842514D01*
X114910236Y-68840735D01*
X114857233Y-68838394D01*
X114818609Y-68835301D01*
X114791293Y-68831267D01*
X114772213Y-68826101D01*
X114758297Y-68819614D01*
X114746473Y-68811616D01*
X114733791Y-68801688D01*
X114676111Y-68738539D01*
X114645889Y-68667602D01*
X114643743Y-68591300D01*
X114670289Y-68512060D01*
X114673038Y-68506820D01*
X114713137Y-68451868D01*
X114769609Y-68413127D01*
X114785038Y-68405605D01*
X114803352Y-68398186D01*
X114824512Y-68392370D01*
X114851827Y-68387960D01*
X114888604Y-68384763D01*
X114938152Y-68382583D01*
X115003780Y-68381227D01*
X115088797Y-68380499D01*
X115196509Y-68380205D01*
X115330226Y-68380150D01*
X115825447Y-68380150D01*
X115825447Y-67742585D01*
X115825447Y-67105020D01*
X115330785Y-67104698D01*
X115324309Y-67104694D01*
X115190404Y-67104478D01*
X115082395Y-67103932D01*
X114997007Y-67102894D01*
X114930965Y-67101200D01*
X114880996Y-67098689D01*
X114843823Y-67095198D01*
X114816173Y-67090565D01*
X114794772Y-67084629D01*
X114776344Y-67077226D01*
X114715404Y-67039501D01*
X114668458Y-66981371D01*
X114644594Y-66905649D01*
X114643109Y-66856278D01*
X114662701Y-66782600D01*
X114705876Y-66718313D01*
X114769168Y-66669976D01*
X114786153Y-66661290D01*
X114803880Y-66653847D01*
X114824544Y-66648030D01*
X114851443Y-66643639D01*
X114887873Y-66640472D01*
X114937132Y-66638331D01*
X115002517Y-66637014D01*
X115087323Y-66636321D01*
X115194849Y-66636052D01*
X115328392Y-66636007D01*
X115823379Y-66636007D01*
X115828757Y-66046076D01*
X115829541Y-65961531D01*
X115830907Y-65828714D01*
X115832346Y-65720319D01*
X115834037Y-65633188D01*
X115836156Y-65564166D01*
X115838884Y-65510096D01*
X115842397Y-65467821D01*
X115846875Y-65434185D01*
X115852496Y-65406032D01*
X115859438Y-65380206D01*
X115867879Y-65353549D01*
X115905451Y-65254574D01*
X115989454Y-65095849D01*
X116096034Y-64954320D01*
X116223296Y-64831982D01*
X116369347Y-64730834D01*
X116532292Y-64652872D01*
X116653549Y-64606218D01*
X117298442Y-64598810D01*
X117943335Y-64591402D01*
X117950664Y-64039162D01*
X117951086Y-64007469D01*
X117952985Y-63871142D01*
X117954791Y-63760543D01*
X117956692Y-63672702D01*
X117958879Y-63604648D01*
X117961542Y-63553413D01*
X117964872Y-63516026D01*
X117969058Y-63489517D01*
X117974290Y-63470918D01*
X117980758Y-63457258D01*
X117988653Y-63445567D01*
X117995802Y-63436191D01*
X118054703Y-63378179D01*
X118120501Y-63347333D01*
X118196771Y-63341872D01*
X118263058Y-63354265D01*
X118326612Y-63387937D01*
X118382130Y-63446478D01*
X118384184Y-63449271D01*
X118391569Y-63460906D01*
X118397578Y-63475270D01*
X118402380Y-63495314D01*
X118406145Y-63523993D01*
X118409045Y-63564262D01*
X118411249Y-63619074D01*
X118412928Y-63691383D01*
X118414252Y-63784143D01*
X118415392Y-63900308D01*
X118416517Y-64042831D01*
X118420685Y-64598730D01*
X119043089Y-64598730D01*
X119665494Y-64598730D01*
X119665494Y-64066868D01*
X119665495Y-64030855D01*
X119665574Y-63898454D01*
X119665903Y-63791447D01*
X119666656Y-63706675D01*
X119668007Y-63640978D01*
X119670132Y-63591197D01*
X119673205Y-63554173D01*
X119677401Y-63526748D01*
X119682894Y-63505761D01*
X119689859Y-63488053D01*
X119698471Y-63470467D01*
X119710060Y-63449267D01*
X119755645Y-63391345D01*
X119813009Y-63357087D01*
X119888400Y-63342276D01*
X119966606Y-63347005D01*
X120039125Y-63376969D01*
X120097393Y-63432401D01*
X120098825Y-63434343D01*
X120106207Y-63445947D01*
X120112256Y-63460413D01*
X120117154Y-63480680D01*
X120121083Y-63509687D01*
X120124226Y-63550372D01*
X120126764Y-63605675D01*
X120128879Y-63678534D01*
X120130753Y-63771888D01*
X120132569Y-63888677D01*
X120134507Y-64031838D01*
X120141835Y-64591402D01*
X120761140Y-64591402D01*
X121380445Y-64591402D01*
X121384048Y-64039175D01*
X121384323Y-63997454D01*
X121385295Y-63863028D01*
X121386349Y-63754130D01*
X121387657Y-63667791D01*
X121389391Y-63601041D01*
X121391723Y-63550909D01*
X121394823Y-63514426D01*
X121398863Y-63488621D01*
X121404016Y-63470525D01*
X121410452Y-63457168D01*
X121418343Y-63445580D01*
X121419082Y-63444588D01*
X121480782Y-63385057D01*
X121556233Y-63350379D01*
X121641087Y-63342564D01*
X121709237Y-63354986D01*
X121771562Y-63388321D01*
X121826446Y-63446478D01*
X121828442Y-63449190D01*
X121835842Y-63460824D01*
X121841863Y-63475166D01*
X121846674Y-63495172D01*
X121850447Y-63523797D01*
X121853351Y-63563999D01*
X121855559Y-63618732D01*
X121857240Y-63690954D01*
X121858566Y-63783621D01*
X121859706Y-63899688D01*
X121860831Y-64042111D01*
X121864997Y-64597290D01*
X122498396Y-64602094D01*
X123131795Y-64606897D01*
X123237985Y-64645887D01*
X123266775Y-64656719D01*
X123395745Y-64713679D01*
X123505560Y-64778714D01*
X123604613Y-64856647D01*
X123661421Y-64910043D01*
X123767924Y-65031622D01*
X123852670Y-65164490D01*
X123920856Y-65316202D01*
X123925419Y-65328704D01*
X123932152Y-65350113D01*
X123937677Y-65374147D01*
X123942147Y-65403771D01*
X123945712Y-65441951D01*
X123948522Y-65491653D01*
X123950731Y-65555841D01*
X123952487Y-65637480D01*
X123953943Y-65739537D01*
X123955250Y-65864976D01*
X123956558Y-66016763D01*
X123961632Y-66636007D01*
X124462755Y-66636329D01*
X124500854Y-66636359D01*
X124629441Y-66636611D01*
X124732836Y-66637204D01*
X124814310Y-66638304D01*
X124877131Y-66640075D01*
X124924568Y-66642683D01*
X124959891Y-66646294D01*
X124986369Y-66651071D01*
X125007271Y-66657182D01*
X125025866Y-66664790D01*
X125052080Y-66678817D01*
X125107500Y-66728355D01*
X125142195Y-66791215D01*
X125155613Y-66861485D01*
X125147200Y-66933253D01*
X125116402Y-67000608D01*
X125062664Y-67057638D01*
X125010173Y-67097692D01*
X124485035Y-67101884D01*
X123959896Y-67106076D01*
X123959896Y-67685264D01*
X123959896Y-67742423D01*
G37*
%LPC*%
D16*
X147100000Y-76475000D03*
D17*
X147100000Y-79015000D03*
X147100000Y-81555000D03*
D16*
X147200000Y-88560000D03*
D17*
X147200000Y-91100000D03*
X147200000Y-93640000D03*
D16*
X157600000Y-76460000D03*
D17*
X157600000Y-79000000D03*
X157600000Y-81540000D03*
D16*
X141525000Y-61175000D03*
D17*
X144065000Y-61175000D03*
X141525000Y-63715000D03*
X144065000Y-63715000D03*
X141525000Y-66255000D03*
X144065000Y-66255000D03*
D16*
X157600000Y-88575000D03*
D17*
X157600000Y-91115000D03*
X157600000Y-93655000D03*
D18*
X166000000Y-54000000D03*
D19*
X88000000Y-58450000D03*
D20*
X85500000Y-58450000D03*
X83000000Y-58450000D03*
D16*
X99575000Y-92400000D03*
D17*
X99575000Y-94940000D03*
X97035000Y-92400000D03*
X97035000Y-94940000D03*
X94495000Y-92400000D03*
X94495000Y-94940000D03*
X91955000Y-92400000D03*
X91955000Y-94940000D03*
X89415000Y-92400000D03*
X89415000Y-94940000D03*
D18*
X74000000Y-54000000D03*
X166000000Y-96000000D03*
X74000000Y-96000000D03*
D21*
X106540000Y-46000000D03*
X106540000Y-47200000D03*
X106540000Y-48400000D03*
D22*
X104200000Y-47200000D03*
D23*
X143350000Y-50900000D03*
X145250000Y-50900000D03*
X110750000Y-45700000D03*
X112650000Y-45700000D03*
D21*
X143400000Y-48400000D03*
X143400000Y-47200000D03*
X143400000Y-46000000D03*
D22*
X145740000Y-47200000D03*
%LPD*%
M02*
